<?xml version="1.0" encoding="utf-8"?>
<!-- Generator: Adobe Illustrator 24.2.1, SVG Export Plug-In . SVG Version: 6.00 Build 0)  -->
<svg version="1.1" id="Layer_1" xmlns="http://www.w3.org/2000/svg" xmlns:xlink="http://www.w3.org/1999/xlink" x="0px" y="0px"
	 viewBox="0 0 783.6 484.2" style="enable-background:new 0 0 783.6 484.2;" xml:space="preserve">
<style type="text/css">
	.st0{opacity:0.5;fill-rule:evenodd;clip-rule:evenodd;fill:#FFC198;enable-background:new    ;}
	.st1{fill-rule:evenodd;clip-rule:evenodd;fill:url(#Shape_58_);stroke:#FFDDC8;stroke-width:1.4;}
	.st2{fill-rule:evenodd;clip-rule:evenodd;fill:#FFFFFF;stroke:#F7811C;stroke-width:0.9957;}
	.st3{fill:url(#Shape_59_);}
	.st4{fill:url(#Shape_60_);}
	.st5{fill:url(#Shape_61_);}
	.st6{fill:url(#Shape_62_);}
	.st7{fill:url(#Shape_63_);}
	.st8{fill:url(#Shape_64_);}
	.st9{fill:url(#Shape_65_);}
	.st10{filter:url(#Adobe_OpacityMaskFilter);}
	.st11{fill-rule:evenodd;clip-rule:evenodd;fill:#FFFFFF;}
	.st12{mask:url(#mask-13_1_);}
	.st13{filter:url(#Adobe_OpacityMaskFilter_1_);}
	.st14{mask:url(#mask-15_1_);}
	.st15{filter:url(#Adobe_OpacityMaskFilter_2_);}
	.st16{mask:url(#mask-17_1_);}
	.st17{fill:#F9F9F9;}
	.st18{fill:url(#Shape_66_);}
	.st19{fill:url(#Shape_67_);}
	.st20{fill:url(#Shape_68_);}
	.st21{fill-rule:evenodd;clip-rule:evenodd;fill:#F7811C;}
	.st22{fill-rule:evenodd;clip-rule:evenodd;fill:#F3F2F0;}
	.st23{enable-background:new    ;}
	.st24{fill:#FFFFFF;}
	.st25{fill-rule:evenodd;clip-rule:evenodd;fill:#D9D4CF;}
	.st26{opacity:0.3;fill-rule:evenodd;clip-rule:evenodd;fill:#D9D4CF;enable-background:new    ;}
	.st27{fill:#535353;}
	.st28{fill-rule:evenodd;clip-rule:evenodd;fill:#FFFFFF;stroke:#FFDDC8;stroke-width:1.4;}
	.st29{fill:none;}
	.st30{fill-rule:evenodd;clip-rule:evenodd;fill:#1E1E1E;}
	.st31{fill:#1E1E1E;}
	.st32{fill:#F16322;}
	.st33{fill:#F5884F;}
	.st34{fill:#F8AC80;}
</style>
<desc>Created with Sketch.</desc>
<g id="_x33_">
	<g id="Group-8" transform="translate(1, 1)">
		<path id="Shape" class="st0" d="M49.1,135.2h683.4V468c0,8.4-7.7,15.2-17.3,15.2H66.4c-9.5,0-17.3-6.8-17.3-15.2V135.2z"/>
		
			<linearGradient id="Shape_58_" gradientUnits="userSpaceOnUse" x1="85.39" y1="637.9006" x2="85.39" y2="636.475" gradientTransform="matrix(781.5627 0 0 -398 -66346.8281 253831.2188)">
			<stop  offset="0" style="stop-color:#FFFFFF"/>
			<stop  offset="1" style="stop-color:#FFF3E8"/>
		</linearGradient>
		<path id="Shape_1_" class="st1" d="M0,60.2h781.6v380.6c0,9.6-8.8,17.4-19.8,17.4H19.8C8.8,458.2,0,450.4,0,440.8V60.2z"/>
		<g id="Group-7" transform="translate(28.281333, 90.608883)">
			<g id="Group-2" transform="translate(0.414312, 0.026149)">
				<g id="Group-6">
					<g id="US-Filing" transform="translate(0.000000, 242.021277)">
						<circle id="Shape_2_" class="st2" cx="17.5" cy="17.3" r="16.8"/>
						<g id="_x31_13_x5F_Globe-with-Arrow" transform="translate(7.309483, 6.961302)">
							
								<linearGradient id="Shape_59_" gradientUnits="userSpaceOnUse" x1="44.747" y1="290.9025" x2="45.5221" y2="289.5367" gradientTransform="matrix(19.9186 0 0 -19.7623 -889.675 5744.1733)">
								<stop  offset="0" style="stop-color:#FAB643"/>
								<stop  offset="0.5597" style="stop-color:#F48222"/>
								<stop  offset="1" style="stop-color:#F16322"/>
							</linearGradient>
							<path id="Shape_3_" class="st3" d="M7,10.7l2.4,2.6c0.1,0.1,0.2,0.2,0.3,0.2v1c-1.3,0-2.8,0.2-4.1,0.5c-0.6-1.3-1-2.7-1-4.3
								H7z M13.4,10.7h2.4c-0.1,1.6-0.4,3-1,4.2c-1.3-0.3-2.7-0.4-4.1-0.4v-1c0.1-0.1,0.2-0.1,0.3-0.2L13.4,10.7z M7.6,5.5v1.9
								l-1.2,0c-1,0-1.5,1.2-0.8,1.9l0.5,0.5H4.6c0.1-1.7,0.5-3.3,1.2-4.6C6.4,5.3,7,5.4,7.6,5.5z M12.4,5.6
								c0.7-0.1,1.5-0.2,2.2-0.3c0.6,1.3,1.1,2.9,1.2,4.6h-1.5l0.5-0.5c0.7-0.7,0.2-1.9-0.8-1.9l-1.5,0V5.6z M7.6,2.5v2
								c-0.5-0.1-1-0.1-1.4-0.2C6.7,3.6,7.1,3,7.6,2.5z M12.4,2.3c0.6,0.5,1.2,1.2,1.7,2.1c-0.6,0.1-1.1,0.2-1.7,0.3V2.3z M8,0.5
								C7.8,0.7,7.7,1,7.7,1.2C6.8,1.9,5.9,2.9,5.2,4.1C4.4,3.9,3.6,3.6,3,3.3C4.3,2,6.1,1,8,0.5z M12,0.4c2.1,0.4,3.9,1.4,5.3,2.9
								c-0.6,0.3-1.4,0.6-2.2,0.8c-0.8-1.4-1.8-2.5-2.8-3.1C12.3,0.8,12.2,0.6,12,0.4z M9.7,20.2c-2.7-0.1-5.2-1.4-6.9-3.3
								c0.6-0.3,1.4-0.6,2.3-0.8C6.3,18.4,8.1,19.9,9.7,20.2L9.7,20.2z M10.7,20.2L10.7,20.2c1.7-0.3,3.5-1.9,4.7-4.1
								c0.9,0.2,1.6,0.5,2.3,0.8C15.9,18.8,13.4,20.1,10.7,20.2z M9.7,19.2c-1.2-0.3-2.6-1.5-3.6-3.3c1.2-0.2,2.5-0.4,3.6-0.4V19.2z
								 M10.7,19.2v-3.7c1.2,0,2.5,0.1,3.7,0.4C13.3,17.7,11.9,18.9,10.7,19.2z M0.2,10.7h3.4c0.1,1.6,0.4,3.2,1,4.5
								c-1,0.3-1.8,0.6-2.5,0.9C1,14.7,0.3,12.8,0.2,10.7z M0.2,9.8c0.1-2.1,0.9-4.1,2.1-5.7C3,4.4,3.9,4.7,4.8,5
								C4.1,6.4,3.7,8,3.6,9.8H0.2z M20.2,10.7c-0.1,2-0.8,3.9-1.9,5.4c-0.7-0.4-1.5-0.7-2.5-1c0.6-1.3,0.9-2.9,1-4.5H20.2z
								 M20.2,9.8h-3.4C16.7,8,16.3,6.4,15.6,5c0.9-0.2,1.7-0.6,2.4-0.9C19.3,5.6,20.1,7.6,20.2,9.8z M6.4,8.2l2.1,0
								c0-2.3,0-4.5,0-6.8c0,0,0,0,0,0c0-0.4,0.3-0.7,0.7-0.7l1.8,0c0.4,0,0.7,0.3,0.7,0.7c0,2.2,0,4.5,0,6.7l2.3,0
								c0.2,0,0.4,0.3,0.2,0.5l-3.8,4c-0.1,0.1-0.3,0.1-0.4,0l-3.8-4C6.1,8.5,6.2,8.2,6.4,8.2z"/>
						</g>
					</g>
					<g id="Reporting-Analytics" transform="translate(0.000000, 290.425532)">
						<circle id="Shape_4_" class="st2" cx="17.4" cy="17.3" r="16.8"/>
						<g id="Reporting-and-Analytics" transform="translate(8.439419, 8.353563)">
							
								<linearGradient id="Shape_60_" gradientUnits="userSpaceOnUse" x1="42.5897" y1="239.8711" x2="44.0737" y2="239.2849" gradientTransform="matrix(17.7597 0 0 -17.7436 -764.0151 4257.8647)">
								<stop  offset="0" style="stop-color:#FFAD38"/>
								<stop  offset="1" style="stop-color:#F36309"/>
							</linearGradient>
							<path id="Shape_5_" class="st4" d="M0.1,3.9V1.1c0-0.6,0.5-1.1,1.1-1.1h15.6c0.6,0,1.1,0.5,1.1,1.1v2.8H0.1z M12.1,11.1h2.4
								v6.7h-2.4V11.1z M8.7,13.5h2.4v4.3H8.7V13.5z M15.4,9.2h2.4v8.6h-2.4V9.2z M2.9,2.9c0.5,0,1-0.4,1-1s-0.4-1-1-1
								C2.4,1,2,1.5,2,2S2.4,2.9,2.9,2.9z M0.1,4.9h17.8v3.4h-3.4v1.9h-3.4l0,2.4H7.7v3.8H1c-0.5,0-1-0.4-1-1V4.9z M2,6.3v1h6.2v-1
								H2z M2,8.2v1h4.3v-1H2z"/>
						</g>
					</g>
					<g id="Outlook_Circle" transform="translate(0.345745, 97.500000)">
						<circle id="Shape_6_" class="st2" cx="17.3" cy="17.3" r="16.8"/>
						
							<linearGradient id="Shape_61_" gradientUnits="userSpaceOnUse" x1="50.7735" y1="440.6091" x2="51.5758" y2="439.352" gradientTransform="matrix(16.4751 0 0 -16.243 -826.873 7163.3403)">
							<stop  offset="0" style="stop-color:#FAB643"/>
							<stop  offset="0.5597" style="stop-color:#F48222"/>
							<stop  offset="1" style="stop-color:#F16322"/>
						</linearGradient>
						<path id="Shape_7_" class="st5" d="M18.2,13h7.3v9h-7.3v3.4L9,23.7V11l9.2-1.8V13z M18.3,13.6V16l2.2,1.7l4-4.2H18.3z
							 M18.3,16.8v4.7h6.7V14l-4.4,4.5L18.3,16.8z M13.6,20.3c1.3,0,2.2-1.3,2.2-2.8s-1-2.8-2.2-2.8s-2.2,1.3-2.2,2.8
							S12.3,20.3,13.6,20.3z M13.6,19.4c-0.7,0-1.3-0.8-1.3-1.9s0.6-1.9,1.3-1.9c0.7,0,1.3,0.8,1.3,1.9S14.2,19.4,13.6,19.4z"/>
					</g>
					<g id="IDS-B" transform="translate(0.000000, 143.829787)">
						<circle id="Shape_8_" class="st2" cx="17.5" cy="17.3" r="16.8"/>
						
							<linearGradient id="Shape_62_" gradientUnits="userSpaceOnUse" x1="50.7652" y1="394.9167" x2="51.9565" y2="394.3295" gradientTransform="matrix(16.2161 0 0 -18.0994 -817.6909 7158.9766)">
							<stop  offset="0" style="stop-color:#FFAD38"/>
							<stop  offset="1" style="stop-color:#F36309"/>
						</linearGradient>
						<path id="Shape_9_" class="st6" d="M23.7,17.8h-6.3c-0.8,0-1.4,0.5-1.6,1.3h-1.8v1h1.8v1h-1.8v1h1.8v0.5
							c0,0.9,0.7,1.6,1.6,1.6h6.3v1.3c0,0.5-0.4,1-1,1H10.3c-0.5,0-1-0.4-1-1V9.2c0-0.5,0.4-1,1-1h12.4c0.5,0,1,0.4,1,1V17.8
							L23.7,17.8z M11.3,11.2v1.3h10.5v-1.3H11.3z M14.1,14.2v1h6.7v-1H14.1z M11.3,14.1v1.8h1.8v-1.8H11.3z M11.3,19.1v1.8h1.8
							v-1.8H11.3z M14.1,16.1v1h3.7v-1H14.1z M17.5,18.8h7.5c0.3,0,0.6,0.3,0.6,0.6v3.1c0,0.3-0.3,0.6-0.6,0.6h-7.5
							c-0.3,0-0.6-0.3-0.6-0.6v-3.1C16.8,19.1,17.1,18.8,17.5,18.8z M18.1,22.3h0.6v-2.7h-0.6V22.3z M19.4,22.3h1.1
							c0.9,0,1.4-0.6,1.4-1.4c0-0.8-0.6-1.4-1.4-1.4h-1.1V22.3z M20,21.8v-1.6h0.5c0.5,0,0.8,0.3,0.8,0.8v0c0,0.5-0.3,0.8-0.8,0.8
							H20z M23.5,22.4c0.6,0,1-0.3,1-0.9c0-0.5-0.3-0.7-0.9-0.8c-0.5-0.1-0.6-0.2-0.6-0.4c0-0.1,0.1-0.2,0.3-0.2s0.5,0.1,0.7,0.3
							l0.3-0.5c-0.3-0.2-0.6-0.3-1-0.3c-0.6,0-0.9,0.3-0.9,0.8c0,0.5,0.4,0.7,0.9,0.8c0.5,0.1,0.5,0.2,0.5,0.4s-0.1,0.3-0.4,0.3
							c-0.3,0-0.6-0.1-0.8-0.3l-0.4,0.4C22.7,22.2,23.1,22.4,23.5,22.4z"/>
					</g>
					<g id="Docketing-B" transform="translate(0.000000, 49.095745)">
						<circle id="Shape_10_" class="st2" cx="17.4" cy="17.3" r="16.8"/>
						<g id="Docketing" transform="translate(8.471899, 8.348922)">
							
								<linearGradient id="Shape_63_" gradientUnits="userSpaceOnUse" x1="42.5309" y1="481.1389" x2="44.015" y2="480.5528" gradientTransform="matrix(17.7597 0 0 -17.7436 -763.4387 8540.0088)">
								<stop  offset="0" style="stop-color:#FFAD38"/>
								<stop  offset="1" style="stop-color:#F36309"/>
							</linearGradient>
							<path id="Shape_11_" class="st7" d="M0.1,6.3h17.8v10.5c0,0.5-0.4,1-1,1H1c-0.5,0-1-0.4-1-1V6.3z M3.9,8.2
								c-0.3,0-0.5,0.2-0.5,0.5v1.9c0,0.3,0.2,0.5,0.5,0.5h1.9c0.3,0,0.5-0.2,0.5-0.5V8.7c0-0.3-0.2-0.5-0.5-0.5H3.9z M3.9,12.5
								c-0.3,0-0.5,0.2-0.5,0.5v1.9c0,0.3,0.2,0.5,0.5,0.5h1.9c0.3,0,0.5-0.2,0.5-0.5V13c0-0.3-0.2-0.5-0.5-0.5H3.9z M7.7,8.2v1h6.7
								v-1H7.7z M7.7,12.5v1h6.7v-1H7.7z M7.7,10.1v1h4.8v-1H7.7z M7.7,14.5v1h4.8v-1H7.7z M16.9,2c0.5,0,1,0.4,1,1v2.4H0.1V2.9
								c0-0.5,0.4-1,1-1h2.4V1c0-0.5,0.4-1,1-1h1.4c0.5,0,1,0.4,1,1V2h4.3V1c0-0.5,0.4-1,1-1h1.4c0.5,0,1,0.4,1,1V2H16.9z"/>
						</g>
					</g>
					<g id="Annuities-_x26_-renewals-B" transform="translate(0.000000, 195.691489)">
						<circle id="Shape_12_" class="st2" cx="17.3" cy="17.3" r="16.8"/>
						
							<linearGradient id="Shape_64_" gradientUnits="userSpaceOnUse" x1="51.5809" y1="344.1856" x2="52.876" y2="343.5984" gradientTransform="matrix(19.5093 0 0 -20.8839 -1004.8943 7198.1616)">
							<stop  offset="0" style="stop-color:#FFAD38"/>
							<stop  offset="1" style="stop-color:#F36309"/>
						</linearGradient>
						<path id="Shape_13_" class="st8" d="M17.3,21.6v-3.8h3.9c0,1.5-0.3,2.9-0.6,4.1C19.5,21.7,18.4,21.7,17.3,21.6L17.3,21.6z
							 M17.3,12.8c1.1,0,2.2-0.1,3.2-0.3c0.4,1.3,0.7,2.8,0.7,4.4h-3.9V12.8L17.3,12.8z M17.3,27.3L17.3,27.3c1.7-0.3,3.1-1.9,4-4.3
							c1.2,0.2,2.3,0.6,3.2,1C22.7,26,20.1,27.2,17.3,27.3L17.3,27.3z M17.3,26.3v-3.7c1,0,2,0.1,3,0.2
							C19.5,24.8,18.5,26.1,17.3,26.3L17.3,26.3z M17.3,7.4c2.7,0.1,5.2,1.3,6.9,3c-0.8,0.4-1.9,0.7-3.1,1
							C20.2,9.2,18.9,7.7,17.3,7.4L17.3,7.4L17.3,7.4z M17.3,8.4c1.1,0.3,2.2,1.4,2.9,3.2c-0.9,0.1-1.9,0.2-2.9,0.2V8.4L17.3,8.4z
							 M27.1,17.8c-0.1,2-0.8,3.9-2,5.4c-1-0.5-2.2-0.9-3.5-1.2c0.4-1.3,0.6-2.7,0.6-4.3H27.1L27.1,17.8z M27.1,16.9h-4.9
							c0-1.7-0.3-3.2-0.7-4.6c1.3-0.3,2.5-0.7,3.4-1.1C26.2,12.7,27,14.7,27.1,16.9L27.1,16.9z M16,6.8v20.9h-2.2v-1.9
							c-4.2-0.3-6.1-2.5-6.3-5.5h3.6c0.2,1.4,0.7,2.5,2.6,2.8v-4.6c-3.9-0.6-5.8-2-5.8-5.1c0-2.7,2.3-4.7,5.8-5V6.8H16z M11.6,13.1
							c0,1.1,0.4,1.7,2.2,2v-4C12.4,11.3,11.6,12.1,11.6,13.1z"/>
					</g>
					<g id="Group-5" transform="translate(0.345745, 0.000000)">
						<circle id="Shape_14_" class="st2" cx="17.3" cy="17.3" r="16.8"/>
						<g id="Group" transform="translate(8.643617, 8.643617)">
							
								<linearGradient id="Shape_65_" gradientUnits="userSpaceOnUse" x1="35.8782" y1="519.0424" x2="37.3622" y2="518.4551" gradientTransform="matrix(7.8247 0 0 -7.8247 -284.1369 4062.4497)">
								<stop  offset="0" style="stop-color:#FFAD38"/>
								<stop  offset="1" style="stop-color:#F36309"/>
							</linearGradient>
							<polygon id="Shape_15_" class="st9" points="0.1,0.1 7.9,0.1 7.9,7.9 0.1,7.9 							"/>
							<g id="Clipped" transform="translate(1.455767, 0.545913)">
								<g id="Shape_16_">
								</g>
								<defs>
									<filter id="Adobe_OpacityMaskFilter" filterUnits="userSpaceOnUse" x="0.6" y="0.8" width="3.9" height="5.1">
										<feColorMatrix  type="matrix" values="1 0 0 0 0  0 1 0 0 0  0 0 1 0 0  0 0 0 1 0"/>
									</filter>
								</defs>
								<mask maskUnits="userSpaceOnUse" x="0.6" y="0.8" width="3.9" height="5.1" id="mask-13_1_">
									<g class="st10">
										<polygon id="path-12_1_" class="st11" points="0,0 5.1,0 5.1,6.7 0,6.7 										"/>
									</g>
								</mask>
								<g class="st12">
									<g id="Shape_17_">
									</g>
									<defs>
										<filter id="Adobe_OpacityMaskFilter_1_" filterUnits="userSpaceOnUse" x="0.6" y="0.8" width="3.9" height="5.1">
											<feColorMatrix  type="matrix" values="1 0 0 0 0  0 1 0 0 0  0 0 1 0 0  0 0 0 1 0"/>
										</filter>
									</defs>
									<mask maskUnits="userSpaceOnUse" x="0.6" y="0.8" width="3.9" height="5.1" id="mask-15_1_">
										<g class="st13">
											<polygon id="path-14_1_" class="st11" points="0,0 5.1,0 5.1,6.7 0,6.7 											"/>
										</g>
									</mask>
									<g class="st14">
										<g id="Shape_18_">
										</g>
										<defs>
											<filter id="Adobe_OpacityMaskFilter_2_" filterUnits="userSpaceOnUse" x="0.6" y="0.8" width="3.9" height="5.1">
												<feColorMatrix  type="matrix" values="1 0 0 0 0  0 1 0 0 0  0 0 1 0 0  0 0 0 1 0"/>
											</filter>
										</defs>
										<mask maskUnits="userSpaceOnUse" x="0.6" y="0.8" width="3.9" height="5.1" id="mask-17_1_">
											<g class="st15">
												<polygon id="path-16_1_" class="st11" points="0,0 5.1,0 5.1,6.7 0,6.7 												"/>
											</g>
										</mask>
										<g id="Shape_19_" class="st16">
											<g>
												<path id="path-18" d="M3.8,4.6v1.2c0,0.1-0.1,0.1-0.1,0.1c0,0,0,0,0,0L2.6,5.6L1.5,5.9c-0.1,0-0.2,0-0.2-0.1
													c0,0,0,0,0,0V4.6C1.5,4.9,1.8,5.1,2.1,5l0.4-0.1L3,5C3.3,5.1,3.6,4.9,3.8,4.6L3.8,4.6z M2.5,4.5L2.1,4.7
													c-0.2,0.1-0.4,0-0.5-0.2L1.3,4L0.9,3.8C0.7,3.7,0.6,3.5,0.6,3.3l0.2-0.5L0.6,2.3c-0.1-0.2,0-0.4,0.2-0.5l0.5-0.2
													l0.2-0.5c0.1-0.2,0.3-0.3,0.5-0.2L2.5,1L3,0.8c0.2-0.1,0.4,0,0.5,0.2l0.2,0.5l0.5,0.2c0.2,0.1,0.3,0.3,0.2,0.5L4.3,2.8
													l0.2,0.5c0.1,0.2,0,0.4-0.2,0.5L3.8,4L3.5,4.5C3.5,4.7,3.2,4.8,3,4.7L2.5,4.5z M2.5,4.1c0.8,0,1.4-0.6,1.4-1.4
													S3.3,1.4,2.5,1.4S1.2,2,1.2,2.7S1.8,4.1,2.5,4.1z M2.5,3.8c-0.6,0-1.1-0.5-1.1-1.1s0.5-1.1,1.1-1.1s1.1,0.5,1.1,1.1
													S3.2,3.8,2.5,3.8z M2.4,3.4V3h0.2C2.8,3,3,2.8,3,2.6c0-0.2-0.2-0.4-0.4-0.4H2.1v1.2H2.4z M2.6,2.8H2.4V2.4h0.2
													c0.1,0,0.2,0.1,0.2,0.2v0C2.8,2.7,2.7,2.8,2.6,2.8z"/>
											</g>
											<g>
												<path id="path-18_1_" class="st17" d="M3.8,4.6v1.2c0,0.1-0.1,0.1-0.1,0.1c0,0,0,0,0,0L2.6,5.6L1.5,5.9
													c-0.1,0-0.2,0-0.2-0.1c0,0,0,0,0,0V4.6C1.5,4.9,1.8,5.1,2.1,5l0.4-0.1L3,5C3.3,5.1,3.6,4.9,3.8,4.6L3.8,4.6z M2.5,4.5
													L2.1,4.7c-0.2,0.1-0.4,0-0.5-0.2L1.3,4L0.9,3.8C0.7,3.7,0.6,3.5,0.6,3.3l0.2-0.5L0.6,2.3c-0.1-0.2,0-0.4,0.2-0.5
													l0.5-0.2l0.2-0.5c0.1-0.2,0.3-0.3,0.5-0.2L2.5,1L3,0.8c0.2-0.1,0.4,0,0.5,0.2l0.2,0.5l0.5,0.2c0.2,0.1,0.3,0.3,0.2,0.5
													L4.3,2.8l0.2,0.5c0.1,0.2,0,0.4-0.2,0.5L3.8,4L3.5,4.5C3.5,4.7,3.2,4.8,3,4.7L2.5,4.5z M2.5,4.1c0.8,0,1.4-0.6,1.4-1.4
													S3.3,1.4,2.5,1.4S1.2,2,1.2,2.7S1.8,4.1,2.5,4.1z M2.5,3.8c-0.6,0-1.1-0.5-1.1-1.1s0.5-1.1,1.1-1.1s1.1,0.5,1.1,1.1
													S3.2,3.8,2.5,3.8z M2.4,3.4V3h0.2C2.8,3,3,2.8,3,2.6c0-0.2-0.2-0.4-0.4-0.4H2.1v1.2H2.4z M2.6,2.8H2.4V2.4h0.2
													c0.1,0,0.2,0.1,0.2,0.2v0C2.8,2.7,2.7,2.8,2.6,2.8z"/>
											</g>
										</g>
									</g>
								</g>
							</g>
							
								<linearGradient id="Shape_66_" gradientUnits="userSpaceOnUse" x1="36.1205" y1="519.0284" x2="37.6045" y2="518.4675" gradientTransform="matrix(8.0067 0 0 -7.8247 -283.6483 4062.4497)">
								<stop  offset="0" style="stop-color:#FFAD38"/>
								<stop  offset="1" style="stop-color:#F36309"/>
							</linearGradient>
							<polygon id="Shape_20_" class="st18" points="9.2,0.1 17.2,0.1 17.2,7.9 9.2,7.9 							"/>
							<path id="Shape_21_" class="st11" d="M11.7,5.6V2.8h1.1V2.4h-2.6v0.4h1.1v2.8H11.7z M13.6,5.6V3.7c0-0.1,0-0.2,0-0.4
								c0-0.2,0-0.3,0-0.4V2.9l0.9,2.7h0.4l0.9-2.7c0,0.2,0,0.3,0,0.5c0,0.2,0,0.3,0,0.3v1.9h0.4V2.4h-0.6l-0.9,2.7l-0.9-2.7h-0.6
								v3.2H13.6z"/>
							
								<linearGradient id="Shape_67_" gradientUnits="userSpaceOnUse" x1="35.8782" y1="519.0424" x2="37.3622" y2="518.4551" gradientTransform="matrix(7.8247 0 0 -7.8247 -284.1369 4071.5488)">
								<stop  offset="0" style="stop-color:#FFAD38"/>
								<stop  offset="1" style="stop-color:#F36309"/>
							</linearGradient>
							<polygon id="Shape_22_" class="st19" points="0.1,9.2 7.9,9.2 7.9,17 0.1,17 							"/>
							
								<linearGradient id="Shape_68_" gradientUnits="userSpaceOnUse" x1="35.8782" y1="519.0424" x2="37.3622" y2="518.4551" gradientTransform="matrix(7.8247 0 0 -7.8247 -274.8564 4071.5488)">
								<stop  offset="0" style="stop-color:#FFAD38"/>
								<stop  offset="1" style="stop-color:#F36309"/>
							</linearGradient>
							<polygon id="Shape_23_" class="st20" points="9.4,9.2 17.2,9.2 17.2,17 9.4,17 							"/>
							<g id="Shape_24_">
								<g>
									<path id="path-20" d="M4,15.2c0.6,0,1.1-0.3,1.4-0.8C5.7,14,5.8,13.6,5.8,13c0-0.2,0-0.5-0.1-0.7c-0.1-0.2-0.2-0.5-0.3-0.7
										c-0.2-0.3-0.4-0.4-0.7-0.5C4.5,11,4.3,11,4,11l0,0H2.2v4.2H4z M3.9,14.5H3.1v-2.7h0.8c0.4,0,0.7,0.1,0.8,0.3
										c0.1,0.2,0.2,0.6,0.2,1c0,0.3,0,0.6-0.1,0.8C4.6,14.3,4.3,14.5,3.9,14.5L3.9,14.5z"/>
								</g>
								<g>
									<path id="path-20_1_" class="st17" d="M4,15.2c0.6,0,1.1-0.3,1.4-0.8C5.7,14,5.8,13.6,5.8,13c0-0.2,0-0.5-0.1-0.7
										c-0.1-0.2-0.2-0.5-0.3-0.7c-0.2-0.3-0.4-0.4-0.7-0.5C4.5,11,4.3,11,4,11l0,0H2.2v4.2H4z M3.9,14.5H3.1v-2.7h0.8
										c0.4,0,0.7,0.1,0.8,0.3c0.1,0.2,0.2,0.6,0.2,1c0,0.3,0,0.6-0.1,0.8C4.6,14.3,4.3,14.5,3.9,14.5L3.9,14.5z"/>
								</g>
							</g>
							<path id="Shape_25_" class="st11" d="M13.3,10.5c1.5,0,2.6,1.2,2.6,2.6s-1.2,2.6-2.6,2.6s-2.6-1.2-2.6-2.6
								S11.8,10.5,13.3,10.5z M13.3,10.9c-1.2,0-2.2,1-2.2,2.2s1,2.2,2.2,2.2s2.2-1,2.2-2.2S14.5,10.9,13.3,10.9z M13.4,12
								c0.3,0,0.5,0.1,0.6,0.2c0.1,0.1,0.1,0.2,0.2,0.3l0,0.1l-0.4,0.1l0-0.1c0-0.1-0.1-0.1-0.1-0.2c-0.1-0.1-0.2-0.1-0.3-0.1
								c-0.2,0-0.3,0.1-0.4,0.2s-0.1,0.3-0.1,0.5c0,0.3,0,0.5,0.1,0.6c0.1,0.1,0.2,0.2,0.4,0.2c0.1,0,0.2,0,0.3-0.1
								c0.1-0.1,0.1-0.1,0.1-0.2l0-0.1l0.4,0.1l0,0.1c-0.1,0.2-0.2,0.3-0.3,0.4c-0.1,0.1-0.3,0.2-0.6,0.2c-0.3,0-0.5-0.1-0.7-0.3
								s-0.3-0.4-0.3-0.8c0-0.3,0.1-0.6,0.3-0.8S13.1,12,13.4,12z"/>
						</g>
					</g>
				</g>
			</g>
			<path id="Rectangle" class="st11" d="M61.4,0h647c8.3,0,15,6.7,15,15v297c0,8.3-6.7,15-15,15h-647c-8.3,0-15-6.7-15-15V15
				C46.4,6.7,53.1,0,61.4,0z"/>
			<path id="Rectangle_1_" class="st21" d="M61,0h647c8.3,0,15,6.7,15,15v37l0,0H46V15C46,6.7,52.7,0,61,0z"/>
			<path id="Rectangle_2_" class="st22" d="M76,72h617c5.5,0,10,4.5,10,10v17c0,5.5-4.5,10-10,10H76c-5.5,0-10-4.5-10-10V82
				C66,76.5,70.5,72,76,72z"/>
			<path id="Rectangle_3_" class="st21" d="M385,72h308c5.5,0,10,4.5,10,10v17c0,5.5-4.5,10-10,10H385l0,0V72z"/>
			<g class="st23">
				<path class="st24" d="M67.3,33V20.1h3.9l2.3,8.8l2.3-8.8h3.9V33h-2.4V22.9L74.7,33h-2.5l-2.5-10.1V33H67.3z"/>
				<path class="st24" d="M84.6,26.5l-2.2-0.4c0.3-0.9,0.7-1.6,1.3-2s1.5-0.7,2.7-0.7c1.1,0,1.9,0.1,2.5,0.4c0.5,0.3,0.9,0.6,1.1,1
					s0.3,1.1,0.3,2.2l0,2.9c0,0.8,0,1.4,0.1,1.8s0.2,0.8,0.4,1.3h-2.4c-0.1-0.2-0.1-0.4-0.2-0.7c0-0.1-0.1-0.2-0.1-0.3
					c-0.4,0.4-0.9,0.7-1.4,0.9s-1,0.3-1.5,0.3c-1,0-1.7-0.3-2.3-0.8s-0.8-1.2-0.8-2c0-0.5,0.1-1,0.4-1.4c0.3-0.4,0.6-0.7,1.1-0.9
					c0.5-0.2,1.1-0.4,2-0.6c1.2-0.2,2-0.4,2.4-0.6v-0.2c0-0.5-0.1-0.8-0.4-1c-0.2-0.2-0.7-0.3-1.3-0.3c-0.4,0-0.8,0.1-1,0.3
					C85,25.8,84.8,26.1,84.6,26.5z M87.9,28.5c-0.3,0.1-0.8,0.2-1.5,0.4s-1.1,0.3-1.3,0.4c-0.3,0.2-0.5,0.5-0.5,0.9
					c0,0.3,0.1,0.6,0.4,0.9s0.6,0.4,1,0.4c0.4,0,0.9-0.1,1.3-0.4c0.3-0.2,0.5-0.5,0.6-0.8c0.1-0.2,0.1-0.6,0.1-1.2V28.5z"/>
				<path class="st24" d="M93.2,23.7h2.3V25c0.3-0.5,0.7-0.8,1.2-1.1s1.1-0.4,1.7-0.4c1.1,0,2,0.4,2.8,1.3s1.1,2,1.1,3.6
					c0,1.6-0.4,2.8-1.1,3.6c-0.8,0.9-1.7,1.3-2.8,1.3c-0.5,0-1-0.1-1.4-0.3s-0.9-0.6-1.3-1.1v4.7h-2.5V23.7z M95.6,28.2
					c0,1,0.2,1.8,0.6,2.3c0.4,0.5,0.9,0.8,1.5,0.8c0.6,0,1.1-0.2,1.4-0.7c0.4-0.5,0.6-1.2,0.6-2.3c0-1-0.2-1.7-0.6-2.2
					s-0.9-0.7-1.5-0.7c-0.6,0-1.1,0.2-1.5,0.7C95.8,26.6,95.6,27.3,95.6,28.2z"/>
				<path class="st24" d="M110.3,33V20.1h8.8v2.2h-6.2v3h5.4v2.2h-5.4V33H110.3z"/>
				<path class="st24" d="M121.7,22.4v-2.3h2.5v2.3H121.7z M121.7,33v-9.3h2.5V33H121.7z"/>
				<path class="st24" d="M132.6,30l2.5,0.4c-0.3,0.9-0.8,1.6-1.5,2.1s-1.5,0.7-2.6,0.7c-1.6,0-2.8-0.5-3.6-1.6
					c-0.6-0.8-0.9-1.9-0.9-3.2c0-1.5,0.4-2.8,1.2-3.6c0.8-0.9,1.8-1.3,3.1-1.3c1.4,0,2.5,0.5,3.3,1.4c0.8,0.9,1.2,2.3,1.2,4.2H129
					c0,0.7,0.2,1.3,0.6,1.7c0.4,0.4,0.9,0.6,1.4,0.6c0.4,0,0.7-0.1,1-0.3S132.5,30.5,132.6,30z M132.8,27.5c0-0.7-0.2-1.3-0.6-1.6
					c-0.4-0.4-0.8-0.6-1.3-0.6c-0.5,0-1,0.2-1.3,0.6s-0.5,0.9-0.5,1.6H132.8z"/>
				<path class="st24" d="M137.7,33V20.1h2.5V33H137.7z"/>
				<path class="st24" d="M151.7,33h-2.3v-1.4c-0.4,0.5-0.8,0.9-1.3,1.2c-0.5,0.3-1,0.4-1.6,0.4c-1.1,0-2-0.4-2.8-1.3
					c-0.8-0.9-1.1-2.1-1.1-3.6c0-1.6,0.4-2.8,1.1-3.6c0.7-0.8,1.7-1.2,2.8-1.2c1,0,1.9,0.4,2.7,1.3v-4.6h2.5V33z M145.2,28.1
					c0,1,0.1,1.7,0.4,2.2c0.4,0.6,1,1,1.7,1c0.6,0,1.1-0.2,1.5-0.7c0.4-0.5,0.6-1.2,0.6-2.2c0-1.1-0.2-1.8-0.6-2.3s-0.9-0.7-1.5-0.7
					c-0.6,0-1.1,0.2-1.5,0.7C145.4,26.5,145.2,27.2,145.2,28.1z"/>
				<path class="st24" d="M153.8,30.3l2.5-0.4c0.1,0.5,0.3,0.8,0.6,1.1c0.3,0.3,0.8,0.4,1.4,0.4c0.6,0,1.1-0.1,1.4-0.4
					c0.2-0.2,0.3-0.4,0.3-0.7c0-0.2-0.1-0.3-0.2-0.5c-0.1-0.1-0.4-0.2-0.8-0.3c-2-0.4-3.3-0.8-3.8-1.2c-0.7-0.5-1.1-1.2-1.1-2.1
					c0-0.8,0.3-1.5,1-2s1.6-0.8,3-0.8c1.3,0,2.2,0.2,2.8,0.6s1,1,1.3,1.8l-2.3,0.4c-0.1-0.4-0.3-0.6-0.6-0.8s-0.7-0.3-1.2-0.3
					c-0.7,0-1.1,0.1-1.4,0.3c-0.2,0.1-0.3,0.3-0.3,0.5c0,0.2,0.1,0.3,0.2,0.4c0.2,0.2,1,0.4,2.3,0.7s2.2,0.7,2.8,1.1
					c0.5,0.4,0.8,1.1,0.8,1.8c0,0.9-0.4,1.6-1.1,2.2s-1.8,0.9-3.2,0.9c-1.3,0-2.3-0.3-3-0.8S154,31.2,153.8,30.3z"/>
				<path class="st24" d="M174.9,23.7v2h-1.7v3.8c0,0.8,0,1.2,0,1.3s0.1,0.2,0.2,0.3s0.3,0.1,0.4,0.1c0.2,0,0.6-0.1,1-0.2l0.2,1.9
					c-0.6,0.2-1.2,0.4-2,0.4c-0.4,0-0.8-0.1-1.2-0.2c-0.4-0.1-0.6-0.3-0.8-0.6c-0.2-0.2-0.3-0.6-0.3-1c-0.1-0.3-0.1-0.9-0.1-1.7
					v-4.1h-1.1v-2h1.1v-1.9l2.5-1.4v3.3H174.9z"/>
				<path class="st24" d="M176.6,28.2c0-0.8,0.2-1.6,0.6-2.4s1-1.4,1.7-1.8s1.6-0.6,2.5-0.6c1.4,0,2.6,0.5,3.5,1.4
					c0.9,0.9,1.4,2.1,1.4,3.5c0,1.4-0.5,2.6-1.4,3.5s-2.1,1.4-3.4,1.4c-0.9,0-1.7-0.2-2.4-0.6s-1.4-1-1.8-1.7
					C176.8,30.2,176.6,29.3,176.6,28.2z M179.1,28.3c0,0.9,0.2,1.6,0.7,2.1s1,0.7,1.6,0.7s1.2-0.2,1.6-0.7s0.7-1.2,0.7-2.1
					c0-0.9-0.2-1.6-0.7-2.1s-1-0.7-1.6-0.7s-1.2,0.2-1.6,0.7S179.1,27.4,179.1,28.3z"/>
				<path class="st24" d="M194,33V20.1h2.6V33H194z"/>
				<path class="st24" d="M199.4,23.7h2.3v1.3c0.8-1,1.8-1.5,2.9-1.5c0.6,0,1.1,0.1,1.6,0.4s0.8,0.6,1.1,1.1
					c0.4-0.5,0.9-0.9,1.3-1.1s1-0.4,1.5-0.4c0.7,0,1.3,0.1,1.7,0.4s0.8,0.7,1.1,1.2c0.2,0.4,0.3,1,0.3,1.9v6h-2.5v-5.3
					c0-0.9-0.1-1.5-0.3-1.8c-0.2-0.4-0.6-0.5-1.1-0.5c-0.3,0-0.7,0.1-1,0.3s-0.5,0.5-0.7,0.9c-0.1,0.4-0.2,1.1-0.2,1.9V33H205v-5.1
					c0-0.9,0-1.5-0.1-1.8s-0.2-0.5-0.4-0.6s-0.4-0.2-0.8-0.2c-0.4,0-0.7,0.1-1,0.3s-0.5,0.5-0.7,0.9s-0.2,1-0.2,1.9V33h-2.5V23.7z"
					/>
				<path class="st24" d="M216,23.7h2.3V25c0.3-0.5,0.7-0.8,1.2-1.1s1.1-0.4,1.7-0.4c1.1,0,2,0.4,2.8,1.3s1.1,2,1.1,3.6
					c0,1.6-0.4,2.8-1.1,3.6c-0.8,0.9-1.7,1.3-2.8,1.3c-0.5,0-1-0.1-1.4-0.3s-0.9-0.6-1.3-1.1v4.7H216V23.7z M218.5,28.2
					c0,1,0.2,1.8,0.6,2.3c0.4,0.5,0.9,0.8,1.5,0.8c0.6,0,1.1-0.2,1.4-0.7c0.4-0.5,0.6-1.2,0.6-2.3c0-1-0.2-1.7-0.6-2.2
					s-0.9-0.7-1.5-0.7c-0.6,0-1.1,0.2-1.5,0.7C218.7,26.6,218.5,27.3,218.5,28.2z"/>
				<path class="st24" d="M227,28.2c0-0.8,0.2-1.6,0.6-2.4s1-1.4,1.7-1.8s1.6-0.6,2.5-0.6c1.4,0,2.6,0.5,3.5,1.4
					c0.9,0.9,1.4,2.1,1.4,3.5c0,1.4-0.5,2.6-1.4,3.5s-2.1,1.4-3.4,1.4c-0.9,0-1.7-0.2-2.4-0.6s-1.4-1-1.8-1.7
					C227.2,30.2,227,29.3,227,28.2z M229.5,28.3c0,0.9,0.2,1.6,0.7,2.1s1,0.7,1.6,0.7s1.2-0.2,1.6-0.7s0.7-1.2,0.7-2.1
					c0-0.9-0.2-1.6-0.7-2.1s-1-0.7-1.6-0.7s-1.2,0.2-1.6,0.7S229.5,27.4,229.5,28.3z"/>
				<path class="st24" d="M241.4,33h-2.5v-9.3h2.3V25c0.4-0.6,0.7-1,1.1-1.2s0.7-0.3,1.1-0.3c0.6,0,1.1,0.2,1.6,0.5l-0.8,2.2
					c-0.4-0.3-0.8-0.4-1.2-0.4c-0.3,0-0.6,0.1-0.9,0.3c-0.2,0.2-0.4,0.5-0.6,1s-0.2,1.5-0.2,3.1V33z"/>
				<path class="st24" d="M250.8,23.7v2h-1.7v3.8c0,0.8,0,1.2,0,1.3s0.1,0.2,0.2,0.3s0.3,0.1,0.4,0.1c0.2,0,0.6-0.1,1-0.2l0.2,1.9
					c-0.6,0.2-1.2,0.4-2,0.4c-0.4,0-0.8-0.1-1.2-0.2c-0.4-0.1-0.6-0.3-0.8-0.6c-0.2-0.2-0.3-0.6-0.3-1c-0.1-0.3-0.1-0.9-0.1-1.7
					v-4.1h-1.1v-2h1.1v-1.9l2.5-1.4v3.3H250.8z"/>
			</g>
			<polygon id="Rectangle_4_" class="st25" points="387.7,131 397.3,139.6 387.7,148.2 387.7,142.5 372,142.5 372,136.7 
				387.7,136.7 			"/>
			<polygon id="Rectangle-Copy" class="st25" points="387.7,164 397.3,172.6 387.7,181.2 387.7,175.5 372,175.5 372,169.7 
				387.7,169.7 			"/>
			<polygon id="Rectangle-Copy-2" class="st25" points="387.7,198 397.3,206.6 387.7,215.2 387.7,209.5 372,209.5 372,203.7 
				387.7,203.7 			"/>
			<polygon id="Rectangle-Copy-3" class="st25" points="387.7,233 397.3,241.6 387.7,250.2 387.7,244.5 372,244.5 372,238.7 
				387.7,238.7 			"/>
			<polygon id="Rectangle-Copy-4" class="st25" points="387.7,267 397.3,275.6 387.7,284.2 387.7,278.5 372,278.5 372,272.7 
				387.7,272.7 			"/>
			<path id="Shape-Copy-3" class="st26" d="M69,126h232c1.7,0,3,1.3,3,3v20.9c0,1.7-1.3,3-3,3H69c-1.7,0-3-1.3-3-3V129
				C66,127.3,67.3,126,69,126z"/>
			<path id="Shape-Copy-8" class="st21" d="M468,126h232c1.7,0,3,1.3,3,3v20.9c0,1.7-1.3,3-3,3H468c-1.7,0-3-1.3-3-3V129
				C465,127.3,466.3,126,468,126z"/>
			<path id="Shape-Copy-4" class="st26" d="M69,160h232c1.7,0,3,1.3,3,3v20.9c0,1.7-1.3,3-3,3H69c-1.7,0-3-1.3-3-3V163
				C66,161.3,67.3,160,69,160z"/>
			<path id="Shape-Copy-9" class="st21" d="M468,160h232c1.7,0,3,1.3,3,3v20.9c0,1.7-1.3,3-3,3H468c-1.7,0-3-1.3-3-3V163
				C465,161.3,466.3,160,468,160z"/>
			<path id="Shape-Copy-5" class="st26" d="M69,194h232c1.7,0,3,1.3,3,3v20.9c0,1.7-1.3,3-3,3H69c-1.7,0-3-1.3-3-3V197
				C66,195.3,67.3,194,69,194z"/>
			<path id="Shape-Copy-10" class="st21" d="M468,194h232c1.7,0,3,1.3,3,3v20.9c0,1.7-1.3,3-3,3H468c-1.7,0-3-1.3-3-3V197
				C465,195.3,466.3,194,468,194z"/>
			<path id="Shape-Copy-6" class="st26" d="M69,228h232c1.7,0,3,1.3,3,3v20.9c0,1.7-1.3,3-3,3H69c-1.7,0-3-1.3-3-3V231
				C66,229.3,67.3,228,69,228z"/>
			<path id="Shape-Copy-11" class="st21" d="M468,228h232c1.7,0,3,1.3,3,3v20.9c0,1.7-1.3,3-3,3H468c-1.7,0-3-1.3-3-3V231
				C465,229.3,466.3,228,468,228z"/>
			<path id="Shape-Copy-7" class="st26" d="M69,262h232c1.7,0,3,1.3,3,3v20.9c0,1.7-1.3,3-3,3H69c-1.7,0-3-1.3-3-3V265
				C66,263.3,67.3,262,69,262z"/>
			<path id="Shape-Copy-12" class="st21" d="M468,262h232c1.7,0,3,1.3,3,3v20.9c0,1.7-1.3,3-3,3H468c-1.7,0-3-1.3-3-3V265
				C465,263.3,466.3,262,468,262z"/>
			<g class="st23">
				<path class="st27" d="M76,144l3.8-10h1.4l4.1,10h-1.5l-1.2-3h-4.2l-1.1,3H76z M78.9,139.9h3.4l-1-2.8c-0.3-0.8-0.6-1.5-0.7-2.1
					c-0.1,0.6-0.3,1.3-0.5,1.9L78.9,139.9z"/>
				<path class="st27" d="M86.6,146.8v-10h1.1v0.9c0.3-0.4,0.6-0.6,0.9-0.8c0.3-0.2,0.7-0.3,1.2-0.3c0.6,0,1.2,0.2,1.6,0.5
					s0.8,0.8,1.1,1.3c0.2,0.6,0.4,1.2,0.4,1.9c0,0.7-0.1,1.4-0.4,2c-0.3,0.6-0.7,1-1.2,1.4c-0.5,0.3-1,0.5-1.6,0.5
					c-0.4,0-0.8-0.1-1.1-0.3s-0.6-0.4-0.8-0.7v3.5H86.6z M87.8,140.4c0,0.9,0.2,1.6,0.6,2.1s0.8,0.7,1.4,0.7c0.5,0,1-0.2,1.4-0.7
					c0.4-0.5,0.6-1.2,0.6-2.2c0-0.9-0.2-1.6-0.6-2.1s-0.8-0.7-1.4-0.7c-0.5,0-1,0.2-1.4,0.7C88,138.8,87.8,139.5,87.8,140.4z"/>
				<path class="st27" d="M94.8,146.8v-10h1.1v0.9c0.3-0.4,0.6-0.6,0.9-0.8c0.3-0.2,0.7-0.3,1.2-0.3c0.6,0,1.2,0.2,1.6,0.5
					s0.8,0.8,1.1,1.3c0.2,0.6,0.4,1.2,0.4,1.9c0,0.7-0.1,1.4-0.4,2c-0.3,0.6-0.7,1-1.2,1.4c-0.5,0.3-1,0.5-1.6,0.5
					c-0.4,0-0.8-0.1-1.1-0.3s-0.6-0.4-0.8-0.7v3.5H94.8z M95.9,140.4c0,0.9,0.2,1.6,0.6,2.1s0.8,0.7,1.4,0.7c0.5,0,1-0.2,1.4-0.7
					c0.4-0.5,0.6-1.2,0.6-2.2c0-0.9-0.2-1.6-0.6-2.1s-0.8-0.7-1.4-0.7c-0.5,0-1,0.2-1.4,0.7C96.1,138.8,95.9,139.5,95.9,140.4z"/>
				<path class="st27" d="M103.3,144v-1.4h1.4v1.4H103.3z"/>
				<path class="st27" d="M111.6,144v-10h1.4l5.3,7.9V134h1.3v10h-1.4l-5.3-7.9v7.9H111.6z"/>
				<path class="st27" d="M121.5,140.4c0-1.3,0.4-2.3,1.1-3c0.6-0.5,1.4-0.8,2.3-0.8c1,0,1.8,0.3,2.4,1c0.6,0.7,1,1.6,1,2.7
					c0,0.9-0.1,1.7-0.4,2.2c-0.3,0.5-0.7,1-1.2,1.2s-1.1,0.4-1.8,0.4c-1,0-1.8-0.3-2.5-1S121.5,141.6,121.5,140.4z M122.8,140.4
					c0,0.9,0.2,1.6,0.6,2.1c0.4,0.5,0.9,0.7,1.5,0.7c0.6,0,1.1-0.2,1.5-0.7s0.6-1.2,0.6-2.1c0-0.9-0.2-1.6-0.6-2
					c-0.4-0.5-0.9-0.7-1.5-0.7c-0.6,0-1.1,0.2-1.5,0.7S122.8,139.4,122.8,140.4z"/>
				<path class="st27" d="M130.5,144v-1.4h1.4v1.4H130.5z"/>
			</g>
			<g class="st23">
				<path class="st24" d="M475,144l3.8-10h1.4l4.1,10h-1.5l-1.2-3h-4.2l-1.1,3H475z M477.9,139.9h3.4l-1-2.8
					c-0.3-0.8-0.6-1.5-0.7-2.1c-0.1,0.6-0.3,1.3-0.5,1.9L477.9,139.9z"/>
				<path class="st24" d="M485.3,146.8v-10h1.1v0.9c0.3-0.4,0.6-0.6,0.9-0.8c0.3-0.2,0.7-0.3,1.2-0.3c0.6,0,1.2,0.2,1.6,0.5
					c0.5,0.3,0.8,0.8,1.1,1.3c0.2,0.6,0.4,1.2,0.4,1.9c0,0.7-0.1,1.4-0.4,2c-0.3,0.6-0.7,1-1.2,1.4c-0.5,0.3-1,0.5-1.6,0.5
					c-0.4,0-0.8-0.1-1.1-0.3c-0.3-0.2-0.6-0.4-0.8-0.7v3.5H485.3z M486.4,140.4c0,0.9,0.2,1.6,0.6,2.1c0.4,0.4,0.8,0.7,1.4,0.7
					c0.5,0,1-0.2,1.4-0.7c0.4-0.5,0.6-1.2,0.6-2.2c0-0.9-0.2-1.6-0.6-2.1c-0.4-0.5-0.8-0.7-1.4-0.7c-0.5,0-1,0.2-1.4,0.7
					C486.6,138.8,486.4,139.5,486.4,140.4z"/>
				<path class="st24" d="M493,146.8v-10h1.1v0.9c0.3-0.4,0.6-0.6,0.9-0.8c0.3-0.2,0.7-0.3,1.2-0.3c0.6,0,1.2,0.2,1.6,0.5
					c0.5,0.3,0.8,0.8,1.1,1.3c0.2,0.6,0.4,1.2,0.4,1.9c0,0.7-0.1,1.4-0.4,2c-0.3,0.6-0.7,1-1.2,1.4c-0.5,0.3-1,0.5-1.6,0.5
					c-0.4,0-0.8-0.1-1.1-0.3c-0.3-0.2-0.6-0.4-0.8-0.7v3.5H493z M494.2,140.4c0,0.9,0.2,1.6,0.6,2.1c0.4,0.4,0.8,0.7,1.4,0.7
					c0.5,0,1-0.2,1.4-0.7c0.4-0.5,0.6-1.2,0.6-2.2c0-0.9-0.2-1.6-0.6-2.1c-0.4-0.5-0.8-0.7-1.4-0.7c-0.5,0-1,0.2-1.4,0.7
					C494.4,138.8,494.2,139.5,494.2,140.4z"/>
				<path class="st24" d="M500.8,144v-10h1.2v10H500.8z"/>
				<path class="st24" d="M504,135.4V134h1.2v1.4H504z M504,144v-7.3h1.2v7.3H504z"/>
				<path class="st24" d="M511.8,141.3l1.2,0.2c-0.1,0.8-0.5,1.5-1,2c-0.5,0.5-1.2,0.7-2,0.7c-1,0-1.8-0.3-2.4-1
					c-0.6-0.6-0.9-1.6-0.9-2.8c0-0.8,0.1-1.5,0.4-2.1s0.7-1,1.2-1.3c0.5-0.3,1.1-0.4,1.7-0.4c0.8,0,1.4,0.2,1.9,0.6
					c0.5,0.4,0.8,1,1,1.7l-1.2,0.2c-0.1-0.5-0.3-0.9-0.6-1.1c-0.3-0.2-0.6-0.4-1-0.4c-0.6,0-1.1,0.2-1.5,0.7
					c-0.4,0.4-0.6,1.1-0.6,2.1c0,1,0.2,1.7,0.6,2.1c0.4,0.4,0.9,0.7,1.5,0.7c0.5,0,0.9-0.1,1.2-0.4
					C511.5,142.4,511.7,142,511.8,141.3z"/>
				<path class="st24" d="M518.8,143.1c-0.5,0.4-0.9,0.7-1.3,0.8c-0.4,0.2-0.9,0.2-1.4,0.2c-0.8,0-1.4-0.2-1.8-0.6
					c-0.4-0.4-0.6-0.9-0.6-1.5c0-0.4,0.1-0.7,0.2-1c0.2-0.3,0.4-0.5,0.6-0.7c0.3-0.2,0.6-0.3,0.9-0.4c0.2-0.1,0.6-0.1,1.1-0.2
					c1-0.1,1.7-0.3,2.2-0.4c0-0.2,0-0.3,0-0.3c0-0.5-0.1-0.9-0.3-1.1c-0.3-0.3-0.8-0.4-1.4-0.4c-0.6,0-1,0.1-1.3,0.3
					c-0.3,0.2-0.5,0.6-0.6,1.1l-1.2-0.2c0.1-0.5,0.3-0.9,0.5-1.2c0.3-0.3,0.6-0.6,1.1-0.7c0.5-0.2,1-0.3,1.6-0.3
					c0.6,0,1.1,0.1,1.5,0.2c0.4,0.1,0.7,0.3,0.9,0.6c0.2,0.2,0.3,0.5,0.4,0.8c0,0.2,0.1,0.6,0.1,1.1v1.6c0,1.1,0,1.9,0.1,2.2
					c0.1,0.3,0.2,0.6,0.3,0.9H519C518.9,143.7,518.8,143.4,518.8,143.1z M518.7,140.4c-0.4,0.2-1.1,0.3-2,0.5
					c-0.5,0.1-0.9,0.2-1.1,0.2c-0.2,0.1-0.4,0.2-0.5,0.4c-0.1,0.2-0.2,0.4-0.2,0.6c0,0.3,0.1,0.6,0.4,0.8c0.2,0.2,0.6,0.3,1.1,0.3
					c0.5,0,0.9-0.1,1.3-0.3c0.4-0.2,0.6-0.5,0.8-0.9c0.1-0.3,0.2-0.7,0.2-1.2V140.4z"/>
				<path class="st24" d="M524.5,142.9l0.2,1.1c-0.3,0.1-0.7,0.1-0.9,0.1c-0.4,0-0.8-0.1-1-0.2s-0.4-0.3-0.5-0.6
					c-0.1-0.2-0.2-0.7-0.2-1.5v-4.2h-0.9v-1h0.9v-1.8l1.2-0.7v2.5h1.2v1h-1.2v4.2c0,0.4,0,0.6,0.1,0.7c0,0.1,0.1,0.2,0.2,0.2
					c0.1,0.1,0.2,0.1,0.4,0.1C524.1,142.9,524.3,142.9,524.5,142.9z"/>
				<path class="st24" d="M525.7,135.4V134h1.2v1.4H525.7z M525.7,144v-7.3h1.2v7.3H525.7z"/>
				<path class="st24" d="M528.4,140.4c0-1.3,0.4-2.3,1.1-3c0.6-0.5,1.4-0.8,2.3-0.8c1,0,1.8,0.3,2.4,1c0.6,0.7,1,1.6,1,2.7
					c0,0.9-0.1,1.7-0.4,2.2c-0.3,0.5-0.7,1-1.2,1.2c-0.5,0.3-1.1,0.4-1.8,0.4c-1,0-1.8-0.3-2.5-1
					C528.7,142.5,528.4,141.6,528.4,140.4z M529.6,140.4c0,0.9,0.2,1.6,0.6,2.1c0.4,0.5,0.9,0.7,1.5,0.7c0.6,0,1.1-0.2,1.5-0.7
					c0.4-0.5,0.6-1.2,0.6-2.1c0-0.9-0.2-1.6-0.6-2c-0.4-0.5-0.9-0.7-1.5-0.7c-0.6,0-1.1,0.2-1.5,0.7
					C529.8,138.7,529.6,139.4,529.6,140.4z"/>
				<path class="st24" d="M536.6,144v-7.3h1.1v1c0.5-0.8,1.3-1.2,2.3-1.2c0.4,0,0.8,0.1,1.2,0.2c0.4,0.2,0.6,0.4,0.8,0.6
					c0.2,0.3,0.3,0.6,0.4,0.9c0,0.2,0.1,0.6,0.1,1.2v4.5h-1.2v-4.4c0-0.5,0-0.9-0.1-1.1c-0.1-0.2-0.3-0.4-0.5-0.6
					c-0.2-0.1-0.5-0.2-0.9-0.2c-0.5,0-1,0.2-1.4,0.5c-0.4,0.3-0.6,1-0.6,1.9v4H536.6z"/>
			</g>
			<g class="st23">
				<path class="st27" d="M76,178l3.8-10h1.4l4.1,10h-1.5l-1.2-3h-4.2l-1.1,3H76z M78.9,173.9h3.4l-1-2.8c-0.3-0.8-0.6-1.5-0.7-2.1
					c-0.1,0.6-0.3,1.3-0.5,1.9L78.9,173.9z"/>
				<path class="st27" d="M86.6,180.8v-10h1.1v0.9c0.3-0.4,0.6-0.6,0.9-0.8c0.3-0.2,0.7-0.3,1.2-0.3c0.6,0,1.2,0.2,1.6,0.5
					c0.5,0.3,0.8,0.8,1.1,1.3c0.2,0.6,0.4,1.2,0.4,1.9c0,0.7-0.1,1.4-0.4,2c-0.3,0.6-0.7,1-1.2,1.4c-0.5,0.3-1,0.5-1.6,0.5
					c-0.4,0-0.8-0.1-1.1-0.3c-0.3-0.2-0.6-0.4-0.8-0.7v3.5H86.6z M87.8,174.4c0,0.9,0.2,1.6,0.6,2.1c0.4,0.4,0.8,0.7,1.4,0.7
					c0.5,0,1-0.2,1.4-0.7c0.4-0.5,0.6-1.2,0.6-2.2c0-0.9-0.2-1.6-0.6-2.1c-0.4-0.5-0.8-0.7-1.4-0.7c-0.5,0-1,0.2-1.4,0.7
					C88,172.8,87.8,173.5,87.8,174.4z"/>
				<path class="st27" d="M94.8,180.8v-10h1.1v0.9c0.3-0.4,0.6-0.6,0.9-0.8c0.3-0.2,0.7-0.3,1.2-0.3c0.6,0,1.2,0.2,1.6,0.5
					c0.5,0.3,0.8,0.8,1.1,1.3c0.2,0.6,0.4,1.2,0.4,1.9c0,0.7-0.1,1.4-0.4,2c-0.3,0.6-0.7,1-1.2,1.4c-0.5,0.3-1,0.5-1.6,0.5
					c-0.4,0-0.8-0.1-1.1-0.3c-0.3-0.2-0.6-0.4-0.8-0.7v3.5H94.8z M95.9,174.4c0,0.9,0.2,1.6,0.6,2.1c0.4,0.4,0.8,0.7,1.4,0.7
					c0.5,0,1-0.2,1.4-0.7c0.4-0.5,0.6-1.2,0.6-2.2c0-0.9-0.2-1.6-0.6-2.1c-0.4-0.5-0.8-0.7-1.4-0.7c-0.5,0-1,0.2-1.4,0.7
					C96.1,172.8,95.9,173.5,95.9,174.4z"/>
				<path class="st27" d="M103.3,178v-1.4h1.4v1.4H103.3z"/>
				<path class="st27" d="M111.7,178v-10h3.5c0.8,0,1.4,0,1.8,0.1c0.6,0.1,1.1,0.4,1.5,0.7c0.5,0.4,0.9,1,1.2,1.7
					c0.3,0.7,0.4,1.5,0.4,2.4c0,0.8-0.1,1.4-0.3,2s-0.4,1.1-0.7,1.5c-0.3,0.4-0.6,0.7-0.9,0.9s-0.7,0.4-1.2,0.5
					c-0.5,0.1-1,0.2-1.6,0.2H111.7z M113,176.8h2.1c0.7,0,1.2-0.1,1.6-0.2s0.7-0.3,0.9-0.5c0.3-0.3,0.6-0.7,0.7-1.3
					c0.2-0.5,0.3-1.2,0.3-1.9c0-1-0.2-1.9-0.5-2.4c-0.3-0.6-0.8-0.9-1.3-1.1c-0.4-0.1-0.9-0.2-1.7-0.2H113V176.8z"/>
				<path class="st27" d="M126.7,177.1c-0.5,0.4-0.9,0.7-1.3,0.8c-0.4,0.2-0.9,0.2-1.4,0.2c-0.8,0-1.4-0.2-1.8-0.6
					c-0.4-0.4-0.6-0.9-0.6-1.5c0-0.4,0.1-0.7,0.2-1c0.2-0.3,0.4-0.5,0.6-0.7s0.6-0.3,0.9-0.4c0.2-0.1,0.6-0.1,1.1-0.2
					c1-0.1,1.7-0.3,2.2-0.4c0-0.2,0-0.3,0-0.3c0-0.5-0.1-0.9-0.3-1.1c-0.3-0.3-0.8-0.4-1.4-0.4c-0.6,0-1,0.1-1.3,0.3
					s-0.5,0.6-0.6,1.1l-1.2-0.2c0.1-0.5,0.3-0.9,0.5-1.2c0.3-0.3,0.6-0.6,1.1-0.7c0.5-0.2,1-0.3,1.6-0.3c0.6,0,1.1,0.1,1.5,0.2
					c0.4,0.1,0.7,0.3,0.9,0.6c0.2,0.2,0.3,0.5,0.4,0.8c0,0.2,0.1,0.6,0.1,1.1v1.6c0,1.1,0,1.9,0.1,2.2c0.1,0.3,0.2,0.6,0.3,0.9H127
					C126.8,177.7,126.8,177.4,126.7,177.1z M126.6,174.4c-0.4,0.2-1.1,0.3-2,0.5c-0.5,0.1-0.9,0.2-1.1,0.2c-0.2,0.1-0.4,0.2-0.5,0.4
					s-0.2,0.4-0.2,0.6c0,0.3,0.1,0.6,0.4,0.8s0.6,0.3,1.1,0.3c0.5,0,0.9-0.1,1.3-0.3s0.6-0.5,0.8-0.9c0.1-0.3,0.2-0.7,0.2-1.2V174.4
					z"/>
				<path class="st27" d="M132.8,176.9l0.2,1.1c-0.3,0.1-0.7,0.1-0.9,0.1c-0.4,0-0.8-0.1-1-0.2c-0.2-0.1-0.4-0.3-0.5-0.6
					s-0.2-0.7-0.2-1.5v-4.2h-0.9v-1h0.9v-1.8l1.2-0.7v2.5h1.2v1h-1.2v4.2c0,0.4,0,0.6,0.1,0.7c0,0.1,0.1,0.2,0.2,0.2
					c0.1,0.1,0.2,0.1,0.4,0.1C132.4,176.9,132.6,176.9,132.8,176.9z"/>
				<path class="st27" d="M139.4,175.7l1.3,0.2c-0.2,0.7-0.6,1.3-1.1,1.7s-1.2,0.6-2.1,0.6c-1.1,0-1.9-0.3-2.5-1
					c-0.6-0.7-0.9-1.6-0.9-2.8c0-1.2,0.3-2.2,0.9-2.8c0.6-0.7,1.4-1,2.4-1c1,0,1.8,0.3,2.4,1c0.6,0.7,0.9,1.6,0.9,2.8
					c0,0.1,0,0.2,0,0.3h-5.4c0,0.8,0.3,1.4,0.7,1.8s0.9,0.6,1.5,0.6c0.5,0,0.8-0.1,1.2-0.4C139,176.6,139.2,176.2,139.4,175.7z
					 M135.4,173.7h4.1c-0.1-0.6-0.2-1.1-0.5-1.4c-0.4-0.5-0.9-0.7-1.5-0.7c-0.6,0-1,0.2-1.4,0.6C135.6,172.5,135.4,173,135.4,173.7z
					"/>
			</g>
			<g class="st23">
				<path class="st24" d="M476.1,178v-10h6.8v1.2h-5.4v3.1h4.7v1.2h-4.7v4.6H476.1z"/>
				<path class="st24" d="M484.5,169.4V168h1.2v1.4H484.5z M484.5,178v-7.3h1.2v7.3H484.5z"/>
				<path class="st24" d="M487.6,178v-10h1.2v10H487.6z"/>
				<path class="st24" d="M490.7,178v-10h1.2v10H490.7z"/>
				<path class="st24" d="M493.8,169.4V168h1.2v1.4H493.8z M493.8,178v-7.3h1.2v7.3H493.8z"/>
				<path class="st24" d="M496.9,178v-7.3h1.1v1c0.5-0.8,1.3-1.2,2.3-1.2c0.4,0,0.8,0.1,1.2,0.2c0.4,0.2,0.6,0.4,0.8,0.6
					c0.2,0.3,0.3,0.6,0.4,0.9c0,0.2,0.1,0.6,0.1,1.2v4.5h-1.2v-4.4c0-0.5,0-0.9-0.1-1.1s-0.3-0.4-0.5-0.6c-0.2-0.1-0.5-0.2-0.9-0.2
					c-0.5,0-1,0.2-1.4,0.5c-0.4,0.3-0.6,1-0.6,1.9v4H496.9z"/>
				<path class="st24" d="M504.5,178.6l1.2,0.2c0.1,0.4,0.2,0.6,0.4,0.8c0.3,0.2,0.7,0.3,1.3,0.3c0.6,0,1-0.1,1.3-0.3
					c0.3-0.2,0.5-0.5,0.6-1c0.1-0.3,0.1-0.8,0.1-1.6c-0.5,0.6-1.2,1-2,1c-1,0-1.8-0.4-2.3-1.1c-0.5-0.7-0.8-1.6-0.8-2.6
					c0-0.7,0.1-1.3,0.4-1.9c0.3-0.6,0.6-1,1.1-1.4c0.5-0.3,1-0.5,1.7-0.5c0.9,0,1.6,0.3,2.1,1v-0.9h1.1v6.3c0,1.1-0.1,1.9-0.3,2.4
					c-0.2,0.5-0.6,0.8-1.1,1.1s-1.1,0.4-1.8,0.4c-0.9,0-1.6-0.2-2.1-0.6C504.7,180,504.5,179.4,504.5,178.6z M505.5,174.2
					c0,1,0.2,1.6,0.6,2.1c0.4,0.4,0.9,0.7,1.4,0.7c0.6,0,1-0.2,1.4-0.7s0.6-1.1,0.6-2c0-0.9-0.2-1.6-0.6-2c-0.4-0.5-0.9-0.7-1.4-0.7
					c-0.5,0-1,0.2-1.4,0.7C505.7,172.7,505.5,173.4,505.5,174.2z"/>
				<path class="st24" d="M516.5,178v-10h3.5c0.8,0,1.4,0,1.8,0.1c0.6,0.1,1.1,0.4,1.5,0.7c0.5,0.4,0.9,1,1.2,1.7
					c0.3,0.7,0.4,1.5,0.4,2.4c0,0.8-0.1,1.4-0.3,2s-0.4,1.1-0.7,1.5c-0.3,0.4-0.6,0.7-0.9,0.9c-0.3,0.2-0.7,0.4-1.2,0.5
					c-0.5,0.1-1,0.2-1.6,0.2H516.5z M517.9,176.8h2.1c0.7,0,1.2-0.1,1.6-0.2s0.7-0.3,0.9-0.5c0.3-0.3,0.6-0.7,0.7-1.3
					c0.2-0.5,0.3-1.2,0.3-1.9c0-1-0.2-1.9-0.5-2.4c-0.3-0.6-0.8-0.9-1.3-1.1c-0.4-0.1-0.9-0.2-1.7-0.2h-2.1V176.8z"/>
				<path class="st24" d="M531.2,177.1c-0.5,0.4-0.9,0.7-1.3,0.8c-0.4,0.2-0.9,0.2-1.4,0.2c-0.8,0-1.4-0.2-1.8-0.6
					c-0.4-0.4-0.6-0.9-0.6-1.5c0-0.4,0.1-0.7,0.2-1c0.2-0.3,0.4-0.5,0.6-0.7c0.3-0.2,0.6-0.3,0.9-0.4c0.2-0.1,0.6-0.1,1.1-0.2
					c1-0.1,1.7-0.3,2.2-0.4c0-0.2,0-0.3,0-0.3c0-0.5-0.1-0.9-0.3-1.1c-0.3-0.3-0.8-0.4-1.4-0.4c-0.6,0-1,0.1-1.3,0.3
					c-0.3,0.2-0.5,0.6-0.6,1.1l-1.2-0.2c0.1-0.5,0.3-0.9,0.5-1.2c0.3-0.3,0.6-0.6,1.1-0.7c0.5-0.2,1-0.3,1.6-0.3
					c0.6,0,1.1,0.1,1.5,0.2c0.4,0.1,0.7,0.3,0.9,0.6c0.2,0.2,0.3,0.5,0.4,0.8c0,0.2,0.1,0.6,0.1,1.1v1.6c0,1.1,0,1.9,0.1,2.2
					c0.1,0.3,0.2,0.6,0.3,0.9h-1.3C531.3,177.7,531.3,177.4,531.2,177.1z M531.1,174.4c-0.4,0.2-1.1,0.3-2,0.5
					c-0.5,0.1-0.9,0.2-1.1,0.2c-0.2,0.1-0.4,0.2-0.5,0.4c-0.1,0.2-0.2,0.4-0.2,0.6c0,0.3,0.1,0.6,0.4,0.8c0.2,0.2,0.6,0.3,1.1,0.3
					c0.5,0,0.9-0.1,1.3-0.3s0.6-0.5,0.8-0.9c0.1-0.3,0.2-0.7,0.2-1.2V174.4z"/>
				<path class="st24" d="M537,176.9l0.2,1.1c-0.3,0.1-0.7,0.1-0.9,0.1c-0.4,0-0.8-0.1-1-0.2c-0.2-0.1-0.4-0.3-0.5-0.6
					c-0.1-0.2-0.2-0.7-0.2-1.5v-4.2h-0.9v-1h0.9v-1.8l1.2-0.7v2.5h1.2v1h-1.2v4.2c0,0.4,0,0.6,0.1,0.7c0,0.1,0.1,0.2,0.2,0.2
					c0.1,0.1,0.2,0.1,0.4,0.1C536.6,176.9,536.7,176.9,537,176.9z"/>
				<path class="st24" d="M543.1,175.7l1.3,0.2c-0.2,0.7-0.6,1.3-1.1,1.7c-0.5,0.4-1.2,0.6-2.1,0.6c-1.1,0-1.9-0.3-2.5-1
					c-0.6-0.7-0.9-1.6-0.9-2.8c0-1.2,0.3-2.2,0.9-2.8c0.6-0.7,1.4-1,2.4-1c1,0,1.8,0.3,2.4,1c0.6,0.7,0.9,1.6,0.9,2.8
					c0,0.1,0,0.2,0,0.3H539c0,0.8,0.3,1.4,0.7,1.8c0.4,0.4,0.9,0.6,1.5,0.6c0.5,0,0.8-0.1,1.2-0.4
					C542.7,176.6,542.9,176.2,543.1,175.7z M539.1,173.7h4.1c-0.1-0.6-0.2-1.1-0.5-1.4c-0.4-0.5-0.9-0.7-1.5-0.7
					c-0.6,0-1,0.2-1.4,0.6C539.3,172.5,539.1,173,539.1,173.7z"/>
			</g>
			<g class="st23">
				<path class="st27" d="M77.1,212v-10h3.8c0.7,0,1.2,0,1.5,0.1c0.5,0.1,0.9,0.2,1.2,0.5c0.3,0.2,0.6,0.6,0.8,1
					c0.2,0.4,0.3,0.9,0.3,1.4c0,0.9-0.3,1.6-0.8,2.2c-0.5,0.6-1.5,0.9-2.9,0.9h-2.6v4.1H77.1z M78.4,206.7H81c0.9,0,1.5-0.2,1.8-0.5
					c0.4-0.3,0.5-0.8,0.5-1.3c0-0.4-0.1-0.8-0.3-1.1c-0.2-0.3-0.5-0.5-0.8-0.6c-0.2-0.1-0.6-0.1-1.2-0.1h-2.6V206.7z"/>
				<path class="st27" d="M91.4,212v-1.1c-0.6,0.8-1.3,1.2-2.3,1.2c-0.4,0-0.8-0.1-1.2-0.2s-0.6-0.4-0.8-0.6s-0.3-0.6-0.4-0.9
					c-0.1-0.2-0.1-0.6-0.1-1.1v-4.5h1.2v4c0,0.6,0,1.1,0.1,1.3c0.1,0.3,0.2,0.6,0.5,0.8c0.3,0.2,0.6,0.3,0.9,0.3s0.7-0.1,1-0.3
					s0.6-0.4,0.7-0.8c0.1-0.3,0.2-0.8,0.2-1.4v-3.9h1.2v7.3H91.4z"/>
				<path class="st27" d="M95.9,212h-1.1v-10H96v3.6c0.5-0.7,1.2-1,2-1c0.4,0,0.9,0.1,1.3,0.3s0.7,0.4,1,0.8
					c0.3,0.3,0.5,0.7,0.6,1.2c0.1,0.5,0.2,1,0.2,1.5c0,1.2-0.3,2.2-0.9,2.9c-0.6,0.7-1.4,1-2.2,1c-0.9,0-1.5-0.4-2-1.1V212z
					 M95.9,208.3c0,0.9,0.1,1.5,0.4,1.9c0.4,0.6,0.9,1,1.6,1c0.5,0,1-0.2,1.4-0.7s0.6-1.2,0.6-2.1c0-0.9-0.2-1.6-0.6-2.1
					s-0.8-0.7-1.4-0.7c-0.5,0-1,0.2-1.4,0.7C96.1,206.8,95.9,207.4,95.9,208.3z"/>
				<path class="st27" d="M103.3,212v-1.4h1.4v1.4H103.3z"/>
				<path class="st27" d="M111.7,212v-10h3.5c0.8,0,1.4,0,1.8,0.1c0.6,0.1,1.1,0.4,1.5,0.7c0.5,0.4,0.9,1,1.2,1.7
					c0.3,0.7,0.4,1.5,0.4,2.4c0,0.8-0.1,1.4-0.3,2s-0.4,1.1-0.7,1.5c-0.3,0.4-0.6,0.7-0.9,0.9s-0.7,0.4-1.2,0.5
					c-0.5,0.1-1,0.2-1.6,0.2H111.7z M113,210.8h2.1c0.7,0,1.2-0.1,1.6-0.2s0.7-0.3,0.9-0.5c0.3-0.3,0.6-0.7,0.7-1.3
					c0.2-0.5,0.3-1.2,0.3-1.9c0-1-0.2-1.9-0.5-2.4c-0.3-0.6-0.8-0.9-1.3-1.1c-0.4-0.1-0.9-0.2-1.7-0.2H113V210.8z"/>
				<path class="st27" d="M126.7,211.1c-0.5,0.4-0.9,0.7-1.3,0.8c-0.4,0.2-0.9,0.2-1.4,0.2c-0.8,0-1.4-0.2-1.8-0.6
					c-0.4-0.4-0.6-0.9-0.6-1.5c0-0.4,0.1-0.7,0.2-1c0.2-0.3,0.4-0.5,0.6-0.7s0.6-0.3,0.9-0.4c0.2-0.1,0.6-0.1,1.1-0.2
					c1-0.1,1.7-0.3,2.2-0.4c0-0.2,0-0.3,0-0.3c0-0.5-0.1-0.9-0.3-1.1c-0.3-0.3-0.8-0.4-1.4-0.4c-0.6,0-1,0.1-1.3,0.3
					s-0.5,0.6-0.6,1.1l-1.2-0.2c0.1-0.5,0.3-0.9,0.5-1.2c0.3-0.3,0.6-0.6,1.1-0.7c0.5-0.2,1-0.3,1.6-0.3c0.6,0,1.1,0.1,1.5,0.2
					c0.4,0.1,0.7,0.3,0.9,0.6c0.2,0.2,0.3,0.5,0.4,0.8c0,0.2,0.1,0.6,0.1,1.1v1.6c0,1.1,0,1.9,0.1,2.2c0.1,0.3,0.2,0.6,0.3,0.9H127
					C126.8,211.7,126.8,211.4,126.7,211.1z M126.6,208.4c-0.4,0.2-1.1,0.3-2,0.5c-0.5,0.1-0.9,0.2-1.1,0.2c-0.2,0.1-0.4,0.2-0.5,0.4
					s-0.2,0.4-0.2,0.6c0,0.3,0.1,0.6,0.4,0.8s0.6,0.3,1.1,0.3c0.5,0,0.9-0.1,1.3-0.3s0.6-0.5,0.8-0.9c0.1-0.3,0.2-0.7,0.2-1.2V208.4
					z"/>
				<path class="st27" d="M132.8,210.9l0.2,1.1c-0.3,0.1-0.7,0.1-0.9,0.1c-0.4,0-0.8-0.1-1-0.2c-0.2-0.1-0.4-0.3-0.5-0.6
					s-0.2-0.7-0.2-1.5v-4.2h-0.9v-1h0.9v-1.8l1.2-0.7v2.5h1.2v1h-1.2v4.2c0,0.4,0,0.6,0.1,0.7c0,0.1,0.1,0.2,0.2,0.2
					c0.1,0.1,0.2,0.1,0.4,0.1C132.4,210.9,132.6,210.9,132.8,210.9z"/>
				<path class="st27" d="M139.4,209.7l1.3,0.2c-0.2,0.7-0.6,1.3-1.1,1.7s-1.2,0.6-2.1,0.6c-1.1,0-1.9-0.3-2.5-1
					c-0.6-0.7-0.9-1.6-0.9-2.8c0-1.2,0.3-2.2,0.9-2.8c0.6-0.7,1.4-1,2.4-1c1,0,1.8,0.3,2.4,1c0.6,0.7,0.9,1.6,0.9,2.8
					c0,0.1,0,0.2,0,0.3h-5.4c0,0.8,0.3,1.4,0.7,1.8s0.9,0.6,1.5,0.6c0.5,0,0.8-0.1,1.2-0.4C139,210.6,139.2,210.2,139.4,209.7z
					 M135.4,207.7h4.1c-0.1-0.6-0.2-1.1-0.5-1.4c-0.4-0.5-0.9-0.7-1.5-0.7c-0.6,0-1,0.2-1.4,0.6C135.6,206.5,135.4,207,135.4,207.7z
					"/>
			</g>
			<g class="st23">
				<path class="st24" d="M476.1,212v-10h3.8c0.7,0,1.2,0,1.5,0.1c0.5,0.1,0.9,0.2,1.2,0.5c0.3,0.2,0.6,0.6,0.8,1
					c0.2,0.4,0.3,0.9,0.3,1.4c0,0.9-0.3,1.6-0.8,2.2c-0.5,0.6-1.5,0.9-2.9,0.9h-2.6v4.1H476.1z M477.4,206.7h2.6
					c0.9,0,1.5-0.2,1.8-0.5c0.4-0.3,0.5-0.8,0.5-1.3c0-0.4-0.1-0.8-0.3-1.1c-0.2-0.3-0.5-0.5-0.8-0.6c-0.2-0.1-0.6-0.1-1.2-0.1h-2.6
					V206.7z"/>
				<path class="st24" d="M490,212v-1.1c-0.6,0.8-1.3,1.2-2.3,1.2c-0.4,0-0.8-0.1-1.2-0.2c-0.4-0.2-0.6-0.4-0.8-0.6
					c-0.2-0.2-0.3-0.6-0.4-0.9c0-0.2-0.1-0.6-0.1-1.1v-4.5h1.2v4c0,0.6,0,1.1,0.1,1.3c0.1,0.3,0.2,0.6,0.5,0.8
					c0.3,0.2,0.6,0.3,0.9,0.3s0.7-0.1,1-0.3c0.3-0.2,0.6-0.4,0.7-0.8c0.1-0.3,0.2-0.8,0.2-1.4v-3.9h1.2v7.3H490z"/>
				<path class="st24" d="M494.2,212H493v-10h1.2v3.6c0.5-0.7,1.2-1,2-1c0.4,0,0.9,0.1,1.3,0.3c0.4,0.2,0.7,0.4,1,0.8
					c0.3,0.3,0.5,0.7,0.6,1.2c0.1,0.5,0.2,1,0.2,1.5c0,1.2-0.3,2.2-0.9,2.9c-0.6,0.7-1.4,1-2.2,1c-0.9,0-1.5-0.4-2-1.1V212z
					 M494.2,208.3c0,0.9,0.1,1.5,0.4,1.9c0.4,0.6,0.9,1,1.6,1c0.5,0,1-0.2,1.4-0.7c0.4-0.5,0.6-1.2,0.6-2.1c0-0.9-0.2-1.6-0.6-2.1
					s-0.8-0.7-1.4-0.7c-0.5,0-1,0.2-1.4,0.7C494.4,206.8,494.2,207.4,494.2,208.3z"/>
				<path class="st24" d="M500.8,212v-10h1.2v10H500.8z"/>
				<path class="st24" d="M504,203.4V202h1.2v1.4H504z M504,212v-7.3h1.2v7.3H504z"/>
				<path class="st24" d="M511.8,209.3l1.2,0.2c-0.1,0.8-0.5,1.5-1,2c-0.5,0.5-1.2,0.7-2,0.7c-1,0-1.8-0.3-2.4-1
					c-0.6-0.6-0.9-1.6-0.9-2.8c0-0.8,0.1-1.5,0.4-2.1s0.7-1,1.2-1.3c0.5-0.3,1.1-0.4,1.7-0.4c0.8,0,1.4,0.2,1.9,0.6
					c0.5,0.4,0.8,1,1,1.7l-1.2,0.2c-0.1-0.5-0.3-0.9-0.6-1.1c-0.3-0.2-0.6-0.4-1-0.4c-0.6,0-1.1,0.2-1.5,0.7
					c-0.4,0.4-0.6,1.1-0.6,2.1c0,1,0.2,1.7,0.6,2.1c0.4,0.4,0.9,0.7,1.5,0.7c0.5,0,0.9-0.1,1.2-0.4
					C511.5,210.4,511.7,210,511.8,209.3z"/>
				<path class="st24" d="M518.8,211.1c-0.5,0.4-0.9,0.7-1.3,0.8c-0.4,0.2-0.9,0.2-1.4,0.2c-0.8,0-1.4-0.2-1.8-0.6
					c-0.4-0.4-0.6-0.9-0.6-1.5c0-0.4,0.1-0.7,0.2-1c0.2-0.3,0.4-0.5,0.6-0.7c0.3-0.2,0.6-0.3,0.9-0.4c0.2-0.1,0.6-0.1,1.1-0.2
					c1-0.1,1.7-0.3,2.2-0.4c0-0.2,0-0.3,0-0.3c0-0.5-0.1-0.9-0.3-1.1c-0.3-0.3-0.8-0.4-1.4-0.4c-0.6,0-1,0.1-1.3,0.3
					c-0.3,0.2-0.5,0.6-0.6,1.1l-1.2-0.2c0.1-0.5,0.3-0.9,0.5-1.2c0.3-0.3,0.6-0.6,1.1-0.7c0.5-0.2,1-0.3,1.6-0.3
					c0.6,0,1.1,0.1,1.5,0.2c0.4,0.1,0.7,0.3,0.9,0.6c0.2,0.2,0.3,0.5,0.4,0.8c0,0.2,0.1,0.6,0.1,1.1v1.6c0,1.1,0,1.9,0.1,2.2
					c0.1,0.3,0.2,0.6,0.3,0.9H519C518.9,211.7,518.8,211.4,518.8,211.1z M518.7,208.4c-0.4,0.2-1.1,0.3-2,0.5
					c-0.5,0.1-0.9,0.2-1.1,0.2c-0.2,0.1-0.4,0.2-0.5,0.4c-0.1,0.2-0.2,0.4-0.2,0.6c0,0.3,0.1,0.6,0.4,0.8c0.2,0.2,0.6,0.3,1.1,0.3
					c0.5,0,0.9-0.1,1.3-0.3s0.6-0.5,0.8-0.9c0.1-0.3,0.2-0.7,0.2-1.2V208.4z"/>
				<path class="st24" d="M524.5,210.9l0.2,1.1c-0.3,0.1-0.7,0.1-0.9,0.1c-0.4,0-0.8-0.1-1-0.2c-0.2-0.1-0.4-0.3-0.5-0.6
					c-0.1-0.2-0.2-0.7-0.2-1.5v-4.2h-0.9v-1h0.9v-1.8l1.2-0.7v2.5h1.2v1h-1.2v4.2c0,0.4,0,0.6,0.1,0.7c0,0.1,0.1,0.2,0.2,0.2
					c0.1,0.1,0.2,0.1,0.4,0.1C524.1,210.9,524.3,210.9,524.5,210.9z"/>
				<path class="st24" d="M525.7,203.4V202h1.2v1.4H525.7z M525.7,212v-7.3h1.2v7.3H525.7z"/>
				<path class="st24" d="M528.4,208.4c0-1.3,0.4-2.3,1.1-3c0.6-0.5,1.4-0.8,2.3-0.8c1,0,1.8,0.3,2.4,1c0.6,0.7,1,1.6,1,2.7
					c0,0.9-0.1,1.7-0.4,2.2c-0.3,0.5-0.7,1-1.2,1.2c-0.5,0.3-1.1,0.4-1.8,0.4c-1,0-1.8-0.3-2.5-1
					C528.7,210.5,528.4,209.6,528.4,208.4z M529.6,208.4c0,0.9,0.2,1.6,0.6,2.1c0.4,0.5,0.9,0.7,1.5,0.7c0.6,0,1.1-0.2,1.5-0.7
					c0.4-0.5,0.6-1.2,0.6-2.1c0-0.9-0.2-1.6-0.6-2c-0.4-0.5-0.9-0.7-1.5-0.7c-0.6,0-1.1,0.2-1.5,0.7
					C529.8,206.7,529.6,207.4,529.6,208.4z"/>
				<path class="st24" d="M536.6,212v-7.3h1.1v1c0.5-0.8,1.3-1.2,2.3-1.2c0.4,0,0.8,0.1,1.2,0.2c0.4,0.2,0.6,0.4,0.8,0.6
					c0.2,0.3,0.3,0.6,0.4,0.9c0,0.2,0.1,0.6,0.1,1.2v4.5h-1.2v-4.4c0-0.5,0-0.9-0.1-1.1s-0.3-0.4-0.5-0.6c-0.2-0.1-0.5-0.2-0.9-0.2
					c-0.5,0-1,0.2-1.4,0.5c-0.4,0.3-0.6,1-0.6,1.9v4H536.6z"/>
				<path class="st24" d="M548.5,212v-10h3.5c0.8,0,1.4,0,1.8,0.1c0.6,0.1,1.1,0.4,1.5,0.7c0.5,0.4,0.9,1,1.2,1.7
					c0.3,0.7,0.4,1.5,0.4,2.4c0,0.8-0.1,1.4-0.3,2s-0.4,1.1-0.7,1.5c-0.3,0.4-0.6,0.7-0.9,0.9c-0.3,0.2-0.7,0.4-1.2,0.5
					c-0.5,0.1-1,0.2-1.6,0.2H548.5z M549.8,210.8h2.1c0.7,0,1.2-0.1,1.6-0.2s0.7-0.3,0.9-0.5c0.3-0.3,0.6-0.7,0.7-1.3
					c0.2-0.5,0.3-1.2,0.3-1.9c0-1-0.2-1.9-0.5-2.4c-0.3-0.6-0.8-0.9-1.3-1.1c-0.4-0.1-0.9-0.2-1.7-0.2h-2.1V210.8z"/>
				<path class="st24" d="M563.1,211.1c-0.5,0.4-0.9,0.7-1.3,0.8c-0.4,0.2-0.9,0.2-1.4,0.2c-0.8,0-1.4-0.2-1.8-0.6
					c-0.4-0.4-0.6-0.9-0.6-1.5c0-0.4,0.1-0.7,0.2-1c0.2-0.3,0.4-0.5,0.6-0.7c0.3-0.2,0.6-0.3,0.9-0.4c0.2-0.1,0.6-0.1,1.1-0.2
					c1-0.1,1.7-0.3,2.2-0.4c0-0.2,0-0.3,0-0.3c0-0.5-0.1-0.9-0.3-1.1c-0.3-0.3-0.8-0.4-1.4-0.4c-0.6,0-1,0.1-1.3,0.3
					c-0.3,0.2-0.5,0.6-0.6,1.1l-1.2-0.2c0.1-0.5,0.3-0.9,0.5-1.2c0.3-0.3,0.6-0.6,1.1-0.7c0.5-0.2,1-0.3,1.6-0.3
					c0.6,0,1.1,0.1,1.5,0.2c0.4,0.1,0.7,0.3,0.9,0.6c0.2,0.2,0.3,0.5,0.4,0.8c0,0.2,0.1,0.6,0.1,1.1v1.6c0,1.1,0,1.9,0.1,2.2
					c0.1,0.3,0.2,0.6,0.3,0.9h-1.3C563.3,211.7,563.2,211.4,563.1,211.1z M563,208.4c-0.4,0.2-1.1,0.3-2,0.5
					c-0.5,0.1-0.9,0.2-1.1,0.2c-0.2,0.1-0.4,0.2-0.5,0.4c-0.1,0.2-0.2,0.4-0.2,0.6c0,0.3,0.1,0.6,0.4,0.8c0.2,0.2,0.6,0.3,1.1,0.3
					c0.5,0,0.9-0.1,1.3-0.3s0.6-0.5,0.8-0.9c0.1-0.3,0.2-0.7,0.2-1.2V208.4z"/>
				<path class="st24" d="M568.9,210.9l0.2,1.1c-0.3,0.1-0.7,0.1-0.9,0.1c-0.4,0-0.8-0.1-1-0.2c-0.2-0.1-0.4-0.3-0.5-0.6
					c-0.1-0.2-0.2-0.7-0.2-1.5v-4.2h-0.9v-1h0.9v-1.8l1.2-0.7v2.5h1.2v1h-1.2v4.2c0,0.4,0,0.6,0.1,0.7c0,0.1,0.1,0.2,0.2,0.2
					c0.1,0.1,0.2,0.1,0.4,0.1C568.5,210.9,568.7,210.9,568.9,210.9z"/>
				<path class="st24" d="M575.1,209.7l1.3,0.2c-0.2,0.7-0.6,1.3-1.1,1.7c-0.5,0.4-1.2,0.6-2.1,0.6c-1.1,0-1.9-0.3-2.5-1
					c-0.6-0.7-0.9-1.6-0.9-2.8c0-1.2,0.3-2.2,0.9-2.8c0.6-0.7,1.4-1,2.4-1c1,0,1.8,0.3,2.4,1c0.6,0.7,0.9,1.6,0.9,2.8
					c0,0.1,0,0.2,0,0.3h-5.4c0,0.8,0.3,1.4,0.7,1.8c0.4,0.4,0.9,0.6,1.5,0.6c0.5,0,0.8-0.1,1.2-0.4
					C574.6,210.6,574.9,210.2,575.1,209.7z M571,207.7h4.1c-0.1-0.6-0.2-1.1-0.5-1.4c-0.4-0.5-0.9-0.7-1.5-0.7c-0.6,0-1,0.2-1.4,0.6
					C571.3,206.5,571.1,207,571,207.7z"/>
			</g>
			<g class="st23">
				<path class="st27" d="M77.1,246v-10h3.8c0.7,0,1.2,0,1.5,0.1c0.5,0.1,0.9,0.2,1.2,0.5c0.3,0.2,0.6,0.6,0.8,1
					c0.2,0.4,0.3,0.9,0.3,1.4c0,0.9-0.3,1.6-0.8,2.2c-0.5,0.6-1.5,0.9-2.9,0.9h-2.6v4.1H77.1z M78.4,240.7H81c0.9,0,1.5-0.2,1.8-0.5
					c0.4-0.3,0.5-0.8,0.5-1.3c0-0.4-0.1-0.8-0.3-1.1c-0.2-0.3-0.5-0.5-0.8-0.6c-0.2-0.1-0.6-0.1-1.2-0.1h-2.6V240.7z"/>
				<path class="st27" d="M91.4,245.1c-0.5,0.4-0.9,0.7-1.3,0.8c-0.4,0.2-0.9,0.2-1.4,0.2c-0.8,0-1.4-0.2-1.8-0.6
					c-0.4-0.4-0.6-0.9-0.6-1.5c0-0.4,0.1-0.7,0.2-1c0.2-0.3,0.4-0.5,0.6-0.7s0.6-0.3,0.9-0.4c0.2-0.1,0.6-0.1,1.1-0.2
					c1-0.1,1.7-0.3,2.2-0.4c0-0.2,0-0.3,0-0.3c0-0.5-0.1-0.9-0.3-1.1c-0.3-0.3-0.8-0.4-1.4-0.4c-0.6,0-1,0.1-1.3,0.3
					s-0.5,0.6-0.6,1.1l-1.2-0.2c0.1-0.5,0.3-0.9,0.5-1.2c0.3-0.3,0.6-0.6,1.1-0.7c0.5-0.2,1-0.3,1.6-0.3c0.6,0,1.1,0.1,1.5,0.2
					c0.4,0.1,0.7,0.3,0.9,0.6c0.2,0.2,0.3,0.5,0.4,0.8c0,0.2,0.1,0.6,0.1,1.1v1.6c0,1.1,0,1.9,0.1,2.2c0.1,0.3,0.2,0.6,0.3,0.9h-1.3
					C91.5,245.7,91.4,245.4,91.4,245.1z M91.3,242.4c-0.4,0.2-1.1,0.3-2,0.5c-0.5,0.1-0.9,0.2-1.1,0.2c-0.2,0.1-0.4,0.2-0.5,0.4
					s-0.2,0.4-0.2,0.6c0,0.3,0.1,0.6,0.4,0.8s0.6,0.3,1.1,0.3c0.5,0,0.9-0.1,1.3-0.3s0.6-0.5,0.8-0.9c0.1-0.3,0.2-0.7,0.2-1.2V242.4
					z"/>
				<path class="st27" d="M97.5,244.9l0.2,1.1c-0.3,0.1-0.7,0.1-0.9,0.1c-0.4,0-0.8-0.1-1-0.2c-0.2-0.1-0.4-0.3-0.5-0.6
					s-0.2-0.7-0.2-1.5v-4.2h-0.9v-1H95v-1.8l1.2-0.7v2.5h1.2v1h-1.2v4.2c0,0.4,0,0.6,0.1,0.7c0,0.1,0.1,0.2,0.2,0.2
					c0.1,0.1,0.2,0.1,0.4,0.1C97.1,244.9,97.3,244.9,97.5,244.9z"/>
				<path class="st27" d="M99.4,246v-1.4h1.4v1.4H99.4z"/>
				<path class="st27" d="M107.7,246v-10h1.4l5.3,7.9V236h1.3v10h-1.4l-5.3-7.9v7.9H107.7z"/>
				<path class="st27" d="M117.6,242.4c0-1.3,0.4-2.3,1.1-3c0.6-0.5,1.4-0.8,2.3-0.8c1,0,1.8,0.3,2.4,1s1,1.6,1,2.7
					c0,0.9-0.1,1.7-0.4,2.2c-0.3,0.5-0.7,1-1.2,1.2c-0.5,0.3-1.1,0.4-1.8,0.4c-1,0-1.8-0.3-2.5-1
					C117.9,244.5,117.6,243.6,117.6,242.4z M118.9,242.4c0,0.9,0.2,1.6,0.6,2.1c0.4,0.5,0.9,0.7,1.5,0.7c0.6,0,1.1-0.2,1.5-0.7
					s0.6-1.2,0.6-2.1c0-0.9-0.2-1.6-0.6-2c-0.4-0.5-0.9-0.7-1.5-0.7c-0.6,0-1.1,0.2-1.5,0.7C119.1,240.7,118.9,241.4,118.9,242.4z"
					/>
				<path class="st27" d="M126.6,246v-1.4h1.4v1.4H126.6z"/>
			</g>
			<g class="st23">
				<path class="st24" d="M476.1,246v-10h3.8c0.7,0,1.2,0,1.5,0.1c0.5,0.1,0.9,0.2,1.2,0.5c0.3,0.2,0.6,0.6,0.8,1
					c0.2,0.4,0.3,0.9,0.3,1.4c0,0.9-0.3,1.6-0.8,2.2c-0.5,0.6-1.5,0.9-2.9,0.9h-2.6v4.1H476.1z M477.4,240.7h2.6
					c0.9,0,1.5-0.2,1.8-0.5c0.4-0.3,0.5-0.8,0.5-1.3c0-0.4-0.1-0.8-0.3-1.1c-0.2-0.3-0.5-0.5-0.8-0.6c-0.2-0.1-0.6-0.1-1.2-0.1h-2.6
					V240.7z"/>
				<path class="st24" d="M490,245.1c-0.5,0.4-0.9,0.7-1.3,0.8c-0.4,0.2-0.9,0.2-1.4,0.2c-0.8,0-1.4-0.2-1.8-0.6
					c-0.4-0.4-0.6-0.9-0.6-1.5c0-0.4,0.1-0.7,0.2-1c0.2-0.3,0.4-0.5,0.6-0.7c0.3-0.2,0.6-0.3,0.9-0.4c0.2-0.1,0.6-0.1,1.1-0.2
					c1-0.1,1.7-0.3,2.2-0.4c0-0.2,0-0.3,0-0.3c0-0.5-0.1-0.9-0.3-1.1c-0.3-0.3-0.8-0.4-1.4-0.4c-0.6,0-1,0.1-1.3,0.3
					c-0.3,0.2-0.5,0.6-0.6,1.1l-1.2-0.2c0.1-0.5,0.3-0.9,0.5-1.2c0.3-0.3,0.6-0.6,1.1-0.7c0.5-0.2,1-0.3,1.6-0.3
					c0.6,0,1.1,0.1,1.5,0.2c0.4,0.1,0.7,0.3,0.9,0.6c0.2,0.2,0.3,0.5,0.4,0.8c0,0.2,0.1,0.6,0.1,1.1v1.6c0,1.1,0,1.9,0.1,2.2
					c0.1,0.3,0.2,0.6,0.3,0.9h-1.3C490.1,245.7,490,245.4,490,245.1z M489.9,242.4c-0.4,0.2-1.1,0.3-2,0.5c-0.5,0.1-0.9,0.2-1.1,0.2
					c-0.2,0.1-0.4,0.2-0.5,0.4c-0.1,0.2-0.2,0.4-0.2,0.6c0,0.3,0.1,0.6,0.4,0.8c0.2,0.2,0.6,0.3,1.1,0.3c0.5,0,0.9-0.1,1.3-0.3
					s0.6-0.5,0.8-0.9c0.1-0.3,0.2-0.7,0.2-1.2V242.4z"/>
				<path class="st24" d="M495.7,244.9l0.2,1.1c-0.3,0.1-0.7,0.1-0.9,0.1c-0.4,0-0.8-0.1-1-0.2c-0.2-0.1-0.4-0.3-0.5-0.6
					c-0.1-0.2-0.2-0.7-0.2-1.5v-4.2h-0.9v-1h0.9v-1.8l1.2-0.7v2.5h1.2v1h-1.2v4.2c0,0.4,0,0.6,0.1,0.7c0,0.1,0.1,0.2,0.2,0.2
					c0.1,0.1,0.2,0.1,0.4,0.1C495.3,244.9,495.5,244.9,495.7,244.9z"/>
				<path class="st24" d="M501.9,243.7l1.3,0.2c-0.2,0.7-0.6,1.3-1.1,1.7c-0.5,0.4-1.2,0.6-2.1,0.6c-1.1,0-1.9-0.3-2.5-1
					c-0.6-0.7-0.9-1.6-0.9-2.8c0-1.2,0.3-2.2,0.9-2.8c0.6-0.7,1.4-1,2.4-1c1,0,1.8,0.3,2.4,1c0.6,0.7,0.9,1.6,0.9,2.8
					c0,0.1,0,0.2,0,0.3h-5.4c0,0.8,0.3,1.4,0.7,1.8c0.4,0.4,0.9,0.6,1.5,0.6c0.5,0,0.8-0.1,1.2-0.4
					C501.5,244.6,501.7,244.2,501.9,243.7z M497.9,241.7h4.1c-0.1-0.6-0.2-1.1-0.5-1.4c-0.4-0.5-0.9-0.7-1.5-0.7
					c-0.6,0-1,0.2-1.4,0.6C498.1,240.5,497.9,241,497.9,241.7z"/>
				<path class="st24" d="M504.7,246v-7.3h1.1v1c0.5-0.8,1.3-1.2,2.3-1.2c0.4,0,0.8,0.1,1.2,0.2c0.4,0.2,0.6,0.4,0.8,0.6
					c0.2,0.3,0.3,0.6,0.4,0.9c0,0.2,0.1,0.6,0.1,1.2v4.5h-1.2v-4.4c0-0.5,0-0.9-0.1-1.1s-0.3-0.4-0.5-0.6c-0.2-0.1-0.5-0.2-0.9-0.2
					c-0.5,0-1,0.2-1.4,0.5c-0.4,0.3-0.6,1-0.6,1.9v4H504.7z"/>
				<path class="st24" d="M515.2,244.9l0.2,1.1c-0.3,0.1-0.7,0.1-0.9,0.1c-0.4,0-0.8-0.1-1-0.2c-0.2-0.1-0.4-0.3-0.5-0.6
					c-0.1-0.2-0.2-0.7-0.2-1.5v-4.2h-0.9v-1h0.9v-1.8l1.2-0.7v2.5h1.2v1H514v4.2c0,0.4,0,0.6,0.1,0.7c0,0.1,0.1,0.2,0.2,0.2
					c0.1,0.1,0.2,0.1,0.4,0.1C514.8,244.9,515,244.9,515.2,244.9z"/>
				<path class="st24" d="M520.4,246v-10h1.4l5.3,7.9V236h1.3v10H527l-5.3-7.9v7.9H520.4z"/>
				<path class="st24" d="M535.2,246v-1.1c-0.6,0.8-1.3,1.2-2.3,1.2c-0.4,0-0.8-0.1-1.2-0.2c-0.4-0.2-0.6-0.4-0.8-0.6
					c-0.2-0.2-0.3-0.6-0.4-0.9c0-0.2-0.1-0.6-0.1-1.1v-4.5h1.2v4c0,0.6,0,1.1,0.1,1.3c0.1,0.3,0.2,0.6,0.5,0.8
					c0.3,0.2,0.6,0.3,0.9,0.3s0.7-0.1,1-0.3c0.3-0.2,0.6-0.4,0.7-0.8c0.1-0.3,0.2-0.8,0.2-1.4v-3.9h1.2v7.3H535.2z"/>
				<path class="st24" d="M538.2,246v-7.3h1.1v1c0.2-0.4,0.5-0.6,0.9-0.9c0.4-0.2,0.8-0.3,1.3-0.3c0.5,0,1,0.1,1.3,0.3
					c0.3,0.2,0.6,0.5,0.7,0.9c0.6-0.8,1.3-1.3,2.2-1.3c0.7,0,1.3,0.2,1.7,0.6c0.4,0.4,0.6,1,0.6,1.8v5h-1.2v-4.6
					c0-0.5,0-0.8-0.1-1.1c-0.1-0.2-0.2-0.4-0.4-0.5c-0.2-0.1-0.5-0.2-0.7-0.2c-0.5,0-0.9,0.2-1.3,0.5c-0.3,0.3-0.5,0.9-0.5,1.6v4.2
					h-1.2v-4.7c0-0.5-0.1-1-0.3-1.2c-0.2-0.3-0.5-0.4-1-0.4c-0.3,0-0.7,0.1-1,0.3c-0.3,0.2-0.5,0.4-0.6,0.8
					c-0.1,0.4-0.2,0.9-0.2,1.5v3.8H538.2z"/>
				<path class="st24" d="M551,246h-1.1v-10h1.2v3.6c0.5-0.7,1.2-1,2-1c0.4,0,0.9,0.1,1.3,0.3c0.4,0.2,0.7,0.4,1,0.8
					c0.3,0.3,0.5,0.7,0.6,1.2c0.1,0.5,0.2,1,0.2,1.5c0,1.2-0.3,2.2-0.9,2.9c-0.6,0.7-1.4,1-2.2,1c-0.9,0-1.5-0.4-2-1.1V246z
					 M551,242.3c0,0.9,0.1,1.5,0.4,1.9c0.4,0.6,0.9,1,1.6,1c0.5,0,1-0.2,1.4-0.7c0.4-0.5,0.6-1.2,0.6-2.1c0-0.9-0.2-1.6-0.6-2.1
					s-0.8-0.7-1.4-0.7c-0.5,0-1,0.2-1.4,0.7C551.2,240.8,551,241.4,551,242.3z"/>
				<path class="st24" d="M562.6,243.7l1.3,0.2c-0.2,0.7-0.6,1.3-1.1,1.7c-0.5,0.4-1.2,0.6-2.1,0.6c-1.1,0-1.9-0.3-2.5-1
					c-0.6-0.7-0.9-1.6-0.9-2.8c0-1.2,0.3-2.2,0.9-2.8c0.6-0.7,1.4-1,2.4-1c1,0,1.8,0.3,2.4,1c0.6,0.7,0.9,1.6,0.9,2.8
					c0,0.1,0,0.2,0,0.3h-5.4c0,0.8,0.3,1.4,0.7,1.8c0.4,0.4,0.9,0.6,1.5,0.6c0.5,0,0.8-0.1,1.2-0.4
					C562.2,244.6,562.4,244.2,562.6,243.7z M558.6,241.7h4.1c-0.1-0.6-0.2-1.1-0.5-1.4c-0.4-0.5-0.9-0.7-1.5-0.7
					c-0.6,0-1,0.2-1.4,0.6C558.8,240.5,558.6,241,558.6,241.7z"/>
				<path class="st24" d="M565.4,246v-7.3h1.1v1.1c0.3-0.5,0.5-0.9,0.8-1s0.5-0.2,0.8-0.2c0.4,0,0.8,0.1,1.3,0.4l-0.4,1.1
					c-0.3-0.2-0.6-0.3-0.9-0.3c-0.3,0-0.5,0.1-0.7,0.2c-0.2,0.2-0.4,0.4-0.5,0.7c-0.1,0.4-0.2,0.9-0.2,1.4v3.8H565.4z"/>
			</g>
			<g class="st23">
				<path class="st27" d="M81.8,276.1v-1.2l4.2,0v3.7c-0.7,0.5-1.3,0.9-2,1.2s-1.4,0.4-2.1,0.4c-1,0-1.9-0.2-2.7-0.6
					c-0.8-0.4-1.4-1-1.8-1.8c-0.4-0.8-0.6-1.7-0.6-2.7c0-1,0.2-1.9,0.6-2.7c0.4-0.8,1-1.5,1.8-1.9s1.6-0.6,2.6-0.6
					c0.7,0,1.4,0.1,2,0.4c0.6,0.2,1,0.6,1.4,1c0.3,0.4,0.6,1,0.8,1.6l-1.2,0.3c-0.2-0.5-0.3-0.9-0.6-1.2c-0.2-0.3-0.5-0.5-1-0.7
					s-0.9-0.3-1.4-0.3c-0.6,0-1.1,0.1-1.6,0.3c-0.4,0.2-0.8,0.4-1.1,0.7s-0.5,0.6-0.6,1c-0.3,0.6-0.4,1.3-0.4,2
					c0,0.9,0.2,1.6,0.5,2.2s0.8,1,1.3,1.3c0.6,0.3,1.2,0.4,1.9,0.4c0.6,0,1.1-0.1,1.7-0.3s1-0.5,1.2-0.7v-1.9H81.8z"/>
				<path class="st27" d="M88.2,280v-7.3h1.1v1.1c0.3-0.5,0.5-0.9,0.8-1s0.5-0.2,0.8-0.2c0.4,0,0.8,0.1,1.3,0.4l-0.4,1.1
					c-0.3-0.2-0.6-0.3-0.9-0.3c-0.3,0-0.5,0.1-0.7,0.2s-0.4,0.4-0.5,0.7c-0.1,0.4-0.2,0.9-0.2,1.4v3.8H88.2z"/>
				<path class="st27" d="M98,279.1c-0.5,0.4-0.9,0.7-1.3,0.8c-0.4,0.2-0.9,0.2-1.4,0.2c-0.8,0-1.4-0.2-1.8-0.6
					c-0.4-0.4-0.6-0.9-0.6-1.5c0-0.4,0.1-0.7,0.2-1c0.2-0.3,0.4-0.5,0.6-0.7s0.6-0.3,0.9-0.4c0.2-0.1,0.6-0.1,1.1-0.2
					c1-0.1,1.7-0.3,2.2-0.4c0-0.2,0-0.3,0-0.3c0-0.5-0.1-0.9-0.3-1.1c-0.3-0.3-0.8-0.4-1.4-0.4c-0.6,0-1,0.1-1.3,0.3
					s-0.5,0.6-0.6,1.1l-1.2-0.2c0.1-0.5,0.3-0.9,0.5-1.2c0.3-0.3,0.6-0.6,1.1-0.7c0.5-0.2,1-0.3,1.6-0.3c0.6,0,1.1,0.1,1.5,0.2
					c0.4,0.1,0.7,0.3,0.9,0.6c0.2,0.2,0.3,0.5,0.4,0.8c0,0.2,0.1,0.6,0.1,1.1v1.6c0,1.1,0,1.9,0.1,2.2c0.1,0.3,0.2,0.6,0.3,0.9h-1.3
					C98.1,279.7,98,279.4,98,279.1z M97.9,276.4c-0.4,0.2-1.1,0.3-2,0.5c-0.5,0.1-0.9,0.2-1.1,0.2c-0.2,0.1-0.4,0.2-0.5,0.4
					s-0.2,0.4-0.2,0.6c0,0.3,0.1,0.6,0.4,0.8s0.6,0.3,1.1,0.3c0.5,0,0.9-0.1,1.3-0.3s0.6-0.5,0.8-0.9c0.1-0.3,0.2-0.7,0.2-1.2V276.4
					z"/>
				<path class="st27" d="M101.4,280v-7.3h1.1v1c0.5-0.8,1.3-1.2,2.3-1.2c0.4,0,0.8,0.1,1.2,0.2c0.4,0.2,0.6,0.4,0.8,0.6
					c0.2,0.3,0.3,0.6,0.4,0.9c0,0.2,0.1,0.6,0.1,1.2v4.5h-1.2v-4.4c0-0.5,0-0.9-0.1-1.1s-0.3-0.4-0.5-0.6c-0.2-0.1-0.5-0.2-0.9-0.2
					c-0.5,0-1,0.2-1.4,0.5c-0.4,0.3-0.6,1-0.6,1.9v4H101.4z"/>
				<path class="st27" d="M112.2,278.9l0.2,1.1c-0.3,0.1-0.7,0.1-0.9,0.1c-0.4,0-0.8-0.1-1-0.2c-0.2-0.1-0.4-0.3-0.5-0.6
					s-0.2-0.7-0.2-1.5v-4.2h-0.9v-1h0.9v-1.8l1.2-0.7v2.5h1.2v1H111v4.2c0,0.4,0,0.6,0.1,0.7c0,0.1,0.1,0.2,0.2,0.2
					c0.1,0.1,0.2,0.1,0.4,0.1C111.8,278.9,112,278.9,112.2,278.9z"/>
				<path class="st27" d="M118.3,280v-10h3.5c0.8,0,1.4,0,1.8,0.1c0.6,0.1,1.1,0.4,1.5,0.7c0.5,0.4,0.9,1,1.2,1.7
					c0.3,0.7,0.4,1.5,0.4,2.4c0,0.8-0.1,1.4-0.3,2s-0.4,1.1-0.7,1.5c-0.3,0.4-0.6,0.7-0.9,0.9s-0.7,0.4-1.2,0.5
					c-0.5,0.1-1,0.2-1.6,0.2H118.3z M119.6,278.8h2.1c0.7,0,1.2-0.1,1.6-0.2s0.7-0.3,0.9-0.5c0.3-0.3,0.6-0.7,0.7-1.3
					c0.2-0.5,0.3-1.2,0.3-1.9c0-1-0.2-1.9-0.5-2.4c-0.3-0.6-0.8-0.9-1.3-1.1c-0.4-0.1-0.9-0.2-1.7-0.2h-2.1V278.8z"/>
				<path class="st27" d="M133.3,279.1c-0.5,0.4-0.9,0.7-1.3,0.8c-0.4,0.2-0.9,0.2-1.4,0.2c-0.8,0-1.4-0.2-1.8-0.6
					c-0.4-0.4-0.6-0.9-0.6-1.5c0-0.4,0.1-0.7,0.2-1c0.2-0.3,0.4-0.5,0.6-0.7s0.6-0.3,0.9-0.4c0.2-0.1,0.6-0.1,1.1-0.2
					c1-0.1,1.7-0.3,2.2-0.4c0-0.2,0-0.3,0-0.3c0-0.5-0.1-0.9-0.3-1.1c-0.3-0.3-0.8-0.4-1.4-0.4c-0.6,0-1,0.1-1.3,0.3
					s-0.5,0.6-0.6,1.1l-1.2-0.2c0.1-0.5,0.3-0.9,0.5-1.2c0.3-0.3,0.6-0.6,1.1-0.7c0.5-0.2,1-0.3,1.6-0.3c0.6,0,1.1,0.1,1.5,0.2
					c0.4,0.1,0.7,0.3,0.9,0.6c0.2,0.2,0.3,0.5,0.4,0.8c0,0.2,0.1,0.6,0.1,1.1v1.6c0,1.1,0,1.9,0.1,2.2c0.1,0.3,0.2,0.6,0.3,0.9h-1.3
					C133.4,279.7,133.4,279.4,133.3,279.1z M133.2,276.4c-0.4,0.2-1.1,0.3-2,0.5c-0.5,0.1-0.9,0.2-1.1,0.2c-0.2,0.1-0.4,0.2-0.5,0.4
					s-0.2,0.4-0.2,0.6c0,0.3,0.1,0.6,0.4,0.8s0.6,0.3,1.1,0.3c0.5,0,0.9-0.1,1.3-0.3s0.6-0.5,0.8-0.9c0.1-0.3,0.2-0.7,0.2-1.2V276.4
					z"/>
				<path class="st27" d="M139.4,278.9l0.2,1.1c-0.3,0.1-0.7,0.1-0.9,0.1c-0.4,0-0.8-0.1-1-0.2c-0.2-0.1-0.4-0.3-0.5-0.6
					s-0.2-0.7-0.2-1.5v-4.2h-0.9v-1h0.9v-1.8l1.2-0.7v2.5h1.2v1h-1.2v4.2c0,0.4,0,0.6,0.1,0.7c0,0.1,0.1,0.2,0.2,0.2
					c0.1,0.1,0.2,0.1,0.4,0.1C139,278.9,139.2,278.9,139.4,278.9z"/>
				<path class="st27" d="M146,277.7l1.3,0.2c-0.2,0.7-0.6,1.3-1.1,1.7s-1.2,0.6-2.1,0.6c-1.1,0-1.9-0.3-2.5-1
					c-0.6-0.7-0.9-1.6-0.9-2.8c0-1.2,0.3-2.2,0.9-2.8c0.6-0.7,1.4-1,2.4-1c1,0,1.8,0.3,2.4,1c0.6,0.7,0.9,1.6,0.9,2.8
					c0,0.1,0,0.2,0,0.3h-5.4c0,0.8,0.3,1.4,0.7,1.8s0.9,0.6,1.5,0.6c0.5,0,0.8-0.1,1.2-0.4C145.5,278.6,145.8,278.2,146,277.7z
					 M141.9,275.7h4.1c-0.1-0.6-0.2-1.1-0.5-1.4c-0.4-0.5-0.9-0.7-1.5-0.7c-0.6,0-1,0.2-1.4,0.6C142.2,274.5,142,275,141.9,275.7z"
					/>
			</g>
			<g class="st23">
				<path class="st24" d="M476.3,280v-10h1.3v10H476.3z"/>
				<path class="st24" d="M479.3,277.8l1.2-0.2c0.1,0.5,0.3,0.9,0.6,1.1c0.3,0.3,0.7,0.4,1.3,0.4c0.6,0,1-0.1,1.3-0.3
					s0.4-0.5,0.4-0.8c0-0.3-0.1-0.5-0.4-0.7c-0.2-0.1-0.6-0.2-1.3-0.4c-0.9-0.2-1.5-0.4-1.9-0.6s-0.6-0.4-0.8-0.7
					c-0.2-0.3-0.3-0.6-0.3-1c0-0.3,0.1-0.6,0.2-0.9c0.1-0.3,0.3-0.5,0.6-0.7c0.2-0.1,0.5-0.3,0.8-0.4c0.3-0.1,0.7-0.1,1.1-0.1
					c0.6,0,1.1,0.1,1.5,0.2s0.7,0.4,1,0.7c0.2,0.3,0.3,0.7,0.4,1.1l-1.2,0.2c-0.1-0.4-0.2-0.7-0.5-0.9c-0.3-0.2-0.6-0.3-1.1-0.3
					c-0.6,0-1,0.1-1.2,0.3c-0.2,0.2-0.4,0.4-0.4,0.7c0,0.2,0.1,0.3,0.2,0.4c0.1,0.1,0.3,0.2,0.5,0.3c0.1,0,0.5,0.2,1.1,0.3
					c0.9,0.2,1.5,0.4,1.8,0.6c0.3,0.1,0.6,0.4,0.8,0.6c0.2,0.3,0.3,0.6,0.3,1.1c0,0.4-0.1,0.8-0.4,1.2c-0.2,0.4-0.6,0.6-1,0.8
					c-0.5,0.2-1,0.3-1.5,0.3c-0.9,0-1.7-0.2-2.2-0.6C479.8,279.2,479.5,278.6,479.3,277.8z"/>
				<path class="st24" d="M486.3,277.8l1.2-0.2c0.1,0.5,0.3,0.9,0.6,1.1c0.3,0.3,0.7,0.4,1.3,0.4c0.6,0,1-0.1,1.3-0.3
					s0.4-0.5,0.4-0.8c0-0.3-0.1-0.5-0.4-0.7c-0.2-0.1-0.6-0.2-1.3-0.4c-0.9-0.2-1.5-0.4-1.9-0.6s-0.6-0.4-0.8-0.7
					c-0.2-0.3-0.3-0.6-0.3-1c0-0.3,0.1-0.6,0.2-0.9c0.1-0.3,0.3-0.5,0.6-0.7c0.2-0.1,0.5-0.3,0.8-0.4c0.3-0.1,0.7-0.1,1.1-0.1
					c0.6,0,1.1,0.1,1.5,0.2s0.7,0.4,1,0.7c0.2,0.3,0.3,0.7,0.4,1.1l-1.2,0.2c-0.1-0.4-0.2-0.7-0.5-0.9c-0.3-0.2-0.6-0.3-1.1-0.3
					c-0.6,0-1,0.1-1.2,0.3c-0.2,0.2-0.4,0.4-0.4,0.7c0,0.2,0.1,0.3,0.2,0.4c0.1,0.1,0.3,0.2,0.5,0.3c0.1,0,0.5,0.2,1.1,0.3
					c0.9,0.2,1.5,0.4,1.8,0.6c0.3,0.1,0.6,0.4,0.8,0.6c0.2,0.3,0.3,0.6,0.3,1.1c0,0.4-0.1,0.8-0.4,1.2c-0.2,0.4-0.6,0.6-1,0.8
					c-0.5,0.2-1,0.3-1.5,0.3c-0.9,0-1.7-0.2-2.2-0.6C486.8,279.2,486.5,278.6,486.3,277.8z"/>
				<path class="st24" d="M498.6,280v-1.1c-0.6,0.8-1.3,1.2-2.3,1.2c-0.4,0-0.8-0.1-1.2-0.2c-0.4-0.2-0.6-0.4-0.8-0.6
					c-0.2-0.2-0.3-0.6-0.4-0.9c0-0.2-0.1-0.6-0.1-1.1v-4.5h1.2v4c0,0.6,0,1.1,0.1,1.3c0.1,0.3,0.2,0.6,0.5,0.8
					c0.3,0.2,0.6,0.3,0.9,0.3s0.7-0.1,1-0.3c0.3-0.2,0.6-0.4,0.7-0.8c0.1-0.3,0.2-0.8,0.2-1.4v-3.9h1.2v7.3H498.6z"/>
				<path class="st24" d="M506.6,277.7l1.3,0.2c-0.2,0.7-0.6,1.3-1.1,1.7c-0.5,0.4-1.2,0.6-2.1,0.6c-1.1,0-1.9-0.3-2.5-1
					c-0.6-0.7-0.9-1.6-0.9-2.8c0-1.2,0.3-2.2,0.9-2.8c0.6-0.7,1.4-1,2.4-1c1,0,1.8,0.3,2.4,1c0.6,0.7,0.9,1.6,0.9,2.8
					c0,0.1,0,0.2,0,0.3h-5.4c0,0.8,0.3,1.4,0.7,1.8c0.4,0.4,0.9,0.6,1.5,0.6c0.5,0,0.8-0.1,1.2-0.4
					C506.1,278.6,506.4,278.2,506.6,277.7z M502.5,275.7h4.1c-0.1-0.6-0.2-1.1-0.5-1.4c-0.4-0.5-0.9-0.7-1.5-0.7
					c-0.6,0-1,0.2-1.4,0.6C502.8,274.5,502.6,275,502.5,275.7z"/>
				<path class="st24" d="M513.4,280v-10h3.5c0.8,0,1.4,0,1.8,0.1c0.6,0.1,1.1,0.4,1.5,0.7c0.5,0.4,0.9,1,1.2,1.7
					c0.3,0.7,0.4,1.5,0.4,2.4c0,0.8-0.1,1.4-0.3,2s-0.4,1.1-0.7,1.5c-0.3,0.4-0.6,0.7-0.9,0.9c-0.3,0.2-0.7,0.4-1.2,0.5
					c-0.5,0.1-1,0.2-1.6,0.2H513.4z M514.8,278.8h2.1c0.7,0,1.2-0.1,1.6-0.2s0.7-0.3,0.9-0.5c0.3-0.3,0.6-0.7,0.7-1.3
					c0.2-0.5,0.3-1.2,0.3-1.9c0-1-0.2-1.9-0.5-2.4c-0.3-0.6-0.8-0.9-1.3-1.1c-0.4-0.1-0.9-0.2-1.7-0.2h-2.1V278.8z"/>
				<path class="st24" d="M528.1,279.1c-0.5,0.4-0.9,0.7-1.3,0.8c-0.4,0.2-0.9,0.2-1.4,0.2c-0.8,0-1.4-0.2-1.8-0.6
					c-0.4-0.4-0.6-0.9-0.6-1.5c0-0.4,0.1-0.7,0.2-1c0.2-0.3,0.4-0.5,0.6-0.7c0.3-0.2,0.6-0.3,0.9-0.4c0.2-0.1,0.6-0.1,1.1-0.2
					c1-0.1,1.7-0.3,2.2-0.4c0-0.2,0-0.3,0-0.3c0-0.5-0.1-0.9-0.3-1.1c-0.3-0.3-0.8-0.4-1.4-0.4c-0.6,0-1,0.1-1.3,0.3
					c-0.3,0.2-0.5,0.6-0.6,1.1l-1.2-0.2c0.1-0.5,0.3-0.9,0.5-1.2c0.3-0.3,0.6-0.6,1.1-0.7c0.5-0.2,1-0.3,1.6-0.3
					c0.6,0,1.1,0.1,1.5,0.2c0.4,0.1,0.7,0.3,0.9,0.6c0.2,0.2,0.3,0.5,0.4,0.8c0,0.2,0.1,0.6,0.1,1.1v1.6c0,1.1,0,1.9,0.1,2.2
					c0.1,0.3,0.2,0.6,0.3,0.9h-1.3C528.2,279.7,528.2,279.4,528.1,279.1z M528,276.4c-0.4,0.2-1.1,0.3-2,0.5
					c-0.5,0.1-0.9,0.2-1.1,0.2c-0.2,0.1-0.4,0.2-0.5,0.4c-0.1,0.2-0.2,0.4-0.2,0.6c0,0.3,0.1,0.6,0.4,0.8c0.2,0.2,0.6,0.3,1.1,0.3
					c0.5,0,0.9-0.1,1.3-0.3s0.6-0.5,0.8-0.9c0.1-0.3,0.2-0.7,0.2-1.2V276.4z"/>
				<path class="st24" d="M533.9,278.9l0.2,1.1c-0.3,0.1-0.7,0.1-0.9,0.1c-0.4,0-0.8-0.1-1-0.2c-0.2-0.1-0.4-0.3-0.5-0.6
					c-0.1-0.2-0.2-0.7-0.2-1.5v-4.2h-0.9v-1h0.9v-1.8l1.2-0.7v2.5h1.2v1h-1.2v4.2c0,0.4,0,0.6,0.1,0.7c0,0.1,0.1,0.2,0.2,0.2
					c0.1,0.1,0.2,0.1,0.4,0.1C533.5,278.9,533.6,278.9,533.9,278.9z"/>
				<path class="st24" d="M540,277.7l1.3,0.2c-0.2,0.7-0.6,1.3-1.1,1.7c-0.5,0.4-1.2,0.6-2.1,0.6c-1.1,0-1.9-0.3-2.5-1
					c-0.6-0.7-0.9-1.6-0.9-2.8c0-1.2,0.3-2.2,0.9-2.8c0.6-0.7,1.4-1,2.4-1c1,0,1.8,0.3,2.4,1c0.6,0.7,0.9,1.6,0.9,2.8
					c0,0.1,0,0.2,0,0.3h-5.4c0,0.8,0.3,1.4,0.7,1.8c0.4,0.4,0.9,0.6,1.5,0.6c0.5,0,0.8-0.1,1.2-0.4
					C539.6,278.6,539.8,278.2,540,277.7z M536,275.7h4.1c-0.1-0.6-0.2-1.1-0.5-1.4c-0.4-0.5-0.9-0.7-1.5-0.7c-0.6,0-1,0.2-1.4,0.6
					C536.2,274.5,536,275,536,275.7z"/>
			</g>
			<g class="st23">
				<path class="st27" d="M164.6,92.3l2.3-0.2c0.1,0.8,0.4,1.3,0.8,1.7s1,0.5,1.7,0.5c0.7,0,1.3-0.2,1.7-0.5
					c0.4-0.3,0.6-0.7,0.6-1.1c0-0.3-0.1-0.5-0.2-0.7c-0.2-0.2-0.4-0.4-0.8-0.5c-0.3-0.1-0.9-0.3-1.9-0.5c-1.2-0.3-2.1-0.7-2.6-1.1
					c-0.7-0.6-1.1-1.4-1.1-2.3c0-0.6,0.2-1.1,0.5-1.6c0.3-0.5,0.8-0.9,1.4-1.2c0.6-0.3,1.4-0.4,2.3-0.4c1.4,0,2.5,0.3,3.2,0.9
					s1.1,1.5,1.1,2.5l-2.3,0.1c-0.1-0.6-0.3-1-0.6-1.3c-0.3-0.3-0.8-0.4-1.5-0.4c-0.7,0-1.2,0.1-1.6,0.4c-0.2,0.2-0.4,0.4-0.4,0.7
					c0,0.3,0.1,0.5,0.3,0.7c0.3,0.2,1,0.5,2.1,0.8s2,0.5,2.5,0.8s1,0.7,1.3,1.2s0.5,1.1,0.5,1.8c0,0.7-0.2,1.3-0.5,1.8
					c-0.4,0.6-0.9,1-1.5,1.3c-0.7,0.3-1.5,0.4-2.5,0.4c-1.4,0-2.6-0.3-3.3-1C165.2,94.5,164.7,93.6,164.6,92.3z"/>
				<path class="st27" d="M175.7,91.7c0-0.7,0.2-1.4,0.5-2.1s0.9-1.2,1.5-1.6c0.7-0.4,1.4-0.5,2.2-0.5c1.3,0,2.3,0.4,3.1,1.2
					c0.8,0.8,1.2,1.8,1.2,3.1c0,1.3-0.4,2.3-1.2,3.1c-0.8,0.8-1.8,1.2-3.1,1.2c-0.8,0-1.5-0.2-2.2-0.5c-0.7-0.3-1.2-0.8-1.6-1.5
					S175.7,92.7,175.7,91.7z M178,91.9c0,0.8,0.2,1.5,0.6,1.9s0.9,0.7,1.4,0.7c0.6,0,1.1-0.2,1.4-0.7c0.4-0.4,0.6-1.1,0.6-1.9
					c0-0.8-0.2-1.4-0.6-1.9c-0.4-0.4-0.9-0.7-1.4-0.7c-0.6,0-1.1,0.2-1.4,0.7S178,91,178,91.9z"/>
				<path class="st27" d="M191.9,96v-1.2c-0.3,0.4-0.7,0.8-1.2,1s-1,0.4-1.6,0.4c-0.6,0-1.1-0.1-1.5-0.4c-0.4-0.2-0.8-0.6-1-1
					c-0.2-0.4-0.3-1.1-0.3-1.8v-5.3h2.2v3.8c0,1.2,0,1.9,0.1,2.1c0.1,0.3,0.2,0.5,0.4,0.6c0.2,0.2,0.5,0.2,0.8,0.2
					c0.4,0,0.7-0.1,1-0.3s0.5-0.5,0.6-0.8s0.2-1.1,0.2-2.2v-3.5h2.2V96H191.9z"/>
				<path class="st27" d="M198.8,96h-2.2v-8.3h2v1.2c0.3-0.6,0.7-0.9,0.9-1.1c0.3-0.2,0.6-0.3,0.9-0.3c0.5,0,1,0.1,1.4,0.4l-0.7,1.9
					c-0.4-0.2-0.7-0.4-1-0.4c-0.3,0-0.6,0.1-0.8,0.3c-0.2,0.2-0.4,0.5-0.5,0.9c-0.1,0.4-0.2,1.4-0.2,2.8V96z"/>
				<path class="st27" d="M210.6,90.2l-2.2,0.4c-0.1-0.4-0.2-0.8-0.5-1s-0.6-0.3-1-0.3c-0.5,0-1,0.2-1.3,0.6c-0.3,0.4-0.5,1-0.5,1.9
					c0,1,0.2,1.7,0.5,2.1c0.3,0.4,0.8,0.6,1.3,0.6c0.4,0,0.8-0.1,1-0.4s0.5-0.6,0.6-1.2l2.2,0.4c-0.2,1-0.7,1.7-1.3,2.2
					c-0.6,0.5-1.5,0.8-2.6,0.8c-1.2,0-2.2-0.4-2.9-1.1c-0.7-0.8-1.1-1.8-1.1-3.2c0-1.4,0.4-2.4,1.1-3.2c0.7-0.8,1.7-1.1,2.9-1.1
					c1,0,1.8,0.2,2.4,0.7C209.9,88.6,210.3,89.3,210.6,90.2z"/>
				<path class="st27" d="M217.5,93.4l2.2,0.4c-0.3,0.8-0.7,1.4-1.3,1.8c-0.6,0.4-1.4,0.6-2.3,0.6c-1.4,0-2.5-0.5-3.2-1.4
					c-0.5-0.8-0.8-1.7-0.8-2.9c0-1.4,0.4-2.5,1.1-3.2s1.6-1.2,2.7-1.2c1.2,0,2.2,0.4,2.9,1.2c0.7,0.8,1.1,2.1,1,3.7h-5.5
					c0,0.7,0.2,1.2,0.5,1.5c0.3,0.4,0.8,0.5,1.3,0.5c0.3,0,0.6-0.1,0.9-0.3S217.3,93.8,217.5,93.4z M217.6,91.1
					c0-0.6-0.2-1.1-0.5-1.4s-0.7-0.5-1.1-0.5c-0.5,0-0.9,0.2-1.2,0.5s-0.5,0.8-0.5,1.4H217.6z"/>
				<path class="st27" d="M226.9,96V84.5h7.9v1.9h-5.5v2.7h4.8v1.9h-4.8V96H226.9z"/>
				<path class="st27" d="M237.1,86.6v-2h2.2v2H237.1z M237.1,96v-8.3h2.2V96H237.1z"/>
				<path class="st27" d="M246.7,93.4l2.2,0.4c-0.3,0.8-0.7,1.4-1.3,1.8c-0.6,0.4-1.4,0.6-2.3,0.6c-1.4,0-2.5-0.5-3.2-1.4
					c-0.5-0.8-0.8-1.7-0.8-2.9c0-1.4,0.4-2.5,1.1-3.2s1.6-1.2,2.7-1.2c1.2,0,2.2,0.4,2.9,1.2c0.7,0.8,1.1,2.1,1,3.7h-5.5
					c0,0.7,0.2,1.2,0.5,1.5c0.3,0.4,0.8,0.5,1.3,0.5c0.3,0,0.6-0.1,0.9-0.3S246.6,93.8,246.7,93.4z M246.9,91.1
					c0-0.6-0.2-1.1-0.5-1.4s-0.7-0.5-1.1-0.5c-0.5,0-0.9,0.2-1.2,0.5s-0.5,0.8-0.5,1.4H246.9z"/>
				<path class="st27" d="M251.3,96V84.5h2.2V96H251.3z"/>
				<path class="st27" d="M263.8,96h-2v-1.2c-0.3,0.5-0.7,0.8-1.2,1.1s-0.9,0.3-1.4,0.3c-1,0-1.8-0.4-2.4-1.2s-1-1.8-1-3.2
					c0-1.4,0.3-2.5,1-3.2c0.7-0.7,1.5-1.1,2.5-1.1c0.9,0,1.7,0.4,2.4,1.2v-4.1h2.2V96z M257.9,91.7c0,0.9,0.1,1.5,0.4,1.9
					c0.4,0.6,0.8,0.9,1.5,0.9c0.5,0,0.9-0.2,1.3-0.6c0.4-0.4,0.5-1.1,0.5-1.9c0-1-0.2-1.6-0.5-2.1s-0.8-0.6-1.3-0.6
					c-0.5,0-1,0.2-1.3,0.6S257.9,90.8,257.9,91.7z"/>
			</g>
			<g class="st23">
				<path class="st24" d="M483.2,96V84.5h2.3v4.5h4.5v-4.5h2.3V96H490v-5h-4.5v5H483.2z"/>
				<path class="st24" d="M499.9,93.4l2.2,0.4c-0.3,0.8-0.7,1.4-1.3,1.8c-0.6,0.4-1.4,0.6-2.3,0.6c-1.4,0-2.5-0.5-3.2-1.4
					c-0.5-0.8-0.8-1.7-0.8-2.9c0-1.4,0.4-2.5,1.1-3.2s1.6-1.2,2.7-1.2c1.2,0,2.2,0.4,2.9,1.2c0.7,0.8,1.1,2.1,1,3.7h-5.5
					c0,0.7,0.2,1.2,0.5,1.5c0.3,0.4,0.8,0.5,1.3,0.5c0.3,0,0.6-0.1,0.9-0.3S499.8,93.8,499.9,93.4z M500.1,91.1
					c0-0.6-0.2-1.1-0.5-1.4s-0.7-0.5-1.1-0.5c-0.5,0-0.9,0.2-1.2,0.5s-0.5,0.8-0.5,1.4H500.1z"/>
				<path class="st24" d="M504.5,96V84.5h2.2V96H504.5z"/>
				<path class="st24" d="M509.3,86.6v-2h2.2v2H509.3z M509.3,96v-8.3h2.2V96H509.3z"/>
				<path class="st24" d="M513.7,91.7c0-0.7,0.2-1.4,0.5-2.1s0.9-1.2,1.5-1.6c0.7-0.4,1.4-0.5,2.2-0.5c1.3,0,2.3,0.4,3.1,1.2
					c0.8,0.8,1.2,1.8,1.2,3.1c0,1.3-0.4,2.3-1.2,3.1c-0.8,0.8-1.8,1.2-3.1,1.2c-0.8,0-1.5-0.2-2.2-0.5c-0.7-0.3-1.2-0.8-1.6-1.5
					S513.7,92.7,513.7,91.7z M516,91.9c0,0.8,0.2,1.5,0.6,1.9s0.9,0.7,1.4,0.7c0.6,0,1.1-0.2,1.4-0.7c0.4-0.4,0.6-1.1,0.6-1.9
					c0-0.8-0.2-1.4-0.6-1.9c-0.4-0.4-0.9-0.7-1.4-0.7c-0.6,0-1.1,0.2-1.4,0.7S516,91,516,91.9z"/>
				<path class="st24" d="M523.7,93.6l2.2-0.3c0.1,0.4,0.3,0.8,0.6,1s0.7,0.3,1.2,0.3c0.6,0,1-0.1,1.3-0.3c0.2-0.1,0.3-0.3,0.3-0.6
					c0-0.2-0.1-0.3-0.2-0.4c-0.1-0.1-0.4-0.2-0.7-0.3c-1.8-0.4-2.9-0.7-3.4-1.1c-0.7-0.4-1-1.1-1-1.9c0-0.7,0.3-1.3,0.9-1.8
					s1.4-0.7,2.6-0.7c1.1,0,2,0.2,2.5,0.6s0.9,0.9,1.1,1.6l-2.1,0.4c-0.1-0.3-0.3-0.6-0.5-0.7s-0.6-0.3-1.1-0.3
					c-0.6,0-1,0.1-1.2,0.2c-0.2,0.1-0.3,0.3-0.3,0.4c0,0.2,0.1,0.3,0.2,0.4c0.2,0.1,0.9,0.4,2.1,0.6s2,0.6,2.4,1
					c0.5,0.4,0.7,0.9,0.7,1.6c0,0.8-0.3,1.4-1,2s-1.6,0.8-2.8,0.8c-1.1,0-2-0.2-2.7-0.7S523.9,94.4,523.7,93.6z"/>
				<path class="st24" d="M541.1,91.8l2.2,0.7c-0.3,1.3-0.9,2.2-1.7,2.8s-1.8,0.9-3,0.9c-1.5,0-2.8-0.5-3.8-1.6s-1.5-2.5-1.5-4.3
					c0-1.9,0.5-3.4,1.5-4.4s2.3-1.6,3.9-1.6c1.4,0,2.5,0.4,3.4,1.2c0.5,0.5,0.9,1.2,1.2,2.1l-2.3,0.5c-0.1-0.6-0.4-1.1-0.8-1.4
					s-1-0.5-1.6-0.5c-0.8,0-1.5,0.3-2.1,0.9s-0.8,1.6-0.8,3c0,1.4,0.3,2.5,0.8,3.1s1.2,0.9,2,0.9c0.6,0,1.1-0.2,1.6-0.6
					S540.9,92.6,541.1,91.8z"/>
				<path class="st24" d="M545.2,91.7c0-0.7,0.2-1.4,0.5-2.1s0.9-1.2,1.5-1.6c0.7-0.4,1.4-0.5,2.2-0.5c1.3,0,2.3,0.4,3.1,1.2
					c0.8,0.8,1.2,1.8,1.2,3.1c0,1.3-0.4,2.3-1.2,3.1c-0.8,0.8-1.8,1.2-3.1,1.2c-0.8,0-1.5-0.2-2.2-0.5c-0.7-0.3-1.2-0.8-1.6-1.5
					S545.2,92.7,545.2,91.7z M547.5,91.9c0,0.8,0.2,1.5,0.6,1.9s0.9,0.7,1.4,0.7c0.6,0,1.1-0.2,1.4-0.7c0.4-0.4,0.6-1.1,0.6-1.9
					c0-0.8-0.2-1.4-0.6-1.9c-0.4-0.4-0.9-0.7-1.4-0.7c-0.6,0-1.1,0.2-1.4,0.7S547.5,91,547.5,91.9z"/>
				<path class="st24" d="M555.8,87.7h2v1.1c0.7-0.9,1.6-1.3,2.6-1.3c0.5,0,1,0.1,1.4,0.3s0.7,0.5,1,1c0.4-0.4,0.8-0.8,1.2-1
					s0.9-0.3,1.4-0.3c0.6,0,1.1,0.1,1.5,0.4s0.7,0.6,0.9,1.1c0.2,0.4,0.2,0.9,0.2,1.7V96h-2.2v-4.7c0-0.8-0.1-1.4-0.2-1.6
					c-0.2-0.3-0.5-0.5-0.9-0.5c-0.3,0-0.6,0.1-0.9,0.3s-0.5,0.5-0.6,0.8S563,91.2,563,92v4h-2.2v-4.5c0-0.8,0-1.3-0.1-1.6
					s-0.2-0.4-0.4-0.5s-0.4-0.2-0.7-0.2c-0.3,0-0.6,0.1-0.9,0.3s-0.5,0.4-0.6,0.8S558,91.2,558,92v4h-2.2V87.7z"/>
				<path class="st24" d="M570.5,87.7h2v1.2c0.3-0.4,0.6-0.8,1.1-1s1-0.4,1.5-0.4c1,0,1.8,0.4,2.5,1.1s1,1.8,1,3.2
					c0,1.4-0.3,2.5-1,3.2c-0.7,0.8-1.5,1.2-2.5,1.2c-0.5,0-0.9-0.1-1.2-0.3c-0.4-0.2-0.8-0.5-1.2-0.9v4.2h-2.2V87.7z M572.7,91.7
					c0,0.9,0.2,1.6,0.6,2.1c0.4,0.4,0.8,0.7,1.4,0.7c0.5,0,0.9-0.2,1.3-0.6c0.3-0.4,0.5-1.1,0.5-2c0-0.9-0.2-1.5-0.5-1.9
					c-0.3-0.4-0.8-0.6-1.3-0.6c-0.5,0-1,0.2-1.3,0.6C572.9,90.3,572.7,90.9,572.7,91.7z"/>
				<path class="st24" d="M580.8,96V84.5h2.2V96H580.8z"/>
				<path class="st24" d="M590.5,93.4l2.2,0.4c-0.3,0.8-0.7,1.4-1.3,1.8s-1.4,0.6-2.3,0.6c-1.4,0-2.5-0.5-3.2-1.4
					c-0.5-0.8-0.8-1.7-0.8-2.9c0-1.4,0.4-2.5,1.1-3.2s1.6-1.2,2.7-1.2c1.2,0,2.2,0.4,2.9,1.2s1.1,2.1,1,3.7h-5.5
					c0,0.7,0.2,1.2,0.5,1.5s0.8,0.5,1.3,0.5c0.3,0,0.6-0.1,0.9-0.3S590.4,93.8,590.5,93.4z M590.6,91.1c0-0.6-0.2-1.1-0.5-1.4
					s-0.7-0.5-1.1-0.5c-0.5,0-0.9,0.2-1.2,0.5s-0.5,0.8-0.5,1.4H590.6z"/>
				<path class="st24" d="M598.8,87.7v1.8h-1.5v3.3c0,0.7,0,1.1,0,1.2c0,0.1,0.1,0.2,0.2,0.3s0.2,0.1,0.4,0.1c0.2,0,0.5-0.1,0.9-0.2
					l0.2,1.7c-0.5,0.2-1.1,0.3-1.7,0.3c-0.4,0-0.8-0.1-1.1-0.2c-0.3-0.1-0.6-0.3-0.7-0.5s-0.3-0.5-0.3-0.9c0-0.3-0.1-0.8-0.1-1.5
					v-3.6h-1v-1.8h1v-1.6l2.2-1.3v2.9H598.8z"/>
				<path class="st24" d="M605.6,93.4l2.2,0.4c-0.3,0.8-0.7,1.4-1.3,1.8s-1.4,0.6-2.3,0.6c-1.4,0-2.5-0.5-3.2-1.4
					c-0.5-0.8-0.8-1.7-0.8-2.9c0-1.4,0.4-2.5,1.1-3.2s1.6-1.2,2.7-1.2c1.2,0,2.2,0.4,2.9,1.2s1.1,2.1,1,3.7h-5.5
					c0,0.7,0.2,1.2,0.5,1.5s0.8,0.5,1.3,0.5c0.3,0,0.6-0.1,0.9-0.3S605.5,93.8,605.6,93.4z M605.7,91.1c0-0.6-0.2-1.1-0.5-1.4
					s-0.7-0.5-1.1-0.5c-0.5,0-0.9,0.2-1.2,0.5s-0.5,0.8-0.5,1.4H605.7z"/>
			</g>
		</g>
		<path id="Shape_26_" class="st28" d="M19.8,0h742.1c10.9,0,19.8,8.9,19.8,19.8v40.8H0V19.8C0,8.9,8.8,0,19.8,0z"/>
		<g id="Group-13" transform="translate(569.381108, 15.304441)">
			<g id="Group-12" transform="translate(50.833333, 0.000000)">
				<polygon id="Shape_27_" class="st29" points="0,0 29.8,0 29.8,29.8 0,29.8 				"/>
				<g id="top-nav---check" transform="translate(4.396719, 7.531048)">
					<polygon id="Shape_28_" points="19.1,0.2 7.6,11 2.1,5.4 0.2,7.2 7.5,14.7 9.4,12.9 20.9,2.1 					"/>
				</g>
			</g>
			<g id="Group-11" transform="translate(101.666667, 0.000000)">
				<polygon id="Shape_29_" class="st29" points="0,0 29.8,0 29.8,29.8 0,29.8 				"/>
				<g id="top-van---filter" transform="translate(7.307167, 7.307167)">
					<polygon id="Shape_30_" points="15.2,0 0,0 6.7,6.7 6.7,13.4 6.7,15.2 8.5,13.4 8.5,6.7 					"/>
				</g>
			</g>
			<g id="Group-9" transform="translate(152.500000, 0.000000)">
				<polygon id="Shape_31_" class="st29" points="0,0 29.8,0 29.8,29.8 0,29.8 				"/>
				<g id="top-nav---light-bulb" transform="translate(9.098212, 5.516122)">
					<path id="Shape_32_" d="M3.6,13h4.5c0.4,0,0.7,0.3,0.7,0.7s-0.3,0.7-0.7,0.7H3.6c-0.4,0-0.7-0.3-0.7-0.7S3.2,13,3.6,13z"/>
					<path id="Shape_33_" d="M3.6,15.2h4.5c0.4,0,0.7,0.3,0.7,0.7s-0.3,0.7-0.7,0.7H3.6c-0.4,0-0.7-0.3-0.7-0.7S3.2,15.2,3.6,15.2z"
						/>
					<path id="Shape_34_" d="M4.4,17.5c0.1,0.8,0.7,1.3,1.5,1.3s1.4-0.6,1.5-1.3H4.4z"/>
					<path id="Shape_35_" d="M5.8,0L5.8,0L5.8,0C2.6,0,0.1,2.6,0,5.8V6c0,0.7,0.2,1.4,0.4,2c0.2,0.6,0.6,1.2,1,1.7
						c0.5,0.6,1.1,1.7,1.4,2.2C2.8,12,3,12.1,3.2,12.1h5.3c0.2,0,0.3-0.1,0.4-0.2c0.2-0.5,0.8-1.6,1.4-2.2c0.4-0.5,0.8-1.1,1-1.7
						c0.2-0.6,0.4-1.3,0.4-2V5.8C11.6,2.6,9,0,5.8,0z M10.3,5.9c0,0.5-0.1,1.1-0.3,1.6C9.8,7.9,9.6,8.4,9.2,8.7
						c-0.5,0.6-1,1.3-1.3,2H5.8H3.7c-0.4-0.7-0.8-1.4-1.3-2C2.1,8.4,1.9,7.9,1.7,7.5C1.5,7,1.4,6.5,1.4,5.9V5.8c0-2.4,2-4.4,4.5-4.4
						l0,0l0,0l0,0l0,0l0,0l0,0c2.4,0,4.4,2,4.5,4.4L10.3,5.9L10.3,5.9z"/>
				</g>
			</g>
			<g id="Group-10">
				<polygon id="Shape_36_" class="st29" points="0,0 29.8,0 29.8,29.8 0,29.8 				"/>
				<g id="top-nav---search" transform="translate(5.963883, 5.963883)">
					<path id="Shape_37_" d="M17.4,15.1l-2.8-2.8c-0.4-0.4-0.9-0.5-1.4-0.4l-1-1c0.9-1.1,1.4-2.6,1.4-4.1c0-3.7-3-6.7-6.7-6.7
						s-6.7,3-6.7,6.7s3,6.7,6.7,6.7c1.5,0,2.9-0.5,4.1-1.4l1,1c-0.1,0.5,0,1,0.4,1.4l2.8,2.8c0.3,0.3,0.7,0.5,1.1,0.5
						c0.4,0,0.8-0.2,1.1-0.5C18,16.7,18,15.7,17.4,15.1z M6.8,12.2c-3,0-5.4-2.4-5.4-5.4s2.4-5.4,5.4-5.4s5.4,2.4,5.4,5.4
						S9.8,12.2,6.8,12.2z"/>
				</g>
			</g>
		</g>
		<path id="Shape_38_" class="st30" d="M35.7,39c1,0,1.9,0.8,1.9,1.9c0,1-0.8,1.9-1.9,1.9c-1,0-1.9-0.8-1.9-1.9
			C33.8,39.9,34.7,39,35.7,39z M46.3,39c1,0,1.9,0.8,1.9,1.9c0,1-0.8,1.9-1.9,1.9c-1,0-1.9-0.8-1.9-1.9C44.4,39.9,45.3,39,46.3,39z
			 M56.9,39c1,0,1.9,0.8,1.9,1.9c0,1-0.8,1.9-1.9,1.9c-1,0-1.9-0.8-1.9-1.9C55,39.9,55.9,39,56.9,39z M35.7,28.4
			c1,0,1.9,0.8,1.9,1.9s-0.8,1.9-1.9,1.9c-1,0-1.9-0.8-1.9-1.9S34.7,28.4,35.7,28.4z M46.3,28.4c1,0,1.9,0.8,1.9,1.9
			s-0.8,1.9-1.9,1.9c-1,0-1.9-0.8-1.9-1.9S45.3,28.4,46.3,28.4z M56.9,28.4c1,0,1.9,0.8,1.9,1.9s-0.8,1.9-1.9,1.9
			c-1,0-1.9-0.8-1.9-1.9S55.9,28.4,56.9,28.4z M35.7,17.8c1,0,1.9,0.8,1.9,1.9s-0.8,1.9-1.9,1.9c-1,0-1.9-0.8-1.9-1.9
			S34.7,17.8,35.7,17.8z M46.3,17.8c1,0,1.9,0.8,1.9,1.9s-0.8,1.9-1.9,1.9c-1,0-1.9-0.8-1.9-1.9S45.3,17.8,46.3,17.8z M56.9,17.8
			c1,0,1.9,0.8,1.9,1.9s-0.8,1.9-1.9,1.9c-1,0-1.9-0.8-1.9-1.9S55.9,17.8,56.9,17.8z"/>
		<g id="Helios-Complete-Logo" transform="translate(75.200229, 14.929441)">
			<path id="Shape_39_" class="st31" d="M63.2,8.4c-1.5,0-2.9,0.3-4.2,1c-1.2,0.7-2.2,1.7-2.9,2.9c-0.7,1.3-1.1,2.8-1,4.3
				c0,1.5,0.3,2.9,1,4.2c0.7,1.2,1.7,2.2,2.9,2.9c1.3,0.7,2.8,1.1,4.3,1c1.3,0,2.6-0.2,3.8-0.8c1.1-0.4,2.1-1.1,2.9-2l-2.1-2.2
				c-0.5,0.6-1.2,1-1.9,1.3c-0.7,0.3-1.5,0.5-2.3,0.5c-2.2,0.1-4.2-1.5-4.6-3.6h11.8c0-0.3,0-0.7,0-1.2c0-2.6-0.6-4.7-1.9-6.1
				S65.8,8.4,63.2,8.4z M59,15.3c0.1-1.1,0.6-2.1,1.4-2.8c0.8-0.7,1.8-1.1,2.9-1c1.1,0,2.1,0.3,2.9,1.1c0.8,0.7,1.2,1.7,1.2,2.8H59z
				"/>
			<path id="Shape_40_" class="st31" d="M121.1,17.3c-0.5-0.6-1.1-1.1-1.9-1.5c-0.9-0.4-1.8-0.7-2.8-1c-0.8-0.2-1.6-0.5-2.3-0.9
				c-0.5-0.2-0.8-0.7-0.8-1.1c0-0.4,0.2-0.8,0.6-1.1c0.5-0.3,1-0.4,1.6-0.4c0.8,0,1.5,0.2,2.3,0.4c0.8,0.3,1.7,0.6,2.4,1.1l1.4-2.8
				c-0.8-0.6-1.8-1-2.7-1.3c-1-0.3-2.1-0.5-3.1-0.4c-1.5-0.1-3,0.4-4.3,1.2c-1.2,0.8-1.8,2.2-1.7,3.6c0,0.9,0.2,1.8,0.8,2.5
				c0.5,0.6,1.1,1.1,1.8,1.4c0.9,0.4,1.7,0.7,2.6,0.9c0.8,0.2,1.6,0.5,2.4,0.9c0.5,0.2,0.8,0.7,0.8,1.3c0,0.5-0.2,0.9-0.7,1.1
				c-0.5,0.3-1.1,0.4-1.7,0.4c-1,0-1.9-0.2-2.8-0.5c-0.9-0.3-1.8-0.8-2.6-1.5l-1.3,2.7c0.9,0.7,1.9,1.3,3,1.7
				c1.2,0.4,2.4,0.6,3.6,0.6c1.6,0.1,3.2-0.4,4.5-1.3c1.2-0.8,1.9-2.2,1.8-3.6C121.9,19,121.6,18.1,121.1,17.3z"/>
			<path id="Shape_41_" class="st32" d="M98.7,8.6c-4.5-0.1-8.3,3.5-8.4,8.1c0.2,4.6,4.2,8.2,8.9,8c4.3-0.2,7.8-3.7,8-8
				C107,12.1,103.2,8.5,98.7,8.6z M98.7,21.7c-2.8,0.1-5.2-2.2-5.3-5c0,0,0,0,0,0c0.3-2.9,2.9-5,5.7-4.7c2.5,0.2,4.4,2.2,4.7,4.7
				C103.8,19.5,101.5,21.7,98.7,21.7z"/>
			<path id="Shape_42_" class="st31" d="M50.6,10.1c-1.1-1.1-2.7-1.7-4.3-1.7c-2.8,0-4.7,1.1-5.8,3.2V3.8l-3.9-1.4v22.2h3.9v-7.9
				c-0.1-1.2,0.3-2.4,1.1-3.3c0.8-0.9,1.9-1.3,3.1-1.3c1,0,1.9,0.3,2.6,1c0.7,0.7,1,1.7,1,2.7v8.8h3.9v-10
				C52.2,12.9,51.7,11.3,50.6,10.1z"/>
			<polygon id="Shape_43_" class="st31" points="74.4,24.6 78.3,24.6 78.3,3.8 74.4,2.4 			"/>
			<polygon id="Shape_44_" class="st31" points="83.3,24.6 87.2,24.6 87.2,10 83.3,8.6 			"/>
			<path id="Shape_45_" class="st32" d="M5.5,18.4C5,17,4.8,15.6,4.8,14.2c0-6.3,4.9-11.4,11-11.4s11,5.1,11,11.4
				c0,1.4-0.2,2.9-0.8,4.2h2.9c0.4-1.4,0.6-2.8,0.6-4.2C29.4,6.4,23.3,0,15.8,0S2,6.4,2,14.2c0,1.4,0.2,2.9,0.6,4.2H5.5z"/>
			<path id="Shape_46_" class="st32" d="M30,22.7H1.5c-0.8,0.1-1.4-0.5-1.5-1.2c-0.1-0.8,0.5-1.4,1.2-1.5c0,0,0.1,0,0.1,0
				c0.1,0,0.1,0,0.2,0H30c0.8,0,1.4,0.6,1.4,1.3c0,0.7-0.5,1.3-1.2,1.4H30z"/>
			<path id="Shape_47_" class="st33" d="M24.3,24H7.1c-0.8,0-1.4,0.6-1.4,1.3c0,0.7,0.5,1.3,1.2,1.4h17.4c0.8,0,1.4-0.6,1.4-1.3
				c0-0.7-0.5-1.3-1.2-1.4H24.3"/>
			<path id="Shape_48_" class="st34" d="M18.8,27.9h-6c-0.8-0.1-1.4,0.5-1.5,1.2c-0.1,0.8,0.5,1.4,1.2,1.5c0,0,0.1,0,0.1,0h6.2
				c0.8-0.1,1.3-0.7,1.3-1.5C20,28.5,19.4,28,18.8,27.9"/>
			<path id="Shape_49_" class="st32" d="M135.6,8.5h53.9c4.5,0,8.2,3.7,8.2,8.2s-3.7,8.2-8.2,8.2h-53.9c-4.5,0-8.2-3.7-8.2-8.2
				S131.1,8.5,135.6,8.5z"/>
			<path id="Shape_50_" class="st24" d="M135.3,16.9c0-1.6,1.3-2.9,2.9-2.9c0.1,0,0.2,0,0.2,0c1.1-0.1,2.1,0.5,2.5,1.4l-1.3,0.7
				c-0.2-0.5-0.7-0.8-1.3-0.8c-0.8,0-1.5,0.6-1.5,1.4c0,0.1,0,0.1,0,0.2c-0.1,0.8,0.5,1.5,1.3,1.6c0.1,0,0.1,0,0.2,0
				c0.5,0,1-0.3,1.3-0.8l1.3,0.7c-0.5,0.9-1.5,1.5-2.5,1.4c-1.6,0.1-3-1.1-3.1-2.7C135.3,17.1,135.3,17,135.3,16.9z"/>
			<path id="Shape_51_" class="st24" d="M141.9,16.9c-0.1-1.7,1.2-3.2,2.9-3.3c1.7-0.1,3.2,1.2,3.3,2.9c0.1,1.7-1.2,3.2-2.9,3.3
				c-0.1,0-0.1,0-0.2,0c-1.6,0.1-3-1.1-3.1-2.7C141.9,17,141.9,16.9,141.9,16.9z M146.5,16.9c0.1-0.8-0.5-1.5-1.3-1.5
				c-0.8-0.1-1.5,0.5-1.5,1.3c0,0.1,0,0.1,0,0.2c-0.1,0.8,0.5,1.5,1.3,1.5c0.8,0.1,1.5-0.5,1.5-1.3C146.5,17,146.5,16.9,146.5,16.9z
				"/>
			<path id="Shape_52_" class="st24" d="M159.2,16.5v3.2h-1.6v-3c0-0.9-0.4-1.3-1.1-1.3c-0.7,0-1.3,0.5-1.3,1.5v2.8h-1.6v-3
				c0-0.9-0.4-1.3-1.1-1.3s-1.2,0.5-1.2,1.5v2.8h-1.6V14h1.6v0.7c0.4-0.5,1.1-0.8,1.8-0.8c0.7,0,1.4,0.3,1.9,0.9
				c0.5-0.6,1.2-0.9,2-0.9C158.3,14,159.2,14.7,159.2,16.5z"/>
			<path id="Shape_53_" class="st24" d="M167.3,16.9c0.1,1.5-1.1,2.8-2.6,2.9c-0.1,0-0.2,0-0.2,0c-0.6,0-1.3-0.2-1.7-0.7v2.6h-1.6
				V14h1.6v0.7c0.4-0.5,1.1-0.8,1.8-0.8c1.5,0,2.8,1.2,2.8,2.7C167.3,16.7,167.3,16.8,167.3,16.9z M165.6,16.9
				c0.1-0.8-0.5-1.5-1.3-1.6c-0.8-0.1-1.5,0.5-1.6,1.3c0,0.1,0,0.2,0,0.3c-0.1,0.8,0.5,1.5,1.3,1.6c0.8,0.1,1.5-0.5,1.6-1.3
				C165.7,17.1,165.7,17,165.6,16.9z"/>
			<polygon id="Shape_54_" class="st24" points="168.9,11.9 170.5,11.9 170.5,19.7 168.9,19.7 			"/>
			<path id="Shape_55_" class="st24" d="M178,17.3h-4.3c0.2,0.7,0.9,1.2,1.6,1.1c0.5,0,1-0.2,1.4-0.5l0.9,0.9
				c-0.6,0.6-1.5,1-2.3,0.9c-2,0-3.2-1.2-3.2-2.9c0-1.6,1.2-2.9,2.8-2.9c0.1,0,0.1,0,0.2,0c1.5-0.1,2.9,1.1,2.9,2.6
				c0,0.1,0,0.2,0,0.3C178,17,178,17.2,178,17.3z M173.7,16.4h2.8c-0.1-0.8-0.9-1.3-1.6-1.2C174.3,15.3,173.8,15.8,173.7,16.4z"/>
			<path id="Shape_56_" class="st24" d="M183.3,19.4c-0.4,0.3-0.9,0.4-1.3,0.4c-1,0.1-2-0.6-2.1-1.6c0-0.1,0-0.3,0-0.4v-2.3H179
				v-1.3h0.9v-1.4h1.6v1.4h1.4v1.3h-1.4v2.3c-0.1,0.4,0.2,0.7,0.6,0.7c0,0,0.1,0,0.1,0c0.2,0,0.5-0.1,0.7-0.2L183.3,19.4z"/>
			<path id="Shape_57_" class="st24" d="M190.1,17.3h-4.3c0.2,0.7,0.9,1.2,1.6,1.1c0.5,0,1-0.2,1.4-0.5l0.9,0.9
				c-0.6,0.6-1.5,1-2.3,0.9c-2,0-3.2-1.2-3.2-2.9c0-1.6,1.2-2.9,2.8-2.9c0.1,0,0.1,0,0.2,0c1.5-0.1,2.9,1.1,2.9,2.6
				c0,0.1,0,0.2,0,0.3C190.1,17,190.1,17.2,190.1,17.3z M185.8,16.4h2.8c-0.1-0.8-0.9-1.3-1.6-1.2C186.4,15.3,185.9,15.8,185.8,16.4
				z"/>
		</g>
	</g>
</g>
</svg>
