<?xml version="1.0" encoding="UTF-8"?>
<svg width="783.56px" height="484.21px" viewBox="0 0 783.56 484.21" version="1.1" xmlns="http://www.w3.org/2000/svg" xmlns:xlink="http://www.w3.org/1999/xlink">
    <!-- Generator: Sketch 63.1 (92452) - https://sketch.com -->
    <title>3</title>
    <desc>Created with Sketch.</desc>
    <defs>
        <linearGradient x1="50%" y1="-28.5070585%" x2="50%" y2="114.061036%" id="linearGradient-1">
            <stop stop-color="#FFFFFF" offset="0%"></stop>
            <stop stop-color="#FFF3E8" offset="100%"></stop>
        </linearGradient>
        <linearGradient x1="9.1569%" y1="-27.4509%" x2="86.6663%" y2="109.124%" id="linearGradient-2">
            <stop stop-color="#FAB643" offset="0%"></stop>
            <stop stop-color="#F48222" offset="55.9689%"></stop>
            <stop stop-color="#F16322" offset="100%"></stop>
        </linearGradient>
        <linearGradient x1="9.1569%" y1="-27.4509%" x2="86.6663%" y2="109.124%" id="linearGradient-3">
            <stop stop-color="#FAB643" offset="0%"></stop>
            <stop stop-color="#F48222" offset="55.9689%"></stop>
            <stop stop-color="#F16322" offset="100%"></stop>
        </linearGradient>
        <linearGradient x1="-54.3241%" y1="37.1537%" x2="94.0793%" y2="95.7718%" id="linearGradient-4">
            <stop stop-color="#FFAD38" offset="0%"></stop>
            <stop stop-color="#F36309" offset="100%"></stop>
        </linearGradient>
        <linearGradient x1="-54.3241%" y1="37.1537%" x2="94.0793%" y2="95.7718%" id="linearGradient-5">
            <stop stop-color="#FFAD38" offset="0%"></stop>
            <stop stop-color="#F36309" offset="100%"></stop>
        </linearGradient>
        <linearGradient x1="6.43368242%" y1="-18.2341409%" x2="86.6662966%" y2="107.470673%" id="linearGradient-6">
            <stop stop-color="#FAB643" offset="0%"></stop>
            <stop stop-color="#F48222" offset="55.9688776%"></stop>
            <stop stop-color="#F16322" offset="100%"></stop>
        </linearGradient>
        <linearGradient x1="-33.7430934%" y1="37.1303115%" x2="85.3833388%" y2="95.8550263%" id="linearGradient-7">
            <stop stop-color="#FFAD38" offset="0%"></stop>
            <stop stop-color="#F36309" offset="100%"></stop>
        </linearGradient>
        <linearGradient x1="-54.3241028%" y1="36.9818024%" x2="94.0792778%" y2="96.3841681%" id="linearGradient-8">
            <stop stop-color="#FFAD38" offset="0%"></stop>
            <stop stop-color="#F36309" offset="100%"></stop>
        </linearGradient>
        <linearGradient x1="-54.3241028%" y1="37.1536579%" x2="94.0792778%" y2="95.7718426%" id="linearGradient-9">
            <stop stop-color="#FFAD38" offset="0%"></stop>
            <stop stop-color="#F36309" offset="100%"></stop>
        </linearGradient>
        <linearGradient x1="-41.0430426%" y1="37.1303115%" x2="88.4677314%" y2="95.8550263%" id="linearGradient-10">
            <stop stop-color="#FFAD38" offset="0%"></stop>
            <stop stop-color="#F36309" offset="100%"></stop>
        </linearGradient>
        <linearGradient x1="-54.3241028%" y1="37.1303115%" x2="94.0792778%" y2="95.8550264%" id="linearGradient-11">
            <stop stop-color="#FFAD38" offset="0%"></stop>
            <stop stop-color="#F36309" offset="100%"></stop>
        </linearGradient>
        <polygon id="path-12" points="0 0 5.09518477 0 5.09518477 6.73292273 0 6.73292273"></polygon>
        <polygon id="path-14" points="0 0 5.09518477 0 5.09518477 6.73292273 0 6.73292273"></polygon>
        <polygon id="path-16" points="0 0 5.09518477 0 5.09518477 6.73292273 0 6.73292273"></polygon>
        <path d="M3.79549647,4.60348455 L3.79549647,5.77482334 C3.79549647,5.85166405 3.73394128,5.91404548 3.65778911,5.91404548 C3.64305442,5.91404548 3.62845744,5.91156675 3.61441129,5.9068847 L2.55186131,5.55022264 L1.48931134,5.9068847 C1.41715268,5.9311212 1.33921032,5.89159918 1.31524924,5.81875199 C1.31056719,5.80456813 1.30822616,5.78983345 1.30822616,5.77482334 L1.30822616,4.62028485 C1.46714045,4.92117543 1.81705485,5.0646665 2.13929007,4.95918266 L2.54759239,4.82560652 L2.9558947,4.95918266 C3.28212343,5.06590586 3.63671988,4.91745733 3.79274232,4.60899285 L3.79549647,4.60348455 Z M2.54759239,4.53311609 L2.05446234,4.69450912 C1.85685228,4.75909387 1.6421665,4.66917096 1.54769926,4.48230208 L1.31180655,4.01588726 L0.850211487,3.77751582 C0.665270505,3.68208462 0.576311551,3.46505782 0.640345473,3.26551986 L0.799948301,2.76701922 L0.640345473,2.26865629 C0.576311551,2.06911833 0.665270505,1.85209154 0.850211487,1.75666034 L1.31180655,1.5182889 L1.54769926,1.05187408 C1.6421665,0.865005192 1.85685228,0.775082287 2.05446234,0.839667038 L2.54759239,1.00106006 L3.04072244,0.839667038 C3.23833249,0.775082287 3.45301827,0.865005192 3.54748551,1.05187408 L3.78337822,1.5182889 L4.24497328,1.75666034 C4.42991427,1.85209154 4.51887322,2.06911833 4.4548393,2.26865629 L4.29523647,2.76701922 L4.4548393,3.26551986 C4.51887322,3.46505782 4.42991427,3.68208462 4.24497328,3.77751582 L3.78337822,4.01588726 L3.54748551,4.48230208 C3.45301827,4.66917096 3.23833249,4.75909387 3.04072244,4.69450912 L2.54759239,4.53311609 Z M2.54759239,4.12384983 C3.30815013,4.12384983 3.92466597,3.50733398 3.92466597,2.74677624 C3.92466597,1.9862185 3.30815013,1.36970266 2.54759239,1.36970266 C1.78703465,1.36970266 1.1705188,1.9862185 1.1705188,2.74677624 C1.1705188,3.50733398 1.78703465,4.12384983 2.54759239,4.12384983 Z M2.54759239,3.84843511 C1.93920128,3.84843511 1.44593352,3.35516735 1.44593352,2.74677624 C1.44593352,2.13838513 1.93920128,1.64511738 2.54759239,1.64511738 C3.15598349,1.64511738 3.64925125,2.13838513 3.64925125,2.74677624 C3.64925125,3.35516735 3.15598349,3.84843511 2.54759239,3.84843511 Z M2.3831698,3.35268862 L2.3831698,2.998643 L2.57430761,2.998643 C2.84820755,2.998643 3.04251263,2.84496159 3.04251263,2.59171776 C3.04251263,2.35252008 2.86583409,2.19594681 2.59634079,2.19594681 L2.13447031,2.19594681 L2.13447031,3.35268862 L2.3831698,3.35268862 Z M2.58064215,2.76880942 L2.3831698,2.76880942 L2.3831698,2.42729517 L2.58064215,2.42729517 C2.71559536,2.42729517 2.79078358,2.48747329 2.79078358,2.59653751 L2.79078358,2.59956708 C2.79078358,2.70050657 2.71008707,2.76880942 2.58064215,2.76880942 Z" id="path-18"></path>
        <linearGradient x1="-54.3241028%" y1="37.7086498%" x2="94.0792778%" y2="93.7943924%" id="linearGradient-19">
            <stop stop-color="#FFAD38" offset="0%"></stop>
            <stop stop-color="#F36309" offset="100%"></stop>
        </linearGradient>
        <path d="M4.03605736,15.1974122 C4.66916439,15.1974122 5.13736031,14.9367768 5.44064512,14.415506 C5.66431767,14.0288179 5.77615394,13.5568309 5.77615394,12.9995451 C5.77615394,12.7796636 5.74961652,12.5484089 5.69654168,12.3057811 C5.64346684,12.0631532 5.54395151,11.8375852 5.3979957,11.6290768 C5.21602481,11.3712848 4.97813579,11.1940527 4.68432863,11.0973807 C4.5118354,11.0405148 4.29574497,11.0101863 4.03605736,11.0063952 L4.03605736,11.0063952 L2.23056498,11.0063952 L2.23056498,15.1974122 L4.03605736,15.1974122 Z M3.88820601,14.4695286 L3.08071021,14.4695286 L3.08071021,11.7342788 L3.88820601,11.7342788 C4.28626732,11.7342788 4.55211541,11.8484845 4.68575028,12.0768958 C4.81938515,12.3053072 4.88620258,12.63276 4.88620258,13.0592543 C4.88620258,13.3682257 4.84165763,13.6345476 4.75256771,13.8582202 C4.58955213,14.2657591 4.30143156,14.4695286 3.88820601,14.4695286 L3.88820601,14.4695286 Z" id="path-20"></path>
    </defs>
    <g id="3" stroke="none" stroke-width="1" fill="none" fill-rule="evenodd">
        <g id="Group-8" transform="translate(1, 1)">
            <path d="M49.0931323,135.214638 L732.469535,135.214638 L732.469535,468.011499 C732.469535,476.407961 724.736465,483.214638 715.197241,483.214638 L66.3654262,483.214638 C56.8262017,483.214638 49.0931323,476.407961 49.0931323,468.011499 L49.0931323,135.214638 Z" id="Shape" fill="#ffc198" opacity="0.5"></path>
            <path d="M-5.68434189e-14,60.2146377 L781.562667,60.2146377 L781.562667,440.82714 C781.562667,450.42999 772.718524,458.214638 761.808722,458.214638 L19.7539453,458.214638 C8.84414257,458.214638 -5.68434189e-14,450.42999 -5.68434189e-14,440.82714 L-5.68434189e-14,60.2146377 Z" id="Shape" stroke="#FFDDC8" stroke-width="1.4" fill="url(#linearGradient-1)"></path>
            <g id="Group-7" transform="translate(28.281333, 90.608883)">
                <g id="Group-2" transform="translate(0.414312, 0.026149)">
                    <g id="Group-6">
                        <g id="US-Filing" transform="translate(0.000000, 242.021277)">
                            <circle id="Shape" stroke="#F7811C" stroke-width="0.995744681" fill="#FFFFFF" cx="17.5032665" cy="17.287234" r="16.7893617"></circle>
                            <g id="113_Globe-with-Arrow" transform="translate(7.309483, 6.961302)" fill="url(#linearGradient-3)" fill-rule="nonzero">
                                <path d="M6.96724261,10.7225731 L9.37395045,13.2814782 C9.47530701,13.3892391 9.59279059,13.4720786 9.718999,13.5300199 L9.718999,14.5360441 C8.38430851,14.5859798 6.94601064,14.757808 5.62559082,15.0361904 C5.04685135,13.7770533 4.6515422,12.3064782 4.58487612,10.7225731 L6.96724261,10.7225731 Z M13.3981169,10.7225731 L15.8026899,10.7225731 C15.7372769,12.2768694 15.355403,13.7220822 14.7942061,14.965394 C13.4804923,14.6864082 12.0515922,14.5321457 10.668567,14.5214021 L10.668567,13.5195779 C10.7863987,13.4622864 10.8961552,13.3829275 10.9915715,13.2814318 L13.3981169,10.7225731 Z M7.64875411,5.5046361 L7.64875411,7.40133573 L6.41200914,7.40019872 C5.43865665,7.39929375 4.93533129,8.5621793 5.60220084,9.27121114 L6.07413073,9.77300502 L4.58487612,9.77300502 C4.65625268,8.07769586 5.10407325,6.51214538 5.75043017,5.19680731 C6.36571648,5.32482566 7.00508889,5.42801537 7.64875411,5.5046361 Z M12.4478759,5.55343483 C13.1957286,5.47674448 13.9366664,5.36167416 14.64419,5.2111476 C15.2867646,6.52351551 15.7315918,8.08386822 15.8026899,9.77300502 L14.2911591,9.77300502 L14.7565918,9.27812604 C15.422742,8.56981353 14.921157,7.40804179 13.9487791,7.40713682 L12.4478759,7.40574456 L12.4478759,5.55343483 Z M7.64875411,2.52634037 L7.64875411,4.54843162 C7.16858668,4.48902851 6.69203913,4.41435694 6.22883407,4.32536829 C6.65943703,3.62030439 7.14498786,3.01235065 7.64875411,2.52634037 Z M12.4478759,2.26089895 C13.0582893,2.78629396 13.6526453,3.49360869 14.1677585,4.34010305 C13.6102046,4.4494187 13.0319524,4.53622614 12.4478759,4.59878504 L12.4478759,2.26089895 Z M8.00394295,0.518622822 C7.83489933,0.719822094 7.71709089,0.965832197 7.67068221,1.23670807 C6.76879909,1.90542005 5.91643403,2.89366045 5.22879659,4.10522871 C4.39197844,3.89580953 3.62990147,3.63652422 3.01015993,3.33368437 C4.34039519,1.95192851 6.06552192,0.953032682 8.00394295,0.518622822 Z M12.0227956,0.444771294 C14.1022294,0.830304923 15.9551424,1.86117401 17.3659664,3.32182695 C16.7436492,3.63438942 15.9905291,3.90091448 15.1641065,4.11464967 C14.3859489,2.74055821 13.3959125,1.6528292 12.3615558,0.991475314 C12.2884621,0.785005408 12.1718835,0.599089908 12.0227956,0.444771294 Z M9.718999,20.2070922 C6.98248786,20.0787954 4.53445309,18.847341 2.80960481,16.9473696 C3.41832429,16.628774 4.20727188,16.354986 5.08692525,16.1328044 C6.291509,18.386526 8.06478474,19.9275263 9.718999,20.1812194 L9.718999,20.2070922 Z M10.668567,20.2070922 L10.668567,20.1812194 C12.3387227,19.9250666 14.1301906,18.3567084 15.3353081,16.067461 C16.1948433,16.2912668 16.9753677,16.5733852 17.6152738,16.9060658 C15.8885228,18.8294737 13.4248715,20.0778904 10.668567,20.2070922 Z M9.718999,19.2144569 C8.51376553,18.9484887 7.11162002,17.7204918 6.07587106,15.9116438 C7.2574593,15.6788811 8.5323058,15.5325777 9.718999,15.486285 L9.718999,19.2144569 Z M10.668567,19.2144569 L10.668567,15.4710166 C11.900996,15.4810409 13.1728955,15.6107299 14.3505855,15.8431446 C13.3112398,17.6894676 11.8889762,18.9451241 10.668567,19.2144569 Z M0.234479866,10.7225731 L3.6343335,10.7225731 C3.69682279,12.3688282 4.08046016,13.9153976 4.66660181,15.2632449 C3.70691668,15.5173092 2.84944667,15.8321689 2.19488237,16.2008395 C1.04477081,14.6579829 0.3305166,12.7711219 0.234479866,10.7225731 Z M0.234479866,9.77300502 C0.335206893,7.62442227 1.11601278,5.65365438 2.36649008,4.07116473 C3.03489576,4.42547182 3.86670177,4.72717466 4.78457268,4.96966002 C4.13215943,6.37769943 3.70092996,8.01875684 3.6343335,9.77300502 L0.234479866,9.77300502 Z M20.1530862,10.7225731 C20.0579716,12.7513518 19.3565508,14.6215289 18.225896,16.1560551 C17.5333625,15.7738332 16.6852902,15.4512233 15.7498536,15.1962076 C16.319729,13.864232 16.6917642,12.3416095 16.7532325,10.7225731 L20.1530862,10.7225731 Z M20.1530862,9.77300502 L16.7532325,9.77300502 C16.6867753,8.02235351 16.2571701,6.38442869 15.6070309,4.97833844 C16.5132532,4.7311658 17.33594,4.4216199 18.0097244,4.05684765 C19.2668428,5.64175055 20.0520545,7.61792505 20.1530862,9.77300502 Z M6.4112434,8.24135608 L8.48991147,8.24328204 C8.48991147,5.99297146 8.48991147,3.74270729 8.48991147,1.49244775 C8.48991147,1.49191173 8.48991147,1.49137571 8.48991147,1.49083505 C8.49077003,1.11918969 8.79277453,0.818633139 9.16443845,0.81952452 L10.935417,0.823775221 C11.3064312,0.824663948 11.6067185,1.12567994 11.6067185,1.49669647 C11.6067185,3.7465128 11.6067185,5.99631288 11.6067185,8.24613617 L13.9480134,8.24829418 C14.183723,8.24850302 14.305337,8.5301341 14.1438348,8.70186943 L10.3788376,12.7051752 C10.2725386,12.8182035 10.092937,12.8182035 9.98666107,12.7051752 L6.21491147,8.69495454 C6.05327003,8.52305678 6.17527845,8.24112404 6.4112434,8.24135608 Z" id="Shape"></path>
                            </g>
                        </g>
                        <g id="Reporting-Analytics" transform="translate(0.000000, 290.425532)">
                            <circle id="Shape" stroke="#F7811C" stroke-width="0.995744681" fill="#FFFFFF" cx="17.3707697" cy="17.287234" r="16.7893617"></circle>
                            <g id="Reporting-and-Analytics" transform="translate(8.439419, 8.353563)" fill="url(#linearGradient-5)" fill-rule="nonzero">
                                <path d="M0.0515049354,3.91130434 L0.0515049354,1.13116208 C0.0515049354,0.540616245 0.536339917,0.0618821487 1.13441324,0.0618821487 L16.7282966,0.0618821487 C17.3263653,0.0618821487 17.8111968,0.540616245 17.8111968,1.13116208 L17.8111968,3.91130434 L0.0515049354,3.91130434 Z M12.0512992,11.0916788 L14.4512546,11.0916788 L14.4512546,17.8054604 L12.0512992,17.8054604 L12.0512992,11.0916788 Z M8.69135705,13.489453 L11.0913124,13.489453 L11.0913124,17.8054604 L8.69135705,17.8054604 L8.69135705,13.489453 Z M15.4112414,9.17344557 L17.8111968,9.17344557 L17.8111968,17.8054604 L15.4112414,17.8054604 L15.4112414,9.17344557 Z M2.93145951,2.93922809 C3.46163229,2.93922809 3.8914463,2.50980856 3.8914463,1.98010682 C3.8914463,1.45040509 3.46163229,1.02099483 2.93145951,1.02099483 C2.40126352,1.02099483 1.97147272,1.45040509 1.97147272,1.98010682 C1.97147272,2.50980856 2.40126352,2.93922809 2.93145951,2.93922809 Z M0.0515049354,4.85743814 L17.8111968,4.85743814 L17.8111968,8.22002561 L14.4519739,8.22002561 L14.4519739,10.136797 L11.0886439,10.136797 L11.0893865,12.5224121 L7.73137026,12.5224121 L7.73137026,16.3667913 L1.02608842,16.3667913 C0.487840524,16.3667913 0.0515049354,15.9304568 0.0515049354,15.392209 L0.0515049354,4.85743814 Z M1.97147272,6.29610728 L1.97147272,7.25523552 L8.21137526,7.25523552 L8.21137526,6.29610728 L1.97147272,6.29610728 Z M1.97147272,8.21434054 L1.97147272,9.17344557 L6.29140168,9.17344557 L6.29140168,8.21434054 L1.97147272,8.21434054 Z" id="Shape"></path>
                            </g>
                        </g>
                        <g id="Outlook_Circle" transform="translate(0.345745, 97.500000)">
                            <circle id="Shape" stroke="#F7811C" stroke-width="0.995744681" fill="#FFFFFF" cx="17.287234" cy="17.287234" r="16.7893617"></circle>
                            <path d="M18.2025164,12.9792977 L25.5247751,12.9792977 L25.5247751,22.0189018 L18.2025164,22.0189018 L18.2025164,25.4087534 L9.04969299,23.7138276 L9.04969299,11.0018843 L18.2025164,9.16571469 L18.2025164,12.9792977 Z M18.3314294,13.5745395 L18.3314294,16.007456 L20.5542219,17.7513209 L24.5966015,13.5745395 L18.3314294,13.5745395 Z M18.3314294,16.7708291 L18.3314294,21.4640154 L25.0606883,21.4640154 L25.0606883,14.0386263 L20.6330068,18.5523669 L18.3314294,16.7708291 Z M13.5745395,20.3037984 C14.8257372,20.3037984 15.7789519,19.0323103 15.7789519,17.5192775 C15.7789519,16.0062446 14.8257372,14.7347565 13.5745395,14.7347565 C12.3233418,14.7347565 11.3701271,16.0062446 11.3701271,17.5192775 C11.3701271,19.0323103 12.3233418,20.3037984 13.5745395,20.3037984 Z M13.5745395,19.3756247 C12.904413,19.3756247 12.2983007,18.5699617 12.2983007,17.5192775 C12.2983007,16.4685933 12.904413,15.6629302 13.5745395,15.6629302 C14.244666,15.6629302 14.8507782,16.4685933 14.8507782,17.5192775 C14.8507782,18.5699617 14.244666,19.3756247 13.5745395,19.3756247 Z" id="Shape" fill="url(#linearGradient-6)" fill-rule="nonzero"></path>
                        </g>
                        <g id="IDS-B" transform="translate(0.000000, 143.829787)">
                            <circle id="Shape" stroke="#F7811C" stroke-width="0.995744681" fill="#FFFFFF" cx="17.4532052" cy="17.287234" r="16.7893617"></circle>
                            <path d="M23.7318541,17.8223123 L17.4512675,17.8223123 C16.684505,17.8223123 16.0448638,18.369723 15.8976092,19.0971726 L14.073776,19.0971726 L14.073776,20.0755178 L15.86571,20.0755178 L15.86571,21.056318 L14.073776,21.056318 L14.073776,22.0346632 L15.86571,22.0346632 L15.86571,22.484774 C15.86571,23.3655039 16.5755883,24.0794767 17.4512675,24.0794767 L23.7318541,24.0794767 L23.7318541,25.3623447 C23.7318541,25.9005917 23.2955187,26.336927 22.7572718,26.336927 L10.319745,26.336927 C9.78149807,26.336927 9.34516269,25.9005917 9.34516269,25.3623447 L9.34516269,9.21212338 C9.34516269,8.67387643 9.78149807,8.23754105 10.319745,8.23754105 L22.7572718,8.23754105 C23.2955187,8.23754105 23.7318541,8.67387643 23.7318541,9.21212338 L23.7318541,17.8223123 L23.7318541,17.8223123 Z M11.3069843,11.1992588 L11.3069843,12.5155777 L21.7700326,12.5155777 L21.7700326,11.1992588 L11.3069843,11.1992588 Z M14.073776,14.1609765 L14.073776,15.1393216 L20.7891218,15.1393216 L20.7891218,14.1609765 L14.073776,14.1609765 Z M11.3069843,14.140312 L11.3069843,15.9352924 L13.0928652,15.9352924 L13.0928652,14.140312 L11.3069843,14.140312 Z M11.3069843,19.1066738 L11.3069843,20.9016542 L13.0928652,20.9016542 L13.0928652,19.1066738 L11.3069843,19.1066738 Z M14.073776,16.1102528 L14.073776,17.088598 L17.8126535,17.088598 L17.8126535,16.1102528 L14.073776,16.1102528 Z M17.4524315,18.8006575 L24.9472608,18.8006575 C25.2863565,18.8006575 25.5612477,19.0755488 25.5612477,19.4146444 L25.5612477,22.4871446 C25.5612477,22.8262402 25.2863565,23.1011315 24.9472608,23.1011315 L17.4524315,23.1011315 C17.1133359,23.1011315 16.8384447,22.8262402 16.8384447,22.4871446 L16.8384447,19.4146444 C16.8384447,19.0755488 17.1133359,18.8006575 17.4524315,18.8006575 Z M18.0672156,22.3395113 L18.6626551,22.3395113 L18.6626551,19.6127615 L18.0672156,19.6127615 L18.0672156,22.3395113 Z M19.4466935,22.3395113 L20.5022455,22.3395113 C21.3528734,22.3395113 21.94058,21.7435217 21.94058,20.9683457 C21.94058,20.2009604 21.3528734,19.6127615 20.5022455,19.6127615 L19.4466935,19.6127615 L19.4466935,22.3395113 Z M20.0421331,21.7980567 L20.0421331,20.1542161 L20.5022455,20.1542161 C20.9894233,20.1542161 21.318075,20.4931121 21.318075,20.9761364 L21.318075,20.9839271 C21.318075,21.4669514 20.9894233,21.7980567 20.5022455,21.7980567 L20.0421331,21.7980567 Z M23.501783,22.3784649 C24.0856231,22.3784649 24.4954711,22.074627 24.4954711,21.5253817 C24.4954711,21.0501482 24.1861519,20.851485 23.6371103,20.7073568 C23.1692648,20.5866007 23.0532701,20.5281704 23.0532701,20.3411932 C23.0532701,20.2087511 23.1731314,20.1035765 23.4012542,20.1035765 C23.6293772,20.1035765 23.8652331,20.2048558 24.1049555,20.3723561 L24.4142747,19.9204947 C24.1397539,19.6984594 23.8033694,19.573808 23.4089873,19.573808 C22.8560791,19.573808 22.461697,19.9010179 22.461697,20.403519 C22.461697,20.9449736 22.8135476,21.0968925 23.3587229,21.2371253 C23.8111022,21.353986 23.903898,21.4318931 23.903898,21.5916028 C23.903898,21.7513124 23.7569714,21.8486963 23.5133824,21.8486963 C23.2040632,21.8486963 22.9488749,21.7201496 22.7052859,21.517591 L22.3534353,21.9421849 C22.6782206,22.2343367 23.091935,22.3784649 23.501783,22.3784649 Z" id="Shape" fill="url(#linearGradient-7)" fill-rule="nonzero"></path>
                        </g>
                        <g id="Docketing-B" transform="translate(0.000000, 49.095745)">
                            <circle id="Shape" stroke="#F7811C" stroke-width="0.995744681" fill="#FFFFFF" cx="17.4032557" cy="17.287234" r="16.7893617"></circle>
                            <g id="Docketing" transform="translate(8.471899, 8.348922)" fill="url(#linearGradient-9)" fill-rule="nonzero">
                                <path d="M0.0515061305,6.30075205 L17.8112081,6.30075205 L17.8112081,16.8355229 C17.8112081,17.3737698 17.3748727,17.8101052 16.8366258,17.8101052 L1.02608845,17.8101052 C0.487841498,17.8101052 0.0515061305,17.3737698 0.0515061305,16.8355229 L0.0515061305,6.30075205 Z M3.8987409,8.21897758 C3.62961744,8.21897758 3.41144974,8.43714526 3.41144974,8.70626875 L3.41144974,10.6090247 C3.41144974,10.8781482 3.62961744,11.0963159 3.8987409,11.0963159 L5.80411025,11.0963159 C6.07323373,11.0963159 6.29140141,10.8781482 6.29140141,10.6090247 L6.29140141,8.70626875 C6.29140141,8.43714526 6.07323373,8.21897758 5.80411025,8.21897758 L3.8987409,8.21897758 Z M3.8987409,12.534985 C3.62961744,12.534985 3.41144974,12.7531527 3.41144974,13.0222762 L3.41144974,14.9250321 C3.41144974,15.1941556 3.62961744,15.4123233 3.8987409,15.4123233 L5.80411025,15.4123233 C6.07323373,15.4123233 6.29140141,15.1941556 6.29140141,14.9250321 L6.29140141,13.0222762 C6.29140141,12.7531527 6.07323373,12.534985 5.80411025,12.534985 L3.8987409,12.534985 Z M7.73137726,8.21897758 L7.73137726,9.17809034 L14.4512645,9.17809034 L14.4512645,8.21897758 L7.73137726,8.21897758 Z M7.73137726,12.534985 L7.73137726,13.4940978 L14.4512645,13.4940978 L14.4512645,12.534985 L7.73137726,12.534985 Z M7.73137726,10.1372031 L7.73137726,11.0963159 L12.5312967,11.0963159 L12.5312967,10.1372031 L7.73137726,10.1372031 Z M7.73137726,14.4532105 L7.73137726,15.4123233 L12.5312967,15.4123233 L12.5312967,14.4532105 L7.73137726,14.4532105 Z M16.8512242,1.98474464 C17.3814087,1.98474464 17.8112081,2.41415405 17.8112081,2.94385741 L17.8112081,5.3416393 L0.0515061305,5.3416393 L0.0515061305,2.94385741 C0.0515061305,2.41415405 0.481305557,1.98474464 1.01149002,1.98474464 L3.41144974,1.98474464 L3.41144974,1.04110144 C3.41144974,0.502854483 3.84778512,0.0665191148 4.38603206,0.0665191148 L5.79681104,0.0665191148 C6.33505799,0.0665191148 6.77139337,0.502854483 6.77139337,1.04110144 L6.77139337,1.98474464 L11.0913209,1.98474464 L11.0913209,1.04110144 C11.0913209,0.502854483 11.5276562,0.0665191148 12.0659032,0.0665191148 L13.4766821,0.0665191148 C14.0149291,0.0665191148 14.4512645,0.502854483 14.4512645,1.04110144 L14.4512645,1.98474464 L16.8512242,1.98474464 Z" id="Shape"></path>
                            </g>
                        </g>
                        <g id="Annuities-&amp;-renewals-B" transform="translate(0.000000, 195.691489)">
                            <circle id="Shape" stroke="#F7811C" stroke-width="0.995744681" fill="#FFFFFF" cx="17.3216927" cy="17.287234" r="16.7893617"></circle>
                            <path d="M17.2558819,21.6475007 L17.2558819,17.8406936 L21.1824576,17.8406936 C21.14353,19.326654 20.9235364,20.7131202 20.5708054,21.9193476 C19.4883867,21.7492474 18.3580669,21.6557566 17.2558819,21.6475007 L17.2558819,21.6475007 Z M17.2558819,12.7695696 C18.3236994,12.7500451 19.4197228,12.6518751 20.4703049,12.4827872 C20.8816028,13.7629004 21.139955,15.2667166 21.1824576,16.8891415 L17.2558819,16.8891415 L17.2558819,12.7695696 L17.2558819,12.7695696 Z M17.2558819,27.3450858 L17.2558819,27.3174084 C18.9487093,27.0481969 20.3742479,25.3986491 21.2471992,23.007031 C22.4681266,23.2522649 23.5827268,23.6014833 24.448652,24.0371276 C22.6607262,25.96457 20.1098279,27.2155968 17.2558819,27.3450858 L17.2558819,27.3450858 Z M17.2558819,26.3460723 L17.2558819,22.5990831 C18.2559093,22.6069522 19.281012,22.6884844 20.2645942,22.8354655 C19.5379882,24.7504223 18.4513394,26.0605394 17.2558819,26.3460723 L17.2558819,26.3460723 Z M17.2558819,7.38474915 C19.9751687,7.50812837 22.4193307,8.64970619 24.1905227,10.4244414 C23.35315,10.8314746 22.2871395,11.160602 21.1230175,11.3969442 C20.2422895,9.18208007 18.870696,7.66923159 17.2558819,7.41242676 L17.2558819,7.38474915 L17.2558819,7.38474915 Z M17.2558819,8.38376277 C18.3829188,8.6529535 19.4132455,9.83280286 20.1363437,11.5715909 C19.1932556,11.7150509 18.2124218,11.7994908 17.2558819,11.8178374 L17.2558819,8.38376277 L17.2558819,8.38376277 Z M27.0763677,17.8406936 C26.977889,19.8737037 26.2516007,21.7478207 25.0809014,23.2855488 C24.1298803,22.7775816 22.895677,22.3746844 21.5427129,22.0955091 C21.9085982,20.8161053 22.1281802,19.371397 22.1660086,17.8406936 L27.0763677,17.8406936 L27.0763677,17.8406936 Z M27.0763677,16.8891415 L22.1660086,16.8891415 C22.1248761,15.2247409 21.8688535,13.6620137 21.4435145,12.3029173 C22.746275,12.0297005 23.9360662,11.6436056 24.8570809,11.1609829 C26.1587156,12.7492311 26.9717568,14.7295375 27.0763677,16.8891415 L27.0763677,16.8891415 Z M15.9934228,6.84528059 L15.9934228,27.7291875 L13.8211579,27.7291875 L13.8211579,25.8410475 C9.57815299,25.5562082 7.76322604,23.3012296 7.56701772,20.3104159 L11.1968716,20.3104159 C11.3685539,21.6871396 11.8836008,22.8027606 13.8211579,23.0876 L13.8211579,18.506433 C9.92151755,17.9130176 8.05753851,16.5362938 8.05753851,13.4030604 C8.05753851,10.6733495 10.3139342,8.65573709 13.8211579,8.41837091 L13.8211579,6.84528059 L15.9934228,6.84528059 Z M11.5892883,13.0944844 C11.5892883,14.1863688 12.006231,14.7797842 13.8211579,15.1358334 L13.8211579,11.1243452 C12.3741216,11.3142382 11.5892883,12.0975465 11.5892883,13.0944844 Z" id="Shape" fill="url(#linearGradient-10)" fill-rule="nonzero"></path>
                        </g>
                        <g id="Group-5" transform="translate(0.345745, 0.000000)">
                            <circle id="Shape" stroke="#F7811C" stroke-width="0.995744681" fill="#FFFFFF" cx="17.287234" cy="17.287234" r="16.7893617"></circle>
                            <g id="Group" transform="translate(8.643617, 8.643617)">
                                <polygon id="Shape" fill="url(#linearGradient-11)" fill-rule="nonzero" points="0.0909854423 0.0909854423 7.91573348 0.0909854423 7.91573348 7.91573348 0.0909854423 7.91573348"></polygon>
                                <g id="Clipped" transform="translate(1.455767, 0.545913)">
                                    <mask id="mask-13" fill="white">
                                        <use xlink:href="#path-12"></use>
                                    </mask>
                                    <g id="Shape"></g>
                                    <g mask="url(#mask-13)">
                                        <mask id="mask-15" fill="white">
                                            <use xlink:href="#path-14"></use>
                                        </mask>
                                        <g id="Shape"></g>
                                        <g mask="url(#mask-15)">
                                            <mask id="mask-17" fill="white">
                                                <use xlink:href="#path-16"></use>
                                            </mask>
                                            <g id="Shape"></g>
                                            <g id="Shape" fill-rule="nonzero" mask="url(#mask-17)">
                                                <use fill="#000000" xlink:href="#path-18"></use>
                                                <use fill="#F9F9F9" xlink:href="#path-18"></use>
                                            </g>
                                        </g>
                                    </g>
                                </g>
                                <polygon id="Shape" fill="url(#linearGradient-19)" fill-rule="nonzero" points="9.18952968 0.0909854423 17.1962486 0.0909854423 17.1962486 7.91573348 9.18952968 7.91573348"></polygon>
                                <path d="M11.6935409,5.59594262 L11.6935409,2.7902209 L12.7668271,2.7902209 L12.7668271,2.41077631 L10.1822673,2.41077631 L10.1822673,2.7902209 L11.2555535,2.7902209 L11.2555535,5.59594262 L11.6935409,5.59594262 Z M13.5625766,5.59594262 L13.5625766,3.7160657 C13.5625766,3.64089953 13.5607697,3.5234524 13.5571559,3.36372429 C13.5535422,3.20399619 13.5517353,3.08510355 13.5517353,3.00704638 L13.5517353,2.90947491 L14.4667388,5.59594262 L14.893885,5.59594262 L15.8023838,2.90947491 C15.8023838,3.08148979 15.8009383,3.2426634 15.7980473,3.39299573 C15.7951563,3.54332807 15.7937108,3.65101806 15.7937108,3.7160657 L15.7937108,5.59594262 L16.2035109,5.59594262 L16.2035109,2.41077631 L15.5920631,2.41077631 L14.6835643,5.10374878 L13.7685608,2.41077631 L13.1506082,2.41077631 L13.1506082,5.59594262 L13.5625766,5.59594262 Z" id="Shape" fill="#FFFFFF"></path>
                                <polygon id="Shape" fill="url(#linearGradient-11)" fill-rule="nonzero" points="0.0909854423 9.18952968 7.91573348 9.18952968 7.91573348 17.0142777 0.0909854423 17.0142777"></polygon>
                                <polygon id="Shape" fill="url(#linearGradient-11)" fill-rule="nonzero" points="9.37150056 9.18952968 17.1962486 9.18952968 17.1962486 17.0142777 9.37150056 17.0142777"></polygon>
                                <g id="Shape" fill-rule="nonzero">
                                    <use fill="#000000" xlink:href="#path-20"></use>
                                    <use fill="#F9F9F9" xlink:href="#path-20"></use>
                                </g>
                                <path d="M13.2838746,10.4633259 C14.7410974,10.4633259 15.9224524,11.6446809 15.9224524,13.1019037 C15.9224524,14.5591265 14.7410974,15.7404815 13.2838746,15.7404815 C11.8266517,15.7404815 10.6452968,14.5591265 10.6452968,13.1019037 C10.6452968,11.6446809 11.8266517,10.4633259 13.2838746,10.4633259 Z M13.2838746,10.9182531 C12.0779535,10.9182531 11.100224,11.8959826 11.100224,13.1019037 C11.100224,14.3078247 12.0779535,15.2855543 13.2838746,15.2855543 C14.4897956,15.2855543 15.4675252,14.3078247 15.4675252,13.1019037 C15.4675252,11.8959826 14.4897956,10.9182531 13.2838746,10.9182531 Z M13.3514028,12.0242949 C13.6063516,12.0242949 13.8134383,12.0996422 13.9726628,12.2503368 C14.0437452,12.3171543 14.1014996,12.4058295 14.1459261,12.5163626 L14.1859099,12.6341817 L13.7693672,12.733697 L13.7458656,12.656928 C13.7173438,12.584424 13.6737614,12.5247148 13.6151185,12.4778004 C13.5369278,12.4152479 13.4419144,12.3839717 13.3300781,12.3839717 C13.1755924,12.3839717 13.0502505,12.4394159 12.9540524,12.5503045 C12.8578542,12.661193 12.8097551,12.8407944 12.8097551,13.0891089 C12.8097551,13.3525875 12.8571434,13.540245 12.9519199,13.6520813 C13.0466964,13.7639176 13.1699058,13.8198357 13.3215482,13.8198357 C13.4333845,13.8198357 13.5295827,13.7842945 13.6101427,13.7132121 C13.6705627,13.6599004 13.7181879,13.5836645 13.7530183,13.4845046 L13.7835837,13.3777033 L14.1915965,13.5070732 L14.1490893,13.6365285 C14.0857786,13.7997715 13.9959304,13.9255589 13.8795449,14.0138906 C13.734063,14.1243052 13.5494857,14.1795125 13.3258132,14.1795125 C13.0490658,14.1795125 12.8216022,14.084973 12.6434224,13.8958938 C12.4652425,13.7068147 12.3761526,13.4483118 12.3761526,13.1203851 C12.3761526,12.7735031 12.4657164,12.5041009 12.644844,12.3121785 C12.8239716,12.1202561 13.0594912,12.0242949 13.3514028,12.0242949 Z" id="Shape" fill="#FFFFFF"></path>
                            </g>
                        </g>
                    </g>
                </g>
                <rect id="Rectangle" fill="#FFFFFF" x="46.4143122" y="0.0261485067" width="677" height="327" rx="15"></rect>
                <path d="M61,0 L708,0 C716.284271,-5.07450962e-15 723,6.71572875 723,15 L723,52 L723,52 L46,52 L46,15 C46,6.71572875 52.7157288,1.52179594e-15 61,0 Z" id="Rectangle" fill="#F7811C"></path>
                <path d="M76,72 L693,72 C698.522847,72 703,76.4771525 703,82 L703,99 C703,104.522847 698.522847,109 693,109 L76,109 C70.4771525,109 66,104.522847 66,99 L66,82 C66,76.4771525 70.4771525,72 76,72 Z" id="Rectangle" fill="#F3F2F0"></path>
                <path d="M385,72 L693,72 C698.522847,72 703,76.4771525 703,82 L703,99 C703,104.522847 698.522847,109 693,109 L385,109 L385,109 L385,72 Z" id="Rectangle" fill="#F7811C"></path>
                <text id="Map-Fields-to-Import" font-family="Montserrat" font-size="18" font-weight="bold" letter-spacing="0.5" fill="#FFFFFF">
                    <tspan x="66" y="33">Map Fields to Import</tspan>
                </text>
                <polygon id="Rectangle" fill="#D9D4CF" points="387.659873 131 397.259873 139.6 387.659873 148.2 387.659873 142.514968 372 142.514968 372 136.685032 387.659873 136.685032"></polygon>
                <polygon id="Rectangle-Copy" fill="#D9D4CF" points="387.659873 164 397.259873 172.6 387.659873 181.2 387.659873 175.514968 372 175.514968 372 169.685032 387.659873 169.685032"></polygon>
                <polygon id="Rectangle-Copy-2" fill="#D9D4CF" points="387.659873 198 397.259873 206.6 387.659873 215.2 387.659873 209.514968 372 209.514968 372 203.685032 387.659873 203.685032"></polygon>
                <polygon id="Rectangle-Copy-3" fill="#D9D4CF" points="387.659873 233 397.259873 241.6 387.659873 250.2 387.659873 244.514968 372 244.514968 372 238.685032 387.659873 238.685032"></polygon>
                <polygon id="Rectangle-Copy-4" fill="#D9D4CF" points="387.659873 267 397.259873 275.6 387.659873 284.2 387.659873 278.514968 372 278.514968 372 272.685032 387.659873 272.685032"></polygon>
                <path d="M69,126 L301,126 C302.656854,126 304,127.343146 304,129 L304,149.852113 C304,151.508967 302.656854,152.852113 301,152.852113 L69,152.852113 C67.3431458,152.852113 66,151.508967 66,149.852113 L66,129 C66,127.343146 67.3431458,126 69,126 Z" id="Shape-Copy-3" fill="#D9D4CF" opacity="0.300000012"></path>
                <path d="M468,126 L700,126 C701.656854,126 703,127.343146 703,129 L703,149.852113 C703,151.508967 701.656854,152.852113 700,152.852113 L468,152.852113 C466.343146,152.852113 465,151.508967 465,149.852113 L465,129 C465,127.343146 466.343146,126 468,126 Z" id="Shape-Copy-8" fill="#F7811C"></path>
                <path d="M69,160 L301,160 C302.656854,160 304,161.343146 304,163 L304,183.852113 C304,185.508967 302.656854,186.852113 301,186.852113 L69,186.852113 C67.3431458,186.852113 66,185.508967 66,183.852113 L66,163 C66,161.343146 67.3431458,160 69,160 Z" id="Shape-Copy-4" fill="#D9D4CF" opacity="0.300000012"></path>
                <path d="M468,160 L700,160 C701.656854,160 703,161.343146 703,163 L703,183.852113 C703,185.508967 701.656854,186.852113 700,186.852113 L468,186.852113 C466.343146,186.852113 465,185.508967 465,183.852113 L465,163 C465,161.343146 466.343146,160 468,160 Z" id="Shape-Copy-9" fill="#F7811C"></path>
                <path d="M69,194 L301,194 C302.656854,194 304,195.343146 304,197 L304,217.852113 C304,219.508967 302.656854,220.852113 301,220.852113 L69,220.852113 C67.3431458,220.852113 66,219.508967 66,217.852113 L66,197 C66,195.343146 67.3431458,194 69,194 Z" id="Shape-Copy-5" fill="#D9D4CF" opacity="0.300000012"></path>
                <path d="M468,194 L700,194 C701.656854,194 703,195.343146 703,197 L703,217.852113 C703,219.508967 701.656854,220.852113 700,220.852113 L468,220.852113 C466.343146,220.852113 465,219.508967 465,217.852113 L465,197 C465,195.343146 466.343146,194 468,194 Z" id="Shape-Copy-10" fill="#F7811C"></path>
                <path d="M69,228 L301,228 C302.656854,228 304,229.343146 304,231 L304,251.852113 C304,253.508967 302.656854,254.852113 301,254.852113 L69,254.852113 C67.3431458,254.852113 66,253.508967 66,251.852113 L66,231 C66,229.343146 67.3431458,228 69,228 Z" id="Shape-Copy-6" fill="#D9D4CF" opacity="0.300000012"></path>
                <path d="M468,228 L700,228 C701.656854,228 703,229.343146 703,231 L703,251.852113 C703,253.508967 701.656854,254.852113 700,254.852113 L468,254.852113 C466.343146,254.852113 465,253.508967 465,251.852113 L465,231 C465,229.343146 466.343146,228 468,228 Z" id="Shape-Copy-11" fill="#F7811C"></path>
                <path d="M69,262 L301,262 C302.656854,262 304,263.343146 304,265 L304,285.852113 C304,287.508967 302.656854,288.852113 301,288.852113 L69,288.852113 C67.3431458,288.852113 66,287.508967 66,285.852113 L66,265 C66,263.343146 67.3431458,262 69,262 Z" id="Shape-Copy-7" fill="#D9D4CF" opacity="0.300000012"></path>
                <path d="M468,262 L700,262 C701.656854,262 703,263.343146 703,265 L703,285.852113 C703,287.508967 701.656854,288.852113 700,288.852113 L468,288.852113 C466.343146,288.852113 465,287.508967 465,285.852113 L465,265 C465,263.343146 466.343146,262 468,262 Z" id="Shape-Copy-12" fill="#F7811C"></path>
                <text id="App.-No." font-family="Montserrat" font-size="14" font-weight="normal" letter-spacing="0.388888889" fill="#535353">
                    <tspan x="76" y="144">App. No.</tspan>
                </text>
                <text id="Application" font-family="Montserrat" font-size="14" font-weight="400" fill="#FFFFFF">
                    <tspan x="475" y="144">Application</tspan>
                </text>
                <text id="App.-Date" font-family="Montserrat" font-size="14" font-weight="normal" letter-spacing="0.388888889" fill="#535353">
                    <tspan x="76" y="178">App. Date</tspan>
                </text>
                <text id="Filling-Date" font-family="Montserrat" font-size="14" font-weight="400" fill="#FFFFFF">
                    <tspan x="475" y="178">Filling Date</tspan>
                </text>
                <text id="Pub.-Date" font-family="Montserrat" font-size="14" font-weight="normal" letter-spacing="0.388888889" fill="#535353">
                    <tspan x="76" y="212">Pub. Date</tspan>
                </text>
                <text id="Publication-Date" font-family="Montserrat" font-size="14" font-weight="400" fill="#FFFFFF">
                    <tspan x="475" y="212">Publication Date</tspan>
                </text>
                <text id="Pat.-No." font-family="Montserrat" font-size="14" font-weight="normal" letter-spacing="0.388888889" fill="#535353">
                    <tspan x="76" y="246">Pat. No.</tspan>
                </text>
                <text id="Patent-Number" font-family="Montserrat" font-size="14" font-weight="400" fill="#FFFFFF">
                    <tspan x="475" y="246">Patent Number</tspan>
                </text>
                <text id="Grant-Date" font-family="Montserrat" font-size="14" font-weight="normal" letter-spacing="0.388888889" fill="#535353">
                    <tspan x="76" y="280">Grant Date</tspan>
                </text>
                <text id="Issue-Date" font-family="Montserrat" font-size="14" font-weight="400" fill="#FFFFFF">
                    <tspan x="475" y="280">Issue Date</tspan>
                </text>
                <text id="Source-Field" font-family="Montserrat" font-size="16" font-weight="bold" letter-spacing="0.444444444" fill="#535353">
                    <tspan x="164" y="96">Source Field</tspan>
                </text>
                <text id="HeliosComplete" font-family="Montserrat" font-size="16" font-weight="bold" letter-spacing="0.444444444" fill="#FFFFFF">
                    <tspan x="482" y="96">HeliosComplete</tspan>
                </text>
            </g>
            <path d="M19.7539453,4.97379915e-14 L761.808722,4.97379915e-14 C772.718524,4.97379915e-14 781.562667,8.86522109 781.562667,19.8010255 L781.562667,60.6088828 L1.13686838e-13,60.6088828 L1.13686838e-13,19.8010255 C1.13686838e-13,8.86522109 8.84414257,4.97379915e-14 19.7539453,4.97379915e-14 Z" id="Shape" stroke="#FFDDC8" stroke-width="1.4" fill="#FFFFFF"></path>
            <g id="Group-13" transform="translate(569.381108, 15.304441)">
                <g id="Group-12" transform="translate(50.833333, 0.000000)">
                    <polygon id="Shape" points="-5.15143483e-14 0 29.8382144 0 29.8382144 29.8382144 -5.15143483e-14 29.8382144"></polygon>
                    <g id="top-nav---check" transform="translate(4.396719, 7.531048)" fill="#000000" fill-rule="nonzero">
                        <polygon id="Shape" points="19.0522388 0.179104478 7.58955224 11.0149254 2.08208955 5.37313433 0.179104478 7.18656716 7.5 14.7089552 9.42537313 12.9179104 20.8656716 2.05970149"></polygon>
                    </g>
                </g>
                <g id="Group-11" transform="translate(101.666667, 0.000000)">
                    <polygon id="Shape" points="-5.15143483e-14 0 29.8382144 0 29.8382144 29.8382144 -5.15143483e-14 29.8382144"></polygon>
                    <g id="top-van---filter" transform="translate(7.307167, 7.307167)" fill="#000000" fill-rule="nonzero">
                        <polygon id="Shape" points="15.2238806 0 0 0 6.71641791 6.71641791 6.71641791 13.4328358 6.71641791 15.2238806 8.50746269 13.4328358 8.50746269 6.71641791"></polygon>
                    </g>
                </g>
                <g id="Group-9" transform="translate(152.500000, 0.000000)">
                    <polygon id="Shape" points="-5.15143483e-14 0 29.8382144 0 29.8382144 29.8382144 -5.15143483e-14 29.8382144"></polygon>
                    <g id="top-nav---light-bulb" transform="translate(9.098212, 5.516122)" fill="#000000" fill-rule="nonzero">
                        <path d="M3.58208955,12.9850746 L8.05970149,12.9850746 C8.44029851,12.9850746 8.73134328,13.2761194 8.73134328,13.6567164 C8.73134328,14.0373134 8.44029851,14.3283582 8.05970149,14.3283582 L3.58208955,14.3283582 C3.20149254,14.3283582 2.91044776,14.0373134 2.91044776,13.6567164 C2.91044776,13.2761194 3.20149254,12.9850746 3.58208955,12.9850746 Z" id="Shape"></path>
                        <path d="M3.58208955,15.2238806 L8.05970149,15.2238806 C8.44029851,15.2238806 8.73134328,15.5149254 8.73134328,15.8955224 C8.73134328,16.2761194 8.44029851,16.5671642 8.05970149,16.5671642 L3.58208955,16.5671642 C3.20149254,16.5671642 2.91044776,16.2761194 2.91044776,15.8955224 C2.91044776,15.5149254 3.20149254,15.2238806 3.58208955,15.2238806 Z" id="Shape"></path>
                        <path d="M4.36567164,17.4626866 C4.43283582,18.2238806 5.05970149,18.8059701 5.82089552,18.8059701 C6.58208955,18.8059701 7.20895522,18.2238806 7.2761194,17.4626866 L4.36567164,17.4626866 Z" id="Shape"></path>
                        <path d="M5.82089552,0 C5.82089552,0 5.82089552,0 5.82089552,0 C5.82089552,0 5.82089552,0 5.82089552,0 C2.64179104,0.0223880597 0.0671641791,2.57462687 0,5.75373134 L0,5.95522388 C0.0223880597,6.64925373 0.156716418,7.32089552 0.402985075,7.97014925 C0.649253731,8.57462687 0.985074627,9.13432836 1.41044776,9.62686567 C1.94776119,10.2089552 2.52985075,11.3507463 2.7761194,11.8432836 C2.84328358,12 3,12.0895522 3.17910448,12.0895522 L8.46268657,12.0895522 C8.64179104,12.0895522 8.79850746,12 8.86567164,11.8432836 C9.1119403,11.3507463 9.69402985,10.2089552 10.2313433,9.62686567 C10.6567164,9.13432836 11.0149254,8.57462687 11.238806,7.97014925 C11.4850746,7.32089552 11.619403,6.64925373 11.641791,5.95522388 L11.641791,5.75373134 C11.5746269,2.57462687 9,0.0223880597 5.82089552,0 Z M10.2985075,5.93283582 C10.2761194,6.47014925 10.1641791,7.00746269 9.98507463,7.5 C9.80597015,7.94776119 9.55970149,8.37313433 9.2238806,8.73134328 C8.70895522,9.35820896 8.26119403,10.0298507 7.92537313,10.7462687 L5.82089552,10.7462687 L3.73880597,10.7462687 C3.38059701,10.0298507 2.93283582,9.35820896 2.44029851,8.73134328 C2.12686567,8.37313433 1.85820896,7.94776119 1.67910448,7.5 C1.47761194,7.00746269 1.3880597,6.47014925 1.36567164,5.93283582 L1.36567164,5.75373134 C1.41044776,3.31343284 3.40298507,1.34328358 5.84328358,1.32089552 L5.84328358,1.32089552 L5.84328358,1.32089552 C5.84328358,1.32089552 5.84328358,1.32089552 5.84328358,1.32089552 C5.84328358,1.32089552 5.84328358,1.32089552 5.84328358,1.32089552 L5.84328358,1.32089552 L5.84328358,1.32089552 C8.28358209,1.34328358 10.2761194,3.29104478 10.3208955,5.75373134 L10.3208955,5.93283582 L10.2985075,5.93283582 Z" id="Shape"></path>
                    </g>
                </g>
                <g id="Group-10">
                    <polygon id="Shape" points="-5.15143483e-14 0 29.8382144 0 29.8382144 29.8382144 -5.15143483e-14 29.8382144"></polygon>
                    <g id="top-nav---search" transform="translate(5.963883, 5.963883)" fill="#000000" fill-rule="nonzero">
                        <path d="M17.3507463,15.1343284 L14.5522388,12.3358209 C14.1716418,11.9552239 13.6567164,11.8208955 13.1641791,11.9104478 L12.1791045,10.9253731 C13.0522388,9.80597015 13.5671642,8.37313433 13.5671642,6.85074627 C13.5671642,3.15671642 10.5447761,0.134328358 6.85074627,0.134328358 C3.15671642,0.134328358 0.134328358,3.15671642 0.134328358,6.85074627 C0.134328358,10.5447761 3.15671642,13.5671642 6.85074627,13.5671642 C8.37313433,13.5671642 9.78358209,13.0522388 10.9253731,12.1791045 L11.9104478,13.1641791 C11.8208955,13.6567164 11.9552239,14.1716418 12.3358209,14.5522388 L15.1343284,17.3507463 C15.4477612,17.6641791 15.8507463,17.8208955 16.2537313,17.8208955 C16.6567164,17.8208955 17.0597015,17.6641791 17.3731343,17.3507463 C17.9552239,16.7238806 17.9552239,15.738806 17.3507463,15.1343284 Z M6.82835821,12.2014925 C3.87313433,12.2014925 1.45522388,9.78358209 1.45522388,6.82835821 C1.45522388,3.87313433 3.87313433,1.45522388 6.82835821,1.45522388 C9.78358209,1.45522388 12.2014925,3.87313433 12.2014925,6.82835821 C12.2014925,9.78358209 9.78358209,12.2014925 6.82835821,12.2014925 Z" id="Shape"></path>
                    </g>
                </g>
            </g>
            <path d="M35.723665,39.0162936 C36.7697331,39.0162936 37.6177389,39.8642994 37.6177389,40.9103675 C37.6177389,41.9564357 36.7697331,42.8044414 35.723665,42.8044414 C34.6775968,42.8044414 33.8295911,41.9564357 33.8295911,40.9103675 C33.8295911,39.8642994 34.6775968,39.0162936 35.723665,39.0162936 Z M46.3267699,39.0162936 C47.3728381,39.0162936 48.2208439,39.8642994 48.2208439,40.9103675 C48.2208439,41.9564357 47.3728381,42.8044414 46.3267699,42.8044414 C45.2807018,42.8044414 44.432696,41.9564357 44.432696,40.9103675 C44.432696,39.8642994 45.2807018,39.0162936 46.3267699,39.0162936 Z M56.9335838,39.0162936 C57.9796519,39.0162936 58.8276577,39.8642994 58.8276577,40.9103675 C58.8276577,41.9564357 57.9796519,42.8044414 56.9335838,42.8044414 C55.8875157,42.8044414 55.0395099,41.9564357 55.0395099,40.9103675 C55.0395099,39.8642994 55.8875157,39.0162936 56.9335838,39.0162936 Z M35.723665,28.4094798 C36.7697331,28.4094798 37.6177389,29.2574855 37.6177389,30.3035537 C37.6177389,31.3496218 36.7697331,32.1976276 35.723665,32.1976276 C34.6775968,32.1976276 33.8295911,31.3496218 33.8295911,30.3035537 C33.8295911,29.2574855 34.6775968,28.4094798 35.723665,28.4094798 Z M46.3267699,28.4094798 C47.3728381,28.4094798 48.2208439,29.2574855 48.2208439,30.3035537 C48.2208439,31.3496218 47.3728381,32.1976276 46.3267699,32.1976276 C45.2807018,32.1976276 44.432696,31.3496218 44.432696,30.3035537 C44.432696,29.2574855 45.2807018,28.4094798 46.3267699,28.4094798 Z M56.9335838,28.4094798 C57.9796519,28.4094798 58.8276577,29.2574855 58.8276577,30.3035537 C58.8276577,31.3496218 57.9796519,32.1976276 56.9335838,32.1976276 C55.8875157,32.1976276 55.0395099,31.3496218 55.0395099,30.3035537 C55.0395099,29.2574855 55.8875157,28.4094798 56.9335838,28.4094798 Z M35.723665,17.8044414 C36.7697331,17.8044414 37.6177389,18.6524472 37.6177389,19.6985153 C37.6177389,20.7445835 36.7697331,21.5925892 35.723665,21.5925892 C34.6775968,21.5925892 33.8295911,20.7445835 33.8295911,19.6985153 C33.8295911,18.6524472 34.6775968,17.8044414 35.723665,17.8044414 Z M46.3267699,17.8044414 C47.3728381,17.8044414 48.2208439,18.6524472 48.2208439,19.6985153 C48.2208439,20.7445835 47.3728381,21.5925892 46.3267699,21.5925892 C45.2807018,21.5925892 44.432696,20.7445835 44.432696,19.6985153 C44.432696,18.6524472 45.2807018,17.8044414 46.3267699,17.8044414 Z M56.9335838,17.8044414 C57.9796519,17.8044414 58.8276577,18.6524472 58.8276577,19.6985153 C58.8276577,20.7445835 57.9796519,21.5925892 56.9335838,21.5925892 C55.8875157,21.5925892 55.0395099,20.7445835 55.0395099,19.6985153 C55.0395099,18.6524472 55.8875157,17.8044414 56.9335838,17.8044414 Z" id="Shape" fill="#1E1E1E"></path>
            <g id="Helios-Complete-Logo" transform="translate(75.200229, 14.929441)" fill-rule="nonzero">
                <path d="M63.2325,8.4375 C61.76025,8.412975 60.306375,8.76675 59.01,9.465 C57.799125,10.136175 56.801175,11.134125 56.13,12.345 C55.424175,13.64955 55.067625,15.11445 55.095,16.5975 C55.065525,18.071775 55.4169,19.528725 56.115,20.8275 C56.7753,22.041525 57.779925,23.0331 59.0025,23.6775 C60.33,24.378375 61.814175,24.729375 63.315,24.6975 C64.622775,24.709425 65.9193,24.4542 67.125,23.9475 C68.23785,23.4978 69.23505,22.803075 70.0425,21.915 L67.95,19.7625 C67.4007,20.339175 66.73635,20.793975 66,21.0975 C65.254125,21.399375 64.4571,21.5547 63.6525,21.555 C61.44045,21.632625 59.50035,20.090175 59.0775,17.9175 L70.875,17.9175 C70.875,17.6475 70.875,17.265 70.875,16.7475 C70.875,14.115 70.2375,12.075 68.9475,10.62 C67.6575,9.165 65.7825,8.4375 63.2325,8.4375 Z M58.9875,15.315 C59.102025,14.23575 59.6028,13.2342 60.3975,12.495 C61.18395,11.799525 62.2056,11.429475 63.255,11.46 C64.3302,11.4258 65.378325,11.8011 66.1875,12.51 C66.9444,13.245825 67.367175,14.259375 67.3575,15.315 L58.9875,15.315 Z" id="Shape" fill="#1E1E1E"></path>
                <path d="M121.0575,17.3325 C120.55725,16.7085 119.9175,16.210275 119.19,15.8775 C118.296,15.481575 117.3765,15.145875 116.4375,14.8725 C115.641,14.66505 114.867,14.378625 114.1275,14.0175 C113.6715,13.817925 113.3775,13.367475 113.3775,12.87 C113.34525,12.434625 113.571,12.020775 113.955,11.8125 C114.4365,11.557125 114.978,11.4354 115.5225,11.46 C116.28825,11.48145 117.04575,11.6154 117.7725,11.8575 C118.6155,12.12165 119.42625,12.4815 120.1875,12.93 L121.5825,10.125 C120.747,9.560025 119.8245,9.13455 118.8525,8.865 C117.837,8.5656 116.784,8.414025 115.725,8.415 C114.1905,8.3592 112.67775,8.79255 111.405,9.6525 C110.24925,10.479 109.6005,11.841975 109.6875,13.26 C109.65075,14.143725 109.91475,15.013875 110.4375,15.7275 C110.9085,16.328475 111.5145,16.80915 112.2075,17.13 C113.0625,17.50245 113.94225,17.815725 114.84,18.0675 C115.6755,18.2997 116.48625,18.6111 117.2625,18.9975 C117.7335,19.235025 118.02525,19.722675 118.0125,20.25 C118.03125,20.71965 117.777,21.1578 117.36,21.375 C116.83275,21.64725 116.24325,21.77655 115.65,21.75 C114.67725,21.7353 113.71425,21.55785 112.8,21.225 C111.867,20.903175 111.00225,20.409675 110.25,19.77 L108.93,22.5 C109.8105,23.24715 110.82975,23.813025 111.93,24.165 C113.097,24.546825 114.31725,24.74175 115.545,24.7425 C117.138,24.796425 118.70925,24.359175 120.045,23.49 C121.22625,22.685925 121.90275,21.324375 121.83,19.8975 C121.8795,18.9786 121.6065,18.07125 121.0575,17.3325 Z" id="Shape" fill="#1E1E1E"></path>
                <path d="M98.685,8.6175 C94.137,8.521125 90.369,12.124575 90.2625,16.6725 C90.50325,21.32205 94.467,24.896325 99.11625,24.655875 C103.43025,24.432825 106.87725,20.985825 107.1,16.6725 C106.9935,12.127575 103.23,8.525325 98.685,8.6175 Z M98.685,21.66 C95.86125,21.735375 93.51075,19.507275 93.435,16.683375 C93.435,16.679775 93.435,16.6761 93.435,16.6725 C93.7245,13.787475 96.29775,11.6835 99.183,11.973075 C101.66775,12.222525 103.63275,14.18775 103.8825,16.6725 C103.81725,19.4817 101.4945,21.71025 98.685,21.66 Z" id="Shape" fill="#F16322"></path>
                <path d="M50.5875,10.0875 C49.445325,8.9463 47.872275,8.34375 46.26,8.43 C43.505025,8.475 41.582475,9.54 40.4925,11.625 L40.4925,3.8025 L36.6,2.3925 L36.6,24.57 L40.5,24.57 L40.5,16.71 C40.4475,15.512325 40.849275,14.339025 41.625,13.425 C42.4125,12.555225 43.5423,12.0753 44.715,12.1125 C45.67845,12.0645 46.6194,12.4143 47.3175,13.08 C47.98725,13.802475 48.333825,14.766525 48.2775,15.75 L48.2775,24.57 L52.1625,24.57 L52.1625,14.5875 C52.249725,12.938775 51.68385,11.322 50.5875,10.0875 Z" id="Shape" fill="#1E1E1E"></path>
                <polygon id="Shape" fill="#1E1E1E" points="74.4 24.57 78.285 24.57 78.285 3.81 74.4 2.3925"></polygon>
                <polygon id="Shape" fill="#1E1E1E" points="83.295 24.57 87.195 24.57 87.195 9.9975 83.295 8.58"></polygon>
                <path d="M5.5275,18.405 C5.0182425,17.04825 4.7639775,15.609075 4.7775,14.16 C4.74,7.8525 9.66,2.7225 15.75,2.7225 C21.84,2.7225 26.7225,7.8525 26.7225,14.16 C26.732475,15.608775 26.4783,17.047275 25.9725,18.405 L28.8525,18.405 C29.268225,17.02845 29.478,15.597975 29.4750317,14.16 C29.4,6.3525 23.25,0 15.75,0 C8.25,0 2.01749936,6.3525 2.01749936,14.16 C2.0170725,15.59835 2.2293675,17.028825 2.6475,18.405 L5.5275,18.405 Z" id="Shape" fill="#F16322"></path>
                <path d="M30,22.725 L1.5,22.725 C0.74963925,22.797675 0.0824625,22.248225 0.00981855,21.49785 C-0.062825475,20.74755 0.48657225,20.08035 1.23693,20.007675 C1.26207,20.005275 1.28727,20.00355 1.3125,20.0025 C1.3747575,19.994625 1.4377425,19.994625 1.5,20.0025 L30,20.0025 C30.753225,19.9716 31.388925,20.557125 31.419825,21.31035 C31.449525,22.03425 30.90855,22.655175 30.1875,22.725 L30,22.725 Z" id="Shape" fill="#F16322"></path>
                <path d="M24.2925,23.955 L7.125,23.955 C6.3717675,23.9241 5.73609,24.509625 5.7051825,25.26285 C5.675475,25.98675 6.21642,26.607675 6.9375,26.6775 L24.2925,26.6775 C25.045725,26.7084 25.681425,26.122875 25.712325,25.36965 C25.742025,24.64575 25.20105,24.024825 24.48,23.955 L24.2925,23.955" id="Shape" fill="#F5884F"></path>
                <path d="M18.75,27.9075 L12.75,27.9075 C11.999625,27.834825 11.3325,28.384275 11.259825,29.134575 C11.18715,29.88495 11.7366,30.55215 12.4869,30.624825 C12.5121,30.627225 12.5373,30.62895 12.5625,30.63 L18.75,30.63 C19.5018,30.574125 20.06595,29.91945 20.01015,29.16765 C19.96005,28.49355 19.4241,27.9576 18.75,27.9075" id="Shape" fill="#F8AC80"></path>
                <path d="M135.5925,8.4675 L189.51,8.4675 C194.016644,8.4675 197.67,12.1208564 197.67,16.6275 C197.67,21.1341436 194.016644,24.7875 189.51,24.7875 L135.5925,24.7875 C131.085856,24.7875 127.4325,21.1341436 127.4325,16.6275 C127.4325,12.1208564 131.085856,8.4675 135.5925,8.4675 Z" id="Shape" fill="#F16322"></path>
                <path d="M135.27,16.875 C135.26925,15.2637 136.57425,13.956675 138.186,13.9557 C138.264,13.9557 138.342,13.958775 138.42,13.965 C139.47825,13.880925 140.481,14.447775 140.955,15.3975 L139.68,16.0875 C139.43325,15.617925 138.94275,15.327675 138.4125,15.3375 C137.61375,15.3057 136.94025,15.92745 136.90875,16.726275 C136.9065,16.7859 136.90725,16.8456 136.9125,16.905 C136.8495,17.70195 137.445,18.398925 138.24225,18.461625 C138.2985,18.466125 138.3555,18.46725 138.4125,18.465 C138.9435,18.47655 139.43475,18.18585 139.68,17.715 L140.955,18.405 C140.4765,19.350375 139.47675,19.91535 138.42,19.8375 C136.809,19.962 135.40275,18.7572 135.27825,17.146575 C135.2715,17.0562 135.2685,16.9656 135.27,16.875 Z" id="Shape" fill="#FFFFFF"></path>
                <path d="M141.9225,16.875 C141.81075,15.159675 143.1105,13.678425 144.82575,13.5666 C146.541,13.454775 148.02225,14.754675 148.134,16.47 C148.2465,18.185325 146.946,19.666575 145.23075,19.7784 C145.1655,19.782675 145.10025,19.78485 145.035,19.785 C143.4315,19.896825 142.04175,18.687825 141.92925,17.08455 C141.92475,17.0148 141.9225,16.9449 141.9225,16.875 Z M146.4675,16.875 C146.52525,16.077675 145.92525,15.3846 145.128,15.32715 C144.33075,15.269625 143.63775,15.8694 143.58,16.666725 C143.57475,16.7361 143.57475,16.8057 143.58,16.875 C143.52225,17.672325 144.12225,18.3654 144.9195,18.42285 C145.71675,18.480375 146.40975,17.8806 146.4675,17.083275 C146.47275,17.0139 146.47275,16.9443 146.4675,16.875 Z" id="Shape" fill="#FFFFFF"></path>
                <path d="M159.2325,16.5 L159.2325,19.7325 L157.5975,19.7325 L157.5975,16.7325 C157.5975,15.8175 157.185,15.3975 156.525,15.3975 C155.865,15.3975 155.2725,15.87 155.2725,16.8975 L155.2725,19.7325 L153.6375,19.7325 L153.6375,16.7325 C153.6375,15.8175 153.2475,15.3975 152.565,15.3975 C151.8825,15.3975 151.3275,15.87 151.3275,16.8975 L151.3275,19.7325 L149.685,19.7325 L149.685,14.0475 L151.2525,14.0475 L151.2525,14.7 C151.7025,14.195775 152.355,13.92045 153.03,13.95 C153.76875,13.909575 154.47525,14.25975 154.89,14.8725 C155.388,14.26725 156.13875,13.9266 156.9225,13.95 C158.25,13.965 159.2325,14.7375 159.2325,16.5 Z" id="Shape" fill="#FFFFFF"></path>
                <path d="M167.3025,16.875 C167.39025,18.392625 166.23075,19.693875 164.71275,19.7814 C164.63625,19.785825 164.559,19.787025 164.4825,19.785 C163.8435,19.809675 163.22475,19.5615 162.78,19.1025 L162.78,21.75 L161.145,21.75 L161.145,14.0475 L162.75,14.0475 L162.75,14.7 C163.1925,14.189625 163.84575,13.912725 164.52,13.95 C166.03575,13.926 167.28375,15.135375 167.30775,16.6512 C167.30925,16.7259 167.30775,16.800525 167.3025,16.875 Z M165.645,16.875 C165.726,16.0797 165.14775,15.36915 164.352,15.28785 C163.557,15.20655 162.846,15.7854 162.765,16.5807 C162.75525,16.6785 162.75525,16.777125 162.765,16.875 C162.684,17.6703 163.26225,18.38085 164.058,18.46215 C164.853,18.54345 165.564,17.9646 165.645,17.1693 C165.65475,17.0715 165.65475,16.972875 165.645,16.875 Z" id="Shape" fill="#FFFFFF"></path>
                <polygon id="Shape" fill="#FFFFFF" points="168.885 11.9025 170.5275 11.9025 170.5275 19.695 168.885 19.695"></polygon>
                <path d="M178.0125,17.3325 L173.7375,17.3325 C173.91375,18.062625 174.603,18.549825 175.35,18.4725 C175.878,18.494475 176.39175,18.296175 176.7675,17.925 L177.645,18.87 C177.042,19.50585 176.187,19.841025 175.3125,19.785 C173.355,19.785 172.0875,18.555 172.0875,16.875 C172.065,15.28875 173.33325,13.984725 174.9195,13.96245 C174.97575,13.961625 175.03125,13.962525 175.0875,13.965 C176.63025,13.8846 177.9465,15.0702 178.02675,16.6131 C178.03125,16.70535 178.032,16.79775 178.0275,16.89 C178.0425,17.0175 178.02,17.1975 178.0125,17.3325 Z M173.715,16.38 L176.4975,16.38 C176.37075,15.611625 175.6455,15.09135 174.87675,15.21795 C174.2805,15.3162 173.81325,15.7836 173.715,16.38 Z" id="Shape" fill="#FFFFFF"></path>
                <path d="M183.3,19.425 C182.901,19.676325 182.436,19.801725 181.965,19.785 C180.94725,19.92705 180.0075,19.21755 179.86575,18.200175 C179.84475,18.051825 179.8425,17.901525 179.8575,17.7525 L179.8575,15.435 L178.9875,15.435 L178.9875,14.175 L179.8575,14.175 L179.8575,12.795 L181.5,12.795 L181.5,14.175 L182.91,14.175 L182.91,15.435 L181.5,15.435 L181.5,17.73 C181.449,18.090975 181.70025,18.424725 182.06175,18.475575 C182.109,18.48225 182.157,18.48375 182.205,18.48 C182.442,18.4827 182.673,18.40905 182.865,18.27 L183.3,19.425 Z" id="Shape" fill="#FFFFFF"></path>
                <path d="M190.11,17.3325 L185.835,17.3325 C186.01125,18.0657 186.705,18.5538 187.455,18.4725 C187.98225,18.491775 188.49525,18.293925 188.8725,17.925 L189.75,18.87 C189.147,19.50585 188.292,19.841025 187.4175,19.785 C185.46,19.785 184.1925,18.555 184.1925,16.875 C184.17,15.28875 185.43825,13.984725 187.0245,13.96245 C187.08075,13.961625 187.13625,13.962525 187.1925,13.965 C188.73525,13.8846 190.0515,15.0702 190.13175,16.6131 C190.13625,16.70535 190.137,16.79775 190.1325,16.89 C190.14,17.0175 190.1175,17.1975 190.11,17.3325 Z M185.8125,16.38 L188.595,16.38 C188.46825,15.611625 187.743,15.09135 186.97425,15.21795 C186.378,15.3162 185.91075,15.7836 185.8125,16.38 Z" id="Shape" fill="#FFFFFF"></path>
            </g>
        </g>
    </g>
</svg>