<?xml version="1.0" encoding="utf-8"?>
<!-- Generator: Adobe Illustrator 24.2.1, SVG Export Plug-In . SVG Version: 6.00 Build 0)  -->
<svg version="1.1" id="Layer_1" xmlns="http://www.w3.org/2000/svg" xmlns:xlink="http://www.w3.org/1999/xlink" x="0px" y="0px"
	 viewBox="0 0 783.6 484.2" style="enable-background:new 0 0 783.6 484.2;" xml:space="preserve">
<style type="text/css">
	.st0{opacity:0.5;fill:#FFC198;enable-background:new    ;}
	.st1{fill:url(#Shape_65_);stroke:#FFDDC8;}
	.st2{fill:#FFFFFF;stroke:#F7811C;}
	.st3{fill:url(#Shape_66_);}
	.st4{fill:url(#Shape_67_);}
	.st5{fill:url(#Shape_68_);}
	.st6{fill:url(#Shape_69_);}
	.st7{fill:url(#Shape_70_);}
	.st8{fill:url(#Shape_71_);}
	.st9{fill:url(#Shape_72_);}
	.st10{filter:url(#Adobe_OpacityMaskFilter);}
	.st11{fill:#FFFFFF;}
	.st12{mask:url(#mask-13_1_);}
	.st13{filter:url(#Adobe_OpacityMaskFilter_1_);}
	.st14{mask:url(#mask-15_1_);}
	.st15{filter:url(#Adobe_OpacityMaskFilter_2_);}
	.st16{mask:url(#mask-17_1_);}
	.st17{fill:#F9F9F9;}
	.st18{fill:url(#Shape_73_);}
	.st19{fill:url(#Shape_74_);}
	.st20{fill:url(#Shape_75_);}
	.st21{fill:#F7811C;}
	.st22{enable-background:new    ;}
	.st23{fill:#FFC198;}
	.st24{fill:#FF0000;}
	.st25{fill:#FFC73E;}
	.st26{fill:#FFFFFF;stroke:#FFDDC8;}
	.st27{fill:none;}
	.st28{fill:#1E1E1E;}
	.st29{fill:#F16322;}
	.st30{fill:#F5884F;}
	.st31{fill:#F8AC80;}
</style>
<desc>Created with Sketch.</desc>
<g id="_x35_">
	<g id="Group-8" transform="translate(1, 1)">
		<path id="Shape" class="st0" d="M49.1,135.2h683.4V468c0,8.4-7.7,15.2-17.3,15.2H66.4c-9.5,0-17.3-6.8-17.3-15.2V135.2z"/>
		
			<linearGradient id="Shape_65_" gradientUnits="userSpaceOnUse" x1="85.39" y1="637.9006" x2="85.39" y2="636.475" gradientTransform="matrix(781.5627 0 0 -398 -66346.8281 253831.2188)">
			<stop  offset="0" style="stop-color:#FFFFFF"/>
			<stop  offset="1" style="stop-color:#FFF3E8"/>
		</linearGradient>
		<path id="Shape_1_" class="st1" d="M0,60.2h781.6v380.6c0,9.6-8.8,17.4-19.8,17.4H19.8C8.8,458.2,0,450.4,0,440.8V60.2z"/>
		<g id="Group-7" transform="translate(28.281333, 89.608883)">
			<g id="Group-2" transform="translate(0.414312, 1.026149)">
				<g id="Group-6">
					<g id="US-Filing" transform="translate(0.000000, 242.021277)">
						<circle id="Shape_2_" class="st2" cx="17.5" cy="17.3" r="16.8"/>
						<g id="_x31_13_x5F_Globe-with-Arrow" transform="translate(7.309483, 6.961302)">
							
								<linearGradient id="Shape_66_" gradientUnits="userSpaceOnUse" x1="44.747" y1="290.9025" x2="45.5221" y2="289.5367" gradientTransform="matrix(19.9186 0 0 -19.7623 -889.675 5744.1733)">
								<stop  offset="0" style="stop-color:#FAB643"/>
								<stop  offset="0.5597" style="stop-color:#F48222"/>
								<stop  offset="1" style="stop-color:#F16322"/>
							</linearGradient>
							<path id="Shape_3_" class="st3" d="M7,10.7l2.4,2.6c0.1,0.1,0.2,0.2,0.3,0.2v1c-1.3,0-2.8,0.2-4.1,0.5c-0.6-1.3-1-2.7-1-4.3
								H7z M13.4,10.7h2.4c-0.1,1.6-0.4,3-1,4.2c-1.3-0.3-2.7-0.4-4.1-0.4v-1c0.1-0.1,0.2-0.1,0.3-0.2L13.4,10.7z M7.6,5.5v1.9
								l-1.2,0c-1,0-1.5,1.2-0.8,1.9l0.5,0.5H4.6c0.1-1.7,0.5-3.3,1.2-4.6C6.4,5.3,7,5.4,7.6,5.5z M12.4,5.6
								c0.7-0.1,1.5-0.2,2.2-0.3c0.6,1.3,1.1,2.9,1.2,4.6h-1.5l0.5-0.5c0.7-0.7,0.2-1.9-0.8-1.9l-1.5,0V5.6z M7.6,2.5v2
								c-0.5-0.1-1-0.1-1.4-0.2C6.7,3.6,7.1,3,7.6,2.5z M12.4,2.3c0.6,0.5,1.2,1.2,1.7,2.1c-0.6,0.1-1.1,0.2-1.7,0.3V2.3z M8,0.5
								C7.8,0.7,7.7,1,7.7,1.2C6.8,1.9,5.9,2.9,5.2,4.1C4.4,3.9,3.6,3.6,3,3.3C4.3,2,6.1,1,8,0.5z M12,0.4c2.1,0.4,3.9,1.4,5.3,2.9
								c-0.6,0.3-1.4,0.6-2.2,0.8c-0.8-1.4-1.8-2.5-2.8-3.1C12.3,0.8,12.2,0.6,12,0.4z M9.7,20.2c-2.7-0.1-5.2-1.4-6.9-3.3
								c0.6-0.3,1.4-0.6,2.3-0.8C6.3,18.4,8.1,19.9,9.7,20.2L9.7,20.2z M10.7,20.2L10.7,20.2c1.7-0.3,3.5-1.9,4.7-4.1
								c0.9,0.2,1.6,0.5,2.3,0.8C15.9,18.8,13.4,20.1,10.7,20.2z M9.7,19.2c-1.2-0.3-2.6-1.5-3.6-3.3c1.2-0.2,2.5-0.4,3.6-0.4V19.2z
								 M10.7,19.2v-3.7c1.2,0,2.5,0.1,3.7,0.4C13.3,17.7,11.9,18.9,10.7,19.2z M0.2,10.7h3.4c0.1,1.6,0.4,3.2,1,4.5
								c-1,0.3-1.8,0.6-2.5,0.9C1,14.7,0.3,12.8,0.2,10.7z M0.2,9.8c0.1-2.1,0.9-4.1,2.1-5.7C3,4.4,3.9,4.7,4.8,5
								C4.1,6.4,3.7,8,3.6,9.8H0.2z M20.2,10.7c-0.1,2-0.8,3.9-1.9,5.4c-0.7-0.4-1.5-0.7-2.5-1c0.6-1.3,0.9-2.9,1-4.5H20.2z
								 M20.2,9.8h-3.4C16.7,8,16.3,6.4,15.6,5c0.9-0.2,1.7-0.6,2.4-0.9C19.3,5.6,20.1,7.6,20.2,9.8z M6.4,8.2l2.1,0
								c0-2.3,0-4.5,0-6.8c0,0,0,0,0,0c0-0.4,0.3-0.7,0.7-0.7l1.8,0c0.4,0,0.7,0.3,0.7,0.7c0,2.2,0,4.5,0,6.7l2.3,0
								c0.2,0,0.4,0.3,0.2,0.5l-3.8,4c-0.1,0.1-0.3,0.1-0.4,0l-3.8-4C6.1,8.5,6.2,8.2,6.4,8.2z"/>
						</g>
					</g>
					<g id="Reporting-Analytics" transform="translate(0.000000, 290.425532)">
						<circle id="Shape_4_" class="st2" cx="17.4" cy="17.3" r="16.8"/>
						<g id="Reporting-and-Analytics" transform="translate(8.439419, 8.353563)">
							
								<linearGradient id="Shape_67_" gradientUnits="userSpaceOnUse" x1="42.5897" y1="239.8711" x2="44.0737" y2="239.2849" gradientTransform="matrix(17.7597 0 0 -17.7436 -764.0151 4257.8647)">
								<stop  offset="0" style="stop-color:#FFAD38"/>
								<stop  offset="1" style="stop-color:#F36309"/>
							</linearGradient>
							<path id="Shape_5_" class="st4" d="M0.1,3.9V1.1c0-0.6,0.5-1.1,1.1-1.1h15.6c0.6,0,1.1,0.5,1.1,1.1v2.8H0.1z M12.1,11.1h2.4
								v6.7h-2.4V11.1z M8.7,13.5h2.4v4.3H8.7V13.5z M15.4,9.2h2.4v8.6h-2.4V9.2z M2.9,2.9c0.5,0,1-0.4,1-1s-0.4-1-1-1
								C2.4,1,2,1.5,2,2S2.4,2.9,2.9,2.9z M0.1,4.9h17.8v3.4h-3.4v1.9h-3.4l0,2.4H7.7v3.8H1c-0.5,0-1-0.4-1-1V4.9z M2,6.3v1h6.2v-1
								H2z M2,8.2v1h4.3v-1H2z"/>
						</g>
					</g>
					<g id="Outlook_Circle" transform="translate(0.345745, 97.500000)">
						<circle id="Shape_6_" class="st2" cx="17.3" cy="17.3" r="16.8"/>
						
							<linearGradient id="Shape_68_" gradientUnits="userSpaceOnUse" x1="50.7735" y1="440.6091" x2="51.5758" y2="439.352" gradientTransform="matrix(16.4751 0 0 -16.243 -826.873 7163.3403)">
							<stop  offset="0" style="stop-color:#FAB643"/>
							<stop  offset="0.5597" style="stop-color:#F48222"/>
							<stop  offset="1" style="stop-color:#F16322"/>
						</linearGradient>
						<path id="Shape_7_" class="st5" d="M18.2,13h7.3v9h-7.3v3.4L9,23.7V11l9.2-1.8V13z M18.3,13.6V16l2.2,1.7l4-4.2H18.3z
							 M18.3,16.8v4.7h6.7V14l-4.4,4.5L18.3,16.8z M13.6,20.3c1.3,0,2.2-1.3,2.2-2.8s-1-2.8-2.2-2.8s-2.2,1.3-2.2,2.8
							S12.3,20.3,13.6,20.3z M13.6,19.4c-0.7,0-1.3-0.8-1.3-1.9s0.6-1.9,1.3-1.9c0.7,0,1.3,0.8,1.3,1.9S14.2,19.4,13.6,19.4z"/>
					</g>
					<g id="IDS-B" transform="translate(0.000000, 143.829787)">
						<circle id="Shape_8_" class="st2" cx="17.5" cy="17.3" r="16.8"/>
						
							<linearGradient id="Shape_69_" gradientUnits="userSpaceOnUse" x1="50.7652" y1="394.9167" x2="51.9565" y2="394.3295" gradientTransform="matrix(16.2161 0 0 -18.0994 -817.6909 7158.9766)">
							<stop  offset="0" style="stop-color:#FFAD38"/>
							<stop  offset="1" style="stop-color:#F36309"/>
						</linearGradient>
						<path id="Shape_9_" class="st6" d="M23.7,17.8h-6.3c-0.8,0-1.4,0.5-1.6,1.3h-1.8v1h1.8v1h-1.8v1h1.8v0.5
							c0,0.9,0.7,1.6,1.6,1.6h6.3v1.3c0,0.5-0.4,1-1,1H10.3c-0.5,0-1-0.4-1-1V9.2c0-0.5,0.4-1,1-1h12.4c0.5,0,1,0.4,1,1V17.8
							L23.7,17.8z M11.3,11.2v1.3h10.5v-1.3H11.3z M14.1,14.2v1h6.7v-1H14.1z M11.3,14.1v1.8h1.8v-1.8H11.3z M11.3,19.1v1.8h1.8
							v-1.8H11.3z M14.1,16.1v1h3.7v-1H14.1z M17.5,18.8h7.5c0.3,0,0.6,0.3,0.6,0.6v3.1c0,0.3-0.3,0.6-0.6,0.6h-7.5
							c-0.3,0-0.6-0.3-0.6-0.6v-3.1C16.8,19.1,17.1,18.8,17.5,18.8z M18.1,22.3h0.6v-2.7h-0.6V22.3z M19.4,22.3h1.1
							c0.9,0,1.4-0.6,1.4-1.4c0-0.8-0.6-1.4-1.4-1.4h-1.1V22.3z M20,21.8v-1.6h0.5c0.5,0,0.8,0.3,0.8,0.8v0c0,0.5-0.3,0.8-0.8,0.8
							H20z M23.5,22.4c0.6,0,1-0.3,1-0.9c0-0.5-0.3-0.7-0.9-0.8c-0.5-0.1-0.6-0.2-0.6-0.4c0-0.1,0.1-0.2,0.3-0.2s0.5,0.1,0.7,0.3
							l0.3-0.5c-0.3-0.2-0.6-0.3-1-0.3c-0.6,0-0.9,0.3-0.9,0.8c0,0.5,0.4,0.7,0.9,0.8c0.5,0.1,0.5,0.2,0.5,0.4s-0.1,0.3-0.4,0.3
							c-0.3,0-0.6-0.1-0.8-0.3l-0.4,0.4C22.7,22.2,23.1,22.4,23.5,22.4z"/>
					</g>
					<g id="Docketing-B" transform="translate(0.000000, 49.095745)">
						<circle id="Shape_10_" class="st2" cx="17.4" cy="17.3" r="16.8"/>
						<g id="Docketing" transform="translate(8.471899, 8.348922)">
							
								<linearGradient id="Shape_70_" gradientUnits="userSpaceOnUse" x1="42.5309" y1="481.1389" x2="44.015" y2="480.5528" gradientTransform="matrix(17.7597 0 0 -17.7436 -763.4387 8540.0088)">
								<stop  offset="0" style="stop-color:#FFAD38"/>
								<stop  offset="1" style="stop-color:#F36309"/>
							</linearGradient>
							<path id="Shape_11_" class="st7" d="M0.1,6.3h17.8v10.5c0,0.5-0.4,1-1,1H1c-0.5,0-1-0.4-1-1V6.3z M3.9,8.2
								c-0.3,0-0.5,0.2-0.5,0.5v1.9c0,0.3,0.2,0.5,0.5,0.5h1.9c0.3,0,0.5-0.2,0.5-0.5V8.7c0-0.3-0.2-0.5-0.5-0.5H3.9z M3.9,12.5
								c-0.3,0-0.5,0.2-0.5,0.5v1.9c0,0.3,0.2,0.5,0.5,0.5h1.9c0.3,0,0.5-0.2,0.5-0.5V13c0-0.3-0.2-0.5-0.5-0.5H3.9z M7.7,8.2v1h6.7
								v-1H7.7z M7.7,12.5v1h6.7v-1H7.7z M7.7,10.1v1h4.8v-1H7.7z M7.7,14.5v1h4.8v-1H7.7z M16.9,2c0.5,0,1,0.4,1,1v2.4H0.1V2.9
								c0-0.5,0.4-1,1-1h2.4V1c0-0.5,0.4-1,1-1h1.4c0.5,0,1,0.4,1,1V2h4.3V1c0-0.5,0.4-1,1-1h1.4c0.5,0,1,0.4,1,1V2H16.9z"/>
						</g>
					</g>
					<g id="Annuities-_x26_-renewals-B" transform="translate(0.000000, 195.691489)">
						<circle id="Shape_12_" class="st2" cx="17.3" cy="17.3" r="16.8"/>
						
							<linearGradient id="Shape_71_" gradientUnits="userSpaceOnUse" x1="51.5809" y1="344.1856" x2="52.876" y2="343.5984" gradientTransform="matrix(19.5093 0 0 -20.8839 -1004.8943 7198.1616)">
							<stop  offset="0" style="stop-color:#FFAD38"/>
							<stop  offset="1" style="stop-color:#F36309"/>
						</linearGradient>
						<path id="Shape_13_" class="st8" d="M17.3,21.6v-3.8h3.9c0,1.5-0.3,2.9-0.6,4.1C19.5,21.7,18.4,21.7,17.3,21.6L17.3,21.6z
							 M17.3,12.8c1.1,0,2.2-0.1,3.2-0.3c0.4,1.3,0.7,2.8,0.7,4.4h-3.9V12.8L17.3,12.8z M17.3,27.3L17.3,27.3c1.7-0.3,3.1-1.9,4-4.3
							c1.2,0.2,2.3,0.6,3.2,1C22.7,26,20.1,27.2,17.3,27.3L17.3,27.3z M17.3,26.3v-3.7c1,0,2,0.1,3,0.2
							C19.5,24.8,18.5,26.1,17.3,26.3L17.3,26.3z M17.3,7.4c2.7,0.1,5.2,1.3,6.9,3c-0.8,0.4-1.9,0.7-3.1,1
							C20.2,9.2,18.9,7.7,17.3,7.4L17.3,7.4L17.3,7.4z M17.3,8.4c1.1,0.3,2.2,1.4,2.9,3.2c-0.9,0.1-1.9,0.2-2.9,0.2V8.4L17.3,8.4z
							 M27.1,17.8c-0.1,2-0.8,3.9-2,5.4c-1-0.5-2.2-0.9-3.5-1.2c0.4-1.3,0.6-2.7,0.6-4.3H27.1L27.1,17.8z M27.1,16.9h-4.9
							c0-1.7-0.3-3.2-0.7-4.6c1.3-0.3,2.5-0.7,3.4-1.1C26.2,12.7,27,14.7,27.1,16.9L27.1,16.9z M16,6.8v20.9h-2.2v-1.9
							c-4.2-0.3-6.1-2.5-6.3-5.5h3.6c0.2,1.4,0.7,2.5,2.6,2.8v-4.6c-3.9-0.6-5.8-2-5.8-5.1c0-2.7,2.3-4.7,5.8-5V6.8H16z M11.6,13.1
							c0,1.1,0.4,1.7,2.2,2v-4C12.4,11.3,11.6,12.1,11.6,13.1z"/>
					</g>
					<g id="Group-5" transform="translate(0.345745, 0.000000)">
						<circle id="Shape_14_" class="st2" cx="17.3" cy="17.3" r="16.8"/>
						<g id="Group" transform="translate(8.643617, 8.643617)">
							
								<linearGradient id="Shape_72_" gradientUnits="userSpaceOnUse" x1="35.8782" y1="519.0424" x2="37.3622" y2="518.4551" gradientTransform="matrix(7.8247 0 0 -7.8247 -284.1369 4062.4497)">
								<stop  offset="0" style="stop-color:#FFAD38"/>
								<stop  offset="1" style="stop-color:#F36309"/>
							</linearGradient>
							<polygon id="Shape_15_" class="st9" points="0.1,0.1 7.9,0.1 7.9,7.9 0.1,7.9 							"/>
							<g id="Clipped" transform="translate(1.455767, 0.545913)">
								<g id="Shape_16_">
								</g>
								<defs>
									<filter id="Adobe_OpacityMaskFilter" filterUnits="userSpaceOnUse" x="0.6" y="0.8" width="3.9" height="5.1">
										<feColorMatrix  type="matrix" values="1 0 0 0 0  0 1 0 0 0  0 0 1 0 0  0 0 0 1 0"/>
									</filter>
								</defs>
								<mask maskUnits="userSpaceOnUse" x="0.6" y="0.8" width="3.9" height="5.1" id="mask-13_1_">
									<g class="st10">
										<polygon id="path-12_1_" class="st11" points="0,0 5.1,0 5.1,6.7 0,6.7 										"/>
									</g>
								</mask>
								<g class="st12">
									<g id="Shape_17_">
									</g>
									<defs>
										<filter id="Adobe_OpacityMaskFilter_1_" filterUnits="userSpaceOnUse" x="0.6" y="0.8" width="3.9" height="5.1">
											<feColorMatrix  type="matrix" values="1 0 0 0 0  0 1 0 0 0  0 0 1 0 0  0 0 0 1 0"/>
										</filter>
									</defs>
									<mask maskUnits="userSpaceOnUse" x="0.6" y="0.8" width="3.9" height="5.1" id="mask-15_1_">
										<g class="st13">
											<polygon id="path-14_1_" class="st11" points="0,0 5.1,0 5.1,6.7 0,6.7 											"/>
										</g>
									</mask>
									<g class="st14">
										<g id="Shape_18_">
										</g>
										<defs>
											<filter id="Adobe_OpacityMaskFilter_2_" filterUnits="userSpaceOnUse" x="0.6" y="0.8" width="3.9" height="5.1">
												<feColorMatrix  type="matrix" values="1 0 0 0 0  0 1 0 0 0  0 0 1 0 0  0 0 0 1 0"/>
											</filter>
										</defs>
										<mask maskUnits="userSpaceOnUse" x="0.6" y="0.8" width="3.9" height="5.1" id="mask-17_1_">
											<g class="st15">
												<polygon id="path-16_1_" class="st11" points="0,0 5.1,0 5.1,6.7 0,6.7 												"/>
											</g>
										</mask>
										<g id="Shape_19_" class="st16">
											<g>
												<path id="path-18" d="M3.8,4.6v1.2c0,0.1-0.1,0.1-0.1,0.1c0,0,0,0,0,0L2.6,5.6L1.5,5.9c-0.1,0-0.2,0-0.2-0.1
													c0,0,0,0,0,0V4.6C1.5,4.9,1.8,5.1,2.1,5l0.4-0.1L3,5C3.3,5.1,3.6,4.9,3.8,4.6L3.8,4.6z M2.5,4.5L2.1,4.7
													c-0.2,0.1-0.4,0-0.5-0.2L1.3,4L0.9,3.8C0.7,3.7,0.6,3.5,0.6,3.3l0.2-0.5L0.6,2.3c-0.1-0.2,0-0.4,0.2-0.5l0.5-0.2
													l0.2-0.5c0.1-0.2,0.3-0.3,0.5-0.2L2.5,1L3,0.8c0.2-0.1,0.4,0,0.5,0.2l0.2,0.5l0.5,0.2c0.2,0.1,0.3,0.3,0.2,0.5L4.3,2.8
													l0.2,0.5c0.1,0.2,0,0.4-0.2,0.5L3.8,4L3.5,4.5C3.5,4.7,3.2,4.8,3,4.7L2.5,4.5z M2.5,4.1c0.8,0,1.4-0.6,1.4-1.4
													S3.3,1.4,2.5,1.4S1.2,2,1.2,2.7S1.8,4.1,2.5,4.1z M2.5,3.8c-0.6,0-1.1-0.5-1.1-1.1s0.5-1.1,1.1-1.1s1.1,0.5,1.1,1.1
													S3.2,3.8,2.5,3.8z M2.4,3.4V3h0.2C2.8,3,3,2.8,3,2.6c0-0.2-0.2-0.4-0.4-0.4H2.1v1.2H2.4z M2.6,2.8H2.4V2.4h0.2
													c0.1,0,0.2,0.1,0.2,0.2v0C2.8,2.7,2.7,2.8,2.6,2.8z"/>
											</g>
											<g>
												<path id="path-18_1_" class="st17" d="M3.8,4.6v1.2c0,0.1-0.1,0.1-0.1,0.1c0,0,0,0,0,0L2.6,5.6L1.5,5.9
													c-0.1,0-0.2,0-0.2-0.1c0,0,0,0,0,0V4.6C1.5,4.9,1.8,5.1,2.1,5l0.4-0.1L3,5C3.3,5.1,3.6,4.9,3.8,4.6L3.8,4.6z M2.5,4.5
													L2.1,4.7c-0.2,0.1-0.4,0-0.5-0.2L1.3,4L0.9,3.8C0.7,3.7,0.6,3.5,0.6,3.3l0.2-0.5L0.6,2.3c-0.1-0.2,0-0.4,0.2-0.5
													l0.5-0.2l0.2-0.5c0.1-0.2,0.3-0.3,0.5-0.2L2.5,1L3,0.8c0.2-0.1,0.4,0,0.5,0.2l0.2,0.5l0.5,0.2c0.2,0.1,0.3,0.3,0.2,0.5
													L4.3,2.8l0.2,0.5c0.1,0.2,0,0.4-0.2,0.5L3.8,4L3.5,4.5C3.5,4.7,3.2,4.8,3,4.7L2.5,4.5z M2.5,4.1c0.8,0,1.4-0.6,1.4-1.4
													S3.3,1.4,2.5,1.4S1.2,2,1.2,2.7S1.8,4.1,2.5,4.1z M2.5,3.8c-0.6,0-1.1-0.5-1.1-1.1s0.5-1.1,1.1-1.1s1.1,0.5,1.1,1.1
													S3.2,3.8,2.5,3.8z M2.4,3.4V3h0.2C2.8,3,3,2.8,3,2.6c0-0.2-0.2-0.4-0.4-0.4H2.1v1.2H2.4z M2.6,2.8H2.4V2.4h0.2
													c0.1,0,0.2,0.1,0.2,0.2v0C2.8,2.7,2.7,2.8,2.6,2.8z"/>
											</g>
										</g>
									</g>
								</g>
							</g>
							
								<linearGradient id="Shape_73_" gradientUnits="userSpaceOnUse" x1="36.1205" y1="519.0284" x2="37.6045" y2="518.4675" gradientTransform="matrix(8.0067 0 0 -7.8247 -283.6483 4062.4497)">
								<stop  offset="0" style="stop-color:#FFAD38"/>
								<stop  offset="1" style="stop-color:#F36309"/>
							</linearGradient>
							<polygon id="Shape_20_" class="st18" points="9.2,0.1 17.2,0.1 17.2,7.9 9.2,7.9 							"/>
							<path id="Shape_21_" class="st11" d="M11.7,5.6V2.8h1.1V2.4h-2.6v0.4h1.1v2.8H11.7z M13.6,5.6V3.7c0-0.1,0-0.2,0-0.4
								c0-0.2,0-0.3,0-0.4V2.9l0.9,2.7h0.4l0.9-2.7c0,0.2,0,0.3,0,0.5c0,0.2,0,0.3,0,0.3v1.9h0.4V2.4h-0.6l-0.9,2.7l-0.9-2.7h-0.6
								v3.2H13.6z"/>
							
								<linearGradient id="Shape_74_" gradientUnits="userSpaceOnUse" x1="35.8782" y1="519.0424" x2="37.3622" y2="518.4551" gradientTransform="matrix(7.8247 0 0 -7.8247 -284.1369 4071.5488)">
								<stop  offset="0" style="stop-color:#FFAD38"/>
								<stop  offset="1" style="stop-color:#F36309"/>
							</linearGradient>
							<polygon id="Shape_22_" class="st19" points="0.1,9.2 7.9,9.2 7.9,17 0.1,17 							"/>
							
								<linearGradient id="Shape_75_" gradientUnits="userSpaceOnUse" x1="35.8782" y1="519.0424" x2="37.3622" y2="518.4551" gradientTransform="matrix(7.8247 0 0 -7.8247 -274.8564 4071.5488)">
								<stop  offset="0" style="stop-color:#FFAD38"/>
								<stop  offset="1" style="stop-color:#F36309"/>
							</linearGradient>
							<polygon id="Shape_23_" class="st20" points="9.4,9.2 17.2,9.2 17.2,17 9.4,17 							"/>
							<g id="Shape_24_">
								<g>
									<path id="path-20" d="M4,15.2c0.6,0,1.1-0.3,1.4-0.8C5.7,14,5.8,13.6,5.8,13c0-0.2,0-0.5-0.1-0.7c-0.1-0.2-0.2-0.5-0.3-0.7
										c-0.2-0.3-0.4-0.4-0.7-0.5C4.5,11,4.3,11,4,11l0,0H2.2v4.2H4z M3.9,14.5H3.1v-2.7h0.8c0.4,0,0.7,0.1,0.8,0.3
										c0.1,0.2,0.2,0.6,0.2,1c0,0.3,0,0.6-0.1,0.8C4.6,14.3,4.3,14.5,3.9,14.5L3.9,14.5z"/>
								</g>
								<g>
									<path id="path-20_1_" class="st17" d="M4,15.2c0.6,0,1.1-0.3,1.4-0.8C5.7,14,5.8,13.6,5.8,13c0-0.2,0-0.5-0.1-0.7
										c-0.1-0.2-0.2-0.5-0.3-0.7c-0.2-0.3-0.4-0.4-0.7-0.5C4.5,11,4.3,11,4,11l0,0H2.2v4.2H4z M3.9,14.5H3.1v-2.7h0.8
										c0.4,0,0.7,0.1,0.8,0.3c0.1,0.2,0.2,0.6,0.2,1c0,0.3,0,0.6-0.1,0.8C4.6,14.3,4.3,14.5,3.9,14.5L3.9,14.5z"/>
								</g>
							</g>
							<path id="Shape_25_" class="st11" d="M13.3,10.5c1.5,0,2.6,1.2,2.6,2.6s-1.2,2.6-2.6,2.6s-2.6-1.2-2.6-2.6
								S11.8,10.5,13.3,10.5z M13.3,10.9c-1.2,0-2.2,1-2.2,2.2s1,2.2,2.2,2.2s2.2-1,2.2-2.2S14.5,10.9,13.3,10.9z M13.4,12
								c0.3,0,0.5,0.1,0.6,0.2c0.1,0.1,0.1,0.2,0.2,0.3l0,0.1l-0.4,0.1l0-0.1c0-0.1-0.1-0.1-0.1-0.2c-0.1-0.1-0.2-0.1-0.3-0.1
								c-0.2,0-0.3,0.1-0.4,0.2s-0.1,0.3-0.1,0.5c0,0.3,0,0.5,0.1,0.6c0.1,0.1,0.2,0.2,0.4,0.2c0.1,0,0.2,0,0.3-0.1
								c0.1-0.1,0.1-0.1,0.1-0.2l0-0.1l0.4,0.1l0,0.1c-0.1,0.2-0.2,0.3-0.3,0.4c-0.1,0.1-0.3,0.2-0.6,0.2c-0.3,0-0.5-0.1-0.7-0.3
								s-0.3-0.4-0.3-0.8c0-0.3,0.1-0.6,0.3-0.8S13.1,12,13.4,12z"/>
						</g>
					</g>
				</g>
			</g>
			<path id="Rectangle" class="st11" d="M62.1,0.9h647c8.3,0,15,6.7,15,15v297c0,8.3-6.7,15-15,15h-647c-8.3,0-15-6.7-15-15v-297
				C47.1,7.6,53.8,0.9,62.1,0.9z"/>
			<path id="Rectangle_1_" class="st21" d="M61.7,0.9h647c8.3,0,15,6.7,15,15v37l0,0h-677v-37C46.7,7.6,53.4,0.9,61.7,0.9z"/>
			<g class="st22">
				<path class="st11" d="M68,21h4.8c1.1,0,1.9,0.1,2.5,0.2c0.8,0.2,1.4,0.6,1.9,1.2s0.9,1.3,1.2,2.1c0.3,0.8,0.4,1.8,0.4,3
					c0,1.1-0.1,2-0.4,2.7c-0.3,0.9-0.8,1.7-1.4,2.3c-0.5,0.4-1.1,0.8-1.8,1c-0.6,0.2-1.3,0.3-2.3,0.3H68V21z M70.6,23.2v8.5h1.9
					c0.7,0,1.3,0,1.6-0.1c0.4-0.1,0.8-0.3,1.1-0.5s0.5-0.7,0.7-1.2c0.2-0.6,0.3-1.4,0.3-2.4s-0.1-1.8-0.3-2.3s-0.4-0.9-0.7-1.2
					s-0.7-0.5-1.2-0.6c-0.4-0.1-1.1-0.1-2.1-0.1H70.6z"/>
				<path class="st11" d="M80.9,29.1c0-0.8,0.2-1.6,0.6-2.4s1-1.4,1.7-1.8s1.6-0.6,2.5-0.6c1.4,0,2.6,0.5,3.5,1.4
					c0.9,0.9,1.4,2.1,1.4,3.5c0,1.4-0.5,2.6-1.4,3.5s-2.1,1.4-3.4,1.4c-0.9,0-1.7-0.2-2.4-0.6s-1.4-1-1.8-1.7
					C81.1,31.1,80.9,30.2,80.9,29.1z M83.5,29.2c0,0.9,0.2,1.6,0.7,2.1s1,0.7,1.6,0.7s1.2-0.2,1.6-0.7s0.7-1.2,0.7-2.1
					c0-0.9-0.2-1.6-0.7-2.1s-1-0.7-1.6-0.7s-1.2,0.2-1.6,0.7S83.5,28.3,83.5,29.2z"/>
				<path class="st11" d="M101.1,27.3l-2.4,0.4c-0.1-0.5-0.3-0.9-0.6-1.1s-0.7-0.4-1.1-0.4c-0.6,0-1.1,0.2-1.5,0.6S95,28.1,95,29.1
					c0,1.1,0.2,1.9,0.6,2.3s0.9,0.7,1.5,0.7c0.5,0,0.9-0.1,1.2-0.4s0.5-0.7,0.6-1.4l2.4,0.4c-0.3,1.1-0.7,2-1.5,2.5
					s-1.7,0.9-2.9,0.9c-1.4,0-2.5-0.4-3.3-1.3s-1.2-2.1-1.2-3.6c0-1.5,0.4-2.7,1.2-3.6c0.8-0.9,1.9-1.3,3.3-1.3c1.1,0,2,0.2,2.7,0.7
					S100.8,26.3,101.1,27.3z"/>
				<path class="st11" d="M103.4,33.9V21h2.5v6.8l2.9-3.3h3l-3.2,3.4l3.4,5.9h-2.7l-2.3-4.2l-1.2,1.2v3H103.4z"/>
				<path class="st11" d="M119.4,30.9l2.5,0.4c-0.3,0.9-0.8,1.6-1.5,2.1s-1.5,0.7-2.6,0.7c-1.6,0-2.8-0.5-3.6-1.6
					c-0.6-0.8-0.9-1.9-0.9-3.2c0-1.5,0.4-2.8,1.2-3.6s1.8-1.3,3.1-1.3c1.4,0,2.5,0.5,3.3,1.4c0.8,0.9,1.2,2.3,1.2,4.2h-6.2
					c0,0.7,0.2,1.3,0.6,1.7c0.4,0.4,0.9,0.6,1.4,0.6c0.4,0,0.7-0.1,1-0.3S119.2,31.4,119.4,30.9z M119.5,28.4c0-0.7-0.2-1.3-0.6-1.6
					c-0.4-0.4-0.8-0.6-1.3-0.6c-0.5,0-1,0.2-1.3,0.6s-0.5,0.9-0.5,1.6H119.5z"/>
				<path class="st11" d="M128.7,24.6v2h-1.7v3.8c0,0.8,0,1.2,0,1.3s0.1,0.2,0.2,0.3s0.3,0.1,0.4,0.1c0.2,0,0.6-0.1,1-0.2l0.2,1.9
					c-0.6,0.2-1.2,0.4-2,0.4c-0.4,0-0.8-0.1-1.2-0.2c-0.4-0.1-0.6-0.3-0.8-0.6c-0.2-0.2-0.3-0.6-0.3-1c-0.1-0.3-0.1-0.9-0.1-1.7
					v-4.1h-1.1v-2h1.1v-1.9l2.5-1.4v3.3H128.7z"/>
				<path class="st11" d="M139.4,33.9V23.2h-3.8V21h10.2v2.2H142v10.7H139.4z"/>
				<path class="st11" d="M148.4,27.4l-2.2-0.4c0.3-0.9,0.7-1.6,1.3-2s1.5-0.7,2.7-0.7c1.1,0,1.9,0.1,2.5,0.4c0.5,0.3,0.9,0.6,1.1,1
					s0.3,1.1,0.3,2.2l0,2.9c0,0.8,0,1.4,0.1,1.8s0.2,0.8,0.4,1.3h-2.4c-0.1-0.2-0.1-0.4-0.2-0.7c0-0.1-0.1-0.2-0.1-0.3
					c-0.4,0.4-0.9,0.7-1.4,0.9s-1,0.3-1.5,0.3c-1,0-1.7-0.3-2.3-0.8s-0.8-1.2-0.8-2c0-0.5,0.1-1,0.4-1.4c0.3-0.4,0.6-0.7,1.1-0.9
					c0.5-0.2,1.1-0.4,2-0.6c1.2-0.2,2-0.4,2.4-0.6v-0.2c0-0.5-0.1-0.8-0.4-1c-0.2-0.2-0.7-0.3-1.3-0.3c-0.4,0-0.8,0.1-1,0.3
					C148.8,26.7,148.6,27,148.4,27.4z M151.7,29.4c-0.3,0.1-0.8,0.2-1.5,0.4s-1.1,0.3-1.3,0.4c-0.3,0.2-0.5,0.5-0.5,0.9
					c0,0.3,0.1,0.6,0.4,0.9s0.6,0.4,1,0.4c0.4,0,0.9-0.1,1.3-0.4c0.3-0.2,0.5-0.5,0.6-0.8c0.1-0.2,0.1-0.6,0.1-1.2V29.4z"/>
				<path class="st11" d="M156.2,31.2l2.5-0.4c0.1,0.5,0.3,0.8,0.6,1.1c0.3,0.3,0.8,0.4,1.4,0.4c0.6,0,1.1-0.1,1.4-0.4
					c0.2-0.2,0.3-0.4,0.3-0.7c0-0.2-0.1-0.3-0.2-0.5c-0.1-0.1-0.4-0.2-0.8-0.3c-2-0.4-3.3-0.8-3.8-1.2c-0.7-0.5-1.1-1.2-1.1-2.1
					c0-0.8,0.3-1.5,1-2s1.6-0.8,3-0.8c1.3,0,2.2,0.2,2.8,0.6s1,1,1.3,1.8l-2.3,0.4c-0.1-0.4-0.3-0.6-0.6-0.8s-0.7-0.3-1.2-0.3
					c-0.7,0-1.1,0.1-1.4,0.3c-0.2,0.1-0.3,0.3-0.3,0.5c0,0.2,0.1,0.3,0.2,0.4c0.2,0.2,1,0.4,2.3,0.7s2.2,0.7,2.8,1.1
					c0.5,0.4,0.8,1.1,0.8,1.8c0,0.9-0.4,1.6-1.1,2.2s-1.8,0.9-3.2,0.9c-1.3,0-2.3-0.3-3-0.8S156.4,32.1,156.2,31.2z"/>
				<path class="st11" d="M167.5,33.9V21h2.5v6.8l2.9-3.3h3l-3.2,3.4l3.4,5.9h-2.7l-2.3-4.2l-1.2,1.2v3H167.5z"/>
				<path class="st11" d="M186.5,33.9V23.2h-3.8V21h10.2v2.2h-3.8v10.7H186.5z"/>
				<path class="st11" d="M194.7,23.3V21h2.5v2.3H194.7z M194.7,33.9v-9.3h2.5v9.3H194.7z"/>
				<path class="st11" d="M200,24.6h2.3v1.3c0.8-1,1.8-1.5,2.9-1.5c0.6,0,1.1,0.1,1.6,0.4s0.8,0.6,1.1,1.1c0.4-0.5,0.9-0.9,1.3-1.1
					s1-0.4,1.5-0.4c0.7,0,1.3,0.1,1.7,0.4s0.8,0.7,1.1,1.2c0.2,0.4,0.3,1,0.3,1.9v6h-2.5v-5.3c0-0.9-0.1-1.5-0.3-1.8
					c-0.2-0.4-0.6-0.5-1.1-0.5c-0.3,0-0.7,0.1-1,0.3s-0.5,0.5-0.7,0.9c-0.1,0.4-0.2,1.1-0.2,1.9v4.5h-2.5v-5.1c0-0.9,0-1.5-0.1-1.8
					s-0.2-0.5-0.4-0.6s-0.4-0.2-0.8-0.2c-0.4,0-0.7,0.1-1,0.3s-0.5,0.5-0.7,0.9s-0.2,1-0.2,1.9v4.5H200V24.6z"/>
				<path class="st11" d="M222.1,30.9l2.5,0.4c-0.3,0.9-0.8,1.6-1.5,2.1s-1.5,0.7-2.6,0.7c-1.6,0-2.8-0.5-3.6-1.6
					c-0.6-0.8-0.9-1.9-0.9-3.2c0-1.5,0.4-2.8,1.2-3.6s1.8-1.3,3.1-1.3c1.4,0,2.5,0.5,3.3,1.4c0.8,0.9,1.2,2.3,1.2,4.2h-6.2
					c0,0.7,0.2,1.3,0.6,1.7c0.4,0.4,0.9,0.6,1.4,0.6c0.4,0,0.7-0.1,1-0.3S222,31.4,222.1,30.9z M222.2,28.4c0-0.7-0.2-1.3-0.6-1.6
					c-0.4-0.4-0.8-0.6-1.3-0.6c-0.5,0-1,0.2-1.3,0.6s-0.5,0.9-0.5,1.6H222.2z"/>
				<path class="st11" d="M227.2,33.9V21h2.5v12.9H227.2z"/>
				<path class="st11" d="M232.7,23.3V21h2.5v2.3H232.7z M232.7,33.9v-9.3h2.5v9.3H232.7z"/>
				<path class="st11" d="M246.7,33.9h-2.5v-4.8c0-1-0.1-1.7-0.2-2s-0.3-0.5-0.5-0.7s-0.5-0.2-0.9-0.2c-0.4,0-0.8,0.1-1.2,0.4
					s-0.6,0.5-0.7,0.9s-0.2,1.1-0.2,2.1v4.2h-2.5v-9.3h2.3v1.4c0.8-1.1,1.8-1.6,3.1-1.6c0.5,0,1,0.1,1.5,0.3s0.8,0.4,1,0.8
					s0.4,0.7,0.5,1s0.1,0.9,0.1,1.7V33.9z"/>
				<path class="st11" d="M255,30.9l2.5,0.4c-0.3,0.9-0.8,1.6-1.5,2.1s-1.5,0.7-2.6,0.7c-1.6,0-2.8-0.5-3.6-1.6
					c-0.6-0.8-0.9-1.9-0.9-3.2c0-1.5,0.4-2.8,1.2-3.6s1.8-1.3,3.1-1.3c1.4,0,2.5,0.5,3.3,1.4c0.8,0.9,1.2,2.3,1.2,4.2h-6.2
					c0,0.7,0.2,1.3,0.6,1.7c0.4,0.4,0.9,0.6,1.4,0.6c0.4,0,0.7-0.1,1-0.3S254.9,31.4,255,30.9z M255.2,28.4c0-0.7-0.2-1.3-0.6-1.6
					c-0.4-0.4-0.8-0.6-1.3-0.6c-0.5,0-1,0.2-1.3,0.6s-0.5,0.9-0.5,1.6H255.2z"/>
			</g>
			<g id="Group-35" transform="translate(67.000000, 83.000000)">
				<polygon id="Shape_26_" class="st23" points="470,23 633.8,23 633.8,0 470,0 				"/>
				<polygon id="Shape_27_" class="st24" points="111,98.2 273.5,98.2 273.5,75 111,75 				"/>
				<polygon id="Shape_28_" class="st25" points="283.8,98.2 446.3,98.2 446.3,75 283.8,75 				"/>
				<polygon id="Shape_29_" class="st21" points="90,173.2 183.8,173.2 183.8,150 90,150 				"/>
				<polygon id="Shape_30_" class="st21" points="21,211.2 183.5,211.2 183.5,188 21,188 				"/>
				<polygon id="Shape_31_" class="st23" points="351,61 513.5,61 513.5,38 351,38 				"/>
				<polygon id="Shape_32_" class="st21" points="0,136.2 252.5,136.2 252.5,113 0,113 				"/>
				<g class="st22">
					<path class="st11" d="M179.3,88.4l2.5,0.8c-0.4,1.4-1,2.4-1.9,3c-0.9,0.7-2,1-3.3,1c-1.7,0-3-0.6-4.1-1.7
						c-1.1-1.1-1.6-2.7-1.6-4.7c0-2.1,0.5-3.7,1.6-4.9c1.1-1.2,2.5-1.7,4.2-1.7c1.5,0,2.8,0.5,3.7,1.4c0.6,0.5,1,1.3,1.3,2.3
						l-2.5,0.6c-0.1-0.7-0.5-1.2-0.9-1.5c-0.5-0.4-1-0.6-1.7-0.6c-0.9,0-1.7,0.3-2.3,1c-0.6,0.7-0.9,1.7-0.9,3.2
						c0,1.6,0.3,2.7,0.9,3.4c0.6,0.7,1.3,1,2.2,1c0.7,0,1.3-0.2,1.7-0.6C178.7,90,179.1,89.3,179.3,88.4z"/>
					<path class="st11" d="M187.2,93V82.6h-3.7v-2.1h10v2.1h-3.7V93H187.2z"/>
					<path class="st11" d="M195.6,93V80.5h8.6v2.1h-6.1v3h5.2v2.1h-5.2V93H195.6z"/>
					<path class="st11" d="M206.7,93V80.5h5.3c1.3,0,2.3,0.1,2.9,0.3c0.6,0.2,1.1,0.6,1.5,1.2c0.4,0.6,0.5,1.2,0.5,2
						c0,0.9-0.3,1.7-0.8,2.3c-0.6,0.6-1.4,1-2.5,1.2c0.5,0.3,1,0.7,1.4,1.1c0.4,0.4,0.8,1.1,1.4,2L218,93h-3l-1.8-2.7
						c-0.6-1-1.1-1.6-1.3-1.8c-0.2-0.3-0.5-0.4-0.8-0.5c-0.3-0.1-0.7-0.1-1.3-0.1h-0.5V93H206.7z M209.2,85.8h1.9
						c1.2,0,2-0.1,2.3-0.2c0.3-0.1,0.5-0.3,0.7-0.5c0.2-0.3,0.3-0.6,0.3-0.9c0-0.4-0.1-0.8-0.3-1c-0.2-0.3-0.5-0.4-1-0.5
						c-0.2,0-0.8,0-1.8,0h-2V85.8z"/>
				</g>
				<g class="st22">
					<path class="st11" d="M88.3,201.4l2.5,0.8c-0.4,1.4-1,2.4-1.9,3c-0.9,0.7-2,1-3.3,1c-1.7,0-3-0.6-4.1-1.7
						c-1.1-1.1-1.6-2.7-1.6-4.7c0-2.1,0.5-3.7,1.6-4.9c1.1-1.2,2.5-1.7,4.2-1.7c1.5,0,2.8,0.5,3.7,1.4c0.6,0.5,1,1.3,1.3,2.3
						l-2.5,0.6c-0.1-0.7-0.5-1.2-0.9-1.5c-0.5-0.4-1-0.6-1.7-0.6c-0.9,0-1.7,0.3-2.3,1c-0.6,0.7-0.9,1.7-0.9,3.2
						c0,1.6,0.3,2.7,0.9,3.4c0.6,0.7,1.3,1,2.2,1c0.7,0,1.3-0.2,1.7-0.6C87.7,203,88.1,202.3,88.3,201.4z"/>
					<path class="st11" d="M93.4,206v-12.5h2.5l5.1,8.4v-8.4h2.3V206h-2.5l-5.1-8.2v8.2H93.4z"/>
					<path class="st11" d="M109.3,206v-10.4h-3.7v-2.1h10v2.1h-3.7V206H109.3z"/>
					<path class="st11" d="M117.7,206v-12.5h8.6v2.1h-6.1v3h5.2v2.1h-5.2v5.3H117.7z"/>
				</g>
				<g class="st22">
					<path class="st11" d="M77.3,131v-12.5h4.1c1.5,0,2.5,0.1,3,0.2c0.7,0.2,1.3,0.6,1.8,1.2c0.5,0.6,0.7,1.4,0.7,2.4
						c0,0.8-0.1,1.4-0.4,1.9c-0.3,0.5-0.6,0.9-1.1,1.2c-0.4,0.3-0.9,0.5-1.3,0.6c-0.6,0.1-1.5,0.2-2.6,0.2h-1.6v4.7H77.3z
						 M79.8,120.6v3.6h1.4c1,0,1.7-0.1,2-0.2c0.3-0.1,0.6-0.3,0.8-0.6c0.2-0.3,0.3-0.6,0.3-1c0-0.5-0.1-0.8-0.4-1.1
						c-0.3-0.3-0.6-0.5-1-0.6c-0.3-0.1-0.9-0.1-1.8-0.1H79.8z"/>
					<path class="st11" d="M89.4,131v-12.5h9.3v2.1h-6.8v2.8h6.3v2.1h-6.3v3.4h7v2.1H89.4z"/>
					<path class="st11" d="M104.4,131v-10.4h-3.7v-2.1h10v2.1h-3.7V131H104.4z"/>
					<path class="st11" d="M110.8,131v-2.4h2.4v2.4H110.8z"/>
					<path class="st11" d="M116.1,118.5h4.6c1,0,1.8,0.1,2.4,0.2c0.7,0.2,1.4,0.6,1.9,1.2c0.5,0.6,0.9,1.2,1.2,2s0.4,1.8,0.4,3
						c0,1-0.1,1.9-0.4,2.7c-0.3,0.9-0.8,1.7-1.3,2.2c-0.4,0.4-1,0.8-1.8,1c-0.6,0.2-1.3,0.3-2.2,0.3h-4.8V118.5z M118.6,120.6v8.3
						h1.9c0.7,0,1.2,0,1.5-0.1c0.4-0.1,0.8-0.3,1-0.5s0.5-0.6,0.7-1.2s0.3-1.3,0.3-2.3s-0.1-1.7-0.3-2.2c-0.2-0.5-0.4-0.9-0.7-1.2
						s-0.7-0.5-1.2-0.6c-0.4-0.1-1-0.1-2.1-0.1H118.6z"/>
					<path class="st11" d="M129.2,131v-12.5h9.3v2.1h-6.8v2.8h6.3v2.1h-6.3v3.4h7v2.1H129.2z"/>
					<path class="st11" d="M149.4,126.4l2.5,0.8c-0.4,1.4-1,2.4-1.9,3c-0.9,0.7-2,1-3.3,1c-1.7,0-3-0.6-4.1-1.7
						c-1.1-1.1-1.6-2.7-1.6-4.7c0-2.1,0.5-3.7,1.6-4.9c1.1-1.2,2.5-1.7,4.2-1.7c1.5,0,2.8,0.5,3.7,1.4c0.6,0.5,1,1.3,1.3,2.3
						l-2.5,0.6c-0.1-0.7-0.5-1.2-0.9-1.5c-0.5-0.4-1-0.6-1.7-0.6c-0.9,0-1.7,0.3-2.3,1c-0.6,0.7-0.9,1.7-0.9,3.2
						c0,1.6,0.3,2.7,0.9,3.4c0.6,0.7,1.3,1,2.2,1c0.7,0,1.3-0.2,1.7-0.6C148.8,128,149.2,127.3,149.4,126.4z"/>
					<path class="st11" d="M154.5,131v-2.4h2.4v2.4H154.5z"/>
					<path class="st11" d="M162.6,131v-10.4h-3.7v-2.1h10v2.1h-3.7V131H162.6z"/>
					<path class="st11" d="M179,126.4l2.5,0.8c-0.4,1.4-1,2.4-1.9,3c-0.9,0.7-2,1-3.3,1c-1.7,0-3-0.6-4.1-1.7
						c-1.1-1.1-1.6-2.7-1.6-4.7c0-2.1,0.5-3.7,1.6-4.9c1.1-1.2,2.5-1.7,4.2-1.7c1.5,0,2.8,0.5,3.7,1.4c0.6,0.5,1,1.3,1.3,2.3
						l-2.5,0.6c-0.1-0.7-0.5-1.2-0.9-1.5c-0.5-0.4-1-0.6-1.7-0.6c-0.9,0-1.7,0.3-2.3,1c-0.6,0.7-0.9,1.7-0.9,3.2
						c0,1.6,0.3,2.7,0.9,3.4c0.6,0.7,1.3,1,2.2,1c0.7,0,1.3-0.2,1.7-0.6C178.4,128,178.8,127.3,179,126.4z"/>
				</g>
				<g class="st22">
					<path class="st11" d="M136.6,168h-2.8l-1.1-2.8h-5l-1,2.8H124l4.9-12.5h2.7L136.6,168z M131.9,163l-1.7-4.6l-1.7,4.6H131.9z"/>
					<path class="st11" d="M138.8,168v-2.4h2.4v2.4H138.8z M144.7,168v-2.4h2.4v2.4H144.7z M150.5,168v-2.4h2.4v2.4H150.5z"/>
				</g>
				<g class="st22">
					<path class="st11" d="M349.3,93V80.5h5.3c1.3,0,2.3,0.1,2.9,0.3s1.1,0.6,1.5,1.2c0.4,0.6,0.5,1.2,0.5,2c0,0.9-0.3,1.7-0.8,2.3
						c-0.6,0.6-1.4,1-2.5,1.2c0.5,0.3,1,0.7,1.4,1.1c0.4,0.4,0.8,1.1,1.4,2l1.5,2.4h-3l-1.8-2.7c-0.6-1-1.1-1.6-1.3-1.8
						c-0.2-0.3-0.5-0.4-0.8-0.5c-0.3-0.1-0.7-0.1-1.3-0.1h-0.5V93H349.3z M351.8,85.8h1.9c1.2,0,2-0.1,2.3-0.2
						c0.3-0.1,0.5-0.3,0.7-0.5c0.2-0.3,0.3-0.6,0.3-0.9c0-0.4-0.1-0.8-0.3-1c-0.2-0.3-0.5-0.4-1-0.5c-0.2,0-0.8,0-1.8,0h-2V85.8z"/>
					<path class="st11" d="M362.4,93V80.5h9.3v2.1h-6.8v2.8h6.3v2.1h-6.3v3.4h7V93H362.4z"/>
					<path class="st11" d="M373.3,93l4.3-6.5l-3.9-6h3l2.5,4l2.5-4h2.9l-3.9,6.1l4.3,6.4h-3.1l-2.8-4.3l-2.8,4.3H373.3z"/>
				</g>
				<g class="st22">
					<path class="st11" d="M415.3,56V43.5h2.5l5.1,8.4v-8.4h2.3V56h-2.5l-5.1-8.2V56H415.3z"/>
					<path class="st11" d="M427.9,49.8c0-1.3,0.2-2.3,0.6-3.2c0.3-0.6,0.7-1.2,1.2-1.7c0.5-0.5,1-0.9,1.6-1.1
						c0.8-0.3,1.7-0.5,2.7-0.5c1.8,0,3.3,0.6,4.4,1.7c1.1,1.1,1.7,2.7,1.7,4.8c0,2-0.5,3.6-1.6,4.7c-1.1,1.1-2.6,1.7-4.4,1.7
						c-1.9,0-3.3-0.6-4.4-1.7C428.4,53.4,427.9,51.8,427.9,49.8z M430.5,49.7c0,1.4,0.3,2.5,1,3.2c0.7,0.7,1.5,1.1,2.5,1.1
						c1,0,1.8-0.4,2.5-1.1c0.6-0.7,1-1.8,1-3.3c0-1.4-0.3-2.5-0.9-3.2c-0.6-0.7-1.5-1.1-2.5-1.1c-1,0-1.9,0.4-2.5,1.1
						C430.8,47.2,430.5,48.3,430.5,49.7z"/>
					<path class="st11" d="M453.8,56H451l-1.1-2.8h-5l-1,2.8h-2.7l4.9-12.5h2.7L453.8,56z M449.1,51l-1.7-4.6l-1.7,4.6H449.1z"/>
				</g>
				<g class="st22">
					<path class="st11" d="M534.2,18V5.5h2.5V18H534.2z"/>
					<path class="st11" d="M539.5,18V5.5h2.5V18H539.5z"/>
					<path class="st11" d="M545,18V5.5h8.6v2.1h-6.1v3h5.2v2.1h-5.2V18H545z"/>
					<path class="st11" d="M557.9,18l-3-12.5h2.6l1.9,8.6l2.3-8.6h3l2.2,8.8l1.9-8.8h2.5l-3,12.5h-2.7l-2.5-9.4l-2.5,9.4H557.9z"/>
				</g>
			</g>
		</g>
		<path id="Shape_33_" class="st26" d="M19.8,0h742.1c10.9,0,19.8,8.9,19.8,19.8v40.8H0V19.8C0,8.9,8.8,0,19.8,0z"/>
		<g id="Group-13" transform="translate(569.381108, 15.304441)">
			<g id="Group-12" transform="translate(50.833333, 0.000000)">
				<polygon id="Shape_34_" class="st27" points="0,0 29.8,0 29.8,29.8 0,29.8 				"/>
				<g id="top-nav---check" transform="translate(4.396719, 7.531048)">
					<polygon id="Shape_35_" points="19.1,0.2 7.6,11 2.1,5.4 0.2,7.2 7.5,14.7 9.4,12.9 20.9,2.1 					"/>
				</g>
			</g>
			<g id="Group-11" transform="translate(101.666667, 0.000000)">
				<polygon id="Shape_36_" class="st27" points="0,0 29.8,0 29.8,29.8 0,29.8 				"/>
				<g id="top-van---filter" transform="translate(7.307167, 7.307167)">
					<polygon id="Shape_37_" points="15.2,0 0,0 6.7,6.7 6.7,13.4 6.7,15.2 8.5,13.4 8.5,6.7 					"/>
				</g>
			</g>
			<g id="Group-9" transform="translate(152.500000, 0.000000)">
				<polygon id="Shape_38_" class="st27" points="0,0 29.8,0 29.8,29.8 0,29.8 				"/>
				<g id="top-nav---light-bulb" transform="translate(9.098212, 5.516122)">
					<path id="Shape_39_" d="M3.6,13h4.5c0.4,0,0.7,0.3,0.7,0.7s-0.3,0.7-0.7,0.7H3.6c-0.4,0-0.7-0.3-0.7-0.7S3.2,13,3.6,13z"/>
					<path id="Shape_40_" d="M3.6,15.2h4.5c0.4,0,0.7,0.3,0.7,0.7s-0.3,0.7-0.7,0.7H3.6c-0.4,0-0.7-0.3-0.7-0.7S3.2,15.2,3.6,15.2z"
						/>
					<path id="Shape_41_" d="M4.4,17.5c0.1,0.8,0.7,1.3,1.5,1.3s1.4-0.6,1.5-1.3H4.4z"/>
					<path id="Shape_42_" d="M5.8,0L5.8,0L5.8,0C2.6,0,0.1,2.6,0,5.8V6c0,0.7,0.2,1.4,0.4,2c0.2,0.6,0.6,1.2,1,1.7
						c0.5,0.6,1.1,1.7,1.4,2.2C2.8,12,3,12.1,3.2,12.1h5.3c0.2,0,0.3-0.1,0.4-0.2c0.2-0.5,0.8-1.6,1.4-2.2c0.4-0.5,0.8-1.1,1-1.7
						c0.2-0.6,0.4-1.3,0.4-2V5.8C11.6,2.6,9,0,5.8,0z M10.3,5.9c0,0.5-0.1,1.1-0.3,1.6C9.8,7.9,9.6,8.4,9.2,8.7
						c-0.5,0.6-1,1.3-1.3,2H5.8H3.7c-0.4-0.7-0.8-1.4-1.3-2C2.1,8.4,1.9,7.9,1.7,7.5C1.5,7,1.4,6.5,1.4,5.9V5.8c0-2.4,2-4.4,4.5-4.4
						l0,0l0,0l0,0l0,0l0,0l0,0c2.4,0,4.4,2,4.5,4.4L10.3,5.9L10.3,5.9z"/>
				</g>
			</g>
			<g id="Group-10">
				<polygon id="Shape_43_" class="st27" points="0,0 29.8,0 29.8,29.8 0,29.8 				"/>
				<g id="top-nav---search" transform="translate(5.963883, 5.963883)">
					<path id="Shape_44_" d="M17.4,15.1l-2.8-2.8c-0.4-0.4-0.9-0.5-1.4-0.4l-1-1c0.9-1.1,1.4-2.6,1.4-4.1c0-3.7-3-6.7-6.7-6.7
						s-6.7,3-6.7,6.7s3,6.7,6.7,6.7c1.5,0,2.9-0.5,4.1-1.4l1,1c-0.1,0.5,0,1,0.4,1.4l2.8,2.8c0.3,0.3,0.7,0.5,1.1,0.5
						c0.4,0,0.8-0.2,1.1-0.5C18,16.7,18,15.7,17.4,15.1z M6.8,12.2c-3,0-5.4-2.4-5.4-5.4s2.4-5.4,5.4-5.4s5.4,2.4,5.4,5.4
						S9.8,12.2,6.8,12.2z"/>
				</g>
			</g>
		</g>
		<path id="Shape_45_" class="st28" d="M35.7,39c1,0,1.9,0.8,1.9,1.9c0,1-0.8,1.9-1.9,1.9c-1,0-1.9-0.8-1.9-1.9
			C33.8,39.9,34.7,39,35.7,39z M46.3,39c1,0,1.9,0.8,1.9,1.9c0,1-0.8,1.9-1.9,1.9c-1,0-1.9-0.8-1.9-1.9C44.4,39.9,45.3,39,46.3,39z
			 M56.9,39c1,0,1.9,0.8,1.9,1.9c0,1-0.8,1.9-1.9,1.9c-1,0-1.9-0.8-1.9-1.9C55,39.9,55.9,39,56.9,39z M35.7,28.4
			c1,0,1.9,0.8,1.9,1.9s-0.8,1.9-1.9,1.9c-1,0-1.9-0.8-1.9-1.9S34.7,28.4,35.7,28.4z M46.3,28.4c1,0,1.9,0.8,1.9,1.9
			s-0.8,1.9-1.9,1.9c-1,0-1.9-0.8-1.9-1.9S45.3,28.4,46.3,28.4z M56.9,28.4c1,0,1.9,0.8,1.9,1.9s-0.8,1.9-1.9,1.9
			c-1,0-1.9-0.8-1.9-1.9S55.9,28.4,56.9,28.4z M35.7,17.8c1,0,1.9,0.8,1.9,1.9s-0.8,1.9-1.9,1.9c-1,0-1.9-0.8-1.9-1.9
			S34.7,17.8,35.7,17.8z M46.3,17.8c1,0,1.9,0.8,1.9,1.9s-0.8,1.9-1.9,1.9c-1,0-1.9-0.8-1.9-1.9S45.3,17.8,46.3,17.8z M56.9,17.8
			c1,0,1.9,0.8,1.9,1.9s-0.8,1.9-1.9,1.9c-1,0-1.9-0.8-1.9-1.9S55.9,17.8,56.9,17.8z"/>
		<g id="Helios-Complete-Logo" transform="translate(75.200229, 14.929441)">
			<path id="Shape_46_" class="st28" d="M63.2,8.4c-1.5,0-2.9,0.3-4.2,1c-1.2,0.7-2.2,1.7-2.9,2.9c-0.7,1.3-1.1,2.8-1,4.3
				c0,1.5,0.3,2.9,1,4.2c0.7,1.2,1.7,2.2,2.9,2.9c1.3,0.7,2.8,1.1,4.3,1c1.3,0,2.6-0.2,3.8-0.8c1.1-0.4,2.1-1.1,2.9-2l-2.1-2.2
				c-0.5,0.6-1.2,1-1.9,1.3c-0.7,0.3-1.5,0.5-2.3,0.5c-2.2,0.1-4.2-1.5-4.6-3.6h11.8c0-0.3,0-0.7,0-1.2c0-2.6-0.6-4.7-1.9-6.1
				S65.8,8.4,63.2,8.4z M59,15.3c0.1-1.1,0.6-2.1,1.4-2.8c0.8-0.7,1.8-1.1,2.9-1c1.1,0,2.1,0.3,2.9,1.1c0.8,0.7,1.2,1.7,1.2,2.8H59z
				"/>
			<path id="Shape_47_" class="st28" d="M121.1,17.3c-0.5-0.6-1.1-1.1-1.9-1.5c-0.9-0.4-1.8-0.7-2.8-1c-0.8-0.2-1.6-0.5-2.3-0.9
				c-0.5-0.2-0.8-0.7-0.8-1.1c0-0.4,0.2-0.8,0.6-1.1c0.5-0.3,1-0.4,1.6-0.4c0.8,0,1.5,0.2,2.3,0.4c0.8,0.3,1.7,0.6,2.4,1.1l1.4-2.8
				c-0.8-0.6-1.8-1-2.7-1.3c-1-0.3-2.1-0.5-3.1-0.4c-1.5-0.1-3,0.4-4.3,1.2c-1.2,0.8-1.8,2.2-1.7,3.6c0,0.9,0.2,1.8,0.8,2.5
				c0.5,0.6,1.1,1.1,1.8,1.4c0.9,0.4,1.7,0.7,2.6,0.9c0.8,0.2,1.6,0.5,2.4,0.9c0.5,0.2,0.8,0.7,0.8,1.3c0,0.5-0.2,0.9-0.7,1.1
				c-0.5,0.3-1.1,0.4-1.7,0.4c-1,0-1.9-0.2-2.8-0.5c-0.9-0.3-1.8-0.8-2.6-1.5l-1.3,2.7c0.9,0.7,1.9,1.3,3,1.7
				c1.2,0.4,2.4,0.6,3.6,0.6c1.6,0.1,3.2-0.4,4.5-1.3c1.2-0.8,1.9-2.2,1.8-3.6C121.9,19,121.6,18.1,121.1,17.3z"/>
			<path id="Shape_48_" class="st29" d="M98.7,8.6c-4.5-0.1-8.3,3.5-8.4,8.1c0.2,4.6,4.2,8.2,8.9,8c4.3-0.2,7.8-3.7,8-8
				C107,12.1,103.2,8.5,98.7,8.6z M98.7,21.7c-2.8,0.1-5.2-2.2-5.3-5c0,0,0,0,0,0c0.3-2.9,2.9-5,5.7-4.7c2.5,0.2,4.4,2.2,4.7,4.7
				C103.8,19.5,101.5,21.7,98.7,21.7z"/>
			<path id="Shape_49_" class="st28" d="M50.6,10.1c-1.1-1.1-2.7-1.7-4.3-1.7c-2.8,0-4.7,1.1-5.8,3.2V3.8l-3.9-1.4v22.2h3.9v-7.9
				c-0.1-1.2,0.3-2.4,1.1-3.3c0.8-0.9,1.9-1.3,3.1-1.3c1,0,1.9,0.3,2.6,1c0.7,0.7,1,1.7,1,2.7v8.8h3.9v-10
				C52.2,12.9,51.7,11.3,50.6,10.1z"/>
			<polygon id="Shape_50_" class="st28" points="74.4,24.6 78.3,24.6 78.3,3.8 74.4,2.4 			"/>
			<polygon id="Shape_51_" class="st28" points="83.3,24.6 87.2,24.6 87.2,10 83.3,8.6 			"/>
			<path id="Shape_52_" class="st29" d="M5.5,18.4C5,17,4.8,15.6,4.8,14.2c0-6.3,4.9-11.4,11-11.4s11,5.1,11,11.4
				c0,1.4-0.2,2.9-0.8,4.2h2.9c0.4-1.4,0.6-2.8,0.6-4.2C29.4,6.4,23.3,0,15.8,0S2,6.4,2,14.2c0,1.4,0.2,2.9,0.6,4.2H5.5z"/>
			<path id="Shape_53_" class="st29" d="M30,22.7H1.5c-0.8,0.1-1.4-0.5-1.5-1.2c-0.1-0.8,0.5-1.4,1.2-1.5c0,0,0.1,0,0.1,0
				c0.1,0,0.1,0,0.2,0H30c0.8,0,1.4,0.6,1.4,1.3c0,0.7-0.5,1.3-1.2,1.4H30z"/>
			<path id="Shape_54_" class="st30" d="M24.3,24H7.1c-0.8,0-1.4,0.6-1.4,1.3c0,0.7,0.5,1.3,1.2,1.4h17.4c0.8,0,1.4-0.6,1.4-1.3
				c0-0.7-0.5-1.3-1.2-1.4H24.3"/>
			<path id="Shape_55_" class="st31" d="M18.8,27.9h-6c-0.8-0.1-1.4,0.5-1.5,1.2c-0.1,0.8,0.5,1.4,1.2,1.5c0,0,0.1,0,0.1,0h6.2
				c0.8-0.1,1.3-0.7,1.3-1.5C20,28.5,19.4,28,18.8,27.9"/>
			<path id="Shape_56_" class="st29" d="M135.6,8.5h53.9c4.5,0,8.2,3.7,8.2,8.2s-3.7,8.2-8.2,8.2h-53.9c-4.5,0-8.2-3.7-8.2-8.2
				S131.1,8.5,135.6,8.5z"/>
			<path id="Shape_57_" class="st11" d="M135.3,16.9c0-1.6,1.3-2.9,2.9-2.9c0.1,0,0.2,0,0.2,0c1.1-0.1,2.1,0.5,2.5,1.4l-1.3,0.7
				c-0.2-0.5-0.7-0.8-1.3-0.8c-0.8,0-1.5,0.6-1.5,1.4c0,0.1,0,0.1,0,0.2c-0.1,0.8,0.5,1.5,1.3,1.6c0.1,0,0.1,0,0.2,0
				c0.5,0,1-0.3,1.3-0.8l1.3,0.7c-0.5,0.9-1.5,1.5-2.5,1.4c-1.6,0.1-3-1.1-3.1-2.7C135.3,17.1,135.3,17,135.3,16.9z"/>
			<path id="Shape_58_" class="st11" d="M141.9,16.9c-0.1-1.7,1.2-3.2,2.9-3.3c1.7-0.1,3.2,1.2,3.3,2.9c0.1,1.7-1.2,3.2-2.9,3.3
				c-0.1,0-0.1,0-0.2,0c-1.6,0.1-3-1.1-3.1-2.7C141.9,17,141.9,16.9,141.9,16.9z M146.5,16.9c0.1-0.8-0.5-1.5-1.3-1.5
				c-0.8-0.1-1.5,0.5-1.5,1.3c0,0.1,0,0.1,0,0.2c-0.1,0.8,0.5,1.5,1.3,1.5c0.8,0.1,1.5-0.5,1.5-1.3C146.5,17,146.5,16.9,146.5,16.9z
				"/>
			<path id="Shape_59_" class="st11" d="M159.2,16.5v3.2h-1.6v-3c0-0.9-0.4-1.3-1.1-1.3c-0.7,0-1.3,0.5-1.3,1.5v2.8h-1.6v-3
				c0-0.9-0.4-1.3-1.1-1.3s-1.2,0.5-1.2,1.5v2.8h-1.6V14h1.6v0.7c0.4-0.5,1.1-0.8,1.8-0.8c0.7,0,1.4,0.3,1.9,0.9
				c0.5-0.6,1.2-0.9,2-0.9C158.3,14,159.2,14.7,159.2,16.5z"/>
			<path id="Shape_60_" class="st11" d="M167.3,16.9c0.1,1.5-1.1,2.8-2.6,2.9c-0.1,0-0.2,0-0.2,0c-0.6,0-1.3-0.2-1.7-0.7v2.6h-1.6
				V14h1.6v0.7c0.4-0.5,1.1-0.8,1.8-0.8c1.5,0,2.8,1.2,2.8,2.7C167.3,16.7,167.3,16.8,167.3,16.9z M165.6,16.9
				c0.1-0.8-0.5-1.5-1.3-1.6c-0.8-0.1-1.5,0.5-1.6,1.3c0,0.1,0,0.2,0,0.3c-0.1,0.8,0.5,1.5,1.3,1.6c0.8,0.1,1.5-0.5,1.6-1.3
				C165.7,17.1,165.7,17,165.6,16.9z"/>
			<polygon id="Shape_61_" class="st11" points="168.9,11.9 170.5,11.9 170.5,19.7 168.9,19.7 			"/>
			<path id="Shape_62_" class="st11" d="M178,17.3h-4.3c0.2,0.7,0.9,1.2,1.6,1.1c0.5,0,1-0.2,1.4-0.5l0.9,0.9
				c-0.6,0.6-1.5,1-2.3,0.9c-2,0-3.2-1.2-3.2-2.9c0-1.6,1.2-2.9,2.8-2.9c0.1,0,0.1,0,0.2,0c1.5-0.1,2.9,1.1,2.9,2.6
				c0,0.1,0,0.2,0,0.3C178,17,178,17.2,178,17.3z M173.7,16.4h2.8c-0.1-0.8-0.9-1.3-1.6-1.2C174.3,15.3,173.8,15.8,173.7,16.4z"/>
			<path id="Shape_63_" class="st11" d="M183.3,19.4c-0.4,0.3-0.9,0.4-1.3,0.4c-1,0.1-2-0.6-2.1-1.6c0-0.1,0-0.3,0-0.4v-2.3H179
				v-1.3h0.9v-1.4h1.6v1.4h1.4v1.3h-1.4v2.3c-0.1,0.4,0.2,0.7,0.6,0.7c0,0,0.1,0,0.1,0c0.2,0,0.5-0.1,0.7-0.2L183.3,19.4z"/>
			<path id="Shape_64_" class="st11" d="M190.1,17.3h-4.3c0.2,0.7,0.9,1.2,1.6,1.1c0.5,0,1-0.2,1.4-0.5l0.9,0.9
				c-0.6,0.6-1.5,1-2.3,0.9c-2,0-3.2-1.2-3.2-2.9c0-1.6,1.2-2.9,2.8-2.9c0.1,0,0.1,0,0.2,0c1.5-0.1,2.9,1.1,2.9,2.6
				c0,0.1,0,0.2,0,0.3C190.1,17,190.1,17.2,190.1,17.3z M185.8,16.4h2.8c-0.1-0.8-0.9-1.3-1.6-1.2C186.4,15.3,185.9,15.8,185.8,16.4
				z"/>
		</g>
	</g>
</g>
</svg>
