<svg xmlns="http://www.w3.org/2000/svg" xmlns:xlink="http://www.w3.org/1999/xlink" width="304.66" height="336.98" viewBox="0 0 304.66 336.98"><defs><linearGradient id="a" x1="-96.49" y1="320.86" x2="-95.58" y2="318.95" gradientTransform="matrix(73.49, 0, 0, -73.35, 7121.46, 23530.17)" gradientUnits="userSpaceOnUse"><stop offset="0" stop-color="#fab643"/><stop offset="0.56" stop-color="#f48222"/><stop offset="1" stop-color="#f16322" stop-opacity="0"/></linearGradient><linearGradient id="b" x1="-95.51" y1="319.57" x2="-95.85" y2="318.38" gradientTransform="matrix(73.12, 0, 0, -120.63, 7085.88, 38538.49)" gradientUnits="userSpaceOnUse"><stop offset="0" stop-color="#fab643"/><stop offset="0.56" stop-color="#f48222"/><stop offset="1" stop-color="#f16322"/></linearGradient><linearGradient id="c" x1="-94.68" y1="320.3" x2="-95.49" y2="318.65" gradientTransform="matrix(46.9, 0, 0, -77.97, 4564.12, 24959.99)" xlink:href="#b"/><linearGradient id="d" x1="-95.04" y1="319.82" x2="-95.97" y2="319.15" gradientTransform="matrix(70.01, 0, 0, -52.81, 6787.87, 16910.43)" xlink:href="#b"/><linearGradient id="e" x1="-98" y1="321.07" x2="-97.16" y2="319.15" gradientTransform="translate(-4963.79 18000.77) rotate(180) scale(53.18 55.68)" xlink:href="#a"/><linearGradient id="f" x1="-98.1" y1="320.9" x2="-98.38" y2="319.58" gradientTransform="translate(-2139.08 12465.92) rotate(180) scale(24.26 38.27)" xlink:href="#a"/><linearGradient id="g" x1="-98.19" y1="321.25" x2="-97.35" y2="319.33" gradientTransform="translate(-4188.93 14963.5) rotate(180) scale(44.24 46.32)" xlink:href="#a"/><linearGradient id="h" x1="-96.91" y1="320.59" x2="-97.5" y2="319.28" gradientTransform="translate(-4225.4 15716.92) rotate(180) scale(45.08 48.69)" xlink:href="#a"/><linearGradient id="i" x1="-96.87" y1="320.69" x2="-96.87" y2="319.4" gradientTransform="translate(-8506.82 9772.39) rotate(180) scale(89.3 30.05)" gradientUnits="userSpaceOnUse"><stop offset="0" stop-color="#d46700"/><stop offset="1" stop-color="#fa9d2c"/></linearGradient><linearGradient id="j" x1="-97.62" y1="320.31" x2="-97.02" y2="319.86" gradientTransform="translate(-5126.07 10268.77) rotate(180) scale(54.38 31.69)" gradientUnits="userSpaceOnUse"><stop offset="0" stop-color="#fab643"/><stop offset="0.6" stop-color="#f48222"/><stop offset="1" stop-color="#f16322"/></linearGradient><linearGradient id="k" x1="-97.06" y1="318.59" x2="-97.76" y2="319.9" gradientTransform="translate(-4535.25 18747.69) rotate(180) scale(48.66 58.22)" xlink:href="#i"/><linearGradient id="l" x1="-97.41" y1="319.61" x2="-96.47" y2="319.33" gradientTransform="translate(-7276.02 15668.8) rotate(180) scale(77.31 48.42)" xlink:href="#i"/><linearGradient id="m" x1="-96.94" y1="320.01" x2="-97.08" y2="319.59" gradientTransform="translate(-6394.88 12838.81) rotate(180) scale(68.16 39.54)" xlink:href="#b"/><linearGradient id="n" x1="-97.6" y1="320.68" x2="-96.76" y2="318.76" gradientTransform="translate(-8911.86 31792.92) rotate(180) scale(94.68 99.13)" xlink:href="#a"/><linearGradient id="o" x1="-97.96" y1="320.41" x2="-97.36" y2="319.34" gradientTransform="translate(-3659.43 11690.76) rotate(180) scale(40.04 36.02)" xlink:href="#j"/><linearGradient id="p" x1="-97.01" y1="319.53" x2="-96.72" y2="318.2" gradientTransform="translate(-8749.22 42654.38) rotate(180) scale(93 133.4)" xlink:href="#j"/><linearGradient id="q" x1="-97.07" y1="319.2" x2="-96.77" y2="318.69" gradientTransform="translate(-8558.28 39118.03) rotate(180) scale(90.99 122.28)" gradientUnits="userSpaceOnUse"><stop offset="0" stop-color="#ffe7bd"/><stop offset="1" stop-color="#ffba60"/></linearGradient><linearGradient id="r" x1="-95.64" y1="320.94" x2="-95.15" y2="319.02" gradientTransform="matrix(44.22, 0, 0, -60.83, 4317.43, 19678.8)" xlink:href="#a"/><linearGradient id="s" x1="-94.72" y1="320.45" x2="-94.97" y2="319.13" gradientTransform="matrix(35.29, 0, 0, -58.46, 3417.89, 18924.58)" xlink:href="#a"/><linearGradient id="t" x1="-95.64" y1="319.74" x2="-95.82" y2="319.34" gradientTransform="matrix(79.55, 0, 0, -46.65, 7703.49, 15133.33)" gradientUnits="userSpaceOnUse"><stop offset="0" stop-color="#ffad38"/><stop offset="1" stop-color="#f36309"/></linearGradient><linearGradient id="u" x1="-95.11" y1="319.58" x2="-94.82" y2="318.74" gradientTransform="matrix(42.43, 0, 0, -46.19, 4108.74, 14988.73)" xlink:href="#t"/><linearGradient id="v" x1="-95.5" y1="319.47" x2="-94.03" y2="318.97" gradientTransform="matrix(79.66, 0, 0, -45.59, 7713.07, 14789.02)" xlink:href="#j"/><linearGradient id="w" x1="-93.82" y1="320.04" x2="-95.77" y2="320.26" gradientTransform="matrix(44.83, 0, 0, -28.34, 4360.95, 9297.83)" xlink:href="#t"/><linearGradient id="x" x1="-95.65" y1="320.94" x2="-95.16" y2="319.01" gradientTransform="matrix(44.6, 0, 0, -61.15, 4305.01, 19749.68)" xlink:href="#a"/><linearGradient id="y" x1="-94.73" y1="320.44" x2="-94.98" y2="319.13" gradientTransform="matrix(35.6, 0, 0, -58.76, 3397.73, 18988.97)" xlink:href="#a"/><linearGradient id="z" x1="-95.64" y1="319.74" x2="-95.82" y2="319.34" gradientTransform="matrix(79.55, 0, 0, -46.65, 7654.52, 15101.09)" xlink:href="#t"/><linearGradient id="aa" x1="-95.11" y1="319.58" x2="-94.82" y2="318.74" gradientTransform="matrix(42.43, 0, 0, -46.19, 4059.77, 14956.48)" xlink:href="#t"/><linearGradient id="ab" x1="-95.74" y1="319.55" x2="-93.35" y2="318.78" gradientTransform="matrix(79.66, 0, 0, -45.59, 7664.1, 14756.77)" xlink:href="#j"/><linearGradient id="ac" x1="-94.05" y1="321.88" x2="-94.55" y2="321.27" gradientTransform="matrix(26.28, 0, 0, -17.12, 2521.9, 5693.12)" xlink:href="#t"/><linearGradient id="ad" x1="-97.71" y1="320.77" x2="-97.38" y2="318.85" gradientTransform="translate(-4224.12 24040.71) rotate(180) scale(44.6 74.4)" xlink:href="#a"/><linearGradient id="ae" x1="-97.08" y1="320.18" x2="-97.32" y2="318.86" gradientTransform="translate(-4761.79 27563.53) rotate(180) scale(50.68 85.48)" xlink:href="#a"/><linearGradient id="af" x1="-97.2" y1="319.76" x2="-96.42" y2="319.77" gradientTransform="translate(-9080.21 12346.22) rotate(180) scale(95.28 37.77)" gradientUnits="userSpaceOnUse"><stop offset="0" stop-color="#f6931a"/><stop offset="1" stop-color="#d46700"/></linearGradient><linearGradient id="ag" x1="-97.12" y1="319.26" x2="-96.46" y2="319.4" gradientTransform="translate(-9080.21 18597.59) rotate(180) scale(95.28 57.44)" gradientUnits="userSpaceOnUse"><stop offset="0" stop-color="#ffad34"/><stop offset="1" stop-color="#e87000"/></linearGradient><linearGradient id="ah" x1="-97.52" y1="319.21" x2="-97.07" y2="319.37" gradientTransform="translate(-8276.9 16243.06) rotate(180) scale(86.95 50.03)" gradientUnits="userSpaceOnUse"><stop offset="0" stop-color="#fff"/><stop offset="1" stop-color="#e2e7ec"/></linearGradient><linearGradient id="ai" x1="-97.52" y1="319.21" x2="-97.07" y2="319.37" gradientTransform="translate(-8275.05 16237.5) rotate(180) scale(86.95 50.03)" xlink:href="#ah"/><linearGradient id="aj" x1="-97.2" y1="319.76" x2="-96.42" y2="319.77" gradientTransform="translate(-9080.21 12338.81) rotate(180) scale(95.28 37.77)" xlink:href="#af"/><linearGradient id="ak" x1="-97.05" y1="319.25" x2="-96.58" y2="319.41" gradientTransform="translate(-9080.21 18590.18) rotate(180) scale(95.28 57.44)" gradientUnits="userSpaceOnUse"><stop offset="0" stop-color="#feab33"/><stop offset="1" stop-color="#f89528"/></linearGradient><linearGradient id="al" x1="-97.24" y1="319.61" x2="-96.64" y2="319.13" gradientTransform="translate(-9080.21 18590.18) rotate(180) scale(95.28 57.44)" xlink:href="#j"/><linearGradient id="am" x1="-101.8" y1="319.35" x2="-101.63" y2="319.33" gradientTransform="translate(-768.61 18213.66) rotate(180) scale(9.04 56.26)" gradientUnits="userSpaceOnUse"><stop offset="0" stop-color="#fff" stop-opacity="0"/><stop offset="1" stop-color="#f6f6f7"/></linearGradient></defs><path d="M31.57,38.7,98.6.2a1.48,1.48,0,0,1,2,.55,1.49,1.49,0,0,1,.2.74V77.05a1.49,1.49,0,0,1-.74,1.29L30.82,118.77V40A1.51,1.51,0,0,1,31.57,38.7Z" fill="#feab33" opacity="0.2" style="isolation:isolate"/><path d="M43.52,45.87l67-38.51a1.5,1.5,0,0,1,2,.56,1.47,1.47,0,0,1,.2.74V84.22a1.5,1.5,0,0,1-.75,1.29L42.77,125.93V47.16A1.47,1.47,0,0,1,43.52,45.87Z" fill="#feab33" opacity="0.2" style="isolation:isolate"/><path d="M128.31,86.61v31.56L54.82,160V125.48Z" opacity="0.5" fill="url(#a)" style="isolation:isolate"/><path d="M55.57,52.82l67.26-38.06a1.5,1.5,0,0,1,1.58.07l3.53,2.39-3.11,50.23L58.29,135.2l-2.81-1.87a1.52,1.52,0,0,1-.66-1.25v-78A1.5,1.5,0,0,1,55.57,52.82Z" fillRule="evenodd" fill="url(#b)"/><path d="M59,55.42l67-38.5a1.49,1.49,0,0,1,2.23,1.29V93.77a1.49,1.49,0,0,1-.74,1.29L58.29,135.49V56.72A1.51,1.51,0,0,1,59,55.42Z" fill="#fff" fillRule="evenodd"/><path d="M115.64,87.74q1.47-.85,2.19-.33c.48.34.72,1.14.73,2.38v1.54a7.13,7.13,0,0,1-.72,3.32,5.5,5.5,0,0,1-2.19,2.25c-1,.56-1.69.67-2.18.31s-.74-1.15-.75-2.39V93.28a7.09,7.09,0,0,1,.72-3.31A5.48,5.48,0,0,1,115.64,87.74Zm-1.07,2.37a5,5,0,0,0-.37,1.94v2a2.79,2.79,0,0,0,.35,1.67c.24.27.6.26,1.1,0a2.49,2.49,0,0,0,1.06-1.18,5,5,0,0,0,.36-2v-2a2.69,2.69,0,0,0-.34-1.65c-.23-.25-.59-.24-1.09.05A2.55,2.55,0,0,0,114.57,90.11Zm-11.73,6.42,3.48-3.3.2-.11v9l-1.49.86V95.77l-2.19,2Zm-7.73,3.11q1.47-.86,2.19-.33c.48.35.72,1.14.73,2.38v1.54a7.18,7.18,0,0,1-.72,3.33,5.5,5.5,0,0,1-2.19,2.25c-1,.55-1.69.66-2.18.31s-.74-1.15-.75-2.39v-1.55a7.05,7.05,0,0,1,.72-3.3A5.51,5.51,0,0,1,95.11,99.64ZM94,102a5,5,0,0,0-.37,1.94v2a2.75,2.75,0,0,0,.35,1.66c.24.27.6.26,1.1,0a2.56,2.56,0,0,0,1.06-1.19,5,5,0,0,0,.36-2v-2a2.63,2.63,0,0,0-.34-1.64c-.23-.26-.59-.25-1.09,0A2.6,2.6,0,0,0,94,102Zm21.6-28.93c1-.56,1.71-.67,2.19-.32s.72,1.14.73,2.38v1.54a7.16,7.16,0,0,1-.72,3.32,5.5,5.5,0,0,1-2.19,2.25c-1,.56-1.69.66-2.18.31s-.74-1.15-.75-2.39V78.63a7.06,7.06,0,0,1,.72-3.31A5.57,5.57,0,0,1,115.64,73.08Zm-1.07,2.38a5,5,0,0,0-.37,1.94v2a2.73,2.73,0,0,0,.35,1.66c.24.28.6.27,1.1,0a2.53,2.53,0,0,0,1.06-1.18,5,5,0,0,0,.36-2v-2a2.69,2.69,0,0,0-.34-1.65c-.23-.25-.59-.24-1.09,0A2.5,2.5,0,0,0,114.57,75.46ZM84.84,105.59q1.47-.86,2.19-.33c.48.35.73,1.14.74,2.38v1.55a7.16,7.16,0,0,1-.72,3.32,5.5,5.5,0,0,1-2.19,2.25c-1,.56-1.69.66-2.18.31s-.74-1.15-.75-2.39v-1.55a7.05,7.05,0,0,1,.72-3.3A5.54,5.54,0,0,1,84.84,105.59ZM83.77,108a4.87,4.87,0,0,0-.36,1.94v2a2.75,2.75,0,0,0,.35,1.66c.23.27.6.27,1.1,0a2.51,2.51,0,0,0,1.06-1.19,5,5,0,0,0,.36-2v-2a2.72,2.72,0,0,0-.34-1.64c-.23-.26-.6-.24-1.1.05A2.58,2.58,0,0,0,83.77,108ZM105.37,79q1.47-.86,2.19-.33c.48.34.73,1.14.74,2.38v1.54a7.13,7.13,0,0,1-.72,3.32,5.5,5.5,0,0,1-2.19,2.25c-1,.56-1.69.66-2.18.31s-.74-1.15-.75-2.39V84.58a7.09,7.09,0,0,1,.72-3.31A5.52,5.52,0,0,1,105.37,79Zm-1.07,2.37a4.83,4.83,0,0,0-.36,1.94v2a2.79,2.79,0,0,0,.35,1.67c.23.27.6.26,1.1,0a2.49,2.49,0,0,0,1.06-1.18,5,5,0,0,0,.36-2v-2a2.76,2.76,0,0,0-.34-1.65c-.23-.25-.6-.24-1.1,0A2.6,2.6,0,0,0,104.3,81.41ZM74.58,111.54q1.47-.86,2.19-.33c.48.35.72,1.14.73,2.38v1.55a7.16,7.16,0,0,1-.72,3.32,5.5,5.5,0,0,1-2.19,2.25c-1,.56-1.69.66-2.18.31s-.74-1.15-.75-2.39v-1.55a7.05,7.05,0,0,1,.72-3.3A5.51,5.51,0,0,1,74.58,111.54Zm-1.07,2.37a5,5,0,0,0-.37,2v2a2.75,2.75,0,0,0,.35,1.66c.24.27.6.27,1.1,0a2.53,2.53,0,0,0,1.06-1.18,5.09,5.09,0,0,0,.36-2v-2a2.65,2.65,0,0,0-.34-1.64c-.23-.26-.59-.24-1.09,0A2.53,2.53,0,0,0,73.51,113.91ZM95.11,85q1.47-.85,2.19-.33C97.78,85,98,85.8,98,87v1.54a7.13,7.13,0,0,1-.72,3.32,5.5,5.5,0,0,1-2.19,2.25c-1,.56-1.69.67-2.18.31s-.74-1.14-.75-2.38V90.53a7.09,7.09,0,0,1,.72-3.31A5.48,5.48,0,0,1,95.11,85ZM94,87.36a5,5,0,0,0-.37,1.94v2A2.77,2.77,0,0,0,94,93c.24.27.6.26,1.1,0a2.49,2.49,0,0,0,1.06-1.18,5,5,0,0,0,.36-2v-2a2.63,2.63,0,0,0-.34-1.64c-.23-.26-.59-.25-1.09,0A2.55,2.55,0,0,0,94,87.36Zm19.07-26.08L116.59,58l.19-.11v9l-1.48.86V60.52l-2.19,2Zm-30.8,32.5,3.48-3.3.2-.11v9l-1.49.86V93l-2.19,2Zm20.53-26.55,3.48-3.3.2-.11v8.95l-1.49.86V66.47l-2.19,2ZM74.58,96.89q1.47-.86,2.19-.33c.48.35.72,1.14.73,2.38v1.55a7.16,7.16,0,0,1-.72,3.32,5.5,5.5,0,0,1-2.19,2.25c-1,.56-1.69.66-2.18.31s-.74-1.15-.75-2.39v-1.55a7.05,7.05,0,0,1,.72-3.3A5.51,5.51,0,0,1,74.58,96.89Zm-1.07,2.37a5,5,0,0,0-.37,1.94v2a2.75,2.75,0,0,0,.35,1.66c.24.27.6.27,1.1,0a2.56,2.56,0,0,0,1.06-1.19,5,5,0,0,0,.36-2v-2A2.65,2.65,0,0,0,75.67,98c-.23-.26-.59-.24-1.09,0A2.6,2.6,0,0,0,73.51,99.26Zm21.6-28.92q1.47-.86,2.19-.33c.48.34.72,1.14.73,2.38v1.54a7.13,7.13,0,0,1-.72,3.32,5.5,5.5,0,0,1-2.19,2.25c-1,.56-1.69.66-2.18.31s-.74-1.15-.75-2.39V75.88a7.06,7.06,0,0,1,.72-3.31A5.48,5.48,0,0,1,95.11,70.34ZM94,72.71a5,5,0,0,0-.37,1.94v2A2.79,2.79,0,0,0,94,78.34c.24.27.6.26,1.1,0a2.53,2.53,0,0,0,1.06-1.18,5,5,0,0,0,.36-2v-2a2.69,2.69,0,0,0-.34-1.65c-.23-.25-.59-.24-1.09,0A2.55,2.55,0,0,0,94,72.71Zm21.6-28.93q1.47-.84,2.19-.33c.48.35.72,1.14.73,2.38v1.55a7.16,7.16,0,0,1-.72,3.32A5.5,5.5,0,0,1,115.65,53c-1,.56-1.69.66-2.18.31s-.74-1.15-.75-2.39V49.33a7.06,7.06,0,0,1,.72-3.31A5.51,5.51,0,0,1,115.64,43.78Zm0,1.2a2.53,2.53,0,0,0-1.07,1.17,4.61,4.61,0,0,0-.36,1.71v2.26a2.75,2.75,0,0,0,.35,1.66c.24.28.6.27,1.1,0a2.53,2.53,0,0,0,1.06-1.18,4.75,4.75,0,0,0,.36-1.75V46.57a2.67,2.67,0,0,0-.34-1.64C116.5,44.67,116.14,44.69,115.64,45ZM82.31,79.13l3.48-3.3.2-.11v9l-1.49.86V78.37l-2.19,2Zm20.53-26.56,3.48-3.3.2-.11v9L105,59V51.81l-2.19,2ZM74.58,82.24q1.47-.85,2.19-.33c.48.35.72,1.14.73,2.38v1.54a7.21,7.21,0,0,1-.72,3.33,5.42,5.42,0,0,1-2.19,2.24c-1,.56-1.69.67-2.18.31s-.74-1.14-.75-2.38V87.78a7.12,7.12,0,0,1,.72-3.31A5.48,5.48,0,0,1,74.58,82.24Zm-1.07,2.37a5,5,0,0,0-.37,1.94v2a2.77,2.77,0,0,0,.35,1.66c.24.27.6.26,1.1,0A2.49,2.49,0,0,0,75.65,89a5,5,0,0,0,.36-2V85a2.63,2.63,0,0,0-.34-1.64c-.23-.26-.59-.25-1.09,0A2.6,2.6,0,0,0,73.51,84.61Zm21.6-28.93q1.47-.84,2.19-.33c.48.35.72,1.15.73,2.38v1.55a7.16,7.16,0,0,1-.72,3.32,5.5,5.5,0,0,1-2.19,2.25c-1,.56-1.69.66-2.18.31s-.74-1.15-.75-2.39V61.23a7.06,7.06,0,0,1,.72-3.31A5.57,5.57,0,0,1,95.11,55.68ZM94,58.06A5,5,0,0,0,93.67,60v2A2.73,2.73,0,0,0,94,63.68c.24.28.6.27,1.1,0a2.53,2.53,0,0,0,1.06-1.18,5,5,0,0,0,.36-2v-2a2.69,2.69,0,0,0-.34-1.65c-.23-.26-.59-.24-1.09.05A2.5,2.5,0,0,0,94,58.06Zm-9.2,3.58q1.47-.86,2.19-.33c.48.34.73,1.14.74,2.38v1.54a7.13,7.13,0,0,1-.72,3.32,5.5,5.5,0,0,1-2.19,2.25c-1,.56-1.69.66-2.18.31s-.74-1.15-.75-2.39V67.18a7.06,7.06,0,0,1,.72-3.31A5.52,5.52,0,0,1,84.84,61.64ZM83.77,64A4.83,4.83,0,0,0,83.41,66v2a2.73,2.73,0,0,0,.35,1.66c.23.28.6.27,1.1,0a2.53,2.53,0,0,0,1.06-1.18,5,5,0,0,0,.36-2v-2a2.76,2.76,0,0,0-.34-1.65c-.23-.25-.6-.24-1.1,0A2.6,2.6,0,0,0,83.77,64ZM72.05,70.43l3.48-3.3.19-.11v9l-1.48.86V69.67l-2.19,2Z" fill="url(#c)"/><path d="M59,55.42l67-38.5a1.49,1.49,0,0,1,2.23,1.29V29.15l-70,40.38V56.72A1.51,1.51,0,0,1,59,55.42Z" fillRule="evenodd" fill="url(#d)"/><path d="M122.38,23.4c.91-.52,1.89,0,2.17,1.19a2.85,2.85,0,0,1-1.13,3.05c-.92.52-1.89,0-2.18-1.19A2.84,2.84,0,0,1,122.38,23.4Z" fill="#fcfcfc" fillRule="evenodd"/><path d="M116.29,26.87c.92-.51,1.89,0,2.18,1.2a2.84,2.84,0,0,1-1.14,3.05c-.91.51-1.89,0-2.18-1.2A2.87,2.87,0,0,1,116.29,26.87Z" fill="#fcfcfc" fillRule="evenodd"/><path d="M39.91,181.54l35-19.87.88-.49,63.48,37.88-44.4,25.46" fill="none" stroke="#f36309" stroke-linecap="round" stroke-linejoin="round" strokeWidth="1.25"/><line x1="134.72" y1="149.58" x2="94.25" y2="172.37" fill="none" stroke="#f36309" stroke-linecap="round" stroke-linejoin="round" strokeWidth="1.25"/><path d="M181.46,191.62l0,25.45L234.6,247.3l0-24.49Z" opacity="0.5" fill="url(#e)" style="isolation:isolate"/><path d="M234.62,247.3l24.26-13.73,0-24.54-24.24,13.78Z" opacity="0.5" fill="url(#f)" style="isolation:isolate"/><path d="M99.1,141.4l0,21.17,44.22,25.14,0-22.92Z" opacity="0.3" fill="url(#g)" style="isolation:isolate"/><path d="M143.32,187.71,188.4,162.2l0-23.18-45,25.62Z" opacity="0.3" fill="url(#h)" style="isolation:isolate"/><path d="M188.4,137v3.71a.82.82,0,0,1-.12.43.8.8,0,0,1-.31.32l-44.18,25.25a2.62,2.62,0,0,1-2.6,0L99.53,142.48a.88.88,0,0,1-.43-.75v-.58l.05-3.28Z" fillRule="evenodd" fill="url(#i)"/><path d="M146.38,112l41.69,24.25a.88.88,0,0,1,0,1.5l-44.23,25.31a2.62,2.62,0,0,1-2.6,0L99.56,138.81a.85.85,0,0,1,0-1.49L143.79,112A2.56,2.56,0,0,1,146.38,112Z" fill="#fcfcfc" fillRule="evenodd"/><path d="M146.38,112l41.69,24.25a.88.88,0,0,1,0,1.5l-9.66,5.59-44.29-25.74,9.67-5.6A2.56,2.56,0,0,1,146.38,112Z" fillRule="evenodd" fill="url(#j)"/><path d="M179.15,137.81c-1.33,0-2.4-.65-2.4-1.44s1.07-1.43,2.4-1.43,2.39.64,2.39,1.43S180.47,137.81,179.15,137.81Z" fill="#fff" fillRule="evenodd"/><path d="M172.44,134c-1.32,0-2.39-.64-2.39-1.44s1.07-1.43,2.39-1.43,2.4.64,2.4,1.43S173.77,134,172.44,134Z" fill="#fff" fillRule="evenodd"/><path d="M195.71,188.34l.54-.89-18.59-11.16a.52.52,0,0,1-.17-.71.47.47,0,0,1,.19-.18L207,158.51a1.56,1.56,0,0,1,1.6,0l14.06,8.27a1.57,1.57,0,0,0,2.15-.52,1.59,1.59,0,0,0,.23-.82V130.13h-1v35.33a.5.5,0,0,1-.08.27.52.52,0,0,1-.72.18l-14.06-8.27a2.59,2.59,0,0,0-2.66,0L177.15,174.5a1.64,1.64,0,0,0-.55.53,1.56,1.56,0,0,0,.52,2.15Z" fill="url(#k)"/><path d="M257.45,208.52l-50.81-31.8a3,3,0,0,0-3,0l-21.85,12.91c-.19,1.9-.15,3.08.13,3.55a1.61,1.61,0,0,0,.52.52l51.07,30.44a3.28,3.28,0,0,0,3.73,0l20.87-12.41a2.16,2.16,0,0,0,.88-2.1v-2Z" fillRule="evenodd" fill="url(#l)"/><path d="M257.51,205.47l-49.34-29.33a6,6,0,0,0-6.1,0L183,187.51a3,3,0,0,0,0,5.13L232.3,222a6,6,0,0,0,6.11,0l19.1-11.37a3,3,0,0,0,1-4.09A2.88,2.88,0,0,0,257.51,205.47Z" fill="#fdebd1" fillRule="evenodd"/><path d="M192.26,193.63,195,192c.16-.08.16-.23,0-.31l-2.51-1.46a.59.59,0,0,0-.55,0l-2.74,1.59a.17.17,0,0,0,0,.32l2.52,1.45A.59.59,0,0,0,192.26,193.63Zm59.16,15.68a.17.17,0,0,0,0-.32l-2.56-1.48a.59.59,0,0,0-.55,0l-2.37,1.37a.17.17,0,0,0,0,.32l2.56,1.48a.57.57,0,0,0,.54,0Zm-3.43-2a.17.17,0,0,0,0-.32l-2.56-1.48a.59.59,0,0,0-.55,0l-2.37,1.37a.17.17,0,0,0,0,.32l2.56,1.49a.66.66,0,0,0,.55,0Zm-5.25.82a.17.17,0,0,0,0-.32l-2.56-1.48a.59.59,0,0,0-.55,0l-2.37,1.37a.17.17,0,0,0,0,.32l2.56,1.49a.64.64,0,0,0,.54,0Zm-3.43-2a.17.17,0,0,0,0-.32l-2.56-1.48a.59.59,0,0,0-.55,0l-2.37,1.38a.16.16,0,0,0,0,.31l2.56,1.49a.59.59,0,0,0,.55,0Zm-3.43-2c.16-.08.16-.23,0-.31l-2.55-1.49a.59.59,0,0,0-.55,0l-2.38,1.38a.17.17,0,0,0,0,.32l2.56,1.48a.59.59,0,0,0,.55,0Zm-3.42-2a.17.17,0,0,0,0-.32l-2.56-1.49a.66.66,0,0,0-.55,0L227,201.75c-.16.09-.16.23,0,.32l2.55,1.48a.59.59,0,0,0,.55,0Zm-3.43-2a.17.17,0,0,0,0-.32l-2.56-1.48a.59.59,0,0,0-.55,0l-2.37,1.37a.17.17,0,0,0,0,.32l2.56,1.48a.59.59,0,0,0,.55,0Zm-3.43-2a.17.17,0,0,0,0-.32L223,196.4a.57.57,0,0,0-.54,0l-2.38,1.37a.17.17,0,0,0,0,.32l2.56,1.49a.66.66,0,0,0,.55,0Zm-3.42-2c.15-.09.15-.23,0-.32l-2.55-1.48a.59.59,0,0,0-.55,0l-2.38,1.38a.16.16,0,0,0,0,.31l2.56,1.49a.59.59,0,0,0,.55,0Zm-3.43-2a.16.16,0,0,0,0-.31l-2.56-1.49a.59.59,0,0,0-.55,0l-2.37,1.38a.17.17,0,0,0,0,.32l2.56,1.48a.57.57,0,0,0,.54,0Zm25.81,11.11a.17.17,0,0,0,0-.32L242,203.53a.57.57,0,0,0-.54,0l-2.38,1.38a.16.16,0,0,0,0,.31l2.56,1.49a.59.59,0,0,0,.55,0Zm-3.42-2a.16.16,0,0,0,0-.31l-2.56-1.49a.59.59,0,0,0-.55,0l-2.38,1.38c-.15.09-.15.23,0,.32l2.55,1.48a.59.59,0,0,0,.55,0Zm-3.43-2a.17.17,0,0,0,0-.32l-2.56-1.49a.66.66,0,0,0-.55,0l-2.37,1.38a.17.17,0,0,0,0,.32l2.56,1.48a.59.59,0,0,0,.55,0Zm-3.43-2a.17.17,0,0,0,0-.32l-2.56-1.48a.59.59,0,0,0-.55,0l-2.37,1.37a.17.17,0,0,0,0,.32l2.56,1.48a.59.59,0,0,0,.55,0Zm-3.43-2c.16-.09.16-.23,0-.32l-2.55-1.48a.59.59,0,0,0-.55,0L225.37,197a.17.17,0,0,0,0,.32l2.56,1.49a.66.66,0,0,0,.55,0Zm-3.42-2a.17.17,0,0,0,0-.32l-2.56-1.48a.59.59,0,0,0-.55,0L222,195c-.16.08-.16.23,0,.31l2.55,1.49a.59.59,0,0,0,.55,0Zm-3.43-2a.16.16,0,0,0,0-.31l-2.56-1.49a.59.59,0,0,0-.55,0L218.52,193a.17.17,0,0,0,0,.32l2.56,1.48a.59.59,0,0,0,.55,0Zm-3.43-2a.17.17,0,0,0,0-.32L218,189.61a.64.64,0,0,0-.54,0L215.09,191a.17.17,0,0,0,0,.32l2.56,1.48a.59.59,0,0,0,.55,0Zm27.52,19.82a.17.17,0,0,0,0-.32l-4.44-2.57a.59.59,0,0,0-.55,0l-2.37,1.38a.17.17,0,0,0,0,.32l4.43,2.57a.59.59,0,0,0,.55,0Zm5.66-3.28a.17.17,0,0,0,0-.32l-2.65-1.54a.59.59,0,0,0-.55,0l-1.37.8a.16.16,0,0,0,0,.31l2.65,1.54a.59.59,0,0,0,.55,0Zm-3.57-2.07a.17.17,0,0,0,0-.32L247.53,204a.66.66,0,0,0-.55,0l-1.37.8a.17.17,0,0,0,0,.32l2.65,1.53a.59.59,0,0,0,.55,0Zm-3.56-2.07a.17.17,0,0,0,0-.32L244,202a.59.59,0,0,0-.55,0l-1.37.79a.17.17,0,0,0,0,.32l2.65,1.54a.66.66,0,0,0,.55,0Zm-3.57-2.07a.16.16,0,0,0,0-.31l-2.65-1.54a.59.59,0,0,0-.55,0l-1.37.79c-.15.09-.15.23,0,.32l2.65,1.54a.57.57,0,0,0,.54,0Zm-3.56-2.06a.17.17,0,0,0,0-.32l-2.65-1.54a.59.59,0,0,0-.55,0l-1.37.8a.16.16,0,0,0,0,.31l2.65,1.54a.59.59,0,0,0,.55,0Zm-3.57-2.07c.16-.09.16-.23,0-.32l-2.65-1.54a.64.64,0,0,0-.54,0l-1.37.8c-.16.09-.15.23,0,.32l2.65,1.53a.57.57,0,0,0,.54,0Zm-3.56-2.07a.17.17,0,0,0,0-.32l-2.65-1.53a.59.59,0,0,0-.55,0l-1.37.79a.17.17,0,0,0,0,.32l2.65,1.54a.66.66,0,0,0,.55,0Zm-3.56-2.07a.16.16,0,0,0,0-.31l-2.65-1.54a.59.59,0,0,0-.55,0l-1.37.79a.17.17,0,0,0,0,.32l2.65,1.54a.59.59,0,0,0,.55,0Zm-3.57-2.06a.17.17,0,0,0,0-.32l-2.65-1.54a.59.59,0,0,0-.55,0l-1.37.8a.16.16,0,0,0,0,.31l2.65,1.54a.59.59,0,0,0,.55,0Zm-3.56-2.07a.17.17,0,0,0,0-.32L219,187.49a.66.66,0,0,0-.55,0l-1.37.8a.17.17,0,0,0,0,.32l2.65,1.53a.59.59,0,0,0,.55,0Zm-23.12-6.84-5.71,3.31a.17.17,0,0,0,0,.32l1.79,1a.57.57,0,0,0,.54,0l3.06-1.77.5.29a.59.59,0,0,0,.55,0l2.38-1.38a.17.17,0,0,0,0-.32l-2.56-1.48A.59.59,0,0,0,198.55,182.51Zm12.71,11.24c.15-.09.15-.24,0-.32l-2.56-1.49a.59.59,0,0,0-.55,0l-2.37,1.38c-.16.09-.16.23,0,.32l2.55,1.48a.59.59,0,0,0,.55,0Zm-3.43-2a.17.17,0,0,0,0-.32L205.27,190a.66.66,0,0,0-.55,0l-2.37,1.38a.17.17,0,0,0,0,.32l2.56,1.48a.59.59,0,0,0,.55,0Zm-3.43-2a.17.17,0,0,0,0-.32L201.84,188a.59.59,0,0,0-.55,0l-2.37,1.37a.17.17,0,0,0,0,.32l2.56,1.49a.66.66,0,0,0,.55,0Zm-3.43-2c.16-.09.16-.23,0-.32L198.42,186a.59.59,0,0,0-.55,0l-2.38,1.38a.16.16,0,0,0,0,.31l2.56,1.49a.59.59,0,0,0,.55,0Zm.83,8.21a.16.16,0,0,0,0-.31l-2.56-1.49a.57.57,0,0,0-.54,0L196,195.78a.17.17,0,0,0,0,.32l2.56,1.48a.57.57,0,0,0,.54,0Zm-5.07-1a.17.17,0,0,0,0-.32l-2.51-1.46a.66.66,0,0,0-.55,0l-1.1.64c-.15.09-.15.23,0,.32l2.51,1.46a.66.66,0,0,0,.55,0ZM190,191a.17.17,0,0,0,0-.32l-2.51-1.46a.59.59,0,0,0-.55,0l-1.1.64a.16.16,0,0,0,0,.31l2.52,1.46a.57.57,0,0,0,.54,0Zm16.27,7.53a.17.17,0,0,0,0-.32l-3.57-2.07a.59.59,0,0,0-.55,0l-2.74,1.59a.17.17,0,0,0,0,.32l3.57,2.06a.59.59,0,0,0,.55,0Zm-7-7.9a.17.17,0,0,0,0-.32l-6.86-4a.66.66,0,0,0-.55,0l-2.37,1.38a.17.17,0,0,0,0,.32l6.85,4a.66.66,0,0,0,.55,0Zm6.85,4a.16.16,0,0,0,0-.31l-2.56-1.49a.59.59,0,0,0-.55,0l-2.37,1.38a.17.17,0,0,0,0,.32l2.56,1.48a.59.59,0,0,0,.55,0Zm-3.43-2c.16-.09.16-.23,0-.32l-2.55-1.49a.66.66,0,0,0-.55,0l-2.38,1.38a.17.17,0,0,0,0,.32l2.56,1.48a.59.59,0,0,0,.55,0Zm12.61-.42a.17.17,0,0,0,0-.32l-2.56-1.49a.66.66,0,0,0-.55,0l-2.37,1.38a.17.17,0,0,0,0,.32l2.56,1.48a.59.59,0,0,0,.55,0Zm-3.43-2a.17.17,0,0,0,0-.32l-2.56-1.48a.57.57,0,0,0-.54,0l-2.38,1.37a.17.17,0,0,0,0,.32l2.56,1.48a.63.63,0,0,0,.55,0Zm-3.42-2a.17.17,0,0,0,0-.32l-2.56-1.48a.59.59,0,0,0-.55,0L203,187.83c-.15.09-.15.23,0,.32l2.55,1.49a.66.66,0,0,0,.55,0Zm-3.43-2a.17.17,0,0,0,0-.32l-2.56-1.48a.59.59,0,0,0-.55,0l-2.37,1.38a.16.16,0,0,0,0,.31l2.56,1.49a.57.57,0,0,0,.54,0Zm12.11,3.16c.15-.09.15-.23,0-.32l-2.55-1.48a.59.59,0,0,0-.55,0L211.66,189a.17.17,0,0,0,0,.32l2.56,1.48a.63.63,0,0,0,.55,0Zm-3.43-2a.17.17,0,0,0,0-.32l-2.56-1.48a.59.59,0,0,0-.55,0L208.24,187a.17.17,0,0,0,0,.32l2.56,1.49a.64.64,0,0,0,.54,0Zm-3.43-2a.17.17,0,0,0,0-.32l-2.56-1.48a.59.59,0,0,0-.55,0L204.81,185a.16.16,0,0,0,0,.31l2.56,1.49a.59.59,0,0,0,.55,0Zm-3.43-2a.16.16,0,0,0,0-.31l-4.43-2.57a.59.59,0,0,0-.55,0L199.51,182a.17.17,0,0,0,0,.32l4.43,2.57a.59.59,0,0,0,.55,0Zm11.24,3.82a.17.17,0,0,0,0-.32l-2.65-1.53a.59.59,0,0,0-.55,0l-1.37.79a.17.17,0,0,0,0,.32l2.66,1.54a.64.64,0,0,0,.54,0Zm-3.56-2.07a.16.16,0,0,0,0-.31l-2.65-1.54a.59.59,0,0,0-.55,0l-1.37.79a.17.17,0,0,0,0,.32l2.65,1.54a.59.59,0,0,0,.55,0ZM211,183.15c.16-.09.16-.23,0-.32l-2.65-1.54a.57.57,0,0,0-.54,0l-1.37.8c-.16.08-.16.23,0,.31l2.65,1.54a.57.57,0,0,0,.54,0Zm-3.56-2.07a.17.17,0,0,0,0-.32l-2.65-1.54a.66.66,0,0,0-.55,0l-1.37.8a.17.17,0,0,0,0,.32l2.65,1.53a.59.59,0,0,0,.55,0Zm31.26,28.57c.16-.09.16-.23,0-.32l-2.55-1.48a.59.59,0,0,0-.55,0l-2.38,1.37a.17.17,0,0,0,0,.32l2.56,1.49a.66.66,0,0,0,.55,0Zm-3.42-2a.17.17,0,0,0,0-.32l-2.56-1.48a.59.59,0,0,0-.55,0l-2.37,1.38c-.16.08-.16.23,0,.31l2.56,1.49a.57.57,0,0,0,.54,0Zm-3.43-2a.17.17,0,0,0,0-.32l-2.56-1.48a.59.59,0,0,0-.55,0l-2.37,1.38a.17.17,0,0,0,0,.32l2.56,1.48a.59.59,0,0,0,.55,0Zm-3.43-2a.16.16,0,0,0,0-.31l-2.56-1.49a.57.57,0,0,0-.54,0l-2.38,1.38a.17.17,0,0,0,0,.32l2.56,1.48a.59.59,0,0,0,.55,0Zm-3.42-2a.17.17,0,0,0,0-.32l-2.56-1.49a.66.66,0,0,0-.55,0l-2.38,1.38a.17.17,0,0,0,0,.32l2.56,1.48a.59.59,0,0,0,.55,0Zm-6.86-4a.17.17,0,0,0,0-.32l-2.56-1.48a.59.59,0,0,0-.55,0l-2.37,1.38a.16.16,0,0,0,0,.31l2.56,1.49a.59.59,0,0,0,.55,0Zm-3.43-2c.16-.08.16-.23,0-.32l-2.56-1.48a.57.57,0,0,0-.54,0l-2.38,1.38a.17.17,0,0,0,0,.32l2.56,1.48a.59.59,0,0,0,.55,0ZM238.09,217a.17.17,0,0,0,0-.32l-2.56-1.48a.59.59,0,0,0-.55,0l-2.74,1.59a.16.16,0,0,0,0,.31l2.56,1.49a.59.59,0,0,0,.55,0Zm-3.43-2a.17.17,0,0,0,0-.32l-2.56-1.48a.59.59,0,0,0-.55,0l-2.74,1.59a.17.17,0,0,0,0,.32l2.56,1.48a.59.59,0,0,0,.55,0Zm-3.43-2a.16.16,0,0,0,0-.31l-2.56-1.49a.57.57,0,0,0-.54,0l-2.74,1.59c-.16.09-.16.23,0,.32l2.55,1.48a.59.59,0,0,0,.55,0Zm13.52.11a.16.16,0,0,0,0-.31l-5.21-3a.66.66,0,0,0-.55,0l-2.37,1.38a.17.17,0,0,0,0,.32l5.21,3a.59.59,0,0,0,.55,0Zm-14.62-4.61a.17.17,0,0,0,0-.32l-2.56-1.48a.57.57,0,0,0-.54,0l-2.38,1.37a.17.17,0,0,0,0,.32l2.56,1.49a.66.66,0,0,0,.55,0Zm-3.42-2c.15-.09.15-.23,0-.32l-2.55-1.48a.59.59,0,0,0-.55,0l-2.38,1.38a.16.16,0,0,0,0,.31l2.56,1.49a.59.59,0,0,0,.55,0Zm-3.34,1.94a.17.17,0,0,0,0-.32l-16.27-9.44a.57.57,0,0,0-.54,0l-2.74,1.59a.17.17,0,0,0,0,.32l16.26,9.43a.59.59,0,0,0,.55,0Zm-.09-3.93a.16.16,0,0,0,0-.31l-2.56-1.49a.59.59,0,0,0-.55,0l-2.37,1.38a.17.17,0,0,0,0,.32l2.56,1.48a.57.57,0,0,0,.54,0Zm-3.43-2a.17.17,0,0,0,0-.32l-2.56-1.49a.66.66,0,0,0-.55,0l-2.37,1.38a.17.17,0,0,0,0,.32l2.56,1.48a.59.59,0,0,0,.55,0Zm-3.43-2a.17.17,0,0,0,0-.32l-2.56-1.48a.57.57,0,0,0-.54,0l-2.38,1.37a.17.17,0,0,0,0,.32L213.5,202a.66.66,0,0,0,.55,0Zm-3.42-2a.17.17,0,0,0,0-.32l-2.56-1.48a.59.59,0,0,0-.55,0l-2.38,1.37a.17.17,0,0,0,0,.32l2.55,1.49a.59.59,0,0,0,.55,0Zm-3.43-2a.17.17,0,0,0,0-.32L207,194.83a.59.59,0,0,0-.55,0l-2.37,1.38c-.15.08-.15.23,0,.32l2.56,1.48a.57.57,0,0,0,.54,0Zm24,13.92a.17.17,0,0,0,0-.32L231,208.75a.59.59,0,0,0-.55,0l-2.37,1.37a.17.17,0,0,0,0,.32l2.56,1.48a.62.62,0,0,0,.55,0Zm3.43,2a.17.17,0,0,0,0-.32l-2.56-1.49a.66.66,0,0,0-.55,0l-2.37,1.38c-.16.09-.16.23,0,.32l2.55,1.48a.59.59,0,0,0,.55,0Zm-15.45-12.83a.17.17,0,0,0,0-.32L219,197.91a.59.59,0,0,0-.55,0l-2.37,1.37a.17.17,0,0,0,0,.32l2.56,1.49a.64.64,0,0,0,.54,0Zm19.88,15.4a.17.17,0,0,0,0-.32l-3.56-2.07a.59.59,0,0,0-.55,0l-2.38,1.38a.17.17,0,0,0,0,.32l3.57,2.06a.59.59,0,0,0,.55,0Zm-13.61-4c.15-.09.15-.23,0-.32l-3.56-2.07a.59.59,0,0,0-.55,0L221,210.28a.17.17,0,0,0,0,.32l3.57,2.07a.66.66,0,0,0,.55,0Z" fillRule="evenodd" fill="url(#m)"/><path d="M210,125.94l0,45.32,94.64,53.82,0-43.6Z" opacity="0.5" fill="url(#n)" style="isolation:isolate"/><path d="M268.27,171v6.41q-1.36,3.94-9.45,8.51l-8.7,4.92q-2.87,1.11-6.72-1.26T228.57,181q-6.36-3.27-.64-6.43a41.75,41.75,0,0,1,12.22-4.41q4.86-2.7,4.18-12t9.76,6.78Z" fill="#e76513" fillRule="evenodd"/><path d="M266.24,169.9v6.42q-.3,3.06-8.38,7.63t-8.46,4.56q-2.86,1.1-6.72-1.26t-14.83-8.57q-3.69-2.38.9-4.77t10.44-5.72q4.86-2.69,4.18-12t9.76,6.78Z" fillRule="evenodd" fill="url(#o)"/><path d="M303.49,106.8,218.79,58c-1.38-.8-2.66-.73-4.34.29s-3,2-3,2.52l2,77a1.92,1.92,0,0,0,.95,1.66l82.39,51.24c1.38.8,6.45-1.7,7.25-3.07a2.85,2.85,0,0,0,.39-1.46v-77.7A1.93,1.93,0,0,0,303.49,106.8Z" fillRule="evenodd" fill="url(#p)"/><path d="M299.11,117.07,216.34,68.85a4.48,4.48,0,0,0-6.73,3.87V139.1a3,3,0,0,0,1.48,2.58l82.77,48.23a4.49,4.49,0,0,0,6.13-1.62,4.44,4.44,0,0,0,.61-2.25V119.65A3,3,0,0,0,299.11,117.07Z" fillRule="evenodd" fill="url(#q)"/><path d="M299.11,108.42,216.33,60.48a4.48,4.48,0,0,0-6.72,3.88v60.83l91,52.69V111A3,3,0,0,0,299.11,108.42Z" fill="#b34501" fillRule="evenodd"/><path d="M295.28,112.41,214.34,65.48l-.09,57.63,81,47.12Z" fill="#fff" fillRule="evenodd"/><path d="M254.54,162.54a7.44,7.44,0,0,1-3.37-5.48c0-1.86,1.51-2.42,3.37-1.25a7.41,7.41,0,0,1,3.36,5.48C257.9,163.15,256.4,163.71,254.54,162.54Z" fill="#fff" fillRule="evenodd"/><path d="M129.17,226.37v35.7L85,287.21V249.76Z" fill="url(#r)"/><path d="M85,287l-35.3-20q0-38.34,0-38.49L85,245Z" opacity="0.4" fill="url(#s)" style="isolation:isolate"/><path d="M95.57,206.38l33.52,13.93c.13,5.09.09,7.83-.14,8.22a1.27,1.27,0,0,1-.45.44L86.67,252.05a3.7,3.7,0,0,1-3.67,0L50.07,232.86c-.58-.33-.44-1.38-.44-1.65v-7.3L91.9,206.38A3.7,3.7,0,0,1,95.57,206.38Z" fillRule="evenodd" fill="url(#t)"/><path d="M84.72,217.54v35a5.41,5.41,0,0,1-1.72-.48L50.07,232.86c-.58-.33-.44-1.38-.44-1.65v-7.3L91.9,206.38Q93,205.72,84.72,217.54Z" fillRule="evenodd" fill="url(#u)"/><path d="M91.26,247.28a3.34,3.34,0,0,0,1.51-2.46c0-.84-.67-1.09-1.51-.56a3.33,3.33,0,0,0-1.51,2.46C89.75,247.55,90.43,247.8,91.26,247.28Z" fill="#fff" fillRule="evenodd"/><path d="M95.57,199.75l32.93,19.44a1.2,1.2,0,0,1,0,2.09L86.67,244.36a3.7,3.7,0,0,1-3.67,0L50.07,225.18a1.21,1.21,0,0,1-.44-1.66,1.24,1.24,0,0,1,.44-.44L91.9,199.75A3.7,3.7,0,0,1,95.57,199.75Z" fillRule="evenodd" fill="url(#v)"/><path d="M94,227.55c.31.17.45.38.43.62a.77.77,0,0,1-.45.6,1.81,1.81,0,0,1-.72.19,2.78,2.78,0,0,1-.9-.07l-5.06-1.23-8.07,4.45,2.15,2.82a.56.56,0,0,1,.12.51.73.73,0,0,1-.38.4,2.22,2.22,0,0,1-1.09.26,2.12,2.12,0,0,1-1.11-.24,1.6,1.6,0,0,1-.37-.33l-8.59-11.75a.6.6,0,0,1-.1-.61,1,1,0,0,1,.5-.52,2.62,2.62,0,0,1,.93-.27,3.38,3.38,0,0,1,1.1.06l21,4.9A2.72,2.72,0,0,1,94,227.55Zm-15.92,3L84.49,227l-11.18-2.68ZM98,226.18a2.72,2.72,0,0,1-1.23-.35l-14.58-8.2c-.37-.2-.57-.42-.58-.65s.15-.45.5-.64l5.31-2.93A10.77,10.77,0,0,1,92.54,212a10.34,10.34,0,0,1,5.11,1.35c1.6.9,2.39,1.86,2.38,2.86s-.85,2-2.5,2.87l-4.16,2.29L99,224.58c.38.22.58.44.61.68s-.15.45-.51.66A2.3,2.3,0,0,1,98,226.18Zm-2.66-8.05c2.18-1.2,2.23-2.37.17-3.53a6.12,6.12,0,0,0-6.34.07l-3.92,2.16,6.17,3.46Zm17.62-.19a2.68,2.68,0,0,1-1.22-.35L97,209.35c-.37-.21-.56-.43-.59-.67s.13-.46.47-.65a2.3,2.3,0,0,1,1.17-.27,2.52,2.52,0,0,1,1.22.34L114,216.34c.39.22.59.44.62.68s-.15.45-.52.65A2.18,2.18,0,0,1,112.92,217.94Z" fillRule="evenodd" fill="url(#w)"/><path d="M80.2,195.57v35.8L35.6,256.73V219.16Z" fill="url(#x)"/><path d="M35.6,256.5,0,236.35q0-38.46,0-38.61L35.6,214.39Z" opacity="0.4" fill="url(#y)" style="isolation:isolate"/><path d="M46.6,174.13l33.53,13.93q.2,7.63-.15,8.22a1.16,1.16,0,0,1-.44.44L37.71,219.8a3.7,3.7,0,0,1-3.67,0L1.1,200.62c-.58-.34-.44-1.39-.44-1.66v-7.3l42.28-17.53A3.68,3.68,0,0,1,46.6,174.13Z" fillRule="evenodd" fill="url(#z)"/><path d="M35.75,185.29v35A5,5,0,0,1,34,219.8L1.1,200.62c-.58-.34-.44-1.39-.44-1.66v-7.3l42.28-17.53Q44.07,173.49,35.75,185.29Z" fillRule="evenodd" fill="url(#aa)"/><path d="M42.3,215a3.35,3.35,0,0,0,1.51-2.46c0-.83-.68-1.08-1.51-.56a3.32,3.32,0,0,0-1.52,2.46C40.78,215.3,41.46,215.55,42.3,215Z" fill="#fff" fillRule="evenodd"/><path d="M46.6,167.5l32.94,19.44a1.22,1.22,0,0,1,0,2.1L37.71,212.11a3.7,3.7,0,0,1-3.67,0L1.1,192.93a1.2,1.2,0,0,1-.44-1.65,1.19,1.19,0,0,1,.44-.45L42.94,167.5A3.68,3.68,0,0,1,46.6,167.5Z" fillRule="evenodd" fill="url(#ab)"/><path d="M44.12,195.18l3.21,1.87-2.5,1.56-3.21-1.87Zm-5.71,0,3.21,1.87-2.5,1.56-3.21-1.87Zm9.34-10.58c5.72,3.52,7,8.62,2.92,11.51l-.32.21h0l-4.14-2.54c2.65-1.75,1.93-4.89-1.57-7s-8.45-2.51-11-.79-1.89,4.82,1.55,7l-3.07,2c-5.83-3.58-7-8.79-2.7-11.65S41.93,181,47.75,184.6Zm-5.49,6,3.93,2.54-2.92,2-3.93-2.54Z" fillRule="evenodd" fill="url(#ac)"/><path d="M102.4,254.25H98.7v8.33h3.7Z" fill="#d36600" fillRule="evenodd"/><path d="M98.7,262.58v49L143.3,337V286.17Z" opacity="0.5" fill="url(#ad)" style="isolation:isolate"/><path d="M143.3,337,194,308.3q0-56.58,0-56.8L143.3,275.22Z" opacity="0.2" fill="url(#ae)" style="isolation:isolate"/><path d="M98.7,260.41v2.95a2.13,2.13,0,0,0,1.13,1.35l40.48,23.17a6.06,6.06,0,0,0,5.44,0L167,275.73a1.36,1.36,0,0,0,.81-1.14s0-1,0-2.77l-1-1.77,26.08-14.92a1.9,1.9,0,0,0,1.13-1.62v-2.75Z" fillRule="evenodd" fill="url(#af)"/><path d="M166.77,267.27l26.08-14.92c1.5-.86,1.5-2.26,0-3.12L157.43,229a6.08,6.08,0,0,0-5.45,0L99.83,258.81c-1.51.86-1.51,2.26,0,3.12l40.48,23.17a6.06,6.06,0,0,0,5.44,0L167,273a1.26,1.26,0,0,0,.78-1.32Z" fillRule="evenodd" fill="url(#ag)"/><path d="M145.92,238.05l-41.07,23.5a1.19,1.19,0,0,0-.44,1.63,1.21,1.21,0,0,0,.44.43l41.07,23.51a3.63,3.63,0,0,0,3.61,0l41.07-23.51A1.17,1.17,0,0,0,191,262a1.24,1.24,0,0,0-.44-.44l-41.07-23.5A3.63,3.63,0,0,0,145.92,238.05Z" fillRule="evenodd" fill="url(#ah)"/><path d="M147.77,234.34,106.7,257.85a1.18,1.18,0,0,0-.44,1.62,1.32,1.32,0,0,0,.44.44l41.07,23.5a3.63,3.63,0,0,0,3.61,0l41.07-23.5a1.19,1.19,0,0,0,.44-1.63,1.14,1.14,0,0,0-.44-.43l-41.07-23.51A3.68,3.68,0,0,0,147.77,234.34Z" fill="#fff" fillRule="evenodd"/><path d="M147.77,232.49,106.7,256a1.19,1.19,0,0,0-.44,1.63,1.32,1.32,0,0,0,.44.44l41.07,23.5a3.63,3.63,0,0,0,3.61,0l41.07-23.5a1.19,1.19,0,0,0,.44-1.63,1.24,1.24,0,0,0-.44-.44l-41.07-23.5A3.63,3.63,0,0,0,147.77,232.49Z" fillRule="evenodd" fill="url(#ai)"/><path d="M98.7,253V256a2.1,2.1,0,0,0,1.13,1.34l40.48,23.18a6.06,6.06,0,0,0,5.44,0L167,268.31a1.35,1.35,0,0,0,.81-1.13s0-1,0-2.77l-1-1.77,26.08-14.93A1.88,1.88,0,0,0,194,246.1v-2.76Z" fillRule="evenodd" fill="url(#aj)"/><path d="M166.77,259.86l26.08-14.92c1.5-.87,1.5-2.26,0-3.12l-35.42-20.28a6.08,6.08,0,0,0-5.45,0L99.83,251.4c-1.51.86-1.51,2.25,0,3.12l40.48,23.17a6.06,6.06,0,0,0,5.44,0L167,265.54a1.26,1.26,0,0,0,.78-1.32Z" fillRule="evenodd" fill="url(#ak)"/><path d="M166.77,259.86l26.08-14.92c1.5-.87,1.5-2.26,0-3.12l-35.42-20.28a6.08,6.08,0,0,0-5.45,0L99.83,251.4c-1.51.86-1.51,2.25,0,3.12l40.48,23.17a6.06,6.06,0,0,0,5.44,0L167,265.54a1.26,1.26,0,0,0,.78-1.32Z" fillRule="evenodd" fill="url(#al)"/><path d="M152,221.54l-5.29,3v52.58l9-5.17V221A6.06,6.06,0,0,0,152,221.54Z" fillRule="evenodd" opacity="0.5" fill="url(#am)" style="isolation:isolate"/><path d="M121.86,242.71l-17.09,9.74a.48.48,0,0,0-.18.67.52.52,0,0,0,.18.18l1.51.86a1.49,1.49,0,0,0,1.5,0l17.1-9.74a.48.48,0,0,0,.18-.67.45.45,0,0,0-.18-.18l-1.52-.86A1.49,1.49,0,0,0,121.86,242.71Z" fill="#fdfdfd" fillRule="evenodd"/></svg>