<svg xmlns="http://www.w3.org/2000/svg" xmlns:xlink="http://www.w3.org/1999/xlink" width="285.49" height="333.12" viewBox="0 0 285.49 333.12"><defs><linearGradient id="a" x1="-104.26" y1="317.61" x2="-104.52" y2="316.25" gradientTransform="matrix(63.76, 0, 0, -126.02, 6892.19, 40054.92)" gradientUnits="userSpaceOnUse"><stop offset="0" stop-color="#fab643"/><stop offset="0.56" stop-color="#f48222"/><stop offset="1" stop-color="#f16322" stop-opacity="0"/></linearGradient><linearGradient id="b" x1="-104.15" y1="317.43" x2="-104.65" y2="316.1" gradientTransform="matrix(67.22, 0, 0, -128.29, 7257.55, 40687.41)" gradientUnits="userSpaceOnUse"><stop offset="0" stop-color="#fab643"/><stop offset="0.56" stop-color="#f48222"/><stop offset="1" stop-color="#f16322"/></linearGradient><linearGradient id="c" x1="-105.11" y1="316.89" x2="-103.84" y2="317.96" gradientTransform="matrix(51.32, 0, 0, -33.15, 5581.87, 10643.46)" gradientUnits="userSpaceOnUse"><stop offset="0" stop-color="#ffad38"/><stop offset="1" stop-color="#f36309"/></linearGradient><linearGradient id="d" x1="-105.11" y1="316.89" x2="-103.84" y2="317.96" gradientTransform="matrix(51.32, 0, 0, -33.16, 5581.87, 10652.83)" xlink:href="#c"/><linearGradient id="e" x1="-104.16" y1="318.11" x2="-102.89" y2="319.18" gradientTransform="matrix(25.66, 0, 0, -18.33, 2868.43, 5940.23)" xlink:href="#c"/><linearGradient id="f" x1="-105.11" y1="316.89" x2="-103.84" y2="317.96" gradientTransform="matrix(51.32, 0, 0, -33.16, 5581.87, 10615.52)" xlink:href="#c"/><linearGradient id="g" x1="-105.11" y1="316.89" x2="-103.84" y2="317.96" gradientTransform="matrix(51.32, 0, 0, -33.15, 5581.87, 10624.73)" xlink:href="#c"/><linearGradient id="h" x1="-102.1" y1="317.91" x2="-103.57" y2="317.44" gradientTransform="matrix(21.63, 0, 0, -32.18, 2442.31, 10277.43)" xlink:href="#c"/><linearGradient id="i" x1="-100.32" y1="324.75" x2="-101.87" y2="323.48" gradientTransform="matrix(11.66, 0, 0, -6.37, 1393.04, 2122.3)" xlink:href="#c"/><linearGradient id="j" x1="-105.59" y1="318.06" x2="-104.76" y2="316.2" gradientTransform="matrix(124.72, 0, 0, -148.1, 13277.6, 47119.57)" xlink:href="#a"/><linearGradient id="k" x1="-104.4" y1="317.61" x2="-104.81" y2="316.22" gradientTransform="matrix(97.14, 0, 0, -125.94, 10263.87, 40125.87)" xlink:href="#a"/><linearGradient id="l" x1="-105.16" y1="317.23" x2="-104.97" y2="316.2" gradientTransform="matrix(222.68, 0, 0, -126.01, 23539.56, 40078.77)" xlink:href="#b"/><linearGradient id="n" x1="-104.83" y1="318.14" x2="-104.24" y2="316.81" gradientTransform="matrix(65.32, 0, 0, -37.83, 7001.22, 12219.09)" gradientUnits="userSpaceOnUse"><stop offset="0" stop-color="#fab643"/><stop offset="0.6" stop-color="#f48222"/><stop offset="1" stop-color="#f16322"/></linearGradient><linearGradient id="o" x1="-105.02" y1="317.1" x2="-104.83" y2="316.08" gradientTransform="matrix(132.99, 0, 0, -184.6, 14050.27, 58510.49)" xlink:href="#b"/><linearGradient id="p" x1="-105.1" y1="317.34" x2="-104.9" y2="316.32" gradientTransform="matrix(167.96, 0, 0, -97.52, 17762.88, 31060.7)" xlink:href="#b"/><linearGradient id="q" x1="-103.03" y1="317.91" x2="-104.13" y2="316.75" gradientTransform="matrix(29.96, 0, 0, -40.02, 3244.47, 12816.58)" gradientUnits="userSpaceOnUse"><stop offset="0" stop-color="#ffd99f" stop-opacity="0"/><stop offset="0.2" stop-color="#ffd79b"/><stop offset="0.52" stop-color="#f36309"/><stop offset="0.82" stop-color="#dc7400"/><stop offset="1" stop-color="#ffd89e" stop-opacity="0"/></linearGradient><linearGradient id="r" x1="-104.5" y1="317.44" x2="-104.29" y2="316.73" gradientTransform="matrix(50.36, 0, 0, -83.38, 5484.49, 26600.77)" xlink:href="#b"/><linearGradient id="s" x1="-103.98" y1="317.82" x2="-103.53" y2="316.52" gradientTransform="matrix(31.2, 0, 0, -46.95, 3469.65, 15092.68)" xlink:href="#b"/><linearGradient id="t" x1="-104.49" y1="317.07" x2="-104.49" y2="316.07" gradientTransform="matrix(65.13, 0, 0, -100.03, 6951.75, 31726.72)" gradientUnits="userSpaceOnUse"><stop offset="0" stop-color="#d46700"/><stop offset="1" stop-color="#fa9d2c"/></linearGradient><linearGradient id="u" x1="-104.78" y1="317.44" x2="-104.17" y2="315.83" gradientTransform="matrix(65.13, 0, 0, -82.54, 6951.75, 26209.49)" xlink:href="#b"/><linearGradient id="v" x1="-104.38" y1="317.13" x2="-104.43" y2="316.28" gradientTransform="matrix(58.1, 0, 0, -81.64, 6211.45, 25901.28)" gradientUnits="userSpaceOnUse"><stop offset="0" stop-color="#fff"/><stop offset="1" stop-color="#e2e7ec"/></linearGradient><linearGradient id="w" x1="-104.6" y1="317.43" x2="-104.41" y2="316.41" gradientTransform="matrix(62.21, 0, 0, -82.58, 6645.16, 26222.03)" xlink:href="#b"/><linearGradient id="x" x1="-105.07" y1="317.55" x2="-103.84" y2="316.35" gradientTransform="matrix(59.31, 0, 0, -49.97, 6341.24, 15929.92)" xlink:href="#b"/><linearGradient id="y" x1="-105.06" y1="318.29" x2="-104.42" y2="316.43" gradientTransform="matrix(65.14, 0, 0, -87.55, 6952.5, 27832.48)" xlink:href="#a"/></defs><path d="M283.74,136.27l-60.85-34.89a2.35,2.35,0,0,1-1.17-2V11.57a1.17,1.17,0,0,1,1.17-1.17,1.21,1.21,0,0,1,.58.16L284.2,45.29a2.35,2.35,0,0,1,1.17,2l.12,87.94a1.17,1.17,0,0,1-1.17,1.17A1.19,1.19,0,0,1,283.74,136.27Z" fill="#feab33" opacity="0.2" style="isolation:isolate"/><path d="M272.12,144.4l-60.85-34.88a2.33,2.33,0,0,1-1.17-2V19.71a1.16,1.16,0,0,1,1.16-1.17,1.08,1.08,0,0,1,.58.16l60.73,34.73a2.34,2.34,0,0,1,1.18,2l.11,87.94a1.16,1.16,0,0,1-1.16,1.17A1.06,1.06,0,0,1,272.12,144.4Z" fill="#feab33" opacity="0.2" style="isolation:isolate"/><path d="M260.49,237.39l-60.85-34.88a2.35,2.35,0,0,1-1.17-2V112.7a1.17,1.17,0,0,1,1.17-1.17,1.13,1.13,0,0,1,.57.15L261,146.42a2.35,2.35,0,0,1,1.17,2l.11,87.94a1.16,1.16,0,0,1-1.16,1.17A1.1,1.1,0,0,1,260.49,237.39Z" opacity="0.2" fill="url(#a)" style="isolation:isolate"/><path d="M262.29,152.61c.17.1,3.45.08,3.44-2.31l-.11-89.1a2.31,2.31,0,0,0-1.18-2l-61-34.25h0c-3-1.66-4.8.6-4.89,2.28v.3q.06,4.08,2.28,86.9a2.34,2.34,0,0,0,1.18,2Z" fill="url(#b)"/><path d="M260.49,152.54l-60.85-34.88a2.35,2.35,0,0,1-1.17-2V27.84a1.16,1.16,0,0,1,1.17-1.16,1.13,1.13,0,0,1,.57.15L261,61.57a2.32,2.32,0,0,1,1.17,2l.11,87.94a1.16,1.16,0,0,1-1.16,1.17A1.21,1.21,0,0,1,260.49,152.54Z" fill="#fdfdfd"/><path d="M204,97.56v3.5l51.32,29.66v-3.5Z" fill="url(#c)"/><path d="M204,106.9v3.5l51.32,29.65v-3.5Z" fill="url(#d)"/><path d="M229.64,106.56v-3.5L204,88.23v3.5Z" fill="url(#e)"/><path d="M204,69.56v3.5l51.32,29.66v-3.5Z" fill="url(#f)"/><path d="M204,78.9v3.5l51.32,29.65v-3.5Z" fill="url(#g)"/><path d="M205.72,41.35,225,52.24a1.14,1.14,0,0,1,.59,1v19a1.16,1.16,0,0,1-1.16,1.17,1.13,1.13,0,0,1-.57-.15l-19.3-10.89a1.15,1.15,0,0,1-.6-1v-19a1.17,1.17,0,0,1,1.74-1Zm.6,19.3,17,9.56V53.93l-17-9.56Z" fill="url(#h)"/><path d="M218.3,54.9c.44-.22,1.18.18,1.65.88s.48,1.46,0,1.68l-6.72,3.23c-.42.21-1.13-.15-1.6-.82l-2.61-3.69c-.49-.7-.55-1.47-.13-1.72s1.15.1,1.64.79l1.77,2.51Z" fill="url(#i)"/><path d="M261.79,185q.24.14.75,70.5l-124.72,77.6v-74.7Z" opacity="0.6" fill="url(#j)" style="isolation:isolate"/><path d="M1.74,72,124.89.32a2.34,2.34,0,0,1,3.19.84,2.38,2.38,0,0,1,.31,1.17V105.94a3.47,3.47,0,0,1-1.74,3L3.5,180.61a2.33,2.33,0,0,1-3.5-2V75A3.5,3.5,0,0,1,1.74,72Z" fill="#feab33" opacity="0.2" style="isolation:isolate"/><path d="M19.18,83.59,142.33,11.94a2.34,2.34,0,0,1,3.19.84,2.42,2.42,0,0,1,.31,1.18V117.57a3.5,3.5,0,0,1-1.74,3L20.94,192.23a2.32,2.32,0,0,1-3.18-.84,2.29,2.29,0,0,1-.32-1.17V86.61A3.47,3.47,0,0,1,19.18,83.59Z" fill="#feab33" opacity="0.2" style="isolation:isolate"/><path d="M137.82,333.12l-97.14-55q0-70.54.08-71l97.06,51.24Z" opacity="0.2" fill="url(#k)" style="isolation:isolate"/><path d="M172.81,139.41l89,45.61a4.06,4.06,0,0,1-.83,6.91L137.82,263.36a7.78,7.78,0,0,1-7.73,0L42.9,213.48c-1.76-1-2.48-3.11-2.14-6.3l124.32-67.77A7.78,7.78,0,0,1,172.81,139.41Z" fill="url(#l)"/><path d="M172.81,139.41l89,45.61a4.06,4.06,0,0,1-.83,6.91L137.82,263.36a7.78,7.78,0,0,1-7.73,0L42.9,213.48c-1.76-1-2.48-3.11-2.14-6.3l124.32-67.77A7.78,7.78,0,0,1,172.81,139.41Z" fill="url(#l)"/><path d="M172.86,133.57,261,184a2.55,2.55,0,0,1,.95,3.49,2.67,2.67,0,0,1-.95.94L137.87,259.86a7.78,7.78,0,0,1-7.73,0L42,209.43A2.56,2.56,0,0,1,42,205l123.15-71.43A7.78,7.78,0,0,1,172.86,133.57Z" fill="#fdebd1"/><path d="M182.29,194.69l26,14.86a.75.75,0,0,1,.28,1,.8.8,0,0,1-.28.27L172,231.91a2.32,2.32,0,0,1-2.28,0l-26-14.87a.75.75,0,0,1-.28-1,.8.8,0,0,1,.28-.27L180,194.69A2.27,2.27,0,0,1,182.29,194.69Z" fill="url(#n)"/><path d="M37.77,92.88,160.91,21.24c1.12-.65,8.11-4.18,8.11,4q0,8.2-4.6,101.59a3.47,3.47,0,0,1-1.74,3l-118.9,74.2c-4.64,1.75-7.75-1.91-7.75-5.74V95.9A3.49,3.49,0,0,1,37.77,92.88Z" fill="url(#o)"/><path d="M42.43,95.21,165.58,23.57a2.34,2.34,0,0,1,3.19.84,2.41,2.41,0,0,1,.31,1.17V129.2a3.51,3.51,0,0,1-1.73,3L44.19,203.86a2.33,2.33,0,0,1-3.5-2V98.23A3.5,3.5,0,0,1,42.43,95.21Z" fill="#ffdbb4"/><path d="M48.27,97.55,159.75,32.89a2.34,2.34,0,0,1,3.19.85,2.41,2.41,0,0,1,.31,1.17v92a3.47,3.47,0,0,1-1.74,3L50,194.53a2.33,2.33,0,0,1-3.5-2v-92A3.48,3.48,0,0,1,48.27,97.55Z" fill="#fdfdfd"/><path d="M203,174.08l-6.75-3.92c-.37-.21-.37-.56,0-.78l6.19-3.6a1.53,1.53,0,0,1,1.35,0l6.75,3.92a.42.42,0,0,1,0,.79l-6.19,3.59A1.46,1.46,0,0,1,203,174.08ZM57.21,212.74c-.38-.21-.38-.56,0-.78l6.3-3.66a1.46,1.46,0,0,1,1.35,0l5.85,3.4c.38.21.38.56,0,.78l-6.3,3.66a1.46,1.46,0,0,1-1.35,0Zm8.44-4.9c-.37-.22-.37-.57,0-.78L72,203.4a1.49,1.49,0,0,1,1.35,0l5.85,3.4a.42.42,0,0,1,0,.79l-6.31,3.66a1.53,1.53,0,0,1-1.35,0Zm12.94,2c-.37-.21-.37-.56,0-.78l6.31-3.66a1.46,1.46,0,0,1,1.35,0l5.85,3.39a.42.42,0,0,1,0,.79l-6.31,3.66a1.46,1.46,0,0,1-1.35,0ZM87,205c-.37-.22-.37-.57,0-.78l6.3-3.67a1.53,1.53,0,0,1,1.35,0l5.86,3.4a.41.41,0,0,1,0,.78l-6.3,3.67a1.53,1.53,0,0,1-1.35,0Zm8.44-4.9a.42.42,0,0,1,0-.79l6.31-3.66a1.46,1.46,0,0,1,1.35,0L109,199c.37.21.37.56,0,.78l-6.31,3.66a1.46,1.46,0,0,1-1.35,0Zm8.45-4.91c-.37-.21-.37-.56,0-.78l6.3-3.66a1.48,1.48,0,0,1,1.36,0l5.85,3.39a.42.42,0,0,1,0,.79l-6.3,3.66a1.46,1.46,0,0,1-1.35,0Zm8.44-4.9a.42.42,0,0,1,0-.79l6.3-3.66a1.53,1.53,0,0,1,1.35,0l5.85,3.4c.37.22.37.57,0,.78l-6.31,3.67a1.53,1.53,0,0,1-1.35,0Zm8.45-4.9a.42.42,0,0,1,0-.79l6.3-3.66a1.48,1.48,0,0,1,1.36,0l5.85,3.4c.37.21.37.56,0,.78l-6.3,3.66a1.46,1.46,0,0,1-1.35,0Zm8.44-4.91a.41.41,0,0,1,0-.78l6.3-3.66a1.46,1.46,0,0,1,1.35,0l5.85,3.39a.42.42,0,0,1,0,.79l-6.3,3.66a1.48,1.48,0,0,1-1.36,0Zm8.45-4.9a.42.42,0,0,1,0-.79l6.3-3.66a1.55,1.55,0,0,1,1.36,0l5.85,3.4a.41.41,0,0,1,0,.78l-6.3,3.66a1.49,1.49,0,0,1-1.35,0ZM74.1,202.94a.42.42,0,0,1,0-.79l6.3-3.66a1.49,1.49,0,0,1,1.35,0l5.85,3.4c.38.22.38.57,0,.78l-6.3,3.66a1.46,1.46,0,0,1-1.35,0ZM82.54,198c-.37-.21-.37-.56,0-.78l6.31-3.66a1.46,1.46,0,0,1,1.35,0l5.85,3.4c.37.21.37.56,0,.78l-6.31,3.66a1.46,1.46,0,0,1-1.35,0Zm8.45-4.9c-.38-.22-.38-.57,0-.78l6.3-3.66a1.49,1.49,0,0,1,1.35,0l5.85,3.4a.42.42,0,0,1,0,.79l-6.3,3.66a1.53,1.53,0,0,1-1.35,0Zm8.44-4.9a.42.42,0,0,1,0-.79l6.31-3.66a1.46,1.46,0,0,1,1.35,0l5.85,3.4a.41.41,0,0,1,0,.78l-6.31,3.66a1.46,1.46,0,0,1-1.35,0Zm8.45-4.91c-.38-.21-.38-.56,0-.78l6.3-3.66a1.46,1.46,0,0,1,1.35,0l5.85,3.39a.42.42,0,0,1,0,.79l-6.3,3.66a1.46,1.46,0,0,1-1.35,0Zm8.44-4.9c-.37-.22-.37-.57,0-.78l6.31-3.67a1.53,1.53,0,0,1,1.35,0l5.85,3.4a.42.42,0,0,1,0,.79l-6.31,3.66a1.53,1.53,0,0,1-1.35,0Zm8.45-4.9c-.38-.22-.37-.57,0-.79l6.3-3.66a1.46,1.46,0,0,1,1.35,0l5.85,3.4c.38.21.38.56,0,.78l-6.3,3.66a1.46,1.46,0,0,1-1.35,0Zm8.44-4.91a.41.41,0,0,1,0-.78l6.31-3.66a1.46,1.46,0,0,1,1.35,0l5.85,3.39a.42.42,0,0,1,0,.79L140.41,172a1.46,1.46,0,0,1-1.35,0Zm-67.79,48.9c-.37-.21-.37-.56,0-.78l10.92-6.34a1.46,1.46,0,0,1,1.35,0l5.85,3.39a.42.42,0,0,1,0,.79l-10.92,6.34a1.46,1.46,0,0,1-1.35,0Zm-14-8.1c-.37-.21-.37-.56,0-.78L58,204.84a1.46,1.46,0,0,1,1.35,0l3.38,2c.37.21.37.56,0,.78l-6.54,3.79a1.46,1.46,0,0,1-1.35,0Zm8.78-5.1c-.37-.21-.37-.56,0-.78l6.53-3.79a1.46,1.46,0,0,1,1.35,0l3.38,2c.37.21.37.56,0,.78L65,206.27a1.46,1.46,0,0,1-1.35,0Zm8.78-5.1c-.37-.21-.37-.56,0-.78l6.54-3.79a1.46,1.46,0,0,1,1.35,0l3.37,2a.41.41,0,0,1,0,.78l-6.53,3.79a1.46,1.46,0,0,1-1.35,0Zm8.79-5.1c-.38-.21-.37-.56,0-.78l6.53-3.79a1.46,1.46,0,0,1,1.35,0l3.38,2c.37.21.37.56,0,.78l-6.53,3.79a1.46,1.46,0,0,1-1.35,0ZM86.6,189c-.37-.21-.37-.56,0-.78l6.53-3.79a1.46,1.46,0,0,1,1.35,0l3.38,2a.41.41,0,0,1,0,.78L91.33,191A1.46,1.46,0,0,1,90,191Zm8.78-5.1c-.37-.21-.37-.56,0-.78l6.54-3.79a1.46,1.46,0,0,1,1.35,0l3.37,2a.41.41,0,0,1,0,.78l-6.53,3.79a1.49,1.49,0,0,1-1.35,0Zm8.79-5.1c-.38-.21-.38-.56,0-.78l6.53-3.79a1.46,1.46,0,0,1,1.35,0l3.37,2a.41.41,0,0,1,0,.78l-6.53,3.79a1.46,1.46,0,0,1-1.35,0Zm8.78-5.09a.42.42,0,0,1,0-.79l6.53-3.79a1.46,1.46,0,0,1,1.35,0l3.38,2a.41.41,0,0,1,0,.78l-6.53,3.79a1.49,1.49,0,0,1-1.35,0Zm8.78-5.1a.42.42,0,0,1,0-.79l6.53-3.79a1.46,1.46,0,0,1,1.35,0l3.38,2c.37.22.37.57,0,.78l-6.53,3.8a1.53,1.53,0,0,1-1.35,0Zm8.79-5.1a.42.42,0,0,1,0-.79l6.53-3.79a1.46,1.46,0,0,1,1.35,0l3.37,2a.41.41,0,0,1,0,.78l-6.53,3.8a1.53,1.53,0,0,1-1.35,0Zm57-16.88,14.06,8.17c.37.21.37.56,0,.78l-4.39,2.55a1.46,1.46,0,0,1-1.35,0l-7.54-4.38-1.24.72a1.46,1.46,0,0,1-1.35,0l-5.85-3.39a.42.42,0,0,1,0-.79l6.31-3.66A1.46,1.46,0,0,1,187.48,146.64Zm-31.31,27.72a.42.42,0,0,1,0-.79l6.3-3.66a1.55,1.55,0,0,1,1.36,0l5.85,3.4a.41.41,0,0,1,0,.78l-6.3,3.66a1.46,1.46,0,0,1-1.35,0Zm8.44-4.91c-.37-.21-.37-.56,0-.78l6.31-3.66a1.46,1.46,0,0,1,1.35,0l5.85,3.39a.42.42,0,0,1,0,.79l-6.31,3.66a1.46,1.46,0,0,1-1.35,0Zm8.45-4.9c-.37-.22-.37-.57,0-.78l6.3-3.66a1.51,1.51,0,0,1,1.36,0l5.85,3.4a.42.42,0,0,1,0,.79l-6.3,3.66a1.53,1.53,0,0,1-1.35,0Zm8.44-4.9a.42.42,0,0,1,0-.79l6.3-3.66a1.49,1.49,0,0,1,1.35,0l5.85,3.4c.37.21.37.56,0,.78l-6.3,3.66a1.48,1.48,0,0,1-1.36,0Zm-2,20.26a.42.42,0,0,1,0-.79l6.31-3.66a1.46,1.46,0,0,1,1.35,0l6.75,3.92c.37.22.37.57,0,.78l-6.31,3.66a1.46,1.46,0,0,1-1.35,0Zm12.5-2.56c-.38-.21-.38-.56,0-.78l6.19-3.6a1.53,1.53,0,0,1,1.35,0l2.7,1.57a.42.42,0,0,1,0,.79L196,178.92a1.46,1.46,0,0,1-1.35,0Zm16.66-9.67a.42.42,0,0,1,0-.79l6.2-3.59a1.46,1.46,0,0,1,1.35,0l2.7,1.57c.37.21.37.56,0,.78l-6.2,3.59a1.49,1.49,0,0,1-1.35,0Zm-40.08,18.57a.42.42,0,0,1,0-.79l8.78-5.1a1.53,1.53,0,0,1,1.35,0l6.75,3.92a.42.42,0,0,1,0,.79l-8.78,5.1a1.53,1.53,0,0,1-1.35,0Zm17.12-19.48a.42.42,0,0,1,0-.79l16.89-9.8a1.46,1.46,0,0,1,1.35,0l5.85,3.39a.42.42,0,0,1,0,.79l-16.89,9.81a1.53,1.53,0,0,1-1.35,0Zm-16.89,9.81a.42.42,0,0,1,0-.79l6.31-3.66a1.46,1.46,0,0,1,1.35,0l5.85,3.4c.37.21.37.56,0,.78L176,180a1.46,1.46,0,0,1-1.35,0Zm8.45-4.91c-.38-.21-.38-.56,0-.78l6.3-3.66a1.46,1.46,0,0,1,1.35,0l5.85,3.39a.42.42,0,0,1,0,.79l-6.3,3.66a1.49,1.49,0,0,1-1.35,0Zm-31.07-1c-.37-.21-.37-.56,0-.78l6.3-3.66a1.46,1.46,0,0,1,1.35,0l5.85,3.4c.37.21.37.56,0,.78l-6.3,3.66a1.48,1.48,0,0,1-1.36,0Zm8.45-4.9c-.37-.22-.37-.57,0-.78l6.31-3.66a1.46,1.46,0,0,1,1.35,0l5.85,3.39a.42.42,0,0,1,0,.79l-6.31,3.66a1.53,1.53,0,0,1-1.35,0Zm8.44-4.9a.42.42,0,0,1,0-.79l6.3-3.66a1.53,1.53,0,0,1,1.35,0l5.85,3.4c.37.22.37.57,0,.78l-6.3,3.66a1.51,1.51,0,0,1-1.36,0Zm8.45-4.91c-.37-.21-.37-.56,0-.78l6.31-3.66a1.46,1.46,0,0,1,1.35,0l5.85,3.4c.37.21.37.56,0,.78l-6.31,3.66a1.46,1.46,0,0,1-1.35,0Zm-29.83,7.79c-.37-.22-.37-.57,0-.78l6.3-3.67a1.53,1.53,0,0,1,1.35,0l5.86,3.4a.41.41,0,0,1,0,.78l-6.3,3.67a1.53,1.53,0,0,1-1.35,0Zm8.44-4.9a.42.42,0,0,1,0-.79l6.31-3.66a1.46,1.46,0,0,1,1.35,0l5.85,3.4c.37.21.37.56,0,.78l-6.31,3.66a1.46,1.46,0,0,1-1.35,0Zm8.45-4.91a.41.41,0,0,1,0-.78l6.3-3.66a1.48,1.48,0,0,1,1.36,0l5.84,3.39a.42.42,0,0,1,0,.79l-6.3,3.66a1.46,1.46,0,0,1-1.35,0ZM167,149c-.37-.22-.37-.57,0-.78l10.93-6.35a1.53,1.53,0,0,1,1.35,0l5.85,3.4c.37.22.37.57,0,.78l-10.93,6.35a1.53,1.53,0,0,1-1.35,0Zm-27.69,9.42a.42.42,0,0,1,0-.79l6.53-3.79a1.46,1.46,0,0,1,1.35,0l3.38,2a.41.41,0,0,1,0,.78l-6.53,3.8a1.53,1.53,0,0,1-1.35,0Zm8.78-5.1a.42.42,0,0,1,0-.79l6.53-3.79a1.46,1.46,0,0,1,1.35,0l3.38,2c.37.22.37.57,0,.78l-6.53,3.8a1.53,1.53,0,0,1-1.35,0Zm8.78-5.1a.42.42,0,0,1,0-.79l6.54-3.79a1.46,1.46,0,0,1,1.35,0l3.37,2c.37.22.37.57,0,.78l-6.53,3.8a1.53,1.53,0,0,1-1.35,0Zm8.79-5.1c-.38-.22-.37-.57,0-.79l6.53-3.79a1.46,1.46,0,0,1,1.35,0l3.38,2a.41.41,0,0,1,0,.78l-6.53,3.8a1.53,1.53,0,0,1-1.35,0Zm-77,70.47a.42.42,0,0,1,0-.79l6.3-3.66a1.46,1.46,0,0,1,1.35,0l5.85,3.4c.38.21.38.56,0,.78L95.81,217a1.46,1.46,0,0,1-1.35,0Zm8.44-4.91a.41.41,0,0,1,0-.78l6.31-3.66a1.46,1.46,0,0,1,1.35,0l5.85,3.39a.42.42,0,0,1,0,.79l-6.31,3.66a1.49,1.49,0,0,1-1.35,0Zm8.45-4.9c-.38-.22-.37-.57,0-.79l6.3-3.66a1.53,1.53,0,0,1,1.35,0l5.85,3.4c.38.22.38.57,0,.78l-6.3,3.66a1.49,1.49,0,0,1-1.35,0Zm8.44-4.9a.42.42,0,0,1,0-.79l6.31-3.66a1.46,1.46,0,0,1,1.35,0l5.85,3.4c.37.21.37.56,0,.78l-6.31,3.66a1.46,1.46,0,0,1-1.35,0Zm8.45-4.91a.41.41,0,0,1,0-.78l6.3-3.66a1.46,1.46,0,0,1,1.35,0l5.86,3.39a.42.42,0,0,1,0,.79l-6.3,3.66a1.53,1.53,0,0,1-1.35,0Zm16.89-9.81c-.37-.21-.37-.56,0-.78l6.3-3.66a1.48,1.48,0,0,1,1.36,0l5.84,3.4c.38.21.38.56,0,.78l-6.3,3.66a1.46,1.46,0,0,1-1.35,0Zm8.44-4.9c-.37-.22-.37-.57,0-.78l6.31-3.66a1.46,1.46,0,0,1,1.35,0l5.85,3.39a.42.42,0,0,1,0,.79l-6.31,3.66a1.53,1.53,0,0,1-1.35,0ZM90.06,231.82a.42.42,0,0,1,0-.79l6.3-3.66a1.53,1.53,0,0,1,1.35,0l6.75,3.92a.42.42,0,0,1,0,.79l-6.3,3.66a1.53,1.53,0,0,1-1.35,0Zm8.44-4.91c-.37-.21-.37-.56,0-.78l6.31-3.66a1.46,1.46,0,0,1,1.35,0l6.75,3.92a.41.41,0,0,1,0,.78l-6.31,3.66a1.46,1.46,0,0,1-1.35,0ZM107,222c-.38-.22-.38-.57,0-.78l6.3-3.66a1.46,1.46,0,0,1,1.35,0l6.75,3.91a.42.42,0,0,1,0,.79l-6.3,3.66a1.46,1.46,0,0,1-1.35,0Zm-33.32.27c-.37-.22-.37-.57,0-.78L86.47,214a1.53,1.53,0,0,1,1.35,0l5.85,3.4c.37.22.37.57,0,.78l-12.84,7.46a1.53,1.53,0,0,1-1.35,0Zm36-11.38c-.38-.22-.38-.57,0-.78l6.3-3.66a1.46,1.46,0,0,1,1.35,0l5.85,3.39a.42.42,0,0,1,0,.79l-6.3,3.66a1.53,1.53,0,0,1-1.35,0Zm8.44-4.9a.42.42,0,0,1,0-.79l6.31-3.66a1.53,1.53,0,0,1,1.35,0l5.85,3.4a.41.41,0,0,1,0,.78l-6.31,3.66a1.46,1.46,0,0,1-1.35,0Zm8.21,4.77a.42.42,0,0,1,0-.79l40.09-23.27a1.46,1.46,0,0,1,1.35,0l6.75,3.91a.42.42,0,0,1,0,.79l-40.09,23.27a1.46,1.46,0,0,1-1.35,0Zm.24-9.68c-.38-.21-.38-.56,0-.78l6.3-3.66a1.46,1.46,0,0,1,1.35,0l5.85,3.39a.42.42,0,0,1,0,.79l-6.3,3.66a1.46,1.46,0,0,1-1.35,0Zm8.44-4.9c-.37-.22-.37-.57,0-.78l6.31-3.66a1.49,1.49,0,0,1,1.35,0l5.85,3.4a.42.42,0,0,1,0,.79l-6.31,3.66a1.53,1.53,0,0,1-1.35,0Zm8.45-4.9a.42.42,0,0,1,0-.79l6.3-3.66a1.46,1.46,0,0,1,1.35,0l5.85,3.4c.38.21.38.56,0,.78l-6.3,3.66a1.46,1.46,0,0,1-1.35,0Zm8.44-4.91c-.37-.21-.37-.56,0-.78l6.31-3.66a1.46,1.46,0,0,1,1.35,0l5.85,3.39a.42.42,0,0,1,0,.79l-6.31,3.66a1.46,1.46,0,0,1-1.35,0Zm8.45-4.9c-.38-.22-.37-.57,0-.79l6.3-3.66a1.53,1.53,0,0,1,1.35,0l5.85,3.4c.38.22.38.57,0,.78l-6.3,3.67a1.53,1.53,0,0,1-1.35,0ZM101.21,215.8c-.37-.21-.37-.56,0-.78l6.31-3.66a1.46,1.46,0,0,1,1.35,0l5.85,3.39a.42.42,0,0,1,0,.79l-6.31,3.66a1.46,1.46,0,0,1-1.35,0Zm-8.44,4.91a.42.42,0,0,1,0-.79l6.3-3.66a1.53,1.53,0,0,1,1.35,0l5.85,3.4a.41.41,0,0,1,0,.78L100,224.1a1.46,1.46,0,0,1-1.35,0Zm38.06-31.64a.42.42,0,0,1,0-.79l6.31-3.66a1.53,1.53,0,0,1,1.35,0l5.85,3.4c.37.22.37.57,0,.78L138,192.46a1.46,1.46,0,0,1-1.35,0Zm-49,38c-.37-.22-.37-.57,0-.78l8.79-5.1a1.46,1.46,0,0,1,1.35,0l5.85,3.39a.42.42,0,0,1,0,.79L89,230.45a1.53,1.53,0,0,1-1.35,0Zm33.55-9.94a.42.42,0,0,1,0-.79l8.78-5.1a1.55,1.55,0,0,1,1.36,0l6.75,3.92a.42.42,0,0,1,0,.79l-8.78,5.1a1.53,1.53,0,0,1-1.35,0Z" fill="url(#p)"/><path d="M111.84,144.18v1.34L54.69,178.58v-1.34Z" fill="#eaeef1"/><path d="M111.84,132.52v1.33L54.69,166.92v-1.34Z" fill="#eaeef1"/><path d="M111.84,120.85v1.33L54.69,155.25v-1.34Z" fill="#eaeef1"/><path d="M58.19,144.25v37.3l4.56-2.7V141.69Zm9.12-21.79v53.75l4.56-2.62V119.88Zm9.12,6.39V171L81,168.34v-42.1ZM85.54,132v33.68l4.56-2.58V129.45Zm9.12-9.51v38l4.56-2.64v-38Zm9.12,11.11v21.57l4.56-2.6V131Z" fill="#f36309"/><path d="M121.17,108.77,158.49,87v37.34l-37.32,21.73Z" fill="#eaeef1"/><path d="M123.5,105.27l37.33-21.73v37.34L123.5,142.61Z" fill="#fdfdfd"/><path d="M125.7,136.46q-2.62-5.49,4.73-9.09c7.35-3.61,7.79-6.27,8-11.25s3.88-5.75,7.86-5.75,6-2.46,5.15-6.52,0-5.93,3.53-7.41" fill="none" stroke-linecap="round" stroke-linejoin="round" strokeWidth="1" opacity="0.67" stroke="url(#q)" style="isolation:isolate"/><path d="M208.52,180.92l45.85-25.79a1.46,1.46,0,0,1,1.53.07l2.24,1.52-1.68,34.5L210.2,238.33l-1.77-1.18a1.45,1.45,0,0,1-.65-1.21V182.19A1.46,1.46,0,0,1,208.52,180.92Z" fill="url(#r)"/><path d="M210.93,182.73l45.77-26.29a1.45,1.45,0,0,1,2,.54,1.41,1.41,0,0,1,.19.72v51.58a1.45,1.45,0,0,1-.72,1.26l-47.95,28V184A1.46,1.46,0,0,1,210.93,182.73Z" fill="#fff"/><path d="M226.68,203.83l7.86,12.5,7.85-21.75L244,194c3.58-1.4,6.18.4,6.18,4.29v8.89l-31.21,18.36v-8.89c0-3.88,2.6-8.74,6.18-11.56Zm14.95.27a2,2,0,0,0-.95,1.56c0,.56.43.76.95.45l2.83-1.67a2,2,0,0,0,.95-1.56c0-.56-.42-.76-.95-.45Zm-8.91-23.92c1.08-.77,1.5-1,4.59-1.49q3.09-.52,3.93,1.11a9.59,9.59,0,0,1-.18,4.63q1.26.38-.26,4a17.88,17.88,0,0,1-6.14,10.65l-.25.15q-4.69,1.74-6.14-3.43a2.88,2.88,0,0,1-.25-3.74,8.27,8.27,0,0,1-.2-4.4C228.08,185.35,231.65,181,232.72,180.18Zm-1.49,27.37,3.11-5.21,3.12,1.54-3.12,9.41Z" fill="url(#s)"/><path d="M113.39,59.18l32.18-48.62L174,25.17l.06,0,4.12,2.46V43l-61.27,67.6-3.1-1.14a1.15,1.15,0,0,1-.76-1.09V60.46A2.34,2.34,0,0,1,113.39,59.18Z" fill="url(#t)"/><path d="M113,61.1l3.13,1.1,52.82-34h9.18V43.51l-61.27,67.22-3.1-1.14a1.16,1.16,0,0,1-.76-1.09Z" fill="url(#u)"/><path d="M117.26,38.34l55.2-32.71a1.16,1.16,0,0,1,1.6.41,1.11,1.11,0,0,1,.16.59V51.68a2.32,2.32,0,0,1-1.13,2L117.88,86.94a1.17,1.17,0,0,1-1.6-.39,1.18,1.18,0,0,1-.16-.61V40.35A2.32,2.32,0,0,1,117.26,38.34Z" fill="url(#v)"/><path d="M136.85,41l-14.51,8.39V46.27l14.51-8.39Z" fill="#f36309"/><path d="M168,30.28v3.11L122.34,59.75V56.64Z" fill="#f36309"/><path d="M122.34,67,168,40.63v3.11l-45.62,26.4Z" fill="#f36309"/><path d="M116.12,62l31.1,3.72,31.1-37.53v46a2.32,2.32,0,0,1-1.16,2l-59.29,34.38a1.16,1.16,0,0,1-1.6-.42,1.19,1.19,0,0,1-.15-.58Z" fill="url(#w)"/><path d="M147.9,60.34l29.6,15.73-59.31,34.24Z" fill="url(#x)"/><path d="M178.05,68q.12.08.09,50.33L113,155.53v-49Z" opacity="0.6" fill="url(#y)" style="isolation:isolate"/></svg>