<svg width="400" height="400" viewBox="0 0 400 400" xmlns="http://www.w3.org/2000/svg" xmlns:xlink="http://www.w3.org/1999/xlink" overflow="hidden"><defs><linearGradient x1="6.12864%" y1="44.5061%" x2="97.1821%" y2="54.8706%" id="linearGradient-1"><stop offset="0" stop-color="#F67414"/><stop offset="1" stop-color="#FBA611"/></linearGradient><linearGradient x1="95.8419%" y1="-65.7822%" x2="31.8127%" y2="73.0609%" id="linearGradient-2"><stop offset="0" stop-color="#FAB643"/><stop offset="0.559689" stop-color="#F48222"/><stop offset="1" stop-color="#F16322" stop-opacity="0"/></linearGradient><linearGradient x1="-12.6884%" y1="-114.304%" x2="56.5239%" y2="71.9158%" id="linearGradient-3"><stop offset="0" stop-color="#FAB643"/><stop offset="0.559689" stop-color="#F48222"/><stop offset="1" stop-color="#F16322" stop-opacity="0"/></linearGradient><linearGradient x1="81.1306%" y1="65.7971%" x2="23.8037%" y2="36.5341%" id="linearGradient-4"><stop offset="0" stop-color="#FFA935" stop-opacity="0"/><stop offset="1" stop-color="#F36309"/></linearGradient><linearGradient x1="85.3116%" y1="67.3049%" x2="26.4386%" y2="39.6043%" id="linearGradient-5"><stop offset="0" stop-color="#FFA935" stop-opacity="0"/><stop offset="1" stop-color="#F36309"/></linearGradient><linearGradient x1="-55.3694%" y1="-113.671%" x2="36.408%" y2="77.8396%" id="linearGradient-6"><stop offset="0" stop-color="#FAB643"/><stop offset="0.559689" stop-color="#F48222"/><stop offset="1" stop-color="#F16322" stop-opacity="0"/></linearGradient><linearGradient x1="72.5141%" y1="-19.0354%" x2="38.4069%" y2="100%" id="linearGradient-7"><stop offset="0" stop-color="#FAB643"/><stop offset="0.559689" stop-color="#F48222"/><stop offset="1" stop-color="#F16322"/></linearGradient><linearGradient x1="123.067%" y1="-65.6134%" x2="41.7181%" y2="100%" id="linearGradient-8"><stop offset="0" stop-color="#FAB643"/><stop offset="0.559689" stop-color="#F48222"/><stop offset="1" stop-color="#F16322"/></linearGradient><linearGradient x1="111.273%" y1="10.7152%" x2="18.4486%" y2="78.4526%" id="linearGradient-9"><stop offset="0" stop-color="#FAB643"/><stop offset="0.559689" stop-color="#F48222"/><stop offset="1" stop-color="#F16322"/></linearGradient><linearGradient x1="59.7484%" y1="6.92211%" x2="41.5536%" y2="100%" id="linearGradient-10"><stop offset="0" stop-color="#F67414"/><stop offset="1" stop-color="#FBA611"/></linearGradient><linearGradient x1="14.7661%" y1="112.915%" x2="14.7661%" y2="35.6721%" id="linearGradient-11"><stop offset="0" stop-color="#C94D00"/><stop offset="1" stop-color="#F8821D"/></linearGradient><linearGradient x1="-12.8907%" y1="41.7131%" x2="82.1092%" y2="63.5515%" id="linearGradient-12"><stop offset="0" stop-color="#FEC60E"/><stop offset="1" stop-color="#F18A00"/></linearGradient><linearGradient x1="35.4913%" y1="39.082%" x2="73.6356%" y2="59.2463%" id="linearGradient-13"><stop offset="0" stop-color="#FFC87B"/><stop offset="1" stop-color="#F98931"/></linearGradient><linearGradient x1="21.2484%" y1="11.1419%" x2="73.3839%" y2="63.1893%" id="linearGradient-14"><stop offset="0" stop-color="#FFAD38"/><stop offset="1" stop-color="#F36309"/></linearGradient><linearGradient x1="50%" y1="35.9389%" x2="69.024%" y2="58.0277%" id="linearGradient-15"><stop offset="0" stop-color="#FFEB66"/><stop offset="1" stop-color="#FCBB06"/></linearGradient><linearGradient x1="-4.73904%" y1="46.2666%" x2="50%" y2="52.6883%" id="linearGradient-16"><stop offset="0" stop-color="#FFE7BD"/><stop offset="1" stop-color="#FFBA60"/></linearGradient><linearGradient x1="27.1058%" y1="34.1263%" x2="74.6219%" y2="64.0728%" id="linearGradient-17"><stop offset="0" stop-color="#F67414"/><stop offset="1" stop-color="#FBA611"/></linearGradient><linearGradient x1="22.8949%" y1="50%" x2="39.6227%" y2="123.465%" id="linearGradient-18"><stop offset="0" stop-color="#FFAD38"/><stop offset="1" stop-color="#FFDFCA" stop-opacity="0"/></linearGradient><linearGradient x1="-55.3694%" y1="-6.86528%" x2="60.9657%" y2="57.585%" id="linearGradient-19"><stop offset="0" stop-color="#FAB643"/><stop offset="0.559689" stop-color="#F48222"/><stop offset="1" stop-color="#F16322" stop-opacity="0"/></linearGradient><linearGradient x1="-55.3694%" y1="-6.86528%" x2="60.9657%" y2="57.585%" id="linearGradient-20"><stop offset="0" stop-color="#FAB643"/><stop offset="0.559689" stop-color="#F48222"/><stop offset="1" stop-color="#F16322" stop-opacity="0"/></linearGradient></defs><g id="Reporting" fill="none" fillRule="evenodd"><g id="Group-8" transform="translate(16.5 35)"><path d="M8.2275 175.359 62.037 207.015 60.1378 208.133 6.32834 176.477Z" id="Rectangle-2-Copy" fill="#FBA611"/><path d="M17.7233 169.773 38.614 182.063 35.4488 183.925 14.558 171.635Z" id="Rectangle-2" fill="#F36309"/><path d="M1.89697 179.083 55.7065 210.74 53.8073 211.857-0.00218958 180.201Z" id="Rectangle-2-Copy-15" fill="#FBA611"/><path d="M165.858 223.402 229.796 261.017 179.785 290.439 115.846 252.824Z" id="Rectangle-Copy-3" stroke="url(#linearGradient-1)" strokeWidth="2" fill="#FFFFFF"/><path d="M106.376 252.653 106.376 283.84 180.245 329.799 180.245 291.373Z" id="Shape" fill="url(#linearGradient-2)" fillRule="nonzero" opacity="0.2"/><path d="M180.245 327.987 231.9 298.755 231.858 261.017 231.858 261.017 180.245 288.265Z" id="Shape" fill="url(#linearGradient-3)" fillRule="nonzero" opacity="0.6"/><path d="M158.261 223.402 222.199 261.017 172.188 290.439 108.25 252.824Z" id="Rectangle" stroke="url(#linearGradient-1)" strokeWidth="2" fill="#FFFFFF"/><path d="M156.995 229.361 177.886 241.651 174.72 243.513 153.83 231.223Z" id="Rectangle-2" fill="#F36309"/><path d="M150.031 233.458 203.841 265.114 201.942 266.231 148.132 234.575Z" id="Rectangle-2-Copy" fill="#FBA611"/><path d="M144.967 236.437 198.776 268.093 196.877 269.21 143.068 237.554Z" id="Rectangle-2-Copy-3" fill="#FBA611"/><path d="M150.031 233.458 178.519 250.217 176.62 251.334 148.132 234.575Z" id="Rectangle-2-Copy-2" fill="#F36309"/><path d="M144.967 236.437 179.785 256.92 177.886 258.038 143.068 237.554Z" id="Rectangle-2-Copy-4" fill="#F36309"/><path d="M139.902 239.416 193.712 271.073 191.813 272.19 138.003 240.534Z" id="Rectangle-2-Copy-6" fill="#FBA611"/><path d="M139.902 239.416 149.398 245.003 147.499 246.12 138.003 240.534Z" id="Rectangle-2-Copy-5" fill="#F36309"/><path d="M134.838 242.396 188.648 274.052 186.748 275.169 132.939 243.513Z" id="Rectangle-2-Copy-8" fill="#FBA611"/><path d="M134.838 242.396 156.995 255.431 155.096 256.548 132.939 243.513Z" id="Rectangle-2-Copy-7" fill="#F36309"/><path d="M129.774 245.375 183.583 277.031 181.684 278.149 127.874 246.492Z" id="Rectangle-2-Copy-10" fill="#FBA611"/><path d="M129.774 245.375 164.592 265.859 162.692 266.976 127.874 246.492Z" id="Rectangle-2-Copy-9" fill="#F36309"/><path d="M124.709 248.355 178.519 280.011 176.62 281.128 122.81 249.472Z" id="Rectangle-2-Copy-12" fill="#FBA611"/><path d="M124.709 248.355 140.536 257.665 138.636 258.783 122.81 249.472Z" id="Rectangle-2-Copy-11" fill="#F36309"/><path d="M119.645 251.334 173.454 282.99 171.555 284.107 117.746 252.451Z" id="Rectangle-2-Copy-14" fill="#FBA611"/><path d="M119.645 251.334 148.132 268.093 146.233 269.21 117.746 252.451Z" id="Rectangle-2-Copy-13" fill="#F36309"/><path d="M208.272 126.944C214.565 130.646 224.769 130.646 231.062 126.944 237.355 123.242 237.355 117.239 231.062 113.537 224.769 109.834 214.565 109.834 208.272 113.537 201.979 117.239 201.979 123.242 208.272 126.944Z" id="Oval-2" fill="url(#linearGradient-4)" opacity="0.4"/><path d="M212.704 124.337C216.549 126.599 222.785 126.599 226.631 124.337 230.477 122.074 230.477 118.406 226.631 116.144 222.785 113.881 216.549 113.881 212.704 116.144 208.858 118.406 208.858 122.074 212.704 124.337Z" id="Oval-2" fill="url(#linearGradient-5)" opacity="0.4"/><path d="M216.502 122.102C218.25 123.131 221.084 123.131 222.832 122.102 224.581 121.074 224.581 119.407 222.832 118.378 221.084 117.35 218.25 117.35 216.502 118.378 214.754 119.407 214.754 121.074 216.502 122.102Z" id="Oval-2" fill="#C44B00"/><g id="Group-28" transform="translate(132.351 0.860242)"><g id="Group-27"><path d="M1.19016 37.7806 66.52 0.25114C67.2169-0.149198 68.1063 0.0912073 68.5067 0.7881 68.6334 1.00867 68.7001 1.2586 68.7001 1.51298L68.7001 75.1627C68.7001 75.6802 68.4253 76.1587 67.9783 76.4195L0.459809 115.825 0.459809 39.0424C0.459809 38.5214 0.738368 38.0401 1.19016 37.7806Z" id="Shape" fill="#FEAB33" fillRule="nonzero" opacity="0.2"/><path d="M12.8319 44.7656 78.1618 7.23621C78.8586 6.83588 79.7481 7.07628 80.1485 7.77318 80.2752 7.99375 80.3419 8.24368 80.3419 8.49805L80.3419 82.1478C80.3419 82.6652 80.0671 83.1438 79.6201 83.4046L12.1016 122.81 12.1016 46.0275C12.1016 45.5064 12.3802 45.0252 12.8319 44.7656Z" id="Shape" fill="#FEAB33" fillRule="nonzero" opacity="0.2"/><path d="M95.4808 84.4783 95.4808 115.242 23.8474 155.973 23.8474 122.366Z" id="Shape-Copy-4" fill="url(#linearGradient-6)" fillRule="nonzero" opacity="0.5"/><path d="M24.586 51.5411 90.1473 14.4479C90.6284 14.1757 91.2222 14.1996 91.6799 14.5096L95.1226 16.841 92.0876 65.801 27.2372 131.843 24.4955 130.016C24.0906 129.746 23.8474 129.291 23.8474 128.805L23.8474 52.8076C23.8474 52.2832 24.1296 51.7993 24.586 51.5411Z" id="Shape" fill="url(#linearGradient-7)"/><path d="M27.9663 54.0791 93.2961 16.5496C93.993 16.1493 94.8825 16.3897 95.2828 17.0866 95.4095 17.3072 95.4762 17.5571 95.4762 17.8115L95.4762 91.4612C95.4762 91.9787 95.2014 92.4572 94.7545 92.718L27.2359 132.123 27.2359 55.3409C27.2359 54.8199 27.5145 54.3386 27.9663 54.0791Z" id="Shape" fill="#FFFFFF"/><path d="M83.1335 85.5777C84.0859 85.0256 84.7962 84.9186 85.2644 85.2568 85.7326 85.595 85.9727 86.3682 85.9847 87.5767L85.9847 89.0829C85.9847 90.3337 85.7506 91.4128 85.2823 92.3202 84.8141 93.2277 84.1019 93.9583 83.1456 94.5124 82.2051 95.0576 81.4969 95.1585 81.0207 94.8148 80.5445 94.4713 80.3004 93.6954 80.2885 92.4869L80.2885 90.9807C80.2885 89.7294 80.5226 88.6553 80.9908 87.7582 81.4589 86.8613 82.1732 86.1343 83.1335 85.5777ZM82.0876 87.8904C81.8644 88.3805 81.7469 89.0114 81.735 89.7834L81.735 91.7559C81.735 92.5687 81.8485 93.1087 82.0756 93.3755 82.3027 93.6422 82.6594 93.6345 83.1456 93.3525 83.6117 93.0829 83.9564 92.6983 84.1795 92.2009 84.4027 91.7024 84.5202 91.0577 84.5322 90.2658L84.5322 88.2992C84.5322 87.4824 84.4207 86.9483 84.1975 86.6971 83.9744 86.4459 83.6197 86.4613 83.1335 86.7432 82.6594 87.018 82.3107 87.4005 82.0876 87.8904ZM70.6593 94.1484 74.0543 90.9309 74.2396 90.8235 74.2396 99.5561 72.7931 100.395 72.7931 93.4074 70.6593 95.3737 70.6593 94.1484ZM63.1222 97.1791C64.0745 96.627 64.7847 96.52 65.253 96.8583 65.7212 97.1965 65.9613 97.9697 65.9732 99.1782L65.9732 100.684C65.9732 101.936 65.7391 103.015 65.2709 103.922 64.8027 104.829 64.0905 105.56 63.1341 106.114 62.1937 106.659 61.4854 106.76 61.0093 106.416 60.5331 106.073 60.289 105.297 60.277 104.088L60.277 102.582C60.277 101.331 60.5111 100.257 60.9794 99.3597 61.4476 98.4627 62.1618 97.7359 63.1222 97.1791ZM62.0762 99.492C61.853 99.982 61.7355 100.613 61.7235 101.385L61.7235 103.357C61.7235 104.17 61.8371 104.71 62.0642 104.977 62.2913 105.244 62.6479 105.236 63.1341 104.954 63.6003 104.684 63.945 104.3 64.1682 103.802 64.3913 103.304 64.5088 102.659 64.5208 101.867L64.5208 99.9006C64.5208 99.0838 64.4092 98.5498 64.186 98.2986 63.9629 98.0474 63.6082 98.0629 63.1222 98.3446 62.6479 98.6196 62.2993 99.002 62.0762 99.492ZM83.1335 71.2963C84.0859 70.7442 84.7962 70.6373 85.2644 70.9754 85.7326 71.3136 85.9727 72.0868 85.9847 73.2954L85.9847 74.8015C85.9847 76.0528 85.7506 77.1319 85.2823 78.039 84.8141 78.946 84.1019 79.6767 83.1456 80.231 82.2051 80.7763 81.4969 80.8771 81.0207 80.5335 80.5445 80.1899 80.3004 79.414 80.2885 78.2056L80.2885 76.6993C80.2885 75.4481 80.5226 74.3739 80.9908 73.4769 81.4589 72.5799 82.1732 71.853 83.1335 71.2963ZM82.0876 73.6091C81.8644 74.0992 81.7469 74.7301 81.735 75.5021L81.735 77.4745C81.735 78.2874 81.8485 78.8273 82.0756 79.0942 82.3027 79.3609 82.6594 79.3533 83.1456 79.0715 83.6117 78.8012 83.9564 78.4172 84.1795 77.9192 84.4027 77.4212 84.5202 76.7763 84.5322 75.9844L84.5322 74.0179C84.5322 73.2011 84.4207 72.6669 84.1975 72.4158 83.9744 72.1645 83.6197 72.18 83.1335 72.4619 82.6594 72.7367 82.3107 73.1191 82.0876 73.6091ZM53.1165 102.98C54.0688 102.428 54.779 102.321 55.2472 102.659 55.7155 102.997 55.9556 103.771 55.9675 104.979L55.9675 106.485C55.9675 107.736 55.7334 108.816 55.2652 109.723 54.797 110.63 54.0847 111.36 53.1284 111.915 52.188 112.46 51.4797 112.561 51.0035 112.217 50.5273 111.874 50.2832 111.098 50.2713 109.889L50.2713 108.383C50.2713 107.132 50.5054 106.058 50.9736 105.161 51.4419 104.263 52.1561 103.537 53.1165 102.98ZM52.0704 105.293C51.8473 105.783 51.7297 106.414 51.7178 107.186L51.7178 109.158C51.7178 109.971 51.8313 110.511 52.0585 110.778 52.2856 111.044 52.6422 111.037 53.1284 110.755 53.5946 110.485 53.9393 110.101 54.1625 109.603 54.3856 109.105 54.5031 108.46 54.5151 107.668L54.5151 105.701C54.5151 104.885 54.4035 104.351 54.1803 104.099 53.9572 103.848 53.6025 103.864 53.1165 104.145 52.6422 104.42 52.2935 104.803 52.0704 105.293ZM73.1279 77.0969C74.0803 76.5448 74.7905 76.438 75.2587 76.7762 75.7269 77.1143 75.967 77.8876 75.979 79.0961L75.979 80.6023C75.979 81.8536 75.7449 82.9326 75.2766 83.8397 74.8084 84.7467 74.0962 85.4774 73.1398 86.0318 72.1994 86.577 71.4911 86.6778 71.015 86.3343 70.5388 85.9907 70.2947 85.2147 70.2827 84.0063L70.2827 82.5C70.2827 81.2489 70.5169 80.1747 70.9851 79.2777 71.4533 78.3805 72.1675 77.6538 73.1279 77.0969ZM72.0819 79.4098C71.8587 79.8999 71.7412 80.5308 71.7292 81.3028L71.7292 83.2753C71.7292 84.0882 71.8428 84.628 72.0699 84.8949 72.297 85.1616 72.6537 85.1541 73.1398 84.8723 73.606 84.6021 73.9507 84.2179 74.1738 83.7199 74.397 83.2219 74.5145 82.577 74.5265 81.7851L74.5265 79.8187C74.5265 79.0018 74.415 78.4677 74.1918 78.2166 73.9687 77.9653 73.614 77.9807 73.1279 78.2625 72.6537 78.5375 72.305 78.9199 72.0819 79.4098ZM43.1107 108.781C44.0631 108.228 44.7734 108.121 45.2415 108.46 45.7097 108.798 45.9499 109.571 45.9618 110.78L45.9618 112.286C45.9618 113.537 45.7277 114.616 45.2595 115.523 44.7912 116.43 44.079 117.161 43.1227 117.715 42.1822 118.261 41.474 118.361 40.9978 118.018 40.5216 117.674 40.2775 116.898 40.2656 115.69L40.2656 114.184C40.2656 112.932 40.4997 111.858 40.9679 110.961 41.4361 110.064 42.1504 109.337 43.1107 108.781ZM42.0647 111.093C41.8415 111.583 41.724 112.214 41.7121 112.986L41.7121 114.959C41.7121 115.772 41.8256 116.312 42.0528 116.578 42.2799 116.845 42.6365 116.838 43.1227 116.556 43.5889 116.286 43.9335 115.902 44.1567 115.404 44.3798 114.906 44.4974 114.261 44.5094 113.469L44.5094 111.502C44.5094 110.685 44.3978 110.151 44.1746 109.9 43.9515 109.649 43.5968 109.664 43.1107 109.946 42.6365 110.221 42.2878 110.604 42.0647 111.093ZM63.1222 82.8977C64.0745 82.3456 64.7847 82.2387 65.253 82.577 65.7212 82.9152 65.9613 83.6884 65.9732 84.8969L65.9732 86.403C65.9732 87.6543 65.7391 88.7334 65.2709 89.6405 64.8027 90.5475 64.0905 91.2782 63.1341 91.8325 62.1937 92.3778 61.4854 92.4786 61.0093 92.135 60.5331 91.7915 60.289 91.0155 60.277 89.807L60.277 88.3008C60.277 87.0496 60.5111 85.9754 60.9794 85.0784 61.4476 84.1814 62.1618 83.4545 63.1222 82.8977ZM62.0762 85.2106C61.853 85.7007 61.7355 86.3316 61.7235 87.1036L61.7235 89.0761C61.7235 89.8889 61.8371 90.4288 62.0642 90.6956 62.2913 90.9624 62.6479 90.9549 63.1341 90.673 63.6003 90.4028 63.945 90.0187 64.1682 89.5206 64.3913 89.0227 64.5088 88.3778 64.5208 87.5858L64.5208 85.6193C64.5208 84.8025 64.4092 84.2684 64.186 84.0173 63.9629 83.7661 63.6082 83.7815 63.1222 84.0633 62.6479 84.3382 62.2993 84.7206 62.0762 85.2106ZM80.665 59.7849 84.0601 56.5673 84.2453 56.46 84.2453 65.1926 82.7988 66.0312 82.7988 59.044 80.665 61.0102 80.665 59.7849ZM50.6478 91.4686 54.0429 88.251 54.2282 88.1436 54.2282 96.8762 52.7817 97.7148 52.7817 90.7276 50.6478 92.6939 50.6478 91.4686ZM70.6593 65.5857 74.0543 62.3681 74.2396 62.2608 74.2396 70.9934 72.7931 71.8319 72.7931 64.8447 70.6593 66.811 70.6593 65.5857ZM43.1107 94.4992C44.0631 93.9471 44.7734 93.8401 45.2415 94.1785 45.7097 94.5167 45.9499 95.2899 45.9618 96.4984L45.9618 98.0046C45.9618 99.2558 45.7277 100.335 45.2595 101.242 44.7912 102.149 44.079 102.88 43.1227 103.434 42.1822 103.979 41.474 104.08 40.9978 103.736 40.5216 103.393 40.2775 102.617 40.2656 101.409L40.2656 99.9023C40.2656 98.6511 40.4997 97.577 40.9679 96.6799 41.4361 95.7829 42.1504 95.0559 43.1107 94.4992ZM42.0647 96.8121C41.8415 97.3021 41.724 97.9331 41.7121 98.7051L41.7121 100.677C41.7121 101.49 41.8256 102.03 42.0528 102.297 42.2799 102.564 42.6365 102.556 43.1227 102.275 43.5889 102.004 43.9335 101.62 44.1567 101.122 44.3798 100.624 44.4974 99.9793 44.5094 99.1873L44.5094 97.2208C44.5094 96.4039 44.3978 95.8699 44.1746 95.6188 43.9515 95.3676 43.5968 95.383 43.1107 95.6648 42.6365 95.9397 42.2878 96.3222 42.0647 96.8121ZM63.1222 68.6164C64.0745 68.0643 64.7847 67.9574 65.253 68.2956 65.7212 68.6338 65.9613 69.407 65.9732 70.6155L65.9732 72.1217C65.9732 73.3729 65.7391 74.4521 65.2709 75.3591 64.8027 76.2662 64.0905 76.9968 63.1341 77.5512 62.1937 78.0965 61.4854 78.1972 61.0093 77.8536 60.5331 77.5101 60.289 76.7342 60.277 75.5256L60.277 74.0195C60.277 72.7682 60.5111 71.6941 60.9794 70.797 61.4476 69.9 62.1618 69.1731 63.1222 68.6164ZM62.0762 70.9293C61.853 71.4193 61.7355 72.0503 61.7235 72.8223L61.7235 74.7947C61.7235 75.6075 61.8371 76.1475 62.0642 76.4142 62.2913 76.6811 62.6479 76.6735 63.1341 76.3916 63.6003 76.1214 63.945 75.7373 64.1682 75.2393 64.3913 74.7414 64.5088 74.0965 64.5208 73.3045L64.5208 71.3379C64.5208 70.5211 64.4092 69.9871 64.186 69.7359 63.9629 69.4847 63.6082 69.5002 63.1222 69.7819 62.6479 70.0568 62.2993 70.4393 62.0762 70.9293ZM83.1335 42.7336C84.0859 42.1815 84.7962 42.0745 85.2644 42.4127 85.7326 42.7509 85.9727 43.5241 85.9847 44.7326L85.9847 46.2388C85.9847 47.4901 85.7506 48.5692 85.2823 49.4762 84.8141 50.3833 84.1019 51.114 83.1456 51.6683 82.2051 52.2136 81.4969 52.3144 81.0207 51.9707 80.5445 51.6272 80.3004 50.8513 80.2885 49.6429L80.2885 48.1366C80.2885 46.8853 80.5226 45.8112 80.9908 44.9142 81.4589 44.0172 82.1732 43.2903 83.1335 42.7336ZM83.1335 43.8992C82.6594 44.174 82.3107 44.5564 82.0876 45.0464 81.8867 45.4874 81.7715 46.0426 81.7417 46.712L81.735 46.9394 81.735 48.9118C81.735 49.7247 81.8485 50.2646 82.0756 50.5314 82.3027 50.7982 82.6594 50.7906 83.1456 50.5088 83.6117 50.2385 83.9564 49.8545 84.1795 49.3565 84.3804 48.9083 84.4957 48.3411 84.5254 47.6549L84.5322 47.4217 84.5322 45.4552C84.5322 44.6384 84.4207 44.1042 84.1975 43.8531 83.9744 43.6018 83.6197 43.6173 83.1335 43.8992ZM50.6478 77.1872 54.0429 73.9697 54.2282 73.8623 54.2282 82.5949 52.7817 83.4335 52.7817 76.4462 50.6478 78.4126 50.6478 77.1872ZM70.6593 51.3043 74.0543 48.0868 74.2396 47.9794 74.2396 56.712 72.7931 57.5506 72.7931 50.5633 70.6593 52.5297 70.6593 51.3043ZM43.1107 80.2179C44.0631 79.6658 44.7734 79.5587 45.2415 79.8971 45.7097 80.2353 45.9499 81.0085 45.9618 82.217L45.9618 83.7232C45.9618 84.9745 45.7277 86.0536 45.2595 86.9606 44.7912 87.8677 44.079 88.5983 43.1227 89.1527 42.1822 89.698 41.474 89.7988 40.9978 89.4551 40.5216 89.1116 40.2775 88.3357 40.2656 87.1272L40.2656 85.621C40.2656 84.3697 40.4997 83.2956 40.9679 82.3986 41.4361 81.5015 42.1504 80.7746 43.1107 80.2179ZM42.0647 82.5308C41.8415 83.0207 41.724 83.6518 41.7121 84.4238L41.7121 86.3961C41.7121 87.209 41.8256 87.749 42.0528 88.0157 42.2799 88.2826 42.6365 88.275 43.1227 87.9932 43.5889 87.7229 43.9335 87.3387 44.1567 86.8408 44.3798 86.3429 44.4974 85.698 44.5094 84.906L44.5094 82.9394C44.5094 82.1226 44.3978 81.5886 44.1746 81.3375 43.9515 81.0862 43.5968 81.1017 43.1107 81.3834 42.6365 81.6584 42.2878 82.0408 42.0647 82.5308ZM63.1222 54.335C64.0745 53.7829 64.7847 53.6761 65.253 54.0143 65.7212 54.3525 65.9613 55.1257 65.9732 56.3342L65.9732 57.8403C65.9732 59.0916 65.7391 60.1707 65.2709 61.0778 64.8027 61.9848 64.0905 62.7155 63.1341 63.2698 62.1937 63.8151 61.4854 63.9159 61.0093 63.5723 60.5331 63.2288 60.289 62.4528 60.277 61.2443L60.277 59.7381C60.277 58.4869 60.5111 57.4127 60.9794 56.5157 61.4476 55.6186 62.1618 54.8918 63.1222 54.335ZM62.0762 56.6479C61.853 57.138 61.7355 57.7689 61.7235 58.5409L61.7235 60.5134C61.7235 61.3262 61.8371 61.8661 62.0642 62.1329 62.2913 62.3997 62.6479 62.3922 63.1341 62.1103 63.6003 61.84 63.945 61.456 64.1682 60.9579 64.3913 60.46 64.5088 59.8151 64.5208 59.0231L64.5208 57.0566C64.5208 56.2398 64.4092 55.7057 64.186 55.4546 63.9629 55.2033 63.6082 55.2188 63.1222 55.5006 62.6479 55.7755 62.2993 56.1579 62.0762 56.6479ZM53.1165 60.1357C54.0688 59.5836 54.779 59.4768 55.2472 59.815 55.7155 60.1532 55.9556 60.9265 55.9675 62.1349L55.9675 63.6412C55.9675 64.8924 55.7334 65.9714 55.2652 66.8785 54.797 67.7855 54.0847 68.5162 53.1284 69.0706 52.188 69.6158 51.4797 69.7166 51.0035 69.3731 50.5273 69.0295 50.2832 68.2535 50.2713 67.0451L50.2713 65.5388C50.2713 64.2877 50.5054 63.2135 50.9736 62.3165 51.4419 61.4194 52.1561 60.6925 53.1165 60.1357ZM52.0704 62.4486C51.8473 62.9387 51.7297 63.5696 51.7178 64.3416L51.7178 66.3141C51.7178 67.127 51.8313 67.6668 52.0585 67.9336 52.2856 68.2004 52.6422 68.193 53.1284 67.9111 53.5946 67.6409 53.9393 67.2567 54.1625 66.7587 54.3856 66.2607 54.5031 65.6158 54.5151 64.8238L54.5151 62.8574C54.5151 62.0405 54.4035 61.5065 54.1803 61.2554 53.9572 61.0042 53.6025 61.0195 53.1165 61.3013 52.6422 61.5762 52.2935 61.9588 52.0704 62.4486ZM40.6422 68.7065 44.0372 65.489 44.2224 65.3816 44.2224 74.1143 42.7759 74.9529 42.7759 67.9656 40.6422 69.9318 40.6422 68.7065Z" id="Shape" fill="url(#linearGradient-8)" fillRule="nonzero"/><path d="M27.9663 54.0791 93.2961 16.5496C93.993 16.1493 94.8825 16.3897 95.2828 17.0866 95.4095 17.3072 95.4762 17.5571 95.4762 17.8115L95.4762 28.4744 27.2359 67.8334 27.2359 55.3409C27.2359 54.8199 27.5145 54.3386 27.9663 54.0791Z" id="Shape" fill="url(#linearGradient-9)"/><path d="M89.701 22.8616C90.5937 22.3628 91.5441 22.8854 91.8238 24.0289 92.1036 25.1724 91.6067 26.5038 90.714 27.0026 89.8213 27.5014 88.8709 26.9788 88.5912 25.8353 88.3114 24.6918 88.8083 23.3604 89.701 22.8616Z" id="Shape" fill="#FCFCFC"/><path d="M83.771 26.2478C84.6637 25.749 85.6141 26.2716 85.8939 27.4151 86.1736 28.5586 85.6767 29.89 84.784 30.3888 83.8914 30.8876 82.941 30.365 82.6612 29.2215 82.3815 28.078 82.8783 26.7466 83.771 26.2478Z" id="Shape" fill="#FCFCFC"/></g></g><g id="Group" transform="translate(45.9064 52.5728)"><path d="M0 28.2097 47.0161 1.45776e-13 47.0161 75.2258 0 103.436Z" id="Rectangle-14-Copy-8" fill="#E26A10" opacity="0.4"/><path d="M5.55645 30.0049 52.5726 1.79516 52.5726 77.021 5.55645 105.231Z" id="Rectangle-14" stroke="url(#linearGradient-10)" strokeWidth="2" fill="#FFFFFF"/><path d="M11.3431 33.4414 47.5093 11.7416 47.5093 49.3545 11.3431 71.0543Z" id="Rectangle-14-Copy-3" fill="#FBA611" opacity="0.3"/><path d="M11.3431 75.66 47.5093 53.9602 47.5093 57.7982 11.3431 79.498Z" id="Rectangle-14-Copy-5" fill="#FBA611" opacity="0.3"/><path d="M11.3431 83.3361 47.5093 61.6363 47.5093 65.4743 11.3431 87.1741Z" id="Rectangle-14-Copy-6" fill="#FBA611" opacity="0.3"/><path d="M11.3431 91.0122 47.5093 69.3124 47.5093 73.1504 11.3431 94.8502Z" id="Rectangle-14-Copy-7" fill="#FBA611" opacity="0.3"/></g><path d="M137.489 166.552C138.363 167.066 139.78 167.066 140.654 166.552 141.528 166.037 141.528 165.204 140.654 164.69 139.78 164.175 138.363 164.175 137.489 164.69 136.615 165.204 136.615 166.037 137.489 166.552Z" id="Oval" fill="#FFFFFF"/><path d="M142.553 169.531C143.428 170.045 144.845 170.045 145.719 169.531 146.593 169.017 146.593 168.183 145.719 167.669 144.845 167.155 143.428 167.155 142.553 167.669 141.679 168.183 141.679 169.017 142.553 169.531Z" id="Oval-Copy" fill="#FFFFFF"/><path d="M145.6 209.25C151.893 212.952 162.097 212.952 168.39 209.25 174.683 205.548 174.683 199.545 168.39 195.843 162.097 192.14 151.893 192.14 145.6 195.843 139.307 199.545 139.307 205.548 145.6 209.25Z" id="Oval-2" fill="url(#linearGradient-4)" opacity="0.4"/><g id="Group-3" transform="translate(69.9064 145.5)"><path d="M70.898 21.1905 76.0773 21.1905 76.0773 35.7147C76.9028 41.9155 73.2112 48.2793 65.0026 53.0217 63.7609 53.739 62.455 54.3967 61.0956 54.9946L37.8696 37.4171 22.3416 17.2799 22.3416 1.71858C44.2434 11.3368 58.4638 18.0348 65.0026 21.8125 67.3313 23.1579 69.2964 24.6337 70.898 26.1993L70.898 21.1905Z" id="Combined-Shape" fill="url(#linearGradient-11)"/><path d="M65.0696 22.1077C67.3843 23.443 69.3376 24.9079 70.9297 26.4618L70.9297 21.4903 76.078 21.4903 76.078 35.9065C76.8985 42.0612 73.229 48.3777 65.0696 53.0849 63.8691 53.7774 62.6083 54.4139 61.2968 54.9943L61.2979 20.0511C62.7566 20.8131 64.0138 21.4986 65.0696 22.1077Z" id="Combined-Shape" fill="#C94D00"/><path d="M0 37.8088 0 27.2933C6.04328 25.939 9.74427 24.8639 11.103 24.0681 14.4911 22.0836 18.361 20.5534 22.4922 19.4773L37.8088 27.3383 37.8088 37.8088 0 37.8088Z" id="Combined-Shape" fill="url(#linearGradient-12)"/><path d="M61.2961 48.4911 61.2961 55.0245C46.3393 61.6887 24.8543 61.0372 11.174 53.0698 3.73178 48.7355 0.00710809 43.0559 0 37.375L0 30.9345 38.1505 41.296 61.2961 48.4911Z" id="Combined-Shape" fill="url(#linearGradient-13)"/><path d="M22.3416 1.92525C36.3898-1.70648 53.4673-0.200121 65.0026 6.44433 79.9198 15.0368 79.9198 28.9679 65.0026 37.5603 63.7609 38.2755 62.455 38.9312 61.0956 39.5274L37.8696 22.0023 22.3416 1.92525 22.3416 1.92525Z" id="Combined-Shape" fill="url(#linearGradient-14)"/><path d="M0 26.9245C0 21.3011 3.70325 15.6778 11.1098 11.3873 14.468 9.44197 18.2993 7.93763 22.3891 6.87433L37.8088 26.9245 0 26.9245Z" id="Combined-Shape" fill="url(#linearGradient-15)"/><path d="M61.2961 48.2391C46.3393 54.7732 24.8543 54.1343 11.174 46.3226 3.73178 42.0729 0.00710809 36.5043 0 30.9345L38.1505 30.9345 61.2961 48.2391Z" id="Combined-Shape" fill="url(#linearGradient-16)"/></g><path d="M150.031 206.643C153.877 208.905 160.113 208.905 163.958 206.643 167.804 204.38 167.804 200.712 163.958 198.45 160.113 196.187 153.877 196.187 150.031 198.45 146.185 200.712 146.185 204.38 150.031 206.643Z" id="Oval-2" fill="url(#linearGradient-5)" opacity="0.4"/><path d="M153.83 204.408C155.578 205.437 158.412 205.437 160.16 204.408 161.908 203.38 161.908 201.713 160.16 200.684 158.412 199.656 155.578 199.656 153.83 200.684 152.082 201.713 152.082 203.38 153.83 204.408Z" id="Oval-2" fill="#C44B00"/><path d="M220.24 123.488 235.948 132.729 177.776 166.951 209.927 185.866 199.535 191.979 213.565 200.233" id="Path-22" stroke="#F47F22" stroke-linecap="round" stroke-dasharray="3 3"/><path d="M346.275 189.275 366.344 177.468 270.913 121.326 192.102 167.691 224.749 186.897 215.642 192.254 221.703 195.82" id="Path-23" stroke="#F47F22" stroke-linecap="round" stroke-dasharray="3 3"/><g id="Group-2" transform="translate(243.445 74.5)"><path d="M5.82433-8.57235e-15 108.85 60.2348 108.85 142.617 5.82433 82.3823Z" id="Rectangle" fill="#E26A10" opacity="0.4"/><path d="M0 2.99834 103.025 63.2332 103.025 145.615 0 85.3807Z" id="Rectangle" stroke="url(#linearGradient-17)" strokeWidth="2" fill="#FFFFFF"/><path d="M8.18744 16.1067 30.7029 29.2706 30.7029 33.4313 8.18744 20.2674Z" id="Rectangle-2" fill="#F36309"/><path d="M63.4389 101.449C66.3511 96.7182 65.8419 80.3077 74.445 85.3376 83.0481 90.3675 82.0647 93.2243 87.9996 94.9196 91.9563 96.0498 94.6905 94.1437 96.2024 89.2013L96.2024 131.641 54.5829 107.307C58.5455 106.555 61.4975 104.603 63.4389 101.449Z" id="Rectangle-3" fill="url(#linearGradient-18)"/><path d="M56.5537 107.544C56.3827 107.54 56.18 107.331 56.1008 107.076 56.0216 106.821 56.096 106.617 56.267 106.621 60.3624 106.702 63.4507 102.015 65.4913 92.5051 67.5965 82.695 72.7652 81.6374 80.8993 89.4482 84.7507 93.9264 87.8129 95.7167 90.1335 94.8934 92.533 94.0422 94.4237 92.5205 95.808 90.3281 95.9004 90.1818 96.1084 90.2324 96.2726 90.4411 96.4368 90.6497 96.4951 90.9375 96.4027 91.0838 94.9725 93.3487 93.0208 94.9196 90.5499 95.7961 88.0003 96.7006 84.6701 94.7536 80.653 90.0778 72.9593 82.6942 68.175 83.6732 66.1559 93.0821 64.0723 102.792 60.885 107.63 56.5537 107.544Z" id="Path-2" fill="#E76513" fillRule="nonzero"/><path d="M47.7601 102.486 47.7601 103.318 7.50515 79.7829 7.50515 78.9507 47.7601 102.486ZM47.7601 94.9969 47.7601 95.8291 7.50515 72.2936 7.50515 71.4614 47.7601 94.9969ZM47.7601 87.5076 47.7601 88.3398 7.50515 64.8043 7.50515 63.9721 47.7601 87.5076ZM47.7601 80.0183 47.7601 80.8504 7.50515 57.315 7.50515 56.4828 47.7601 80.0183ZM47.7601 72.529 47.7601 73.3611 7.50515 49.8257 7.50515 48.9935 47.7601 72.529ZM47.7601 65.8718 47.7601 66.704 7.50515 43.1685 7.50515 42.3364 47.7601 65.8718Z" id="Combined-Shape" fill="#D7DADD" opacity="0.3"/><path d="M17.7395 68.2914 17.7395 85.7665 13.6457 83.373 13.6457 65.898 17.7395 68.2914ZM25.9269 64.7569 25.9269 90.5534 21.8332 88.1599 21.8332 62.3634 25.9269 64.7569ZM34.1143 59.558 34.1143 95.3402 30.0206 92.9468 30.0206 57.1646 34.1143 59.558ZM42.3018 54.3591 42.3018 100.127 38.2081 97.7337 38.2081 51.9657 42.3018 54.3591Z" id="Combined-Shape" fill="#FBA611"/></g><path d="M232.328 200.684 286.138 232.34 284.238 233.458 230.429 201.801Z" id="Rectangle-2-Copy" fill="#FBA611"/><path d="M224.098 205.526 277.908 237.182 276.009 238.299 222.199 206.643Z" id="Rectangle-2-Copy-16" fill="#FBA611"/><path d="M215.869 210.367 269.678 242.023 267.779 243.141 213.97 211.484Z" id="Rectangle-2-Copy-17" fill="#FBA611"/><path d="M161.418 205.402 170.828 210.939 192.603 198.129 203.816 204.726" id="Path-24" stroke="#F47F22" stroke-linecap="round" stroke-dasharray="3 3"/><path d="M223.465 231.223 255.118 249.844 243.09 256.92 211.437 238.299Z" id="Rectangle-15" fill="url(#linearGradient-19)" fillRule="nonzero" opacity="0.6"/><path d="M264.291 181.18 323.415 215.962 300.948 229.18 241.824 194.397Z" id="Rectangle-15-Copy-2" fill="url(#linearGradient-20)" fillRule="nonzero" opacity="0.6"/><path d="M82.2947 214.464 113.947 233.085 101.919 240.161 70.2667 221.54Z" id="Rectangle-15-Copy" fill="url(#linearGradient-19)" fillRule="nonzero" opacity="0.6"/></g></g></svg>