<?xml version="1.0" encoding="UTF-8"?>
<svg width="400px" height="278px" viewBox="0 0 400 278" version="1.1" xmlns="http://www.w3.org/2000/svg" xmlns:xlink="http://www.w3.org/1999/xlink">
    <!-- Generator: Sketch 63.1 (92452) - https://sketch.com -->
    <title>Annuities</title>
    <desc>Created with Sketch.</desc>
    <defs>
        <linearGradient x1="80.7875%" y1="-65.7822%" x2="37.7854%" y2="73.0609%" id="linearGradient-1">
            <stop stop-color="#FAB643" offset="0%"></stop>
            <stop stop-color="#F48222" offset="55.9689%"></stop>
            <stop stop-color="#F16322" stop-opacity="0" offset="100%"></stop>
        </linearGradient>
        <linearGradient x1="71.0302%" y1="-65.7822%" x2="41.6565%" y2="73.0609%" id="linearGradient-2">
            <stop stop-color="#FAB643" offset="0%"></stop>
            <stop stop-color="#F48222" offset="55.9689%"></stop>
            <stop stop-color="#F16322" stop-opacity="0" offset="100%"></stop>
        </linearGradient>
        <linearGradient x1="-12.6884%" y1="-114.304%" x2="56.5239%" y2="71.9158%" id="linearGradient-3">
            <stop stop-color="#FAB643" offset="0%"></stop>
            <stop stop-color="#F48222" offset="55.9689%"></stop>
            <stop stop-color="#F16322" stop-opacity="0" offset="100%"></stop>
        </linearGradient>
        <linearGradient x1="6.43368%" y1="-20.2906%" x2="65.9646%" y2="112.619%" id="linearGradient-4">
            <stop stop-color="#FAB643" offset="0%"></stop>
            <stop stop-color="#F48222" offset="60.0586%"></stop>
            <stop stop-color="#F16322" offset="100%"></stop>
        </linearGradient>
        <linearGradient x1="6.43368%" y1="-19.9273%" x2="25.4626%" y2="82.0457%" id="linearGradient-5">
            <stop stop-color="#FAB643" offset="0%"></stop>
            <stop stop-color="#F48222" offset="55.9689%"></stop>
            <stop stop-color="#F16322" offset="100%"></stop>
        </linearGradient>
        <linearGradient x1="6.43368%" y1="25.8353%" x2="25.4626%" y2="61.074%" id="linearGradient-6">
            <stop stop-color="#FAB643" offset="0%"></stop>
            <stop stop-color="#F48222" offset="55.9689%"></stop>
            <stop stop-color="#F16322" offset="100%"></stop>
        </linearGradient>
        <linearGradient x1="6.43368%" y1="25.8353%" x2="25.4626%" y2="61.074%" id="linearGradient-7">
            <stop stop-color="#FAB643" offset="0%"></stop>
            <stop stop-color="#F48222" offset="55.9689%"></stop>
            <stop stop-color="#F16322" offset="100%"></stop>
        </linearGradient>
        <linearGradient x1="6.43368%" y1="25.8354%" x2="25.4626%" y2="61.0739%" id="linearGradient-8">
            <stop stop-color="#FAB643" offset="0%"></stop>
            <stop stop-color="#F48222" offset="55.9689%"></stop>
            <stop stop-color="#F16322" offset="100%"></stop>
        </linearGradient>
        <linearGradient x1="6.43368%" y1="-99.2843%" x2="25.4626%" y2="118.413%" id="linearGradient-9">
            <stop stop-color="#FAB643" offset="0%"></stop>
            <stop stop-color="#F48222" offset="55.9689%"></stop>
            <stop stop-color="#F16322" offset="100%"></stop>
        </linearGradient>
        <linearGradient x1="0%" y1="17.0191%" x2="85.4405%" y2="-56.4422%" id="linearGradient-10">
            <stop stop-color="#FFAD38" offset="0%"></stop>
            <stop stop-color="#F36309" offset="100%"></stop>
        </linearGradient>
        <linearGradient x1="6.43368%" y1="-27.5622%" x2="25.4626%" y2="85.5446%" id="linearGradient-11">
            <stop stop-color="#FAB643" offset="0%"></stop>
            <stop stop-color="#F48222" offset="55.9689%"></stop>
            <stop stop-color="#F16322" offset="100%"></stop>
        </linearGradient>
        <linearGradient x1="0%" y1="34.5076%" x2="85.4405%" y2="9.99200722e-14%" id="linearGradient-12">
            <stop stop-color="#FFAD38" offset="0%"></stop>
            <stop stop-color="#F36309" offset="100%"></stop>
        </linearGradient>
        <linearGradient x1="6.43368%" y1="-24.2922%" x2="25.4626%" y2="84.046%" id="linearGradient-13">
            <stop stop-color="#FAB643" offset="0%"></stop>
            <stop stop-color="#F48222" offset="55.9689%"></stop>
            <stop stop-color="#F16322" offset="100%"></stop>
        </linearGradient>
        <linearGradient x1="33.4998%" y1="24.4568%" x2="209.756%" y2="129.355%" id="linearGradient-14">
            <stop stop-color="#FAB643" offset="0%"></stop>
            <stop stop-color="#F48222" offset="60.0586%"></stop>
            <stop stop-color="#F16322" offset="100%"></stop>
        </linearGradient>
        <radialGradient cx="71.9149%" cy="36.2503%" fx="71.9149%" fy="36.2503%" r="67.4987%" id="radialGradient-15">
            <stop stop-color="#FFC47C" offset="0%"></stop>
            <stop stop-color="#F48826" offset="68.956%"></stop>
            <stop stop-color="#F16322" offset="100%"></stop>
        </radialGradient>
        <linearGradient x1="50%" y1="0%" x2="50%" y2="100%" id="linearGradient-16">
            <stop stop-color="#FAE1B4" offset="0%"></stop>
            <stop stop-color="#F9A44E" offset="100%"></stop>
        </linearGradient>
    </defs>
    <g id="Desktop" stroke="none" strokeWidth="1" fill="none" fillRule="evenodd">
        <g id="Annuities">
            <path d="M139.073,93.5 L261.878,93.5 L261.878,188.597 C261.878,222.509 234.387,250 200.476,250 C166.564,250 139.073,222.509 139.073,188.597 L139.073,93.5 L139.073,93.5 Z" id="Rectangle" fill="url(#linearGradient-1)" fillRule="nonzero" opacity="0.2"></path>
            <g id="Group-4-Copy-5" transform="translate(155.878000, 27.500000)" fillRule="nonzero">
                <polygon id="Shape" fill="url(#linearGradient-2)" opacity="0.2" points="0.505708 10.0153 0.505708 51.1909 45.2737 79.0442 45.2737 36.3627"></polygon>
                <polygon id="Shape" fill="url(#linearGradient-3)" opacity="0.6" points="45.2737 75.6227 103.603 42.6141 103.556 0 103.556 0 45.2737 30.7685"></polygon>
            </g>
            <g id="Group-4-Copy-4" transform="translate(55.509300, 60.500000)" fillRule="nonzero">
                <polygon id="Shape" fill="url(#linearGradient-2)" opacity="0.2" points="0.505708 10.0153 0.505708 51.1909 45.2737 79.0442 45.2737 36.3627"></polygon>
                <polygon id="Shape" fill="url(#linearGradient-3)" opacity="0.6" points="45.2737 75.6227 103.603 42.6141 103.556 0 103.556 0 45.2737 30.7685"></polygon>
            </g>
            <g id="Group-4-Copy-3" transform="translate(0.000000, 122.500000)" fillRule="nonzero">
                <polygon id="Shape" fill="url(#linearGradient-2)" opacity="0.2" points="0.505708 10.0153 0.505708 51.1909 45.2737 79.0442 45.2737 36.3627"></polygon>
                <polygon id="Shape" fill="url(#linearGradient-3)" opacity="0.6" points="45.2737 75.6227 103.603 42.6141 103.556 0 103.556 0 45.2737 30.7685"></polygon>
            </g>
            <g id="Group-4-Copy" transform="translate(253.509000, 183.000000)" fillRule="nonzero">
                <polygon id="Shape" fill="url(#linearGradient-2)" opacity="0.2" points="0.505708 10.0153 0.505708 51.1909 45.2737 79.0442 45.2737 36.3627"></polygon>
                <polygon id="Shape" fill="url(#linearGradient-3)" opacity="0.6" points="45.2737 75.6227 103.603 42.6141 103.556 0 103.556 0 45.2737 30.7685"></polygon>
            </g>
            <g id="Group-4-Copy-2" transform="translate(296.000000, 116.000000)" fillRule="nonzero">
                <polygon id="Shape" fill="url(#linearGradient-2)" opacity="0.2" points="0.505708 10.0153 0.505708 51.1909 45.2737 79.0442 45.2737 36.3627"></polygon>
                <polygon id="Shape" fill="url(#linearGradient-3)" opacity="0.6" points="45.2737 75.6227 103.603 42.6141 103.556 0 103.556 0 45.2737 30.7685"></polygon>
            </g>
            <g id="Group" transform="translate(0.000000, 0.500000)">
                <g id="Group-2" transform="translate(62.500000, 45.000000)">
                    <path d="M84.0621,113.174 C114.446,130.862 163.708,130.862 194.092,113.174 C224.475,95.486 224.475,66.8077 194.092,49.1194 C163.708,31.4312 114.446,31.4312 84.0621,49.1194 C53.6782,66.8077 53.6782,95.486 84.0621,113.174 Z" id="Oval" stroke="#F47F22" stroke-linecap="round" stroke-dasharray="3"></path>
                    <line x1="83.2528" y1="112.703" x2="58.1029" y2="127.344" id="Path-2" stroke="#F47F22" stroke-linecap="round" stroke-dasharray="3"></line>
                    <line x1="218.432" y1="34.007" x2="193.282" y2="48.6483" id="Path-2-Copy" stroke="#F47F22" stroke-linecap="round" stroke-dasharray="3"></line>
                    <line x1="160.907" y1="0.518367" x2="274.256" y2="66.5056" id="Path-3" stroke="#F47F22" stroke-linecap="round" stroke-dasharray="3"></line>
                    <g id="Group-3-Copy-2" transform="translate(211.531000, 29.502400)" fillRule="nonzero">
                        <path d="M7.32973,8.49535 C11.3778,8.49535 14.6595,6.5936 14.6595,4.24767 C14.6595,1.90175 11.3778,2.77898e-14 7.32973,2.77898e-14 C3.28163,2.77898e-14 2.16896e-14,1.90175 2.16896e-14,4.24767 C2.16896e-14,6.5936 3.28163,8.49535 7.32973,8.49535 Z" id="Oval" fill="url(#linearGradient-4)" opacity="0.15"></path>
                        <path d="M7.32973,6.41015 C9.39061,6.41015 11.0613,5.44198 11.0613,4.24767 C11.0613,3.05337 9.39061,2.08519 7.32973,2.08519 C5.26885,2.08519 3.59818,3.05337 3.59818,4.24767 C3.59818,5.44198 5.26885,6.41015 7.32973,6.41015 Z" id="Oval" fill="url(#linearGradient-5)"></path>
                    </g>
                    <line x1="59.0765" y1="34.5738" x2="84.0621" y2="49.1194" id="Path-3-Copy-2" stroke="#F47F22" stroke-linecap="round" stroke-dasharray="3"></line>
                    <line x1="193.962" y1="113.099" x2="218.947" y2="127.644" id="Path-3-Copy-3" stroke="#F47F22" stroke-linecap="round" stroke-dasharray="3"></line>
                    <g id="Group-5" transform="translate(191.667000, 110.889000)" fillRule="nonzero">
                        <path d="M102.902,29.1324 L102.902,29.8088 C102.902,29.9591 102.864,30.1113 102.783,30.2507 C102.705,30.3851 102.593,30.4967 102.458,30.5743 L45.9102,62.9406 C45.0869,63.4144 44.0729,63.4144 43.2496,62.9406 L0.443464,38.0682 C0.15898,37.9045 3.07027e-14,37.6073 3.07027e-14,37.3019 L3.07027e-14,36.707 L102.902,29.1324 Z" id="Combined-Shape" fill="url(#linearGradient-6)"></path>
                        <path d="M59.7059,3.55445 L102.455,28.4337 C102.879,28.6778 103.024,29.2184 102.779,29.6412 C102.701,29.7755 102.589,29.8871 102.455,29.9647 L45.8524,62.3919 C45.0291,62.8656 44.0151,62.8656 43.1918,62.3919 L0.443901,37.5127 C0.0198452,37.2685 -0.125505,36.728 0.119398,36.3053 C0.197144,36.1708 0.309127,36.0593 0.443901,35.9816 L57.0464,3.55445 C57.8686,3.08078 58.8826,3.08078 59.7059,3.55445 Z" id="Polygon" fill="#E2E7EC"></path>
                        <path d="M102.902,27.5328 L102.902,28.2092 C102.902,28.3594 102.864,28.5117 102.783,28.6511 C102.705,28.7856 102.593,28.8971 102.458,28.9746 L45.9102,61.3411 C45.0869,61.8148 44.0729,61.8148 43.2496,61.3411 L0.443464,36.4686 C0.15898,36.305 3.07027e-14,36.0078 3.07027e-14,35.7023 L3.07027e-14,35.1075 L102.902,27.5328 Z" id="Combined-Shape" fill="url(#linearGradient-7)"></path>
                        <path d="M59.7059,1.95484 L102.455,26.8342 C102.879,27.0782 103.024,27.6189 102.779,28.0416 C102.701,28.1759 102.589,28.2875 102.455,28.3651 L45.8524,60.7923 C45.0291,61.2661 44.0151,61.2661 43.1918,60.7923 L0.443901,35.9131 C0.0198452,35.669 -0.125505,35.1284 0.119398,34.7057 C0.197144,34.5713 0.309127,34.4597 0.443901,34.3821 L57.0464,1.95484 C57.8686,1.48117 58.8826,1.48117 59.7059,1.95484 Z" id="Polygon" fill="#E2E7EC"></path>
                        <path d="M102.902,25.9333 L102.902,26.6097 C102.902,26.7598 102.864,26.9122 102.783,27.0516 C102.705,27.186 102.593,27.2975 102.458,27.3751 L45.9102,59.7415 C45.0869,60.2152 44.0729,60.2152 43.2496,59.7415 L0.443464,34.869 C0.15898,34.7053 3.07027e-14,34.4082 3.07027e-14,34.1027 L3.07027e-14,33.5079 L102.902,25.9333 Z" id="Combined-Shape" fill="url(#linearGradient-8)"></path>
                        <path d="M59.816,0.355333 L102.565,25.2346 C102.989,25.4786 103.134,26.0192 102.889,26.442 C102.811,26.5763 102.699,26.688 102.565,26.7655 L45.9625,59.1928 C45.1393,59.6665 44.1252,59.6665 43.3019,59.1928 L0.553922,34.3136 C0.129757,34.0694 -0.0155927,33.5288 0.22931,33.1061 C0.307165,32.9717 0.419039,32.8602 0.553922,32.7825 L57.1554,0.355333 C57.9787,-0.118444 58.9928,-0.118444 59.816,0.355333 Z" id="Polygon" fill="#FCFCFC"></path>
                        <path d="M38.4333,62.4641 L30.9739,57.9 C30.5083,57.6147 30.2237,57.1074 30.2237,56.5607 L30.2237,51.2563 C30.2684,51.2451 30.2913,51.2222 30.3186,51.206 L42.422,44.0281 C42.5975,43.9232 42.8145,43.9232 42.9901,44.0281 L52.1309,49.5353 C52.2214,49.5893 52.253,49.7089 52.2007,49.8025 C52.1843,49.8322 52.1603,49.8569 52.1309,49.8741 L39.7538,57.1709 C39.7135,57.1949 39.6709,57.2133 39.6284,57.2263 L39.6284,61.7944 C39.6284,62.228 39.2762,62.5795 38.8433,62.5795 C38.6983,62.5795 38.5565,62.5396 38.4333,62.4641 Z" id="Combined-Shape" fill="url(#linearGradient-9)"></path>
                        <path d="M37.935,62.4822 L30.215,57.9642 C29.7341,57.6825 29.4386,57.1667 29.4386,56.609 L29.4386,51.2934 C29.4833,51.2822 29.5062,51.2592 29.5335,51.243 L41.6358,44.0285 C41.8125,43.9231 42.0295,43.9231 42.205,44.0285 L51.3458,49.5636 C51.4363,49.6179 51.4668,49.7382 51.4145,49.8323 C51.3981,49.8622 51.3742,49.887 51.3458,49.9043 L39.2424,57.1188 C39.2021,57.1429 39.1606,57.1614 39.117,57.1745 L39.117,61.8046 C39.117,62.2382 38.7648,62.5897 38.3319,62.5897 C38.1923,62.5897 38.055,62.5527 37.935,62.4822 Z" id="Combined-Shape" fill="url(#linearGradient-10)"></path>
                        <path d="M30.8038,58.076 L30.2237,57.754 L30.2237,51.4259 C30.2706,51.4145 30.2935,51.391 30.3219,51.3745 L42.8494,44.0299 C43.0315,43.9226 43.2561,43.9226 43.4382,44.0299 L43.484,44.1024 C43.5778,44.1577 43.6105,44.2801 43.556,44.3759 C43.5386,44.4063 43.5135,44.4316 43.484,44.4491 L30.9576,51.7937 C30.915,51.8182 30.8714,51.8371 30.8267,51.8504 L30.8038,58.076 Z" id="Combined-Shape" fill="#FCFCFC"></path>
                        <path d="M37.0889,62 L36.5099,61.678 L36.5099,55.3499 C36.5568,55.3385 36.5797,55.3151 36.608,55.2986 L49.1356,47.954 C49.3177,47.8467 49.5423,47.8467 49.7244,47.954 L49.7702,48.0264 C49.864,48.0817 49.8967,48.2041 49.8421,48.2999 C49.8247,48.3303 49.7996,48.3556 49.7702,48.3731 L37.2426,55.7177 C37.2012,55.7423 37.1576,55.7612 37.1129,55.7745 L37.0889,62 Z" id="Combined-Shape" fill="#FCFCFC"></path>
                        <path d="M49.43,11.7722 L47.7966,12.7189 L80.4527,31.6541 L82.0855,30.7073 L49.43,11.7722 Z M43.7141,15.0858 L42.0818,16.0326 L74.738,34.9677 L76.3707,34.0209 L43.7141,15.0858 Z M37.9993,18.3994 L36.367,19.3462 L69.0231,38.2814 L70.656,37.3346 L37.9993,18.3994 Z M32.2846,21.7132 L30.6523,22.6598 L63.3083,41.595 L64.9411,40.6482 L32.2846,21.7132 Z M26.5698,25.0268 L24.9375,25.9736 L43.3063,36.6245 L44.9397,35.6778 L26.5698,25.0268 Z M20.855,28.3404 L19.2227,29.2872 L37.5915,39.9382 L39.225,38.9915 L20.855,28.3404 Z" id="Shape" fill="#FFDBB4"></path>
                        <polygon id="Path" fill="url(#linearGradient-11)" points="16.8653 30.6076 9.79296 34.9241 16.8653 39.2405 23.9376 34.9241"></polygon>
                        <polygon id="Path" fill="url(#linearGradient-12)" points="61.0994 7.8481 89.9437 24.5971 84.9987 27.4684 56.1547 10.7194"></polygon>
                        <path d="M39.8476,48.2698 C39.0821,48.1721 38.5576,47.7804 38.5478,47.3431 C38.5456,47.2948 38.5456,47.0992 38.5478,46.7565 C38.5893,46.9626 38.6154,47.0564 38.6252,47.0376 C38.96,46.4244 38.6514,45.7537 37.8347,45.3201 C37.4694,45.1263 37.2884,44.8592 37.2946361,44.5926 C37.2971,44.5235 37.2971,44.3439 37.2946361,44.0539 C37.4814,44.0564 37.6253,44.025 37.7267,43.9598 C37.7616,43.9379 37.7976,43.9171 37.8347,43.8973 C38.6514,43.4636 38.96,42.793 38.6252,42.1798 C38.5653,42.0706 38.5413,41.9599 38.5478,41.8517 C38.55,41.823 38.55,41.6378 38.5478,41.2959 C38.9109,41.1539 39.2947,41.0455 39.7004,40.9704 C39.7483,40.9615 39.7974,40.9539 39.8476,40.9475 C40.9271,40.8097 41.7699,40.3188 42.0066,39.6902 C42.2028,39.1708 43.085,38.8421 43.9769,38.9559 C44.0271,38.9622 44.075,38.9699 44.1241,38.9788 C45.1774,39.1738 46.3289,38.9941 47.0736,38.5187 C47.6897,38.1257 48.7365,38.0977 49.4114,38.4561 C49.4485,38.4759 49.4845,38.4969 49.5183,38.5187 C50.263,38.9941 51.4156,39.1738 52.4689,38.9788 C53.339,38.8178 54.2692,39.098 54.5461,39.6048 C54.5614,39.6329 54.5745,39.6614 54.5854,39.6902 C54.822,40.3188 55.666,40.8097 56.7454,40.9475 C57.1838,41.0035 57.6167,41.1302 58.0452,41.3276 C58.043,41.6453 58.043,41.8232 58.0452,41.8616 C58.0485,41.9382 58.0365,42.0162 58.007,42.0943 C57.9961,42.1231 57.983,42.1517 57.9678,42.1798 C57.6319,42.793 57.9416,43.4636 58.7583,43.8973 C58.9579,44.0036 59.1378,44.0613 59.297,44.0702 C59.297,44.4022 59.297,44.5824 59.297,44.6106 C59.297,44.8418 59.1541,45.0734 58.8652,45.2575 C58.8314,45.2794 58.7954,45.3002 58.7583,45.3201 C58.139,45.6488 57.8119,46.1136 57.8358,46.5864 C57.8402,46.6871 57.91,46.7596 58.0452,46.8041 C58.0463,47.1687 58.0452,47.3677 58.0408,47.4012 C57.9918,47.7814 57.5545,48.1243 56.8916,48.2469 C56.8436,48.2558 56.7945,48.2634 56.7454,48.2698 C55.666,48.4076 54.822,48.8986 54.5854,49.5271 C54.3902,50.0466 53.5081,50.3753 52.615,50.2614 C52.566,50.2551 52.5169,50.2474 52.4689,50.2385 C51.4156,50.0436 50.263,50.2233 49.5183,50.6987 C48.9022,51.0916 47.8565,51.1196 47.1816,50.7612 C47.1445,50.7414 47.1085,50.7205 47.0736,50.6987 C46.3289,50.2233 45.1774,50.0436 44.1241,50.2385 C43.2529,50.3996 42.3228,50.1193 42.0469,49.6125 C42.0305,49.5844 42.0175,49.5559 42.0066,49.5271 C41.7699,48.8986 40.9271,48.4076 39.8476,48.2698 Z" id="Star-2" fill="url(#linearGradient-13)"></path>
                        <path d="M39.8476,47.7361 C38.9545,47.6222 38.3908,47.1088 38.586,46.5894 C38.5969,46.5606 38.61,46.532 38.6252,46.5039 C38.96,45.8906 38.6514,45.22 37.8347,44.7864 C37.1597,44.4281 37.1118,43.819 37.7278,43.4261 C37.7616,43.4043 37.7976,43.3835 37.8347,43.3636 C38.6514,42.93 38.96,42.2594 38.6252,41.646 C38.3483,41.1392 38.8302,40.5978 39.7004,40.4368 C39.7494,40.4279 39.7974,40.4202 39.8476,40.4139 C40.9271,40.2761 41.7699,39.7852 42.0076,39.1566 C42.2028,38.6371 43.085,38.3083 43.9769,38.4223 C44.0271,38.4286 44.075,38.4362 44.1241,38.4452 C45.1774,38.64 46.3289,38.4603 47.0747,37.9849 C47.6897,37.5921 48.7365,37.564 49.4114,37.9224 C49.4485,37.9423 49.4845,37.9631 49.5183,37.9849 C50.263,38.4603 51.4156,38.64 52.4689,38.4452 C53.339,38.2841 54.2692,38.5644 54.5461,39.0712 C54.5614,39.0993 54.5745,39.1278 54.5854,39.1566 C54.822,39.7852 55.666,40.2761 56.7454,40.4139 C57.6374,40.5277 58.2022,41.0412 58.007,41.5607 C57.9961,41.5895 57.983,41.618 57.9678,41.646 C57.633,42.2594 57.9416,42.93 58.7583,43.3636 C59.4333,43.7219 59.4813,44.3309 58.8652,44.7239 C58.8314,44.7457 58.7954,44.7665 58.7583,44.7864 C57.9416,45.22 57.633,45.8906 57.9678,46.5039 C58.2437,47.0107 57.7628,47.5522 56.8916,47.7132 C56.8436,47.7222 56.7945,47.7298 56.7454,47.7361 C55.666,47.874 54.822,48.3648 54.5854,48.9935 C54.3902,49.5128 53.5081,49.8416 52.615,49.7277 C52.566,49.7214 52.5169,49.7138 52.4689,49.7048 C51.4156,49.5099 50.263,49.6896 49.5183,50.165 C48.9033,50.558 47.8565,50.586 47.1816,50.2276 C47.1445,50.2077 47.1085,50.1868 47.0747,50.165 C46.3289,49.6896 45.1774,49.5099 44.1241,49.7048 C43.2529,49.8659 42.3228,49.5857 42.0469,49.0788 C42.0316,49.0507 42.0185,49.0222 42.0076,48.9935 C41.7699,48.3648 40.9271,47.874 39.8476,47.7361 Z" id="Star-2" fill="url(#linearGradient-14)"></path>
                        <path d="M42.7153,47.0939 C39.7821,45.4266 39.7821,42.7234 42.7153,41.0561 C45.6496,39.3888 50.407,39.3888 53.3401,41.0561 C56.2744,42.7234 56.2744,45.4266 53.3401,47.0939 C50.407,48.7612 45.6496,48.7612 42.7153,47.0939 Z M43.3794,46.7165 C45.9473,48.1754 50.1093,48.1754 52.6761,46.7165 C55.244,45.2577 55.244,42.8924 52.6761,41.4334 C50.1093,39.9746 45.9473,39.9746 43.3794,41.4334 C40.8126,42.8924 40.8126,45.2577 43.3794,46.7165 Z" id="Oval-9" fill="#FCFCFC"></path>
                    </g>
                    <g id="Group-3-Copy" transform="translate(186.839000, 109.270000)" fillRule="nonzero">
                        <path d="M7.32973,8.49535 C11.3778,8.49535 14.6595,6.5936 14.6595,4.24767 C14.6595,1.90175 11.3778,2.77898e-14 7.32973,2.77898e-14 C3.28163,2.77898e-14 2.16896e-14,1.90175 2.16896e-14,4.24767 C2.16896e-14,6.5936 3.28163,8.49535 7.32973,8.49535 Z" id="Oval" fill="url(#linearGradient-4)" opacity="0.15"></path>
                        <path d="M7.32973,6.41015 C9.39061,6.41015 11.0613,5.44198 11.0613,4.24767 C11.0613,3.05337 9.39061,2.08519 7.32973,2.08519 C5.26885,2.08519 3.59818,3.05337 3.59818,4.24767 C3.59818,5.44198 5.26885,6.41015 7.32973,6.41015 Z" id="Oval" fill="url(#linearGradient-5)"></path>
                    </g>
                    <line x1="0.578054" y1="93.8557" x2="113.927" y2="159.843" id="Path-3-Copy" stroke="#F47F22" stroke-linecap="round" stroke-dasharray="3"></line>
                    <g id="Group-3" transform="translate(51.893700, 123.239000)" fillRule="nonzero">
                        <path d="M7.32973,8.49535 C11.3778,8.49535 14.6595,6.5936 14.6595,4.24767 C14.6595,1.90175 11.3778,2.77898e-14 7.32973,2.77898e-14 C3.28163,2.77898e-14 2.16896e-14,1.90175 2.16896e-14,4.24767 C2.16896e-14,6.5936 3.28163,8.49535 7.32973,8.49535 Z" id="Oval" fill="url(#linearGradient-4)" opacity="0.15"></path>
                        <path d="M7.32973,6.41015 C9.39061,6.41015 11.0613,5.44198 11.0613,4.24767 C11.0613,3.05337 9.39061,2.08519 7.32973,2.08519 C5.26885,2.08519 3.59818,3.05337 3.59818,4.24767 C3.59818,5.44198 5.26885,6.41015 7.32973,6.41015 Z" id="Oval" fill="url(#linearGradient-5)"></path>
                    </g>
                </g>
                <g id="Group-5-Copy" transform="translate(56.000000, 36.000000)" fillRule="nonzero">
                    <path d="M102.902,29.1324 L102.902,29.8088 C102.902,29.9591 102.864,30.1113 102.783,30.2507 C102.705,30.3851 102.593,30.4967 102.458,30.5743 L45.9102,62.9406 C45.0869,63.4144 44.0729,63.4144 43.2496,62.9406 L0.443464,38.0682 C0.15898,37.9045 2.84217094e-14,37.6073 2.84217094e-14,37.3019 L2.84217094e-14,36.707 L102.902,29.1324 Z" id="Combined-Shape" fill="url(#linearGradient-6)"></path>
                    <path d="M59.7059,3.55445 L102.455,28.4337 C102.879,28.6778 103.024,29.2184 102.779,29.6412 C102.701,29.7755 102.589,29.8871 102.455,29.9647 L45.8524,62.3919 C45.0291,62.8656 44.0151,62.8656 43.1918,62.3919 L0.443901,37.5127 C0.0198452,37.2685 -0.125505,36.728 0.119398,36.3053 C0.197144,36.1708 0.309127,36.0593 0.443901,35.9816 L57.0464,3.55445 C57.8686,3.08078 58.8826,3.08078 59.7059,3.55445 Z" id="Polygon" fill="#E2E7EC"></path>
                    <path d="M102.902,27.5328 L102.902,28.2092 C102.902,28.3594 102.864,28.5117 102.783,28.6511 C102.705,28.7856 102.593,28.8971 102.458,28.9746 L45.9102,61.3411 C45.0869,61.8148 44.0729,61.8148 43.2496,61.3411 L0.443464,36.4686 C0.15898,36.305 2.84217094e-14,36.0078 2.84217094e-14,35.7023 L2.84217094e-14,35.1075 L102.902,27.5328 Z" id="Combined-Shape" fill="url(#linearGradient-7)"></path>
                    <path d="M59.7059,1.95484 L102.455,26.8342 C102.879,27.0782 103.024,27.6189 102.779,28.0416 C102.701,28.1759 102.589,28.2875 102.455,28.3651 L45.8524,60.7923 C45.0291,61.2661 44.0151,61.2661 43.1918,60.7923 L0.443901,35.9131 C0.0198452,35.669 -0.125505,35.1284 0.119398,34.7057 C0.197144,34.5713 0.309127,34.4597 0.443901,34.3821 L57.0464,1.95484 C57.8686,1.48117 58.8826,1.48117 59.7059,1.95484 Z" id="Polygon" fill="#E2E7EC"></path>
                    <path d="M102.902,25.9333 L102.902,26.6097 C102.902,26.7598 102.864,26.9122 102.783,27.0516 C102.705,27.186 102.593,27.2975 102.458,27.3751 L45.9102,59.7415 C45.0869,60.2152 44.0729,60.2152 43.2496,59.7415 L0.443464,34.869 C0.15898,34.7053 2.84217094e-14,34.4082 2.84217094e-14,34.1027 L2.84217094e-14,33.5079 L102.902,25.9333 Z" id="Combined-Shape" fill="url(#linearGradient-8)"></path>
                    <path d="M59.816,0.355333 L102.565,25.2346 C102.989,25.4786 103.134,26.0192 102.889,26.442 C102.811,26.5763 102.699,26.688 102.565,26.7655 L45.9625,59.1928 C45.1393,59.6665 44.1252,59.6665 43.3019,59.1928 L0.553922,34.3136 C0.129757,34.0694 -0.0155927,33.5288 0.22931,33.1061 C0.307165,32.9717 0.419039,32.8602 0.553922,32.7825 L57.1554,0.355333 C57.9787,-0.118444 58.9928,-0.118444 59.816,0.355333 Z" id="Polygon" fill="#FCFCFC"></path>
                    <path d="M55.8674772,41.5034739 C60.1132669,44.0958531 60.0329541,48.2104743 55.6879664,50.6937967 C51.3429513,53.1771101 44.3786238,53.0887613 40.1325319,50.4965368 C35.8867301,47.9041576 35.9670429,43.7895363 40.3120424,41.306214 C44.6570776,38.8228863 51.6214051,38.9112351 55.8674772,41.5034739 Z M54.3212015,49.8014656 C57.8788771,47.7681191 57.9446367,44.3990931 54.4681844,42.276451 C50.99151,40.1539457 45.2891742,40.0816064 41.7314857,42.1149357 C38.1738258,44.1482824 38.1080662,47.5173084 41.5845028,49.6399503 C45.0611773,51.7624477 50.7635131,51.834787 54.3212015,49.8014656 Z M52.5360844,46.3621054 C52.050725,46.6395147 51.5314484,46.8154018 50.9782171,46.8897789 C50.4250235,46.9641437 49.8585975,46.9509014 49.2789396,46.8500394 L47.822746,49.3646814 L47.7579205,49.4017383 L46.4562568,48.7514442 L47.8511729,46.4518871 L46.4966804,45.7752076 L43.6992528,47.3740893 L42.4840459,46.7669956 L49.7444524,42.6173203 L52.203685,43.8459079 C53.0106167,44.2490356 53.4455975,44.6675359 53.5086276,45.1013961 C53.5716575,45.5352691 53.2475014,45.9555016 52.5360844,46.3621054 Z M51.8491807,45.110933 C51.8489986,44.8829424 51.6408801,44.6614753 51.2248627,44.4465193 L49.9423993,43.8058208 L47.5089538,45.1966514 L48.7577889,45.8205475 C49.1676548,46.0253099 49.5950937,46.1239991 50.0400681,46.1166274 C50.4850424,46.1092557 50.8936947,45.9991733 51.2660301,45.7863705 C51.6549775,45.5640641 51.8493626,45.3389236 51.8491807,45.110933 Z" id="Combined-Shape" fill="#F36309"></path>
                    <path d="M49.43,11.7722 L47.7966,12.7189 L80.4527,31.6541 L82.0855,30.7073 L49.43,11.7722 Z M43.7141,15.0858 L42.0818,16.0326 L74.738,34.9677 L76.3707,34.0209 L43.7141,15.0858 Z M37.9993,18.3994 L36.367,19.3462 L69.0231,38.2814 L70.656,37.3346 L37.9993,18.3994 Z M32.2846,21.7132 L30.6523,22.6598 L63.3083,41.595 L64.9411,40.6482 L32.2846,21.7132 Z M26.5698,25.0268 L24.9375,25.9736 L43.3063,36.6245 L44.9397,35.6778 L26.5698,25.0268 Z M20.855,28.3404 L19.2227,29.2872 L37.5915,39.9382 L39.225,38.9915 L20.855,28.3404 Z" id="Shape" fill="#FFDBB4"></path>
                    <polygon id="Path" fill="url(#linearGradient-11)" points="16.8653 30.6076 9.79296 34.9241 16.8653 39.2405 23.9376 34.9241"></polygon>
                    <polygon id="Path" fill="url(#linearGradient-12)" points="61.0994 7.8481 89.9437 24.5971 84.9987 27.4684 56.1547 10.7194"></polygon>
                </g>
                <g id="Group-5-Copy-2" transform="translate(156.000000, 0.000000)" fillRule="nonzero">
                    <path d="M102.902,29.1324 L102.902,29.8088 C102.902,29.9591 102.864,30.1113 102.783,30.2507 C102.705,30.3851 102.593,30.4967 102.458,30.5743 L45.9102,62.9406 C45.0869,63.4144 44.0729,63.4144 43.2496,62.9406 L0.443464,38.0682 C0.15898,37.9045 3.07027e-14,37.6073 3.07027e-14,37.3019 L3.07027e-14,36.707 L102.902,29.1324 Z" id="Combined-Shape" fill="url(#linearGradient-6)"></path>
                    <path d="M59.7059,3.55445 L102.455,28.4337 C102.879,28.6778 103.024,29.2184 102.779,29.6412 C102.701,29.7755 102.589,29.8871 102.455,29.9647 L45.8524,62.3919 C45.0291,62.8656 44.0151,62.8656 43.1918,62.3919 L0.443901,37.5127 C0.0198452,37.2685 -0.125505,36.728 0.119398,36.3053 C0.197144,36.1708 0.309127,36.0593 0.443901,35.9816 L57.0464,3.55445 C57.8686,3.08078 58.8826,3.08078 59.7059,3.55445 Z" id="Polygon" fill="#E2E7EC"></path>
                    <path d="M102.902,27.5328 L102.902,28.2092 C102.902,28.3594 102.864,28.5117 102.783,28.6511 C102.705,28.7856 102.593,28.8971 102.458,28.9746 L45.9102,61.3411 C45.0869,61.8148 44.0729,61.8148 43.2496,61.3411 L0.443464,36.4686 C0.15898,36.305 3.07027e-14,36.0078 3.07027e-14,35.7023 L3.07027e-14,35.1075 L102.902,27.5328 Z" id="Combined-Shape" fill="url(#linearGradient-7)"></path>
                    <path d="M59.7059,1.95484 L102.455,26.8342 C102.879,27.0782 103.024,27.6189 102.779,28.0416 C102.701,28.1759 102.589,28.2875 102.455,28.3651 L45.8524,60.7923 C45.0291,61.2661 44.0151,61.2661 43.1918,60.7923 L0.443901,35.9131 C0.0198452,35.669 -0.125505,35.1284 0.119398,34.7057 C0.197144,34.5713 0.309127,34.4597 0.443901,34.3821 L57.0464,1.95484 C57.8686,1.48117 58.8826,1.48117 59.7059,1.95484 Z" id="Polygon" fill="#E2E7EC"></path>
                    <path d="M102.902,25.9333 L102.902,26.6097 C102.902,26.7598 102.864,26.9122 102.783,27.0516 C102.705,27.186 102.593,27.2975 102.458,27.3751 L45.9102,59.7415 C45.0869,60.2152 44.0729,60.2152 43.2496,59.7415 L0.443464,34.869 C0.15898,34.7053 3.07027e-14,34.4082 3.07027e-14,34.1027 L3.07027e-14,33.5079 L102.902,25.9333 Z" id="Combined-Shape" fill="url(#linearGradient-8)"></path>
                    <path d="M59.816,0.355333 L102.565,25.2346 C102.989,25.4786 103.134,26.0192 102.889,26.442 C102.811,26.5763 102.699,26.688 102.565,26.7655 L45.9625,59.1928 C45.1393,59.6665 44.1252,59.6665 43.3019,59.1928 L0.553922,34.3136 C0.129757,34.0694 -0.0155927,33.5288 0.22931,33.1061 C0.307165,32.9717 0.419039,32.8602 0.553922,32.7825 L57.1554,0.355333 C57.9787,-0.118444 58.9928,-0.118444 59.816,0.355333 Z" id="Polygon" fill="#FCFCFC"></path>
                    <path d="M38.4333,62.4641 L30.9739,57.9 C30.5083,57.6147 30.2237,57.1074 30.2237,56.5607 L30.2237,51.2563 C30.2684,51.2451 30.2913,51.2222 30.3186,51.206 L42.422,44.0281 C42.5975,43.9232 42.8145,43.9232 42.9901,44.0281 L52.1309,49.5353 C52.2214,49.5893 52.253,49.7089 52.2007,49.8025 C52.1843,49.8322 52.1603,49.8569 52.1309,49.8741 L39.7538,57.1709 C39.7135,57.1949 39.6709,57.2133 39.6284,57.2263 L39.6284,61.7944 C39.6284,62.228 39.2762,62.5795 38.8433,62.5795 C38.6983,62.5795 38.5565,62.5396 38.4333,62.4641 Z" id="Combined-Shape" fill="url(#linearGradient-9)"></path>
                    <path d="M37.935,62.4822 L30.215,57.9642 C29.7341,57.6825 29.4386,57.1667 29.4386,56.609 L29.4386,51.2934 C29.4833,51.2822 29.5062,51.2592 29.5335,51.243 L41.6358,44.0285 C41.8125,43.9231 42.0295,43.9231 42.205,44.0285 L51.3458,49.5636 C51.4363,49.6179 51.4668,49.7382 51.4145,49.8323 C51.3981,49.8622 51.3742,49.887 51.3458,49.9043 L39.2424,57.1188 C39.2021,57.1429 39.1606,57.1614 39.117,57.1745 L39.117,61.8046 C39.117,62.2382 38.7648,62.5897 38.3319,62.5897 C38.1923,62.5897 38.055,62.5527 37.935,62.4822 Z" id="Combined-Shape" fill="url(#linearGradient-10)"></path>
                    <path d="M30.8038,58.076 L30.2237,57.754 L30.2237,51.4259 C30.2706,51.4145 30.2935,51.391 30.3219,51.3745 L42.8494,44.0299 C43.0315,43.9226 43.2561,43.9226 43.4382,44.0299 L43.484,44.1024 C43.5778,44.1577 43.6105,44.2801 43.556,44.3759 C43.5386,44.4063 43.5135,44.4316 43.484,44.4491 L30.9576,51.7937 C30.915,51.8182 30.8714,51.8371 30.8267,51.8504 L30.8038,58.076 Z" id="Combined-Shape" fill="#FCFCFC"></path>
                    <path d="M37.0889,62 L36.5099,61.678 L36.5099,55.3499 C36.5568,55.3385 36.5797,55.3151 36.608,55.2986 L49.1356,47.954 C49.3177,47.8467 49.5423,47.8467 49.7244,47.954 L49.7702,48.0264 C49.864,48.0817 49.8967,48.2041 49.8421,48.2999 C49.8247,48.3303 49.7996,48.3556 49.7702,48.3731 L37.2426,55.7177 C37.2012,55.7423 37.1576,55.7612 37.1129,55.7745 L37.0889,62 Z" id="Combined-Shape" fill="#FCFCFC"></path>
                    <path d="M49.43,11.7722 L47.7966,12.7189 L80.4527,31.6541 L82.0855,30.7073 L49.43,11.7722 Z M43.7141,15.0858 L42.0818,16.0326 L74.738,34.9677 L76.3707,34.0209 L43.7141,15.0858 Z M37.9993,18.3994 L36.367,19.3462 L69.0231,38.2814 L70.656,37.3346 L37.9993,18.3994 Z M32.2846,21.7132 L30.6523,22.6598 L63.3083,41.595 L64.9411,40.6482 L32.2846,21.7132 Z M26.5698,25.0268 L24.9375,25.9736 L43.3063,36.6245 L44.9397,35.6778 L26.5698,25.0268 Z M20.855,28.3404 L19.2227,29.2872 L37.5915,39.9382 L39.225,38.9915 L20.855,28.3404 Z" id="Shape" fill="#FFDBB4"></path>
                    <polygon id="Path" fill="url(#linearGradient-11)" points="16.8653 30.6076 9.79296 34.9241 16.8653 39.2405 23.9376 34.9241"></polygon>
                    <polygon id="Path" fill="url(#linearGradient-12)" points="61.0994 7.8481 89.9437 24.5971 84.9987 27.4684 56.1547 10.7194"></polygon>
                    <path d="M39.8476,48.2698 C39.0821,48.1721 38.5576,47.7804 38.5478,47.3431 C38.5456,47.2948 38.5456,47.0992 38.5478,46.7565 C38.5893,46.9626 38.6154,47.0564 38.6252,47.0376 C38.96,46.4244 38.6514,45.7537 37.8347,45.3201 C37.4694,45.1263 37.2884,44.8592 37.2946361,44.5926 C37.2971,44.5235 37.2971,44.3439 37.2946361,44.0539 C37.4814,44.0564 37.6253,44.025 37.7267,43.9598 C37.7616,43.9379 37.7976,43.9171 37.8347,43.8973 C38.6514,43.4636 38.96,42.793 38.6252,42.1798 C38.5653,42.0706 38.5413,41.9599 38.5478,41.8517 C38.55,41.823 38.55,41.6378 38.5478,41.2959 C38.9109,41.1539 39.2947,41.0455 39.7004,40.9704 C39.7483,40.9615 39.7974,40.9539 39.8476,40.9475 C40.9271,40.8097 41.7699,40.3188 42.0066,39.6902 C42.2028,39.1708 43.085,38.8421 43.9769,38.9559 C44.0271,38.9622 44.075,38.9699 44.1241,38.9788 C45.1774,39.1738 46.3289,38.9941 47.0736,38.5187 C47.6897,38.1257 48.7365,38.0977 49.4114,38.4561 C49.4485,38.4759 49.4845,38.4969 49.5183,38.5187 C50.263,38.9941 51.4156,39.1738 52.4689,38.9788 C53.339,38.8178 54.2692,39.098 54.5461,39.6048 C54.5614,39.6329 54.5745,39.6614 54.5854,39.6902 C54.822,40.3188 55.666,40.8097 56.7454,40.9475 C57.1838,41.0035 57.6167,41.1302 58.0452,41.3276 C58.043,41.6453 58.043,41.8232 58.0452,41.8616 C58.0485,41.9382 58.0365,42.0162 58.007,42.0943 C57.9961,42.1231 57.983,42.1517 57.9678,42.1798 C57.6319,42.793 57.9416,43.4636 58.7583,43.8973 C58.9579,44.0036 59.1378,44.0613 59.297,44.0702 C59.297,44.4022 59.297,44.5824 59.297,44.6106 C59.297,44.8418 59.1541,45.0734 58.8652,45.2575 C58.8314,45.2794 58.7954,45.3002 58.7583,45.3201 C58.139,45.6488 57.8119,46.1136 57.8358,46.5864 C57.8402,46.6871 57.91,46.7596 58.0452,46.8041 C58.0463,47.1687 58.0452,47.3677 58.0408,47.4012 C57.9918,47.7814 57.5545,48.1243 56.8916,48.2469 C56.8436,48.2558 56.7945,48.2634 56.7454,48.2698 C55.666,48.4076 54.822,48.8986 54.5854,49.5271 C54.3902,50.0466 53.5081,50.3753 52.615,50.2614 C52.566,50.2551 52.5169,50.2474 52.4689,50.2385 C51.4156,50.0436 50.263,50.2233 49.5183,50.6987 C48.9022,51.0916 47.8565,51.1196 47.1816,50.7612 C47.1445,50.7414 47.1085,50.7205 47.0736,50.6987 C46.3289,50.2233 45.1774,50.0436 44.1241,50.2385 C43.2529,50.3996 42.3228,50.1193 42.0469,49.6125 C42.0305,49.5844 42.0175,49.5559 42.0066,49.5271 C41.7699,48.8986 40.9271,48.4076 39.8476,48.2698 Z" id="Star-2" fill="url(#linearGradient-13)"></path>
                    <path d="M39.8476,47.7361 C38.9545,47.6222 38.3908,47.1088 38.586,46.5894 C38.5969,46.5606 38.61,46.532 38.6252,46.5039 C38.96,45.8906 38.6514,45.22 37.8347,44.7864 C37.1597,44.4281 37.1118,43.819 37.7278,43.4261 C37.7616,43.4043 37.7976,43.3835 37.8347,43.3636 C38.6514,42.93 38.96,42.2594 38.6252,41.646 C38.3483,41.1392 38.8302,40.5978 39.7004,40.4368 C39.7494,40.4279 39.7974,40.4202 39.8476,40.4139 C40.9271,40.2761 41.7699,39.7852 42.0076,39.1566 C42.2028,38.6371 43.085,38.3083 43.9769,38.4223 C44.0271,38.4286 44.075,38.4362 44.1241,38.4452 C45.1774,38.64 46.3289,38.4603 47.0747,37.9849 C47.6897,37.5921 48.7365,37.564 49.4114,37.9224 C49.4485,37.9423 49.4845,37.9631 49.5183,37.9849 C50.263,38.4603 51.4156,38.64 52.4689,38.4452 C53.339,38.2841 54.2692,38.5644 54.5461,39.0712 C54.5614,39.0993 54.5745,39.1278 54.5854,39.1566 C54.822,39.7852 55.666,40.2761 56.7454,40.4139 C57.6374,40.5277 58.2022,41.0412 58.007,41.5607 C57.9961,41.5895 57.983,41.618 57.9678,41.646 C57.633,42.2594 57.9416,42.93 58.7583,43.3636 C59.4333,43.7219 59.4813,44.3309 58.8652,44.7239 C58.8314,44.7457 58.7954,44.7665 58.7583,44.7864 C57.9416,45.22 57.633,45.8906 57.9678,46.5039 C58.2437,47.0107 57.7628,47.5522 56.8916,47.7132 C56.8436,47.7222 56.7945,47.7298 56.7454,47.7361 C55.666,47.874 54.822,48.3648 54.5854,48.9935 C54.3902,49.5128 53.5081,49.8416 52.615,49.7277 C52.566,49.7214 52.5169,49.7138 52.4689,49.7048 C51.4156,49.5099 50.263,49.6896 49.5183,50.165 C48.9033,50.558 47.8565,50.586 47.1816,50.2276 C47.1445,50.2077 47.1085,50.1868 47.0747,50.165 C46.3289,49.6896 45.1774,49.5099 44.1241,49.7048 C43.2529,49.8659 42.3228,49.5857 42.0469,49.0788 C42.0316,49.0507 42.0185,49.0222 42.0076,48.9935 C41.7699,48.3648 40.9271,47.874 39.8476,47.7361 Z" id="Star-2" fill="url(#linearGradient-14)"></path>
                    <path d="M42.7153,47.0939 C39.7821,45.4266 39.7821,42.7234 42.7153,41.0561 C45.6496,39.3888 50.407,39.3888 53.3401,41.0561 C56.2744,42.7234 56.2744,45.4266 53.3401,47.0939 C50.407,48.7612 45.6496,48.7612 42.7153,47.0939 Z M43.3794,46.7165 C45.9473,48.1754 50.1093,48.1754 52.6761,46.7165 C55.244,45.2577 55.244,42.8924 52.6761,41.4334 C50.1093,39.9746 45.9473,39.9746 43.3794,41.4334 C40.8126,42.8924 40.8126,45.2577 43.3794,46.7165 Z" id="Oval-9" fill="#FCFCFC"></path>
                </g>
                <g id="ill-global-reach" transform="translate(138.608000, 29.935200)" fillRule="nonzero">
                    <circle id="a" fill="url(#radialGradient-15)" cx="61.8116" cy="61.3464" r="61.3464"></circle>
                    <path d="M61.8116,2.96151e-13 L62.5074,0.00386508 L62.5074,0.00386508 L62.5068,12.3255 L62.5161,12.3255 C70.2518,9.08791 78.5766,7.32568 87.2528,7.32568 C88.5482,7.32568 89.8394,7.36502 91.1255,7.44339 C92.4962,8.19072 93.8349,8.98828 95.1395,9.83406 C85.9385,8.645 76.5675,9.54967 67.7332,12.5046 C87.0776,13.7844 104.733,21.9104 117.104,34.7412 C118.007,36.6141 118.817,38.5399 119.53,40.5127 C107.121,25.0581 87.3948,15.2937 65.6399,14.3933 C81.6393,22.5135 94.7364,37.1029 102.603,55.378 C109.229,52.2285 115.29,48.3058 120.583,43.706 C120.795,44.409 120.993,45.1177 121.179,45.8314 C115.894,50.3041 109.899,54.1313 103.374,57.2243 C107.91,68.403 110.51,80.8906 110.664,94.0751 C112.28,93.1566 113.869,92.1913 115.429,91.1804 C114.712,92.4631 113.951,93.7202 113.146,94.9467 C112.326,95.4308 111.499,95.9041 110.665,96.3653 C110.658,97.0819 110.644,97.7974 110.622,98.5118 C109.943,99.4033 109.24,100.275 108.514,101.126 C108.584,99.9004 108.631,98.6734 108.656,97.4459 C94.6566,104.77 78.8881,108.707 62.5068,108.734 L62.506,122.686 L61.8116,122.693 C61.3779,122.693 60.9453,122.688 60.5137,122.679 L60.5136,108.718 C44.3335,108.429 28.7942,104.324 15.0198,96.9128 C15.0413,98.3478 15.093,99.778 15.1744,101.203 C14.4487,100.354 13.7455,99.4853 13.0661,98.5975 C13.0366,97.6676 13.0201,96.7369 13.0156,95.8042 C11.9315,95.1878 10.8595,94.5507 9.80009,93.8933 C9.02265,92.6517 8.28772,91.3811 7.59807,90.0827 L7.0829,89.7323 C9.01832,91.0628 11.002,92.3217 13.03,93.5064 C13.2507,80.551 15.833,68.2799 20.2903,57.2752 C13.748,54.1856 7.73485,50.3565 2.43389,45.8744 C2.61809,45.1616 2.81578,44.4538 3.02573,43.7514 L2.8335,43.5856 C8.19067,48.2646 14.3364,52.2449 21.0594,55.429 C28.9063,37.17 41.9728,22.5848 57.9399,14.4459 C35.4835,15.6874 15.3002,26.3777 3.26053,42.9892 C3.89681,40.9527 4.63795,38.9619 5.47625,37.0229 C17.7366,23.0669 35.9842,14.1014 56.1267,12.5623 C47.2231,9.5549 37.7621,8.6306 28.4695,9.84292 C29.7753,8.99611 31.1156,8.19718 32.4877,7.44911 C33.8009,7.36607 35.1161,7.32538 36.4323,7.32568 C44.864,7.32568 52.9639,8.99029 60.5145,12.0555 L60.515,0.0134287 C60.9461,0.00449091 61.3783,2.96151e-13 61.8116,2.96151e-13 Z M101.562,58.0579 C89.8147,63.3047 76.4536,66.2163 62.5068,66.3148 L62.5068,106.734 C78.5853,106.708 94.0555,102.84 107.784,95.6465 L108.678,95.1727 C108.66,81.8744 106.106,69.2875 101.562,58.0579 Z M22.1027,58.1071 C17.6334,69.1712 15.0953,81.5518 15.0096,94.6311 C28.7306,102.215 44.2911,106.423 60.5136,106.717 L60.5136,66.3097 C46.8079,66.1424 33.6777,63.2589 22.1027,58.1071 Z M62.5068,15.1012 L62.5068,64.3157 C75.8128,64.22 88.5644,61.5142 99.8309,56.6367 L100.793,56.2125 C92.7466,37.4942 79.1054,22.752 62.5068,15.1012 Z M60.5136,15.4119 C44.2011,23.1544 30.8069,37.7709 22.8717,56.2626 C34.2006,61.3116 47.0694,64.1434 60.5136,64.3098 L60.5136,15.4119 Z" id="Shape" fill="url(#linearGradient-16)"></path>
                </g>
                <g id="Group-5-Copy-3" transform="translate(296.000000, 88.000000)" fillRule="nonzero">
                    <path d="M102.902,29.1324 L102.902,29.8088 C102.902,29.9591 102.864,30.1113 102.783,30.2507 C102.705,30.3851 102.593,30.4967 102.458,30.5743 L45.9102,62.9406 C45.0869,63.4144 44.0729,63.4144 43.2496,62.9406 L0.443464,38.0682 C0.15898,37.9045 3.07027e-14,37.6073 3.07027e-14,37.3019 L3.07027e-14,36.707 L102.902,29.1324 Z" id="Combined-Shape" fill="url(#linearGradient-6)"></path>
                    <path d="M59.7059,3.55445 L102.455,28.4337 C102.879,28.6778 103.024,29.2184 102.779,29.6412 C102.701,29.7755 102.589,29.8871 102.455,29.9647 L45.8524,62.3919 C45.0291,62.8656 44.0151,62.8656 43.1918,62.3919 L0.443901,37.5127 C0.0198452,37.2685 -0.125505,36.728 0.119398,36.3053 C0.197144,36.1708 0.309127,36.0593 0.443901,35.9816 L57.0464,3.55445 C57.8686,3.08078 58.8826,3.08078 59.7059,3.55445 Z" id="Polygon" fill="#E2E7EC"></path>
                    <path d="M102.902,27.5328 L102.902,28.2092 C102.902,28.3594 102.864,28.5117 102.783,28.6511 C102.705,28.7856 102.593,28.8971 102.458,28.9746 L45.9102,61.3411 C45.0869,61.8148 44.0729,61.8148 43.2496,61.3411 L0.443464,36.4686 C0.15898,36.305 3.07027e-14,36.0078 3.07027e-14,35.7023 L3.07027e-14,35.1075 L102.902,27.5328 Z" id="Combined-Shape" fill="url(#linearGradient-7)"></path>
                    <path d="M59.7059,1.95484 L102.455,26.8342 C102.879,27.0782 103.024,27.6189 102.779,28.0416 C102.701,28.1759 102.589,28.2875 102.455,28.3651 L45.8524,60.7923 C45.0291,61.2661 44.0151,61.2661 43.1918,60.7923 L0.443901,35.9131 C0.0198452,35.669 -0.125505,35.1284 0.119398,34.7057 C0.197144,34.5713 0.309127,34.4597 0.443901,34.3821 L57.0464,1.95484 C57.8686,1.48117 58.8826,1.48117 59.7059,1.95484 Z" id="Polygon" fill="#E2E7EC"></path>
                    <path d="M102.902,25.9333 L102.902,26.6097 C102.902,26.7598 102.864,26.9122 102.783,27.0516 C102.705,27.186 102.593,27.2975 102.458,27.3751 L45.9102,59.7415 C45.0869,60.2152 44.0729,60.2152 43.2496,59.7415 L0.443464,34.869 C0.15898,34.7053 3.07027e-14,34.4082 3.07027e-14,34.1027 L3.07027e-14,33.5079 L102.902,25.9333 Z" id="Combined-Shape" fill="url(#linearGradient-8)"></path>
                    <path d="M59.816,0.355333 L102.565,25.2346 C102.989,25.4786 103.134,26.0192 102.889,26.442 C102.811,26.5763 102.699,26.688 102.565,26.7655 L45.9625,59.1928 C45.1393,59.6665 44.1252,59.6665 43.3019,59.1928 L0.553922,34.3136 C0.129757,34.0694 -0.0155927,33.5288 0.22931,33.1061 C0.307165,32.9717 0.419039,32.8602 0.553922,32.7825 L57.1554,0.355333 C57.9787,-0.118444 58.9928,-0.118444 59.816,0.355333 Z" id="Polygon" fill="#FCFCFC"></path>
                    <path d="M38.4333,62.4641 L30.9739,57.9 C30.5083,57.6147 30.2237,57.1074 30.2237,56.5607 L30.2237,51.2563 C30.2684,51.2451 30.2913,51.2222 30.3186,51.206 L42.422,44.0281 C42.5975,43.9232 42.8145,43.9232 42.9901,44.0281 L52.1309,49.5353 C52.2214,49.5893 52.253,49.7089 52.2007,49.8025 C52.1843,49.8322 52.1603,49.8569 52.1309,49.8741 L39.7538,57.1709 C39.7135,57.1949 39.6709,57.2133 39.6284,57.2263 L39.6284,61.7944 C39.6284,62.228 39.2762,62.5795 38.8433,62.5795 C38.6983,62.5795 38.5565,62.5396 38.4333,62.4641 Z" id="Combined-Shape" fill="url(#linearGradient-9)"></path>
                    <path d="M37.935,62.4822 L30.215,57.9642 C29.7341,57.6825 29.4386,57.1667 29.4386,56.609 L29.4386,51.2934 C29.4833,51.2822 29.5062,51.2592 29.5335,51.243 L41.6358,44.0285 C41.8125,43.9231 42.0295,43.9231 42.205,44.0285 L51.3458,49.5636 C51.4363,49.6179 51.4668,49.7382 51.4145,49.8323 C51.3981,49.8622 51.3742,49.887 51.3458,49.9043 L39.2424,57.1188 C39.2021,57.1429 39.1606,57.1614 39.117,57.1745 L39.117,61.8046 C39.117,62.2382 38.7648,62.5897 38.3319,62.5897 C38.1923,62.5897 38.055,62.5527 37.935,62.4822 Z" id="Combined-Shape" fill="url(#linearGradient-10)"></path>
                    <path d="M30.8038,58.076 L30.2237,57.754 L30.2237,51.4259 C30.2706,51.4145 30.2935,51.391 30.3219,51.3745 L42.8494,44.0299 C43.0315,43.9226 43.2561,43.9226 43.4382,44.0299 L43.484,44.1024 C43.5778,44.1577 43.6105,44.2801 43.556,44.3759 C43.5386,44.4063 43.5135,44.4316 43.484,44.4491 L30.9576,51.7937 C30.915,51.8182 30.8714,51.8371 30.8267,51.8504 L30.8038,58.076 Z" id="Combined-Shape" fill="#FCFCFC"></path>
                    <path d="M37.0889,62 L36.5099,61.678 L36.5099,55.3499 C36.5568,55.3385 36.5797,55.3151 36.608,55.2986 L49.1356,47.954 C49.3177,47.8467 49.5423,47.8467 49.7244,47.954 L49.7702,48.0264 C49.864,48.0817 49.8967,48.2041 49.8421,48.2999 C49.8247,48.3303 49.7996,48.3556 49.7702,48.3731 L37.2426,55.7177 C37.2012,55.7423 37.1576,55.7612 37.1129,55.7745 L37.0889,62 Z" id="Combined-Shape" fill="#FCFCFC"></path>
                    <path d="M49.43,11.7722 L47.7966,12.7189 L80.4527,31.6541 L82.0855,30.7073 L49.43,11.7722 Z M43.7141,15.0858 L42.0818,16.0326 L74.738,34.9677 L76.3707,34.0209 L43.7141,15.0858 Z M37.9993,18.3994 L36.367,19.3462 L69.0231,38.2814 L70.656,37.3346 L37.9993,18.3994 Z M32.2846,21.7132 L30.6523,22.6598 L63.3083,41.595 L64.9411,40.6482 L32.2846,21.7132 Z M26.5698,25.0268 L24.9375,25.9736 L43.3063,36.6245 L44.9397,35.6778 L26.5698,25.0268 Z M20.855,28.3404 L19.2227,29.2872 L37.5915,39.9382 L39.225,38.9915 L20.855,28.3404 Z" id="Shape" fill="#FFDBB4"></path>
                    <polygon id="Path" fill="url(#linearGradient-11)" points="16.8653 30.6076 9.79296 34.9241 16.8653 39.2405 23.9376 34.9241"></polygon>
                    <polygon id="Path" fill="url(#linearGradient-12)" points="61.0994 7.8481 89.9437 24.5971 84.9987 27.4684 56.1547 10.7194"></polygon>
                    <path d="M39.8476,48.2698 C39.0821,48.1721 38.5576,47.7804 38.5478,47.3431 C38.5456,47.2948 38.5456,47.0992 38.5478,46.7565 C38.5893,46.9626 38.6154,47.0564 38.6252,47.0376 C38.96,46.4244 38.6514,45.7537 37.8347,45.3201 C37.4694,45.1263 37.2884,44.8592 37.2946361,44.5926 C37.2971,44.5235 37.2971,44.3439 37.2946361,44.0539 C37.4814,44.0564 37.6253,44.025 37.7267,43.9598 C37.7616,43.9379 37.7976,43.9171 37.8347,43.8973 C38.6514,43.4636 38.96,42.793 38.6252,42.1798 C38.5653,42.0706 38.5413,41.9599 38.5478,41.8517 C38.55,41.823 38.55,41.6378 38.5478,41.2959 C38.9109,41.1539 39.2947,41.0455 39.7004,40.9704 C39.7483,40.9615 39.7974,40.9539 39.8476,40.9475 C40.9271,40.8097 41.7699,40.3188 42.0066,39.6902 C42.2028,39.1708 43.085,38.8421 43.9769,38.9559 C44.0271,38.9622 44.075,38.9699 44.1241,38.9788 C45.1774,39.1738 46.3289,38.9941 47.0736,38.5187 C47.6897,38.1257 48.7365,38.0977 49.4114,38.4561 C49.4485,38.4759 49.4845,38.4969 49.5183,38.5187 C50.263,38.9941 51.4156,39.1738 52.4689,38.9788 C53.339,38.8178 54.2692,39.098 54.5461,39.6048 C54.5614,39.6329 54.5745,39.6614 54.5854,39.6902 C54.822,40.3188 55.666,40.8097 56.7454,40.9475 C57.1838,41.0035 57.6167,41.1302 58.0452,41.3276 C58.043,41.6453 58.043,41.8232 58.0452,41.8616 C58.0485,41.9382 58.0365,42.0162 58.007,42.0943 C57.9961,42.1231 57.983,42.1517 57.9678,42.1798 C57.6319,42.793 57.9416,43.4636 58.7583,43.8973 C58.9579,44.0036 59.1378,44.0613 59.297,44.0702 C59.297,44.4022 59.297,44.5824 59.297,44.6106 C59.297,44.8418 59.1541,45.0734 58.8652,45.2575 C58.8314,45.2794 58.7954,45.3002 58.7583,45.3201 C58.139,45.6488 57.8119,46.1136 57.8358,46.5864 C57.8402,46.6871 57.91,46.7596 58.0452,46.8041 C58.0463,47.1687 58.0452,47.3677 58.0408,47.4012 C57.9918,47.7814 57.5545,48.1243 56.8916,48.2469 C56.8436,48.2558 56.7945,48.2634 56.7454,48.2698 C55.666,48.4076 54.822,48.8986 54.5854,49.5271 C54.3902,50.0466 53.5081,50.3753 52.615,50.2614 C52.566,50.2551 52.5169,50.2474 52.4689,50.2385 C51.4156,50.0436 50.263,50.2233 49.5183,50.6987 C48.9022,51.0916 47.8565,51.1196 47.1816,50.7612 C47.1445,50.7414 47.1085,50.7205 47.0736,50.6987 C46.3289,50.2233 45.1774,50.0436 44.1241,50.2385 C43.2529,50.3996 42.3228,50.1193 42.0469,49.6125 C42.0305,49.5844 42.0175,49.5559 42.0066,49.5271 C41.7699,48.8986 40.9271,48.4076 39.8476,48.2698 Z" id="Star-2" fill="url(#linearGradient-13)"></path>
                    <path d="M39.8476,47.7361 C38.9545,47.6222 38.3908,47.1088 38.586,46.5894 C38.5969,46.5606 38.61,46.532 38.6252,46.5039 C38.96,45.8906 38.6514,45.22 37.8347,44.7864 C37.1597,44.4281 37.1118,43.819 37.7278,43.4261 C37.7616,43.4043 37.7976,43.3835 37.8347,43.3636 C38.6514,42.93 38.96,42.2594 38.6252,41.646 C38.3483,41.1392 38.8302,40.5978 39.7004,40.4368 C39.7494,40.4279 39.7974,40.4202 39.8476,40.4139 C40.9271,40.2761 41.7699,39.7852 42.0076,39.1566 C42.2028,38.6371 43.085,38.3083 43.9769,38.4223 C44.0271,38.4286 44.075,38.4362 44.1241,38.4452 C45.1774,38.64 46.3289,38.4603 47.0747,37.9849 C47.6897,37.5921 48.7365,37.564 49.4114,37.9224 C49.4485,37.9423 49.4845,37.9631 49.5183,37.9849 C50.263,38.4603 51.4156,38.64 52.4689,38.4452 C53.339,38.2841 54.2692,38.5644 54.5461,39.0712 C54.5614,39.0993 54.5745,39.1278 54.5854,39.1566 C54.822,39.7852 55.666,40.2761 56.7454,40.4139 C57.6374,40.5277 58.2022,41.0412 58.007,41.5607 C57.9961,41.5895 57.983,41.618 57.9678,41.646 C57.633,42.2594 57.9416,42.93 58.7583,43.3636 C59.4333,43.7219 59.4813,44.3309 58.8652,44.7239 C58.8314,44.7457 58.7954,44.7665 58.7583,44.7864 C57.9416,45.22 57.633,45.8906 57.9678,46.5039 C58.2437,47.0107 57.7628,47.5522 56.8916,47.7132 C56.8436,47.7222 56.7945,47.7298 56.7454,47.7361 C55.666,47.874 54.822,48.3648 54.5854,48.9935 C54.3902,49.5128 53.5081,49.8416 52.615,49.7277 C52.566,49.7214 52.5169,49.7138 52.4689,49.7048 C51.4156,49.5099 50.263,49.6896 49.5183,50.165 C48.9033,50.558 47.8565,50.586 47.1816,50.2276 C47.1445,50.2077 47.1085,50.1868 47.0747,50.165 C46.3289,49.6896 45.1774,49.5099 44.1241,49.7048 C43.2529,49.8659 42.3228,49.5857 42.0469,49.0788 C42.0316,49.0507 42.0185,49.0222 42.0076,48.9935 C41.7699,48.3648 40.9271,47.874 39.8476,47.7361 Z" id="Star-2" fill="url(#linearGradient-14)"></path>
                    <path d="M42.7153,47.0939 C39.7821,45.4266 39.7821,42.7234 42.7153,41.0561 C45.6496,39.3888 50.407,39.3888 53.3401,41.0561 C56.2744,42.7234 56.2744,45.4266 53.3401,47.0939 C50.407,48.7612 45.6496,48.7612 42.7153,47.0939 Z M43.3794,46.7165 C45.9473,48.1754 50.1093,48.1754 52.6761,46.7165 C55.244,45.2577 55.244,42.8924 52.6761,41.4334 C50.1093,39.9746 45.9473,39.9746 43.3794,41.4334 C40.8126,42.8924 40.8126,45.2577 43.3794,46.7165 Z" id="Oval-9" fill="#FCFCFC"></path>
                </g>
                <g id="Group-5-Copy-5" transform="translate(0.000000, 97.500000)" fillRule="nonzero">
                    <path d="M102.902,29.1324 L102.902,29.8088 C102.902,29.9591 102.864,30.1113 102.783,30.2507 C102.705,30.3851 102.593,30.4967 102.458,30.5743 L45.9102,62.9406 C45.0869,63.4144 44.0729,63.4144 43.2496,62.9406 L0.443464,38.0682 C0.15898,37.9045 3.07027e-14,37.6073 3.07027e-14,37.3019 L3.07027e-14,36.707 L102.902,29.1324 Z" id="Combined-Shape" fill="url(#linearGradient-6)"></path>
                    <path d="M59.7059,3.55445 L102.455,28.4337 C102.879,28.6778 103.024,29.2184 102.779,29.6412 C102.701,29.7755 102.589,29.8871 102.455,29.9647 L45.8524,62.3919 C45.0291,62.8656 44.0151,62.8656 43.1918,62.3919 L0.443901,37.5127 C0.0198452,37.2685 -0.125505,36.728 0.119398,36.3053 C0.197144,36.1708 0.309127,36.0593 0.443901,35.9816 L57.0464,3.55445 C57.8686,3.08078 58.8826,3.08078 59.7059,3.55445 Z" id="Polygon" fill="#E2E7EC"></path>
                    <path d="M102.902,27.5328 L102.902,28.2092 C102.902,28.3594 102.864,28.5117 102.783,28.6511 C102.705,28.7856 102.593,28.8971 102.458,28.9746 L45.9102,61.3411 C45.0869,61.8148 44.0729,61.8148 43.2496,61.3411 L0.443464,36.4686 C0.15898,36.305 3.07027e-14,36.0078 3.07027e-14,35.7023 L3.07027e-14,35.1075 L102.902,27.5328 Z" id="Combined-Shape" fill="url(#linearGradient-7)"></path>
                    <path d="M59.7059,1.95484 L102.455,26.8342 C102.879,27.0782 103.024,27.6189 102.779,28.0416 C102.701,28.1759 102.589,28.2875 102.455,28.3651 L45.8524,60.7923 C45.0291,61.2661 44.0151,61.2661 43.1918,60.7923 L0.443901,35.9131 C0.0198452,35.669 -0.125505,35.1284 0.119398,34.7057 C0.197144,34.5713 0.309127,34.4597 0.443901,34.3821 L57.0464,1.95484 C57.8686,1.48117 58.8826,1.48117 59.7059,1.95484 Z" id="Polygon" fill="#E2E7EC"></path>
                    <path d="M102.902,25.9333 L102.902,26.6097 C102.902,26.7598 102.864,26.9122 102.783,27.0516 C102.705,27.186 102.593,27.2975 102.458,27.3751 L45.9102,59.7415 C45.0869,60.2152 44.0729,60.2152 43.2496,59.7415 L0.443464,34.869 C0.15898,34.7053 3.07027e-14,34.4082 3.07027e-14,34.1027 L3.07027e-14,33.5079 L102.902,25.9333 Z" id="Combined-Shape" fill="url(#linearGradient-8)"></path>
                    <path d="M59.816,0.355333 L102.565,25.2346 C102.989,25.4786 103.134,26.0192 102.889,26.442 C102.811,26.5763 102.699,26.688 102.565,26.7655 L45.9625,59.1928 C45.1393,59.6665 44.1252,59.6665 43.3019,59.1928 L0.553922,34.3136 C0.129757,34.0694 -0.0155927,33.5288 0.22931,33.1061 C0.307165,32.9717 0.419039,32.8602 0.553922,32.7825 L57.1554,0.355333 C57.9787,-0.118444 58.9928,-0.118444 59.816,0.355333 Z" id="Polygon" fill="#FCFCFC"></path>
                    <path d="M54.8674772,42.0034739 C59.1132669,44.5958531 59.0329541,48.7104743 54.6879664,51.1937967 C50.3429513,53.6771101 43.3786238,53.5887613 39.1325319,50.9965368 C34.8867301,48.4041576 34.9670429,44.2895363 39.3120424,41.806214 C43.6570776,39.3228863 50.6214051,39.4112351 54.8674772,42.0034739 Z M53.3212015,50.3014656 C56.8788771,48.2681191 56.9446367,44.8990931 53.4681844,42.776451 C49.99151,40.6539457 44.2891742,40.5816064 40.7314857,42.6149357 C37.1738258,44.6482824 37.1080662,48.0173084 40.5845028,50.1399503 C44.0611773,52.2624477 49.7635131,52.334787 53.3212015,50.3014656 Z M51.5360844,46.8621054 C51.050725,47.1395147 50.5314484,47.3154018 49.9782171,47.3897789 C49.4250235,47.4641437 48.8585975,47.4509014 48.2789396,47.3500394 L46.822746,49.8646814 L46.7579205,49.9017383 L45.4562568,49.2514442 L46.8511729,46.9518871 L45.4966804,46.2752076 L42.6992528,47.8740893 L41.4840459,47.2669956 L48.7444524,43.1173203 L51.203685,44.3459079 C52.0106167,44.7490356 52.4455975,45.1675359 52.5086276,45.6013961 C52.5716575,46.0352691 52.2475014,46.4555016 51.5360844,46.8621054 Z M50.8491807,45.610933 C50.8489986,45.3829424 50.6408801,45.1614753 50.2248627,44.9465193 L48.9423993,44.3058208 L46.5089538,45.6966514 L47.7577889,46.3205475 C48.1676548,46.5253099 48.5950937,46.6239991 49.0400681,46.6166274 C49.4850424,46.6092557 49.8936947,46.4991733 50.2660301,46.2863705 C50.6549775,46.0640641 50.8493626,45.8389236 50.8491807,45.610933 Z" id="Combined-Shape" fill="#F36309"></path>
                    <path d="M49.43,11.7722 L47.7966,12.7189 L80.4527,31.6541 L82.0855,30.7073 L49.43,11.7722 Z M43.7141,15.0858 L42.0818,16.0326 L74.738,34.9677 L76.3707,34.0209 L43.7141,15.0858 Z M37.9993,18.3994 L36.367,19.3462 L69.0231,38.2814 L70.656,37.3346 L37.9993,18.3994 Z M32.2846,21.7132 L30.6523,22.6598 L63.3083,41.595 L64.9411,40.6482 L32.2846,21.7132 Z M26.5698,25.0268 L24.9375,25.9736 L43.3063,36.6245 L44.9397,35.6778 L26.5698,25.0268 Z M20.855,28.3404 L19.2227,29.2872 L37.5915,39.9382 L39.225,38.9915 L20.855,28.3404 Z" id="Shape" fill="#FFDBB4"></path>
                    <polygon id="Path" fill="url(#linearGradient-11)" points="16.8653 30.6076 9.79296 34.9241 16.8653 39.2405 23.9376 34.9241"></polygon>
                    <polygon id="Path" fill="url(#linearGradient-12)" points="61.0994 7.8481 89.9437 24.5971 84.9987 27.4684 56.1547 10.7194"></polygon>
                </g>
            </g>
            <g id="Group-7" transform="translate(133.009000, 180.000000)" fillRule="nonzero">
                <g id="Group-4" transform="translate(0.000000, 27.000000)">
                    <polygon id="Shape" fill="url(#linearGradient-2)" opacity="0.2" points="0.505708 10.0153 0.505708 51.1909 45.2737 79.0442 45.2737 36.3627"></polygon>
                    <polygon id="Shape" fill="url(#linearGradient-3)" opacity="0.6" points="45.2737 75.6227 103.603 42.6141 103.556 0 103.556 0 45.2737 30.7685"></polygon>
                </g>
                <g id="Group-5-Copy-4" transform="translate(0.490741, 0.000000)">
                    <path d="M102.902,29.1324 L102.902,29.8088 C102.902,29.9591 102.864,30.1113 102.783,30.2507 C102.705,30.3851 102.593,30.4967 102.458,30.5743 L45.9102,62.9406 C45.0869,63.4144 44.0729,63.4144 43.2496,62.9406 L0.443464,38.0682 C0.15898,37.9045 3.07027e-14,37.6073 3.07027e-14,37.3019 L3.07027e-14,36.707 L102.902,29.1324 Z" id="Combined-Shape" fill="url(#linearGradient-6)"></path>
                    <path d="M59.7059,3.55445 L102.455,28.4337 C102.879,28.6778 103.024,29.2184 102.779,29.6412 C102.701,29.7755 102.589,29.8871 102.455,29.9647 L45.8524,62.3919 C45.0291,62.8656 44.0151,62.8656 43.1918,62.3919 L0.443901,37.5127 C0.0198452,37.2685 -0.125505,36.728 0.119398,36.3053 C0.197144,36.1708 0.309127,36.0593 0.443901,35.9816 L57.0464,3.55445 C57.8686,3.08078 58.8826,3.08078 59.7059,3.55445 Z" id="Polygon" fill="#E2E7EC"></path>
                    <path d="M102.902,27.5328 L102.902,28.2092 C102.902,28.3594 102.864,28.5117 102.783,28.6511 C102.705,28.7856 102.593,28.8971 102.458,28.9746 L45.9102,61.3411 C45.0869,61.8148 44.0729,61.8148 43.2496,61.3411 L0.443464,36.4686 C0.15898,36.305 3.07027e-14,36.0078 3.07027e-14,35.7023 L3.07027e-14,35.1075 L102.902,27.5328 Z" id="Combined-Shape" fill="url(#linearGradient-7)"></path>
                    <path d="M59.7059,1.95484 L102.455,26.8342 C102.879,27.0782 103.024,27.6189 102.779,28.0416 C102.701,28.1759 102.589,28.2875 102.455,28.3651 L45.8524,60.7923 C45.0291,61.2661 44.0151,61.2661 43.1918,60.7923 L0.443901,35.9131 C0.0198452,35.669 -0.125505,35.1284 0.119398,34.7057 C0.197144,34.5713 0.309127,34.4597 0.443901,34.3821 L57.0464,1.95484 C57.8686,1.48117 58.8826,1.48117 59.7059,1.95484 Z" id="Polygon" fill="#E2E7EC"></path>
                    <path d="M102.902,25.9333 L102.902,26.6097 C102.902,26.7598 102.864,26.9122 102.783,27.0516 C102.705,27.186 102.593,27.2975 102.458,27.3751 L45.9102,59.7415 C45.0869,60.2152 44.0729,60.2152 43.2496,59.7415 L0.443464,34.869 C0.15898,34.7053 3.07027e-14,34.4082 3.07027e-14,34.1027 L3.07027e-14,33.5079 L102.902,25.9333 Z" id="Combined-Shape" fill="url(#linearGradient-8)"></path>
                    <path d="M59.816,0.355333 L102.565,25.2346 C102.989,25.4786 103.134,26.0192 102.889,26.442 C102.811,26.5763 102.699,26.688 102.565,26.7655 L45.9625,59.1928 C45.1393,59.6665 44.1252,59.6665 43.3019,59.1928 L0.553922,34.3136 C0.129757,34.0694 -0.0155927,33.5288 0.22931,33.1061 C0.307165,32.9717 0.419039,32.8602 0.553922,32.7825 L57.1554,0.355333 C57.9787,-0.118444 58.9928,-0.118444 59.816,0.355333 Z" id="Polygon" fill="#FCFCFC"></path>
                    <path d="M38.4333,62.4641 L30.9739,57.9 C30.5083,57.6147 30.2237,57.1074 30.2237,56.5607 L30.2237,51.2563 C30.2684,51.2451 30.2913,51.2222 30.3186,51.206 L42.422,44.0281 C42.5975,43.9232 42.8145,43.9232 42.9901,44.0281 L52.1309,49.5353 C52.2214,49.5893 52.253,49.7089 52.2007,49.8025 C52.1843,49.8322 52.1603,49.8569 52.1309,49.8741 L39.7538,57.1709 C39.7135,57.1949 39.6709,57.2133 39.6284,57.2263 L39.6284,61.7944 C39.6284,62.228 39.2762,62.5795 38.8433,62.5795 C38.6983,62.5795 38.5565,62.5396 38.4333,62.4641 Z" id="Combined-Shape" fill="url(#linearGradient-9)"></path>
                    <path d="M37.935,62.4822 L30.215,57.9642 C29.7341,57.6825 29.4386,57.1667 29.4386,56.609 L29.4386,51.2934 C29.4833,51.2822 29.5062,51.2592 29.5335,51.243 L41.6358,44.0285 C41.8125,43.9231 42.0295,43.9231 42.205,44.0285 L51.3458,49.5636 C51.4363,49.6179 51.4668,49.7382 51.4145,49.8323 C51.3981,49.8622 51.3742,49.887 51.3458,49.9043 L39.2424,57.1188 C39.2021,57.1429 39.1606,57.1614 39.117,57.1745 L39.117,61.8046 C39.117,62.2382 38.7648,62.5897 38.3319,62.5897 C38.1923,62.5897 38.055,62.5527 37.935,62.4822 Z" id="Combined-Shape" fill="url(#linearGradient-10)"></path>
                    <path d="M30.8038,58.076 L30.2237,57.754 L30.2237,51.4259 C30.2706,51.4145 30.2935,51.391 30.3219,51.3745 L42.8494,44.0299 C43.0315,43.9226 43.2561,43.9226 43.4382,44.0299 L43.484,44.1024 C43.5778,44.1577 43.6105,44.2801 43.556,44.3759 C43.5386,44.4063 43.5135,44.4316 43.484,44.4491 L30.9576,51.7937 C30.915,51.8182 30.8714,51.8371 30.8267,51.8504 L30.8038,58.076 Z" id="Combined-Shape" fill="#FCFCFC"></path>
                    <path d="M37.0889,62 L36.5099,61.678 L36.5099,55.3499 C36.5568,55.3385 36.5797,55.3151 36.608,55.2986 L49.1356,47.954 C49.3177,47.8467 49.5423,47.8467 49.7244,47.954 L49.7702,48.0264 C49.864,48.0817 49.8967,48.2041 49.8421,48.2999 C49.8247,48.3303 49.7996,48.3556 49.7702,48.3731 L37.2426,55.7177 C37.2012,55.7423 37.1576,55.7612 37.1129,55.7745 L37.0889,62 Z" id="Combined-Shape" fill="#FCFCFC"></path>
                    <path d="M49.43,11.7722 L47.7966,12.7189 L80.4527,31.6541 L82.0855,30.7073 L49.43,11.7722 Z M43.7141,15.0858 L42.0818,16.0326 L74.738,34.9677 L76.3707,34.0209 L43.7141,15.0858 Z M37.9993,18.3994 L36.367,19.3462 L69.0231,38.2814 L70.656,37.3346 L37.9993,18.3994 Z M32.2846,21.7132 L30.6523,22.6598 L63.3083,41.595 L64.9411,40.6482 L32.2846,21.7132 Z M26.5698,25.0268 L24.9375,25.9736 L43.3063,36.6245 L44.9397,35.6778 L26.5698,25.0268 Z M20.855,28.3404 L19.2227,29.2872 L37.5915,39.9382 L39.225,38.9915 L20.855,28.3404 Z" id="Shape" fill="#FFDBB4"></path>
                    <polygon id="Path" fill="url(#linearGradient-11)" points="16.8653 30.6076 9.79296 34.9241 16.8653 39.2405 23.9376 34.9241"></polygon>
                    <polygon id="Path" fill="url(#linearGradient-12)" points="61.0994 7.8481 89.9437 24.5971 84.9987 27.4684 56.1547 10.7194"></polygon>
                    <path d="M39.8476,48.2698 C39.0821,48.1721 38.5576,47.7804 38.5478,47.3431 C38.5456,47.2948 38.5456,47.0992 38.5478,46.7565 C38.5893,46.9626 38.6154,47.0564 38.6252,47.0376 C38.96,46.4244 38.6514,45.7537 37.8347,45.3201 C37.4694,45.1263 37.2884,44.8592 37.2946361,44.5926 C37.2971,44.5235 37.2971,44.3439 37.2946361,44.0539 C37.4814,44.0564 37.6253,44.025 37.7267,43.9598 C37.7616,43.9379 37.7976,43.9171 37.8347,43.8973 C38.6514,43.4636 38.96,42.793 38.6252,42.1798 C38.5653,42.0706 38.5413,41.9599 38.5478,41.8517 C38.55,41.823 38.55,41.6378 38.5478,41.2959 C38.9109,41.1539 39.2947,41.0455 39.7004,40.9704 C39.7483,40.9615 39.7974,40.9539 39.8476,40.9475 C40.9271,40.8097 41.7699,40.3188 42.0066,39.6902 C42.2028,39.1708 43.085,38.8421 43.9769,38.9559 C44.0271,38.9622 44.075,38.9699 44.1241,38.9788 C45.1774,39.1738 46.3289,38.9941 47.0736,38.5187 C47.6897,38.1257 48.7365,38.0977 49.4114,38.4561 C49.4485,38.4759 49.4845,38.4969 49.5183,38.5187 C50.263,38.9941 51.4156,39.1738 52.4689,38.9788 C53.339,38.8178 54.2692,39.098 54.5461,39.6048 C54.5614,39.6329 54.5745,39.6614 54.5854,39.6902 C54.822,40.3188 55.666,40.8097 56.7454,40.9475 C57.1838,41.0035 57.6167,41.1302 58.0452,41.3276 C58.043,41.6453 58.043,41.8232 58.0452,41.8616 C58.0485,41.9382 58.0365,42.0162 58.007,42.0943 C57.9961,42.1231 57.983,42.1517 57.9678,42.1798 C57.6319,42.793 57.9416,43.4636 58.7583,43.8973 C58.9579,44.0036 59.1378,44.0613 59.297,44.0702 C59.297,44.4022 59.297,44.5824 59.297,44.6106 C59.297,44.8418 59.1541,45.0734 58.8652,45.2575 C58.8314,45.2794 58.7954,45.3002 58.7583,45.3201 C58.139,45.6488 57.8119,46.1136 57.8358,46.5864 C57.8402,46.6871 57.91,46.7596 58.0452,46.8041 C58.0463,47.1687 58.0452,47.3677 58.0408,47.4012 C57.9918,47.7814 57.5545,48.1243 56.8916,48.2469 C56.8436,48.2558 56.7945,48.2634 56.7454,48.2698 C55.666,48.4076 54.822,48.8986 54.5854,49.5271 C54.3902,50.0466 53.5081,50.3753 52.615,50.2614 C52.566,50.2551 52.5169,50.2474 52.4689,50.2385 C51.4156,50.0436 50.263,50.2233 49.5183,50.6987 C48.9022,51.0916 47.8565,51.1196 47.1816,50.7612 C47.1445,50.7414 47.1085,50.7205 47.0736,50.6987 C46.3289,50.2233 45.1774,50.0436 44.1241,50.2385 C43.2529,50.3996 42.3228,50.1193 42.0469,49.6125 C42.0305,49.5844 42.0175,49.5559 42.0066,49.5271 C41.7699,48.8986 40.9271,48.4076 39.8476,48.2698 Z" id="Star-2" fill="url(#linearGradient-13)"></path>
                    <path d="M39.8476,47.7361 C38.9545,47.6222 38.3908,47.1088 38.586,46.5894 C38.5969,46.5606 38.61,46.532 38.6252,46.5039 C38.96,45.8906 38.6514,45.22 37.8347,44.7864 C37.1597,44.4281 37.1118,43.819 37.7278,43.4261 C37.7616,43.4043 37.7976,43.3835 37.8347,43.3636 C38.6514,42.93 38.96,42.2594 38.6252,41.646 C38.3483,41.1392 38.8302,40.5978 39.7004,40.4368 C39.7494,40.4279 39.7974,40.4202 39.8476,40.4139 C40.9271,40.2761 41.7699,39.7852 42.0076,39.1566 C42.2028,38.6371 43.085,38.3083 43.9769,38.4223 C44.0271,38.4286 44.075,38.4362 44.1241,38.4452 C45.1774,38.64 46.3289,38.4603 47.0747,37.9849 C47.6897,37.5921 48.7365,37.564 49.4114,37.9224 C49.4485,37.9423 49.4845,37.9631 49.5183,37.9849 C50.263,38.4603 51.4156,38.64 52.4689,38.4452 C53.339,38.2841 54.2692,38.5644 54.5461,39.0712 C54.5614,39.0993 54.5745,39.1278 54.5854,39.1566 C54.822,39.7852 55.666,40.2761 56.7454,40.4139 C57.6374,40.5277 58.2022,41.0412 58.007,41.5607 C57.9961,41.5895 57.983,41.618 57.9678,41.646 C57.633,42.2594 57.9416,42.93 58.7583,43.3636 C59.4333,43.7219 59.4813,44.3309 58.8652,44.7239 C58.8314,44.7457 58.7954,44.7665 58.7583,44.7864 C57.9416,45.22 57.633,45.8906 57.9678,46.5039 C58.2437,47.0107 57.7628,47.5522 56.8916,47.7132 C56.8436,47.7222 56.7945,47.7298 56.7454,47.7361 C55.666,47.874 54.822,48.3648 54.5854,48.9935 C54.3902,49.5128 53.5081,49.8416 52.615,49.7277 C52.566,49.7214 52.5169,49.7138 52.4689,49.7048 C51.4156,49.5099 50.263,49.6896 49.5183,50.165 C48.9033,50.558 47.8565,50.586 47.1816,50.2276 C47.1445,50.2077 47.1085,50.1868 47.0747,50.165 C46.3289,49.6896 45.1774,49.5099 44.1241,49.7048 C43.2529,49.8659 42.3228,49.5857 42.0469,49.0788 C42.0316,49.0507 42.0185,49.0222 42.0076,48.9935 C41.7699,48.3648 40.9271,47.874 39.8476,47.7361 Z" id="Star-2" fill="url(#linearGradient-14)"></path>
                    <path d="M42.7153,47.0939 C39.7821,45.4266 39.7821,42.7234 42.7153,41.0561 C45.6496,39.3888 50.407,39.3888 53.3401,41.0561 C56.2744,42.7234 56.2744,45.4266 53.3401,47.0939 C50.407,48.7612 45.6496,48.7612 42.7153,47.0939 Z M43.3794,46.7165 C45.9473,48.1754 50.1093,48.1754 52.6761,46.7165 C55.244,45.2577 55.244,42.8924 52.6761,41.4334 C50.1093,39.9746 45.9473,39.9746 43.3794,41.4334 C40.8126,42.8924 40.8126,45.2577 43.3794,46.7165 Z" id="Oval-9" fill="#FCFCFC"></path>
                </g>
            </g>
        </g>
    </g>
</svg>