<svg xmlns="http://www.w3.org/2000/svg" width="518.95" height="110.82" viewBox="0 0 518.95 110.82"><path d="M0,0H52.72V52.72H0V0Z" fill="#f25022"/><path d="M58.1,0h52.72V52.72H58.1V0Z" fill="#80ba01"/><path d="M475.4,20.09c4.86-3.17,11.14-3.46,16.62-1.95,0,3.25,0,6.51,0,9.77-2.6-1.15-5.67-1.9-8.4-.77a6.65,6.65,0,0,0-3.81,5.32,71.36,71.36,0,0,0-.21,8.53c5.56,0,11.12,0,16.68,0,0-3.61,0-7.22.05-10.83,3.78-1.08,7.52-2.28,11.28-3.42,0,4.76,0,9.52,0,14.28,3.76-.06,7.52,0,11.28,0v9.26c-3.77-.16-7.55,0-11.32-.06,0,5.33,0,10.65,0,16,.06,2.94-.16,5.91.19,8.84.21,1.74.84,3.66,2.46,4.55,2.72,1.52,6.17.86,8.67-.81v9.35a22.36,22.36,0,0,1-10.42,1.59c-3.34-.24-6.81-1.46-9-4.12-2.52-3-3.17-7.07-3.22-10.88,0-8.17,0-16.34,0-24.51H479.62q0,19.25,0,38.47h-11.4q0-19.23,0-38.45c-2.64-.05-5.29,0-7.93,0,0-3.05,0-6.09,0-9.14,2.63-.06,5.27,0,7.9,0,.2-4.05-.42-8.21.79-12.16a15.51,15.51,0,0,1,6.43-8.77Z" fill="#777"/><path d="M231.29,20.75A7,7,0,0,1,237.6,23a6.51,6.51,0,0,1,.79,7.4,7.08,7.08,0,0,1-7.59,3.18,6.43,6.43,0,0,1-5.29-6.35,6.59,6.59,0,0,1,5.78-6.47Z" fill="#777"/><path d="M143.91,22.16h16.58Q168.23,41.83,176,61.47c1.32,3.27,2.55,6.59,3.94,9.84,6.63-16.38,13.37-32.71,20-49.11,5.31-.08,10.63,0,16,0q0,33.24,0,66.48c-3.84,0-7.67,0-11.51,0,0-16.35,0-32.71,0-49.06,0-.74,0-1.47-.07-2.21a10.13,10.13,0,0,0-.6,1.07c-6.58,16.74-13.3,33.43-19.85,50.18-2.73.1-5.46,0-8.2.06q-10.18-25.11-20.27-50.28c-.18-.34-.37-.68-.57-1-.14,7.17,0,14.34-.06,21.5q0,14.9,0,29.77H143.91q0-33.26,0-66.5Z" fill="#777"/><path d="M262.66,41a31.15,31.15,0,0,1,16.94,0,13.37,13.37,0,0,1,3.25,1.35c-.06,3.63,0,7.27,0,10.9-3.68-2.81-8.34-4.58-13-4a13.4,13.4,0,0,0-9.47,5.26c-2.85,3.72-3.51,8.66-3,13.2a13.45,13.45,0,0,0,15.28,12.65,21.67,21.67,0,0,0,10.23-4.2c0,3.45,0,6.89,0,10.33-4.66,2.77-10.25,3.49-15.58,3.23a23.1,23.1,0,0,1-14.85-6.2,23.7,23.7,0,0,1-6.9-16c-.28-6.14,1-12.56,4.51-17.69A22.86,22.86,0,0,1,262.66,41Z" fill="#777"/><path d="M387.21,40.23A30.14,30.14,0,0,1,403,41.87c0,3.5,0,7,0,10.48a20.1,20.1,0,0,0-12-3.53c-2.13.08-4.48,1-5.45,3a4.93,4.93,0,0,0,1.66,5.83c3.23,2.16,7.08,3.08,10.43,5,2.64,1.48,5.2,3.42,6.54,6.21,2.51,5.23,1.44,12.14-3,16C397,88.87,391,90,385.36,89.75a33.59,33.59,0,0,1-11.59-2.66c0-3.67,0-7.34,0-11a25,25,0,0,0,10.35,4.47,13.36,13.36,0,0,0,7.86-.72c2.33-1.16,2.75-4.46,1.37-6.48a13.73,13.73,0,0,0-5-3.26c-3.36-1.51-6.89-2.77-9.84-5a11.76,11.76,0,0,1-4.26-6.47c-.91-3.79-.63-8.06,1.58-11.37,2.51-3.86,6.88-6.17,11.34-7Z" fill="#777"/><path d="M308.35,41.73a12.84,12.84,0,0,1,10.58-.89c0,3.8,0,7.6,0,11.41a12.09,12.09,0,0,0-7.71-1.81c-3.23.36-5.8,2.85-7.13,5.7a21.15,21.15,0,0,0-1.62,9.73V88.66H291.22q0-23.82,0-47.63c3.75-.05,7.5,0,11.25,0,0,2.72,0,5.45,0,8.18,1.21-3,3-5.85,5.89-7.47Z" fill="#777"/><path d="M226.54,41c3.78,0,7.56-.06,11.35,0,0,15.88,0,31.75,0,47.63H226.55q0-23.82,0-47.64Z" fill="#777"/><path d="M366.19,52.13a20.18,20.18,0,0,0-10-10.07c-5.07-2.31-10.85-2.62-16.32-1.92a22.72,22.72,0,0,0-15,8,25.38,25.38,0,0,0-5.26,14.56c-.46,6.14.57,12.67,4.18,17.8A21.65,21.65,0,0,0,337,89.1a32.81,32.81,0,0,0,13.35,0A22.11,22.11,0,0,0,363.45,81a25.27,25.27,0,0,0,5-13.87A31.23,31.23,0,0,0,366.19,52.13ZM355.18,74a10.4,10.4,0,0,1-5.6,5.5,15.36,15.36,0,0,1-9.29.41,11.36,11.36,0,0,1-7.15-5.9c-1.84-3.66-2.11-7.9-1.73-11.92.34-3.66,1.62-7.42,4.4-9.94a12,12,0,0,1,7.5-3,12.3,12.3,0,0,1,9.54,3.24c2.63,2.59,3.65,6.35,3.94,9.93C357,66.28,356.83,70.36,355.18,74Z" fill="#777"/><path d="M457.5,53.5a20.29,20.29,0,0,0-9.79-11.08c-5.19-2.62-11.23-3-16.92-2.3a23.63,23.63,0,0,0-12.6,5.4,23.36,23.36,0,0,0-7.52,14.64c-.7,5.54-.47,11.37,1.79,16.55A21.12,21.12,0,0,0,424,88a30.69,30.69,0,0,0,16.06,1.36,22.27,22.27,0,0,0,14-8.2,26.07,26.07,0,0,0,5.16-16.23A30.2,30.2,0,0,0,457.5,53.5ZM447.22,69.66a14.77,14.77,0,0,1-3,7,10.67,10.67,0,0,1-6.66,3.59,15.16,15.16,0,0,1-8.16-.89,11.61,11.61,0,0,1-6-6.29,22.65,22.65,0,0,1-1.35-10.38,16.5,16.5,0,0,1,3.45-9.49,11.68,11.68,0,0,1,8.32-4,12.53,12.53,0,0,1,9.14,2.7,13.09,13.09,0,0,1,4.13,7.59A29,29,0,0,1,447.22,69.66Z" fill="#777"/><path d="M0,58.1H52.72v52.72H0V58.1Z" fill="#02a4ef"/><path d="M58.1,58.1h52.72v52.72H58.1V58.1Z" fill="#ffb902"/></svg>