<svg xmlns="http://www.w3.org/2000/svg" width="128" height="128" viewBox="0 0 128 128"><path d="M55.92,107.71h0a6.31,6.31,0,0,1-6.32-6.31v-38a6.32,6.32,0,1,1,12.63,0v38a6.3,6.3,0,0,1-6.31,6.31" fill="#ecb72b"/><path d="M73.82,107.71h0a6.3,6.3,0,0,1-6.31-6.31V73.64a6.31,6.31,0,1,1,12.62,0V101.4a6.3,6.3,0,0,1-6.31,6.31" fill="#ecb72b"/><path d="M92.14,107.71h0a6.31,6.31,0,0,1-6.32-6.31V45.05a6.32,6.32,0,0,1,12.63,0V101.4a6.3,6.3,0,0,1-6.31,6.31" fill="#ecb72b"/><path d="M37.6,107.71h0a6.3,6.3,0,0,1-6.31-6.31V84.19a6.31,6.31,0,1,1,12.62,0V101.4a6.3,6.3,0,0,1-6.31,6.31" fill="#ecb72b"/><path d="M107.46,20.29H20.54A14.6,14.6,0,0,0,6,34.87v51A14.6,14.6,0,0,0,20.54,100.5h3.81V95H20.54a9,9,0,0,1-9-9v-51a9,9,0,0,1,9-9h86.92a9,9,0,0,1,9,9v51a9,9,0,0,1-9,9h-3.59v5.55h3.59A14.6,14.6,0,0,0,122,85.91v-51a14.6,14.6,0,0,0-14.58-14.58" fill="#ecb72b"/></svg>