<svg width="28" height="37" viewBox="0 0 28 37" xmlns="http://www.w3.org/2000/svg" xmlns:xlink="http://www.w3.org/1999/xlink" overflow="hidden"><defs><linearGradient x1="6.43368%" y1="-20.1976%" x2="86.6663%" y2="109.124%" id="linearGradient-1"><stop offset="0" stop-color="#FAB643"/><stop offset="0.559689" stop-color="#F48222"/><stop offset="1" stop-color="#F16322"/></linearGradient></defs><g id="Icon" fill="none" fillRule="evenodd" transform="translate(-54 -94)"><g id="Patent" transform="translate(45 90)"><rect x="0" y="0" width="45" height="45" id="Rectangle-5"/><g id="Group-2" fill="url(#linearGradient-1)" transform="translate(9 4)"><path d="M23.0622 27.4835 23.0622 35.9892C23.0622 36.5473 22.6145 36.9997 22.0622 36.9997 21.955 36.9997 21.8486 36.9823 21.7469 36.9482L14.0311 34.3581 6.31525 36.9482C5.79112 37.1241 5.2251 36.8374 5.05099 36.3078 5.01722 36.205 5 36.0975 5 35.9892L5 27.6046C6.15358 29.7896 8.69469 30.8319 11.0346 30.0665L14 29.0964 16.9654 30.0665C19.3343 30.8414 21.9094 29.7635 23.0422 27.5229L23.0622 27.4835ZM14 26.9721 10.4186 28.1437C8.98413 28.6129 7.42475 27.9602 6.73877 26.6034L5.02612 23.2159 1.67392 21.4852C0.331237 20.792-0.314678 19.2162 0.149681 17.7666L1.30902 14.1475 0.149681 10.5283C-0.314678 9.07875 0.331237 7.50295 1.67392 6.80975L5.02612 5.07906 6.73877 1.69155C7.42475 0.334726 8.98413-0.317993 10.4186 0.151257L14 1.32281 17.5814 0.151257C19.0159-0.317993 20.5752 0.334726 21.2612 1.69155L22.9739 5.07906 26.3261 6.80975C27.6688 7.50295 28.3147 9.07875 27.8503 10.5283L26.691 14.1475 27.8503 17.7666C28.3147 19.2162 27.6688 20.792 26.3261 21.4852L22.9739 23.2159 21.2612 26.6034C20.5752 27.9602 19.0159 28.6129 17.5814 28.1437L14 26.9721ZM14 24C19.5228 24 24 19.5228 24 14 24 8.47715 19.5228 4 14 4 8.47715 4 4 8.47715 4 14 4 19.5228 8.47715 24 14 24ZM14 22C9.58172 22 6 18.4183 6 14 6 9.58172 9.58172 6 14 6 18.4183 6 22 9.58172 22 14 22 18.4183 18.4183 22 14 22ZM12.8057 18.4 12.8057 15.8286 14.1943 15.8286C16.1831 15.8286 17.5943 14.7129 17.5943 12.8743 17.5943 11.1368 16.3115 10 14.3543 10L11 10 11 18.4 12.8057 18.4ZM14.24 14.16 12.8057 14.16 12.8057 11.68 14.24 11.68C15.2196 11.68 15.7657 12.1169 15.7657 12.9086L15.7657 12.9314C15.7657 13.6637 15.1796 14.16 14.24 14.16Z" id="Combined-Shape"/></g></g></g></svg>