<svg width="37" height="37" viewBox="0 0 37 37" xmlns="http://www.w3.org/2000/svg" xmlns:xlink="http://www.w3.org/1999/xlink" overflow="hidden"><defs><linearGradient x1="6.43368%" y1="-20.1976%" x2="86.6663%" y2="109.124%" id="linearGradient-1"><stop offset="0" stop-color="#FAB643"/><stop offset="0.559689" stop-color="#F48222"/><stop offset="1" stop-color="#F16322"/></linearGradient></defs><g id="Icon" fill="none" fillRule="evenodd" transform="translate(-229 -94)"><g id="Trademark" transform="translate(225 90)"><rect x="0" y="0" width="45" height="45" id="Rectangle-5"/><path d="M22.5 41C12.2827 41 4 32.7173 4 22.5 4 12.2827 12.2827 4 22.5 4 32.7173 4 41 12.2827 41 22.5 41 32.7173 32.7173 41 22.5 41ZM22.5 38.3308C31.2431 38.3308 38.3308 31.2431 38.3308 22.5 38.3308 13.7569 31.2431 6.66916 22.5 6.66916 13.7569 6.66916 6.66916 13.7569 6.66916 22.5 6.66916 31.2431 13.7569 38.3308 22.5 38.3308ZM22.5 36.1654C14.9528 36.1654 8.83458 30.0472 8.83458 22.5 8.83458 14.9528 14.9528 8.83458 22.5 8.83458 30.0472 8.83458 36.1654 14.9528 36.1654 22.5 36.1654 30.0472 30.0472 36.1654 22.5 36.1654ZM17 29 19.46 29 19.46 24.12 22.54 24.12 25.98 29 28.88 29 25.1 23.7C27.06 23.14 28.44 21.76 28.44 19.42 28.44 18.2 28.02 17.16 27.28 16.4 26.38 15.52 25 15 23.24 15L17 15 17 29ZM19.46 21.94 19.46 17.24 23.04 17.24C24.86 17.24 25.94 18.06 25.94 19.56L25.94 19.6C25.94 21.02 24.82 21.94 23.06 21.94L19.46 21.94Z" id="Combined-Shape" fill="url(#linearGradient-1)"/></g></g></svg>