<svg width="30" height="38" viewBox="0 0 30 38" xmlns="http://www.w3.org/2000/svg" xmlns:xlink="http://www.w3.org/1999/xlink" overflow="hidden"><defs><linearGradient x1="6.43368%" y1="-20.1976%" x2="86.6663%" y2="109.124%" id="linearGradient-1"><stop offset="0" stop-color="#FAB643"/><stop offset="0.559689" stop-color="#F48222"/><stop offset="1" stop-color="#F16322"/></linearGradient></defs><g id="Revisi" fill="none" fillRule="evenodd"><g id="Icon-" transform="translate(-142 -182)"><rect x="0" y="0" width="585" height="582" fill="#F7F7F8"/><g id="check-list" fill="url(#linearGradient-1)" transform="translate(142 182)"><g id="Group-8"><path d="M2 0.288145 28 0.288145C29.1046 0.288145 30 1.18358 30 2.28815L30 35.8136C30 36.9182 29.1046 37.8136 28 37.8136L2 37.8136C0.895431 37.8136-1.36411e-12 36.9182-1.36424e-12 35.8136L-1.36424e-12 2.28815C-1.36438e-12 1.18358 0.895431 0.288145 2 0.288145ZM11.4765 6 7.12545 10.3223 5.36257 8.68164 4 10.1457 7.17063 13.0966 12.886 7.41889 11.4765 6ZM16 9 16 11 26 11 26 9 16 9ZM11.4765 15 7.12545 19.3223 5.36257 17.6816 4 19.1457 7.17063 22.0966 12.886 16.4189 11.4765 15ZM16 18 16 20 26 20 26 18 16 18ZM11.4765 24 7.12545 28.3223 5.36257 26.6816 4 28.1457 7.17063 31.0966 12.886 25.4189 11.4765 24ZM16 27 16 29 26 29 26 27 16 27Z" id="Combined-Shape"/></g></g></g></g></svg>