<svg width="400" height="400" viewBox="0 0 400 400" xmlns="http://www.w3.org/2000/svg" xmlns:xlink="http://www.w3.org/1999/xlink" overflow="hidden"><defs><linearGradient x1="39.9604%" y1="-79.1679%" x2="77.3199%" y2="44.0488%" id="linearGradient-1"><stop offset="0" stop-color="#FAB643"/><stop offset="0.559689" stop-color="#F48222"/><stop offset="1" stop-color="#F16322" stop-opacity="0"/></linearGradient><linearGradient x1="-55.3694%" y1="-100.234%" x2="36.408%" y2="75.5542%" id="linearGradient-2"><stop offset="0" stop-color="#FAB643"/><stop offset="0.559689" stop-color="#F48222"/><stop offset="1" stop-color="#F16322" stop-opacity="0"/></linearGradient><linearGradient x1="100%" y1="-53.5783%" x2="31.6259%" y2="64.135%" id="linearGradient-3"><stop offset="0" stop-color="#FAB643"/><stop offset="0.559689" stop-color="#F48222"/><stop offset="1" stop-color="#F16322" stop-opacity="0"/></linearGradient><linearGradient x1="183.926%" y1="60.069%" x2="-3.78275%" y2="45.6238%" id="linearGradient-4"><stop offset="0" stop-color="#FB982A"/><stop offset="1" stop-color="#C94D00"/></linearGradient><linearGradient x1="6.43368%" y1="-20.1976%" x2="27.1215%" y2="50%" id="linearGradient-5"><stop offset="0" stop-color="#FAB643"/><stop offset="0.559689" stop-color="#F48222"/><stop offset="1" stop-color="#F16322"/></linearGradient><linearGradient x1="21.2484%" y1="-22.1173%" x2="73.3839%" y2="74.4783%" id="linearGradient-6"><stop offset="0" stop-color="#FFAD38"/><stop offset="1" stop-color="#F36309"/></linearGradient><linearGradient x1="77.077%" y1="19.305%" x2="24.767%" y2="85.1284%" id="linearGradient-7"><stop offset="0" stop-color="#F8D79B"/><stop offset="1" stop-color="#FFAD38"/></linearGradient><linearGradient x1="6.43368%" y1="-20.1976%" x2="65.9646%" y2="112.536%" id="linearGradient-8"><stop offset="0" stop-color="#FAB643"/><stop offset="0.600586" stop-color="#F48222"/><stop offset="1" stop-color="#F16322"/></linearGradient><linearGradient x1="6.43368%" y1="-20.1976%" x2="27.1215%" y2="50%" id="linearGradient-9"><stop offset="0" stop-color="#FAB643"/><stop offset="0.559689" stop-color="#F48222"/><stop offset="1" stop-color="#F16322"/></linearGradient><linearGradient x1="51.9186%" y1="-7.04692%" x2="45.6573%" y2="137.105%" id="linearGradient-10"><stop offset="0" stop-color="#FFE9B4"/><stop offset="1" stop-color="#FFCB8C"/></linearGradient><linearGradient x1="6.43368%" y1="-20.1976%" x2="65.9646%" y2="112.536%" id="linearGradient-11"><stop offset="0" stop-color="#FAB643"/><stop offset="0.600586" stop-color="#F48222"/><stop offset="1" stop-color="#F16322"/></linearGradient><linearGradient x1="6.43368%" y1="-20.1976%" x2="65.9646%" y2="112.536%" id="linearGradient-12"><stop offset="0" stop-color="#FAB643"/><stop offset="0.600586" stop-color="#F48222"/><stop offset="1" stop-color="#F16322"/></linearGradient><linearGradient x1="6.43368%" y1="-20.1976%" x2="65.9646%" y2="112.536%" id="linearGradient-13"><stop offset="0" stop-color="#FAB643"/><stop offset="0.600586" stop-color="#F48222"/><stop offset="1" stop-color="#F16322"/></linearGradient><linearGradient x1="6.43368%" y1="-20.1976%" x2="65.9646%" y2="112.536%" id="linearGradient-14"><stop offset="0" stop-color="#FAB643"/><stop offset="0.600586" stop-color="#F48222"/><stop offset="1" stop-color="#F16322"/></linearGradient><linearGradient x1="6.43368%" y1="-20.1976%" x2="27.1215%" y2="50%" id="linearGradient-15"><stop offset="0" stop-color="#FAB643"/><stop offset="0.559689" stop-color="#F48222"/><stop offset="1" stop-color="#F16322"/></linearGradient><linearGradient x1="-29.8754%" y1="-114.304%" x2="39.6966%" y2="77.9474%" id="linearGradient-16"><stop offset="0" stop-color="#FAB643"/><stop offset="0.559689" stop-color="#F48222"/><stop offset="1" stop-color="#F16322" stop-opacity="0"/></linearGradient><linearGradient x1="-55.3694%" y1="-100.234%" x2="36.408%" y2="75.5542%" id="linearGradient-17"><stop offset="0" stop-color="#FAB643"/><stop offset="0.559689" stop-color="#F48222"/><stop offset="1" stop-color="#F16322" stop-opacity="0"/></linearGradient><linearGradient x1="100%" y1="-53.5783%" x2="31.6259%" y2="64.135%" id="linearGradient-18"><stop offset="0" stop-color="#FAB643"/><stop offset="0.559689" stop-color="#F48222"/><stop offset="1" stop-color="#F16322" stop-opacity="0"/></linearGradient><linearGradient x1="100%" y1="-53.5783%" x2="31.6259%" y2="64.135%" id="linearGradient-19"><stop offset="0" stop-color="#FAB643"/><stop offset="0.559689" stop-color="#F48222"/><stop offset="1" stop-color="#F16322" stop-opacity="0"/></linearGradient><linearGradient x1="100%" y1="-53.5783%" x2="31.6259%" y2="64.135%" id="linearGradient-20"><stop offset="0" stop-color="#FAB643"/><stop offset="0.559689" stop-color="#F48222"/><stop offset="1" stop-color="#F16322" stop-opacity="0"/></linearGradient><linearGradient x1="6.43368%" y1="-20.1976%" x2="65.9646%" y2="112.536%" id="linearGradient-21"><stop offset="0" stop-color="#FAB643"/><stop offset="0.600586" stop-color="#F48222"/><stop offset="1" stop-color="#F16322"/></linearGradient><linearGradient x1="6.43368%" y1="-20.1976%" x2="27.1215%" y2="50%" id="linearGradient-22"><stop offset="0" stop-color="#FAB643"/><stop offset="0.559689" stop-color="#F48222"/><stop offset="1" stop-color="#F16322"/></linearGradient><linearGradient x1="85.9467%" y1="-10.6289%" x2="65.9646%" y2="112.536%" id="linearGradient-23"><stop offset="0" stop-color="#FAB643"/><stop offset="0.600586" stop-color="#F48222"/><stop offset="1" stop-color="#F16322"/></linearGradient><linearGradient x1="78.4307%" y1="-54.5893%" x2="62.6266%" y2="157.879%" id="linearGradient-24"><stop offset="0" stop-color="#FAB643"/><stop offset="0.600586" stop-color="#F48222"/><stop offset="1" stop-color="#F16322"/></linearGradient><linearGradient x1="6.43368%" y1="-20.1976%" x2="65.9646%" y2="112.536%" id="linearGradient-25"><stop offset="0" stop-color="#FAB643"/><stop offset="0.600586" stop-color="#F48222"/><stop offset="1" stop-color="#F16322"/></linearGradient><linearGradient x1="6.43368%" y1="-20.1976%" x2="65.9646%" y2="112.536%" id="linearGradient-26"><stop offset="0" stop-color="#FAB643"/><stop offset="0.600586" stop-color="#F48222"/><stop offset="1" stop-color="#F16322"/></linearGradient><linearGradient x1="6.43368%" y1="-20.1976%" x2="65.9646%" y2="112.536%" id="linearGradient-27"><stop offset="0" stop-color="#FAB643"/><stop offset="0.600586" stop-color="#F48222"/><stop offset="1" stop-color="#F16322"/></linearGradient></defs><g id="Subscription" fill="none" fill-rule="evenodd"><g id="2-Subsription-Agreement" fill-rule="nonzero" transform="translate(48.2 38)"><path d="M180.372 136.572 279.847 79.3877C280.454 79.0391 281.228 79.2481 281.576 79.8544 281.687 80.0465 281.745 80.2641 281.745 80.4856L281.745 156.917C281.745 157.367 281.506 157.783 281.117 158.01L179.737 217.219 179.737 137.67C179.737 137.217 179.979 136.798 180.372 136.572Z" id="Shape" fill="url(#linearGradient-1)" opacity="0.3" transform="matrix(-1 0 0 1 461.481 0)"/><g id="Group" transform="translate(73 66)"><path d="M108.023 75.5575 108.023 102.939 37.3814 143.107 37.3814 115.392Z" id="Shape-Copy-10" fill="url(#linearGradient-2)" opacity="0.6"/><path d="M37.3814 127.567 0.718937 106.819 0.748692 92.8902 37.3814 113.715Z" id="Shape-Copy-11" fill="url(#linearGradient-3)" opacity="0.3"/><g id="Group-8" transform="matrix(-1 0 0 1 108.2 0)"><g id="Group-4" transform="translate(70.875 38.8126)"><path d="M17.1251 1.96876 19.5359 0.560112 36.661 55.1593 0 76.5805Z" id="Shape" fill="#C94D00"/><path d="M17.2207 4.87494 19.4401 3.57815 35.2055 53.8421 1.45546 73.5625Z" id="Shape" fill="url(#linearGradient-4)"/><path d="M34.6802 54.1489 1.45546 73.5625 9.26605 39.5327Z" id="Shape" fill="url(#linearGradient-5)"/></g><g id="Group-4"><g id="Group-16" transform="translate(1.6875 1.6875)"><path d="M86.3166 39.079 18.0809 0.115004 0.84375 74.6147 69.1886 113.704Z" id="Shape" fill="#F36309"/><g id="Group-17" transform="translate(11.7818 14.7272)"><path d="M62.4786 29.8715 11.0077 0.466744 8.17685 12.3486 59.7398 41.8039Z" id="Shape" fill="url(#linearGradient-6)"/><path d="M14.2067 13.2913C15.7057 14.1295 17.3017 13.2514 17.7715 11.3298 18.2412 9.40822 17.4068 7.17097 15.9078 6.33275 14.4089 5.49454 12.8129 6.37276 12.3431 8.2943 11.8733 10.2159 12.7078 12.4531 14.2067 13.2913Z" id="Shape" fill="#FCFCFC"/><path d="M6.43982 28.3663 12.3986 31.7632 10.942 38.0473 4.9832 34.6506 6.43982 28.3663ZM18.6668 23.2415 24.6256 26.6382 23.169 32.9225 17.2102 29.5258 18.6668 23.2415ZM16.1905 33.9247 22.1494 37.3214 20.6927 43.6057 14.734 40.209 16.1905 33.9247ZM28.4176 28.7999 34.3763 32.1966 32.9196 38.4809 26.9609 35.084 28.4176 28.7999ZM25.9412 39.4831 31.9001 42.8798 30.4434 49.1641 24.4847 45.7673 25.9412 39.4831ZM38.71 34.667 44.6687 38.0638 43.2121 44.348 37.2533 40.9513 38.71 34.667ZM48.4607 40.2254 54.4194 43.6222 52.9628 49.9064 47.004 46.5096 48.4607 40.2254ZM36.2336 45.3503 42.1925 48.747 40.7358 55.0313 34.7771 51.6344 36.2336 45.3503ZM33.7574 56.0335 39.7162 59.4302 38.2596 65.7145 32.3008 62.3177 33.7574 56.0335ZM31.2811 66.7166 37.24 70.1135 35.7833 76.3978 29.8246 73.0009 31.2811 66.7166ZM43.5082 61.5918 49.4669 64.9886 48.0103 71.2729 42.0515 67.8761 43.5082 61.5918ZM45.9844 50.9086 51.9432 54.3054 50.4865 60.5897 44.5278 57.1928 45.9844 50.9086ZM3.96356 39.0496 9.92233 42.4463 8.46571 48.7306 2.50694 45.3338 3.96356 39.0496ZM1.4873 49.7328 7.44607 53.1295 5.98945 59.4138 0.0306818 56.0171 1.4873 49.7328ZM13.7143 44.608 19.673 48.0047 18.2165 54.289 12.2576 50.8921 13.7143 44.608ZM11.238 55.2912 17.1968 58.6879 15.7402 64.9722 9.78139 61.5754 11.238 55.2912ZM23.465 50.1662 29.4238 53.5631 27.9671 59.8474 22.0084 56.4505 23.465 50.1662ZM20.9887 60.8495 26.9476 64.2463 25.4909 70.5306 19.5322 67.1338 20.9887 60.8495Z" id="Shape" fill="#E2E7EC"/></g></g><g id="Group-16" transform="matrix(1 0 0 1 0 0.84375)"><path d="M86.4233 39.0054 18.2909 0.115004 17.2321 0.115004 0.84375 74.6147 69.253 113.616Z" id="Shape" fill="#F36309"/><g id="Group-17"><path d="M85.4688 39.0937 17.2376 0.114147 0.112792 74.7288 68.4804 113.185Z" id="Shape" fill="url(#linearGradient-7)"/><path d="M74.2604 44.5987 22.7894 15.194 19.9586 27.0758 71.5217 56.5313Z" id="Shape" fill="url(#linearGradient-8)"/><path d="M25.9885 28.0186C27.4876 28.8569 29.0836 27.9786 29.5534 26.057 30.023 24.1355 29.1887 21.8982 27.6896 21.06 26.1907 20.2218 24.5947 21.1001 24.1249 23.0216 23.6551 24.9431 24.4895 27.1804 25.9885 28.0186Z" id="Shape" fill="#FCFCFC"/><path d="M18.2216 43.0936 24.1804 46.4904 22.7238 52.7747 16.7651 49.3778 18.2216 43.0936ZM30.4486 37.9687 36.4074 41.3656 34.9507 47.6498 28.992 44.253 30.4486 37.9687ZM27.9724 48.652 33.9311 52.0488 32.4745 58.333 26.5157 54.9362 27.9724 48.652ZM40.1993 43.5271 46.1581 46.924 44.7014 53.2081 38.7427 49.8114 40.1993 43.5271ZM37.7231 54.2104 43.6818 57.6071 42.2252 63.8914 36.2664 60.4946 37.7231 54.2104ZM50.4918 49.3943 56.4505 52.7911 54.9938 59.0753 49.0351 55.6786 50.4918 49.3943ZM60.2425 54.9527 66.2012 58.3494 64.7446 64.6337 58.7858 61.237 60.2425 54.9527ZM48.0155 60.0775 53.9742 63.4742 52.5176 69.7585 46.5589 66.3618 48.0155 60.0775ZM45.5393 70.7608 51.498 74.1575 50.0413 80.4418 44.0826 77.045 45.5393 70.7608ZM43.063 81.444 49.0217 84.8407 47.5651 91.125 41.6064 87.7282 43.063 81.444ZM55.29 76.3192 61.2487 79.7159 59.792 86.0002 53.8333 82.6033 55.29 76.3192ZM57.7662 65.6359 63.7249 69.0326 62.2684 75.3169 56.3095 71.9201 57.7662 65.6359ZM15.7454 53.7768 21.7042 57.1736 20.2475 63.4578 14.2888 60.0611 15.7454 53.7768ZM13.2691 64.46 19.2278 67.8569 17.7713 74.141 11.8125 70.7443 13.2691 64.46ZM25.496 59.3352 31.4549 62.732 29.9982 69.0162 24.0395 65.6195 25.496 59.3352ZM23.0198 70.0184 28.9786 73.4152 27.522 79.6994 21.5632 76.3027 23.0198 70.0184ZM35.2468 64.8936 41.2056 68.2903 39.7489 74.5746 33.7902 71.1778 35.2468 64.8936ZM32.7706 75.5768 38.7293 78.9736 37.2727 85.2578 31.3139 81.861 32.7706 75.5768Z" id="Shape" fill="#FFFFFF"/></g></g><path d="M88.0001 40.7813 19.7689 1.80164 22.1688 0.401629 90.3997 39.3784Z" id="Shape" fill="#C94D00"/><g id="Group-16" fill="#F36309" transform="translate(25.3126 0)"><g id="Group-12" transform="translate(41.3437 23.625)"><g id="Group-13"><path d="M5.53224 5.39546C5.74776 4.98134 5.968 4.05292 5.968 3.545 5.968 2.32586 5.54602 2.04065 4.70419 2.524 3.42205 3.26015 2.29678 5.31293 2.29678 6.97159 2.29678 7.83202 2.54263 8.18908 2.84075 8.21387 3.4728 8.26642 3.94258 8.8214 3.89003 9.45346 3.83747 10.0855 3.28248 10.5553 2.65043 10.5027 1.00033 10.3655 0 8.91275 0 6.97159 0 4.50998 1.54668 1.68848 3.56057 0.532183 6.01477-0.876925 8.26476 0.64387 8.26476 3.545 8.26476 4.43894 7.94418 5.77716 7.5288 6.53195L5.53224 5.39546Z" id="Shape"/><path d="M11.4385 8.77046C11.654 8.35634 11.8742 7.42792 11.8742 6.92 11.8742 5.70086 11.4523 5.41565 10.6104 5.899 9.32831 6.63515 8.20302 8.68793 8.20302 10.3466 8.20302 11.207 8.44888 11.5641 8.74699 11.5889 9.37906 11.6414 9.84883 12.1964 9.79627 12.8285 9.74372 13.4605 9.18874 13.9303 8.55667 13.8778 6.90658 13.7405 5.90626 12.2878 5.90626 10.3466 5.90626 7.88498 7.45292 5.06348 9.46682 3.90719 11.921 2.49808 14.171 4.01887 14.171 6.92 14.171 7.81394 13.8504 9.15216 13.4351 9.90694L11.4385 8.77046Z" id="Shape"/><path d="M17.3447 12.1454C17.5603 11.7313 17.7805 10.8029 17.7805 10.295 17.7805 9.07586 17.3585 8.79065 16.5167 9.274 15.2346 10.0101 14.1092 12.0629 14.1092 13.7216 14.1092 14.582 14.3551 14.939 14.6532 14.9639 15.2854 15.0164 15.755 15.5714 15.7025 16.2035 15.6499 16.8355 15.095 17.3053 14.4629 17.2528 12.8129 17.1155 11.8125 15.6628 11.8125 13.7216 11.8125 11.26 13.3591 8.43848 15.3731 7.28219 17.8273 5.87308 20.0773 7.39387 20.0773 10.295 20.0773 11.1889 19.7567 12.5272 19.3414 13.282L17.3447 12.1454Z" id="Shape"/></g></g><g id="Group-12"><path d="M5.53224 5.39546C5.74776 4.98134 5.968 4.05292 5.968 3.545 5.968 2.32586 5.54602 2.04065 4.70419 2.524 3.42205 3.26015 2.29678 5.31293 2.29678 6.97159 2.29678 7.83202 2.54263 8.18908 2.84075 8.21387 3.4728 8.26642 3.94258 8.8214 3.89003 9.45346 3.83747 10.0855 3.28248 10.5553 2.65043 10.5027 1.00033 10.3655 0 8.91275 0 6.97159 0 4.50998 1.54668 1.68848 3.56057 0.532183 6.01477-0.876925 8.26476 0.64387 8.26476 3.545 8.26476 4.43894 7.94418 5.77716 7.5288 6.53195L5.53224 5.39546Z" id="Shape"/><path d="M11.4385 8.77046C11.654 8.35634 11.8742 7.42792 11.8742 6.92 11.8742 5.70086 11.4523 5.41565 10.6104 5.899 9.32831 6.63515 8.20302 8.68793 8.20302 10.3466 8.20302 11.207 8.44888 11.5641 8.74699 11.5889 9.37906 11.6414 9.84883 12.1964 9.79627 12.8285 9.74372 13.4605 9.18874 13.9303 8.55667 13.8778 6.90658 13.7405 5.90626 12.2878 5.90626 10.3466 5.90626 7.88498 7.45292 5.06348 9.46682 3.90719 11.921 2.49808 14.171 4.01887 14.171 6.92 14.171 7.81394 13.8504 9.15216 13.4351 9.90694L11.4385 8.77046Z" id="Shape"/><path d="M17.3447 12.1454C17.5603 11.7313 17.7805 10.8029 17.7805 10.295 17.7805 9.07586 17.3585 8.79065 16.5167 9.274 15.2346 10.0101 14.1092 12.0629 14.1092 13.7216 14.1092 14.582 14.3551 14.939 14.6532 14.9639 15.2854 15.0164 15.755 15.5714 15.7025 16.2035 15.6499 16.8355 15.095 17.3053 14.4629 17.2528 12.8129 17.1155 11.8125 15.6628 11.8125 13.7216 11.8125 11.26 13.3591 8.43848 15.3731 7.28219 17.8273 5.87308 20.0773 7.39387 20.0773 10.295 20.0773 11.1889 19.7567 12.5272 19.3414 13.282L17.3447 12.1454Z" id="Shape"/></g></g></g></g></g><g id="Group-69" transform="translate(138.84 141.71)"><g id="Group-68"><path d="M0.60888 44.2631 0.60888 51.453C0.60888 51.6786 0.666377 51.9074 0.787269 52.1169 0.903737 52.3187 1.07181 52.4863 1.27526 52.603L86.1801 101.227C87.416 101.938 88.9386 101.938 90.1745 101.227L163.059 58.8249C163.486 58.5788 163.725 58.1326 163.725 57.6736L163.725 56.7799 163.641 50.2562 0.60888 44.2631Z" id="Shape" fill="url(#linearGradient-9)"/><path d="M74.042 0.684946 1.11751 43.1068C0.480617 43.4736 0.262423 44.2856 0.62952 44.9208 0.747463 45.1226 0.915531 45.2902 1.11751 45.4068L86.1039 94.1221C87.3398 94.8336 88.8624 94.8336 90.0983 94.1221L163.023 51.7001C163.66 51.3335 163.878 50.5214 163.51 49.8863 163.393 49.6843 163.225 49.5167 163.023 49.4002L78.0364 0.684946C76.8006-0.0266559 75.2779-0.0266559 74.042 0.684946Z" id="Shape" fill="url(#linearGradient-10)"/><g id="Group-67" transform="translate(33.9086 19.64)"><g id="Group-66" transform="matrix(1 0 0 1 0 29.4857)"><path d="M0.964442 9.70339C0.895046 9.66014 0.901149 9.3695 0.901149 9.28803 0.901149 9.23373 0.901149 8.76096 0.901149 7.86974L12.881 1.31296C12.9858 1.24864 13.1141 1.24909 13.2184 1.31415L20.6547 5.16419C20.6547 6.07527 20.6547 6.56669 20.6547 6.63847 20.6547 6.74614 20.6371 6.95836 20.4824 7.05329L8.67499 14.301C8.57024 14.3653 8.44191 14.3649 8.33754 14.2998L0.964442 9.70339Z" id="Shape" fill="#F36309"/><path d="M0.964442 8.0395C0.938091 8.02308 0.916286 7.9993 0.901294 7.97065 0.854969 7.88211 0.883675 7.76963 0.965408 7.71945L12.881 0.403177C12.9858 0.338857 13.1141 0.339313 13.2184 0.404372L20.5915 5.00081C20.6179 5.01723 20.6397 5.04101 20.6547 5.06966 20.701 5.1582 20.6723 5.27067 20.5906 5.32086L8.67499 12.6371C8.57024 12.7014 8.44191 12.701 8.33754 12.6359L0.964442 8.0395Z" id="Shape" fill="url(#linearGradient-11)"/></g><g id="Group-66" transform="translate(17.4171 19.1657)"><path d="M0.236257 10.1044C0.16686 10.0611 0.172964 9.77046 0.172964 9.68899 0.172964 9.63469 0.172964 9.16192 0.172964 8.2707L12.1528 1.71392C12.2576 1.64961 12.3859 1.65005 12.4903 1.71511L19.9265 5.56515C19.9265 6.47623 19.9265 6.96767 19.9265 7.03943 19.9265 7.14712 19.9088 7.35932 19.7542 7.45427L7.94681 14.702C7.84206 14.7663 7.71372 14.7659 7.60936 14.7008L0.236257 10.1044Z" id="Shape" fill="#F36309"/><path d="M0.236257 8.44048C0.209907 8.42404 0.1881 8.40026 0.17311 8.37161 0.126785 8.28307 0.155489 8.17061 0.237224 8.12042L12.1528 0.804142C12.2576 0.739823 12.3859 0.740277 12.4903 0.805337L19.8634 5.40177C19.8897 5.41819 19.9115 5.44197 19.9265 5.47063 19.9728 5.55918 19.9442 5.67164 19.8624 5.72182L7.94681 13.0381C7.84206 13.1024 7.71372 13.102 7.60936 13.0369L0.236257 8.44048Z" id="Shape" fill="url(#linearGradient-12)"/></g><g id="Group-66" transform="translate(32.4343 10.0457)"><path d="M1.04465 9.6101C0.975253 9.56683 0.981357 9.2762 0.981357 9.19473 0.981357 9.14042 0.981357 8.66766 0.981357 7.77644L12.9612 1.21966C13.066 1.15533 13.1943 1.15579 13.2987 1.22085L20.7349 5.07089C20.7349 5.98197 20.7349 6.47339 20.7349 6.54517 20.7349 6.65284 20.7173 6.86507 20.5626 6.95999L8.75521 14.2078C8.65044 14.272 8.52212 14.2716 8.41776 14.2066L1.04465 9.6101Z" id="Shape" fill="#F36309"/><path d="M1.04465 7.9462C1.0183 7.92978 0.996493 7.906 0.981503 7.87734 0.935178 7.78879 0.963882 7.67634 1.04562 7.62615L12.9612 0.309875C13.066 0.245558 13.1943 0.246012 13.2987 0.311069L20.6717 4.90749C20.6981 4.92393 20.7199 4.94771 20.7349 4.97636 20.7812 5.0649 20.7525 5.17736 20.6708 5.22755L8.75521 12.5438C8.65044 12.6081 8.52212 12.6077 8.41776 12.5426L1.04465 7.9462Z" id="Shape" fill="url(#linearGradient-13)"/></g><g id="Group-66" transform="translate(48.6514 0)"><path d="M0.93792 9.93041C0.868524 9.88713 0.874626 9.59651 0.874626 9.51504 0.874626 9.46073 0.874626 8.98797 0.874626 8.09675L12.8545 1.53997C12.9592 1.47564 13.0876 1.4761 13.1919 1.54116L20.6282 5.3912C20.6282 6.30228 20.6282 6.7937 20.6282 6.86548 20.6282 6.97315 20.6105 7.18537 20.4559 7.2803L8.64847 14.528C8.54372 14.5923 8.41539 14.5919 8.31102 14.5268L0.93792 9.93041Z" id="Shape" fill="#F36309"/><path d="M0.93792 8.26651C0.911569 8.25009 0.889762 8.22631 0.874772 8.19766 0.828447 8.10912 0.857151 7.99664 0.938886 7.94646L12.8545 0.630186C12.9592 0.565866 13.0876 0.566322 13.1919 0.631381L20.565 5.2278C20.5913 5.24424 20.6132 5.26802 20.6282 5.29667 20.6745 5.38521 20.6458 5.49767 20.5641 5.54785L8.64847 12.8641C8.54372 12.9285 8.41539 12.928 8.31102 12.8629L0.93792 8.26651Z" id="Shape" fill="url(#linearGradient-14)"/></g><g id="Group-66" transform="translate(13.2686 38.3314)"><path d="M0.964442 9.70339C0.895046 9.66014 0.901149 9.3695 0.901149 9.28803 0.901149 9.23373 0.901149 8.76096 0.901149 7.86974L12.881 1.31296C12.9858 1.24864 13.1141 1.24909 13.2184 1.31415L20.6547 5.16419C20.6547 6.07527 20.6547 6.56669 20.6547 6.63847 20.6547 6.74614 20.6371 6.95836 20.4824 7.05329L8.67499 14.301C8.57024 14.3653 8.44191 14.3649 8.33754 14.2998L0.964442 9.70339Z" id="Shape" fill="#F36309"/><path d="M0.964442 8.0395C0.938091 8.02308 0.916286 7.9993 0.901294 7.97065 0.854969 7.88211 0.883675 7.76963 0.965408 7.71945L12.881 0.403177C12.9858 0.338857 13.1141 0.339313 13.2184 0.404372L20.5915 5.00081C20.6179 5.01723 20.6397 5.04101 20.6547 5.06966 20.701 5.1582 20.6723 5.27067 20.5906 5.32086L8.67499 12.6371C8.57024 12.7014 8.44191 12.701 8.33754 12.6359L0.964442 8.0395Z" id="Shape" fill="url(#linearGradient-11)"/></g><g id="Group-66" transform="translate(30.6857 28.0114)"><path d="M0.236257 10.1044C0.16686 10.0611 0.172964 9.77046 0.172964 9.68899 0.172964 9.63469 0.172964 9.16192 0.172964 8.2707L12.1528 1.71392C12.2576 1.64961 12.3859 1.65005 12.4903 1.71511L19.9265 5.56515C19.9265 6.47623 19.9265 6.96767 19.9265 7.03943 19.9265 7.14712 19.9088 7.35932 19.7542 7.45427L7.94681 14.702C7.84206 14.7663 7.71372 14.7659 7.60936 14.7008L0.236257 10.1044Z" id="Shape" fill="#F36309"/><path d="M0.236257 8.44048C0.209907 8.42404 0.1881 8.40026 0.17311 8.37161 0.126785 8.28307 0.155489 8.17061 0.237224 8.12042L12.1528 0.804142C12.2576 0.739823 12.3859 0.740277 12.4903 0.805337L19.8634 5.40177C19.8897 5.41819 19.9115 5.44197 19.9265 5.47063 19.9728 5.55918 19.9442 5.67164 19.8624 5.72182L7.94681 13.0381C7.84206 13.1024 7.71372 13.102 7.60936 13.0369L0.236257 8.44048Z" id="Shape" fill="url(#linearGradient-12)"/></g><g id="Group-66" transform="translate(45.7029 18.8914)"><path d="M1.04465 9.6101C0.975253 9.56683 0.981357 9.2762 0.981357 9.19473 0.981357 9.14042 0.981357 8.66766 0.981357 7.77644L12.9612 1.21966C13.066 1.15533 13.1943 1.15579 13.2987 1.22085L20.7349 5.07089C20.7349 5.98197 20.7349 6.47339 20.7349 6.54517 20.7349 6.65284 20.7173 6.86507 20.5626 6.95999L8.75521 14.2078C8.65044 14.272 8.52212 14.2716 8.41776 14.2066L1.04465 9.6101Z" id="Shape" fill="#F36309"/><path d="M1.04465 7.9462C1.0183 7.92978 0.996493 7.906 0.981503 7.87734 0.935178 7.78879 0.963882 7.67634 1.04562 7.62615L12.9612 0.309875C13.066 0.245558 13.1943 0.246012 13.2987 0.311069L20.6717 4.90749C20.6981 4.92393 20.7199 4.94771 20.7349 4.97636 20.7812 5.0649 20.7525 5.17736 20.6708 5.22755L8.75521 12.5438C8.65044 12.6081 8.52212 12.6077 8.41776 12.5426L1.04465 7.9462Z" id="Shape" fill="url(#linearGradient-13)"/></g><g id="Group-66" transform="translate(61.92 8.84571)"><path d="M0.93792 9.93041C0.868524 9.88713 0.874626 9.59651 0.874626 9.51504 0.874626 9.46073 0.874626 8.98797 0.874626 8.09675L12.8545 1.53997C12.9592 1.47564 13.0876 1.4761 13.1919 1.54116L20.6282 5.3912C20.6282 6.30228 20.6282 6.7937 20.6282 6.86548 20.6282 6.97315 20.6105 7.18537 20.4559 7.2803L8.64847 14.528C8.54372 14.5923 8.41539 14.5919 8.31102 14.5268L0.93792 9.93041Z" id="Shape" fill="#F36309"/><path d="M0.93792 8.26651C0.911569 8.25009 0.889762 8.22631 0.874772 8.19766 0.828447 8.10912 0.857151 7.99664 0.938886 7.94646L12.8545 0.630186C12.9592 0.565866 13.0876 0.566322 13.1919 0.631381L20.565 5.2278C20.5913 5.24424 20.6132 5.26802 20.6282 5.29667 20.6745 5.38521 20.6458 5.49767 20.5641 5.54785L8.64847 12.8641C8.54372 12.9285 8.41539 12.928 8.31102 12.8629L0.93792 8.26651Z" id="Shape" fill="url(#linearGradient-14)"/></g><g id="Group-66" transform="translate(28.0114 47.1771)"><path d="M0.964442 9.70339C0.895046 9.66014 0.901149 9.3695 0.901149 9.28803 0.901149 9.23373 0.901149 8.76096 0.901149 7.86974L12.881 1.31296C12.9858 1.24864 13.1141 1.24909 13.2184 1.31415L20.6547 5.16419C20.6547 6.07527 20.6547 6.56669 20.6547 6.63847 20.6547 6.74614 20.6371 6.95836 20.4824 7.05329L8.67499 14.301C8.57024 14.3653 8.44191 14.3649 8.33754 14.2998L0.964442 9.70339Z" id="Shape" fill="#F36309"/><path d="M0.964442 8.0395C0.938091 8.02308 0.916286 7.9993 0.901294 7.97065 0.854969 7.88211 0.883675 7.76963 0.965408 7.71945L12.881 0.403177C12.9858 0.338857 13.1141 0.339313 13.2184 0.404372L20.5915 5.00081C20.6179 5.01723 20.6397 5.04101 20.6547 5.06966 20.701 5.1582 20.6723 5.27067 20.5906 5.32086L8.67499 12.6371C8.57024 12.7014 8.44191 12.701 8.33754 12.6359L0.964442 8.0395Z" id="Shape" fill="url(#linearGradient-11)"/></g><g id="Group-66" transform="translate(45.4286 36.8571)"><path d="M0.236257 10.1044C0.16686 10.0611 0.172964 9.77046 0.172964 9.68899 0.172964 9.63469 0.172964 9.16192 0.172964 8.2707L12.1528 1.71392C12.2576 1.64961 12.3859 1.65005 12.4903 1.71511L19.9265 5.56515C19.9265 6.47623 19.9265 6.96767 19.9265 7.03943 19.9265 7.14712 19.9088 7.35932 19.7542 7.45427L7.94681 14.702C7.84206 14.7663 7.71372 14.7659 7.60936 14.7008L0.236257 10.1044Z" id="Shape" fill="#F36309"/><path d="M0.236257 8.44048C0.209907 8.42404 0.1881 8.40026 0.17311 8.37161 0.126785 8.28307 0.155489 8.17061 0.237224 8.12042L12.1528 0.804142C12.2576 0.739823 12.3859 0.740277 12.4903 0.805337L19.8634 5.40177C19.8897 5.41819 19.9115 5.44197 19.9265 5.47063 19.9728 5.55918 19.9442 5.67164 19.8624 5.72182L7.94681 13.0381C7.84206 13.1024 7.71372 13.102 7.60936 13.0369L0.236257 8.44048Z" id="Shape" fill="url(#linearGradient-12)"/></g><g id="Group-66" transform="translate(60.4457 27.7371)"><path d="M1.04465 9.6101C0.975253 9.56683 0.981357 9.2762 0.981357 9.19473 0.981357 9.14042 0.981357 8.66766 0.981357 7.77644L12.9612 1.21966C13.066 1.15533 13.1943 1.15579 13.2987 1.22085L20.7349 5.07089C20.7349 5.98197 20.7349 6.47339 20.7349 6.54517 20.7349 6.65284 20.7173 6.86507 20.5626 6.95999L8.75521 14.2078C8.65044 14.272 8.52212 14.2716 8.41776 14.2066L1.04465 9.6101Z" id="Shape" fill="#F36309"/><path d="M1.04465 7.9462C1.0183 7.92978 0.996493 7.906 0.981503 7.87734 0.935178 7.78879 0.963882 7.67634 1.04562 7.62615L12.9612 0.309875C13.066 0.245558 13.1943 0.246012 13.2987 0.311069L20.6717 4.90749C20.6981 4.92393 20.7199 4.94771 20.7349 4.97636 20.7812 5.0649 20.7525 5.17736 20.6708 5.22755L8.75521 12.5438C8.65044 12.6081 8.52212 12.6077 8.41776 12.5426L1.04465 7.9462Z" id="Shape" fill="url(#linearGradient-13)"/></g><g id="Group-66" transform="translate(76.6629 17.6914)"><path d="M0.93792 9.93041C0.868524 9.88713 0.874626 9.59651 0.874626 9.51504 0.874626 9.46073 0.874626 8.98797 0.874626 8.09675L12.8545 1.53997C12.9592 1.47564 13.0876 1.4761 13.1919 1.54116L20.6282 5.3912C20.6282 6.30228 20.6282 6.7937 20.6282 6.86548 20.6282 6.97315 20.6105 7.18537 20.4559 7.2803L8.64847 14.528C8.54372 14.5923 8.41539 14.5919 8.31102 14.5268L0.93792 9.93041Z" id="Shape" fill="#F36309"/><path d="M0.93792 8.26651C0.911569 8.25009 0.889762 8.22631 0.874772 8.19766 0.828447 8.10912 0.857151 7.99664 0.938886 7.94646L12.8545 0.630186C12.9592 0.565866 13.0876 0.566322 13.1919 0.631381L20.565 5.2278C20.5913 5.24424 20.6132 5.26802 20.6282 5.29667 20.6745 5.38521 20.6458 5.49767 20.5641 5.54785L8.64847 12.8641C8.54372 12.9285 8.41539 12.928 8.31102 12.8629L0.93792 8.26651Z" id="Shape" fill="url(#linearGradient-14)"/></g><g id="Group-66" transform="translate(42.7543 56.0229)"><path d="M0.964442 9.70339C0.895046 9.66014 0.901149 9.3695 0.901149 9.28803 0.901149 9.23373 0.901149 8.76096 0.901149 7.86974L12.881 1.31296C12.9858 1.24864 13.1141 1.24909 13.2184 1.31415L20.6547 5.16419C20.6547 6.07527 20.6547 6.56669 20.6547 6.63847 20.6547 6.74614 20.6371 6.95836 20.4824 7.05329L8.67499 14.301C8.57024 14.3653 8.44191 14.3649 8.33754 14.2998L0.964442 9.70339Z" id="Shape" fill="#F36309"/><path d="M0.964442 8.0395C0.938091 8.02308 0.916286 7.9993 0.901294 7.97065 0.854969 7.88211 0.883675 7.76963 0.965408 7.71945L12.881 0.403177C12.9858 0.338857 13.1141 0.339313 13.2184 0.404372L20.5915 5.00081C20.6179 5.01723 20.6397 5.04101 20.6547 5.06966 20.701 5.1582 20.6723 5.27067 20.5906 5.32086L8.67499 12.6371C8.57024 12.7014 8.44191 12.701 8.33754 12.6359L0.964442 8.0395Z" id="Shape" fill="url(#linearGradient-11)"/></g><g id="Group-66" transform="translate(60.1714 45.7029)"><path d="M0.236257 10.1044C0.16686 10.0611 0.172964 9.77046 0.172964 9.68899 0.172964 9.63469 0.172964 9.16192 0.172964 8.2707L12.1528 1.71392C12.2576 1.64961 12.3859 1.65005 12.4903 1.71511L19.9265 5.56515C19.9265 6.47623 19.9265 6.96767 19.9265 7.03943 19.9265 7.14712 19.9088 7.35932 19.7542 7.45427L7.94681 14.702C7.84206 14.7663 7.71372 14.7659 7.60936 14.7008L0.236257 10.1044Z" id="Shape" fill="#F36309"/><path d="M0.236257 8.44048C0.209907 8.42404 0.1881 8.40026 0.17311 8.37161 0.126785 8.28307 0.155489 8.17061 0.237224 8.12042L12.1528 0.804142C12.2576 0.739823 12.3859 0.740277 12.4903 0.805337L19.8634 5.40177C19.8897 5.41819 19.9115 5.44197 19.9265 5.47063 19.9728 5.55918 19.9442 5.67164 19.8624 5.72182L7.94681 13.0381C7.84206 13.1024 7.71372 13.102 7.60936 13.0369L0.236257 8.44048Z" id="Shape" fill="url(#linearGradient-12)"/></g><g id="Group-66" transform="translate(75.1886 36.5829)"><path d="M1.04465 9.6101C0.975253 9.56683 0.981357 9.2762 0.981357 9.19473 0.981357 9.14042 0.981357 8.66766 0.981357 7.77644L12.9612 1.21966C13.066 1.15533 13.1943 1.15579 13.2987 1.22085L20.7349 5.07089C20.7349 5.98197 20.7349 6.47339 20.7349 6.54517 20.7349 6.65284 20.7173 6.86507 20.5626 6.95999L8.75521 14.2078C8.65044 14.272 8.52212 14.2716 8.41776 14.2066L1.04465 9.6101Z" id="Shape" fill="#F36309"/><path d="M1.04465 7.9462C1.0183 7.92978 0.996493 7.906 0.981503 7.87734 0.935178 7.78879 0.963882 7.67634 1.04562 7.62615L12.9612 0.309875C13.066 0.245558 13.1943 0.246012 13.2987 0.311069L20.6717 4.90749C20.6981 4.92393 20.7199 4.94771 20.7349 4.97636 20.7812 5.0649 20.7525 5.17736 20.6708 5.22755L8.75521 12.5438C8.65044 12.6081 8.52212 12.6077 8.41776 12.5426L1.04465 7.9462Z" id="Shape" fill="url(#linearGradient-13)"/></g><g id="Group-66" transform="translate(91.4057 26.5371)"><path d="M0.93792 9.93041C0.868524 9.88713 0.874626 9.59651 0.874626 9.51504 0.874626 9.46073 0.874626 8.98797 0.874626 8.09675L12.8545 1.53997C12.9592 1.47564 13.0876 1.4761 13.1919 1.54116L20.6282 5.3912C20.6282 6.30228 20.6282 6.7937 20.6282 6.86548 20.6282 6.97315 20.6105 7.18537 20.4559 7.2803L8.64847 14.528C8.54372 14.5923 8.41539 14.5919 8.31102 14.5268L0.93792 9.93041Z" id="Shape" fill="#F36309"/><path d="M0.93792 8.26651C0.911569 8.25009 0.889762 8.22631 0.874772 8.19766 0.828447 8.10912 0.857151 7.99664 0.938886 7.94646L12.8545 0.630186C12.9592 0.565866 13.0876 0.566322 13.1919 0.631381L20.565 5.2278C20.5913 5.24424 20.6132 5.26802 20.6282 5.29667 20.6745 5.38521 20.6458 5.49767 20.5641 5.54785L8.64847 12.8641C8.54372 12.9285 8.41539 12.928 8.31102 12.8629L0.93792 8.26651Z" id="Shape" fill="url(#linearGradient-14)"/></g></g></g><path d="M76.5243 7.67809C76.9788 7.41783 77.5373 7.41829 77.9913 7.67927L91.5422 15.467C91.7237 15.5714 91.8741 15.7221 91.978 15.9036 92.3018 16.469 92.1059 17.1896 91.5406 17.5132L29.4346 53.0734C28.5255 53.594 27.4084 53.5931 26.5003 53.071L13.6827 45.7046C13.5012 45.6004 13.3508 45.4497 13.2468 45.2681 12.9232 44.7029 13.119 43.9822 13.6843 43.6586L76.5243 7.67809Z" id="Shape" fill="url(#linearGradient-15)"/><path d="M77.0392 9.19539 91.5461 17.5085 29.4346 53.0734C28.5255 53.594 27.4084 53.5931 26.5003 53.071L13.6824 45.7046C13.6772 45.7015 13.7407 45.7382 13.8733 45.8148L77.0392 9.19539Z" id="Shape" fill="#FFFFFF"/></g><g id="Group-43" transform="matrix(1 0 0 1 0 164.4)"><path d="M134.683 49.7215 134.683 80.9421 80.8485 111.553 80.8485 81.1034Z" id="Shape-Copy-4" fill="url(#linearGradient-16)"/><path d="M217.749 96.7051 217.749 127.926 163.915 158.536 163.915 128.087Z" id="Shape-Copy-6" fill="url(#linearGradient-16)" opacity="0.6"/><path d="M302.078 35.2127 302.078 64.1685 227.375 106.645 227.375 78.7597Z" id="Shape-Copy-8" fill="url(#linearGradient-17)" opacity="0.6"/><path d="M80.8485 111.553 0.877554 66.2974 0.942459 35.9139 80.8485 81.3375Z" id="Shape-Copy-5" fill="url(#linearGradient-18)" opacity="0.3"/><path d="M163.915 154.642 92.3989 114.171 92.457 87 163.915 127.621Z" id="Shape-Copy-7" fill="url(#linearGradient-19)" opacity="0.3"/><path d="M227.375 106.645 139.2 56.7474 139.272 23.2469 227.375 73.3304Z" id="Shape-Copy-9" fill="url(#linearGradient-20)" opacity="0.3"/><path d="M1.0056 32.6069 1.0056 37.2592C1.0056 37.4428 1.0524 37.629 1.1508 37.7995 1.2456 37.9638 1.3824 38.1002 1.5468 38.1952L78.6778 82.8662C79.6837 83.4455 80.9231 83.4455 81.929 82.8662L134.141 52.4602C134.488 52.26 134.683 51.8966 134.683 51.5231L134.683 50.7958 134.615 46.6858 1.0056 32.6069Z" id="Shape" fill="url(#linearGradient-21)"/><path d="M53.6622 1.24346 1.4184 31.6657C0.9 31.9643 0.7224 32.6252 1.0212 33.1422 1.116 33.3065 1.2528 33.4429 1.4184 33.5378L78.6145 78.2833C79.6205 78.8626 80.8598 78.8626 81.8658 78.2833L134.11 47.861C134.628 47.5626 134.806 46.9015 134.507 46.3846 134.412 46.2203 134.275 46.0838 134.11 45.9889L56.9135 1.24346C55.9075 0.664247 54.6682 0.664247 53.6622 1.24346Z" id="Shape" fill="#FCFCFC"/><path d="M21.7116 38.7653 63.8762 14.2711 67.3825 16.0154 24.8335 40.5038Z" id="Shape" fill="#FBA611" opacity="0.3"/><path d="M29.0789 42.9683 71.2435 18.474 74.7498 20.2183 32.2008 44.7067Z" id="Shape" fill="#FBA611" opacity="0.3"/><path d="M36.7823 47.605 78.9469 23.1107 82.4531 24.855 39.9041 49.3434Z" id="Shape" fill="#FBA611" opacity="0.3"/><path d="M43.9114 51.67 86.076 27.1758 89.5823 28.9201 47.0332 53.4085Z" id="Shape" fill="#FBA611" opacity="0.3"/><path d="M51.728 56.323 93.8927 31.8287 97.399 33.573 54.85 58.0614Z" id="Shape" fill="#FBA611" opacity="0.3"/><path d="M59.6095 60.7213 101.774 36.227 105.28 37.9714 62.7313 62.4598Z" id="Shape" fill="#FBA611" opacity="0.3"/><path d="M67.7051 65.3774 109.87 40.8832 113.376 42.6275 70.827 67.1159Z" id="Shape" fill="#FBA611" opacity="0.3"/><path d="M76.2803 70.3931 118.445 45.8988 121.951 47.6431 79.4022 72.1315Z" id="Shape" fill="#FBA611" opacity="0.3"/></g><g id="Group-7" fill="#F36309" transform="translate(50.4 171.6)"><path d="M6.40219 3.27192 5.78022 3.71128 7.3216 4.59989 6.76358 4.99406 2.76316 2.68777 3.89242 1.89007C4.26295 1.62833 4.65244 1.48597 5.06086 1.463 5.46929 1.44004 5.86949 1.54153 6.26147 1.76752 6.5289 1.92169 6.70099 2.0874 6.77776 2.26465 6.85451 2.44189 6.8488 2.62393 6.76061 2.81077L9.14959 3.26279 9.18532 3.28338 8.5876 3.7056 6.40219 3.27192ZM5.22247 3.38972 5.79593 2.98464C5.98414 2.85169 6.0721 2.71376 6.05982 2.57087 6.04754 2.42797 5.93884 2.29739 5.73368 2.17912 5.51938 2.05556 5.30472 1.99453 5.0897 1.99602 4.87469 1.99751 4.66831 2.06575 4.47056 2.20074L3.88166 2.61673 5.22247 3.38972Z" id="Shape"/><path d="M10.0075 5.7022C12.2969 4.39774 12.2969 2.2828 10.0075 0.978342 7.71816-0.326114 4.00637-0.326114 1.71702 0.978342-0.572352 2.2828-0.572352 4.39774 1.71702 5.7022 4.00637 7.00666 7.71816 7.00666 10.0075 5.7022ZM9.21838 5.26645C7.34386 6.33454 4.30466 6.33454 2.43014 5.26645 0.555624 4.19837 0.555624 2.46667 2.43014 1.39859 4.30466 0.330499 7.34386 0.330499 9.21838 1.39859 11.0929 2.46667 11.0929 4.19837 9.21838 5.26645Z" id="Shape"/></g><g id="Group-27" transform="matrix(-1 0 0 1 303.6 0)"><path d="M1.40058 54.3682 95.6652 0.17886C96.2398-0.15144 96.9733 0.046584 97.3036 0.621144 97.4082 0.803112 97.4633 1.00932 97.4633 1.21921L97.4633 73.6469C97.4633 74.0734 97.2368 74.4679 96.8684 74.6831L0.798636 130.79 0.798636 55.4084C0.798636 54.979 1.0282 54.5822 1.40058 54.3682Z" id="Shape" fill="#FEAB33" opacity="0.2"/><path d="M13.4006 61.5682 107.665 7.37886C108.24 7.04856 108.973 7.24658 109.304 7.82114 109.408 8.00311 109.463 8.20932 109.463 8.41921L109.463 80.8469C109.463 81.2734 109.237 81.6679 108.868 81.8831L12.7986 137.99 12.7986 62.6084C12.7986 62.179 13.0282 61.7822 13.4006 61.5682Z" id="Shape" fill="#FEAB33" opacity="0.2"/><path d="M23.0012 69.9683 117.647 15.6358C118.087 15.383 118.638 15.4347 119.024 15.7647L123.404 19.5123 119.063 89.9357 27.2005 149.593 22.9328 146.747C22.5991 146.525 22.3986 146.149 22.3986 145.748L22.3986 71.0089C22.3986 70.5792 22.6285 70.1822 23.0012 69.9683Z" id="Shape" fill="url(#linearGradient-22)"/><path d="M27.8006 73.5682 122.065 19.3789C122.64 19.0486 123.373 19.2466 123.704 19.8211 123.808 20.0031 123.863 20.2093 123.863 20.4192L123.863 92.8469C123.863 93.2734 123.637 93.6679 123.268 93.8831L27.1986 149.99 27.1986 74.6084C27.1986 74.179 27.4282 73.7822 27.8006 73.5682Z" id="Shape" fill="#FFFFFF"/><path d="M27.8006 73.5682 122.065 19.3789C122.64 19.0486 123.373 19.2466 123.704 19.8211 123.808 20.0031 123.863 20.2093 123.863 20.4192L123.863 37.0242 27.1986 92.8166 27.1986 74.6084C27.1986 74.179 27.4282 73.7822 27.8006 73.5682Z" id="Shape" fill="url(#linearGradient-23)"/><path d="M115.683 29.0678C116.947 28.3608 118.293 29.1017 118.69 30.7225 119.086 32.3435 118.382 34.2307 117.117 34.9378 115.853 35.6449 114.507 34.904 114.11 33.2832 113.714 31.6622 114.418 29.775 115.683 29.0678Z" id="Shape" fill="#FCFCFC"/><path d="M107.283 33.8678C108.547 33.1608 109.893 33.9017 110.29 35.5225 110.686 37.1435 109.982 39.0307 108.717 39.7378 107.453 40.4449 106.107 39.704 105.71 38.0832 105.314 36.4622 106.018 34.575 107.283 33.8678Z" id="Shape" fill="#FCFCFC"/><path d="M117.013 91.7252 34.3329 139.392C33.1846 140.054 31.717 139.66 31.055 138.512 30.8448 138.147 30.7342 137.734 30.7342 137.313L30.7342 101.23C30.7342 98.6565 32.1076 96.2788 34.3367 94.993L116.682 47.4945C117.83 46.8322 119.298 47.2261 119.96 48.3742 120.166 48.7323 120.277 49.1376 120.281 49.5509L120.617 85.4202C120.641 88.0181 119.264 90.4276 117.013 91.7252Z" id="Shape" stroke="#F9D18D" fill="#FFFFFF"/><path d="M120.656 53.625 30.7342 105.467 30.7342 101.23C30.7342 98.6565 32.1076 96.2788 34.3367 94.993L116.844 47.4007C117.992 46.7384 119.46 47.1323 120.122 48.2805 120.312 48.6096 120.421 48.979 120.44 49.3585L120.656 53.625Z" id="Shape" stroke="#F9D18D" fill="#FFFFFF"/><g id="Group-2" transform="matrix(-1 0 0 1 114.742 49.2)"><line x1="0.6" y1="-6.39488e-14" x2="0.6" y2="43.6441" id="Shape" stroke="#F9D18D" stroke-linecap="round" fill="#FFFFFF"/><line x1="22.6489" y1="12.7369" x2="22.6489" y2="56.3811" id="Shape" stroke="#F9D18D" stroke-linecap="round" fill="#FFFFFF"/><line x1="51.7033" y1="29.0225" x2="51.7033" y2="73.8667" id="Shape" stroke="#F9D18D" fill="#FFFFFF"/><path d="M61.7201 69.9218 61.7201 68.3604C63.2344 68.9302 64.0961 68.1936 64.0961 66.8757 64.0961 65.5864 63.4042 64.0713 61.6548 62.6358L60.519 61.7106C60.0099 61.2889 59.7488 60.838 59.7488 60.4512 59.7488 59.9928 60.1143 59.7302 60.8454 60.1506 61.8767 60.7435 62.0987 61.616 62.177 62.1051L63.9916 62.6184C63.8089 61.5392 63.1561 60.0322 61.7201 58.8628L61.7201 57.2727 60.2187 56.4095 60.2187 57.9567C58.848 57.4264 57.7513 57.899 57.7513 59.5034 57.7513 60.8643 58.6521 62.3563 60.1143 63.5837L61.2762 64.5526C61.7984 64.9817 62.0856 65.419 62.0856 65.8344 62.0856 66.3931 61.6156 66.4667 60.9629 66.0914 59.8401 65.446 59.3179 64.4008 59.2527 63.5324L57.4511 62.9407C57.5425 64.1679 58.378 66.1381 60.2187 67.5259L60.2187 69.0587 61.7201 69.9218ZM72.7124 76.2416 72.7124 74.6802C74.2268 75.25 75.0884 74.5134 75.0884 73.1955 75.0884 71.9062 74.3965 70.3911 72.6471 68.9555L71.5113 68.0304C71.0022 67.6087 70.7411 67.1578 70.7411 66.771 70.7411 66.3126 71.1066 66.05 71.8377 66.4703 72.869 67.0633 73.091 67.9358 73.1693 68.4249L74.9839 68.9382C74.8012 67.859 74.1484 66.352 72.7124 65.1826L72.7124 63.5925 71.2111 62.7293 71.2111 64.2764C69.8403 63.7462 68.7437 64.2188 68.7437 65.8232 68.7437 67.1841 69.6444 68.6761 71.1066 69.9035L72.2685 70.8723C72.7907 71.3015 73.0779 71.7388 73.0779 72.1542 73.0779 72.7129 72.6079 72.7865 71.9552 72.4112 70.8325 71.7657 70.3103 70.7206 70.245 69.8522L68.4434 69.2605C68.5348 70.4877 69.3703 72.4579 71.2111 73.8457L71.2111 75.3785 72.7124 76.2416Z" id="Shape" fill="url(#linearGradient-24)"/></g></g><g id="Group-36" transform="translate(92.4 217.2)"><path d="M0.1992 31.7978 0.1992 36.45C0.1992 36.6337 0.246 36.82 0.3456 36.9905 0.4404 37.1548 0.5772 37.2912 0.7416 37.3861L69.8506 76.9636C70.8565 77.5428 72.096 77.5428 73.1018 76.9636L125.313 46.5576C125.661 46.3573 125.856 45.9941 125.856 45.6205L125.856 44.8931 125.788 40.7832 0.1992 31.7978Z" id="Shape" fill="url(#linearGradient-25)"/><path d="M52.8565 0.434412 0.612 30.8567C0.0936 31.1551-0.084 31.8162 0.216 32.3332 0.3108 32.4974 0.4476 32.6339 0.612 32.7288L69.7873 72.3808C70.7933 72.9599 72.0328 72.9599 73.0387 72.3808L125.283 41.9584C125.801 41.6599 125.979 40.999 125.68 40.482 125.584 40.3177 125.448 40.1813 125.283 40.0864L56.1078 0.434412C55.1018-0.144804 53.8625-0.144804 52.8565 0.434412Z" id="Shape" fill="#FCFCFC"/><g id="Group-24" fill="#FCFCFC" transform="matrix(0.848048 -0.529919 0.529919 0.848048 91.1086 39.0042)"><path d="M3.84851 7.1943 0.413879 0.760476 1.83069 0.807381 5.26532 7.24121 3.84851 7.1943ZM7.1309 7.30297 3.69627 0.869144 6.20791 0.952296C8.23192 1.0193 10.3712 2.45347 11.3378 4.26413 12.3143 6.09318 11.6666 7.45313 9.64254 7.38612L7.1309 7.30297ZM7.8657 6.0723 8.96052 6.10855C10.1197 6.14693 10.4847 5.39156 9.87626 4.25186L9.86644 4.23348C9.25802 3.09377 8.04914 2.26825 6.88992 2.22987L5.79511 2.19362 7.8657 6.0723ZM16.8289 7.71432C15.8537 7.68204 14.6877 7.30937 13.5469 6.59444L13.8493 5.62033C14.684 6.11745 15.4531 6.44087 16.1892 6.46524 16.7688 6.48443 16.9957 6.26622 16.7946 5.88938 16.5933 5.51255 16.2744 5.32141 15.0509 5.01003 13.5769 4.63621 12.5484 4.25004 11.8664 2.97246 11.2334 1.7868 11.7597 1.04581 13.0753 1.08936 14.0137 1.12043 14.9711 1.44105 15.9041 1.98657L15.7371 3.02838C14.9558 2.61427 14.267 2.35673 13.7241 2.33875 13.1814 2.32079 13.0286 2.5595 13.1954 2.87201 13.431 3.31319 13.7805 3.46019 15.0459 3.78197 16.5338 4.16529 17.5201 4.65841 18.1188 5.77973 18.8106 7.07569 18.218 7.76031 16.8289 7.71432Z" id="Shape"/></g><path d="M65.5502 14.395 25.6402 37.5487 27.6358 38.7065 67.5457 15.5526 65.5502 14.395ZM72.5345 18.4469 32.6244 41.6006 34.62 42.7584 74.53 19.6045 72.5345 18.4469ZM79.5187 22.4988 39.6088 45.6526 41.6042 46.8103 81.5142 23.6564 79.5187 22.4988ZM86.503 26.5507 46.593 49.7045 48.5885 50.8622 88.4986 27.7084 86.503 26.5507Z" id="Shape" fill="#FBA611"/><path d="M51.2881 9.59664 16.0368 30.0773 22.0799 33.5882 57.3312 13.1076Z" id="Shape" fill="#F36309"/><path d="M82.591 73.9802 91.7052 68.4C92.2752 68.051 92.6226 67.4309 92.6226 66.7626L92.6226 60.2759C92.5679 60.2623 92.5399 60.2342 92.5067 60.2146L77.7155 51.4373C77.5003 51.3091 77.2354 51.3091 77.0202 51.4373L65.8492 58.1714C65.7383 58.2376 65.7004 58.3838 65.7643 58.4983 65.7847 58.5347 65.814 58.5649 65.8492 58.5859L80.9756 67.5083C81.0247 67.5376 81.0764 67.5602 81.1296 67.5761L81.1296 73.1615C81.1296 73.6916 81.5594 74.1215 82.0896 74.1215 82.2666 74.1215 82.44 74.0726 82.591 73.9802Z" id="Shape" fill="#B34501"/><path d="M83.1992 74.0024 92.6326 68.4785C93.2208 68.134 93.5824 67.5034 93.5824 66.8216L93.5824 60.3214C93.5275 60.3077 93.4996 60.2796 93.4664 60.2597L78.6751 51.4379C78.46 51.309 78.195 51.309 77.9798 51.4379L66.8088 58.2062C66.698 58.2726 66.66 58.4197 66.724 58.5347 66.7444 58.5713 66.7736 58.6016 66.8088 58.6228L81.6001 67.4446C81.6493 67.4741 81.701 67.4968 81.7542 67.5127L81.7542 73.174C81.7542 73.7042 82.1839 74.134 82.7142 74.134 82.8847 74.134 83.0521 74.0886 83.1992 74.0024Z" id="Shape" fill="url(#linearGradient-26)"/><path d="M91.9145 68.6152 92.6226 68.2213 92.6226 60.4834C92.5658 60.4694 92.5369 60.4408 92.5026 60.4205L77.1929 51.4396C76.9702 51.3084 76.696 51.3084 76.4732 51.4396L76.4168 51.5281C76.3021 51.5958 76.2628 51.7454 76.329 51.8626 76.3501 51.8998 76.3804 51.9307 76.4168 51.9522L91.7266 60.9331C91.7774 60.9631 91.831 60.9863 91.886 61.0025L91.9145 68.6152Z" id="Shape" fill="#FCFCFC"/><path d="M84.2311 73.4135 84.9392 73.0196 84.9392 65.2817C84.8825 65.2678 84.8537 65.2391 84.8192 65.2188L69.5095 56.2379C69.2869 56.1067 69.0126 56.1067 68.79 56.2379L68.7335 56.3264C68.6188 56.3941 68.5795 56.5438 68.6458 56.6609 68.6668 56.6981 68.697 56.729 68.7335 56.7505L84.0432 65.7314C84.0941 65.7614 84.1476 65.7846 84.2027 65.8008L84.2311 73.4135Z" id="Shape" fill="#FCFCFC"/><path d="M80.6169 56.6607 80.8608 56.6242C81.7962 56.5046 82.4371 56.0257 82.4496 55.491L82.4496 54.7736 82.4496 54.7736 82.3946 55.022C82.3749 55.0986 82.3615 55.1304 82.3543 55.1173 81.9707 54.4143 82.2783 53.6497 83.1406 53.1199L83.3204 53.0172C83.717 52.8065 83.9365 52.525 83.974 52.2362L83.9795 52.1276C83.9771 52.0432 83.9771 51.8236 83.9795 51.4688 83.7979 51.4712 83.649 51.4472 83.5328 51.3967L83.3204 51.2773C82.3848 50.7803 81.9947 50.0285 82.2868 49.3185L82.3543 49.1772C82.409 49.0771 82.4394 48.976 82.4476 48.8758L82.4496 48.0965 82.4496 48.0965C82.0057 47.923 81.5359 47.7902 81.0401 47.6984L80.8608 47.6705C79.6236 47.5125 78.6405 46.975 78.2841 46.2751L78.2213 46.133C77.9821 45.4979 76.9042 45.0959 75.8136 45.2352L75.7234 45.248 75.7234 45.248 75.6343 45.2632C74.4388 45.4845 73.1395 45.3108 72.231 44.8194L72.0286 44.7004C71.2763 44.22 69.9977 44.1857 69.1728 44.6239L69.0415 44.7004C68.1961 45.2402 66.9218 45.4682 65.7133 45.3073L65.4358 45.2632C64.3717 45.0661 63.2351 45.4088 62.8969 46.0286L62.8708 46.0805 62.8708 46.0805 62.8489 46.133C62.5776 46.8536 61.6548 47.4263 60.4532 47.6339L60.2093 47.6705C59.674 47.7389 59.1445 47.8938 58.6211 48.1352L58.6211 48.7883 58.6211 48.7883C58.6168 48.8819 58.6318 48.9772 58.6676 49.0728L58.7158 49.1772C59.125 49.9271 58.7477 50.7472 57.7496 51.2773 57.5048 51.4074 57.2851 51.478 57.0903 51.4889L57.0903 52.1497 57.0903 52.1497C57.0912 52.4323 57.2657 52.7155 57.6184 52.9408L57.7496 53.0172C58.5061 53.4191 58.906 53.9875 58.877 54.5657 58.8708 54.6887 58.7855 54.7775 58.6211 54.8318L58.6259 55.5619 58.6259 55.5619C58.6859 56.0269 59.2202 56.4462 60.03 56.5961L60.1191 56.6113 60.1191 56.6113 60.2093 56.6242C61.4464 56.7821 62.4295 57.3195 62.7861 58.0194L62.8489 58.1615C63.088 58.7968 64.1659 59.1988 65.2565 59.0594L65.4358 59.0315C66.6313 58.8102 67.9306 58.9838 68.839 59.4752L69.0415 59.5942C69.7938 60.0746 71.0724 60.1088 71.8973 59.6706L71.9645 59.6333 71.9645 59.6333 72.0286 59.5942C72.874 59.0544 74.1483 58.8264 75.3568 58.9874L75.6343 59.0315C76.6984 59.2284 77.835 58.8857 78.1732 58.266L78.1992 58.2141 78.1992 58.2141 78.2213 58.1615C78.4925 57.4409 79.4152 56.8683 80.6169 56.6607L80.6169 56.6607Z" id="Shape" fill="#B34501"/><path d="M80.6168 56.0081 80.8607 55.9715C81.9512 55.8323 82.6415 55.2044 82.4023 54.5693L82.3803 54.5167 82.3803 54.5167 82.3543 54.4648C81.9707 53.7617 82.2782 52.9971 83.1406 52.4674L83.3204 52.3646C84.1453 51.9264 84.204 51.1817 83.4517 50.7013L83.3204 50.6248C82.3847 50.1277 81.9947 49.3759 82.2868 48.666L82.3543 48.5246C82.6925 47.905 82.104 47.2429 81.0401 47.0459L80.8607 47.0179C79.5412 46.8493 78.5105 46.2491 78.2212 45.4805 77.982 44.8453 76.9042 44.4433 75.8136 44.5826L75.7234 44.5954 75.7234 44.5954 75.6342 44.6106C74.4388 44.8319 73.1394 44.6583 72.231 44.1668L72.0286 44.0478C71.2762 43.5674 69.9976 43.5331 69.1727 43.9714L69.1056 44.0087 69.1056 44.0087 69.0414 44.0478C68.1961 44.5877 66.9217 44.8157 65.7132 44.6547L65.4356 44.6106C64.3717 44.4136 63.235 44.7563 62.8968 45.3761L62.8707 45.428 62.8707 45.428 62.8488 45.4805C62.5776 46.201 61.6547 46.7736 60.4531 46.9813L60.2092 47.0179C59.1187 47.1572 58.4285 47.7851 58.6676 48.4202L58.6896 48.4728 58.6896 48.4728 58.7156 48.5246C59.0993 49.2277 58.7918 49.9924 57.9294 50.522L57.7495 50.6248C56.9246 51.063 56.8658 51.8077 57.6182 52.2882L57.6824 52.3273 57.6824 52.3273 57.7495 52.3646C58.6853 52.8618 59.0753 53.6135 58.7832 54.3234L58.7156 54.4648C58.3775 55.0846 58.9658 55.7466 60.0299 55.9435L60.119 55.9587 60.119 55.9587 60.2092 55.9715C61.4463 56.1295 62.4295 56.667 62.786 57.3668L62.8488 57.5089C63.088 58.1441 64.1658 58.5461 65.2564 58.4069L65.4356 58.3789C66.7231 58.1405 68.1311 58.3602 69.0414 58.9416 69.7938 59.4221 71.0724 59.4563 71.8973 59.018L72.0286 58.9416C72.8739 58.4017 74.1482 58.1737 75.3567 58.3348L75.6342 58.3789C76.6982 58.5758 77.8349 58.2331 78.173 57.6134L78.2212 57.5089C78.4924 56.7884 79.4152 56.2158 80.6168 56.0081L80.6168 56.0081Z" id="Shape" fill="url(#linearGradient-27)"/><path d="M77.3548 55.1862C80.9404 53.1475 80.9404 49.842 77.3548 47.8032 73.769 45.7645 67.9555 45.7645 64.3698 47.8032 60.7841 49.842 60.7841 53.1475 64.3698 55.1862 67.9555 57.225 73.769 57.225 77.3548 55.1862ZM76.5432 54.7248C73.4057 56.5087 68.3189 56.5087 65.1814 54.7248 62.0438 52.9409 62.0438 50.0485 65.1814 48.2647 68.3189 46.4808 73.4057 46.4808 76.5432 48.2647 79.6806 50.0485 79.6806 52.9409 76.5432 54.7248Z" id="Shape" fill="#FCFCFC"/></g></g></g></svg>