<svg xmlns="http://www.w3.org/2000/svg" xmlns:xlink="http://www.w3.org/1999/xlink" width="301.93" height="322.92" viewBox="0 0 301.93 322.92"><defs><linearGradient id="a" x1="-98.42" y1="313.05" x2="-98.05" y2="311.82" gradientTransform="translate(-9772.68 43182.58) rotate(180) scale(102.01 138)" gradientUnits="userSpaceOnUse"><stop offset="0" stop-color="#fab643"/><stop offset="0.56" stop-color="#f48222"/><stop offset="1" stop-color="#f16322" stop-opacity="0"/></linearGradient><linearGradient id="b" x1="-97.72" y1="313.83" x2="-96.81" y2="312.08" gradientTransform="matrix(70.64, 0, 0, -67.55, 6988.76, 21265.7)" xlink:href="#a"/><linearGradient id="c" x1="-95.66" y1="313.91" x2="-96.35" y2="312.74" gradientTransform="matrix(36.66, 0, 0, -34.68, 3619.56, 11027.37)" xlink:href="#a"/><linearGradient id="d" x1="-97.69" y1="312.07" x2="-99.57" y2="312.22" gradientTransform="translate(-3251.08 21992.16) rotate(180) scale(33.75 69.98)" gradientUnits="userSpaceOnUse"><stop offset="0" stop-color="#fb982a"/><stop offset="1" stop-color="#c94d00"/></linearGradient><linearGradient id="e" x1="-99.33" y1="313.7" x2="-99.13" y2="313" gradientTransform="translate(-3199.56 10810.98) rotate(180) scale(33.22 34.03)" gradientUnits="userSpaceOnUse"><stop offset="0" stop-color="#fab643"/><stop offset="0.56" stop-color="#f48222"/><stop offset="1" stop-color="#f16322"/></linearGradient><linearGradient id="f" x1="-98.84" y1="313.37" x2="-98.32" y2="312.4" gradientTransform="translate(-5216.03 13029.27) rotate(180) scale(54.3 41.34)" gradientUnits="userSpaceOnUse"><stop offset="0" stop-color="#ffad38"/><stop offset="1" stop-color="#f36309"/></linearGradient><linearGradient id="g" x1="-97.9" y1="312.24" x2="-98.42" y2="311.58" gradientTransform="translate(-8240.18 35392.9) rotate(180) scale(85.36 113.07)" gradientUnits="userSpaceOnUse"><stop offset="0" stop-color="#f8d79b"/><stop offset="1" stop-color="#ffad38"/></linearGradient><linearGradient id="h" x1="-98.81" y1="313.44" x2="-98.22" y2="312.11" gradientTransform="translate(-5214.35 13028.47) rotate(180) scale(54.3 41.34)" gradientUnits="userSpaceOnUse"><stop offset="0" stop-color="#fab643"/><stop offset="0.6" stop-color="#f48222"/><stop offset="1" stop-color="#f16322"/></linearGradient><linearGradient id="i" x1="-97.4" y1="313.15" x2="-97.19" y2="312.44" gradientTransform="matrix(163.12, 0, 0, -57.5, 16087.37, 18173.97)" xlink:href="#e"/><linearGradient id="j" x1="-97.25" y1="312.58" x2="-97.31" y2="311.14" gradientTransform="matrix(163.24, 0, 0, -94.5, 16099.13, 29675.44)" gradientUnits="userSpaceOnUse"><stop offset="0" stop-color="#ffe9b4"/><stop offset="1" stop-color="#ffcb8c"/></linearGradient><linearGradient id="k" x1="-95.44" y1="316.28" x2="-94.84" y2="314.96" gradientTransform="matrix(19.8, 0, 0, -12.33, 2065.43, 4087.83)" xlink:href="#h"/><linearGradient id="l" x1="-95.44" y1="316.28" x2="-94.84" y2="314.96" gradientTransform="matrix(19.8, 0, 0, -12.33, 2082.12, 4077.92)" xlink:href="#h"/><linearGradient id="m" x1="-95.44" y1="316.28" x2="-94.84" y2="314.96" gradientTransform="matrix(19.8, 0, 0, -12.33, 2097.95, 4068.29)" xlink:href="#h"/><linearGradient id="n" x1="-95.44" y1="316.28" x2="-94.84" y2="314.96" gradientTransform="matrix(19.8, 0, 0, -12.33, 2114.06, 4058.58)" xlink:href="#h"/><linearGradient id="o" x1="-95.44" y1="316.28" x2="-94.84" y2="314.96" gradientTransform="matrix(19.8, 0, 0, -12.33, 2078.7, 4096.67)" xlink:href="#h"/><linearGradient id="p" x1="-95.44" y1="316.28" x2="-94.84" y2="314.96" gradientTransform="matrix(19.8, 0, 0, -12.33, 2095.39, 4086.76)" xlink:href="#h"/><linearGradient id="q" x1="-95.44" y1="316.28" x2="-94.84" y2="314.96" gradientTransform="matrix(19.8, 0, 0, -12.33, 2111.21, 4077.14)" xlink:href="#h"/><linearGradient id="r" x1="-95.44" y1="316.28" x2="-94.84" y2="314.96" gradientTransform="matrix(19.8, 0, 0, -12.33, 2127.33, 4067.42)" xlink:href="#h"/><linearGradient id="s" x1="-95.44" y1="316.28" x2="-94.84" y2="314.96" gradientTransform="matrix(19.8, 0, 0, -12.33, 2093.44, 4105.52)" xlink:href="#h"/><linearGradient id="t" x1="-95.44" y1="316.28" x2="-94.84" y2="314.96" gradientTransform="matrix(19.8, 0, 0, -12.33, 2110.13, 4095.61)" xlink:href="#h"/><linearGradient id="u" x1="-95.44" y1="316.28" x2="-94.84" y2="314.96" gradientTransform="matrix(19.8, 0, 0, -12.33, 2125.96, 4085.98)" xlink:href="#h"/><linearGradient id="v" x1="-95.44" y1="316.28" x2="-94.84" y2="314.96" gradientTransform="matrix(19.8, 0, 0, -12.33, 2142.07, 4076.27)" xlink:href="#h"/><linearGradient id="w" x1="-95.44" y1="316.28" x2="-94.84" y2="314.96" gradientTransform="matrix(19.8, 0, 0, -12.33, 2108.19, 4114.36)" xlink:href="#h"/><linearGradient id="x" x1="-95.44" y1="316.28" x2="-94.84" y2="314.96" gradientTransform="matrix(19.8, 0, 0, -12.33, 2124.88, 4104.46)" xlink:href="#h"/><linearGradient id="y" x1="-95.44" y1="316.28" x2="-94.84" y2="314.96" gradientTransform="matrix(19.8, 0, 0, -12.33, 2140.7, 4094.83)" xlink:href="#h"/><linearGradient id="z" x1="-95.44" y1="316.28" x2="-94.84" y2="314.96" gradientTransform="matrix(19.8, 0, 0, -12.33, 2156.81, 4085.11)" xlink:href="#h"/><linearGradient id="aa" x1="-97.18" y1="313.33" x2="-96.98" y2="312.63" gradientTransform="matrix(79.04, 0, 0, -45.98, 7854.33, 14544.06)" xlink:href="#e"/><linearGradient id="ab" x1="-97.28" y1="314" x2="-96.59" y2="312.08" gradientTransform="matrix(53.83, 0, 0, -61.83, 5310.85, 19554.36)" xlink:href="#a"/><linearGradient id="ac" x1="-97.28" y1="314" x2="-96.59" y2="312.08" gradientTransform="matrix(53.83, 0, 0, -61.83, 5393.87, 19601.15)" xlink:href="#a"/><linearGradient id="ad" x1="-97.76" y1="313.79" x2="-96.84" y2="312.04" gradientTransform="matrix(74.7, 0, 0, -71.43, 7504.08, 22535.11)" xlink:href="#a"/><linearGradient id="ae" x1="-96.39" y1="313.13" x2="-97.07" y2="311.96" gradientTransform="matrix(79.97, 0, 0, -75.64, 7794.24, 23848.26)" xlink:href="#a"/><linearGradient id="af" x1="-96.31" y1="313.21" x2="-97" y2="312.03" gradientTransform="matrix(71.52, 0, 0, -67.64, 7056.55, 21404.4)" xlink:href="#a"/><linearGradient id="ag" x1="-96.44" y1="313.07" x2="-97.13" y2="311.89" gradientTransform="matrix(88.18, 0, 0, -83.4, 8737.19, 26256.25)" xlink:href="#a"/><linearGradient id="ah" x1="-97.43" y1="313.27" x2="-96.83" y2="311.94" gradientTransform="matrix(133.68, 0, 0, -50.69, 13061.69, 16062.48)" xlink:href="#h"/><linearGradient id="ai" x1="-98.29" y1="312.62" x2="-98.08" y2="311.92" gradientTransform="translate(-9674.9 41907.27) rotate(180) scale(101.01 134.12)" xlink:href="#e"/><linearGradient id="aj" x1="-97.98" y1="312.81" x2="-98.18" y2="311.58" gradientTransform="translate(-9253.95 23030.24) rotate(180) scale(96.66 73.6)" xlink:href="#h"/><linearGradient id="ak" x1="-94.71" y1="315.06" x2="-94.87" y2="312.94" gradientTransform="matrix(17.64, 0, 0, -19.83, 1926.23, 6342.83)" xlink:href="#h"/><linearGradient id="al" x1="-97.39" y1="313.38" x2="-96.8" y2="312.05" gradientTransform="matrix(125.66, 0, 0, -45.6, 12366.66, 14525.37)" xlink:href="#h"/><linearGradient id="am" x1="-96.03" y1="314.45" x2="-95.44" y2="313.12" gradientTransform="matrix(26.89, 0, 0, -22.79, 2746.43, 7429.44)" xlink:href="#h"/><linearGradient id="an" x1="-96.09" y1="315.42" x2="-95.49" y2="314.09" gradientTransform="matrix(26.89, 0, 0, -15.66, 2736.83, 5197.02)" xlink:href="#h"/></defs><path d="M280.23,136.55,180.76,79.37a1.27,1.27,0,0,0-1.9,1.1V156.9a1.26,1.26,0,0,0,.63,1.09L280.87,217.2V137.65A1.27,1.27,0,0,0,280.23,136.55Z" opacity="0.3" fill="url(#a)" style="isolation:isolate"/><path d="M180.15,141.54v27.38l-70.64,40.17V181.37Z" opacity="0.6" fill="url(#b)" style="isolation:isolate"/><path d="M109.51,193.55,72.84,172.8l0-13.93,36.64,20.83Z" opacity="0.3" fill="url(#c)" style="isolation:isolate"/><path d="M92.32,106.76l-2.41-1.41L72.79,160l36.66,21.42Z" fill="#c94d00"/><path d="M92.23,109.67,90,108.37,74.24,158.64,108,178.36Z" fill="url(#d)"/><path d="M74.77,158.94,108,178.36l-7.81-34Z" fill="url(#e)"/><path d="M92.32,106.75l68.24-39,17.23,74.5-68.34,39.09Z" fill="#f36309"/><path d="M104.38,112.27l51.47-29.41,2.83,11.88L107.11,124.2Z" fill="url(#f)"/><path d="M152.65,95.69c-1.5.84-3.1,0-3.57-2a4.68,4.68,0,0,1,1.87-5c1.5-.84,3.09,0,3.56,2A4.68,4.68,0,0,1,152.65,95.69Z" fill="#fcfcfc"/><path d="M160.41,110.76l-5.95,3.4,1.45,6.28,6-3.39Zm-12.22-5.12-6,3.39,1.46,6.29,5.95-3.4Zm2.47,10.68-5.95,3.4,1.45,6.28,6-3.4Zm-12.22-5.12-6,3.39,1.45,6.29,6-3.4Zm2.47,10.68-6,3.4,1.46,6.28,6-3.4Zm-12.77-4.82-5.95,3.4,1.45,6.28,6-3.39Zm-9.75,5.56-6,3.4,1.45,6.28,6-3.39Zm12.23,5.13-6,3.39,1.46,6.29,6-3.4Zm2.48,10.68-6,3.4,1.45,6.28,6-3.4Zm2.47,10.68-6,3.4,1.46,6.28,6-3.39ZM123.35,144l-6,3.39,1.45,6.29,6-3.4Zm-2.48-10.69-6,3.4,1.46,6.29,6-3.4Zm42-11.85-6,3.39,1.46,6.29,6-3.4Zm2.48,10.68-6,3.4,1.46,6.28,5.95-3.4ZM153.14,127l-6,3.4,1.46,6.28,6-3.39Zm2.48,10.69-6,3.39,1.45,6.29,6-3.4Zm-12.23-5.13-6,3.4,1.46,6.28,6-3.39Zm2.48,10.69-6,3.39,1.45,6.29,6-3.4Z" fill="#e2e7ec"/><path d="M93.9,105.83,162,66.94h1.06l16.39,74.5-68.41,39Z" fill="#f36309"/><path d="M94.86,105.92l68.23-39,17.12,74.61L111.84,180Z" fill="url(#g)"/><path d="M106.06,111.42,157.53,82l2.84,11.88L108.8,123.36Z" fill="url(#h)"/><path d="M154.34,94.84c-1.5.84-3.1,0-3.57-2a4.69,4.69,0,0,1,1.86-5c1.5-.83,3.1,0,3.57,2A4.67,4.67,0,0,1,154.34,94.84Z" fill="#fcfcfc"/><path d="M162.1,109.92l-6,3.4,1.46,6.28,6-3.4Zm-12.22-5.13-6,3.4,1.45,6.28,6-3.39Zm2.47,10.69-6,3.39,1.46,6.29,6-3.4Zm-12.23-5.13-6,3.4,1.45,6.28,6-3.39ZM142.6,121l-6,3.39,1.46,6.29,6-3.4Zm-12.77-4.82-6,3.4,1.46,6.28,6-3.4Zm-9.75,5.56-6,3.39,1.46,6.29,6-3.4Zm12.23,5.12-6,3.4,1.46,6.28,5.95-3.39Zm2.47,10.69L128.83,141l1.45,6.29,6-3.4Zm2.48,10.68-6,3.4,1.46,6.28,6-3.4ZM125,143.14l-6,3.4,1.45,6.28,6-3.39Zm-2.47-10.68-6,3.4,1.46,6.28,6-3.4Zm42-11.86-6,3.4,1.46,6.28,6-3.39Zm2.47,10.68-6,3.4,1.45,6.29,6-3.4Zm-12.22-5.12-6,3.4,1.46,6.28,5.95-3.4Zm2.47,10.68-6,3.4,1.45,6.28,6-3.39Zm-12.22-5.12-6,3.4,1.45,6.28,6-3.4Zm2.47,10.68-6,3.4,1.46,6.28,6-3.39Z" fill="#fff"/><path d="M92.32,106.76l68.23-39-2.39-1.4-68.24,39Z" fill="#c94d00"/><path d="M108.14,95a5.13,5.13,0,0,1-.44-1.85c0-1.22.42-1.5,1.26-1a5.72,5.72,0,0,1,2.41,4.45c0,.86-.25,1.22-.54,1.24a1.14,1.14,0,0,0-1,1.24,1.15,1.15,0,0,0,1.24,1c1.65-.14,2.65-1.59,2.65-3.53a8,8,0,0,0-3.56-6.44c-2.46-1.41-4.71.11-4.71,3a7.29,7.29,0,0,0,.74,3Z" fill="#f36309"/><path d="M102.23,98.38a5.23,5.23,0,0,1-.44-1.85c0-1.22.43-1.51,1.27-1a5.74,5.74,0,0,1,2.4,4.45c0,.86-.24,1.22-.54,1.24a1.16,1.16,0,0,0-1,1.24,1.14,1.14,0,0,0,1.24,1c1.65-.13,2.65-1.59,2.65-3.53a8,8,0,0,0-3.56-6.44c-2.45-1.41-4.7.11-4.7,3a7.35,7.35,0,0,0,.73,3Z" fill="#f36309"/><path d="M96.32,101.75a5.33,5.33,0,0,1-.43-1.85c0-1.22.42-1.5,1.26-1a5.75,5.75,0,0,1,2.41,4.45c0,.86-.25,1.21-.55,1.24a1.15,1.15,0,0,0,.19,2.29c1.65-.14,2.66-1.59,2.66-3.53a8,8,0,0,0-3.57-6.44c-2.45-1.41-4.7.11-4.7,3a7.29,7.29,0,0,0,.74,3Z" fill="#f36309"/><path d="M149.48,71.38a5.23,5.23,0,0,1-.44-1.85c0-1.22.43-1.51,1.27-1a5.74,5.74,0,0,1,2.4,4.45c0,.86-.24,1.22-.54,1.24a1.16,1.16,0,0,0-1,1.24,1.14,1.14,0,0,0,1.24,1C154,76.35,155,74.89,155,73a8,8,0,0,0-3.56-6.44c-2.45-1.41-4.7.11-4.7,3a7.35,7.35,0,0,0,.73,3Z" fill="#f36309"/><path d="M143.57,74.75a5.33,5.33,0,0,1-.43-1.85c0-1.22.42-1.5,1.26-1a5.75,5.75,0,0,1,2.41,4.45c0,.86-.25,1.22-.55,1.24a1.15,1.15,0,1,0,.19,2.29c1.65-.14,2.65-1.59,2.65-3.53a8,8,0,0,0-3.56-6.44c-2.45-1.41-4.7.11-4.7,3a7.29,7.29,0,0,0,.74,3Z" fill="#f36309"/><path d="M137.67,78.13a5.23,5.23,0,0,1-.44-1.85c0-1.22.42-1.51,1.26-1a5.72,5.72,0,0,1,2.41,4.45c0,.86-.24,1.22-.54,1.24a1.16,1.16,0,0,0-1.05,1.24,1.14,1.14,0,0,0,1.24,1c1.65-.13,2.65-1.59,2.65-3.53a8,8,0,0,0-3.56-6.44c-2.46-1.41-4.71.11-4.71,3a7.2,7.2,0,0,0,.74,3Z" fill="#f36309"/><path d="M138.57,186v7.19a1.35,1.35,0,0,0,.18.67,1.33,1.33,0,0,0,.49.48l84.9,48.63a4,4,0,0,0,4,0L301,200.52a1.34,1.34,0,0,0,.67-1.16v-.89L301.6,192Z" fill="url(#i)"/><path d="M212,142.38,139.08,184.8a1.33,1.33,0,0,0-.49,1.81,1.44,1.44,0,0,0,.49.49l85,48.71a4,4,0,0,0,4,0L301,193.39a1.34,1.34,0,0,0,0-2.3l-85-48.71A4,4,0,0,0,212,142.38Z" fill="url(#j)"/><path d="M172.84,200.52c-.07,0-.07-.33-.07-.42v-1.41l12-6.56a.34.34,0,0,1,.34,0l7.44,3.85v1.48a.47.47,0,0,1-.18.41l-11.8,7.25a.34.34,0,0,1-.34,0Z" fill="#f36309"/><path d="M172.84,198.86a.23.23,0,0,1-.07-.07.2.2,0,0,1,.07-.25l11.91-7.32a.34.34,0,0,1,.34,0l7.37,4.6a.16.16,0,0,1,.07.07.2.2,0,0,1-.07.25l-11.91,7.31a.3.3,0,0,1-.34,0Z" fill="url(#k)"/><path d="M189.53,190.6c-.07,0-.07-.33-.07-.41v-1.42l12-6.56a.34.34,0,0,1,.34,0l7.44,3.85v1.48a.47.47,0,0,1-.18.41l-11.8,7.25a.34.34,0,0,1-.34,0Z" fill="#f36309"/><path d="M189.53,188.94a.23.23,0,0,1-.07-.07.2.2,0,0,1,.07-.25l11.91-7.32a.34.34,0,0,1,.34,0l7.37,4.6a.16.16,0,0,1,.07.07.2.2,0,0,1-.07.25l-11.91,7.31a.3.3,0,0,1-.34,0Z" fill="url(#l)"/><path d="M205.35,181c-.07-.05-.06-.34-.06-.42v-1.42l12-6.55a.3.3,0,0,1,.34,0l7.43,3.85v1.47a.5.5,0,0,1-.17.42l-11.81,7.24a.3.3,0,0,1-.34,0Z" fill="#f36309"/><path d="M205.35,179.32a.14.14,0,0,1-.06-.07.19.19,0,0,1,.06-.25l11.92-7.31a.3.3,0,0,1,.34,0l7.37,4.59s.05,0,.06.07a.19.19,0,0,1-.06.25l-11.92,7.32a.34.34,0,0,1-.34,0Z" fill="url(#m)"/><path d="M221.46,171.26c-.07,0-.06-.33-.06-.41v-1.42l12-6.56a.34.34,0,0,1,.34,0l7.43,3.85v1.48a.49.49,0,0,1-.17.41l-11.81,7.25a.34.34,0,0,1-.34,0Z" fill="#f36309"/><path d="M221.46,169.6s-.05,0-.06-.07a.19.19,0,0,1,.06-.25L233.38,162a.34.34,0,0,1,.34,0l7.37,4.6a.13.13,0,0,1,.06.07.19.19,0,0,1-.06.25l-11.92,7.32a.32.32,0,0,1-.34,0Z" fill="url(#n)"/><path d="M186.11,209.37c-.07-.05-.07-.34-.07-.42v-1.42L198,201a.3.3,0,0,1,.34,0l7.44,3.85v1.47a.49.49,0,0,1-.18.42L193.82,214a.3.3,0,0,1-.34,0Z" fill="#f36309"/><path d="M186.11,207.7a.16.16,0,0,1-.07-.07.19.19,0,0,1,.07-.25L198,200.07a.3.3,0,0,1,.34,0l7.37,4.59.07.07a.2.2,0,0,1-.07.25l-11.91,7.32a.34.34,0,0,1-.34,0Z" fill="url(#o)"/><path d="M202.79,199.45c-.06,0-.06-.34-.06-.42v-1.42l12-6.55a.3.3,0,0,1,.34,0l7.43,3.85v1.47a.48.48,0,0,1-.17.42L210.5,204a.29.29,0,0,1-.33,0Z" fill="#f36309"/><path d="M202.79,197.78a.22.22,0,0,1-.06-.07.18.18,0,0,1,.07-.25l11.91-7.31a.3.3,0,0,1,.34,0l7.37,4.59a.13.13,0,0,1,.06.07.19.19,0,0,1-.06.25l-11.92,7.32a.32.32,0,0,1-.33,0Z" fill="url(#p)"/><path d="M218.62,189.83c-.07,0-.06-.33-.06-.41V188l12-6.56a.32.32,0,0,1,.33,0l7.44,3.85v1.48a.47.47,0,0,1-.17.41l-11.81,7.25a.34.34,0,0,1-.34,0Z" fill="#f36309"/><path d="M218.62,188.17a.13.13,0,0,1-.06-.07.19.19,0,0,1,.06-.25l11.92-7.32a.32.32,0,0,1,.33,0l7.38,4.6s.05,0,.06.07a.19.19,0,0,1-.06.25l-11.92,7.32a.32.32,0,0,1-.34,0Z" fill="url(#q)"/><path d="M234.73,180.11c-.07-.05-.06-.34-.06-.42v-1.42l12-6.55a.29.29,0,0,1,.33,0l7.44,3.85V177a.5.5,0,0,1-.17.42l-11.81,7.24a.3.3,0,0,1-.34,0Z" fill="#f36309"/><path d="M234.73,178.44a.11.11,0,0,1-.06-.07.19.19,0,0,1,.06-.25l11.92-7.31a.29.29,0,0,1,.33,0l7.38,4.59s0,0,.06.07a.19.19,0,0,1-.06.25L242.44,183a.32.32,0,0,1-.34,0Z" fill="url(#r)"/><path d="M200.85,218.21c-.07,0-.07-.33-.07-.41v-1.42l12-6.56a.34.34,0,0,1,.34,0l7.44,3.85v1.48a.49.49,0,0,1-.17.41l-11.81,7.25a.34.34,0,0,1-.34,0Z" fill="#f36309"/><path d="M200.85,216.55a.13.13,0,0,1-.06-.07.19.19,0,0,1,.06-.25l11.91-7.32a.34.34,0,0,1,.34,0l7.38,4.6.06.07a.19.19,0,0,1-.07.25l-11.91,7.32a.32.32,0,0,1-.34,0Z" fill="url(#s)"/><path d="M217.54,208.29c-.07,0-.07-.33-.07-.41v-1.42l12-6.56a.34.34,0,0,1,.34,0l7.44,3.85v1.48a.47.47,0,0,1-.17.41l-11.81,7.25a.34.34,0,0,1-.34,0Z" fill="#f36309"/><path d="M217.54,206.63a.23.23,0,0,1-.07-.07.2.2,0,0,1,.07-.25L229.45,199a.34.34,0,0,1,.34,0l7.37,4.6a.23.23,0,0,1,.07.07.19.19,0,0,1-.07.25l-11.91,7.32a.34.34,0,0,1-.34,0Z" fill="url(#t)"/><path d="M233.36,198.68c-.07-.05-.06-.34-.06-.42v-1.42l12-6.55a.3.3,0,0,1,.34,0l7.43,3.85v1.47a.48.48,0,0,1-.17.42l-11.81,7.25a.3.3,0,0,1-.33,0Z" fill="#f36309"/><path d="M233.36,197a.17.17,0,0,1-.06-.06.2.2,0,0,1,.06-.26l11.92-7.31a.3.3,0,0,1,.34,0L253,194a.12.12,0,0,1,.06.06.2.2,0,0,1-.06.26l-11.92,7.31a.29.29,0,0,1-.33,0Z" fill="url(#u)"/><path d="M249.47,189c-.07,0-.06-.33-.06-.41v-1.42l12-6.56a.34.34,0,0,1,.34,0l7.43,3.85v1.48a.45.45,0,0,1-.17.41l-11.81,7.25a.33.33,0,0,1-.33,0Z" fill="#f36309"/><path d="M249.47,187.29l-.06-.07a.19.19,0,0,1,.06-.25l11.92-7.32a.34.34,0,0,1,.34,0l7.37,4.6a.13.13,0,0,1,.06.07.19.19,0,0,1-.06.25l-11.92,7.32a.33.33,0,0,1-.33,0Z" fill="url(#v)"/><path d="M215.59,227.06c-.07-.05-.06-.34-.06-.42v-1.42l12-6.55a.3.3,0,0,1,.34,0l7.43,3.85V224a.5.5,0,0,1-.17.42l-11.81,7.24a.3.3,0,0,1-.34,0Z" fill="#f36309"/><path d="M215.59,225.39a.11.11,0,0,1-.06-.07.19.19,0,0,1,.06-.25l11.92-7.31a.3.3,0,0,1,.34,0l7.37,4.59s.05,0,.06.07a.19.19,0,0,1-.06.25L223.3,230a.32.32,0,0,1-.34,0Z" fill="url(#w)"/><path d="M232.28,217.14c-.07,0-.06-.34-.06-.42V215.3l12-6.55a.29.29,0,0,1,.33,0L252,212.6v1.47a.5.5,0,0,1-.17.42L240,221.74a.32.32,0,0,1-.34,0Z" fill="#f36309"/><path d="M232.28,215.47a.12.12,0,0,1-.06-.06.2.2,0,0,1,.06-.26l11.92-7.31a.29.29,0,0,1,.33,0l7.38,4.6a.17.17,0,0,1,.06.06.2.2,0,0,1-.06.26L240,220.07a.3.3,0,0,1-.34,0Z" fill="url(#x)"/><path d="M248.11,207.52c-.07,0-.07-.33-.07-.41v-1.42l12-6.56a.34.34,0,0,1,.34,0L267.8,203v1.48a.46.46,0,0,1-.18.41l-11.8,7.25a.3.3,0,0,1-.34,0Z" fill="#f36309"/><path d="M248.11,205.86l-.07-.07a.19.19,0,0,1,.07-.25L260,198.22a.34.34,0,0,1,.34,0l7.37,4.6.07.07a.2.2,0,0,1-.07.25l-11.91,7.32a.34.34,0,0,1-.34,0Z" fill="url(#y)"/><path d="M264.22,197.8c-.07,0-.07-.34-.07-.42V196l12-6.55a.3.3,0,0,1,.34,0l7.44,3.85v1.47a.49.49,0,0,1-.18.42l-11.8,7.25a.32.32,0,0,1-.34,0Z" fill="#f36309"/><path d="M264.22,196.13s-.05,0-.07-.06a.21.21,0,0,1,.07-.26l11.91-7.31a.3.3,0,0,1,.34,0l7.37,4.6s.05,0,.07.06a.21.21,0,0,1-.07.26l-11.91,7.31a.3.3,0,0,1-.34,0Z" fill="url(#z)"/><path d="M214.49,149.37a1.48,1.48,0,0,1,1.47,0l13.55,7.79a1.11,1.11,0,0,1,.43.43,1.17,1.17,0,0,1-.44,1.61l-62.1,35.56a2.94,2.94,0,0,1-2.94,0l-12.81-7.36a1.24,1.24,0,0,1-.44-.44,1.18,1.18,0,0,1,.44-1.61Z" fill="url(#aa)"/><path d="M215,150.89l14.51,8.31L167.4,194.76a2.94,2.94,0,0,1-2.94,0l-12.81-7.36.19.11Z" fill="#fff"/><path d="M133.81,214.1v31.22L80,275.93V245.48Z" fill="url(#ab)"/><path d="M216.87,261.09v31.22L163,322.92V292.47Z" opacity="0.6" fill="url(#ac)" style="isolation:isolate"/><path d="M301.2,199.59v29L226.5,271V243.14Z" opacity="0.6" fill="url(#ad)" style="isolation:isolate"/><path d="M80,275.93,0,230.68l.07-30.39L80,245.72Z" opacity="0.3" fill="url(#ae)" style="isolation:isolate"/><path d="M163,319,91.52,278.55l.06-27.17L163,292Z" opacity="0.3" fill="url(#af)" style="isolation:isolate"/><path d="M226.5,271l-88.18-49.9.08-33.5,88.1,50.08Z" opacity="0.3" fill="url(#ag)" style="isolation:isolate"/><path d="M.13,197v4.65a1.17,1.17,0,0,0,.14.54,1.27,1.27,0,0,0,.4.4L77.8,247.25a3.25,3.25,0,0,0,3.25,0l52.21-30.41a1.08,1.08,0,0,0,.55-.94v-.72l-.07-4.11Z" fill="url(#ah)"/><path d="M52.79,165.62.54,196.05a1.07,1.07,0,0,0-.39,1.47,1.07,1.07,0,0,0,.39.4l77.2,44.74a3.25,3.25,0,0,0,3.25,0l52.24-30.42a1.07,1.07,0,0,0,.4-1.47,1,1,0,0,0-.4-.4L56,165.62A3.3,3.3,0,0,0,52.79,165.62Z" fill="#fcfcfc"/><path d="M20.84,203.15,63,178.65l3.51,1.75L24,204.88Z" fill="#fba611" opacity="0.3" style="isolation:isolate"/><path d="M28.2,207.35l42.17-24.5,3.5,1.75L31.32,209.09Z" fill="#fba611" opacity="0.3" style="isolation:isolate"/><path d="M35.91,212l42.16-24.5,3.51,1.75L39,213.72Z" fill="#fba611" opacity="0.3" style="isolation:isolate"/><path d="M43,216.05,85.2,191.56l3.51,1.74L46.16,217.79Z" fill="#fba611" opacity="0.3" style="isolation:isolate"/><path d="M50.85,220.7,93,196.21l3.5,1.74L54,222.44Z" fill="#fba611" opacity="0.3" style="isolation:isolate"/><path d="M58.73,225.1l42.17-24.49,3.5,1.74L61.86,226.84Z" fill="#fba611" opacity="0.3" style="isolation:isolate"/><path d="M66.83,229.76,109,205.26,112.5,207,70,231.5Z" fill="#fba611" opacity="0.3" style="isolation:isolate"/><path d="M75.4,234.77l42.17-24.49,3.5,1.74L78.53,236.51Z" fill="#fba611" opacity="0.3" style="isolation:isolate"/><path d="M55.93,174.85l-.63.44,1.55.89-.56.4-4-2.31,1.13-.8a2.3,2.3,0,0,1,1.16-.43,2.17,2.17,0,0,1,1.21.31,1.17,1.17,0,0,1,.51.5.61.61,0,0,1,0,.54l2.39.45,0,0-.6.43Zm-1.18.12.57-.4c.19-.14.28-.28.26-.42s-.12-.27-.32-.39a1.33,1.33,0,0,0-.65-.18,1.14,1.14,0,0,0-.62.2l-.58.42Z" fill="#f36309"/><path d="M59.53,177.28c2.29-1.3,2.29-3.42,0-4.72a9.23,9.23,0,0,0-8.29,0c-2.29,1.3-2.29,3.42,0,4.72A9.23,9.23,0,0,0,59.53,177.28Zm-.79-.43a7.58,7.58,0,0,1-6.79,0c-1.87-1.07-1.87-2.8,0-3.87a7.58,7.58,0,0,1,6.79,0C60.62,174.05,60.62,175.78,58.74,176.85Z" fill="#f36309"/><path d="M301.32,54.35,207.06.16a1.2,1.2,0,0,0-1.64.44,1.25,1.25,0,0,0-.16.6V73.63a1.19,1.19,0,0,0,.6,1l96.07,56.11V55.39A1.19,1.19,0,0,0,301.32,54.35Z" fill="#feab33" opacity="0.2" style="isolation:isolate"/><path d="M289.32,61.55,195.06,7.36a1.2,1.2,0,0,0-1.64.44,1.25,1.25,0,0,0-.16.6V80.83a1.19,1.19,0,0,0,.6,1L289.93,138V62.59A1.19,1.19,0,0,0,289.32,61.55Z" fill="#feab33" opacity="0.2" style="isolation:isolate"/><path d="M279.72,70,185.08,15.62a1.19,1.19,0,0,0-1.38.13l-4.38,3.74,4.34,70.43,91.86,59.65,4.27-2.84a1.22,1.22,0,0,0,.54-1V71A1.19,1.19,0,0,0,279.72,70Z" fill="url(#ai)"/><path d="M274.92,73.55,180.66,19.36a1.2,1.2,0,0,0-1.64.44,1.25,1.25,0,0,0-.16.6V92.83a1.19,1.19,0,0,0,.6,1L275.53,150V74.59A1.19,1.19,0,0,0,274.92,73.55Z" fill="#fff"/><path d="M274.92,73.55,180.66,19.36a1.2,1.2,0,0,0-1.64.44,1.25,1.25,0,0,0-.16.6V37L275.53,92.8V74.59A1.19,1.19,0,0,0,274.92,73.55Z" fill="url(#aj)"/><path d="M187,29.05c-1.26-.71-2.61,0-3,1.65a4,4,0,0,0,1.58,4.22c1.26.71,2.61,0,3-1.66A3.92,3.92,0,0,0,187,29.05Z" fill="#fcfcfc"/><path d="M195.44,33.85c-1.26-.71-2.61,0-3,1.65A4,4,0,0,0,194,39.72c1.26.71,2.61,0,3-1.66A3.92,3.92,0,0,0,195.44,33.85Z" fill="#fcfcfc"/><path d="M185.71,91.71l82.68,47.66a2.4,2.4,0,0,0,3.6-2.08V101.21a7.21,7.21,0,0,0-3.6-6.24L186,47.48a2.4,2.4,0,0,0-3.28.88,2.5,2.5,0,0,0-.32,1.17l-.33,35.87A7.19,7.19,0,0,0,185.71,91.71Z" fill="#fff" stroke="#f9d18d"/><path d="M182.07,53.61,272,105.45v-4.24a7.21,7.21,0,0,0-3.6-6.24L185.88,47.38a2.4,2.4,0,0,0-3.6,2Z" fill="#fff" stroke="#f9d18d"/><line x1="188.58" y1="49.18" x2="188.58" y2="92.83" fill="none" stroke="#f9d18d" stroke-linecap="round"/><line x1="210.63" y1="61.92" x2="210.63" y2="105.56" fill="none" stroke="#f9d18d" stroke-linecap="round"/><line x1="239.69" y1="78.2" x2="239.69" y2="123.05" fill="none" stroke="#f9d18d"/><path d="M249.7,119.1v-1.56c1.52.57,2.38-.17,2.38-1.48a5.67,5.67,0,0,0-2.44-4.24l-1.14-.93a1.78,1.78,0,0,1-.77-1.26c0-.46.37-.72,1.1-.3a2.61,2.61,0,0,1,1.33,2l1.81.51A6.33,6.33,0,0,0,249.7,108v-1.59l-1.5-.86v1.55c-1.37-.53-2.47-.06-2.47,1.54a5.72,5.72,0,0,0,2.37,4.08l1.16,1a1.83,1.83,0,0,1,.81,1.29c0,.55-.47.63-1.13.25a3.32,3.32,0,0,1-1.71-2.56l-1.8-.59a6.9,6.9,0,0,0,2.77,4.59v1.53Zm11,6.32v-1.56c1.52.57,2.38-.17,2.38-1.48a5.67,5.67,0,0,0-2.44-4.24l-1.14-.93a1.78,1.78,0,0,1-.77-1.26c0-.46.37-.72,1.1-.3a2.61,2.61,0,0,1,1.33,2l1.82.51a6.41,6.41,0,0,0-2.28-3.76v-1.59l-1.5-.86v1.55c-1.37-.53-2.46-.06-2.46,1.54a5.74,5.74,0,0,0,2.36,4.08l1.16,1a1.83,1.83,0,0,1,.81,1.29c0,.55-.47.63-1.12.25a3.27,3.27,0,0,1-1.71-2.56l-1.8-.59a6.88,6.88,0,0,0,2.76,4.59v1.53Z" fill="url(#ak)"/><path d="M91.72,249v4.65a1.08,1.08,0,0,0,.15.54,1,1,0,0,0,.4.4l69.1,39.57a3.27,3.27,0,0,0,3.26,0l52.21-30.4a1.09,1.09,0,0,0,.54-.94v-.73l-.07-4.11Z" fill="url(#al)"/><path d="M144.38,217.62,92.14,248a1.07,1.07,0,0,0-.4,1.47,1,1,0,0,0,.4.4l69.17,39.65a3.25,3.25,0,0,0,3.25,0l52.25-30.42a1.09,1.09,0,0,0,.39-1.48,1,1,0,0,0-.39-.39l-69.18-39.65A3.25,3.25,0,0,0,144.38,217.62Z" fill="#fcfcfc"/><path d="M189.71,260.25l-6.32-3.64,1.22-.71,6.32,3.64Zm2.84-1.65L186.23,255l2.17-1.26a6.51,6.51,0,0,1,6.11.09c1.79,1,2,2.53.21,3.55Zm0-1.43.95-.55c1-.58.91-1.42-.21-2.06h0a3.69,3.69,0,0,0-3.58-.12l-.95.54Zm8.47-3.36a6.82,6.82,0,0,1-3.37.79l-.26-1a5.05,5.05,0,0,0,2.43-.52c.5-.29.58-.6.21-.81s-.75-.21-1.95.18c-1.45.46-2.52.68-3.78,0s-1.11-1.58,0-2.24a6,6,0,0,1,2.87-.74l.41,1a5,5,0,0,0-2.07.49c-.47.27-.47.55-.17.73s.81.19,2.06-.21a4.23,4.23,0,0,1,3.66.07C202.33,252.22,202.19,253.11,201,253.81Z" fill="#fcfcfc"/><path d="M157.07,231.58l-39.91,23.15,2,1.16,39.91-23.16Zm7,4-39.91,23.15,2,1.16,39.91-23.15Zm7,4.05-39.91,23.15,2,1.16L173,240.84Zm7,4-39.91,23.16,2,1.15L180,244.89Z" fill="#fba611"/><path d="M142.81,226.78l-35.25,20.48,6,3.51,35.26-20.48Z" fill="#f36309"/><path d="M174.11,291.16l9.12-5.58a1.93,1.93,0,0,0,.92-1.64v-6.48a.44.44,0,0,1-.12-.06l-14.79-8.78a.68.68,0,0,0-.7,0l-11.17,6.73a.24.24,0,0,0-.08.33.24.24,0,0,0,.08.09l15.13,8.92.15.07v5.58a1,1,0,0,0,1.46.82Z" fill="#b34501"/><path d="M174.72,291.18l9.44-5.52a2,2,0,0,0,1-1.66v-6.5a.27.27,0,0,1-.12-.06l-14.79-8.82a.68.68,0,0,0-.7,0l-11.17,6.77a.24.24,0,0,0-.08.33l.08.08,14.79,8.83a.44.44,0,0,0,.16.06v5.66a1,1,0,0,0,1,1A.89.89,0,0,0,174.72,291.18Z" fill="url(#am)"/><path d="M183.44,285.8l.71-.4v-7.74a.27.27,0,0,1-.12-.06l-15.31-9a.71.71,0,0,0-.72,0l-.06.09a.26.26,0,0,0-.09.33.2.2,0,0,0,.09.09l15.31,9a.46.46,0,0,0,.16.07Z" fill="#fcfcfc"/><path d="M175.75,290.59l.71-.39v-7.74a.45.45,0,0,1-.12-.06l-15.31-9a.71.71,0,0,0-.72,0l-.05.09a.24.24,0,0,0-.09.33.2.2,0,0,0,.09.09l15.31,9a.46.46,0,0,0,.16.07Z" fill="#fcfcfc"/><path d="M172.14,273.84l.24,0c.94-.12,1.58-.6,1.59-1.14V272h0l-.05.25c0,.08,0,.11,0,.1-.39-.7-.08-1.47.78-2l.18-.1a1.11,1.11,0,0,0,.66-.78v-.77a1.1,1.1,0,0,1-.44-.07l-.22-.12c-.93-.5-1.32-1.25-1-2l.07-.14a.86.86,0,0,0,.09-.3v-.78h0a7,7,0,0,0-1.41-.4l-.18,0a3.3,3.3,0,0,1-2.57-1.39l-.06-.15c-.24-.63-1.32-1-2.41-.89h-.18a5.38,5.38,0,0,1-3.41-.44l-.2-.12a3.14,3.14,0,0,0-2.85-.08l-.13.08a5.2,5.2,0,0,1-3.33.61l-.28-.05a2.54,2.54,0,0,0-2.54.77l0,.05h0l0,.05a3,3,0,0,1-2.39,1.5l-.25,0a5.34,5.34,0,0,0-1.59.47V266h0a.92.92,0,0,0,.05.28l.05.11c.41.75,0,1.57-1,2.1a1.57,1.57,0,0,1-.66.21v.66h0a1,1,0,0,0,.53.79l.13.08a1.77,1.77,0,0,1,1.13,1.55c0,.12-.09.21-.26.26v.73h0c.06.47.59.89,1.4,1h.09l.09,0a3.3,3.3,0,0,1,2.58,1.39l.06.14c.24.64,1.32,1,2.41.9l.18,0a5.35,5.35,0,0,1,3.4.45l.21.12a3.11,3.11,0,0,0,2.85.07l.07,0h0l.06,0a5.2,5.2,0,0,1,3.33-.61l.28,0a2.51,2.51,0,0,0,2.54-.76l0-.05h0l0-.06a3,3,0,0,1,2.39-1.5Z" fill="#b34501"/><path d="M172.14,273.19l.24,0c1.1-.14,1.79-.76,1.55-1.4l0-.05h0l0-.05c-.39-.71-.08-1.47.78-2l.18-.1c.83-.44.89-1.19.14-1.67l-.14-.07c-.93-.5-1.32-1.25-1-2l.07-.14c.34-.62-.25-1.29-1.32-1.48l-.18,0a3.12,3.12,0,0,1-2.63-1.54c-.24-.63-1.32-1-2.41-.9l-.09,0h-.09a5.45,5.45,0,0,1-3.41-.44l-.2-.12a3.11,3.11,0,0,0-2.85-.08l-.07,0h0l-.06,0a5.2,5.2,0,0,1-3.33.61l-.28,0a2.52,2.52,0,0,0-2.54.77l0,.05h0l0,.05a3,3,0,0,1-2.39,1.5l-.25,0c-1.09.14-1.78.77-1.54,1.4l0,0h0l0,.06c.38.7.08,1.46-.79,2l-.18.11c-.82.43-.88,1.18-.13,1.66l.07,0h0l.06,0c.94.49,1.33,1.24,1,1.95l-.07.15c-.34.62.25,1.28,1.31,1.47l.09,0h.09a3.33,3.33,0,0,1,2.58,1.4l.06.14c.24.64,1.32,1,2.41.9l.18,0a5.28,5.28,0,0,1,3.61.56,3.11,3.11,0,0,0,2.85.08l.13-.08a5.14,5.14,0,0,1,3.33-.6l.28,0a2.52,2.52,0,0,0,2.54-.77l.05-.1a3,3,0,0,1,2.39-1.5Z" fill="url(#an)"/><path d="M168.88,272.37c3.58-2,3.58-5.35,0-7.39a14.62,14.62,0,0,0-13,0c-3.58,2-3.58,5.35,0,7.39A14.55,14.55,0,0,0,168.88,272.37Zm-.81-.46a12.75,12.75,0,0,1-11.36,0c-3.14-1.79-3.14-4.68,0-6.46a12.69,12.69,0,0,1,11.36,0C171.2,267.23,171.2,270.12,168.07,271.91Z" fill="#fcfcfc"/></svg>