<?xml version="1.0" encoding="utf-8"?>
<!-- Generator: Adobe Illustrator 22.1.0, SVG Export Plug-In . SVG Version: 6.00 Build 0)  -->
<svg version="1.1" id="_x33_1b50166-6546-47b4-a824-f025e6e7ae9a"
	 xmlns="http://www.w3.org/2000/svg" xmlns:xlink="http://www.w3.org/1999/xlink" x="0px" y="0px" viewBox="0 0 468.6 143.6"
	 style="enable-background:new 0 0 468.6 143.6;" xml:space="preserve">
<style type="text/css">
	.st0{fill:#fff;}
	.st1{fill:#fff;}
	.st2{fill:#fff;}
	.st3{fill:#fff;}
</style>
<title>logo</title>
<g id="_x35_c729e2c-2f11-4af7-83cb-8ae0d8c5a507">
	<g id="_x37_e905510-8604-4c55-8872-e1566b0ee2a5">
		<path class="st0" d="M262.3,53.7c-5.2-0.1-10.3,1.2-14.9,3.6c-4.3,2.4-7.8,5.9-10.1,10.1c-2.5,4.6-3.7,9.7-3.6,14.9
			c-0.1,5.2,1.1,10.3,3.6,14.9c2.3,4.3,5.9,7.7,10.2,10c4.7,2.5,9.9,3.7,15.2,3.6c4.6,0.1,9.2-0.8,13.4-2.6c3.9-1.6,7.4-4,10.3-7.1
			l-7.4-7.7c-1.9,2-4.3,3.6-6.9,4.7c-2.6,1.1-5.4,1.6-8.3,1.6c-7.8,0.3-14.7-5.1-16.1-12.8h41.5c0.1-0.9,0.1-2.3,0.1-4.1
			c0-9.3-2.3-16.4-6.8-21.6S271.3,53.7,262.3,53.7z M247.4,77.9c0.4-3.8,2.2-7.3,5-9.9c2.7-2.4,6.3-3.7,10-3.6
			c3.8-0.1,7.5,1.2,10.3,3.7c2.7,2.6,4.2,6.2,4.1,9.9H247.4z"/>
		<path class="st0" d="M465.8,85c-1.8-2.2-4-4-6.6-5.1c-3.1-1.4-6.4-2.6-9.7-3.5c-2.8-0.7-5.5-1.7-8.1-3c-1.6-0.7-2.6-2.3-2.6-4
			c-0.1-1.5,0.7-3,2-3.7c1.7-0.9,3.6-1.3,5.5-1.2c2.7,0.1,5.4,0.5,8,1.4c3,0.9,5.8,2.2,8.5,3.8l5-9.9c-2.9-2-6.2-3.5-9.6-4.4
			c-3.6-1-7.3-1.6-11-1.6c-6.1,0-11.1,1.4-15.2,4.3c-4.1,2.9-6.1,7.1-6,12.7c-0.1,3.1,0.8,6.2,2.6,8.7c1.6,2.1,3.8,3.9,6.2,5
			c3,1.3,6.1,2.4,9.3,3.3c2.9,0.8,5.8,1.9,8.5,3.3c1.7,0.8,2.7,2.6,2.6,4.4c0.1,1.7-0.8,3.2-2.3,4c-1.9,1-3.9,1.4-6,1.3
			c-3.4-0.1-6.8-0.7-10-1.9c-3.3-1.1-6.3-2.9-9-5.1l-4.7,9.6c3.1,2.6,6.6,4.6,10.4,5.8c4.1,1.3,8.4,2,12.7,2
			c6.4,0,11.7-1.5,15.9-4.4s6.3-7.1,6.3-12.6C468.7,90.7,467.8,87.6,465.8,85z"/>
		<path class="st1" d="M387.1,54.3c-16.4,0-29.6,12.7-29.6,28.4s13.3,28.3,29.6,28.3s29.6-12.7,29.6-28.3S403.4,54.3,387.1,54.3z
			 M387.1,100.2c-10.2,0-18.4-7.9-18.4-17.6s8.2-17.6,18.4-17.6s18.4,7.9,18.4,17.6S397.2,100.2,387.1,100.2z"/>
		<path class="st0" d="M217.8,59.5c-3.7-3.9-8.8-5.8-15.2-5.8c-9.7,0.2-16.4,3.9-20.3,11.2V37.4l-13.7-5v78.1h13.7V82.8
			c0-4.7,1.3-8.6,4-11.6c2.8-3.1,6.7-4.7,10.8-4.6c3.8,0,6.9,1.1,9.1,3.4s3.4,5.4,3.4,9.3v31.1h13.7V75.3
			C223.4,68.7,221.5,63.4,217.8,59.5z"/>
		<polygon class="st0" points="301.6,110.5 315.3,110.5 315.3,37.4 301.6,32.4 		"/>
		<polygon class="st0" points="332.9,110.5 346.6,110.5 346.6,59.2 332.9,54.2 		"/>
		<path class="st1" d="M25.8,86.3c-2.4-6.3-3.7-13.1-3.7-19.9c0-29.5,23.1-53.6,51.4-53.6s51.4,24.1,51.4,53.6
			c0,6.8-1.3,13.5-3.7,19.9h13.5c2-6.4,3-13.2,2.9-19.9C137.6,29.8,108.8,0,73.5,0S9.3,29.8,9.3,66.4c0,6.7,1,13.4,2.9,19.9H25.8z"
			/>
		<path class="st1" d="M140.3,106.5H6.7c-3.5,0.2-6.5-2.6-6.7-6.1C-0.1,97,2.4,94,5.8,93.8c0.3,0,0.6,0,0.9,0h133.6
			c3.5-0.2,6.6,2.5,6.8,6c0.2,3.5-2.4,6.5-5.9,6.8C140.9,106.5,140.6,106.5,140.3,106.5z"/>
		<path class="st2" d="M113.7,112.3H33.3c-3.5,0-6.4,2.9-6.3,6.5c0,3.1,2.3,5.8,5.4,6.3c0.3,0,0.6,0,0.9,0h80.5
			c3.5,0.3,6.6-2.3,6.9-5.8s-2.3-6.6-5.8-6.9c0,0-0.1,0-0.1,0h-0.1C114.3,112.2,114,112.2,113.7,112.3"/>
		<path class="st3" d="M87.6,130.8H59.4c-3.5-0.2-6.6,2.4-6.8,5.9c-0.2,3.5,2.4,6.6,5.9,6.8c0.3,0,0.6,0,0.9,0h28.2
			c3.5-0.2,6.2-3.3,5.9-6.8C93.3,133.6,90.8,131,87.6,130.8"/>
	</g>
</g>
</svg>
