<svg xmlns="http://www.w3.org/2000/svg" xmlns:xlink="http://www.w3.org/1999/xlink" width="276.42" height="344.62" viewBox="0 0 276.42 344.62"><defs><linearGradient id="a" x1="-108.77" y1="323.46" x2="-109.19" y2="322.08" gradientTransform="matrix(76.45, 0, 0, -99.12, 8531.64, 32065.29)" gradientUnits="userSpaceOnUse"><stop offset="0" stop-color="#fab643"/><stop offset="0.56" stop-color="#f48222"/><stop offset="1" stop-color="#f16322" stop-opacity="0"/></linearGradient><linearGradient id="b" x1="-110.4" y1="322.74" x2="-110.4" y2="321.74" gradientTransform="translate(-8262.13 38018.32) rotate(180) scale(76.56 117.78)" gradientUnits="userSpaceOnUse"><stop offset="0" stop-color="#d46700"/><stop offset="1" stop-color="#fa9d2c"/></linearGradient><linearGradient id="c" x1="-110.31" y1="322.8" x2="-110.48" y2="322.31" gradientTransform="translate(-8262.13 31403.67) rotate(180) scale(76.56 97.19)" xlink:href="#b"/><linearGradient id="d" x1="-110.45" y1="322.78" x2="-110.5" y2="321.93" gradientTransform="translate(-7354.72 31032.23) rotate(180) scale(68.29 96.12)" gradientUnits="userSpaceOnUse"><stop offset="0" stop-color="#fff"/><stop offset="1" stop-color="#e2e7ec"/></linearGradient><linearGradient id="e" x1="-109.09" y1="321.77" x2="-110.95" y2="322.55" gradientTransform="translate(-7886.24 31417.53) rotate(180) scale(73.11 97.24)" gradientUnits="userSpaceOnUse"><stop offset="0" stop-color="#fab643"/><stop offset="0.56" stop-color="#f48222"/><stop offset="1" stop-color="#f16322"/></linearGradient><linearGradient id="f" x1="-110.71" y1="322.52" x2="-110.25" y2="322.97" gradientTransform="translate(-7513.69 19079.55) rotate(180) scale(69.71 58.84)" gradientUnits="userSpaceOnUse"><stop offset="0" stop-color="#feab33"/><stop offset="1" stop-color="#f89528"/></linearGradient><linearGradient id="g" x1="-109" y1="323.34" x2="-109.43" y2="321.95" gradientTransform="matrix(107.27, 0, 0, -136.7, 11947.2, 44277.28)" xlink:href="#a"/><radialGradient id="h" cx="-109.08" cy="322.42" r="0.67" gradientTransform="matrix(106.86, 0, 0, -106.86, 11902.93, 34606.49)" gradientUnits="userSpaceOnUse"><stop offset="0" stop-color="#ffc47c"/><stop offset="0.69" stop-color="#f48826"/><stop offset="1" stop-color="#f16322"/></radialGradient><linearGradient id="i" x1="-109.28" y1="322.78" x2="-109.28" y2="321.78" gradientTransform="matrix(103.42, 0, 0, -106.86, 11525.5, 34606.55)" gradientUnits="userSpaceOnUse"><stop offset="0" stop-color="#fae1b4"/><stop offset="1" stop-color="#f9a44e"/></linearGradient><linearGradient id="j" x1="-110.83" y1="326.36" x2="-110.76" y2="321.2" gradientTransform="matrix(-48.81, 0, 0, 81.27, -5158.96, -25953.67)" xlink:href="#e"/><linearGradient id="k" x1="-109.44" y1="323.96" x2="-108.95" y2="322.09" gradientTransform="matrix(65.55, 0, 0, -101.07, 7323.01, 32867.76)" xlink:href="#a"/><linearGradient id="l" x1="-109.48" y1="324.66" x2="-108.42" y2="322.8" gradientTransform="matrix(40.17, 0, 0, -42.04, 4419.99, 13784.74)" xlink:href="#a"/><linearGradient id="m" x1="-109.48" y1="324.66" x2="-108.42" y2="322.8" gradientTransform="matrix(40.17, 0, 0, -42.04, 4474.37, 13753.97)" xlink:href="#a"/><linearGradient id="n" x1="-109.48" y1="324.66" x2="-108.42" y2="322.8" gradientTransform="matrix(40.17, 0, 0, -42.04, 4527.05, 13724.03)" xlink:href="#a"/><linearGradient id="o" x1="-108.89" y1="323.38" x2="-109.3" y2="321.99" gradientTransform="matrix(92.64, 0, 0, -120.1, 10216.97, 38985.19)" xlink:href="#a"/><linearGradient id="p" x1="-108.02" y1="324.13" x2="-108.66" y2="322.74" gradientTransform="matrix(40.18, 0, 0, -42.06, 4381.31, 13791.17)" xlink:href="#a"/><linearGradient id="q" x1="-108.02" y1="324.13" x2="-108.66" y2="322.74" gradientTransform="matrix(40.18, 0, 0, -42.06, 4435.66, 13760.39)" xlink:href="#a"/><linearGradient id="r" x1="-108.02" y1="324.13" x2="-108.66" y2="322.74" gradientTransform="matrix(40.18, 0, 0, -42.06, 4488.3, 13730.46)" xlink:href="#a"/><linearGradient id="s" x1="-109.59" y1="323.47" x2="-109.38" y2="322.76" gradientTransform="matrix(157.14, 0, 0, -57.98, 17329.62, 18958.88)" xlink:href="#e"/><linearGradient id="t" x1="-109.36" y1="323.43" x2="-108.76" y2="322.11" gradientTransform="matrix(60.92, 0, 0, -55.44, 6803.13, 18129.2)" gradientUnits="userSpaceOnUse"><stop offset="0" stop-color="#fab643"/><stop offset="0.6" stop-color="#f48222"/><stop offset="1" stop-color="#f16322"/></linearGradient><linearGradient id="u" x1="-109.46" y1="323.69" x2="-108.86" y2="322.36" gradientTransform="matrix(77.3, 0, 0, -44.46, 8526.88, 14562.69)" xlink:href="#t"/><linearGradient id="v" x1="-108.99" y1="323.19" x2="-108.78" y2="322.49" gradientTransform="matrix(49.14, 0, 0, -81.36, 5402.3, 26324.98)" xlink:href="#e"/><linearGradient id="w" x1="-106.39" y1="324.59" x2="-107.58" y2="323.53" gradientTransform="matrix(19.77, 0, 0, -25.41, 2181.37, 8326.35)" gradientUnits="userSpaceOnUse"><stop offset="0" stop-color="#ffad38"/><stop offset="1" stop-color="#f36309"/></linearGradient><linearGradient id="x" x1="-107.63" y1="324.56" x2="-107.03" y2="323.23" gradientTransform="matrix(19.77, 0, 0, -24.97, 2182.01, 8186.99)" xlink:href="#t"/><linearGradient id="y" x1="-105.55" y1="325.61" x2="-106.04" y2="324.87" gradientTransform="matrix(12.47, 0, 0, -14.86, 1380.19, 4914.77)" xlink:href="#w"/><linearGradient id="z" x1="-105.43" y1="325.43" x2="-106.48" y2="323.82" gradientTransform="matrix(11.55, 0, 0, -14.32, 1279.41, 4741.63)" gradientUnits="userSpaceOnUse"><stop offset="0" stop-color="#ffc470"/><stop offset="1" stop-color="#f36309"/></linearGradient><linearGradient id="aa" x1="-109.37" y1="323.69" x2="-109.16" y2="322.99" gradientTransform="matrix(80.7, 0, 0, -45.1, 8848.99, 14749.54)" xlink:href="#e"/><linearGradient id="ab" x1="-108.57" y1="325.21" x2="-107.97" y2="323.89" gradientTransform="matrix(33.12, 0, 0, -19, 3628.95, 6351.12)" xlink:href="#t"/><linearGradient id="ac" x1="-109.37" y1="323.69" x2="-109.16" y2="322.99" gradientTransform="matrix(80.7, 0, 0, -45.1, 8903.44, 14717.77)" xlink:href="#e"/><linearGradient id="ad" x1="-108.57" y1="325.21" x2="-107.97" y2="323.89" gradientTransform="matrix(33.12, 0, 0, -19, 3683.4, 6319.35)" xlink:href="#t"/><linearGradient id="ae" x1="-109.37" y1="323.69" x2="-109.16" y2="322.99" gradientTransform="matrix(80.7, 0, 0, -45.1, 8956.76, 14688.28)" xlink:href="#e"/><linearGradient id="af" x1="-108.57" y1="325.21" x2="-107.97" y2="323.89" gradientTransform="matrix(33.12, 0, 0, -19, 3736.72, 6289.86)" xlink:href="#t"/></defs><path d="M227.34,165.94l-76.46-43.27q0-55.53.06-55.86l76.4,40.33Z" opacity="0.2" fill="url(#a)" style="isolation:isolate"/><path d="M227.34,63.24,189.52,6l-33.36,17.2-.08,0-4.84,2.89v18l72,79.61,3.65-1.34a1.37,1.37,0,0,0,.89-1.29V64.75A2.7,2.7,0,0,0,227.34,63.24Z" fill="url(#b)"/><path d="M227.79,65.5l-3.67,1.3-62.1-40H151.24v18l72,79.15,3.65-1.34a1.36,1.36,0,0,0,.89-1.29Z" fill="url(#c)"/><path d="M222.79,38.7,157.92.19A1.38,1.38,0,0,0,156,.67a1.34,1.34,0,0,0-.19.7v53a2.75,2.75,0,0,0,1.32,2.35l64.89,39.17a1.38,1.38,0,0,0,2.08-1.18V41.07A2.76,2.76,0,0,0,222.79,38.7Z" fill="url(#d)"/><path d="M199.77,41.83l17.06,9.87V48l-17.06-9.88Z" fill="#f36309"/><path d="M163.21,29.21v3.67l53.62,31V60.25Z" fill="#f36309"/><path d="M216.83,72.48,163.21,41.4v3.67l53.62,31.07Z" fill="#f36309"/><path d="M224.14,66.56l-36.56,4.38L151,26.75V80.94a2.76,2.76,0,0,0,1.36,2.38l69.69,40.48a1.36,1.36,0,0,0,1.87-.5,1.4,1.4,0,0,0,.19-.69Z" fill="url(#e)"/><path d="M186.78,64.6,152,83.13l69.71,40.31Z" fill="url(#f)"/><path d="M169.15,167.21H276.42v83.07a53.64,53.64,0,0,1-107.27,0V167.21Z" opacity="0.2" fill="url(#g)" style="isolation:isolate"/><circle cx="222.99" cy="166.76" r="53.43" fill="url(#h)"/><path d="M223,113.33h.61v10.73h0a55.6,55.6,0,0,1,21.55-4.35c1.13,0,2.25,0,3.37.1,1.2.65,2.36,1.34,3.5,2.08a53.43,53.43,0,0,0-23.87,2.33c16.85,1.11,32.22,8.19,43,19.36a54.42,54.42,0,0,1,2.11,5c-10.81-13.46-28-22-46.94-22.75,13.94,7.07,25.35,19.78,32.2,35.7a69.14,69.14,0,0,0,15.66-10.17c.18.61.35,1.23.52,1.85a71.5,71.5,0,0,1-15.51,9.93,88.21,88.21,0,0,1,6.35,32.09q2.11-1.2,4.15-2.52c-.63,1.12-1.29,2.21-2,3.28-.71.42-1.43.83-2.16,1.24,0,.62,0,1.24,0,1.87-.59.77-1.2,1.53-1.83,2.27.06-1.06.1-2.13.12-3.2A86.8,86.8,0,0,1,223.6,208v12.15h-1.73V208a86.77,86.77,0,0,1-39.62-10.29c0,1.25.06,2.5.13,3.74-.63-.74-1.24-1.5-1.84-2.27,0-.81,0-1.62,0-2.43-.94-.54-1.88-1.09-2.8-1.67-.68-1.08-1.32-2.18-1.92-3.32l-.45-.3c1.69,1.16,3.42,2.25,5.18,3.29a87.83,87.83,0,0,1,6.33-31.56,71.23,71.23,0,0,1-15.56-9.93c.16-.62.34-1.24.52-1.85l-.17-.14A69.05,69.05,0,0,0,187.5,161.6c6.83-15.9,18.21-28.6,32.12-35.69C200.06,127,182.48,136.3,172,150.77a53.81,53.81,0,0,1,1.93-5.2c10.68-12.15,26.57-20,44.12-21.3A53.56,53.56,0,0,0,194,121.9c1.14-.74,2.3-1.44,3.5-2.09,1.14-.07,2.29-.1,3.44-.1a55.55,55.55,0,0,1,21,4.12V113.34Zm34.62,50.56a85,85,0,0,1-34,7.19v35.21A85.14,85.14,0,0,0,263,196.63l.78-.41A86.57,86.57,0,0,0,257.61,163.89Zm-69.21,0a86.44,86.44,0,0,0-6.17,31.82,84.93,84.93,0,0,0,39.63,10.52V171.08A85.11,85.11,0,0,1,188.4,163.93Zm35.2-37.45v42.86a83.43,83.43,0,0,0,32.5-6.69l.84-.37C249.93,146,238.05,133.14,223.6,126.48Zm-1.74.27c-14.21,6.74-25.87,19.47-32.79,35.58a83.35,83.35,0,0,0,32.79,7Z" fill="url(#i)"/><path d="M235.78,174.72V141.83l18.77-11,4.56,2.83-4.56,30.06,12.73-7.18,4.57,2.83-26.69,32L227.61,185,223,182.15Zm0-42.6V120.85l18.53-10.7,4.56,2.83-4.56,8.15-14,13.82Z" fill="url(#j)"/><path d="M240.34,177.55V144.66l18.77-11v32.89l12.74-7.18-22.12,34.84L227.61,185Zm0-42.6V123.68L258.89,113v11Z" fill="#fae1b4"/><path d="M85.55,151.66l-23.38-13V110.49" fill="none" stroke="#f36309" stroke-linecap="round" stroke-linejoin="round" stroke-width="1.25"/><path d="M143.41,118.76,120,105.21,11.22,168.36l9.42,5.56" fill="none" stroke="#f36309" stroke-linecap="round" stroke-linejoin="round" stroke-width="1.25"/><path d="M210.15,240.42v60.29L144.6,341.49V279Z" opacity="0.6" fill="url(#k)" style="isolation:isolate"/><path d="M80.42,184.46v17l-40.17,25V208.1Z" fill="url(#l)"/><path d="M134.77,153.84v17l-40.17,25v-18.4Z" fill="url(#m)"/><path d="M187.48,123.89v17l-40.16,25v-18.4Z" fill="url(#n)"/><path d="M144.6,344.62,52,292.19q0-67.27.07-67.68l92.57,48.87Z" opacity="0.2" fill="url(#o)" style="isolation:isolate"/><path d="M40.25,226.5.07,203.76q0-19.15,0-19.32l40.14,21.19Z" opacity="0.4" fill="url(#p)" style="isolation:isolate"/><path d="M94.6,195.88,54.42,173.15q0-19.15,0-19.33L94.6,175Z" opacity="0.4" fill="url(#q)" style="isolation:isolate"/><path d="M147.32,165.93,107.14,143.2q0-19.15,0-19.33l40.15,21.2Z" opacity="0.4" fill="url(#r)" style="isolation:isolate"/><path d="M52.91,220.72v4.4a.94.94,0,0,0,.14.51.9.9,0,0,0,.37.38l90.81,52.28a3.06,3.06,0,0,0,3.07,0l62.23-35.63a1,1,0,0,0,.52-.88v-.69l-.07-3.88Z" fill="url(#s)"/><path d="M115.56,184.19,53.3,219.83a1,1,0,0,0,0,1.77L144.17,274a3.08,3.08,0,0,0,3.08,0l62.26-35.64a1,1,0,0,0,.37-1.4,1,1,0,0,0-.37-.37l-90.88-52.36A3.06,3.06,0,0,0,115.56,184.19Z" fill="#fcfcfc"/><path d="M70.6,228.15l59-33.93,13.79,7.71L84,235.85Z" fill="#fba611" opacity="0.3" style="isolation:isolate"/><path d="M86.56,237.72l30.74-17.26,4.94,2.75L91.13,240.46Z" fill="#fba611" opacity="0.3" style="isolation:isolate"/><path d="M94,242.13l30.74-17.26,4.94,2.75L98.57,244.88Z" fill="#fba611" opacity="0.3" style="isolation:isolate"/><path d="M139.51,255.9,151.73,263l-4.7,2.75-12.26-7.15Zm1.55-12,22.17,12.76-4.7,2.74-22.22-12.79Zm1.51-11.3,31.3,18-4.7,2.74-31.34-18Zm5.58-10.66,37.67,22-4.7,2.75-37.72-22Zm.24-11.59L195.7,238l-4.7,2.75L143.64,213Z" fill="url(#t)"/><path d="M115.56,184.19,53.3,219.83a1,1,0,0,0,0,1.77l11.44,6.63,65.35-37.4-11.46-6.64A3.06,3.06,0,0,0,115.56,184.19Z" fill="url(#u)"/><path d="M63.87,221.66c1.57,0,2.84-.76,2.84-1.7s-1.27-1.7-2.84-1.7S61,219,61,220,62.3,221.66,63.87,221.66Z" fill="#fff"/><path d="M71.81,217.12c1.57,0,2.84-.76,2.84-1.7s-1.27-1.7-2.84-1.7-2.84.76-2.84,1.7S70.24,217.12,71.81,217.12Z" fill="#fff"/><path d="M13.45,65.69,58.11,40a1.41,1.41,0,0,1,1.93.52,1.38,1.38,0,0,1,.19.71V91.59a1.4,1.4,0,0,1-.7,1.22L12.74,120.12V66.92A1.41,1.41,0,0,1,13.45,65.69Z" fill="#feab33" opacity="0.2" style="isolation:isolate"/><path d="M24.79,71.36,69.45,45.7a1.43,1.43,0,0,1,1.94.52,1.48,1.48,0,0,1,.19.71V97.26a1.42,1.42,0,0,1-.71,1.23L24.08,125.8V72.59A1.41,1.41,0,0,1,24.79,71.36Z" fill="#feab33" opacity="0.2" style="isolation:isolate"/><path d="M33.79,77.53,78.53,52.37a1.41,1.41,0,0,1,1.49.06l2.19,1.48L80.56,87.57l-45.14,46-1.72-1.15a1.4,1.4,0,0,1-.63-1.18V78.77A1.42,1.42,0,0,1,33.79,77.53Z" fill="url(#v)"/><path d="M36.14,79.3,80.8,53.64a1.41,1.41,0,0,1,1.93.53,1.32,1.32,0,0,1,.19.7V105.2a1.44,1.44,0,0,1-.7,1.23l-46.8,27.31V80.53A1.42,1.42,0,0,1,36.14,79.3Z" fill="#fae1b4"/><path d="M42.37,82.91,74.56,64.42a1.42,1.42,0,0,1,1.94.52,1.44,1.44,0,0,1,.19.7V101.9a1.42,1.42,0,0,1-.71,1.23l-34.32,20v-39A1.41,1.41,0,0,1,42.37,82.91Z" fill="#fff"/><path d="M53.9,110.12l-3.22,2.64-.65-.43V101.18a7.31,7.31,0,0,1,3.68-6.34l12.56-7.17a2.35,2.35,0,0,1,3.22.88,2.28,2.28,0,0,1,.31,1.17V101l-3.43,2.77-.65-.43V96.69l-1.07.6V104l-9,6L55,109.5v-7.45l-1.07.61Z" fill="url(#w)"/><path d="M54.54,110.55l-3.87,2.21V101.61a7.3,7.3,0,0,1,3.69-6.34L66.91,88.1a2.36,2.36,0,0,1,3.54,2.05v11.31l-4.08,2.33V97.12l-1.08.6v6.69l-9.67,5.52v-7.45l-1.08.61Z" fill="url(#x)"/><path d="M60.78,90.07c3.18-2,6-6.94,5.54-10.37S62.48,75,59.29,77s-5.59,6.42-5.38,9.81S57.6,92.09,60.78,90.07Z" fill="url(#y)"/><path d="M61.05,89.92c3.18-2,5.59-6.41,5.38-9.81s-3-4.51-6.14-2.49S54.7,84,54.91,87.43,57.87,91.94,61.05,89.92Z" fill="url(#z)"/><path d="M1,183.61l36.57-18.68a5.77,5.77,0,0,1,5.17,0S54,170.54,79.26,183.39c2.27,1.15,1.7,3.46-.62,4.9l-36,20.5a5.82,5.82,0,0,1-5.18,0L1.53,188.37C-.42,187.45-.41,184.42,1,183.61Z" fill="url(#aa)"/><path d="M1.51,183l36.06-20.51a5.77,5.77,0,0,1,5.17,0l35.9,20.45c1.43.81,1.43,2.13,0,2.94l-36,20.5a5.82,5.82,0,0,1-5.18,0L1.53,185.93C.11,185.12.1,183.82,1.51,183Z" fill="#fae1b4"/><path d="M10.07,183.92l29.2-16.61a1.93,1.93,0,0,1,1.72,0l29.08,16.55c.48.27.48.71,0,1L40.88,201.44a2,2,0,0,1-1.73,0L10.07,184.9A.52.52,0,0,1,10.07,183.92Z" fill="#fff"/><path d="M46.08,194.92l-3.34,1.93L34.26,192c-2-1.13-2-2.53,0-3.66L45,182.12a8.42,8.42,0,0,1,4.85-.42,4.22,4.22,0,0,1,1.29.43l8.61,3.75V187l-3.52,2-.93-.52v1.06L47,194.39l-5.66-3.22-.94.53,5.68,2Zm-7.26-10.54a11,11,0,0,1-9.85.45c-2.86-1.41-3.08-3.92-.49-5.59a11.06,11.06,0,0,1,9.86-.45C41.19,180.21,41.41,182.71,38.82,184.38Z" fill="#f36309"/><path d="M46.08,193.71l-3.34,1.92-8.48-4.83c-2-1.13-2-2.53,0-3.66L45,180.9a8.42,8.42,0,0,1,4.85-.42,4.22,4.22,0,0,1,1.29.43l8.61,4.89-3.52,2-5.08-2.89-.94.53,5.09,2.9L47,193.17,41.34,190l-.94.53Zm-7.26-10.55a11,11,0,0,1-9.85.45c-2.86-1.41-3.08-3.92-.49-5.59a11.06,11.06,0,0,1,9.86-.45C41.19,179,41.41,181.49,38.82,183.16Z" fill="url(#ab)"/><path d="M55.45,151.85,92,133.16a5.82,5.82,0,0,1,5.18,0s11.24,5.65,36.51,18.49c2.28,1.16,1.7,3.47-.62,4.91L97.06,177a5.76,5.76,0,0,1-5.18,0L56,156.6C54,155.69,54.05,152.66,55.45,151.85Z" fill="url(#ac)"/><path d="M56,151.24,92,130.72a5.82,5.82,0,0,1,5.18,0l35.89,20.45c1.43.82,1.43,2.13,0,3l-36,20.5a5.82,5.82,0,0,1-5.18,0L56,154.17C54.56,153.36,54.55,152.05,56,151.24Z" fill="#fae1b4"/><path d="M64.52,152.16l29.2-16.61a1.92,1.92,0,0,1,1.73,0l29.08,16.55a.52.52,0,0,1,0,1l-29.2,16.61a1.93,1.93,0,0,1-1.72,0L64.53,153.14C64.05,152.87,64.05,152.43,64.52,152.16Z" fill="#fff"/><path d="M100.53,163.16l-3.34,1.92-8.47-4.82c-2-1.13-2-2.53-.06-3.66l10.83-6.24a8.43,8.43,0,0,1,4.85-.42,4.29,4.29,0,0,1,1.3.43l8.6,3.75v1.14l-3.52,2-.93-.53v1.06l-8.33,4.81-5.67-3.23-.94.53,5.68,2Zm-7.26-10.55a11,11,0,0,1-9.85.46c-2.86-1.42-3.07-3.92-.49-5.59a11.09,11.09,0,0,1,9.86-.46C95.65,148.44,95.86,150.94,93.27,152.61Z" fill="#f36309"/><path d="M100.53,161.94l-3.34,1.92L88.72,159c-2-1.13-2-2.53-.06-3.66l10.83-6.24a8.43,8.43,0,0,1,4.85-.42,4.29,4.29,0,0,1,1.3.43l8.6,4.89-3.52,2-5.08-2.89-.94.53,5.09,2.89-8.33,4.81-5.67-3.23-.94.53Zm-7.26-10.55a11,11,0,0,1-9.85.46c-2.86-1.42-3.07-3.92-.49-5.59a11.09,11.09,0,0,1,9.86-.46C95.65,147.22,95.86,149.72,93.27,151.39Z" fill="url(#ad)"/><path d="M108.77,122.35l36.57-18.68a5.77,5.77,0,0,1,5.17,0s11.25,5.64,36.52,18.49c2.27,1.15,1.7,3.46-.62,4.9l-36,20.5a5.82,5.82,0,0,1-5.18,0l-35.9-20.42C107.35,126.19,107.36,123.17,108.77,122.35Z" fill="url(#ae)"/><path d="M109.28,121.74l36.06-20.51a5.77,5.77,0,0,1,5.17,0l35.9,20.45c1.43.81,1.43,2.13,0,2.94l-36,20.5a5.82,5.82,0,0,1-5.18,0l-35.9-20.42C107.88,123.86,107.87,122.56,109.28,121.74Z" fill="#fae1b4"/><path d="M117.84,122.66,147,106.05a1.93,1.93,0,0,1,1.72,0l29.08,16.55c.48.28.48.71,0,1l-29.19,16.6a2,2,0,0,1-1.73,0l-29.08-16.54C117.37,123.37,117.37,122.94,117.84,122.66Z" fill="#fff"/><path d="M153.85,133.67l-3.34,1.92L142,130.77c-2-1.14-2-2.54-.05-3.67l10.83-6.24a8.42,8.42,0,0,1,4.85-.42,4.22,4.22,0,0,1,1.29.43l8.61,3.75v1.15l-3.52,2-.93-.52v1.06l-8.34,4.8-5.66-3.22-.94.53,5.68,2Zm-7.26-10.55a11,11,0,0,1-9.85.45c-2.86-1.41-3.08-3.92-.49-5.59a11.09,11.09,0,0,1,9.86-.45C149,119,149.18,121.45,146.59,123.12Z" fill="#f36309"/><path d="M153.85,132.45l-3.34,1.92L142,129.55c-2-1.14-2-2.54-.05-3.67l10.83-6.24a8.42,8.42,0,0,1,4.85-.42,4.22,4.22,0,0,1,1.29.43l8.61,4.9-3.52,2L159,123.68l-.94.53,5.09,2.9-8.34,4.8-5.66-3.22-.94.53Zm-7.26-10.55a11,11,0,0,1-9.85.45c-2.86-1.41-3.08-3.92-.49-5.59a11.09,11.09,0,0,1,9.86-.45C149,117.73,149.18,120.23,146.59,121.9Z" fill="url(#af)"/></svg>