<svg width="400" height="400" viewBox="0 0 400 400" xmlns="http://www.w3.org/2000/svg" xmlns:xlink="http://www.w3.org/1999/xlink" overflow="hidden"><defs><linearGradient x1="79.7469%" y1="-65.7822%" x2="38.1982%" y2="73.0609%" id="linearGradient-1"><stop offset="0" stop-color="#FAB643"/><stop offset="0.559689" stop-color="#F48222"/><stop offset="1" stop-color="#F16322" stop-opacity="0"/></linearGradient><linearGradient x1="50%" y1="0%" x2="50%" y2="100%" id="linearGradient-2"><stop offset="0" stop-color="#D46700"/><stop offset="1" stop-color="#FA9D2C"/></linearGradient><linearGradient x1="50%" y1="0%" x2="32.7307%" y2="48.6872%" id="linearGradient-3"><stop offset="0" stop-color="#D46700"/><stop offset="1" stop-color="#FA9D2C"/></linearGradient><linearGradient x1="50%" y1="5.03686%" x2="45.0626%" y2="90.635%" id="linearGradient-4"><stop offset="0" stop-color="#FFFFFF"/><stop offset="1" stop-color="#E2E7EC"/></linearGradient><linearGradient x1="186.085%" y1="100%" x2="5.55112e-15%" y2="21.8679%" id="linearGradient-5"><stop offset="0" stop-color="#FAB643"/><stop offset="0.559689" stop-color="#F48222"/><stop offset="1" stop-color="#F16322"/></linearGradient><linearGradient x1="28.7148%" y1="68.4738%" x2="75.5484%" y2="23.2949%" id="linearGradient-6"><stop offset="0" stop-color="#FEAB33"/><stop offset="1" stop-color="#F89528"/></linearGradient><linearGradient x1="80.7875%" y1="-65.7822%" x2="37.7854%" y2="73.0609%" id="linearGradient-7"><stop offset="0" stop-color="#FAB643"/><stop offset="0.559689" stop-color="#F48222"/><stop offset="1" stop-color="#F16322" stop-opacity="0"/></linearGradient><radialGradient cx="71.9149%" cy="36.2503%" r="67.4987%" fx="71.9149%" fy="36.2503%" id="radialGradient-8"><stop offset="0" stop-color="#FFC47C"/><stop offset="0.68956" stop-color="#F48826"/><stop offset="1" stop-color="#F16322"/></radialGradient><linearGradient x1="50%" y1="0%" x2="50%" y2="100%" id="linearGradient-9"><stop offset="0" stop-color="#FAE1B4"/><stop offset="1" stop-color="#F9A44E"/></linearGradient><linearGradient x1="34.2852%" y1="-465.598%" x2="41.7475%" y2="50%" id="linearGradient-10"><stop offset="0" stop-color="#FAB643"/><stop offset="0.559689" stop-color="#F48222"/><stop offset="1" stop-color="#F16322"/></linearGradient><linearGradient x1="5.68116%" y1="-114.304%" x2="54.6122%" y2="71.9158%" id="linearGradient-11"><stop offset="0" stop-color="#FAB643"/><stop offset="0.559689" stop-color="#F48222"/><stop offset="1" stop-color="#F16322" stop-opacity="0"/></linearGradient><linearGradient x1="-46.1895%" y1="-114.304%" x2="60.0103%" y2="71.9158%" id="linearGradient-12"><stop offset="0" stop-color="#FAB643"/><stop offset="0.559689" stop-color="#F48222"/><stop offset="1" stop-color="#F16322" stop-opacity="0"/></linearGradient><linearGradient x1="79.7469%" y1="-65.7822%" x2="38.1982%" y2="73.0609%" id="linearGradient-13"><stop offset="0" stop-color="#FAB643"/><stop offset="0.559689" stop-color="#F48222"/><stop offset="1" stop-color="#F16322" stop-opacity="0"/></linearGradient><linearGradient x1="95.6314%" y1="-65.7822%" x2="31.8962%" y2="73.0609%" id="linearGradient-14"><stop offset="0" stop-color="#FAB643"/><stop offset="0.559689" stop-color="#F48222"/><stop offset="1" stop-color="#F16322" stop-opacity="0"/></linearGradient><linearGradient x1="6.43368%" y1="-20.1976%" x2="27.1215%" y2="50%" id="linearGradient-15"><stop offset="0" stop-color="#FAB643"/><stop offset="0.559689" stop-color="#F48222"/><stop offset="1" stop-color="#F16322"/></linearGradient><linearGradient x1="6.43368%" y1="-20.1976%" x2="65.9646%" y2="112.536%" id="linearGradient-16"><stop offset="0" stop-color="#FAB643"/><stop offset="0.600586" stop-color="#F48222"/><stop offset="1" stop-color="#F16322"/></linearGradient><linearGradient x1="6.43368%" y1="-20.1976%" x2="65.9646%" y2="112.536%" id="linearGradient-17"><stop offset="0" stop-color="#FAB643"/><stop offset="0.600586" stop-color="#F48222"/><stop offset="1" stop-color="#F16322"/></linearGradient><linearGradient x1="6.43368%" y1="-20.1976%" x2="27.1215%" y2="50%" id="linearGradient-18"><stop offset="0" stop-color="#FAB643"/><stop offset="0.559689" stop-color="#F48222"/><stop offset="1" stop-color="#F16322"/></linearGradient><linearGradient x1="137.963%" y1="-31.4183%" x2="19.1211%" y2="74.2576%" id="linearGradient-19"><stop offset="0" stop-color="#FFAD38"/><stop offset="1" stop-color="#F36309"/></linearGradient><linearGradient x1="6.43368%" y1="-20.1976%" x2="65.9646%" y2="112.536%" id="linearGradient-20"><stop offset="0" stop-color="#FAB643"/><stop offset="0.600586" stop-color="#F48222"/><stop offset="1" stop-color="#F16322"/></linearGradient><linearGradient x1="68.3169%" y1="0%" x2="19.1211%" y2="74.2576%" id="linearGradient-21"><stop offset="0" stop-color="#FFAD38"/><stop offset="1" stop-color="#F36309"/></linearGradient><linearGradient x1="50%" y1="32.3042%" x2="-54.6959%" y2="193.94%" id="linearGradient-22"><stop offset="0" stop-color="#FFC470"/><stop offset="1" stop-color="#F36309"/></linearGradient><linearGradient x1="6.43368%" y1="-20.1976%" x2="27.1215%" y2="50%" id="linearGradient-23"><stop offset="0" stop-color="#FAB643"/><stop offset="0.559689" stop-color="#F48222"/><stop offset="1" stop-color="#F16322"/></linearGradient><linearGradient x1="6.43368%" y1="-20.1976%" x2="65.9646%" y2="112.536%" id="linearGradient-24"><stop offset="0" stop-color="#FAB643"/><stop offset="0.600586" stop-color="#F48222"/><stop offset="1" stop-color="#F16322"/></linearGradient></defs><g id="Agent-Network" fill="none" fill-rule="evenodd"><g id="2-Agent-Network" transform="translate(61.0328 27)"><g id="Group-51" fill-rule="nonzero" transform="matrix(-1 0 0 1 228.02 0.567213)"><path d="M76.9141 166.053 0.459277 122.787C0.477201 85.7715 0.497885 67.1529 0.521328 66.9311L76.9141 107.261 76.9141 166.053Z" id="Shape-Copy-8" fill="url(#linearGradient-1)" opacity="0.2" transform="matrix(-1 0 0 1 77.3734 0)"/><path d="M0.455134 63.355 38.278 6.10578 71.6364 23.3085C71.6616 23.3214 71.6864 23.3353 71.7108 23.3498L76.5561 26.2414 76.5561 44.2789 4.54581 123.886 0.899274 122.544C0.358983 122.345 0 121.831 0 121.255L0 64.8696C0 64.3311 0.158269 63.8043 0.455134 63.355Z" id="Shape" fill="url(#linearGradient-2)"/><path d="M0 65.6171 3.67699 66.9155 65.7702 26.8655 76.5561 26.8655 76.5561 44.9028 4.54581 124.059 0.899274 122.717C0.358983 122.518 0 122.003 0 121.427L0 65.6171Z" id="Shape" fill="url(#linearGradient-3)"/><path d="M5.00074 38.8211 69.8737 0.31047C70.5261-0.0768338 71.3691 0.138094 71.7564 0.790525 71.8823 1.00275 71.9488 1.245 71.9488 1.4918L71.9488 54.5263C71.9488 55.4887 71.4452 56.3811 70.6211 56.8785L5.73945 96.044C5.0899 96.4361 4.24547 96.2274 3.85336 95.5778 3.72404 95.3636 3.65569 95.1182 3.65569 94.8679L3.65569 41.1838C3.65569 40.214 4.16687 39.3161 5.00074 38.8211Z" id="Shape" fill="url(#linearGradient-4)"/><path d="M28.0269 41.9437 10.9671 51.8194 10.9671 48.1559 28.0269 38.2803Z" id="Shape" fill="#F36309"/><path d="M64.5839 29.3295 64.5839 32.993 10.9671 64.031 10.9671 60.3675Z" id="Shape" fill="#F36309"/><path d="M10.9671 72.5956 64.5839 41.5193 64.5839 45.1828 10.9671 76.2591Z" id="Shape" fill="#F36309"/><path d="M3.65569 66.6775 40.2126 71.0578 76.7695 26.8655 76.7695 81.0612C76.7695 82.0403 76.2486 82.9453 75.4021 83.4371L5.71956 123.916C5.06349 124.297 4.22269 124.074 3.84158 123.418 3.71982 123.208 3.65569 122.97 3.65569 122.728L3.65569 66.6775Z" id="Shape" fill="url(#linearGradient-5)"/><path d="M41.0129 64.7212 75.8056 83.2497 6.09282 123.561Z" id="Shape" fill="url(#linearGradient-6)"/></g><g id="ill-global-reach" fill-rule="nonzero" transform="translate(169.379 114.01)"><path d="M0 53.8852 107.267 53.8852 107.267 136.95C107.267 166.571 83.2544 190.584 53.6334 190.584 24.0125 190.584-3.47791e-15 166.571 0 136.95L0 53.8852 0 53.8852Z" id="Rectangle" fill="url(#linearGradient-7)" opacity="0.2"/><circle cx="53.836" cy="53.4309" r="53.4309" id="a" fill="url(#radialGradient-8)"/><path d="M53.836 2.57939e-13 54.4421 0.00336637 54.4421 0.00336637 54.4415 10.7351 54.4497 10.7351C61.1872 7.9153 68.4378 6.38044 75.9946 6.38044 77.1228 6.38044 78.2474 6.41471 79.3676 6.48297 80.5614 7.13387 81.7274 7.82853 82.8636 8.56517 74.8498 7.52954 66.688 8.31747 58.9936 10.8911 75.842 12.0058 91.2196 19.0833 101.994 30.2585 102.781 31.8898 103.486 33.5671 104.107 35.2853 93.2989 21.8249 76.1182 13.3203 57.1704 12.5361 71.1053 19.6086 82.5125 32.3155 89.3639 48.2326 95.1354 45.4895 100.414 42.0729 105.024 38.0666 105.208 38.6789 105.381 39.2962 105.543 39.9178 100.94 43.8134 95.7186 47.1467 90.036 49.8407 93.9862 59.5769 96.2508 70.4533 96.3846 81.9366 97.7925 81.1366 99.1767 80.2958 100.536 79.4154 99.911 80.5326 99.2476 81.6275 98.547 82.6957 97.8323 83.1174 97.1122 83.5296 96.3861 83.9313 96.38 84.5554 96.3676 85.1786 96.3489 85.8008 95.7567 86.5773 95.1444 87.3363 94.5122 88.0779 94.5736 87.0102 94.6144 85.9416 94.6361 84.8725 82.443 91.2514 68.7092 94.6805 54.4415 94.7041L54.4408 106.856 53.836 106.862C53.4583 106.862 53.0815 106.858 52.7056 106.85L52.7056 94.6901C38.6131 94.4387 25.0789 90.8633 13.0818 84.4082 13.1005 85.658 13.1455 86.9036 13.2165 88.1446 12.5844 87.4053 11.972 86.6487 11.3801 85.8754 11.3545 85.0656 11.3401 84.255 11.3362 83.4426 10.392 82.9057 9.45832 82.3508 8.53558 81.7783 7.85845 80.6969 7.21836 79.5902 6.61769 78.4593L6.16899 78.1541C7.85469 79.313 9.58245 80.4094 11.3488 81.4412 11.541 70.1575 13.79 59.4697 17.6723 49.885 11.9741 47.194 6.73682 43.859 2.11985 39.9552 2.28028 39.3344 2.45246 38.7179 2.63532 38.1061L2.46789 37.9618C7.13382 42.037 12.4866 45.5037 18.3421 48.277 25.1765 32.3739 36.5571 19.6707 50.4639 12.582 30.9051 13.6633 13.326 22.9742 2.83982 37.4423 3.39401 35.6685 4.03951 33.9346 4.76965 32.2458 15.448 20.0905 31.3411 12.2819 48.8847 10.9414 41.1299 8.32203 32.8896 7.517 24.7961 8.57288 25.9334 7.83534 27.1008 7.13949 28.2958 6.48795 29.4395 6.41563 30.5851 6.38019 31.7314 6.38044 39.0752 6.38044 46.1299 7.83028 52.7063 10.5L52.7068 0.011696C53.0823 0.00391145 53.4587 2.57939e-13 53.836 2.57939e-13ZM88.4575 50.5667C78.2259 55.1365 66.5888 57.6724 54.4415 57.7582L54.4415 92.9622C68.4454 92.9391 81.9195 89.5704 93.8769 83.3052L94.6553 82.8925C94.6398 71.3101 92.4151 60.3473 88.4575 50.5667ZM19.2508 50.6096C15.3582 60.246 13.1476 71.0292 13.0729 82.4208 25.0235 89.026 38.5762 92.6917 52.7056 92.9475L52.7056 57.7537C40.7683 57.6081 29.3323 55.0966 19.2508 50.6096ZM54.4415 13.1527 54.4415 56.017C66.0307 55.9337 77.1369 53.577 86.9497 49.3289L87.7877 48.9594C80.7795 32.6563 68.8984 19.8163 54.4415 13.1527ZM52.7056 13.4233C38.4978 20.1668 26.8319 32.8974 19.9206 49.003 29.7877 53.4005 40.996 55.867 52.7056 56.0119L52.7056 13.4233Z" id="Shape" fill="url(#linearGradient-9)"/></g><g id="Group-4" fill-rule="nonzero" transform="translate(223.264 110.833)"><path d="M36.0749 16.7039 36.0749 49.5932 17.3047 60.5528 12.7362 57.7222 17.3047 27.6635 4.56847 34.8416-6.03961e-14 32.011 26.6898 3.55271e-14 44.2426 6.43655 48.8111 9.26714 36.0749 16.7039ZM36.0488 59.3001 36.0488 70.5717 17.5236 81.2717 12.9551 78.4411 17.5236 70.2905 31.4803 56.4695 36.0488 59.3001Z" id="Shape-Copy" fill="url(#linearGradient-10)" transform="matrix(-1 -1.22465e-16 1.22465e-16 -1 48.8111 81.2717)"/><path d="M36.0749 19.5345 36.0749 52.4238 17.3047 63.3834 17.3047 30.4941 4.56847 37.6722 26.6898 2.83059 48.8111 12.0977 36.0749 19.5345ZM36.0488 62.1307 36.0488 73.4023 17.5236 84.1023 17.5236 73.1211 36.0488 62.1307Z" id="Shape" fill="#FAE1B4" transform="matrix(-1 -1.22465e-16 1.22465e-16 -1 53.3796 86.9329)"/></g><path d="M85.7785 152.346 62.3934 139.333 62.3934 111.174" id="Shape" stroke="#F36309" stroke-width="1.25" stroke-linecap="round" stroke-linejoin="round"/><path d="M143.634 119.448 120.249 105.897 11.4473 169.047 20.8614 174.603" id="Shape" stroke="#F36309" stroke-width="1.25" stroke-linecap="round" stroke-linejoin="round"/><g id="Group-43" fill-rule="nonzero" transform="matrix(1 0 0 1 0 123.652)"><path d="M210.371 117.453 210.371 177.743 144.821 218.526 144.821 156.032Z" id="Shape" fill="url(#linearGradient-11)" opacity="0.6"/><path d="M80.6467 61.4885 80.6467 78.5378 40.4797 103.529 40.4797 85.1281Z" id="Shape-Copy-2" fill="url(#linearGradient-12)"/><path d="M134.997 30.8764 134.997 47.9257 94.8297 72.9164 94.8297 54.516Z" id="Shape-Copy-4" fill="url(#linearGradient-12)"/><path d="M187.709 0.927551 187.709 17.9769 147.542 42.9676 147.542 24.5672Z" id="Shape-Copy-6" fill="url(#linearGradient-12)"/><path d="M144.821 221.649 52.1836 169.226C52.2053 124.376 52.2304 101.816 52.2588 101.547L144.821 150.413 144.821 221.649Z" id="Shape" fill="url(#linearGradient-13)" opacity="0.2"/><path d="M40.4797 103.529 0.29905 80.7904C0.30847 68.0256 0.31934 61.585 0.331661 61.4685L40.4797 82.6635 40.4797 103.529Z" id="Shape-Copy-3" fill="url(#linearGradient-14)" opacity="0.4"/><path d="M94.8297 72.9164 54.6491 50.1783C54.6585 37.4135 54.6694 30.9729 54.6817 30.8564L94.8297 52.0515 94.8297 72.9164Z" id="Shape-Copy-5" fill="url(#linearGradient-14)" opacity="0.4"/><path d="M147.542 42.9676 107.362 20.2294C107.371 7.46469 107.382 1.02406 107.394 0.907541L147.542 22.1026 147.542 42.9676Z" id="Shape-Copy-7" fill="url(#linearGradient-14)" opacity="0.4"/><path d="M53.1331 97.7562 53.1331 102.154C53.1331 102.328 53.1774 102.504 53.2704 102.665 53.36 102.82 53.4893 102.949 53.6459 103.039L144.457 155.327C145.408 155.874 146.579 155.874 147.53 155.327L209.759 119.697C210.087 119.508 210.271 119.164 210.271 118.811L210.271 118.123 210.207 114.238 53.1331 97.7562Z" id="Shape" fill="url(#linearGradient-15)"/><path d="M115.784 61.2214 53.5245 96.8665C53.0344 97.1487 52.8665 97.7736 53.149 98.2623 53.2398 98.4176 53.3691 98.5466 53.5245 98.6363L144.398 150.994C145.349 151.542 146.521 151.542 147.472 150.994L209.731 115.349C210.221 115.067 210.389 114.442 210.106 113.953 210.016 113.798 209.887 113.669 209.731 113.579L118.857 61.2214C117.906 60.6739 116.735 60.6739 115.784 61.2214Z" id="Shape" fill="#FCFCFC"/><path d="M70.8257 105.18 129.775 71.2539 143.562 78.9592 84.2498 112.88Z" id="Shape" fill="#FBA611" opacity="0.3"/><path d="M86.7822 114.753 117.524 97.489 122.464 100.238 91.359 117.496Z" id="Shape" fill="#FBA611" opacity="0.3"/><path d="M94.2231 119.166 124.965 101.902 129.905 104.651 98.7998 121.909Z" id="Shape" fill="#FBA611" opacity="0.3"/><path d="M139.74 132.93 151.952 140.044 147.251 142.79 134.997 135.647 139.74 132.93ZM141.282 120.898 163.453 133.659 158.753 136.405 136.538 123.616 141.282 120.898ZM142.797 109.599 174.096 127.579 169.395 130.325 138.053 112.316 142.797 109.599ZM148.373 98.9422 186.046 120.897 181.346 123.643 143.629 101.66 148.373 98.9422ZM148.614 87.3508 195.921 115.048 191.221 117.794 143.87 90.0685 148.614 87.3508Z" id="Shape" fill="url(#linearGradient-16)"/><path d="M115.783 61.2214 53.5242 96.8665C53.0341 97.1487 52.8662 97.7736 53.1491 98.2623 53.2391 98.4176 53.3684 98.5466 53.5242 98.6363L64.9643 105.267 130.313 67.8616 118.857 61.2214C117.906 60.6739 116.734 60.6739 115.783 61.2214Z" id="Shape" fill="url(#linearGradient-17)"/><path d="M64.0951 98.6951C65.6614 98.6951 66.9311 97.9332 66.9311 96.9934 66.9311 96.0537 65.6614 95.2918 64.0951 95.2918 62.5288 95.2918 61.259 96.0537 61.259 96.9934 61.259 97.9332 62.5288 98.6951 64.0951 98.6951Z" id="Shape" fill="#FFFFFF"/><path d="M72.0361 94.1574C73.6024 94.1574 74.8721 93.3955 74.8721 92.4557 74.8721 91.516 73.6024 90.7541 72.0361 90.7541 70.4698 90.7541 69.2 91.516 69.2 92.4557 69.2 93.3955 70.4698 94.1574 72.0361 94.1574Z" id="Shape" fill="#FFFFFF"/></g><g id="Group-102" fill-rule="nonzero" transform="translate(12.4787 39.7049)"><g id="Group-27"><path d="M1.19378 26.6658 45.855 1.00966C46.5342 0.619556 47.4009 0.853815 47.791 1.5329 47.9144 1.74783 47.9794 1.99137 47.9794 2.23926L47.9794 52.5691C47.9794 53.0733 47.7117 53.5396 47.2762 53.7938L0.482097 81.1038 0.482097 27.8954C0.482097 27.3877 0.753543 26.9187 1.19378 26.6658Z" id="Shape" fill="#FEAB33" opacity="0.2"/><path d="M12.538 32.338 57.1992 6.68179C57.8784 6.29169 58.7451 6.52595 59.1353 7.20504 59.2587 7.41996 59.3237 7.6635 59.3237 7.91139L59.3237 58.2412C59.3237 58.7455 59.056 59.2117 58.6205 59.4659L11.8264 86.7759 11.8264 33.5676C11.8264 33.0598 12.0978 32.5908 12.538 32.338Z" id="Shape" fill="#FEAB33" opacity="0.2"/><path d="M21.5349 38.5135 66.273 13.3464C66.7414 13.0829 67.3184 13.1068 67.7634 13.4082L69.9535 14.8914 68.3094 48.5546 23.1715 94.5219 21.4437 93.3702C21.0491 93.1071 20.8121 92.6644 20.8121 92.1902L20.8121 39.7494C20.8121 39.2371 21.0884 38.7647 21.5349 38.5135Z" id="Shape" fill="url(#linearGradient-18)"/><path d="M23.8823 40.2789 68.5435 14.6228C69.2227 14.2327 70.0894 14.4669 70.4795 15.146 70.6029 15.3609 70.6679 15.6045 70.6679 15.8524L70.6679 66.1822C70.6679 66.6865 70.4002 67.1527 69.9647 67.4069L23.1706 94.7169 23.1706 41.5085C23.1706 41.0008 23.4421 40.5318 23.8823 40.2789Z" id="Shape" fill="#FAE1B4"/><path d="M30.1182 43.8869 62.3076 25.3954C62.9867 25.0052 63.8535 25.2395 64.2436 25.9186 64.367 26.1336 64.432 26.377 64.432 26.6249L64.432 62.882C64.432 63.3862 64.1643 63.8525 63.7288 64.1067L29.4066 84.1378 29.4066 45.1165C29.4066 44.6087 29.678 44.1397 30.1182 43.8869Z" id="Shape" fill="#FFFFFF"/></g><g id="Group-99" transform="translate(37.7764 36.9823)"><path d="M3.86899 34.1155 0.650027 36.7592 0 36.3256 0 25.1811C0 22.5581 1.40571 20.1363 3.68333 18.8352L16.2377 11.6642C17.3716 11.0164 18.8158 11.4106 19.4635 12.5445 19.6675 12.9016 19.7749 13.3058 19.7749 13.7171L19.7749 25.0301 16.3403 27.7953 15.6909 27.3628 15.6909 20.6843 14.6162 21.2861 14.6162 27.9767 5.59279 33.9303 4.9437 33.5016 4.9437 26.0512 3.86899 26.653 3.86899 34.1155Z" id="Shape" fill="url(#linearGradient-19)"/><path d="M4.51383 34.5454 0.644832 36.7554 0.644832 25.6109C0.644832 22.9879 2.05054 20.5661 4.32817 19.2652L16.8825 12.094C18.0164 11.4464 19.4606 11.8405 20.1084 12.9743 20.3124 13.3316 20.4197 13.7357 20.4197 14.1471L20.4197 25.4599 16.3357 27.7926 16.3357 21.1143 15.261 21.7161 15.261 28.4066 5.58855 33.9316 5.58855 26.4811 4.51383 27.083 4.51383 34.5454Z" id="Shape" fill="url(#linearGradient-20)"/><path d="M10.7517 14.0687C13.9343 12.0464 16.7585 7.12306 16.2916 3.70033 15.8246 0.277601 12.4475-1.01372 9.2649 1.00863 6.08239 3.03098 3.67223 7.42411 3.88167 10.8209 4.09112 14.2178 7.56918 16.0912 10.7517 14.0687Z" id="Shape" fill="url(#linearGradient-21)"/><path d="M11.019 13.9198C14.2015 11.8974 16.6116 7.50425 16.4022 4.10742 16.1928 0.710584 13.4431-0.403652 10.2605 1.6187 7.07797 3.64105 4.66781 8.03418 4.87726 11.431 5.08671 14.8279 7.83645 15.9421 11.019 13.9198Z" id="Shape" fill="url(#linearGradient-22)"/></g></g><g id="Group-11" fill-rule="nonzero" transform="matrix(1 0 0 1 0 162.223)"><path d="M1.2236 22.0713 37.7907 3.38862C39.206 2.56722 41.524 2.55398 42.968 3.35905 42.9739 3.3623 54.2111 9.00251 79.484 21.8471 81.7597 23.0037 81.1851 25.312 78.8658 26.7531L42.8315 47.2502C41.4018 48.0635 39.0837 48.0635 37.654 47.2502L1.75639 26.8308C-0.190548 25.9147-0.181675 22.8868 1.2236 22.0713Z" id="Shape" fill="url(#linearGradient-23)"/><path d="M1.73053 21.4615 37.7907 0.949607C39.206 0.128205 41.524 0.114965 42.968 0.920033 42.9739 0.923287 54.9397 7.73959 78.8658 21.369 80.2955 22.1822 80.2955 23.5008 78.8658 24.314L42.8315 44.8112C41.4018 45.6245 39.0837 45.6245 37.654 44.8112L1.75639 24.3918C0.336783 23.5843 0.325246 22.2771 1.73053 21.4615Z" id="Shape" fill="#FAE1B4"/><path d="M10.291 22.3843 39.4931 5.77339C39.9649 5.4996 40.7376 5.49518 41.2189 5.76353 41.2209 5.76462 50.9143 11.2818 70.2993 22.315 70.7758 22.5861 70.7758 23.0256 70.2993 23.2967L41.1057 39.9026C40.6291 40.1738 39.8565 40.1738 39.3799 39.9026L10.2996 23.361C9.82638 23.0919 9.82253 22.6562 10.291 22.3843Z" id="Shape" fill="#FFFFFF"/><path d="M46.3017 33.3867 42.9663 35.3084 34.4889 30.4863C32.4937 29.3515 32.4741 27.9527 34.4377 26.8215L45.2609 20.5855C46.2384 20.0223 48.4108 19.8325 50.1132 20.1615 50.6494 20.265 51.096 20.4132 51.4089 20.5912L60.0143 24.3423 60.0143 25.4861 56.4935 27.5147 55.567 26.9872 55.567 28.0485 47.2283 32.8529 41.561 29.6292 40.6252 30.1578 46.3017 32.2055 46.3017 33.3867ZM39.047 22.8387C36.4588 24.508 32.0458 24.7121 29.1904 23.2946 26.3349 21.8771 26.1182 19.3748 28.7064 17.7056 31.2945 16.0362 35.7074 15.8322 38.5629 17.2496 41.4184 18.6672 41.635 21.1695 39.047 22.8387Z" id="Shape" fill="#F36309"/><path d="M46.3017 32.1672 42.9663 34.0889 34.4889 29.2668C32.4937 28.132 32.4741 26.7332 34.4377 25.602L45.2609 19.366C46.2384 18.8028 48.4108 18.613 50.1132 18.942 50.6494 19.0455 51.096 19.1937 51.4089 19.3717L60.0143 24.2666 56.4935 26.2952 51.4133 23.4055 50.4777 23.934 55.567 26.829 47.2283 31.6334 41.561 28.4097 40.6252 28.9383 46.3017 32.1672ZM39.047 21.6192C36.4588 23.2885 32.0458 23.4926 29.1904 22.0751 26.3349 20.6576 26.1182 18.1552 28.7064 16.486 31.2945 14.8167 35.7074 14.6127 38.5629 16.0301 41.4184 17.4477 41.635 19.95 39.047 21.6192Z" id="Shape" fill="url(#linearGradient-24)"/></g><g id="Group-11" fill-rule="nonzero" transform="translate(54.4525 130.459)"><path d="M1.2236 22.0713 37.7907 3.38862C39.206 2.56722 41.524 2.55398 42.968 3.35905 42.9739 3.3623 54.2111 9.00251 79.484 21.8471 81.7597 23.0037 81.1851 25.312 78.8658 26.7531L42.8315 47.2502C41.4018 48.0635 39.0837 48.0635 37.654 47.2502L1.75639 26.8308C-0.190548 25.9147-0.181675 22.8868 1.2236 22.0713Z" id="Shape" fill="url(#linearGradient-23)"/><path d="M1.73053 21.4615 37.7907 0.949607C39.206 0.128205 41.524 0.114965 42.968 0.920033 42.9739 0.923287 54.9397 7.73959 78.8658 21.369 80.2955 22.1822 80.2955 23.5008 78.8658 24.314L42.8315 44.8112C41.4018 45.6245 39.0837 45.6245 37.654 44.8112L1.75639 24.3918C0.336783 23.5843 0.325246 22.2771 1.73053 21.4615Z" id="Shape" fill="#FAE1B4"/><path d="M10.291 22.3843 39.4931 5.77339C39.9649 5.4996 40.7376 5.49518 41.2189 5.76353 41.2209 5.76462 50.9143 11.2818 70.2993 22.315 70.7758 22.5861 70.7758 23.0256 70.2993 23.2967L41.1057 39.9026C40.6291 40.1738 39.8565 40.1738 39.3799 39.9026L10.2996 23.361C9.82638 23.0919 9.82253 22.6562 10.291 22.3843Z" id="Shape" fill="#FFFFFF"/><path d="M46.3017 33.3867 42.9663 35.3084 34.4889 30.4863C32.4937 29.3515 32.4741 27.9527 34.4377 26.8215L45.2609 20.5855C46.2384 20.0223 48.4108 19.8325 50.1132 20.1615 50.6494 20.265 51.096 20.4132 51.4089 20.5912L60.0143 24.3423 60.0143 25.4861 56.4935 27.5147 55.567 26.9872 55.567 28.0485 47.2283 32.8529 41.561 29.6292 40.6252 30.1578 46.3017 32.2055 46.3017 33.3867ZM39.047 22.8387C36.4588 24.508 32.0458 24.7121 29.1904 23.2946 26.3349 21.8771 26.1182 19.3748 28.7064 17.7056 31.2945 16.0362 35.7074 15.8322 38.5629 17.2496 41.4184 18.6672 41.635 21.1695 39.047 22.8387Z" id="Shape" fill="#F36309"/><path d="M46.3017 32.1672 42.9663 34.0889 34.4889 29.2668C32.4937 28.132 32.4741 26.7332 34.4377 25.602L45.2609 19.366C46.2384 18.8028 48.4108 18.613 50.1132 18.942 50.6494 19.0455 51.096 19.1937 51.4089 19.3717L60.0143 24.2666 56.4935 26.2952 51.4133 23.4055 50.4777 23.934 55.567 26.829 47.2283 31.6334 41.561 28.4097 40.6252 28.9383 46.3017 32.1672ZM39.047 21.6192C36.4588 23.2885 32.0458 23.4926 29.1904 22.0751 26.3349 20.6576 26.1182 18.1552 28.7064 16.486 31.2945 14.8167 35.7074 14.6127 38.5629 16.0301 41.4184 17.4477 41.635 19.95 39.047 21.6192Z" id="Shape" fill="url(#linearGradient-24)"/></g><g id="Group-11" fill-rule="nonzero" transform="translate(107.77 100.964)"><path d="M1.2236 22.0713 37.7907 3.38862C39.206 2.56722 41.524 2.55398 42.968 3.35905 42.9739 3.3623 54.2111 9.00251 79.484 21.8471 81.7597 23.0037 81.1851 25.312 78.8658 26.7531L42.8315 47.2502C41.4018 48.0635 39.0837 48.0635 37.654 47.2502L1.75639 26.8308C-0.190548 25.9147-0.181675 22.8868 1.2236 22.0713Z" id="Shape" fill="url(#linearGradient-23)"/><path d="M1.73053 21.4615 37.7907 0.949607C39.206 0.128205 41.524 0.114965 42.968 0.920033 42.9739 0.923287 54.9397 7.73959 78.8658 21.369 80.2955 22.1822 80.2955 23.5008 78.8658 24.314L42.8315 44.8112C41.4018 45.6245 39.0837 45.6245 37.654 44.8112L1.75639 24.3918C0.336783 23.5843 0.325246 22.2771 1.73053 21.4615Z" id="Shape" fill="#FAE1B4"/><path d="M10.291 22.3843 39.4931 5.77339C39.9649 5.4996 40.7376 5.49518 41.2189 5.76353 41.2209 5.76462 50.9143 11.2818 70.2993 22.315 70.7758 22.5861 70.7758 23.0256 70.2993 23.2967L41.1057 39.9026C40.6291 40.1738 39.8565 40.1738 39.3799 39.9026L10.2996 23.361C9.82638 23.0919 9.82253 22.6562 10.291 22.3843Z" id="Shape" fill="#FFFFFF"/><path d="M46.3017 33.3867 42.9663 35.3084 34.4889 30.4863C32.4937 29.3515 32.4741 27.9527 34.4377 26.8215L45.2609 20.5855C46.2384 20.0223 48.4108 19.8325 50.1132 20.1615 50.6494 20.265 51.096 20.4132 51.4089 20.5912L60.0143 24.3423 60.0143 25.4861 56.4935 27.5147 55.567 26.9872 55.567 28.0485 47.2283 32.8529 41.561 29.6292 40.6252 30.1578 46.3017 32.2055 46.3017 33.3867ZM39.047 22.8387C36.4588 24.508 32.0458 24.7121 29.1904 23.2946 26.3349 21.8771 26.1182 19.3748 28.7064 17.7056 31.2945 16.0362 35.7074 15.8322 38.5629 17.2496 41.4184 18.6672 41.635 21.1695 39.047 22.8387Z" id="Shape" fill="#F36309"/><path d="M46.3017 32.1672 42.9663 34.0889 34.4889 29.2668C32.4937 28.132 32.4741 26.7332 34.4377 25.602L45.2609 19.366C46.2384 18.8028 48.4108 18.613 50.1132 18.942 50.6494 19.0455 51.096 19.1937 51.4089 19.3717L60.0143 24.2666 56.4935 26.2952 51.4133 23.4055 50.4777 23.934 55.567 26.829 47.2283 31.6334 41.561 28.4097 40.6252 28.9383 46.3017 32.1672ZM39.047 21.6192C36.4588 23.2885 32.0458 23.4926 29.1904 22.0751 26.3349 20.6576 26.1182 18.1552 28.7064 16.486 31.2945 14.8167 35.7074 14.6127 38.5629 16.0301 41.4184 17.4477 41.635 19.95 39.047 21.6192Z" id="Shape" fill="url(#linearGradient-24)"/></g></g></g></svg>