<svg width="400" height="400" viewBox="0 0 400 400" xmlns="http://www.w3.org/2000/svg" xmlns:xlink="http://www.w3.org/1999/xlink" overflow="hidden"><defs><linearGradient x1="-55.3694%" y1="-113.671%" x2="36.408%" y2="77.8396%" id="linearGradient-1"><stop offset="0" stop-color="#FAB643"/><stop offset="0.559689" stop-color="#F48222"/><stop offset="1" stop-color="#F16322" stop-opacity="0"/></linearGradient><linearGradient x1="72.5141%" y1="-19.0354%" x2="38.4069%" y2="100%" id="linearGradient-2"><stop offset="0" stop-color="#FAB643"/><stop offset="0.559689" stop-color="#F48222"/><stop offset="1" stop-color="#F16322"/></linearGradient><linearGradient x1="123.067%" y1="-65.6134%" x2="41.7181%" y2="100%" id="linearGradient-3"><stop offset="0" stop-color="#FAB643"/><stop offset="0.559689" stop-color="#F48222"/><stop offset="1" stop-color="#F16322"/></linearGradient><linearGradient x1="111.273%" y1="10.7152%" x2="18.4486%" y2="78.4526%" id="linearGradient-4"><stop offset="0" stop-color="#FAB643"/><stop offset="0.559689" stop-color="#F48222"/><stop offset="1" stop-color="#F16322"/></linearGradient><linearGradient x1="-46.1228%" y1="-114.304%" x2="37.6008%" y2="77.9474%" id="linearGradient-5"><stop offset="0" stop-color="#FAB643"/><stop offset="0.559689" stop-color="#F48222"/><stop offset="1" stop-color="#F16322" stop-opacity="0"/></linearGradient><linearGradient x1="70.0888%" y1="-65.7822%" x2="42.6177%" y2="65.8004%" id="linearGradient-6"><stop offset="0" stop-color="#FAB643"/><stop offset="0.559689" stop-color="#F48222"/><stop offset="1" stop-color="#F16322" stop-opacity="0"/></linearGradient><linearGradient x1="-46.1228%" y1="-114.304%" x2="37.6008%" y2="77.9474%" id="linearGradient-7"><stop offset="0" stop-color="#FAB643"/><stop offset="0.559689" stop-color="#F48222"/><stop offset="1" stop-color="#F16322" stop-opacity="0"/></linearGradient><linearGradient x1="92.8661%" y1="-65.7822%" x2="34.2475%" y2="65.8004%" id="linearGradient-8"><stop offset="0" stop-color="#FAB643"/><stop offset="0.559689" stop-color="#F48222"/><stop offset="1" stop-color="#F16322" stop-opacity="0"/></linearGradient><linearGradient x1="50%" y1="-8.69787%" x2="50%" y2="120.137%" id="linearGradient-9"><stop offset="0" stop-color="#D46700"/><stop offset="1" stop-color="#FA9D2C"/></linearGradient><linearGradient x1="6.43368%" y1="26.1638%" x2="65.9646%" y2="71.2345%" id="linearGradient-10"><stop offset="0" stop-color="#FAB643"/><stop offset="0.600586" stop-color="#F48222"/><stop offset="1" stop-color="#F16322"/></linearGradient><linearGradient x1="87.2645%" y1="115.738%" x2="17.2824%" y2="-15.0841%" id="linearGradient-11"><stop offset="0" stop-color="#D46700"/><stop offset="1" stop-color="#FA9D2C"/></linearGradient><linearGradient x1="6.04995%" y1="33.1045%" x2="100%" y2="61.3731%" id="linearGradient-12"><stop offset="0" stop-color="#D46700"/><stop offset="1" stop-color="#FA9D2C"/></linearGradient><linearGradient x1="67.0335%" y1="21.9843%" x2="52.1792%" y2="63.5472%" id="linearGradient-13"><stop offset="0" stop-color="#FAB643"/><stop offset="0.559689" stop-color="#F48222"/><stop offset="1" stop-color="#F16322"/></linearGradient><linearGradient x1="-46.1228%" y1="-114.304%" x2="37.6008%" y2="77.9474%" id="linearGradient-14"><stop offset="0" stop-color="#FAB643"/><stop offset="0.559689" stop-color="#F48222"/><stop offset="1" stop-color="#F16322" stop-opacity="0"/></linearGradient><linearGradient x1="6.43368%" y1="-6.81313%" x2="65.9646%" y2="100.612%" id="linearGradient-15"><stop offset="0" stop-color="#FAB643"/><stop offset="0.600586" stop-color="#F48222"/><stop offset="1" stop-color="#F16322"/></linearGradient><linearGradient x1="28.8263%" y1="-20.1976%" x2="57.759%" y2="112.536%" id="linearGradient-16"><stop offset="0" stop-color="#FAB643"/><stop offset="0.600586" stop-color="#F48222"/><stop offset="1" stop-color="#F16322"/></linearGradient><linearGradient x1="19.6921%" y1="20.3988%" x2="50%" y2="71.3145%" id="linearGradient-17"><stop offset="0" stop-color="#FFE7BD"/><stop offset="1" stop-color="#FFBA60"/></linearGradient><linearGradient x1="-5.67187%" y1="-114.304%" x2="42.8187%" y2="77.9474%" id="linearGradient-18"><stop offset="0" stop-color="#FAB643"/><stop offset="0.559689" stop-color="#F48222"/><stop offset="1" stop-color="#F16322" stop-opacity="0"/></linearGradient><linearGradient x1="68.2219%" y1="-65.7822%" x2="43.3038%" y2="65.8004%" id="linearGradient-19"><stop offset="0" stop-color="#FAB643"/><stop offset="0.559689" stop-color="#F48222"/><stop offset="1" stop-color="#F16322" stop-opacity="0"/></linearGradient><linearGradient x1="68.3169%" y1="32.81%" x2="50%" y2="72.1326%" id="linearGradient-20"><stop offset="0" stop-color="#FFAD38"/><stop offset="1" stop-color="#F36309"/></linearGradient><linearGradient x1="40.7017%" y1="50%" x2="69.7789%" y2="133.409%" id="linearGradient-21"><stop offset="0" stop-color="#FFAD38"/><stop offset="1" stop-color="#F36309"/></linearGradient><linearGradient x1="74.0225%" y1="48.1242%" x2="221.249%" y2="97.7763%" id="linearGradient-22"><stop offset="0" stop-color="#FAB643"/><stop offset="0.600586" stop-color="#F48222"/><stop offset="1" stop-color="#F16322"/></linearGradient><linearGradient x1="191.15%" y1="64.6978%" x2="-3.31569%" y2="43.6828%" id="linearGradient-23"><stop offset="0" stop-color="#FFAD38"/><stop offset="1" stop-color="#F36309"/></linearGradient><linearGradient x1="-6.04772%" y1="-114.304%" x2="42.7702%" y2="77.9474%" id="linearGradient-24"><stop offset="0" stop-color="#FAB643"/><stop offset="0.559689" stop-color="#F48222"/><stop offset="1" stop-color="#F16322" stop-opacity="0"/></linearGradient><linearGradient x1="68.3499%" y1="-65.7822%" x2="43.2567%" y2="65.8004%" id="linearGradient-25"><stop offset="0" stop-color="#FAB643"/><stop offset="0.559689" stop-color="#F48222"/><stop offset="1" stop-color="#F16322" stop-opacity="0"/></linearGradient><linearGradient x1="50%" y1="38.9495%" x2="288.901%" y2="115.304%" id="linearGradient-26"><stop offset="0" stop-color="#FAB643"/><stop offset="0.600586" stop-color="#F48222"/><stop offset="1" stop-color="#F16322"/></linearGradient><linearGradient x1="100%" y1="5.38617%" x2="50%" y2="66.3037%" id="linearGradient-27"><stop offset="0" stop-color="#FFAD38"/><stop offset="1" stop-color="#F36309"/></linearGradient><linearGradient x1="12.1312%" y1="-114.304%" x2="45.1152%" y2="77.9474%" id="linearGradient-28"><stop offset="0" stop-color="#FAB643"/><stop offset="0.559689" stop-color="#F48222"/><stop offset="1" stop-color="#F16322" stop-opacity="0"/></linearGradient><linearGradient x1="67.5747%" y1="-65.7822%" x2="43.5416%" y2="65.8004%" id="linearGradient-29"><stop offset="0" stop-color="#FAB643"/><stop offset="0.559689" stop-color="#F48222"/><stop offset="1" stop-color="#F16322" stop-opacity="0"/></linearGradient><linearGradient x1="14.0307%" y1="52.6064%" x2="91.5159%" y2="51.8056%" id="linearGradient-30"><stop offset="0" stop-color="#F6931A"/><stop offset="1" stop-color="#D46700"/></linearGradient><linearGradient x1="24.0624%" y1="63.0671%" x2="89.5426%" y2="48.9586%" id="linearGradient-31"><stop offset="0" stop-color="#FFAD34"/><stop offset="1" stop-color="#E87000"/></linearGradient><linearGradient x1="-16.9069%" y1="62.9451%" x2="28.0939%" y2="46.3344%" id="linearGradient-32"><stop offset="0" stop-color="#FFFFFF"/><stop offset="1" stop-color="#E2E7EC"/></linearGradient><linearGradient x1="28.7148%" y1="56.714%" x2="75.5484%" y2="40.2945%" id="linearGradient-33"><stop offset="0" stop-color="#FEAB33"/><stop offset="1" stop-color="#F89528"/></linearGradient><linearGradient x1="6.43368%" y1="24.4881%" x2="65.9646%" y2="72.7274%" id="linearGradient-34"><stop offset="0" stop-color="#FAB643"/><stop offset="0.600586" stop-color="#F48222"/><stop offset="1" stop-color="#F16322"/></linearGradient><linearGradient x1="46.8496%" y1="30.8248%" x2="64.0874%" y2="33.5331%" id="linearGradient-35"><stop offset="0" stop-color="#FFFFFF" stop-opacity="0"/><stop offset="1" stop-color="#F6F6F7"/></linearGradient></defs><g id="Content-System-Component" fill="none" fill-rule="evenodd"><g id="illustration-Content-System-Components" transform="translate(47.1237 31)"><g id="Group-27" transform="translate(31.053 0)"><path d="M1.221 38.7596 68.2437 0.257647C68.9586-0.153064 69.8712 0.0935708 70.2819 0.808522 70.4119 1.03481 70.4803 1.29122 70.4803 1.55218L70.4803 77.1104C70.4803 77.6413 70.1984 78.1322 69.7399 78.3998L0.471724 118.826 0.471724 40.0541C0.471724 39.5196 0.757501 39.0258 1.221 38.7596Z" id="Shape" fill="#FEAB33" fill-rule="nonzero" opacity="0.2"/><path d="M13.1645 45.9256 80.1871 7.42373C80.9021 7.01301 81.8146 7.25965 82.2253 7.9746 82.3553 8.20089 82.4237 8.45729 82.4237 8.71826L82.4237 84.2765C82.4237 84.8073 82.1418 85.2983 81.6833 85.5659L12.4152 125.992 12.4152 47.2202C12.4152 46.6856 12.701 46.1919 13.1645 45.9256Z" id="Shape" fill="#FEAB33" fill-rule="nonzero" opacity="0.2"/><path d="M97.955 86.6674 97.955 118.228 24.4653 160.015 24.4653 125.537Z" id="Shape-Copy-4" fill="url(#linearGradient-1)" fill-rule="nonzero" opacity="0.5"/><path d="M25.2231 52.8767 92.4833 14.8223C92.9769 14.5431 93.5861 14.5676 94.0556 14.8856L97.5875 17.2774 94.4739 67.5061 27.943 135.259 25.1303 133.385C24.7149 133.108 24.4653 132.642 24.4653 132.142L24.4653 54.176C24.4653 53.638 24.7548 53.1416 25.2231 52.8767Z" id="Shape" fill="url(#linearGradient-2)"/><path d="M28.691 55.4804 95.7136 16.9785C96.4286 16.5678 97.3411 16.8144 97.7518 17.5294 97.8818 17.7557 97.9502 18.0121 97.9502 18.273L97.9502 93.8312C97.9502 94.3621 97.6683 94.853 97.2098 95.1206L27.9417 135.547 27.9417 56.7749C27.9417 56.2404 28.2275 55.7467 28.691 55.4804Z" id="Shape" fill="#FFFFFF"/><path d="M85.2877 87.7952C86.2648 87.2288 86.9935 87.1191 87.4738 87.466 87.9542 87.813 88.2005 88.6062 88.2128 89.8461L88.2128 91.3913C88.2128 92.6745 87.9726 93.7815 87.4923 94.7125 87.0119 95.6434 86.2812 96.3931 85.3001 96.9615 84.3353 97.5209 83.6087 97.6243 83.1202 97.2717 82.6316 96.9193 82.3812 96.1233 82.369 94.8835L82.369 93.3382C82.369 92.0546 82.6091 90.9526 83.0895 90.0323 83.5698 89.1121 84.3025 88.3663 85.2877 87.7952ZM84.2147 90.1679C83.9857 90.6707 83.8652 91.318 83.8529 92.11L83.8529 94.1336C83.8529 94.9674 83.9694 95.5214 84.2024 95.7951 84.4354 96.0688 84.8013 96.0608 85.3001 95.7715 85.7784 95.4949 86.132 95.1004 86.3609 94.5901 86.5898 94.0786 86.7104 93.4172 86.7226 92.6048L86.7226 90.5873C86.7226 89.7494 86.6083 89.2013 86.3793 88.9437 86.1504 88.6859 85.7865 88.7018 85.2877 88.991 84.8013 89.2729 84.4436 89.6653 84.2147 90.1679ZM72.4902 96.5881 75.9733 93.2871 76.1634 93.177 76.1634 102.136 74.6794 102.996 74.6794 95.8279 72.4902 97.8451 72.4902 96.5881ZM64.7579 99.6972C65.7349 99.1308 66.4635 99.0211 66.9438 99.3682 67.4242 99.7152 67.6706 100.508 67.6828 101.748L67.6828 103.293C67.6828 104.577 67.4426 105.684 66.9623 106.615 66.4819 107.545 65.7512 108.295 64.7701 108.864 63.8053 109.423 63.0787 109.526 62.5902 109.174 62.1017 108.821 61.8512 108.025 61.839 106.786L61.839 105.24C61.839 103.957 62.0792 102.855 62.5595 101.934 63.0399 101.014 63.7725 100.268 64.7579 99.6972ZM63.6847 102.07C63.4558 102.573 63.3352 103.22 63.323 104.012L63.323 106.036C63.323 106.87 63.4394 107.424 63.6725 107.697 63.9055 107.971 64.2713 107.963 64.7701 107.674 65.2484 107.397 65.602 107.003 65.831 106.492 66.0598 105.981 66.1804 105.319 66.1927 104.507L66.1927 102.489C66.1927 101.651 66.0783 101.103 65.8493 100.846 65.6204 100.588 65.2565 100.604 64.7579 100.893 64.2713 101.175 63.9136 101.567 63.6847 102.07ZM85.2877 73.1438C86.2648 72.5774 86.9935 72.4677 87.4738 72.8146 87.9542 73.1616 88.2005 73.9548 88.2128 75.1946L88.2128 76.7398C88.2128 78.0235 87.9726 79.1306 87.4923 80.0612 87.0119 80.9917 86.2812 81.7413 85.3001 82.31 84.3353 82.8694 83.6087 82.9728 83.1202 82.6203 82.6316 82.2679 82.3812 81.4718 82.369 80.2321L82.369 78.6868C82.369 77.4031 82.6091 76.3011 83.0895 75.3809 83.5698 74.4607 84.3025 73.7149 85.2877 73.1438ZM84.2147 75.5165C83.9857 76.0193 83.8652 76.6666 83.8529 77.4586L83.8529 79.4821C83.8529 80.316 83.9694 80.8699 84.2024 81.1437 84.4354 81.4174 84.8013 81.4096 85.3001 81.1204 85.7784 80.8432 86.132 80.4492 86.3609 79.9383 86.5898 79.4274 86.7104 78.7658 86.7226 77.9534L86.7226 75.9359C86.7226 75.0979 86.6083 74.5499 86.3793 74.2923 86.1504 74.0345 85.7865 74.0504 85.2877 74.3396 84.8013 74.6215 84.4436 75.0139 84.2147 75.5165ZM54.4929 105.648C55.4699 105.082 56.1985 104.972 56.6788 105.319 57.1592 105.666 57.4056 106.46 57.4178 107.699L57.4178 109.245C57.4178 110.528 57.1776 111.635 56.6973 112.566 56.2169 113.496 55.4862 114.246 54.5051 114.815 53.5403 115.374 52.8137 115.477 52.3252 115.125 51.8367 114.772 51.5862 113.976 51.574 112.737L51.574 111.191C51.574 109.908 51.8142 108.806 52.2945 107.886 52.7749 106.965 53.5076 106.219 54.4929 105.648ZM53.4197 108.021C53.1908 108.524 53.0702 109.171 53.058 109.963L53.058 111.987C53.058 112.821 53.1744 113.375 53.4075 113.648 53.6405 113.922 54.0063 113.914 54.5051 113.625 54.9834 113.348 55.337 112.954 55.566 112.443 55.7948 111.932 55.9154 111.27 55.9277 110.458L55.9277 108.44C55.9277 107.602 55.8133 107.055 55.5843 106.797 55.3554 106.539 54.9915 106.555 54.4929 106.844 54.0063 107.126 53.6486 107.519 53.4197 108.021ZM75.0229 79.0947C75.9999 78.5283 76.7285 78.4187 77.2088 78.7656 77.6892 79.1126 77.9355 79.9059 77.9478 81.1457L77.9478 82.691C77.9478 83.9746 77.7076 85.0816 77.2273 86.0122 76.7469 86.9427 76.0162 87.6923 75.0351 88.2612 74.0703 88.8204 73.3437 88.9238 72.8552 88.5714 72.3666 88.2189 72.1162 87.4229 72.104 86.1831L72.104 84.6378C72.104 83.3543 72.3441 82.2523 72.8245 81.332 73.3049 80.4116 74.0375 79.666 75.0229 79.0947ZM73.9497 81.4675C73.7208 81.9703 73.6002 82.6176 73.588 83.4096L73.588 85.4332C73.588 86.2671 73.7044 86.821 73.9374 87.0947 74.1704 87.3684 74.5363 87.3607 75.0351 87.0716 75.5134 86.7943 75.867 86.4002 76.0959 85.8894 76.3248 85.3784 76.4454 84.7168 76.4576 83.9044L76.4576 81.887C76.4576 81.049 76.3433 80.501 76.1143 80.2434 75.8854 79.9856 75.5215 80.0014 75.0229 80.2905 74.5363 80.5726 74.1786 80.965 73.9497 81.4675ZM44.2279 111.599C45.2049 111.033 45.9336 110.923 46.4138 111.27 46.8942 111.617 47.1406 112.411 47.1528 113.65L47.1528 115.196C47.1528 116.479 46.9126 117.586 46.4323 118.517 45.9519 119.447 45.2212 120.197 44.2401 120.766 43.2753 121.325 42.5487 121.429 42.0602 121.076 41.5717 120.724 41.3212 119.928 41.309 118.688L41.309 117.143C41.309 115.859 41.5492 114.757 42.0295 113.837 42.5099 112.916 43.2427 112.171 44.2279 111.599ZM43.1547 113.972C42.9258 114.475 42.8052 115.122 42.793 115.914L42.793 117.938C42.793 118.772 42.9094 119.326 43.1425 119.599 43.3755 119.873 43.7413 119.865 44.2401 119.576 44.7184 119.299 45.072 118.905 45.301 118.394 45.5298 117.883 45.6504 117.222 45.6628 116.409L45.6628 114.391C45.6628 113.553 45.5483 113.006 45.3193 112.748 45.0904 112.49 44.7265 112.506 44.2279 112.795 43.7413 113.077 43.3836 113.47 43.1547 113.972ZM64.7579 85.0458C65.7349 84.4794 66.4635 84.3697 66.9438 84.7168 67.4242 85.0637 67.6706 85.857 67.6828 87.0968L67.6828 88.642C67.6828 89.9257 67.4426 91.0328 66.9623 91.9633 66.4819 92.8939 65.7512 93.6435 64.7701 94.2122 63.8053 94.7716 63.0787 94.875 62.5902 94.5225 62.1017 94.17 61.8512 93.374 61.839 92.1342L61.839 90.589C61.839 89.3053 62.0792 88.2033 62.5595 87.283 63.0399 86.3627 63.7725 85.6171 64.7579 85.0458ZM63.6847 87.4187C63.4558 87.9214 63.3352 88.5687 63.323 89.3607L63.323 91.3843C63.323 92.2182 63.4394 92.7721 63.6725 93.0457 63.9055 93.3195 64.2713 93.3118 64.7701 93.0226 65.2484 92.7453 65.602 92.3513 65.831 91.8404 66.0598 91.3296 66.1804 90.6679 66.1927 89.8554L66.1927 87.8379C66.1927 87 66.0783 86.4521 65.8493 86.1944 65.6204 85.9367 65.2565 85.9525 64.7579 86.2416 64.2713 86.5236 63.9136 86.916 63.6847 87.4187ZM82.7552 61.3341 86.2383 58.0332 86.4284 57.9231 86.4284 66.8819 84.9444 67.7423 84.9444 60.574 82.7552 62.5912 82.7552 61.3341ZM51.9603 93.8388 55.4433 90.5378 55.6334 90.4277 55.6334 99.3865 54.1494 100.247 54.1494 93.0786 51.9603 95.0959 51.9603 93.8388ZM72.4902 67.2852 75.9733 63.9843 76.1634 63.8741 76.1634 72.833 74.6794 73.6933 74.6794 66.525 72.4902 68.5423 72.4902 67.2852ZM44.2279 96.948C45.2049 96.3816 45.9336 96.2717 46.4138 96.6189 46.8942 96.9659 47.1406 97.7591 47.1528 98.9989L47.1528 100.544C47.1528 101.828 46.9126 102.935 46.4323 103.865 45.9519 104.796 45.2212 105.546 44.2401 106.114 43.2753 106.674 42.5487 106.777 42.0602 106.425 41.5717 106.072 41.3212 105.276 41.309 104.036L41.309 102.491C41.309 101.207 41.5492 100.105 42.0295 99.1852 42.5099 98.2649 43.2427 97.5191 44.2279 96.948ZM43.1547 99.3208C42.9258 99.8235 42.8052 100.471 42.793 101.263L42.793 103.286C42.793 104.12 42.9094 104.674 43.1425 104.948 43.3755 105.222 43.7413 105.214 44.2401 104.925 44.7184 104.647 45.072 104.253 45.301 103.743 45.5298 103.232 45.6504 102.57 45.6628 101.758L45.6628 99.7401C45.6628 98.902 45.5483 98.3542 45.3193 98.0966 45.0904 97.8388 44.7265 97.8547 44.2279 98.1437 43.7413 98.4258 43.3836 98.8182 43.1547 99.3208ZM64.7579 70.3944C65.7349 69.828 66.4635 69.7184 66.9438 70.0653 67.4242 70.4123 67.6706 71.2055 67.6828 72.4454L67.6828 73.9906C67.6828 75.2742 67.4426 76.3814 66.9623 77.3119 66.4819 78.2424 65.7512 78.9921 64.7701 79.5608 63.8053 80.1202 63.0787 80.2235 62.5902 79.871 62.1017 79.5186 61.8512 78.7226 61.839 77.4827L61.839 75.9375C61.839 74.6539 62.0792 73.5519 62.5595 72.6316 63.0399 71.7113 63.7725 70.9656 64.7579 70.3944ZM63.6847 72.7672C63.4558 73.27 63.3352 73.9173 63.323 74.7093L63.323 76.7329C63.323 77.5667 63.4394 78.1207 63.6725 78.3943 63.9055 78.6681 64.2713 78.6603 64.7701 78.3712 65.2484 78.0939 65.602 77.6999 65.831 77.189 66.0598 76.6781 66.1804 76.0165 66.1927 75.204L66.1927 73.1865C66.1927 72.3485 66.0783 71.8006 65.8493 71.543 65.6204 71.2852 65.2565 71.3011 64.7579 71.5902 64.2713 71.8722 63.9136 72.2646 63.6847 72.7672ZM85.2877 43.8409C86.2648 43.2745 86.9935 43.1648 87.4738 43.5118 87.9542 43.8587 88.2005 44.652 88.2128 45.8918L88.2128 47.437C88.2128 48.7207 87.9726 49.8278 87.4923 50.7583 87.0119 51.6889 86.2812 52.4385 85.3001 53.0072 84.3353 53.5666 83.6087 53.67 83.1202 53.3175 82.6316 52.965 82.3812 52.169 82.369 50.9293L82.369 49.384C82.369 48.1003 82.6091 46.9983 83.0895 46.078 83.5698 45.1579 84.3025 44.4121 85.2877 43.8409ZM85.2877 45.0367C84.8013 45.3186 84.4436 45.711 84.2147 46.2137 84.0087 46.6662 83.8904 47.2357 83.8599 47.9225L83.8529 48.1557 83.8529 50.1793C83.8529 51.0132 83.9694 51.5671 84.2024 51.8409 84.4354 52.1145 84.8013 52.1068 85.3001 51.8176 85.7784 51.5404 86.132 51.1463 86.3609 50.6355 86.5669 50.1757 86.6852 49.5938 86.7157 48.8897L86.7226 48.6505 86.7226 46.633C86.7226 45.7951 86.6083 45.2471 86.3793 44.9894 86.1504 44.7317 85.7865 44.7475 85.2877 45.0367ZM51.9603 79.1874 55.4433 75.8864 55.6334 75.7763 55.6334 84.7352 54.1494 85.5955 54.1494 78.4272 51.9603 80.4445 51.9603 79.1874ZM72.4902 52.6338 75.9733 49.3329 76.1634 49.2227 76.1634 58.1816 74.6794 59.0419 74.6794 51.8736 72.4902 53.8909 72.4902 52.6338ZM44.2279 82.2965C45.2049 81.7301 45.9336 81.6203 46.4138 81.9675 46.8942 82.3145 47.1406 83.1077 47.1528 84.3475L47.1528 85.8927C47.1528 87.1764 46.9126 88.2835 46.4323 89.214 45.9519 90.1446 45.2212 90.8941 44.2401 91.4629 43.2753 92.0223 42.5487 92.1257 42.0602 91.7732 41.5717 91.4208 41.3212 90.6247 41.309 89.3849L41.309 87.8397C41.309 86.556 41.5492 85.454 42.0295 84.5337 42.5099 83.6135 43.2427 82.8677 44.2279 82.2965ZM43.1547 84.6694C42.9258 85.1721 42.8052 85.8194 42.793 86.6114L42.793 88.6349C42.793 89.4689 42.9094 90.0228 43.1425 90.2965 43.3755 90.5702 43.7413 90.5625 44.2401 90.2733 44.7184 89.9961 45.072 89.6019 45.301 89.0911 45.5298 88.5803 45.6504 87.9187 45.6628 87.1061L45.6628 85.0886C45.6628 84.2506 45.5483 83.7028 45.3193 83.4451 45.0904 83.1874 44.7265 83.2033 44.2279 83.4923 43.7413 83.7744 43.3836 84.1667 43.1547 84.6694ZM64.7579 55.743C65.7349 55.1766 66.4635 55.067 66.9438 55.4139 67.4242 55.7609 67.6706 56.5541 67.6828 57.7939L67.6828 59.3391C67.6828 60.6228 67.4426 61.7299 66.9623 62.6605 66.4819 63.591 65.7512 64.3406 64.7701 64.9093 63.8053 65.4687 63.0787 65.5721 62.5902 65.2196 62.1017 64.8672 61.8512 64.0711 61.839 62.8313L61.839 61.2861C61.839 60.0024 62.0792 58.9005 62.5595 57.9802 63.0399 57.0599 63.7725 56.3142 64.7579 55.743ZM63.6847 58.1158C63.4558 58.6186 63.3352 59.2659 63.323 60.0579L63.323 62.0814C63.323 62.9153 63.4394 63.4692 63.6725 63.7429 63.9055 64.0167 64.2713 64.0089 64.7701 63.7197 65.2484 63.4425 65.602 63.0485 65.831 62.5375 66.0598 62.0267 66.1804 61.3651 66.1927 60.5526L66.1927 58.5351C66.1927 57.6971 66.0783 57.1492 65.8493 56.8916 65.6204 56.6338 65.2565 56.6497 64.7579 56.9387 64.2713 57.2208 63.9136 57.6132 63.6847 58.1158ZM54.4929 61.694C55.4699 61.1276 56.1985 61.018 56.6788 61.3649 57.1592 61.7119 57.4056 62.5052 57.4178 63.745L57.4178 65.2903C57.4178 66.574 57.1776 67.681 56.6973 68.6115 56.2169 69.542 55.4862 70.2916 54.5051 70.8605 53.5403 71.4198 52.8137 71.5231 52.3252 71.1707 51.8367 70.8182 51.5862 70.0222 51.574 68.7824L51.574 67.2371C51.574 65.9536 51.8142 64.8516 52.2945 63.9313 52.7749 63.0109 53.5076 62.2652 54.4929 61.694ZM53.4197 64.0668C53.1908 64.5696 53.0702 65.2169 53.058 66.0089L53.058 68.0325C53.058 68.8664 53.1744 69.4203 53.4075 69.6939 53.6405 69.9677 54.0063 69.96 54.5051 69.6709 54.9834 69.3936 55.337 68.9995 55.566 68.4886 55.7948 67.9777 55.9154 67.3161 55.9277 66.5036L55.9277 64.4862C55.9277 63.6481 55.8133 63.1003 55.5843 62.8427 55.3554 62.5849 54.9915 62.6007 54.4929 62.8898 54.0063 63.1718 53.6486 63.5643 53.4197 64.0668ZM41.6954 70.4868 45.1783 67.186 45.3684 67.0759 45.3684 76.0348 43.8844 76.8952 43.8844 69.7268 41.6954 71.7439 41.6954 70.4868Z" id="Shape" fill="url(#linearGradient-3)" fill-rule="nonzero"/><path d="M28.691 55.4804 95.7136 16.9785C96.4286 16.5678 97.3411 16.8144 97.7518 17.5294 97.8818 17.7557 97.9502 18.0121 97.9502 18.273L97.9502 29.2123 27.9417 69.5912 27.9417 56.7749C27.9417 56.2404 28.2275 55.7467 28.691 55.4804Z" id="Shape" fill="url(#linearGradient-4)"/><path d="M92.0254 23.454C92.9412 22.9423 93.9162 23.4785 94.2032 24.6516 94.4902 25.8247 93.9805 27.1906 93.0647 27.7023 92.1489 28.214 91.1738 27.6779 90.8868 26.5048 90.5998 25.3316 91.1096 23.9658 92.0254 23.454Z" id="Shape" fill="#FCFCFC"/><path d="M85.9418 26.928C86.8576 26.4162 87.8326 26.9524 88.1196 28.1255 88.4066 29.2986 87.8968 30.6645 86.981 31.1762 86.0652 31.688 85.0902 31.1518 84.8032 29.9787 84.5162 28.8056 85.026 27.4397 85.9418 26.928Z" id="Shape" fill="#FCFCFC"/></g><path d="M40.6078 181.6 75.5917 161.734 76.4668 161.237 139.955 199.117 95.5512 224.579" id="Shape" stroke="#F36309" stroke-width="1.25" stroke-linecap="round" stroke-linejoin="round"/><line x1="135.419" y1="149.643" x2="94.9464" y2="172.431" id="Shape" stroke="#F36309" stroke-width="1.25" stroke-linecap="round" stroke-linejoin="round"/><g id="Group-43" transform="matrix(-1 0 0 1 260.562 111.074)"><g id="Group" fill-rule="nonzero" transform="translate(0.801824 28.0073)"><path d="M77.6 52.5984 77.6222 78.0526 24.4618 108.28 24.4396 83.7922Z" id="Shape-Copy-6" fill="url(#linearGradient-5)" opacity="0.5"/><path d="M24.4396 108.28 0.179714 94.5516 0.199404 70.0068 24.4396 83.7922Z" id="Shape-Copy-7" fill="url(#linearGradient-6)" opacity="0.5"/><path d="M159.958 2.376 159.977 23.5488 115.758 48.6921 115.74 25.764Z" id="Shape-Copy-4" fill="url(#linearGradient-7)" opacity="0.3"/><path d="M115.74 48.6858 70.6608 23.1756 70.6974 5.73307e-13 115.74 25.6155Z" id="Shape-Copy-5" fill="url(#linearGradient-8)" opacity="0.3"/></g><path d="M71.4626 25.9994 71.4626 29.7089C71.4626 29.8553 71.4998 30.0038 71.5786 30.1398 71.6545 30.2708 71.7637 30.3796 71.8951 30.4552L116.073 55.7068C116.876 56.1686 117.865 56.1686 118.667 55.7068L160.328 31.4622C160.605 31.3026 160.76 31.0129 160.76 30.7151L160.76 30.1351 160.706 26.858 71.4626 25.9994Z" id="Shape" fill="url(#linearGradient-9)"/><path d="M113.479 0.991486 71.7922 25.249C71.3786 25.487 71.2369 26.014 71.4757 26.4262 71.5516 26.5572 71.6608 26.666 71.7922 26.7417L116.023 52.0526C116.826 52.5144 117.814 52.5144 118.617 52.0526L160.304 27.7951C160.717 27.5571 160.859 27.03 160.62 26.6178 160.544 26.4868 160.435 26.378 160.304 26.3024L116.073 0.991486C115.27 0.529643 114.281 0.529643 113.479 0.991486Z" id="Shape" fill="#FCFCFC"/><path d="M113.479 0.991486 71.7922 25.249C71.3786 25.487 71.2369 26.014 71.4757 26.4262 71.5516 26.5572 71.6608 26.666 71.7922 26.7417L81.4482 32.3347 125.742 6.59211 116.073 0.991486C115.27 0.529643 114.281 0.529643 113.479 0.991486Z" id="Shape" fill="url(#linearGradient-10)"/><path d="M80.7145 26.7913C82.0366 26.7913 83.1083 26.1487 83.1083 25.356 83.1083 24.5633 82.0366 23.9208 80.7145 23.9208 79.3925 23.9208 78.3208 24.5633 78.3208 25.356 78.3208 26.1487 79.3925 26.7913 80.7145 26.7913Z" id="Shape" fill="#FFFFFF"/><path d="M87.417 22.9639C88.7391 22.9639 89.8108 22.3213 89.8108 21.5287 89.8108 20.736 88.7391 20.0934 87.417 20.0934 86.095 20.0934 85.0233 20.736 85.0233 21.5287 85.0233 22.3213 86.095 22.9639 87.417 22.9639Z" id="Shape" fill="#FFFFFF"/></g><g id="Group-60" transform="matrix(-1 0 0 1 260.367 130.184)"><path d="M63.9581 58.2163 63.4126 57.328 82.0018 46.1694C82.2472 46.0189 82.3241 45.698 82.1735 45.4527 82.1282 45.3789 82.0651 45.3176 81.9901 45.2742L52.6756 28.3846C52.1802 28.0983 51.568 28.1052 51.0792 28.4024L37.0137 36.6732C36.2756 37.122 35.3132 36.888 34.864 36.1505 34.7149 35.9056 34.636 35.6245 34.636 35.3378L34.636 0 35.679 0 35.679 35.3378C35.679 35.4333 35.7052 35.5271 35.755 35.6087 35.9047 35.8545 36.2255 35.9325 36.4715 35.7829L50.537 27.5122C51.3517 27.0167 52.3721 27.0053 53.1977 27.4825L82.5122 44.372C82.7373 44.5021 82.9264 44.6862 83.0624 44.9077 83.5143 45.6435 83.2836 46.6061 82.5472 47.0577L63.9581 58.2163Z" id="Shape" fill="url(#linearGradient-11)" fill-rule="nonzero"/><path d="M2.21443 78.3981 53.0234 46.5909C53.9628 46.0324 55.1327 46.0328 56.0718 46.5918L77.9243 59.5055C78.1161 61.4021 78.0716 62.5858 77.7909 63.0567 77.6639 63.2697 77.4858 63.4476 77.2727 63.5743L26.2056 94.0145C25.2663 94.573 24.252 94.9667 22.4739 94.0145L1.60956 81.6066C0.902642 81.1858 0.726784 80.4815 0.726784 79.5027 0.726784 79.2985 0.726784 78.634 0.726784 77.5092L2.21443 78.3981Z" id="Shape" fill="url(#linearGradient-12)"/><path d="M2.15323 75.3436 51.4942 46.0111C53.3761 44.8924 55.7192 44.8931 57.6004 46.0129L76.7047 57.3855C78.1217 58.229 78.5866 60.0615 77.7431 61.4785 77.4885 61.9061 77.1311 62.2633 76.7033 62.5177L27.3655 91.8512C25.4837 92.9701 23.1405 92.9695 21.2592 91.8496L2.15177 80.4759C0.734767 79.6324 0.269827 77.7999 1.1133 76.3829 1.3679 75.9552 1.72537 75.598 2.15323 75.3436Z" id="Shape" fill="#FDEBD1"/><path d="M67.4106 63.509 64.6709 61.9199C64.5197 61.8322 64.52 61.6899 64.6715 61.602L67.1845 60.1444C67.336 60.0565 67.5817 60.0565 67.7326 60.144L70.4723 61.7331C70.6235 61.8208 70.6232 61.9632 70.4716 62.0511L67.9587 63.5086C67.8072 63.5965 67.5614 63.5965 67.4106 63.509ZM8.24735 79.1825C8.09608 79.0948 8.09622 78.9525 8.24785 78.8645L10.8065 77.3804C10.958 77.2925 11.2036 77.2925 11.3548 77.3801L13.7289 78.7572C13.8802 78.845 13.88 78.9873 13.7284 79.0752L11.1698 80.5593C11.0182 80.6472 10.7726 80.6473 10.6215 80.5596L8.24735 79.1825ZM11.6746 77.1946C11.5234 77.1069 11.5235 76.9645 11.6751 76.8766L14.2337 75.3925C14.3853 75.3046 14.6309 75.3045 14.782 75.3922L17.1562 76.7693C17.3074 76.857 17.3073 76.9994 17.1557 77.0873L14.5971 78.5714C14.4455 78.6593 14.1999 78.6593 14.0488 78.5717L11.6746 77.1946ZM16.9267 78.0145C16.7755 77.9268 16.7756 77.7844 16.9272 77.6965L19.4858 76.2124C19.6374 76.1245 19.883 76.1244 20.0341 76.2121L22.4083 77.5892C22.5595 77.6769 22.5594 77.8193 22.4078 77.9072L19.8492 79.3913C19.6976 79.4792 19.452 79.4792 19.3009 79.3916L16.9267 78.0145ZM20.354 76.0266C20.2028 75.9388 20.2029 75.7965 20.3545 75.7085L22.9131 74.2244C23.0647 74.1365 23.3103 74.1365 23.4614 74.2241L25.8356 75.6012C25.9868 75.689 25.9867 75.8313 25.8351 75.9193L23.2764 77.4033C23.1249 77.4912 22.8793 77.4913 22.7281 77.4036L20.354 76.0266ZM23.7813 74.0386C23.63 73.9509 23.6302 73.8085 23.7818 73.7206L26.3404 72.2365C26.492 72.1486 26.7376 72.1485 26.8887 72.2362L29.2628 73.6133C29.4141 73.701 29.414 73.8434 29.2623 73.9313L26.7037 75.4154C26.5522 75.5033 26.3066 75.5033 26.1554 75.4157L23.7813 74.0386ZM27.2086 72.0507C27.0573 71.9629 27.0575 71.8206 27.2091 71.7326L29.7677 70.2485C29.9193 70.1606 30.1649 70.1606 30.316 70.2482L32.6901 71.6253C32.8414 71.7131 32.8413 71.8554 32.6896 71.9434L30.131 73.4274C29.9795 73.5153 29.7339 73.5154 29.5827 73.4277L27.2086 72.0507ZM30.6359 70.0627C30.4846 69.975 30.4848 69.8326 30.6364 69.7447L33.195 68.2606C33.3465 68.1727 33.5921 68.1726 33.7433 68.2603L36.1174 69.6374C36.2687 69.7251 36.2685 69.8674 36.1169 69.9554L33.5583 71.4395C33.4068 71.5274 33.1612 71.5274 33.01 71.4398L30.6359 70.0627ZM34.0632 68.0747C33.9119 67.987 33.912 67.8447 34.0637 67.7567L36.6223 66.2726C36.7738 66.1847 37.0194 66.1847 37.1706 66.2723L39.5447 67.6494C39.696 67.7372 39.6958 67.8795 39.5442 67.9674L36.9856 69.4515C36.834 69.5394 36.5884 69.5395 36.4373 69.4518L34.0632 68.0747ZM37.4905 66.0868C37.3392 65.9991 37.3393 65.8567 37.491 65.7688L40.0496 64.2847C40.2011 64.1968 40.4467 64.1967 40.5979 64.2844L42.972 65.6615C43.1233 65.7492 43.1231 65.8915 42.9715 65.9795L40.4129 67.4636C40.2613 67.5515 40.0157 67.5515 39.8646 67.4639L37.4905 66.0868ZM40.9177 64.0988C40.7665 64.0111 40.7666 63.8688 40.9182 63.7808L43.4769 62.2967C43.6284 62.2088 43.874 62.2088 44.0252 62.2964L46.3993 63.6735C46.5505 63.7613 46.5504 63.9036 46.3988 63.9915L43.8402 65.4756C43.6886 65.5635 43.443 65.5636 43.2919 65.4759L40.9177 64.0988ZM15.1019 75.2066C14.9507 75.1189 14.9508 74.9766 15.1024 74.8886L17.661 73.4045C17.8126 73.3166 18.0582 73.3166 18.2093 73.4042L20.5835 74.7813C20.7347 74.8691 20.7346 75.0114 20.583 75.0993L18.0243 76.5834C17.8728 76.6713 17.6272 76.6714 17.476 76.5837L15.1019 75.2066ZM18.5292 73.2187C18.3779 73.131 18.3781 72.9886 18.5297 72.9007L21.0883 71.4166C21.2399 71.3287 21.4855 71.3286 21.6366 71.4163L24.0107 72.7934C24.162 72.8811 24.1619 73.0235 24.0102 73.1114L21.4516 74.5955C21.3001 74.6834 21.0545 74.6834 20.9033 74.5958L18.5292 73.2187ZM21.9565 71.2308C21.8052 71.143 21.8054 71.0007 21.957 70.9127L24.5156 69.4286C24.6672 69.3407 24.9128 69.3407 25.0639 69.4283L27.438 70.8054C27.5893 70.8932 27.5892 71.0355 27.4375 71.1235L24.8789 72.6075C24.7274 72.6954 24.4818 72.6955 24.3306 72.6078L21.9565 71.2308ZM25.3838 69.2428C25.2325 69.1551 25.2327 69.0127 25.3843 68.9248L27.9429 67.4407C28.0944 67.3528 28.34 67.3527 28.4912 67.4404L30.8653 68.8175C31.0166 68.9052 31.0164 69.0475 30.8648 69.1355L28.3062 70.6196C28.1547 70.7075 27.9091 70.7075 27.7579 70.6199L25.3838 69.2428ZM28.8111 67.2548C28.6598 67.1671 28.6599 67.0248 28.8116 66.9368L31.3702 65.4527C31.5217 65.3648 31.7673 65.3648 31.9185 65.4524L34.2926 66.8295C34.4439 66.9173 34.4437 67.0596 34.2921 67.1475L31.7335 68.6316C31.5819 68.7195 31.3363 68.7196 31.1852 68.6319L28.8111 67.2548ZM32.2384 65.2669C32.0871 65.1792 32.0872 65.0368 32.2389 64.9489L34.7975 63.4648C34.949 63.3769 35.1946 63.3768 35.3458 63.4645L37.7199 64.8416C37.8712 64.9293 37.871 65.0716 37.7194 65.1596L35.1608 66.6437C35.0092 66.7316 34.7636 66.7316 34.6125 66.644L32.2384 65.2669ZM35.6656 63.2789C35.5144 63.1912 35.5145 63.0489 35.6661 62.9609L38.2248 61.4768C38.3763 61.3889 38.6219 61.3889 38.7731 61.4765L41.1472 62.8536C41.2984 62.9414 41.2983 63.0837 41.1467 63.1716L38.5881 64.6557C38.4365 64.7436 38.1909 64.7437 38.0398 64.656L35.6656 63.2789ZM39.0929 61.291C38.9417 61.2032 38.9418 61.0609 39.0934 60.973L41.652 59.4889C41.8036 59.401 42.0492 59.4009 42.2003 59.4886L44.5745 60.8657C44.7257 60.9534 44.7256 61.0957 44.574 61.1837L42.0154 62.6678C41.8638 62.7557 41.6182 62.7557 41.4671 62.6681L39.0929 61.291ZM11.5802 81.1157C11.4289 81.028 11.4291 80.8856 11.5803 80.7979L16.0133 78.2266C16.1646 78.1388 16.41 78.1389 16.5612 78.2266L18.9353 79.6036C19.0866 79.6914 19.0864 79.8337 18.9352 79.9214L14.5022 82.4927C14.3509 82.5805 14.1054 82.5805 13.9543 82.4928L11.5802 81.1157ZM5.91876 77.8319C5.76759 77.7442 5.76799 77.6018 5.91916 77.5141L8.56974 75.9767C8.72112 75.8889 8.96671 75.889 9.11756 75.9765L10.4876 76.7712C10.6388 76.8588 10.6384 77.0012 10.4872 77.0889L7.83667 78.6264C7.68528 78.7142 7.43969 78.7141 7.28884 78.6266L5.91876 77.8319ZM9.48314 75.7644C9.33197 75.6767 9.33237 75.5343 9.48353 75.4467L12.1341 73.9092C12.2855 73.8214 12.5311 73.8215 12.6819 73.909L14.052 74.7037C14.2032 74.7914 14.2028 74.9338 14.0516 75.0214L11.401 76.5589C11.2497 76.6467 11.0041 76.6466 10.8532 76.5591L9.48314 75.7644ZM13.0475 73.6969C12.8963 73.6093 12.8968 73.4669 13.0479 73.3792L15.6985 71.8418C15.8499 71.7539 16.0955 71.754 16.2463 71.8415L17.6164 72.6362C17.7676 72.7239 17.7672 72.8663 17.616 72.954L14.9654 74.4914C14.814 74.5792 14.5684 74.5791 14.4176 74.4916L13.0475 73.6969ZM16.6119 71.6295C16.4607 71.5418 16.4611 71.3994 16.6123 71.3117L19.2629 69.7743C19.4143 69.6865 19.6598 69.6866 19.8107 69.7741L21.1808 70.5687C21.3319 70.6564 21.3315 70.7988 21.1804 70.8865L18.5298 72.4239C18.3784 72.5117 18.1328 72.5117 17.982 72.4242L16.6119 71.6295ZM20.1763 69.562C20.0251 69.4743 20.0255 69.3319 20.1767 69.2442L22.8272 67.7068C22.9786 67.619 23.2242 67.6191 23.3751 67.7066L24.7452 68.5013C24.8963 68.589 24.8959 68.7314 24.7448 68.819L22.0942 70.3565C21.9428 70.4443 21.6972 70.4442 21.5464 70.3567L20.1763 69.562ZM23.7407 67.4945C23.5895 67.4069 23.5899 67.2645 23.741 67.1768L26.3916 65.6393C26.543 65.5515 26.7886 65.5516 26.9395 65.6391L28.3095 66.4338C28.4607 66.5215 28.4603 66.6639 28.3091 66.7516L25.6586 68.289C25.5072 68.3768 25.2616 68.3767 25.1107 68.2892L23.7407 67.4945ZM27.305 65.4271C27.1539 65.3394 27.1543 65.197 27.3054 65.1093L29.956 63.5719C30.1074 63.4841 30.353 63.4841 30.5038 63.5716L31.8739 64.3663C32.0251 64.454 32.0247 64.5964 31.8735 64.6841L29.2229 66.2215C29.0716 66.3093 28.826 66.3093 28.6751 66.2218L27.305 65.4271ZM30.8694 63.3596C30.7182 63.2719 30.7186 63.1295 30.8698 63.0418L33.5204 61.5044C33.6718 61.4166 33.9174 61.4167 34.0682 61.5042L35.4383 62.2989C35.5895 62.3866 35.5891 62.529 35.4379 62.6166L32.7873 64.1541C32.6359 64.2419 32.3903 64.2418 32.2395 64.1543L30.8694 63.3596ZM34.4338 61.2921C34.2826 61.2044 34.283 61.062 34.4342 60.9744L37.0848 59.4369C37.2361 59.3491 37.4817 59.3492 37.6326 59.4367L39.0027 60.2314C39.1538 60.3191 39.1534 60.4615 39.0023 60.5492L36.3517 62.0866C36.2003 62.1744 35.9547 62.1743 35.8039 62.0868L34.4338 61.2921ZM37.9982 59.2247C37.847 59.137 37.8474 58.9946 37.9986 58.9069L40.6491 57.3695C40.8005 57.2817 41.0461 57.2817 41.197 57.3692L42.5671 58.1639C42.7182 58.2516 42.7178 58.394 42.5667 58.4817L39.9161 60.0191C39.7647 60.1069 39.5191 60.1069 39.3682 60.0194L37.9982 59.2247ZM61.1159 52.3832 66.8227 55.6934C66.9741 55.7811 66.9739 55.9235 66.8225 56.0113L65.0404 57.0451C64.8889 57.1329 64.6436 57.133 64.4922 57.0452L61.4334 55.2709 60.9309 55.5624C60.7794 55.6503 60.5337 55.6503 60.3826 55.5627L58.0085 54.1856C57.8572 54.0979 57.8574 53.9555 58.009 53.8676L60.5676 52.3835C60.7191 52.2956 60.9647 52.2955 61.1159 52.3832ZM48.409 63.62C48.2577 63.5322 48.2579 63.3899 48.4095 63.3019L50.9681 61.8178C51.1197 61.7299 51.3653 61.7299 51.5164 61.8175L53.8905 63.1946C54.0418 63.2824 54.0417 63.4247 53.89 63.5127L51.3314 64.9967C51.1799 65.0846 50.9343 65.0847 50.7831 64.997L48.409 63.62ZM51.8363 61.632C51.685 61.5443 51.6852 61.4019 51.8368 61.314L54.3954 59.8299C54.5469 59.742 54.7926 59.7419 54.9437 59.8296L57.3178 61.2067C57.4691 61.2944 57.469 61.4368 57.3173 61.5247L54.7587 63.0088C54.6072 63.0967 54.3616 63.0967 54.2104 63.0091L51.8363 61.632ZM55.2636 59.6441C55.1123 59.5563 55.1124 59.414 55.2641 59.326L57.8227 57.8419C57.9742 57.754 58.2198 57.754 58.371 57.8416L60.7451 59.2187C60.8964 59.3065 60.8962 59.4488 60.7446 59.5368L58.186 61.0208C58.0345 61.1087 57.7888 61.1088 57.6377 61.0211L55.2636 59.6441ZM58.6909 57.6561C58.5396 57.5684 58.5397 57.426 58.6914 57.3381L61.25 55.854C61.4015 55.7661 61.6471 55.766 61.7983 55.8537L64.1724 57.2308C64.3237 57.3185 64.3235 57.4609 64.1719 57.5488L61.6133 59.0329C61.4617 59.1208 61.2161 59.1208 61.065 59.0332L58.6909 57.6561ZM57.8622 65.8694C57.7109 65.7817 57.711 65.6393 57.8627 65.5514L60.4213 64.0673C60.5728 63.9794 60.8185 63.9794 60.9696 64.067L63.7089 65.6559C63.8602 65.7437 63.8601 65.886 63.7084 65.974L61.1498 67.458C60.9983 67.5459 60.7526 67.5459 60.6015 67.4583L57.8622 65.8694ZM62.9328 64.8347C62.7817 64.747 62.782 64.6046 62.9335 64.5167L65.4464 63.0592C65.598 62.9713 65.8437 62.9713 65.9946 63.0588L67.0907 63.6946C67.2419 63.7823 67.2416 63.9246 67.09 64.0125L64.5771 65.4701C64.4256 65.558 64.1799 65.558 64.029 65.4705L62.9328 64.8347ZM69.696 60.9118C69.5449 60.8241 69.5452 60.6818 69.6967 60.5939L72.2096 59.1363C72.3612 59.0484 72.6069 59.0484 72.7577 59.1359L73.8539 59.7717C74.0051 59.8594 74.0047 60.0017 73.8532 60.0896L71.3403 61.5472C71.1888 61.6351 70.943 61.6351 70.7922 61.5476L69.696 60.9118ZM53.4295 68.4405C53.2783 68.3527 53.2782 68.2105 53.4299 68.1225L56.9942 66.0551C57.1456 65.9673 57.3913 65.9673 57.5423 66.0549L60.2816 67.6439C60.4329 67.7316 60.433 67.8738 60.2813 67.9618L56.717 70.0292C56.5656 70.1171 56.3199 70.117 56.1689 70.0294L53.4295 68.4405ZM60.3786 60.5435C60.2273 60.4557 60.2274 60.3134 60.3789 60.2256L67.2334 56.2497C67.3849 56.1618 67.6304 56.1618 67.7815 56.2495L70.1556 57.6266C70.3069 57.7143 70.3069 57.8566 70.1554 57.9445L63.3008 61.9204C63.1494 62.0082 62.9039 62.0082 62.7527 61.9205L60.3786 60.5435ZM53.524 64.5194C53.3727 64.4316 53.3729 64.2893 53.5245 64.2013L56.0831 62.7173C56.2347 62.6294 56.4803 62.6293 56.6314 62.717L59.0055 64.094C59.1568 64.1818 59.1567 64.3241 59.005 64.4121L56.4464 65.8962C56.2949 65.9841 56.0493 65.9841 55.8981 65.8965L53.524 64.5194ZM56.9513 62.5314C56.8 62.4437 56.8002 62.3013 56.9518 62.2134L59.5104 60.7293C59.662 60.6414 59.9076 60.6413 60.0587 60.729L62.4328 62.1061C62.5841 62.1938 62.584 62.3362 62.4323 62.4241L59.8737 63.9082C59.7222 63.9961 59.4766 63.9962 59.3254 63.9085L56.9513 62.5314ZM44.345 62.1109C44.1938 62.0232 44.1939 61.8808 44.3455 61.7929L46.9041 60.3088C47.0557 60.2209 47.3013 60.2208 47.4524 60.3085L49.8266 61.6856C49.9778 61.7733 49.9777 61.9156 49.8261 62.0036L47.2675 63.4877C47.1159 63.5756 46.8703 63.5756 46.7192 63.488L44.345 62.1109ZM47.7723 60.1229C47.6211 60.0352 47.6212 59.8929 47.7728 59.8049L50.3314 58.3208C50.483 58.2329 50.7286 58.2329 50.8797 58.3205L53.2538 59.6976C53.4051 59.7854 53.405 59.9277 53.2533 60.0156L50.6947 61.4997C50.5432 61.5876 50.2976 61.5877 50.1464 61.5L47.7723 60.1229ZM51.1996 58.135C51.0483 58.0472 51.0485 57.9049 51.2001 57.817L53.7587 56.3329C53.9103 56.245 54.1559 56.2449 54.307 56.3326L56.6811 57.7097C56.8324 57.7974 56.8323 57.9397 56.6806 58.0277L54.122 59.5118C53.9705 59.5997 53.7249 59.5997 53.5737 59.5121L51.1996 58.135ZM54.6269 56.147C54.4756 56.0593 54.4758 55.917 54.6274 55.829L57.186 54.3449C57.3375 54.257 57.5832 54.257 57.7343 54.3446L60.1084 55.7217C60.2597 55.8095 60.2596 55.9518 60.1079 56.0397L57.5493 57.5238C57.3978 57.6117 57.1522 57.6118 57.001 57.5241L54.6269 56.147ZM42.5202 59.303C42.3689 59.2153 42.3691 59.073 42.5207 58.985L45.0793 57.5009C45.2309 57.413 45.4765 57.413 45.6276 57.5006L48.0017 58.8777C48.153 58.9655 48.1529 59.1078 48.0013 59.1957L45.4426 60.6798C45.2911 60.7677 45.0455 60.7678 44.8943 60.6801L42.5202 59.303ZM45.9475 57.3151C45.7962 57.2273 45.7964 57.085 45.948 56.9971L48.5066 55.513C48.6582 55.4251 48.9038 55.425 49.0549 55.5127L51.429 56.8898C51.5803 56.9775 51.5802 57.1198 51.4285 57.2078L48.8699 58.6919C48.7184 58.7798 48.4728 58.7798 48.3216 58.6922L45.9475 57.3151ZM49.3748 55.3271C49.2235 55.2394 49.2237 55.0971 49.3753 55.0091L51.9339 53.525C52.0854 53.4371 52.3311 53.4371 52.4822 53.5247L54.8563 54.9018C55.0076 54.9895 55.0075 55.1319 54.8558 55.2198L52.2972 56.7039C52.1457 56.7918 51.9001 56.7919 51.7489 56.7042L49.3748 55.3271ZM52.8021 53.3392C52.6508 53.2514 52.651 53.1091 52.8022 53.0214L57.2352 50.4501C57.3865 50.3623 57.6319 50.3624 57.7831 50.45L60.1572 51.8271C60.3085 51.9149 60.3083 52.0572 60.1571 52.1449L55.7241 54.7162C55.5728 54.804 55.3273 54.8039 55.1762 54.7163L52.8021 53.3392ZM41.5625 57.1572C41.4114 57.0695 41.4118 56.9271 41.5629 56.8394L44.2135 55.302C44.3649 55.2142 44.6105 55.2143 44.7613 55.3018L46.1314 56.0965C46.2826 56.1842 46.2822 56.3265 46.131 56.4142L43.4804 57.9517C43.3291 58.0395 43.0835 58.0394 42.9326 57.9519L41.5625 57.1572ZM45.1269 55.0897C44.9758 55.002 44.9762 54.8596 45.1273 54.772L47.7779 53.2345C47.9293 53.1467 48.1749 53.1468 48.3257 53.2343L49.6958 54.029C49.847 54.1167 49.8466 54.2591 49.6954 54.3468L47.0448 55.8842C46.8934 55.972 46.6479 55.9719 46.497 55.8844L45.1269 55.0897ZM48.6913 53.0223C48.5401 52.9346 48.5405 52.7922 48.6917 52.7045L51.3423 51.1671C51.4937 51.0793 51.7393 51.0793 51.8901 51.1668L53.2602 51.9615C53.4114 52.0492 53.4109 52.1916 53.2598 52.2793L50.6092 53.8167C50.4578 53.9045 50.2122 53.9044 50.0614 53.817L48.6913 53.0223ZM52.2557 50.9548C52.1045 50.8671 52.1049 50.7247 52.2561 50.637L54.9067 49.0996C55.058 49.0118 55.3036 49.0119 55.4545 49.0994L56.8246 49.8941C56.9757 49.9817 56.9753 50.1241 56.8242 50.2118L54.1736 51.7493C54.0222 51.8371 53.7766 51.837 53.6258 51.7495L52.2557 50.9548ZM20.9907 79.5236C20.8394 79.4358 20.8396 79.2935 20.9912 79.2055L23.5498 77.7214C23.7014 77.6335 23.947 77.6335 24.0981 77.7212L26.4722 79.0982C26.6235 79.186 26.6234 79.3283 26.4717 79.4163L23.9131 80.9004C23.7616 80.9883 23.516 80.9883 23.3648 80.9006L20.9907 79.5236ZM24.418 77.5356C24.2667 77.4479 24.2669 77.3055 24.4185 77.2176L26.9771 75.7335C27.1287 75.6456 27.3743 75.6455 27.5254 75.7332L29.8995 77.1103C30.0508 77.198 30.0507 77.3404 29.899 77.4283L27.3404 78.9124C27.1889 79.0003 26.9433 79.0004 26.7921 78.9127L24.418 77.5356ZM27.8453 75.5477C27.694 75.4599 27.6942 75.3176 27.8458 75.2296L30.4044 73.7455C30.5559 73.6576 30.8015 73.6576 30.9527 73.7453L33.3268 75.1223C33.4781 75.2101 33.4779 75.3524 33.3263 75.4404L30.7677 76.9244C30.6162 77.0124 30.3706 77.0124 30.2194 76.9247L27.8453 75.5477ZM31.2726 73.5597C31.1213 73.472 31.1214 73.3296 31.2731 73.2417L33.8317 71.7576C33.9832 71.6697 34.2288 71.6696 34.38 71.7573L36.7541 73.1344C36.9054 73.2221 36.9052 73.3645 36.7536 73.4524L34.195 74.9365C34.0434 75.0244 33.7978 75.0245 33.6467 74.9368L31.2726 73.5597ZM34.6999 71.5718C34.5486 71.484 34.5487 71.3417 34.7004 71.2537L37.259 69.7696C37.4105 69.6817 37.6561 69.6817 37.8073 69.7693L40.1814 71.1464C40.3327 71.2342 40.3325 71.3765 40.1809 71.4645L37.6223 72.9485C37.4707 73.0364 37.2251 73.0365 37.074 72.9488L34.6999 71.5718ZM41.5544 67.5959C41.4032 67.5081 41.4033 67.3658 41.5549 67.2778L44.1135 65.7937C44.2651 65.7058 44.5107 65.7058 44.6618 65.7934L47.036 67.1705C47.1872 67.2583 47.1871 67.4006 47.0355 67.4886L44.4769 68.9726C44.3253 69.0605 44.0797 69.0606 43.9286 68.9729L41.5544 67.5959ZM44.9817 65.6079C44.8304 65.5202 44.8306 65.3778 44.9822 65.2899L47.5408 63.8058C47.6924 63.7179 47.938 63.7178 48.0891 63.8055L50.4632 65.1826C50.6145 65.2703 50.6144 65.4127 50.4627 65.5006L47.9041 66.9847C47.7526 67.0726 47.507 67.0726 47.3558 66.985L44.9817 65.6079ZM21.5786 86.9152C21.4274 86.8274 21.4275 86.6851 21.5791 86.5971L24.1377 85.1131C24.2893 85.0252 24.535 85.0252 24.686 85.1128L27.4254 86.7017C27.5767 86.7894 27.5765 86.9318 27.4249 87.0197L24.8663 88.5038C24.7147 88.5917 24.469 88.5917 24.318 88.5041L21.5786 86.9152ZM25.0059 84.9272C24.8546 84.8395 24.8548 84.6971 25.0064 84.6092L27.565 83.1251C27.7166 83.0372 27.9623 83.0372 28.1133 83.1248L30.8527 84.7137C31.004 84.8015 31.0038 84.9438 30.8522 85.0318L28.2936 86.5159C28.142 86.6038 27.8963 86.6038 27.7453 86.5162L25.0059 84.9272ZM28.4332 82.9393C28.2819 82.8515 28.2821 82.7092 28.4337 82.6212L30.9923 81.1372C31.1439 81.0492 31.3896 81.0493 31.5406 81.1369L34.28 82.7258C34.4312 82.8135 34.4311 82.9559 34.2795 83.0438L31.7209 84.5279C31.5693 84.6158 31.3236 84.6158 31.1726 84.5282L28.4332 82.9393ZM14.913 83.0489C14.7617 82.9611 14.762 82.8187 14.9134 82.7309L20.1226 79.7094C20.2741 79.6215 20.5197 79.6214 20.6708 79.7091L23.045 81.0862C23.1962 81.1739 23.1959 81.3164 23.0445 81.4042L17.8353 84.4257C17.6838 84.5136 17.4383 84.5136 17.2871 84.4259L14.913 83.0489ZM29.533 78.435C29.3817 78.3473 29.3819 78.2049 29.5335 78.117L32.0921 76.6329C32.2437 76.545 32.4893 76.545 32.6404 76.6326L35.0145 78.0097C35.1658 78.0974 35.1657 78.2398 35.014 78.3277L32.4554 79.8118C32.3039 79.8997 32.0583 79.8998 31.9071 79.8121L29.533 78.435ZM32.9603 76.4471C32.809 76.3593 32.8092 76.217 32.9608 76.1291L35.5194 74.645C35.6709 74.5571 35.9166 74.557 36.0677 74.6447L38.4418 76.0218C38.5931 76.1095 38.5929 76.2518 38.4413 76.3398L35.8827 77.8239C35.7312 77.9118 35.4856 77.9118 35.3344 77.8242L32.9603 76.4471ZM36.2931 78.3802C36.1418 78.2925 36.1419 78.1502 36.2936 78.0622L52.5614 68.6263C52.7129 68.5384 52.9586 68.5384 53.1097 68.626L55.849 70.215C56.0003 70.3027 56.0002 70.445 55.8485 70.533L39.5808 79.9689C39.4292 80.0568 39.1835 80.0568 39.0325 79.9692L36.2931 78.3802ZM36.3876 74.4591C36.2363 74.3714 36.2365 74.229 36.3881 74.1411L38.9467 72.657C39.0982 72.5691 39.3438 72.5691 39.495 72.6567L41.8691 74.0338C42.0204 74.1215 42.0202 74.2639 41.8686 74.3518L39.31 75.8359C39.1585 75.9238 38.9128 75.9239 38.7617 75.8362L36.3876 74.4591ZM39.8149 72.4712C39.6636 72.3834 39.6637 72.2411 39.8154 72.1531L42.374 70.6691C42.5255 70.5812 42.7711 70.5811 42.9223 70.6688L45.2964 72.0458C45.4477 72.1336 45.4475 72.2759 45.2959 72.3639L42.7373 73.848C42.5857 73.9359 42.3401 73.9359 42.189 73.8483L39.8149 72.4712ZM43.2422 70.4832C43.0909 70.3955 43.091 70.2531 43.2426 70.1652L45.8013 68.6811C45.9528 68.5932 46.1984 68.5931 46.3496 68.6808L48.7237 70.0579C48.875 70.1456 48.8748 70.288 48.7232 70.3759L46.1646 71.86C46.013 71.9479 45.7674 71.948 45.6163 71.8603L43.2422 70.4832ZM46.6694 68.4953C46.5182 68.4075 46.5183 68.2652 46.6699 68.1772L49.2285 66.6932C49.3801 66.6053 49.6257 66.6052 49.7768 66.6929L52.151 68.0699C52.3022 68.1577 52.3021 68.3 52.1505 68.388L49.5919 69.8721C49.4403 69.96 49.1947 69.96 49.0436 69.8724L46.6694 68.4953ZM50.0967 66.5073C49.9455 66.4196 49.9456 66.2772 50.0972 66.1893L52.6558 64.7052C52.8074 64.6173 53.053 64.6172 53.2041 64.7049L55.5783 66.082C55.7295 66.1697 55.7294 66.3121 55.5778 66.4L53.0191 67.8841C52.8676 67.972 52.622 67.9721 52.4708 67.8844L50.0967 66.5073ZM26.1057 80.423C25.9544 80.3352 25.9546 80.1929 26.1062 80.1049L28.6648 78.6209C28.8164 78.533 29.062 78.5329 29.2131 78.6206L31.5872 79.9977C31.7385 80.0854 31.7384 80.2277 31.5867 80.3157L29.0281 81.7998C28.8766 81.8877 28.631 81.8877 28.4798 81.8001L26.1057 80.423ZM22.6784 82.4109C22.5272 82.3232 22.5273 82.1808 22.6789 82.0929L25.2375 80.6088C25.3891 80.5209 25.6347 80.5209 25.7858 80.6085L28.16 81.9856C28.3112 82.0733 28.3111 82.2157 28.1595 82.3036L25.6009 83.7877C25.4493 83.8756 25.2037 83.8757 25.0526 83.788L22.6784 82.4109ZM38.1271 69.5838C37.9759 69.4961 37.976 69.3537 38.1276 69.2658L40.6863 67.7817C40.8378 67.6938 41.0834 67.6937 41.2346 67.7814L43.6087 69.1585C43.7599 69.2462 43.7598 69.3886 43.6082 69.4765L41.0496 70.9606C40.898 71.0485 40.6524 71.0486 40.5013 70.9609L38.1271 69.5838ZM18.2458 84.982C18.0945 84.8943 18.0944 84.7521 18.2461 84.6641L21.8104 82.5967C21.9619 82.5088 22.2074 82.5088 22.3586 82.5965L24.7327 83.9735C24.8839 84.0613 24.884 84.2035 24.7323 84.2915L21.1681 86.3589C21.0166 86.4468 20.7711 86.4468 20.6199 86.3591L18.2458 84.982ZM31.8605 80.9513C31.7092 80.8636 31.7091 80.7214 31.8608 80.6334L35.4251 78.566C35.5765 78.4781 35.8222 78.4782 35.9732 78.5658L38.7126 80.1547C38.8639 80.2424 38.864 80.3847 38.7123 80.4726L35.148 82.5401C34.9965 82.6279 34.7509 82.6279 34.5998 82.5402L31.8605 80.9513Z" id="Shape" fill="url(#linearGradient-13)"/></g><g id="Group-59" transform="matrix(-1 0 0 1 305.753 57.3286)"><path d="M95.0305 68.6749 95.07 113.991 0.428161 167.806 0.388662 124.209Z" id="Shape-Copy-8" fill="url(#linearGradient-14)" fill-rule="nonzero" opacity="0.5"/><path d="M36.7792 113.677 36.7792 120.094C37.6896 122.724 40.8398 125.561 46.2299 128.603 51.62 131.645 54.5198 133.286 54.9293 133.525 56.8437 134.258 59.0838 133.837 61.6496 132.264 64.2155 130.691 69.161 127.833 76.4863 123.692 80.7214 121.506 80.9336 119.364 77.1229 117.265 73.3122 115.166 69.2385 113.693 64.9017 112.847 61.6615 111.052 60.2687 107.066 60.7231 100.888 61.1776 94.7106 57.9246 96.9699 50.9643 107.666L36.7792 113.677Z" id="Shape" fill="#E76513"/><path d="M38.8083 112.629 38.8083 119.046C39.0074 121.093 41.802 123.638 47.1921 126.68 52.5822 129.722 55.4013 131.243 55.6495 131.243 57.5639 131.975 59.804 131.555 62.3699 129.982 64.9357 128.408 69.8813 125.551 77.2066 121.41 79.6621 119.824 79.3597 118.234 76.2991 116.639 73.2385 115.045 69.7601 113.14 65.8639 110.924 62.6237 109.129 61.2308 105.143 61.6853 98.9651 62.1398 92.7876 58.8868 95.0468 51.9264 105.743L38.8083 112.629Z" id="Shape" fill="url(#linearGradient-15)"/><path d="M1.56276 49.5312 86.2597 0.72036C87.6369-0.0820421 88.926-0.0137362 90.6002 1.00929 92.2744 2.03231 93.607 3.01995 93.607 3.53046L91.5953 80.5201C91.5953 81.2042 91.2316 81.8368 90.6402 82.1814L8.2477 133.419C6.87047 134.221 1.80348 131.725 1.00052 130.348 0.743213 129.907 0.607638 129.406 0.607638 128.895L0.607638 51.1925C0.607638 50.5084 0.97134 49.8757 1.56276 49.5312Z" id="Shape" fill="url(#linearGradient-16)"/><path d="M5.93915 59.8005 88.7106 11.5762C90.8478 10.3309 93.5899 11.0541 94.8351 13.1914 95.2339 13.8759 95.444 14.6539 95.444 15.4461L95.444 81.8319C95.444 82.8945 94.8794 83.877 93.9613 84.4118L11.1899 132.636C9.0526 133.881 6.31054 133.158 5.06531 131.021 4.66652 130.336 4.45641 129.558 4.45641 128.766L4.45641 62.3804C4.45641 61.3179 5.02107 60.3354 5.93915 59.8005Z" id="Shape" fill="url(#linearGradient-17)"/><path d="M5.94599 51.1481 88.7208 3.2148C90.8614 1.97524 93.6015 2.70565 94.8411 4.84622 95.2361 5.52828 95.444 6.30249 95.444 7.09065L95.444 67.9233 4.45641 120.612 4.45641 53.732C4.45641 52.6666 5.02405 51.682 5.94599 51.1481Z" id="Shape" fill="#B34501"/><path d="M9.77433 55.1452 90.7076 8.20686 90.8024 65.843 9.77433 112.965Z" id="Shape" fill="#FFFFFF"/><path d="M50.5151 105.268C52.375 104.1 53.8828 101.646 53.8828 99.7876 53.8828 97.929 52.375 97.3691 50.5151 98.537 48.6552 99.7049 47.1474 102.158 47.1474 104.017 47.1474 105.876 48.6552 106.436 50.5151 105.268Z" id="Shape" fill="#FFFFFF"/></g><g id="Group-44" transform="translate(50.1625 199.261)"><path d="M79.7047 27.1729 79.7047 62.8635 35.4859 88.0068 35.4859 50.5609Z" id="Shape-Copy-4" fill="url(#linearGradient-18)" fill-rule="nonzero"/><path d="M35.4859 87.7825 0.192947 67.8103C0.201221 42.2525 0.210769 29.4224 0.221591 29.3201L35.4859 45.8336 35.4859 87.7825Z" id="Shape-Copy-5" fill="url(#linearGradient-19)" fill-rule="nonzero" opacity="0.4"/><path d="M46.1114 7.17431 79.6326 21.1042C79.7634 26.1989 79.7162 28.9393 79.4911 29.3254 79.3837 29.5094 79.2293 29.6623 79.0434 29.7685L37.2131 52.8474C36.0778 53.4963 34.679 53.4963 33.5438 52.8474L0.611758 33.6622C0.0267547 33.3278 0.16407 32.2783 0.16407 32.0083 0.16407 31.8283 0.16407 29.3952 0.16407 24.709L42.4421 7.17431C43.5773 6.52549 44.9761 6.52549 46.1114 7.17431Z" id="Shape" fill="url(#linearGradient-20)"/><path d="M35.2579 18.3339 35.2579 53.3321C34.4696 53.2116 33.8982 53.05 33.5438 52.8474L0.611758 33.6622C0.0267547 33.3278 0.16407 32.2783 0.16407 32.0083 0.16407 31.8283 0.16407 29.3952 0.16407 24.709L42.4421 7.17431C43.1989 6.74176 40.8042 10.4616 35.2579 18.3339Z" id="Shape" fill="url(#linearGradient-21)"/><path d="M41.8027 48.0746C42.6372 47.5506 43.3137 46.4498 43.3137 45.6159 43.3137 44.782 42.6372 44.5308 41.8027 45.0548 40.9683 45.5788 40.2918 46.6796 40.2918 47.5135 40.2918 48.3474 40.9683 48.5986 41.8027 48.0746Z" id="Shape" fill="#FFFFFF"/><path d="M46.1114 0.545419 79.0434 19.9838C79.6284 20.3182 79.8288 21.0586 79.4911 21.6377 79.3837 21.8218 79.2293 21.9746 79.0434 22.0809L37.2131 45.1598C36.0778 45.8086 34.679 45.8086 33.5438 45.1598L0.611758 25.9745C0.0267547 25.6401-0.173682 24.8997 0.16407 24.3206 0.27142 24.1365 0.425822 23.9837 0.611758 23.8774L42.4421 0.545419C43.5773-0.103405 44.9761-0.103405 46.1114 0.545419Z" id="Shape" fill="url(#linearGradient-22)"/><path d="M44.4916 28.3504C44.7955 28.5212 44.9375 28.7279 44.9176 28.9702 44.8978 29.2126 44.7482 29.4106 44.4689 29.5644 44.2778 29.6696 44.0377 29.7351 43.7487 29.7607 43.4596 29.7864 43.159 29.7605 42.8469 29.6832L37.7922 28.4611 29.7217 32.9047 31.8658 35.7293C32.0016 35.9038 32.0412 36.0733 31.9848 36.2379 31.9284 36.4024 31.8046 36.5373 31.6135 36.6425 31.3195 36.8044 30.9546 36.8896 30.5188 36.8982 30.083 36.9067 29.7131 36.8256 29.4092 36.6547 29.2812 36.5828 29.158 36.4726 29.0395 36.3242L20.4522 24.5779C20.2991 24.3774 20.2645 24.174 20.3484 23.9676 20.4323 23.7612 20.5992 23.5892 20.8491 23.4516 21.099 23.314 21.4099 23.2229 21.7817 23.1784 22.1535 23.1339 22.5189 23.1552 22.8777 23.2425L43.9014 28.1413C44.1669 28.2088 44.3636 28.2785 44.4916 28.3504ZM28.5699 31.3494 35.0307 27.7921 23.8466 25.1121 28.5699 31.3494ZM48.4941 26.9743C48.0644 26.9617 47.6575 26.8475 47.2736 26.6317L32.6841 18.4305C32.3161 18.2237 32.1234 18.0049 32.1059 17.7743 32.0884 17.5436 32.256 17.3312 32.6089 17.1369L37.923 14.211C39.5694 13.3044 41.2882 12.8476 43.0795 12.8402 44.8708 12.8331 46.5742 13.2836 48.19 14.1919 49.7897 15.0911 50.5818 16.0434 50.5662 17.0488 50.5507 18.0542 49.7197 19.0102 48.0732 19.9167L43.9057 22.2113 49.5448 25.3812C49.9287 25.597 50.1334 25.8225 50.1589 26.0577 50.1845 26.2928 50.0135 26.5116 49.6459 26.7139 49.3078 26.9001 48.9239 26.9869 48.4941 26.9743ZM45.839 18.9307C48.0147 17.7328 48.0707 16.5538 46.007 15.3938 43.9593 14.2427 41.8477 14.2662 39.6721 15.4641L35.7471 17.6251 41.9141 21.0918 45.839 18.9307ZM63.4616 18.7333C63.0318 18.7207 62.625 18.6065 62.241 18.3907L47.5795 10.149C47.2116 9.9422 47.0145 9.71693 46.9884 9.47323 46.9622 9.22952 47.1182 9.01459 47.4563 8.82843 47.8091 8.63417 48.2004 8.54334 48.6302 8.55592 49.0599 8.5685 49.4668 8.6827 49.8507 8.89852L64.5122 17.1402C64.8961 17.356 65.1009 17.5815 65.1264 17.8166 65.1519 18.0518 64.9809 18.2706 64.6134 18.4729 64.2753 18.6591 63.8913 18.7459 63.4616 18.7333Z" id="Shape" fill="url(#linearGradient-23)"/></g><g id="Group-44" transform="matrix(1 0 0 1 0 167.014)"><path d="M80.899 28.6176 80.899 64.4101 36.2988 89.7703 36.2988 52.2074Z" id="Shape-Copy-2" fill="url(#linearGradient-24)" fill-rule="nonzero"/><path d="M36.2988 89.5441 0.701315 69.3995C0.70966 43.7586 0.719291 30.8866 0.730206 30.7833L36.2988 47.4393 36.2988 89.5441Z" id="Shape-Copy-3" fill="url(#linearGradient-25)" fill-rule="nonzero" opacity="0.4"/><path d="M47.3057 7.17431 80.8269 21.1042C80.9577 26.1989 80.9106 28.9393 80.6854 29.3254 80.5781 29.5094 80.4237 29.6623 80.2377 29.7685L38.4074 52.8474C37.2721 53.4963 35.8734 53.4963 34.7381 52.8474L1.8061 33.6622C1.2211 33.3278 1.35842 32.2783 1.35842 32.0083 1.35842 31.8283 1.35842 29.3952 1.35842 24.709L43.6364 7.17431C44.7717 6.52549 46.1704 6.52549 47.3057 7.17431Z" id="Shape" fill="url(#linearGradient-20)"/><path d="M36.4523 18.3339 36.4523 53.3321C35.6639 53.2116 35.0925 53.05 34.7381 52.8474L1.8061 33.6622C1.2211 33.3278 1.35842 32.2783 1.35842 32.0083 1.35842 31.8283 1.35842 29.3952 1.35842 24.709L43.6364 7.17431C44.3933 6.74176 41.9986 10.4616 36.4523 18.3339Z" id="Shape" fill="url(#linearGradient-21)"/><path d="M42.9971 48.0746C43.8316 47.5506 44.508 46.4498 44.508 45.6159 44.508 44.782 43.8316 44.5308 42.9971 45.0548 42.1626 45.5788 41.4862 46.6796 41.4862 47.5135 41.4862 48.3474 42.1626 48.5986 42.9971 48.0746Z" id="Shape" fill="#FFFFFF"/><path d="M47.3057 0.545419 80.2377 19.9838C80.8227 20.3182 81.0232 21.0586 80.6854 21.6377 80.5781 21.8218 80.4237 21.9746 80.2377 22.0809L38.4074 45.1598C37.2721 45.8086 35.8734 45.8086 34.7381 45.1598L1.8061 25.9745C1.2211 25.6401 1.02066 24.8997 1.35842 24.3206 1.46577 24.1365 1.62017 23.9837 1.8061 23.8774L43.6364 0.545419C44.7717-0.103405 46.1704-0.103405 47.3057 0.545419Z" id="Shape" fill="url(#linearGradient-26)"/><path d="M44.8204 28.2259 48.0335 30.0922 45.5345 31.6508 42.3214 29.7845 44.8204 28.2259ZM39.1083 28.2259 42.3214 30.0922 39.8224 31.6508 36.6093 29.7845 39.1083 28.2259ZM48.4489 17.6446C54.1698 21.1621 55.4355 26.2638 51.3671 29.1525L51.0479 29.3675 51.0479 29.3675 46.9124 26.8247C49.5662 25.073 48.8396 21.9347 45.3395 19.7826 41.8394 17.6305 36.8912 17.2795 34.2874 18.9987 31.7001 20.7069 32.401 23.8162 35.8438 25.967L32.7666 27.9987C26.9454 24.4194 25.737 19.2 30.0675 16.3407 34.3981 13.4815 42.6277 14.0653 48.4489 17.6446ZM42.9606 23.6595 46.8911 26.198 43.9671 28.2259 40.0366 25.6873 42.9606 23.6595Z" id="Shape" fill="url(#linearGradient-27)"/></g><g id="Group-33" transform="matrix(-1 0 0 1 194.678 220.954)"><path d="M91.5768 33.351 95.2769 33.351 95.2769 41.6887 91.5768 41.6887Z" id="Shape" fill="#D36600"/><g id="Group-32" transform="matrix(1 0 0 1 0 7.41133)"><path d="M95.2769 34.2774 95.2769 83.3139 50.6766 108.674 50.6766 57.8672Z" id="Shape-Copy-4" fill="url(#linearGradient-28)" fill-rule="nonzero" opacity="0.5"/><path d="M50.6766 108.674 1.23052e-13 79.9963C0.0118808 42.2772 0.0255905 23.3442 0.0411291 23.1973L50.6766 46.9088 50.6766 108.674Z" id="Shape-Copy-5" fill="url(#linearGradient-29)" fill-rule="nonzero" opacity="0.2"/><path d="M95.2769 32.1043 95.2769 35.0538C95.1758 35.5451 94.8057 36.0235 94.1484 36.3998L53.6711 59.5711C52.1664 60.4324 49.7269 60.4324 48.2222 59.5711L26.9958 47.42C26.4689 47.1183 26.1815 46.7094 26.1899 46.2881 26.1907 46.2469 26.1984 45.3235 26.2129 43.5179L27.2052 41.747 1.1285 26.8193C0.35289 26.3754-0.0229156 25.7892 0.00108016 25.2074L0 22.45 95.2769 32.1043Z" id="Shape" fill="url(#linearGradient-30)"/><path d="M27.2052 38.9678 1.1285 24.0401C-0.376166 23.1788-0.376166 21.7822 1.1285 20.9209L36.5461 0.64601C38.0508-0.215337 40.4903-0.215337 41.995 0.64601L94.1484 30.5013C95.653 31.3627 95.653 32.7592 94.1484 33.6205L53.6711 56.7918C52.1664 57.6532 49.7269 57.6532 48.2222 56.7918L26.9958 44.6407C26.3916 44.2948 26.1023 43.808 26.2129 43.3229L27.2052 38.9678Z" id="Shape" fill="url(#linearGradient-31)"/><path d="M48.0524 9.7426 89.1261 33.2465C89.7005 33.5752 89.8973 34.3033 89.5657 34.8726 89.4603 35.0535 89.3086 35.2038 89.1261 35.3083L48.0524 58.8122C46.9376 59.4501 45.5642 59.4501 44.4494 58.8122L3.37575 35.3083C2.80133 34.9796 2.60451 34.2516 2.93616 33.6822 3.04157 33.5013 3.19317 33.351 3.37575 33.2465L44.4494 9.7426C45.5642 9.10469 46.9376 9.10469 48.0524 9.7426Z" id="Shape" fill="url(#linearGradient-32)"/><path d="M46.2024 6.03693 87.276 29.5409C87.8505 29.8696 88.0473 30.5976 87.7156 31.1669 87.6102 31.3479 87.4586 31.4981 87.276 31.6026L46.2024 55.1066C45.0876 55.7445 43.7142 55.7445 42.5994 55.1066L1.52571 31.6026C0.951289 31.2739 0.754477 30.5459 1.08612 29.9766 1.19153 29.7956 1.34314 29.6453 1.52571 29.5409L42.5994 6.03693C43.7142 5.39902 45.0876 5.39902 46.2024 6.03693Z" id="Shape" fill="#FFFFFF"/><path d="M46.2024 4.1841 87.276 27.688C87.8505 28.0167 88.0473 28.7448 87.7156 29.3141 87.6102 29.495 87.4586 29.6453 87.276 29.7498L46.2024 53.2537C45.0876 53.8916 43.7142 53.8916 42.5994 53.2537L1.52571 29.7498C0.951289 29.4211 0.754477 28.6931 1.08612 28.1237 1.19153 27.9428 1.34314 27.7925 1.52571 27.688L42.5994 4.1841C43.7142 3.54619 45.0876 3.54619 46.2024 4.1841Z" id="Shape" fill="url(#linearGradient-32)"/></g><g id="Group-32"><path d="M95.2769 32.1043 95.2769 35.0538C95.1758 35.5451 94.8057 36.0235 94.1484 36.3998L53.6711 59.5711C52.1664 60.4324 49.7269 60.4324 48.2222 59.5711L26.9958 47.42C26.4689 47.1183 26.1815 46.7094 26.1899 46.2881 26.1907 46.2469 26.1984 45.3235 26.2129 43.5179L27.2052 41.747 1.1285 26.8193C0.35289 26.3754-0.0229156 25.7892 0.00108016 25.2074L0 22.45 95.2769 32.1043Z" id="Shape" fill="url(#linearGradient-30)"/><path d="M27.2052 38.9678 1.1285 24.0401C-0.376166 23.1788-0.376166 21.7822 1.1285 20.9209L36.5461 0.64601C38.0508-0.215337 40.4903-0.215337 41.995 0.64601L94.1484 30.5013C95.653 31.3627 95.653 32.7592 94.1484 33.6205L53.6711 56.7918C52.1664 57.6532 49.7269 57.6532 48.2222 56.7918L26.9958 44.6407C26.3916 44.2948 26.1023 43.808 26.2129 43.3229L27.2052 38.9678Z" id="Shape" fill="url(#linearGradient-33)"/><path d="M27.2052 38.9678 1.1285 24.0401C-0.376166 23.1788-0.376166 21.7822 1.1285 20.9209L36.5461 0.64601C38.0508-0.215337 40.4903-0.215337 41.995 0.64601L94.1484 30.5013C95.653 31.3627 95.653 32.7592 94.1484 33.6205L53.6711 56.7918C52.1664 57.6532 49.7269 57.6532 48.2222 56.7918L26.9958 44.6407C26.3916 44.2948 26.1023 43.808 26.2129 43.3229L27.2052 38.9678Z" id="Shape" fill="url(#linearGradient-34)"/><path d="M41.995 0.64601 47.2898 3.6762 47.2898 56.2573 38.2498 51.0822 38.2494 0.0784723C39.5409-0.123945 40.9804 0.0652346 41.995 0.64601Z" id="Shape" fill="url(#linearGradient-35)" opacity="0.5"/><path d="M72.1123 21.8115 89.2055 31.5508C89.4446 31.687 89.5265 31.9887 89.3885 32.2246 89.3446 32.2996 89.2815 32.3619 89.2055 32.4052L87.6923 33.2674C87.2284 33.5317 86.6568 33.5317 86.1929 33.2674L69.0997 23.528C68.8606 23.3918 68.7787 23.0901 68.9168 22.8542 68.9606 22.7792 69.0237 22.717 69.0997 22.6737L70.6129 21.8115C71.0768 21.5471 71.6484 21.5471 72.1123 21.8115Z" id="Shape" fill="#FDFDFD"/></g></g></g></g></svg>