<?xml version="1.0" encoding="utf-8"?>
<!-- Generator: Adobe Illustrator 24.1.2, SVG Export Plug-In . SVG Version: 6.00 Build 0)  -->
<svg version="1.1" id="Layer_1" xmlns="http://www.w3.org/2000/svg" xmlns:xlink="http://www.w3.org/1999/xlink" x="0px" y="0px"
	 viewBox="0 0 347 313" style="enable-background:new 0 0 347 313;" xml:space="preserve">
<style type="text/css">
	.st0{fill:url(#SVGID_1_);}
	.st1{fill:#FD9E2F;}
	.st2{opacity:0.2;fill:url(#SVGID_2_);enable-background:new    ;}
	.st3{fill:url(#SVGID_3_);}
	.st4{opacity:0.6;fill:url(#SVGID_4_);enable-background:new    ;}
	.st5{opacity:0.3;fill:url(#SVGID_5_);enable-background:new    ;}
	.st6{fill:#C94D00;}
	.st7{fill:url(#SVGID_6_);}
	.st8{fill:url(#SVGID_7_);}
	.st9{fill:#F36309;}
	.st10{fill:url(#SVGID_8_);}
	.st11{fill:#FCFCFC;}
	.st12{fill:#E2E7EC;}
	.st13{fill:url(#SVGID_9_);}
	.st14{fill:url(#SVGID_10_);}
	.st15{fill:#FFFFFF;}
	.st16{fill:url(#SVGID_11_);}
	.st17{fill:url(#SVGID_12_);}
	.st18{fill:url(#SVGID_13_);}
	.st19{fill:url(#SVGID_14_);}
	.st20{fill:url(#SVGID_15_);}
	.st21{opacity:0.6;fill:url(#SVGID_16_);enable-background:new    ;}
	.st22{opacity:0.2;fill:url(#SVGID_17_);enable-background:new    ;}
	.st23{fill:url(#SVGID_18_);}
	.st24{fill:url(#SVGID_19_);}
	.st25{fill:#FDEBD1;}
	.st26{fill:url(#SVGID_20_);}
	.st27{fill:url(#SVGID_21_);}
	.st28{fill:#FFDBB4;}
	.st29{fill:#FDFDFD;}
	.st30{fill:url(#SVGID_22_);}
	.st31{fill:#EAEEF1;}
	
		.st32{opacity:0.67;fill:none;stroke:url(#SVGID_23_);stroke-width:1.0019;stroke-linecap:round;stroke-linejoin:round;enable-background:new    ;}
	.st33{fill:url(#SVGID_24_);}
	.st34{fill:url(#SVGID_25_);}
	.st35{fill:url(#SVGID_26_);}
	.st36{fill:url(#SVGID_27_);}
	.st37{fill:url(#SVGID_28_);}
	.st38{fill:url(#SVGID_29_);}
	.st39{fill:url(#SVGID_30_);}
	.st40{fill:url(#SVGID_31_);}
	.st41{fill:url(#SVGID_32_);}
	.st42{fill:url(#SVGID_33_);}
	.st43{opacity:0.2;fill:url(#SVGID_34_);enable-background:new    ;}
	.st44{opacity:0.6;fill:url(#SVGID_35_);enable-background:new    ;}
	.st45{fill:url(#SVGID_36_);}
	.st46{fill:url(#SVGID_37_);}
	.st47{fill:url(#SVGID_38_);}
	.st48{fill:#FFD6A2;fill-opacity:0.49;stroke:#F16322;stroke-opacity:0.7;}
	.st49{opacity:0.2;fill:url(#SVGID_39_);enable-background:new    ;}
	.st50{fill:url(#SVGID_40_);}
</style>
<g>
	<g transform="translate(7 .5)">
		<g>
			
				<linearGradient id="SVGID_1_" gradientUnits="userSpaceOnUse" x1="-83.2042" y1="306.4613" x2="-82.7646" y2="305.5012" gradientTransform="matrix(-142.9604 0 0 -83.0408 -11602.4609 25554.543)">
				<stop  offset="0" style="stop-color:#FFFFFF"/>
				<stop  offset="1" style="stop-color:#FCDFCF"/>
			</linearGradient>
			<path class="st0" d="M256.3,96l-59.4,34.7c-0.6,0.3-0.8,1.1-0.5,1.7c0.1,0.2,0.3,0.3,0.5,0.5l78.6,45.2c1.1,0.7,2.6,0.7,3.7,0
				l59.4-34.7c0.6-0.3,0.8-1.1,0.5-1.7c-0.1-0.2-0.3-0.3-0.5-0.5L260,96C258.9,95.4,257.4,95.4,256.3,96L256.3,96z"/>
			<path class="st1" d="M42.3,220.6l-4.3-2.5c-0.5-0.3-1.1-0.1-1.4,0.4s-0.1,1.1,0.4,1.4l4.3,2.5c0.5,0.3,1.1,0.1,1.4-0.4
				S42.7,220.8,42.3,220.6z M33.6,215.6l-4.3-2.5c-0.5-0.3-1.1-0.1-1.4,0.4s-0.1,1.1,0.4,1.4l4.3,2.5c0.5,0.3,1.1,0.1,1.4-0.4
				S34.1,215.9,33.6,215.6z M24.9,210.6l-4.3-2.5c-0.5-0.3-1.1-0.1-1.4,0.4s-0.1,1.1,0.4,1.4l4.3,2.5c0.5,0.3,1.1,0.1,1.4-0.4
				S25.4,210.9,24.9,210.6z M16.2,205.6l-4.3-2.5c-0.5-0.3-1.1-0.1-1.4,0.4s-0.1,1.1,0.4,1.4l4.3,2.5c0.5,0.3,1.1,0.1,1.4-0.4
				S16.7,205.9,16.2,205.6z M7.6,200.7l-4.1-2.4c0,0-0.1,0-0.1-0.1c-0.4-0.3-1.1-0.2-1.4,0.2c-0.3,0.4-0.2,1.1,0.2,1.4
				c0.1,0.1,0.2,0.1,0.3,0.2l4.1,2.4c0.5,0.3,1.1,0.1,1.4-0.4C8.2,201.6,8,201,7.6,200.7z M4.2,196l4.3-2.5c0.5-0.3,0.6-0.9,0.4-1.4
				c-0.3-0.5-0.9-0.6-1.4-0.4l-4.3,2.5c-0.5,0.3-0.6,0.9-0.4,1.4S3.8,196.2,4.2,196z M12.9,191l4.3-2.5c0.5-0.3,0.6-0.9,0.4-1.4
				s-0.9-0.6-1.4-0.4l-4.3,2.5c-0.5,0.3-0.6,0.9-0.4,1.4C11.8,191.1,12.4,191.2,12.9,191z M21.6,186l4.3-2.5
				c0.5-0.3,0.6-0.9,0.4-1.4s-0.9-0.6-1.4-0.4l-4.3,2.5c-0.5,0.3-0.6,0.9-0.4,1.4C20.5,186.1,21.1,186.2,21.6,186z M30.2,181
				l4.3-2.5c0.5-0.3,0.6-0.9,0.4-1.4s-0.9-0.6-1.4-0.4l-4.3,2.5c-0.5,0.3-0.6,0.9-0.4,1.4S29.8,181.3,30.2,181z M38.9,176l4.3-2.5
				c0.5-0.3,0.6-0.9,0.4-1.4s-0.9-0.6-1.4-0.4l-4.3,2.5c-0.5,0.3-0.6,0.9-0.4,1.4S38.4,176.3,38.9,176z M47.6,171l4.3-2.5
				c0.5-0.3,0.6-0.9,0.4-1.4c-0.3-0.5-0.9-0.6-1.4-0.4l-4.3,2.5c-0.5,0.3-0.6,0.9-0.4,1.4C46.5,171.1,47.1,171.3,47.6,171z
				 M56.2,166l4.3-2.5c0.5-0.3,0.6-0.9,0.4-1.4c-0.3-0.5-0.9-0.6-1.4-0.4l-4.3,2.5c-0.5,0.3-0.6,0.9-0.4,1.4
				C55.1,166.1,55.8,166.3,56.2,166z M64.9,161l4.3-2.5c0.5-0.3,0.6-0.9,0.4-1.4s-0.9-0.6-1.4-0.4l-4.3,2.5
				c-0.5,0.3-0.6,0.9-0.4,1.4C63.8,161.1,64.4,161.3,64.9,161z M73.6,156l4.3-2.5c0.5-0.3,0.6-0.9,0.4-1.4s-0.9-0.6-1.4-0.4
				l-4.3,2.5c-0.5,0.3-0.6,0.9-0.4,1.4C72.5,156.1,73.1,156.3,73.6,156z M82.2,151l4.3-2.5c0.5-0.3,0.6-0.9,0.4-1.4
				c-0.3-0.5-0.9-0.6-1.4-0.4l-4.3,2.5c-0.5,0.3-0.6,0.9-0.4,1.4S81.7,151.3,82.2,151z M90.9,146l4.3-2.5c0.5-0.3,0.6-0.9,0.4-1.4
				s-0.9-0.6-1.4-0.4l-4.3,2.5c-0.5,0.3-0.6,0.9-0.4,1.4C89.8,146.1,90.4,146.3,90.9,146z M99.6,141l4.3-2.5
				c0.5-0.3,0.6-0.9,0.4-1.4c-0.3-0.5-0.9-0.6-1.4-0.4l-4.3,2.5c-0.5,0.3-0.6,0.9-0.4,1.4C98.5,141.2,99.1,141.3,99.6,141z
				 M108.2,136l4.3-2.5c0.5-0.3,0.6-0.9,0.4-1.4s-0.9-0.6-1.4-0.4l-4.3,2.5c-0.5,0.3-0.6,0.9-0.4,1.4
				C107.1,136.2,107.7,136.3,108.2,136z M116.9,131.1l4.3-2.5c0.5-0.3,0.6-0.9,0.4-1.4s-0.9-0.6-1.4-0.4l-4.3,2.5
				c-0.5,0.3-0.6,0.9-0.4,1.4S116.4,131.3,116.9,131.1z M125.5,126.1l4.3-2.5c0.5-0.3,0.6-0.9,0.4-1.4s-0.9-0.6-1.4-0.4l-4.3,2.5
				c-0.5,0.3-0.6,0.9-0.4,1.4C124.5,126.2,125.1,126.3,125.5,126.1z M134.2,121.1l4.3-2.5c0.5-0.3,0.6-0.9,0.4-1.4s-0.9-0.6-1.4-0.4
				l-4.3,2.5c-0.5,0.3-0.6,0.9-0.4,1.4S133.7,121.3,134.2,121.1z M142.9,116.1l4.3-2.5c0.5-0.3,0.6-0.9,0.4-1.4s-0.9-0.6-1.4-0.4
				l-4.3,2.5c-0.5,0.3-0.6,0.9-0.4,1.4S142.4,116.4,142.9,116.1z M151.5,111.1l4.3-2.5c0.5-0.3,0.6-0.9,0.4-1.4s-0.9-0.6-1.4-0.4
				l-4.3,2.5c-0.5,0.3-0.6,0.9-0.4,1.4S151.1,111.4,151.5,111.1z M160.2,106.1l4.3-2.5c0.5-0.3,0.6-0.9,0.4-1.4s-0.9-0.6-1.4-0.4
				l-4.3,2.5c-0.5,0.3-0.6,0.9-0.4,1.4S159.7,106.4,160.2,106.1z M168.9,101.1l4.3-2.5c0.5-0.3,0.6-0.9,0.4-1.4s-0.9-0.6-1.4-0.4
				l-4.3,2.5c-0.5,0.3-0.6,0.9-0.4,1.4S168.4,101.4,168.9,101.1z M177.5,96.1l4.3-2.5c0.5-0.3,0.6-0.9,0.4-1.4s-0.9-0.6-1.4-0.4
				l-4.3,2.5c-0.5,0.3-0.6,0.9-0.4,1.4S177.1,96.4,177.5,96.1z M186.2,91.1l2.8-1.6c0.4-0.3,0.9-0.4,1.4-0.6
				c0.5-0.1,0.9-0.7,0.7-1.2c-0.1-0.5-0.7-0.9-1.2-0.7c-0.7,0.2-1.3,0.4-1.9,0.8l-2.8,1.6c-0.5,0.3-0.6,0.9-0.4,1.4
				S185.7,91.4,186.2,91.1L186.2,91.1z M194.5,89.7l4.3,2.5c0.5,0.3,1.1,0.1,1.4-0.4c0.3-0.5,0.1-1.1-0.4-1.4l-4.3-2.5
				c-0.5-0.3-1.1-0.1-1.4,0.4C193.9,88.8,194,89.4,194.5,89.7z M203.2,94.6l4.3,2.5c0.5,0.3,1.1,0.1,1.4-0.4s0.1-1.1-0.4-1.4
				l-4.3-2.5c-0.5-0.3-1.1-0.1-1.4,0.4C202.5,93.7,202.7,94.3,203.2,94.6z M211.9,99.6l4.3,2.5c0.5,0.3,1.1,0.1,1.4-0.4
				s0.1-1.1-0.4-1.4l-4.3-2.5c-0.5-0.3-1.1-0.1-1.4,0.4C211.2,98.7,211.4,99.3,211.9,99.6z M220.6,104.6l4.3,2.5
				c0.5,0.3,1.1,0.1,1.4-0.4s0.1-1.1-0.4-1.4l-4.3-2.5c-0.5-0.3-1.1-0.1-1.4,0.4C219.9,103.7,220.1,104.3,220.6,104.6z M229.2,109.5
				l4.3,2.5c0.5,0.3,1.1,0.1,1.4-0.4c0.3-0.5,0.1-1.1-0.4-1.4l-4.3-2.5c-0.5-0.3-1.1-0.1-1.4,0.4S228.8,109.3,229.2,109.5z
				 M237.9,114.5l4.3,2.5c0.5,0.3,1.1,0.1,1.4-0.4c0.3-0.5,0.1-1.1-0.4-1.4l-4.3-2.5c-0.5-0.3-1.1-0.1-1.4,0.4
				C237.3,113.6,237.4,114.2,237.9,114.5z M246.6,119.5l4.3,2.5c0.5,0.3,1.1,0.1,1.4-0.4s0.1-1.1-0.4-1.4l-4.3-2.5
				c-0.5-0.3-1.1-0.1-1.4,0.4S246.1,119.2,246.6,119.5z M255.3,124.4l4.3,2.5c0.5,0.3,1.1,0.1,1.4-0.4s0.1-1.1-0.4-1.4l-4.3-2.5
				c-0.5-0.3-1.1-0.1-1.4,0.4S254.8,124.2,255.3,124.4z M263.9,129.4l4.3,2.5c0.5,0.3,1.1,0.1,1.4-0.4s0.1-1.1-0.4-1.4l-4.3-2.5
				c-0.5-0.3-1.1-0.1-1.4,0.4S263.5,129.1,263.9,129.4L263.9,129.4z M272.6,134.4l4.3,2.5c0.5,0.3,1.1,0.1,1.4-0.4s0.1-1.1-0.4-1.4
				l-4.3-2.5c-0.5-0.3-1.1-0.1-1.4,0.4S272.1,134.1,272.6,134.4z M281.3,139.3l4.3,2.5c0.5,0.3,1.1,0.1,1.4-0.4s0.1-1.1-0.4-1.4
				l-4.3-2.5c-0.5-0.3-1.1-0.1-1.4,0.4S280.8,139.1,281.3,139.3L281.3,139.3z M290,144.3l4.3,2.5c0.5,0.3,1.1,0.1,1.4-0.4
				s0.1-1.1-0.4-1.4l-4.3-2.5c-0.5-0.3-1.1-0.1-1.4,0.4S289.5,144,290,144.3L290,144.3z M298.7,149.3l4.3,2.5
				c0.5,0.3,1.1,0.1,1.4-0.4s0.1-1.1-0.4-1.4l-4.3-2.5c-0.5-0.3-1.1-0.1-1.4,0.4S298.2,149,298.7,149.3L298.7,149.3z M307.3,154.2
				l4.3,2.5c0.5,0.3,1.1,0.1,1.4-0.4s0.1-1.1-0.4-1.4l-4.3-2.5c-0.5-0.3-1.1-0.1-1.4,0.4S306.9,154,307.3,154.2z M316,159.2l4.3,2.5
				c0.5,0.3,1.1,0.1,1.4-0.4s0.1-1.1-0.4-1.4l-4.3-2.5c-0.5-0.3-1.1-0.1-1.4,0.4S315.5,158.9,316,159.2L316,159.2z M321.6,164
				c-0.1,0.1-0.1,0.1-0.2,0.2l-3.9,2.3c-0.5,0.3-0.6,0.9-0.4,1.4c0.3,0.5,0.9,0.6,1.4,0.4l3.9-2.3c0.2-0.1,0.4-0.3,0.6-0.4
				c0.4-0.4,0.4-1,0-1.4C322.7,163.7,322.1,163.6,321.6,164L321.6,164z M313.2,168.9l-4.3,2.5c-0.5,0.3-0.6,0.9-0.4,1.4
				c0.3,0.5,0.9,0.6,1.4,0.4l4.3-2.5c0.5-0.3,0.6-0.9,0.4-1.4S313.6,168.7,313.2,168.9z M304.5,173.9l-4.3,2.5
				c-0.5,0.3-0.6,0.9-0.4,1.4s0.9,0.6,1.4,0.4l4.3-2.5c0.5-0.3,0.6-0.9,0.4-1.4C305.6,173.8,305,173.6,304.5,173.9z M295.8,178.9
				l-4.3,2.5c-0.5,0.3-0.6,0.9-0.4,1.4c0.3,0.5,0.9,0.6,1.4,0.4l4.3-2.5c0.5-0.3,0.6-0.9,0.4-1.4
				C296.9,178.8,296.3,178.6,295.8,178.9z M287.2,183.9l-4.3,2.5c-0.5,0.3-0.6,0.9-0.4,1.4c0.3,0.5,0.9,0.6,1.4,0.4l4.3-2.5
				c0.5-0.3,0.6-0.9,0.4-1.4C288.3,183.8,287.7,183.6,287.2,183.9z M278.5,188.9l-4.3,2.5c-0.5,0.3-0.6,0.9-0.4,1.4
				c0.3,0.5,0.9,0.6,1.4,0.4l4.3-2.5c0.5-0.3,0.6-0.9,0.4-1.4C279.6,188.8,279,188.6,278.5,188.9z M269.8,193.9l-4.3,2.5
				c-0.5,0.3-0.6,0.9-0.4,1.4c0.3,0.5,0.9,0.6,1.4,0.4l4.3-2.5c0.5-0.3,0.6-0.9,0.4-1.4S270.3,193.6,269.8,193.9z M261.2,198.9
				l-4.3,2.5c-0.5,0.3-0.6,0.9-0.4,1.4c0.3,0.5,0.9,0.6,1.4,0.4l4.3-2.5c0.5-0.3,0.6-0.9,0.4-1.4
				C262.3,198.8,261.7,198.6,261.2,198.9z M252.5,203.9l-4.3,2.5c-0.5,0.3-0.6,0.9-0.4,1.4c0.3,0.5,0.9,0.6,1.4,0.4l4.3-2.5
				c0.5-0.3,0.6-0.9,0.4-1.4C253.6,203.8,253,203.6,252.5,203.9z"/>
			<g transform="translate(311.920031 156.77525)">
				
					<linearGradient id="SVGID_2_" gradientUnits="userSpaceOnUse" x1="-390.7987" y1="150.6015" x2="-390.2034" y2="149.2724" gradientTransform="matrix(19.2096 0 0 -11.1322 7510.5542 1673.8931)">
					<stop  offset="0" style="stop-color:#FAB643"/>
					<stop  offset="0.6006" style="stop-color:#F48222"/>
					<stop  offset="1" style="stop-color:#F16322"/>
				</linearGradient>
				<path class="st2" d="M9.9,11.3c5.3,0,9.6-2.5,9.6-5.6s-4.3-5.6-9.6-5.6S0.3,2.6,0.3,5.7S4.6,11.3,9.9,11.3z"/>
				
					<linearGradient id="SVGID_3_" gradientUnits="userSpaceOnUse" x1="-386.7895" y1="151.2142" x2="-386.5992" y2="150.1945" gradientTransform="matrix(9.7795 0 0 -5.6674 3791.1694 858.408)">
					<stop  offset="0" style="stop-color:#FAB643"/>
					<stop  offset="0.5597" style="stop-color:#F48222"/>
					<stop  offset="1" style="stop-color:#F16322"/>
				</linearGradient>
				<path class="st3" d="M9.9,8.5c2.7,0,4.9-1.3,4.9-2.8s-2.2-2.8-4.9-2.8S5,4.1,5,5.7S7.2,8.5,9.9,8.5z"/>
			</g>
			<g transform="translate(131)">
				
					<linearGradient id="SVGID_4_" gradientUnits="userSpaceOnUse" x1="-213.2662" y1="307.7165" x2="-212.3484" y2="305.9586" gradientTransform="matrix(70.6415 0 0 -67.5492 15078.6709 20786.4004)">
					<stop  offset="0" style="stop-color:#FAB643"/>
					<stop  offset="0.5597" style="stop-color:#F48222"/>
					<stop  offset="1" style="stop-color:#F16322;stop-opacity:0"/>
				</linearGradient>
				<path class="st4" d="M108,75.6v27.4l-70.6,40.2v-27.7L108,75.6z"/>
				
					<linearGradient id="SVGID_5_" gradientUnits="userSpaceOnUse" x1="-210.8507" y1="307.1933" x2="-211.5345" y2="306.0162" gradientTransform="matrix(36.6624 0 0 -34.6765 7770.4805 10728.2256)">
					<stop  offset="0" style="stop-color:#FAB643"/>
					<stop  offset="0.5597" style="stop-color:#F48222"/>
					<stop  offset="1" style="stop-color:#F16322;stop-opacity:0"/>
				</linearGradient>
				<path class="st5" d="M37.4,127.6L0.7,106.8l0-13.9l36.6,20.8V127.6z"/>
				<g transform="matrix(-1 0 0 1 108.2 0)">
					<g transform="translate(70.875 38.81256)">
						<path class="st6" d="M17.1,2l2.4-1.4l17.1,54.6L0,76.6L17.1,2z"/>
						
							<linearGradient id="SVGID_6_" gradientUnits="userSpaceOnUse" x1="251.7392" y1="267.1665" x2="249.8621" y2="267.311" gradientTransform="matrix(-33.75 0 0 -69.9844 8559.6797 18744.5137)">
							<stop  offset="0" style="stop-color:#FB982A"/>
							<stop  offset="1" style="stop-color:#C94D00"/>
						</linearGradient>
						<path class="st7" d="M17.2,4.9l2.2-1.3l15.8,50.3L1.5,73.6L17.2,4.9z"/>
						
							<linearGradient id="SVGID_7_" gradientUnits="userSpaceOnUse" x1="253.3958" y1="268.14" x2="253.6027" y2="267.438" gradientTransform="matrix(-33.2248 0 0 -34.0298 8427.6748 9155.8926)">
							<stop  offset="0" style="stop-color:#FAB643"/>
							<stop  offset="0.5597" style="stop-color:#F48222"/>
							<stop  offset="1" style="stop-color:#F16322"/>
						</linearGradient>
						<path class="st8" d="M34.7,54.1L1.5,73.6l7.8-34L34.7,54.1z"/>
					</g>
					<g transform="translate(1.6875 1.6875)">
						<path class="st9" d="M86.3,39.1l-68.2-39L0.8,74.6l68.3,39.1L86.3,39.1z"/>
						<g transform="translate(11.781816 14.72724)">
							
								<linearGradient id="SVGID_8_" gradientUnits="userSpaceOnUse" x1="309.9963" y1="290.4334" x2="310.5177" y2="289.4674" gradientTransform="matrix(-54.3018 0 0 -41.3372 16848.793 11998.7715)">
								<stop  offset="0" style="stop-color:#FFAD38"/>
								<stop  offset="1" style="stop-color:#F36309"/>
							</linearGradient>
							<path class="st10" d="M62.5,29.9L11,0.5L8.2,12.3l51.6,29.5L62.5,29.9z"/>
							<path class="st11" d="M14.2,13.3c1.5,0.8,3.1,0,3.6-2c0.5-1.9-0.4-4.2-1.9-5c-1.5-0.8-3.1,0-3.6,2
								C11.9,10.2,12.7,12.5,14.2,13.3z"/>
							<path class="st12" d="M6.4,28.4l6,3.4L10.9,38l-6-3.4L6.4,28.4z M18.7,23.2l6,3.4l-1.5,6.3l-6-3.4L18.7,23.2z M16.2,33.9
								l6,3.4l-1.5,6.3l-6-3.4L16.2,33.9z M28.4,28.8l6,3.4l-1.5,6.3l-6-3.4L28.4,28.8z M25.9,39.5l6,3.4l-1.5,6.3l-6-3.4L25.9,39.5
								z M38.7,34.7l6,3.4l-1.5,6.3l-6-3.4L38.7,34.7z M48.5,40.2l6,3.4L53,49.9l-6-3.4L48.5,40.2z M36.2,45.4l6,3.4L40.7,55l-6-3.4
								L36.2,45.4z M33.8,56l6,3.4l-1.5,6.3l-6-3.4L33.8,56z M31.3,66.7l6,3.4l-1.5,6.3l-6-3.4L31.3,66.7z M43.5,61.6l6,3.4L48,71.3
								l-6-3.4L43.5,61.6z M46,50.9l6,3.4l-1.5,6.3l-6-3.4L46,50.9z M4,39l6,3.4l-1.5,6.3l-6-3.4L4,39z M1.5,49.7l6,3.4L6,59.4L0,56
								L1.5,49.7z M13.7,44.6l6,3.4l-1.5,6.3l-6-3.4L13.7,44.6z M11.2,55.3l6,3.4L15.7,65l-6-3.4L11.2,55.3z M23.5,50.2l6,3.4
								L28,59.8l-6-3.4L23.5,50.2z M21,60.8l6,3.4l-1.5,6.3l-6-3.4L21,60.8z"/>
						</g>
					</g>
					<g transform="translate(0 .84375)">
						<path class="st9" d="M86.4,39L18.3,0.1h-1.1L0.8,74.6l68.4,39L86.4,39z"/>
						
							<linearGradient id="SVGID_9_" gradientUnits="userSpaceOnUse" x1="322.3356" y1="305.5378" x2="321.8125" y2="304.8795" gradientTransform="matrix(-85.356 0 0 -113.0713 27577.8184 34568.0586)">
							<stop  offset="0" style="stop-color:#F8D79B"/>
							<stop  offset="1" style="stop-color:#FFAD38"/>
						</linearGradient>
						<path class="st13" d="M85.5,39.1l-68.2-39L0.1,74.7l68.4,38.5L85.5,39.1z"/>
						
							<linearGradient id="SVGID_10_" gradientUnits="userSpaceOnUse" x1="323.4344" y1="306.0728" x2="324.0297" y2="304.7455" gradientTransform="matrix(-54.3018 0 0 -41.3372 17591.998 12657.1807)">
							<stop  offset="0" style="stop-color:#FAB643"/>
							<stop  offset="0.6006" style="stop-color:#F48222"/>
							<stop  offset="1" style="stop-color:#F16322"/>
						</linearGradient>
						<path class="st14" d="M74.3,44.6L22.8,15.2L20,27.1l51.6,29.5L74.3,44.6z"/>
						<path class="st11" d="M26,28c1.5,0.8,3.1,0,3.6-2c0.5-1.9-0.4-4.2-1.9-5c-1.5-0.8-3.1,0-3.6,2C23.7,24.9,24.5,27.2,26,28z"/>
						<path class="st15" d="M18.2,43.1l6,3.4l-1.5,6.3l-6-3.4L18.2,43.1z M30.4,38l6,3.4L35,47.6l-6-3.4L30.4,38z M28,48.7l6,3.4
							l-1.5,6.3l-6-3.4L28,48.7z M40.2,43.5l6,3.4l-1.5,6.3l-6-3.4L40.2,43.5z M37.7,54.2l6,3.4l-1.5,6.3l-6-3.4L37.7,54.2z
							 M50.5,49.4l6,3.4L55,59.1l-6-3.4L50.5,49.4z M60.2,55l6,3.4l-1.5,6.3l-6-3.4L60.2,55z M48,60.1l6,3.4l-1.5,6.3l-6-3.4
							L48,60.1z M45.5,70.8l6,3.4L50,80.4l-6-3.4L45.5,70.8z M43.1,81.4l6,3.4l-1.5,6.3l-6-3.4L43.1,81.4z M55.3,76.3l6,3.4L59.8,86
							l-6-3.4L55.3,76.3z M57.8,65.6l6,3.4l-1.5,6.3l-6-3.4L57.8,65.6z M15.7,53.8l6,3.4l-1.5,6.3l-6-3.4L15.7,53.8z M13.3,64.5
							l6,3.4l-1.5,6.3l-6-3.4L13.3,64.5z M25.5,59.3l6,3.4L30,69l-6-3.4L25.5,59.3z M23,70l6,3.4l-1.5,6.3l-6-3.4L23,70z M35.2,64.9
							l6,3.4l-1.5,6.3l-6-3.4L35.2,64.9z M32.8,75.6l6,3.4l-1.5,6.3l-6-3.4L32.8,75.6z"/>
					</g>
					<path class="st6" d="M88,40.8l-68.2-39l2.4-1.4l68.2,39L88,40.8z"/>
					<g>
						<g transform="translate(66.65628 23.625)">
							<path class="st9" d="M5.5,5.4C5.7,5,6,4.1,6,3.5c0-1.2-0.4-1.5-1.3-1C3.4,3.3,2.3,5.3,2.3,7c0,0.9,0.2,1.2,0.5,1.2
								c0.6,0.1,1.1,0.6,1,1.2c-0.1,0.6-0.6,1.1-1.2,1C1,10.4,0,8.9,0,7c0-2.5,1.5-5.3,3.6-6.4c2.5-1.4,4.7,0.1,4.7,3
								c0,0.9-0.3,2.2-0.7,3L5.5,5.4z"/>
							<path class="st9" d="M11.4,8.8c0.2-0.4,0.4-1.3,0.4-1.9c0-1.2-0.4-1.5-1.3-1c-1.3,0.7-2.4,2.8-2.4,4.4c0,0.9,0.2,1.2,0.5,1.2
								c0.6,0.1,1.1,0.6,1,1.2c-0.1,0.6-0.6,1.1-1.2,1c-1.7-0.1-2.7-1.6-2.7-3.5c0-2.5,1.5-5.3,3.6-6.4c2.5-1.4,4.7,0.1,4.7,3
								c0,0.9-0.3,2.2-0.7,3L11.4,8.8z"/>
							<path class="st9" d="M17.3,12.1c0.2-0.4,0.4-1.3,0.4-1.9c0-1.2-0.4-1.5-1.3-1c-1.3,0.7-2.4,2.8-2.4,4.4
								c0,0.9,0.2,1.2,0.5,1.2c0.6,0.1,1.1,0.6,1,1.2c-0.1,0.6-0.6,1.1-1.2,1c-1.6-0.1-2.7-1.6-2.7-3.5c0-2.5,1.5-5.3,3.6-6.4
								c2.5-1.4,4.7,0.1,4.7,3c0,0.9-0.3,2.2-0.7,3L17.3,12.1z"/>
						</g>
						<g transform="translate(25.31256)">
							<path class="st9" d="M5.5,5.4C5.7,5,6,4.1,6,3.5c0-1.2-0.4-1.5-1.3-1C3.4,3.3,2.3,5.3,2.3,7c0,0.9,0.2,1.2,0.5,1.2
								c0.6,0.1,1.1,0.6,1,1.2c-0.1,0.6-0.6,1.1-1.2,1C1,10.4,0,8.9,0,7c0-2.5,1.5-5.3,3.6-6.4c2.5-1.4,4.7,0.1,4.7,3
								c0,0.9-0.3,2.2-0.7,3L5.5,5.4z"/>
							<path class="st9" d="M11.4,8.8c0.2-0.4,0.4-1.3,0.4-1.9c0-1.2-0.4-1.5-1.3-1c-1.3,0.7-2.4,2.8-2.4,4.4c0,0.9,0.2,1.2,0.5,1.2
								c0.6,0.1,1.1,0.6,1,1.2c-0.1,0.6-0.6,1.1-1.2,1c-1.7-0.1-2.7-1.6-2.7-3.5c0-2.5,1.5-5.3,3.6-6.4c2.5-1.4,4.7,0.1,4.7,3
								c0,0.9-0.3,2.2-0.7,3L11.4,8.8z"/>
							<path class="st9" d="M17.3,12.1c0.2-0.4,0.4-1.3,0.4-1.9c0-1.2-0.4-1.5-1.3-1c-1.3,0.7-2.4,2.8-2.4,4.4
								c0,0.9,0.2,1.2,0.5,1.2c0.6,0.1,1.1,0.6,1,1.2c-0.1,0.6-0.6,1.1-1.2,1c-1.6-0.1-2.7-1.6-2.7-3.5c0-2.5,1.5-5.3,3.6-6.4
								c2.5-1.4,4.7,0.1,4.7,3c0,0.9-0.3,2.2-0.7,3L17.3,12.1z"/>
						</g>
					</g>
				</g>
			</g>
			<g transform="translate(196 72)">
				
					<linearGradient id="SVGID_11_" gradientUnits="userSpaceOnUse" x1="-279.0753" y1="234.6011" x2="-278.8849" y2="234.2487" gradientTransform="matrix(-142.8858 0 0 -47.4382 -39797.7422 11172.1152)">
					<stop  offset="0" style="stop-color:#FAB643"/>
					<stop  offset="0.5597" style="stop-color:#F48222"/>
					<stop  offset="1" style="stop-color:#F16322"/>
				</linearGradient>
				<path class="st16" d="M0.5,40.9v0.9c0,0.2,0.1,0.4,0.2,0.6c0.1,0.2,0.3,0.3,0.5,0.4l78.5,44.9c1.1,0.7,2.6,0.7,3.7,0l59.4-34.5
					c0.4-0.2,0.6-0.6,0.6-1.1v-0.8L0.5,40.9z"/>
				<path class="st12" d="M60.5,5.3L1.1,39.9c-0.6,0.3-0.8,1.1-0.4,1.7C0.8,41.8,1,41.9,1.1,42l78.6,45c1.1,0.7,2.6,0.7,3.7,0
					l59.4-34.5c0.6-0.3,0.8-1.1,0.5-1.7c-0.1-0.2-0.3-0.3-0.5-0.4l-78.6-45C63,4.7,61.6,4.7,60.5,5.3z"/>
				
					<linearGradient id="SVGID_12_" gradientUnits="userSpaceOnUse" x1="-279.0753" y1="234.6011" x2="-278.8849" y2="234.2487" gradientTransform="matrix(-142.8858 0 0 -47.4382 -39797.7422 11169.9023)">
					<stop  offset="0" style="stop-color:#FAB643"/>
					<stop  offset="0.5597" style="stop-color:#F48222"/>
					<stop  offset="1" style="stop-color:#F16322"/>
				</linearGradient>
				<path class="st17" d="M0.5,38.6v0.9c0,0.2,0.1,0.4,0.2,0.6c0.1,0.2,0.3,0.3,0.5,0.4l78.5,44.9c1.1,0.7,2.6,0.7,3.7,0L142.8,51
					c0.4-0.2,0.6-0.6,0.6-1.1v-0.8L0.5,38.6z"/>
				<path class="st12" d="M60.5,3.1L1.1,37.7c-0.6,0.3-0.8,1.1-0.4,1.7c0.1,0.2,0.3,0.3,0.4,0.4l78.6,45c1.1,0.7,2.6,0.7,3.7,0
					l59.4-34.5c0.6-0.3,0.8-1.1,0.5-1.7c-0.1-0.2-0.3-0.3-0.5-0.4l-78.6-45C63,2.5,61.6,2.5,60.5,3.1z"/>
				
					<linearGradient id="SVGID_13_" gradientUnits="userSpaceOnUse" x1="-279.0753" y1="234.6011" x2="-278.8849" y2="234.2487" gradientTransform="matrix(-142.8858 0 0 -47.4381 -39797.7422 11167.6465)">
					<stop  offset="0" style="stop-color:#FAB643"/>
					<stop  offset="0.5597" style="stop-color:#F48222"/>
					<stop  offset="1" style="stop-color:#F16322"/>
				</linearGradient>
				<path class="st18" d="M0.5,36.4v0.9c0,0.2,0.1,0.4,0.2,0.6c0.1,0.2,0.3,0.3,0.5,0.4l78.5,44.9c1.1,0.7,2.6,0.7,3.7,0l59.4-34.5
					c0.4-0.2,0.6-0.6,0.6-1.1v-0.8L0.5,36.4z"/>
				<path class="st11" d="M60.3,0.9L1,35.4c-0.6,0.3-0.8,1.1-0.4,1.7c0.1,0.2,0.3,0.3,0.4,0.4l78.6,45c1.1,0.7,2.6,0.7,3.7,0
					l59.4-34.5c0.6-0.3,0.8-1.1,0.5-1.7c-0.1-0.2-0.3-0.3-0.5-0.4L64,0.9C62.9,0.2,61.5,0.2,60.3,0.9z"/>
				<path class="st12" d="M70.9,65.9l-2.3-1.3L114,38.3l2.3,1.3L70.9,65.9z M63,61.3L60.7,60l45.3-26.3l2.3,1.3L63,61.3z M55.1,56.7
					l-2.3-1.3l45.3-26.3l2.3,1.3L55.1,56.7z M47.1,52.1l-2.3-1.3l45.3-26.3l2.3,1.3L47.1,52.1z M39.2,47.5l-2.3-1.3l25.5-14.8
					l2.3,1.3L39.2,47.5z M31.3,42.9L29,41.6l25.5-14.8l2.3,1.3L31.3,42.9z"/>
				
					<linearGradient id="SVGID_14_" gradientUnits="userSpaceOnUse" x1="-274.7694" y1="235.4095" x2="-274.5791" y2="234.2784" gradientTransform="matrix(19.6407 0 0 -11.9873 5514.7559 2860.5247)">
					<stop  offset="0" style="stop-color:#FAB643"/>
					<stop  offset="0.5597" style="stop-color:#F48222"/>
					<stop  offset="1" style="stop-color:#F16322"/>
				</linearGradient>
				<path class="st19" d="M120.8,42.5l9.8,6l-9.8,6l-9.8-6L120.8,42.5z"/>
				
					<linearGradient id="SVGID_15_" gradientUnits="userSpaceOnUse" x1="-280.3111" y1="234.0777" x2="-279.4567" y2="234.4182" gradientTransform="matrix(-53.0646 0 0 -30.6106 -14809.4355 7193.1167)">
					<stop  offset="0" style="stop-color:#FFAD38"/>
					<stop  offset="1" style="stop-color:#F36309"/>
				</linearGradient>
				<path class="st20" d="M64.7,7.9L18.5,34.6l6.9,4l46.2-26.6L64.7,7.9z"/>
				<path class="st9" d="M66.1,18.3c4.1-2.3,10.7-2.3,14.8,0c4.1,2.3,4.1,6.1,0,8.5c-4.1,2.3-10.7,2.3-14.8,0
					C62,24.4,62,20.6,66.1,18.3z M79.5,19c-3.4-1.9-8.8-1.9-12.2,0c-3.4,1.9-3.4,5,0,6.9s8.8,1.9,12.2,0C82.9,24,82.9,20.9,79.5,19z
					 M74,20c0.5,0.3,0.8,0.5,0.9,0.8c0.1,0.3,0.1,0.6,0,0.9l4.1,0.8l0.1,0l-1,0.7l-3.7-0.7l-1.1,0.7l2.6,1.5l-1,0.7L68,21.6l1.9-1.4
					c0.6-0.4,1.3-0.7,2-0.7C72.6,19.5,73.3,19.6,74,20z M72,20.4c-0.4,0-0.7,0.1-1.1,0.3l-1,0.7l2.3,1.3l1-0.7
					c0.3-0.2,0.5-0.5,0.5-0.7s-0.2-0.5-0.6-0.7C72.7,20.5,72.4,20.4,72,20.4z"/>
			</g>
			<g transform="translate(28 12)">
				
					<linearGradient id="SVGID_16_" gradientUnits="userSpaceOnUse" x1="-110.5252" y1="295.704" x2="-109.7001" y2="293.8418" gradientTransform="matrix(107.2748 0 0 -127.3844 11919.0547 37664.1758)">
					<stop  offset="0" style="stop-color:#FAB643"/>
					<stop  offset="0.5597" style="stop-color:#F48222"/>
					<stop  offset="1" style="stop-color:#F16322;stop-opacity:0"/>
				</linearGradient>
				<path class="st21" d="M194.2,142.5c0.1,0.1,0.4,20.3,0.6,60.6L87.6,269.9v-64.2L194.2,142.5z"/>
				
					<linearGradient id="SVGID_17_" gradientUnits="userSpaceOnUse" x1="-109.2476" y1="295.2089" x2="-109.663" y2="293.8204" gradientTransform="matrix(83.5519 0 0 -108.3228 9202.2617 32069.6094)">
					<stop  offset="0" style="stop-color:#FAB643"/>
					<stop  offset="0.5597" style="stop-color:#F48222"/>
					<stop  offset="1" style="stop-color:#F16322;stop-opacity:0"/>
				</linearGradient>
				<path class="st22" d="M87.6,269.9L4,222.6c0-40.5,0-60.8,0.1-61l83.5,44.1V269.9z"/>
				
					<linearGradient id="SVGID_18_" gradientUnits="userSpaceOnUse" x1="-110.2403" y1="294.8221" x2="-110.05" y2="293.7984" gradientTransform="matrix(191.5338 0 0 -108.3815 21188.2559 32027.7148)">
					<stop  offset="0" style="stop-color:#FAB643"/>
					<stop  offset="0.5597" style="stop-color:#F48222"/>
					<stop  offset="1" style="stop-color:#F16322"/>
				</linearGradient>
				<path class="st23" d="M117.7,103.2l76.5,39.2c1.1,0.6,2.7,4-0.7,5.9L87.6,209.9c-2.1,1.2-4.6,1.2-6.7,0
					c-33.3-19.1-58.3-33.4-75-42.9c-1.5-0.9-2.1-2.7-1.8-5.4L111,103.2C113.1,102.1,115.6,102.1,117.7,103.2L117.7,103.2z"/>
				
					<linearGradient id="SVGID_19_" gradientUnits="userSpaceOnUse" x1="-110.2403" y1="294.8221" x2="-110.05" y2="293.7984" gradientTransform="matrix(191.5338 0 0 -108.3815 21188.2559 32027.7148)">
					<stop  offset="0" style="stop-color:#FAB643"/>
					<stop  offset="0.5597" style="stop-color:#F48222"/>
					<stop  offset="1" style="stop-color:#F16322"/>
				</linearGradient>
				<path class="st24" d="M117.7,103.2l76.5,39.2c1.1,0.6,2.7,4-0.7,5.9L87.6,209.9c-2.1,1.2-4.6,1.2-6.7,0
					c-33.3-19.1-58.3-33.4-75-42.9c-1.5-0.9-2.1-2.7-1.8-5.4L111,103.2C113.1,102.1,115.6,102.1,117.7,103.2L117.7,103.2z"/>
				<path class="st25" d="M117.7,98.2l75.8,43.4c1.1,0.6,1.4,2,0.8,3c-0.2,0.3-0.5,0.6-0.8,0.8L87.6,206.8c-2.1,1.2-4.6,1.2-6.7,0
					L5.1,163.5c-1.1-0.6-1.4-2-0.8-3c0.2-0.3,0.5-0.6,0.8-0.8L111,98.2C113.1,97,115.6,97,117.7,98.2z"/>
				
					<linearGradient id="SVGID_20_" gradientUnits="userSpaceOnUse" x1="-109.4823" y1="294.9622" x2="-108.887" y2="293.6349" gradientTransform="matrix(56.1795 0 0 -32.5352 6252.2144 9739.1436)">
					<stop  offset="0" style="stop-color:#FAB643"/>
					<stop  offset="0.6006" style="stop-color:#F48222"/>
					<stop  offset="1" style="stop-color:#F16322"/>
				</linearGradient>
				<path class="st26" d="M125.8,150.8l22.3,12.8c0.3,0.2,0.4,0.6,0.2,0.9c-0.1,0.1-0.1,0.2-0.2,0.2l-31.2,18.1
					c-0.6,0.3-1.4,0.3-2,0L92.6,170c-0.3-0.2-0.4-0.6-0.2-0.9c0.1-0.1,0.1-0.2,0.2-0.2l31.2-18.1
					C124.4,150.4,125.2,150.4,125.8,150.8z"/>
				
					<linearGradient id="SVGID_21_" gradientUnits="userSpaceOnUse" x1="-109.9757" y1="294.801" x2="-109.7854" y2="293.7773" gradientTransform="matrix(114.3879 0 0 -158.7819 12621.0557 46768.7461)">
					<stop  offset="0" style="stop-color:#FAB643"/>
					<stop  offset="0.5597" style="stop-color:#F48222"/>
					<stop  offset="1" style="stop-color:#F16322"/>
				</linearGradient>
				<path class="st27" d="M1.5,63.2L107.4,1.6c1-0.6,7-3.6,7,3.5c0,4.7-1.3,33.8-4,87.4c0,1.1-0.6,2.1-1.5,2.6L6.7,158.9
					c-4,1.5-6.7-1.6-6.7-4.9V65.8C0,64.8,0.6,63.8,1.5,63.2z"/>
				<path class="st28" d="M5.5,65.2L111.4,3.6c1-0.6,2.2-0.2,2.7,0.7c0.2,0.3,0.3,0.7,0.3,1v89.1c0,1.1-0.6,2.1-1.5,2.6L7,158.7
					c-1,0.6-2.2,0.2-2.7-0.7c-0.2-0.3-0.3-0.7-0.3-1V67.8C4,66.8,4.6,65.8,5.5,65.2z"/>
				<path class="st29" d="M10.5,67.2l95.9-55.6c1-0.6,2.2-0.2,2.7,0.7c0.2,0.3,0.3,0.7,0.3,1v79.1c0,1.1-0.6,2.1-1.5,2.6L12,150.7
					c-1,0.6-2.2,0.2-2.7-0.7c-0.2-0.3-0.3-0.7-0.3-1V69.8C9,68.8,9.6,67.8,10.5,67.2z"/>
				
					<linearGradient id="SVGID_22_" gradientUnits="userSpaceOnUse" x1="-110.1146" y1="294.8403" x2="-109.9243" y2="293.8166" gradientTransform="matrix(144.4621 0 0 -83.8793 15972.3379 24811.8262)">
					<stop  offset="0" style="stop-color:#FAB643"/>
					<stop  offset="0.5597" style="stop-color:#F48222"/>
					<stop  offset="1" style="stop-color:#F16322"/>
				</linearGradient>
				<path class="st30" d="M143.6,133.1l-5.8-3.4c-0.3-0.2-0.3-0.5,0-0.7l5.3-3.1c0.3-0.2,0.8-0.2,1.2,0l5.8,3.4
					c0.3,0.2,0.3,0.5,0,0.7l-5.3,3.1C144.4,133.3,143.9,133.3,143.6,133.1L143.6,133.1z M18.2,166.3c-0.3-0.2-0.3-0.5,0-0.7l5.4-3.1
					c0.3-0.2,0.8-0.2,1.2,0l5,2.9c0.3,0.2,0.3,0.5,0,0.7l-5.4,3.1c-0.3,0.2-0.8,0.2-1.2,0L18.2,166.3z M25.5,162.1
					c-0.3-0.2-0.3-0.5,0-0.7l5.4-3.1c0.3-0.2,0.8-0.2,1.2,0l5,2.9c0.3,0.2,0.3,0.5,0,0.7l-5.4,3.1c-0.3,0.2-0.8,0.2-1.2,0
					L25.5,162.1z M36.6,163.8c-0.3-0.2-0.3-0.5,0-0.7L42,160c0.3-0.2,0.8-0.2,1.2,0l5,2.9c0.3,0.2,0.3,0.5,0,0.7l-5.4,3.1
					c-0.3,0.2-0.8,0.2-1.2,0L36.6,163.8z M43.9,159.6c-0.3-0.2-0.3-0.5,0-0.7l5.4-3.1c0.3-0.2,0.8-0.2,1.2,0l5,2.9
					c0.3,0.2,0.3,0.5,0,0.7l-5.4,3.1c-0.3,0.2-0.8,0.2-1.2,0L43.9,159.6z M51.1,155.4c-0.3-0.2-0.3-0.5,0-0.7l5.4-3.1
					c0.3-0.2,0.8-0.2,1.2,0l5,2.9c0.3,0.2,0.3,0.5,0,0.7l-5.4,3.1c-0.3,0.2-0.8,0.2-1.2,0L51.1,155.4z M58.4,151.2
					c-0.3-0.2-0.3-0.5,0-0.7l5.4-3.1c0.3-0.2,0.8-0.2,1.2,0l5,2.9c0.3,0.2,0.3,0.5,0,0.7l-5.4,3.1c-0.3,0.2-0.8,0.2-1.2,0
					L58.4,151.2z M65.7,147c-0.3-0.2-0.3-0.5,0-0.7l5.4-3.1c0.3-0.2,0.8-0.2,1.2,0l5,2.9c0.3,0.2,0.3,0.5,0,0.7l-5.4,3.1
					c-0.3,0.2-0.8,0.2-1.2,0L65.7,147z M72.9,142.8c-0.3-0.2-0.3-0.5,0-0.7l5.4-3.1c0.3-0.2,0.8-0.2,1.2,0l5,2.9
					c0.3,0.2,0.3,0.5,0,0.7l-5.4,3.1c-0.3,0.2-0.8,0.2-1.2,0L72.9,142.8z M80.2,138.5c-0.3-0.2-0.3-0.5,0-0.7l5.4-3.1
					c0.3-0.2,0.8-0.2,1.2,0l5,2.9c0.3,0.2,0.3,0.5,0,0.7l-5.4,3.1c-0.3,0.2-0.8,0.2-1.2,0L80.2,138.5z M87.5,134.3
					c-0.3-0.2-0.3-0.5,0-0.7l5.4-3.1c0.3-0.2,0.8-0.2,1.2,0l5,2.9c0.3,0.2,0.3,0.5,0,0.7l-5.4,3.1c-0.3,0.2-0.8,0.2-1.2,0
					L87.5,134.3z M32.7,157.9c-0.3-0.2-0.3-0.5,0-0.7l5.4-3.1c0.3-0.2,0.8-0.2,1.2,0l5,2.9c0.3,0.2,0.3,0.5,0,0.7l-5.4,3.1
					c-0.3,0.2-0.8,0.2-1.2,0L32.7,157.9z M40,153.7c-0.3-0.2-0.3-0.5,0-0.7l5.4-3.1c0.3-0.2,0.8-0.2,1.2,0l5,2.9
					c0.3,0.2,0.3,0.5,0,0.7l-5.4,3.1c-0.3,0.2-0.8,0.2-1.2,0L40,153.7z M47.3,149.5c-0.3-0.2-0.3-0.5,0-0.7l5.4-3.1
					c0.3-0.2,0.8-0.2,1.2,0l5,2.9c0.3,0.2,0.3,0.5,0,0.7l-5.4,3.1c-0.3,0.2-0.8,0.2-1.2,0L47.3,149.5z M54.5,145.2
					c-0.3-0.2-0.3-0.5,0-0.7l5.4-3.1c0.3-0.2,0.8-0.2,1.2,0l5,2.9c0.3,0.2,0.3,0.5,0,0.7l-5.4,3.1c-0.3,0.2-0.8,0.2-1.2,0
					L54.5,145.2z M61.8,141c-0.3-0.2-0.3-0.5,0-0.7l5.4-3.1c0.3-0.2,0.8-0.2,1.2,0l5,2.9c0.3,0.2,0.3,0.5,0,0.7l-5.4,3.1
					c-0.3,0.2-0.8,0.2-1.2,0L61.8,141z M69.1,136.8c-0.3-0.2-0.3-0.5,0-0.7l5.4-3.1c0.3-0.2,0.8-0.2,1.2,0l5,2.9
					c0.3,0.2,0.3,0.5,0,0.7l-5.4,3.1c-0.3,0.2-0.8,0.2-1.2,0L69.1,136.8z M76.3,132.6c-0.3-0.2-0.3-0.5,0-0.7l5.4-3.1
					c0.3-0.2,0.8-0.2,1.2,0l5,2.9c0.3,0.2,0.3,0.5,0,0.7l-5.4,3.1c-0.3,0.2-0.8,0.2-1.2,0L76.3,132.6z M83.6,128.4
					c-0.3-0.2-0.3-0.5,0-0.7l5.4-3.1c0.3-0.2,0.8-0.2,1.2,0l5,2.9c0.3,0.2,0.3,0.5,0,0.7l-5.4,3.1c-0.3,0.2-0.8,0.2-1.2,0
					L83.6,128.4z M25.3,170.4c-0.3-0.2-0.3-0.5,0-0.7l9.4-5.5c0.3-0.2,0.8-0.2,1.2,0l5,2.9c0.3,0.2,0.3,0.5,0,0.7l-9.4,5.5
					c-0.3,0.2-0.8,0.2-1.2,0L25.3,170.4z M13.3,163.5c-0.3-0.2-0.3-0.5,0-0.7l5.6-3.3c0.3-0.2,0.8-0.2,1.2,0l2.9,1.7
					c0.3,0.2,0.3,0.5,0,0.7l-5.6,3.3c-0.3,0.2-0.8,0.2-1.2,0L13.3,163.5z M20.8,159.1c-0.3-0.2-0.3-0.5,0-0.7l5.6-3.3
					c0.3-0.2,0.8-0.2,1.2,0l2.9,1.7c0.3,0.2,0.3,0.5,0,0.7l-5.6,3.3c-0.3,0.2-0.8,0.2-1.2,0L20.8,159.1z M28.4,154.7
					c-0.3-0.2-0.3-0.5,0-0.7l5.6-3.3c0.3-0.2,0.8-0.2,1.2,0l2.9,1.7c0.3,0.2,0.3,0.5,0,0.7l-5.6,3.3c-0.3,0.2-0.8,0.2-1.2,0
					L28.4,154.7z M35.9,150.3c-0.3-0.2-0.3-0.5,0-0.7l5.6-3.3c0.3-0.2,0.8-0.2,1.2,0l2.9,1.7c0.3,0.2,0.3,0.5,0,0.7L40,152
					c-0.3,0.2-0.8,0.2-1.2,0L35.9,150.3z M43.5,145.9c-0.3-0.2-0.3-0.5,0-0.7l5.6-3.3c0.3-0.2,0.8-0.2,1.2,0l2.9,1.7
					c0.3,0.2,0.3,0.5,0,0.7l-5.6,3.3c-0.3,0.2-0.8,0.2-1.2,0L43.5,145.9z M51.1,141.5c-0.3-0.2-0.3-0.5,0-0.7l5.6-3.3
					c0.3-0.2,0.8-0.2,1.2,0l2.9,1.7c0.3,0.2,0.3,0.5,0,0.7l-5.6,3.3c-0.3,0.2-0.8,0.2-1.2,0L51.1,141.5z M58.6,137.1
					c-0.3-0.2-0.3-0.5,0-0.7l5.6-3.3c0.3-0.2,0.8-0.2,1.2,0l2.9,1.7c0.3,0.2,0.3,0.5,0,0.7l-5.6,3.3c-0.3,0.2-0.8,0.2-1.2,0
					L58.6,137.1z M66.2,132.8c-0.3-0.2-0.3-0.5,0-0.7l5.6-3.3c0.3-0.2,0.8-0.2,1.2,0l2.9,1.7c0.3,0.2,0.3,0.5,0,0.7l-5.6,3.3
					c-0.3,0.2-0.8,0.2-1.2,0L66.2,132.8z M73.7,128.4c-0.3-0.2-0.3-0.5,0-0.7l5.6-3.3c0.3-0.2,0.8-0.2,1.2,0l2.9,1.7
					c0.3,0.2,0.3,0.5,0,0.7l-5.6,3.3c-0.3,0.2-0.8,0.2-1.2,0L73.7,128.4z M81.3,124c-0.3-0.2-0.3-0.5,0-0.7l5.6-3.3
					c0.3-0.2,0.8-0.2,1.2,0l2.9,1.7c0.3,0.2,0.3,0.5,0,0.7l-5.6,3.3c-0.3,0.2-0.8,0.2-1.2,0L81.3,124z M130.3,109.5l12.1,7
					c0.3,0.2,0.3,0.5,0,0.7l-3.8,2.2c-0.3,0.2-0.8,0.2-1.2,0l-6.5-3.8l-1.1,0.6c-0.3,0.2-0.8,0.2-1.2,0l-5-2.9
					c-0.3-0.2-0.3-0.5,0-0.7l5.4-3.1C129.4,109.3,129.9,109.3,130.3,109.5L130.3,109.5z M103.3,133.3c-0.3-0.2-0.3-0.5,0-0.7
					l5.4-3.1c0.3-0.2,0.8-0.2,1.2,0l5,2.9c0.3,0.2,0.3,0.5,0,0.7l-5.4,3.1c-0.3,0.2-0.8,0.2-1.2,0L103.3,133.3z M110.6,129.1
					c-0.3-0.2-0.3-0.5,0-0.7l5.4-3.1c0.3-0.2,0.8-0.2,1.2,0l5,2.9c0.3,0.2,0.3,0.5,0,0.7l-5.4,3.1c-0.3,0.2-0.8,0.2-1.2,0
					L110.6,129.1z M117.9,124.9c-0.3-0.2-0.3-0.5,0-0.7l5.4-3.1c0.3-0.2,0.8-0.2,1.2,0l5,2.9c0.3,0.2,0.3,0.5,0,0.7l-5.4,3.1
					c-0.3,0.2-0.8,0.2-1.2,0L117.9,124.9z M125.1,120.7c-0.3-0.2-0.3-0.5,0-0.7l5.4-3.1c0.3-0.2,0.8-0.2,1.2,0l5,2.9
					c0.3,0.2,0.3,0.5,0,0.7l-5.4,3.1c-0.3,0.2-0.8,0.2-1.2,0L125.1,120.7z M123.4,138.1c-0.3-0.2-0.3-0.5,0-0.7l5.4-3.1
					c0.3-0.2,0.8-0.2,1.2,0l5.8,3.4c0.3,0.2,0.3,0.5,0,0.7l-5.4,3.1c-0.3,0.2-0.8,0.2-1.2,0L123.4,138.1z M134.1,135.9
					c-0.3-0.2-0.3-0.5,0-0.7l5.3-3.1c0.3-0.2,0.8-0.2,1.2,0l2.3,1.3c0.3,0.2,0.3,0.5,0,0.7l-5.3,3.1c-0.3,0.2-0.8,0.2-1.2,0
					L134.1,135.9z M148.5,127.6c-0.3-0.2-0.3-0.5,0-0.7l5.3-3.1c0.3-0.2,0.8-0.2,1.2,0l2.3,1.3c0.3,0.2,0.3,0.5,0,0.7l-5.3,3.1
					c-0.3,0.2-0.8,0.2-1.2,0L148.5,127.6z M114,143.5c-0.3-0.2-0.3-0.5,0-0.7l7.6-4.4c0.3-0.2,0.8-0.2,1.2,0l5.8,3.4
					c0.3,0.2,0.3,0.5,0,0.7l-7.6,4.4c-0.3,0.2-0.8,0.2-1.2,0L114,143.5z M128.7,126.8c-0.3-0.2-0.3-0.5,0-0.7l14.5-8.4
					c0.3-0.2,0.8-0.2,1.2,0l5,2.9c0.3,0.2,0.3,0.5,0,0.7l-14.5,8.4c-0.3,0.2-0.8,0.2-1.2,0L128.7,126.8z M114.2,135.2
					c-0.3-0.2-0.3-0.5,0-0.7l5.4-3.1c0.3-0.2,0.8-0.2,1.2,0l5,2.9c0.3,0.2,0.3,0.5,0,0.7l-5.4,3.1c-0.3,0.2-0.8,0.2-1.2,0
					L114.2,135.2z M121.4,131c-0.3-0.2-0.3-0.5,0-0.7l5.4-3.1c0.3-0.2,0.8-0.2,1.2,0l5,2.9c0.3,0.2,0.3,0.5,0,0.7l-5.4,3.1
					c-0.3,0.2-0.8,0.2-1.2,0L121.4,131z M94.7,130.1c-0.3-0.2-0.3-0.5,0-0.7l5.4-3.1c0.3-0.2,0.8-0.2,1.2,0l5,2.9
					c0.3,0.2,0.3,0.5,0,0.7l-5.4,3.1c-0.3,0.2-0.8,0.2-1.2,0L94.7,130.1z M102,125.9c-0.3-0.2-0.3-0.5,0-0.7l5.4-3.1
					c0.3-0.2,0.8-0.2,1.2,0l5,2.9c0.3,0.2,0.3,0.5,0,0.7l-5.4,3.1c-0.3,0.2-0.8,0.2-1.2,0L102,125.9z M109.2,121.7
					c-0.3-0.2-0.3-0.5,0-0.7l5.4-3.1c0.3-0.2,0.8-0.2,1.2,0l5,2.9c0.3,0.2,0.3,0.5,0,0.7l-5.4,3.1c-0.3,0.2-0.8,0.2-1.2,0
					L109.2,121.7z M116.5,117.5c-0.3-0.2-0.3-0.5,0-0.7l5.4-3.1c0.3-0.2,0.8-0.2,1.2,0l5,2.9c0.3,0.2,0.3,0.5,0,0.7l-5.4,3.1
					c-0.3,0.2-0.8,0.2-1.2,0L116.5,117.5z M90.9,124.1c-0.3-0.2-0.3-0.5,0-0.7l5.4-3.1c0.3-0.2,0.8-0.2,1.2,0l5,2.9
					c0.3,0.2,0.3,0.5,0,0.7l-5.4,3.1c-0.3,0.2-0.8,0.2-1.2,0L90.9,124.1z M98.1,119.9c-0.3-0.2-0.3-0.5,0-0.7l5.4-3.1
					c0.3-0.2,0.8-0.2,1.2,0l5,2.9c0.3,0.2,0.3,0.5,0,0.7l-5.4,3.1c-0.3,0.2-0.8,0.2-1.2,0L98.1,119.9z M105.4,115.7
					c-0.3-0.2-0.3-0.5,0-0.7l5.4-3.1c0.3-0.2,0.8-0.2,1.2,0l5,2.9c0.3,0.2,0.3,0.5,0,0.7l-5.4,3.1c-0.3,0.2-0.8,0.2-1.2,0
					L105.4,115.7z M112.6,111.5c-0.3-0.2-0.3-0.5,0-0.7l9.4-5.5c0.3-0.2,0.8-0.2,1.2,0l5,2.9c0.3,0.2,0.3,0.5,0,0.7l-9.4,5.5
					c-0.3,0.2-0.8,0.2-1.2,0L112.6,111.5z M88.8,119.6c-0.3-0.2-0.3-0.5,0-0.7l5.6-3.3c0.3-0.2,0.8-0.2,1.2,0l2.9,1.7
					c0.3,0.2,0.3,0.5,0,0.7l-5.6,3.3c-0.3,0.2-0.8,0.2-1.2,0L88.8,119.6z M96.4,115.2c-0.3-0.2-0.3-0.5,0-0.7l5.6-3.3
					c0.3-0.2,0.8-0.2,1.2,0l2.9,1.7c0.3,0.2,0.3,0.5,0,0.7l-5.6,3.3c-0.3,0.2-0.8,0.2-1.2,0L96.4,115.2z M103.9,110.8
					c-0.3-0.2-0.3-0.5,0-0.7l5.6-3.3c0.3-0.2,0.8-0.2,1.2,0l2.9,1.7c0.3,0.2,0.3,0.5,0,0.7l-5.6,3.3c-0.3,0.2-0.8,0.2-1.2,0
					L103.9,110.8z M111.5,106.4c-0.3-0.2-0.3-0.5,0-0.7l5.6-3.3c0.3-0.2,0.8-0.2,1.2,0l2.9,1.7c0.3,0.2,0.3,0.5,0,0.7l-5.6,3.3
					c-0.3,0.2-0.8,0.2-1.2,0L111.5,106.4z M45.2,167c-0.3-0.2-0.3-0.5,0-0.7l5.4-3.1c0.3-0.2,0.8-0.2,1.2,0l5,2.9
					c0.3,0.2,0.3,0.5,0,0.7l-5.4,3.1c-0.3,0.2-0.8,0.2-1.2,0L45.2,167z M52.5,162.8c-0.3-0.2-0.3-0.5,0-0.7l5.4-3.1
					c0.3-0.2,0.8-0.2,1.2,0l5,2.9c0.3,0.2,0.3,0.5,0,0.7l-5.4,3.1c-0.3,0.2-0.8,0.2-1.2,0L52.5,162.8z M59.8,158.6
					c-0.3-0.2-0.3-0.5,0-0.7l5.4-3.1c0.3-0.2,0.8-0.2,1.2,0l5,2.9c0.3,0.2,0.3,0.5,0,0.7l-5.4,3.1c-0.3,0.2-0.8,0.2-1.2,0
					L59.8,158.6z M67,154.4c-0.3-0.2-0.3-0.5,0-0.7l5.4-3.1c0.3-0.2,0.8-0.2,1.2,0l5,2.9c0.3,0.2,0.3,0.5,0,0.7l-5.4,3.1
					c-0.3,0.2-0.8,0.2-1.2,0L67,154.4z M74.3,150.2c-0.3-0.2-0.3-0.5,0-0.7l5.4-3.1c0.3-0.2,0.8-0.2,1.2,0l5,2.9
					c0.3,0.2,0.3,0.5,0,0.7l-5.4,3.1c-0.3,0.2-0.8,0.2-1.2,0L74.3,150.2z M88.8,141.7c-0.3-0.2-0.3-0.5,0-0.7l5.4-3.1
					c0.3-0.2,0.8-0.2,1.2,0l5,2.9c0.3,0.2,0.3,0.5,0,0.7l-5.4,3.1c-0.3,0.2-0.8,0.2-1.2,0L88.8,141.7z M96.1,137.5
					c-0.3-0.2-0.3-0.5,0-0.7l5.4-3.1c0.3-0.2,0.8-0.2,1.2,0l5,2.9c0.3,0.2,0.3,0.5,0,0.7l-5.4,3.1c-0.3,0.2-0.8,0.2-1.2,0
					L96.1,137.5z M46.5,182.7c-0.3-0.2-0.3-0.5,0-0.7l5.4-3.1c0.3-0.2,0.8-0.2,1.2,0l5.8,3.4c0.3,0.2,0.3,0.5,0,0.7l-5.4,3.1
					c-0.3,0.2-0.8,0.2-1.2,0L46.5,182.7z M53.7,178.5c-0.3-0.2-0.3-0.5,0-0.7l5.4-3.1c0.3-0.2,0.8-0.2,1.2,0l5.8,3.4
					c0.3,0.2,0.3,0.5,0,0.7l-5.4,3.1c-0.3,0.2-0.8,0.2-1.2,0L53.7,178.5z M61,174.3c-0.3-0.2-0.3-0.5,0-0.7l5.4-3.1
					c0.3-0.2,0.8-0.2,1.2,0l5.8,3.4c0.3,0.2,0.3,0.5,0,0.7l-5.4,3.1c-0.3,0.2-0.8,0.2-1.2,0L61,174.3z M32.3,174.5
					c-0.3-0.2-0.3-0.5,0-0.7l11-6.4c0.3-0.2,0.8-0.2,1.2,0l5,2.9c0.3,0.2,0.3,0.5,0,0.7l-11,6.4c-0.3,0.2-0.8,0.2-1.2,0L32.3,174.5z
					 M63.3,164.7c-0.3-0.2-0.3-0.5,0-0.7l5.4-3.1c0.3-0.2,0.8-0.2,1.2,0l5,2.9c0.3,0.2,0.3,0.5,0,0.7l-5.4,3.1
					c-0.3,0.2-0.8,0.2-1.2,0L63.3,164.7z M70.6,160.5c-0.3-0.2-0.3-0.5,0-0.7l5.4-3.1c0.3-0.2,0.8-0.2,1.2,0l5,2.9
					c0.3,0.2,0.3,0.5,0,0.7l-5.4,3.1c-0.3,0.2-0.8,0.2-1.2,0L70.6,160.5z M77.7,164.6c-0.3-0.2-0.3-0.5,0-0.7l34.5-20
					c0.3-0.2,0.8-0.2,1.2,0l5.8,3.4c0.3,0.2,0.3,0.5,0,0.7l-34.5,20c-0.3,0.2-0.8,0.2-1.2,0L77.7,164.6z M77.9,156.3
					c-0.3-0.2-0.3-0.5,0-0.7l5.4-3.1c0.3-0.2,0.8-0.2,1.2,0l5,2.9c0.3,0.2,0.3,0.5,0,0.7l-5.4,3.1c-0.3,0.2-0.8,0.2-1.2,0
					L77.9,156.3z M85.1,152.1c-0.3-0.2-0.3-0.5,0-0.7l5.4-3.1c0.3-0.2,0.8-0.2,1.2,0l5,2.9c0.3,0.2,0.3,0.5,0,0.7l-5.4,3.1
					c-0.3,0.2-0.8,0.2-1.2,0L85.1,152.1z M92.4,147.9c-0.3-0.2-0.3-0.5,0-0.7l5.4-3.1c0.3-0.2,0.8-0.2,1.2,0l5,2.9
					c0.3,0.2,0.3,0.5,0,0.7l-5.4,3.1c-0.3,0.2-0.8,0.2-1.2,0L92.4,147.9z M99.6,143.6c-0.3-0.2-0.3-0.5,0-0.7l5.4-3.1
					c0.3-0.2,0.8-0.2,1.2,0l5,2.9c0.3,0.2,0.3,0.5,0,0.7l-5.4,3.1c-0.3,0.2-0.8,0.2-1.2,0L99.6,143.6z M106.9,139.4
					c-0.3-0.2-0.3-0.5,0-0.7l5.4-3.1c0.3-0.2,0.8-0.2,1.2,0l5,2.9c0.3,0.2,0.3,0.5,0,0.7l-5.4,3.1c-0.3,0.2-0.8,0.2-1.2,0
					L106.9,139.4z M56.1,169c-0.3-0.2-0.3-0.5,0-0.7l5.4-3.1c0.3-0.2,0.8-0.2,1.2,0l5,2.9c0.3,0.2,0.3,0.5,0,0.7l-5.4,3.1
					c-0.3,0.2-0.8,0.2-1.2,0L56.1,169z M48.8,173.2c-0.3-0.2-0.3-0.5,0-0.7l5.4-3.1c0.3-0.2,0.8-0.2,1.2,0l5,2.9
					c0.3,0.2,0.3,0.5,0,0.7l-5.4,3.1c-0.3,0.2-0.8,0.2-1.2,0L48.8,173.2z M81.5,146c-0.3-0.2-0.3-0.5,0-0.7l5.4-3.1
					c0.3-0.2,0.8-0.2,1.2,0l5,2.9c0.3,0.2,0.3,0.5,0,0.7l-5.4,3.1c-0.3,0.2-0.8,0.2-1.2,0L81.5,146z M39.4,178.6
					c-0.3-0.2-0.3-0.5,0-0.7l7.6-4.4c0.3-0.2,0.8-0.2,1.2,0l5,2.9c0.3,0.2,0.3,0.5,0,0.7l-7.6,4.4c-0.3,0.2-0.8,0.2-1.2,0
					L39.4,178.6z M68.3,170.1c-0.3-0.2-0.3-0.5,0-0.7l7.6-4.4c0.3-0.2,0.8-0.2,1.2,0l5.8,3.4c0.3,0.2,0.3,0.5,0,0.7l-7.6,4.4
					c-0.3,0.2-0.8,0.2-1.2,0L68.3,170.1z"/>
			</g>
		</g>
		<g transform="translate(44.051367 67.194485)">
			<g>
				<path class="st31" d="M49.2,52.2v1.1L0,81.7v-1.2L49.2,52.2z"/>
				<path class="st31" d="M49.2,42.1v1.1L0,71.7v-1.2L49.2,42.1z"/>
				<path class="st31" d="M49.2,32.1v1.1L0,61.7v-1.2L49.2,32.1z"/>
				<path class="st9" d="M3,52.2v32.1L6.9,82V50L3,52.2z M10.9,33.5v46.2l3.9-2.3V31.3L10.9,33.5z M18.7,39v36.2l3.9-2.3V36.7
					L18.7,39z M26.5,41.7v29l3.9-2.2v-29L26.5,41.7z M34.4,33.5v32.7l3.9-2.3V31.3L34.4,33.5z M42.2,43.1v18.6l3.9-2.2V40.8
					L42.2,43.1z"/>
				<path class="st31" d="M57.2,21.7L89.3,3v32.1L57.2,53.8L57.2,21.7z"/>
				<path class="st29" d="M59.2,18.7L91.3,0v32.1L59.2,50.8L59.2,18.7z"/>
			</g>
			
				<linearGradient id="SVGID_23_" gradientUnits="userSpaceOnUse" x1="-123.024" y1="239.5965" x2="-124.1201" y2="238.4388" gradientTransform="matrix(25.7715 0 0 -34.4245 3258.7856 8256.0605)">
				<stop  offset="0" style="stop-color:#FFD99F;stop-opacity:0"/>
				<stop  offset="0.2015" style="stop-color:#FFD79B"/>
				<stop  offset="0.5179" style="stop-color:#F36309"/>
				<stop  offset="0.8195" style="stop-color:#DC7400"/>
				<stop  offset="1" style="stop-color:#FFD89E;stop-opacity:0"/>
			</linearGradient>
			<path class="st32" d="M61.1,45.5c-1.5-3.1-0.2-5.8,4.1-7.8c6.3-3.1,6.7-5.4,6.9-9.7c0.2-4.3,3.3-4.9,6.8-4.9
				c3.4,0,5.2-2.1,4.4-5.6c-0.8-3.5,0-5.1,3-6.4"/>
		</g>
		<g transform="translate(0 198.804814)">
			
				<linearGradient id="SVGID_24_" gradientUnits="userSpaceOnUse" x1="-83.2777" y1="107.6681" x2="-82.8382" y2="106.7081" gradientTransform="matrix(-125.5914 0 0 -72.9517 -10374.2373 7884.23)">
				<stop  offset="0" style="stop-color:#FFFFFF"/>
				<stop  offset="1" style="stop-color:#FCDFCF"/>
			</linearGradient>
			<path class="st33" d="M53,21.1L0.8,51.6c-0.5,0.3-0.7,1-0.4,1.5c0.1,0.2,0.2,0.3,0.4,0.4l69.1,39.7c1,0.6,2.2,0.6,3.2,0
				l52.2-30.5c0.5-0.3,0.7-1,0.4-1.5c-0.1-0.2-0.2-0.3-0.4-0.4L56.2,21.1C55.2,20.5,54,20.5,53,21.1z"/>
			
				<linearGradient id="SVGID_25_" gradientUnits="userSpaceOnUse" x1="-83.1488" y1="107.8167" x2="-82.9585" y2="107.4643" gradientTransform="matrix(-125.5259 0 0 -41.6747 -10368.665 4531.0562)">
				<stop  offset="0" style="stop-color:#FAB643"/>
				<stop  offset="0.5597" style="stop-color:#F48222"/>
				<stop  offset="1" style="stop-color:#F16322"/>
			</linearGradient>
			<path class="st34" d="M0.5,35.9v0.8c0,0.2,0,0.4,0.1,0.5c0.1,0.2,0.2,0.3,0.4,0.4l69,39.5c1,0.6,2.2,0.6,3.2,0l52.2-30.3
				c0.3-0.2,0.5-0.6,0.5-0.9v-0.7L0.5,35.9z"/>
			<path class="st12" d="M53.1,4.7L1,35c-0.5,0.3-0.7,1-0.4,1.5c0.1,0.2,0.2,0.3,0.4,0.4l69,39.6c1,0.6,2.2,0.6,3.2,0l52.1-30.3
				c0.5-0.3,0.7-1,0.4-1.5c-0.1-0.2-0.2-0.3-0.4-0.4l-69-39.6C55.4,4.1,54.2,4.1,53.1,4.7z"/>
			
				<linearGradient id="SVGID_26_" gradientUnits="userSpaceOnUse" x1="-83.1488" y1="107.8167" x2="-82.9585" y2="107.4643" gradientTransform="matrix(-125.5259 0 0 -41.6747 -10368.665 4529.1084)">
				<stop  offset="0" style="stop-color:#FAB643"/>
				<stop  offset="0.5597" style="stop-color:#F48222"/>
				<stop  offset="1" style="stop-color:#F16322"/>
			</linearGradient>
			<path class="st35" d="M0.5,33.9v0.8c0,0.2,0,0.4,0.1,0.5c0.1,0.2,0.2,0.3,0.4,0.4l69,39.5c1,0.6,2.2,0.6,3.2,0l52.2-30.3
				c0.3-0.2,0.5-0.6,0.5-0.9v-0.7L0.5,33.9z"/>
			<path class="st12" d="M53.1,2.7L1,33.1c-0.5,0.3-0.7,1-0.4,1.5C0.7,34.7,0.8,34.9,1,35l69,39.6c1,0.6,2.2,0.6,3.2,0l52.1-30.3
				c0.5-0.3,0.7-1,0.4-1.5c-0.1-0.2-0.2-0.3-0.4-0.4l-69-39.6C55.4,2.2,54.2,2.2,53.1,2.7z"/>
			
				<linearGradient id="SVGID_27_" gradientUnits="userSpaceOnUse" x1="-83.1488" y1="107.8167" x2="-82.9585" y2="107.4643" gradientTransform="matrix(-125.5259 0 0 -41.6746 -10368.665 4527.1421)">
				<stop  offset="0" style="stop-color:#FAB643"/>
				<stop  offset="0.5597" style="stop-color:#F48222"/>
				<stop  offset="1" style="stop-color:#F16322"/>
			</linearGradient>
			<path class="st36" d="M0.5,32v0.8c0,0.2,0,0.4,0.1,0.5c0.1,0.2,0.2,0.3,0.4,0.4l69,39.5c1,0.6,2.2,0.6,3.2,0l52.2-30.3
				c0.3-0.2,0.5-0.6,0.5-0.9v-0.7L0.5,32z"/>
			<path class="st11" d="M53,0.8L0.9,31.1c-0.5,0.3-0.7,1-0.4,1.5c0.1,0.2,0.2,0.3,0.4,0.4l69,39.6c1,0.6,2.2,0.6,3.2,0l52.1-30.3
				c0.5-0.3,0.7-1,0.4-1.5c-0.1-0.2-0.2-0.3-0.4-0.4l-69-39.6C55.3,0.2,54,0.2,53,0.8z"/>
			
				<linearGradient id="SVGID_28_" gradientUnits="userSpaceOnUse" x1="-85.464" y1="109.0226" x2="-85.2737" y2="106.8456" gradientTransform="matrix(-26.8396 0 0 -22.726 -2214.5762 2508.4509)">
				<stop  offset="0" style="stop-color:#FAB643"/>
				<stop  offset="0.5597" style="stop-color:#F48222"/>
				<stop  offset="1" style="stop-color:#F16322"/>
			</linearGradient>
			<path class="st37" d="M79.1,76.6l9.1-5.6c0.6-0.3,0.9-1,0.9-1.6v-6.5c-0.1,0-0.1,0-0.1-0.1l-14.8-8.8c-0.2-0.1-0.5-0.1-0.7,0
				l-11.2,6.7c-0.1,0.1-0.1,0.2-0.1,0.3c0,0,0,0.1,0.1,0.1l15.1,8.9c0,0,0.1,0.1,0.2,0.1v5.6c0,0.5,0.4,1,1,1
				C78.8,76.7,78.9,76.6,79.1,76.6L79.1,76.6z"/>
			
				<linearGradient id="SVGID_29_" gradientUnits="userSpaceOnUse" x1="-85.4829" y1="107.4272" x2="-84.6285" y2="108.1618" gradientTransform="matrix(-26.8386 0 0 -22.7385 -2213.5366 2509.7966)">
				<stop  offset="0" style="stop-color:#FFAD38"/>
				<stop  offset="1" style="stop-color:#F36309"/>
			</linearGradient>
			<path class="st38" d="M79.7,76.6l9.4-5.5c0.6-0.3,0.9-1,0.9-1.7v-6.5c-0.1,0-0.1,0-0.1-0.1l-14.8-8.8c-0.2-0.1-0.5-0.1-0.7,0
				l-11.2,6.8c-0.1,0.1-0.1,0.2-0.1,0.3c0,0,0,0.1,0.1,0.1L78.1,70c0,0,0.1,0.1,0.2,0.1v5.6c0,0.5,0.4,1,1,1
				C79.4,76.7,79.6,76.7,79.7,76.6z"/>
			<path class="st11" d="M88.4,71.2l0.7-0.4v-7.7c-0.1,0-0.1,0-0.1-0.1l-15.3-9c-0.2-0.1-0.5-0.1-0.7,0l-0.1,0.1
				c-0.1,0.1-0.2,0.2-0.1,0.3c0,0,0.1,0.1,0.1,0.1l15.3,9c0.1,0,0.1,0.1,0.2,0.1L88.4,71.2z"/>
			<path class="st11" d="M80.7,76l0.7-0.4v-7.7c-0.1,0-0.1,0-0.1-0.1l-15.3-9c-0.2-0.1-0.5-0.1-0.7,0l-0.1,0.1
				c-0.1,0.1-0.2,0.2-0.1,0.3c0,0,0.1,0.1,0.1,0.1l15.3,9c0.1,0,0.1,0.1,0.2,0.1L80.7,76z"/>
			<path class="st12" d="M79.6,22.8l2,1.2L41.8,47.1l-2-1.2L79.6,22.8z M86.6,26.8l2,1.2L48.8,51.1l-2-1.2L86.6,26.8z M93.6,30.9
				l2,1.2L73.2,45l-2-1.2L93.6,30.9z M100.5,34.9l2,1.2l-22.4,13l-2-1.2L100.5,34.9z"/>
			
				<linearGradient id="SVGID_30_" gradientUnits="userSpaceOnUse" x1="-78.2342" y1="108.6854" x2="-78.0439" y2="107.5544" gradientTransform="matrix(17.2545 0 0 -10.5309 1452.9001 1178.8209)">
				<stop  offset="0" style="stop-color:#FAB643"/>
				<stop  offset="0.5597" style="stop-color:#F48222"/>
				<stop  offset="1" style="stop-color:#F16322"/>
			</linearGradient>
			<path class="st39" d="M105.4,37.7L114,43l-8.6,5.3L96.8,43L105.4,37.7z"/>
			
				<linearGradient id="SVGID_31_" gradientUnits="userSpaceOnUse" x1="-84.7199" y1="107.3358" x2="-83.8655" y2="107.6808" gradientTransform="matrix(-41.2178 0 0 -23.934 -3439.5986 2594.5024)">
				<stop  offset="0" style="stop-color:#FFAD38"/>
				<stop  offset="1" style="stop-color:#F36309"/>
			</linearGradient>
			<path class="st40" d="M51.4,9.9L16.3,30.4l6,3.5l35.2-20.4L51.4,9.9z"/>
			
				<linearGradient id="SVGID_32_" gradientUnits="userSpaceOnUse" x1="-85.4682" y1="108.4387" x2="-85.2779" y2="107.3553" gradientTransform="matrix(-26.84 0 0 -15.6241 -2223.231 1736.6039)">
				<stop  offset="0" style="stop-color:#FAB643"/>
				<stop  offset="0.5597" style="stop-color:#F48222"/>
				<stop  offset="1" style="stop-color:#F16322"/>
			</linearGradient>
			<path class="st41" d="M77.4,59.2c0.9-0.1,1.6-0.6,1.6-1.1c0-0.1,0-0.3,0-0.7c-0.1,0.3-0.1,0.4-0.1,0.3c-0.4-0.7,0-1.6,1-2.1
				c0.4-0.2,0.7-0.6,0.7-0.9c0-0.1,0-0.3,0-0.7c-0.2,0-0.4,0-0.5-0.1c0,0-0.1-0.1-0.1-0.1c-1-0.5-1.4-1.3-1-2.1
				c0.1-0.1,0.1-0.3,0.1-0.4c0,0,0-0.3,0-0.7c-0.4-0.2-0.9-0.3-1.4-0.4c-0.1,0-0.1,0-0.2,0c-1.3-0.2-2.3-0.8-2.6-1.5
				c-0.2-0.6-1.3-1-2.4-0.9c-0.1,0-0.1,0-0.2,0c-1.3,0.2-2.7,0-3.6-0.6c-0.8-0.5-2-0.5-2.9-0.1c0,0-0.1,0-0.1,0.1
				c-0.9,0.6-2.3,0.8-3.6,0.6c-1.1-0.2-2.2,0.1-2.5,0.8c0,0,0,0.1,0,0.1c-0.3,0.8-1.3,1.4-2.6,1.5c-0.5,0.1-1.1,0.2-1.6,0.5
				c0,0.4,0,0.6,0,0.7c0,0.1,0,0.2,0,0.3c0,0,0,0.1,0,0.1c0.4,0.7,0,1.6-1,2.1c-0.2,0.1-0.5,0.2-0.7,0.2v0.7c0,0.3,0.2,0.6,0.5,0.8
				c0,0,0.1,0.1,0.1,0.1c0.8,0.4,1.2,1,1.1,1.5c0,0.1-0.1,0.2-0.3,0.3c0,0.4,0,0.7,0,0.7c0.1,0.5,0.6,0.9,1.4,1c0.1,0,0.1,0,0.2,0
				c1.3,0.2,2.3,0.8,2.6,1.5c0.2,0.6,1.3,1,2.4,0.9c0.1,0,0.1,0,0.2,0c1.3-0.2,2.7,0,3.6,0.6c0.8,0.5,2,0.5,2.9,0.1
				c0,0,0.1,0,0.1-0.1c0.9-0.6,2.3-0.8,3.6-0.6c1.1,0.2,2.2-0.1,2.5-0.8c0,0,0-0.1,0-0.1C75,60,76.1,59.4,77.4,59.2z"/>
			
				<linearGradient id="SVGID_33_" gradientUnits="userSpaceOnUse" x1="-85.5657" y1="107.7825" x2="-83.8032" y2="106.7335" gradientTransform="matrix(-26.8396 0 0 -15.6241 -2223.2043 1735.952)">
				<stop  offset="0" style="stop-color:#FAB643"/>
				<stop  offset="0.6006" style="stop-color:#F48222"/>
				<stop  offset="1" style="stop-color:#F16322"/>
			</linearGradient>
			<path class="st42" d="M77.4,58.6c1.1-0.1,1.8-0.8,1.5-1.4c0,0,0-0.1,0-0.1c-0.4-0.7,0-1.6,1-2.1c0.8-0.4,0.9-1.2,0.1-1.7
				c0,0-0.1-0.1-0.1-0.1c-1-0.5-1.4-1.3-1-2.1c0.3-0.6-0.3-1.3-1.3-1.5c-0.1,0-0.1,0-0.2,0c-1.3-0.2-2.3-0.8-2.6-1.5
				c-0.2-0.6-1.3-1-2.4-0.9c-0.1,0-0.1,0-0.2,0c-1.3,0.2-2.7,0-3.6-0.6c-0.8-0.5-2-0.5-2.9-0.1c0,0-0.1,0-0.1,0.1
				c-0.9,0.6-2.3,0.8-3.6,0.6c-1.1-0.2-2.2,0.1-2.5,0.8c0,0,0,0.1,0,0.1c-0.3,0.8-1.3,1.4-2.6,1.5c-1.1,0.1-1.8,0.8-1.5,1.4
				c0,0,0,0.1,0,0.1c0.4,0.7,0,1.6-1,2.1c-0.8,0.4-0.9,1.2-0.1,1.7c0,0,0.1,0.1,0.1,0.1c1,0.5,1.4,1.3,1,2.1
				c-0.3,0.6,0.3,1.3,1.3,1.5c0.1,0,0.1,0,0.2,0c1.3,0.2,2.3,0.8,2.6,1.5c0.2,0.6,1.3,1,2.4,0.9c0.1,0,0.1,0,0.2,0
				c1.3-0.2,2.7,0,3.6,0.6c0.8,0.5,2,0.5,2.9,0.1c0,0,0.1,0,0.1-0.1c0.9-0.6,2.3-0.8,3.6-0.6c1.1,0.2,2.2-0.1,2.5-0.8
				c0,0,0-0.1,0-0.1C75,59.4,76.1,58.8,77.4,58.6z"/>
			<path class="st11" d="M73.9,57.8c3.6-2,3.6-5.3,0-7.4c-3.6-2-9.4-2-13,0c-3.6,2-3.6,5.3,0,7.4C64.5,59.8,70.3,59.8,73.9,57.8z
				 M73.1,57.3c-3.1,1.8-8.2,1.8-11.3,0c-3.1-1.8-3.1-4.7,0-6.4c3.1-1.8,8.2-1.8,11.3,0C76.2,52.7,76.2,55.6,73.1,57.3z"/>
		</g>
		<g transform="translate(143.25 176.609629)">
			
				<linearGradient id="SVGID_34_" gradientUnits="userSpaceOnUse" x1="-224.1913" y1="130.6197" x2="-224.485" y2="129.2313" gradientTransform="matrix(57.7823 0 0 -89.0959 12997.2422 11629.6318)">
				<stop  offset="0" style="stop-color:#FAB643"/>
				<stop  offset="0.5597" style="stop-color:#F48222"/>
				<stop  offset="1" style="stop-color:#F16322;stop-opacity:0"/>
			</linearGradient>
			<path class="st43" d="M0,49.9v53.1l57.8,36V83.9L0,49.9z"/>
			
				<linearGradient id="SVGID_35_" gradientUnits="userSpaceOnUse" x1="-225.4323" y1="131.1047" x2="-224.7402" y2="129.2425" gradientTransform="matrix(81.66 0 0 -105.87 18457.3535 13794.4082)">
				<stop  offset="0" style="stop-color:#FAB643"/>
				<stop  offset="0.5597" style="stop-color:#F48222"/>
				<stop  offset="1" style="stop-color:#F16322;stop-opacity:0"/>
			</linearGradient>
			<path class="st44" d="M57.8,141.8l81.7-46.2l-0.1-59.7L57.8,79L57.8,141.8z"/>
			
				<linearGradient id="SVGID_36_" gradientUnits="userSpaceOnUse" x1="-225.341" y1="130.3165" x2="-225.1341" y2="129.6146" gradientTransform="matrix(138.5176 0 0 -51.1105 31263.6895 6678.3315)">
				<stop  offset="0" style="stop-color:#FAB643"/>
				<stop  offset="0.5597" style="stop-color:#F48222"/>
				<stop  offset="1" style="stop-color:#F16322"/>
			</linearGradient>
			<path class="st45" d="M138.6,32.6v3.9c0,0.2,0,0.3-0.1,0.5c-0.1,0.1-0.2,0.3-0.3,0.3L58.1,83.3c-0.8,0.5-1.9,0.5-2.7,0L0.5,51.9
				c-0.3-0.2-0.5-0.5-0.5-0.8v-0.6l0.1-3.4L138.6,32.6z"/>
			
				<linearGradient id="SVGID_37_" gradientUnits="userSpaceOnUse" x1="-225.4337" y1="129.6133" x2="-223.6711" y2="128.5856" gradientTransform="matrix(138.5999 0 0 -79.8589 31282.3438 10379.9082)">
				<stop  offset="0" style="stop-color:#FAB643"/>
				<stop  offset="0.6006" style="stop-color:#F48222"/>
				<stop  offset="1" style="stop-color:#F16322"/>
			</linearGradient>
			<path class="st46" d="M83.4,0.4l54.9,31.4c0.4,0.2,0.6,0.8,0.3,1.2c-0.1,0.1-0.2,0.3-0.3,0.3L58.2,79.5c-0.8,0.5-1.9,0.5-2.7,0
				L0.6,48.1c-0.4-0.2-0.6-0.8-0.3-1.2c0.1-0.1,0.2-0.3,0.3-0.3L80.7,0.4C81.5-0.1,82.5-0.1,83.4,0.4z"/>
			
				<linearGradient id="SVGID_38_" gradientUnits="userSpaceOnUse" x1="-215.5345" y1="131.7906" x2="-215.3442" y2="130.7709" gradientTransform="matrix(7.3385 0 0 -4.2528 1611.1528 618.2239)">
				<stop  offset="0" style="stop-color:#FAB643"/>
				<stop  offset="0.5597" style="stop-color:#F48222"/>
				<stop  offset="1" style="stop-color:#F16322"/>
			</linearGradient>
			<path class="st47" d="M30.5,63.1c2,0,3.7-1,3.7-2.1s-1.6-2.1-3.7-2.1s-3.7,1-3.7,2.1S28.5,63.1,30.5,63.1z"/>
			<path class="st11" d="M82.9,4.8l47.2,27c0.4,0.2,0.5,0.7,0.3,1.1c-0.1,0.1-0.2,0.2-0.3,0.3L61.3,72.9c-0.7,0.4-1.6,0.4-2.3,0
				l-47.2-27c-0.4-0.2-0.5-0.7-0.3-1.1c0.1-0.1,0.2-0.2,0.3-0.3L80.6,4.8C81.3,4.4,82.2,4.4,82.9,4.8z"/>
		</g>
		<path class="st48" d="M229.6,162l54.9,31.4c0.4,0.2,0.6,0.8,0.3,1.2c-0.1,0.1-0.2,0.3-0.3,0.3l-80.1,46.2c-0.8,0.5-1.9,0.5-2.7,0
			l-54.9-31.4c-0.4-0.2-0.6-0.8-0.3-1.2c0.1-0.1,0.2-0.3,0.3-0.3l80.1-46.2C227.8,161.5,228.8,161.5,229.6,162L229.6,162z"/>
		<path class="st48" d="M229.6,149.2l54.9,31.4c0.4,0.2,0.6,0.8,0.3,1.2c-0.1,0.1-0.2,0.3-0.3,0.3l-80.1,46.2
			c-0.8,0.5-1.9,0.5-2.7,0l-54.9-31.4c-0.4-0.2-0.6-0.8-0.3-1.2c0.1-0.1,0.2-0.3,0.3-0.3l80.1-46.2
			C227.8,148.7,228.8,148.7,229.6,149.2L229.6,149.2z"/>
	</g>
	<g transform="translate(-.868639 191.569016)">
		
			<linearGradient id="SVGID_39_" gradientUnits="userSpaceOnUse" x1="-71.01" y1="116.3078" x2="-70.4147" y2="114.9787" gradientTransform="matrix(19.2096 0 0 -11.1322 1368.1089 1292.4301)">
			<stop  offset="0" style="stop-color:#FAB643"/>
			<stop  offset="0.6006" style="stop-color:#F48222"/>
			<stop  offset="1" style="stop-color:#F16322"/>
		</linearGradient>
		<path class="st49" d="M10.5,11.6c5.3,0,9.6-2.5,9.6-5.6s-4.3-5.6-9.6-5.6S0.9,2.9,0.9,6S5.2,11.6,10.5,11.6z"/>
		
			<linearGradient id="SVGID_40_" gradientUnits="userSpaceOnUse" x1="-67.0008" y1="116.9204" x2="-66.8105" y2="115.9007" gradientTransform="matrix(9.7795 0 0 -5.6674 664.3345 664.3539)">
			<stop  offset="0" style="stop-color:#FAB643"/>
			<stop  offset="0.5597" style="stop-color:#F48222"/>
			<stop  offset="1" style="stop-color:#F16322"/>
		</linearGradient>
		<path class="st50" d="M10.5,8.8c2.7,0,4.9-1.3,4.9-2.8s-2.2-2.8-4.9-2.8S5.6,4.4,5.6,6S7.8,8.8,10.5,8.8z"/>
	</g>
</g>
</svg>
