<svg width="400" height="400" viewBox="0 0 400 400" xmlns="http://www.w3.org/2000/svg" xmlns:xlink="http://www.w3.org/1999/xlink" overflow="hidden"><defs><linearGradient x1="62.8011%" y1="-65.7822%" x2="37.1989%" y2="69.6767%" id="linearGradient-1"><stop offset="0" stop-color="#FAB643"/><stop offset="0.559689" stop-color="#F48222"/><stop offset="1" stop-color="#F16322" stop-opacity="0"/></linearGradient><linearGradient x1="76.1763%" y1="-50.9241%" x2="25.4641%" y2="82.1696%" id="linearGradient-2"><stop offset="0" stop-color="#FAB643"/><stop offset="0.559689" stop-color="#F48222"/><stop offset="1" stop-color="#F16322"/></linearGradient><linearGradient x1="-34.658%" y1="116.136%" x2="92.1831%" y2="8.60588%" id="linearGradient-3"><stop offset="0" stop-color="#FFAD38"/><stop offset="1" stop-color="#F36309"/></linearGradient><linearGradient x1="-34.658%" y1="116.136%" x2="92.1831%" y2="8.60588%" id="linearGradient-4"><stop offset="0" stop-color="#FFAD38"/><stop offset="1" stop-color="#F36309"/></linearGradient><linearGradient x1="-34.658%" y1="116.136%" x2="92.1831%" y2="8.60588%" id="linearGradient-5"><stop offset="0" stop-color="#FFAD38"/><stop offset="1" stop-color="#F36309"/></linearGradient><linearGradient x1="137.305%" y1="19.7309%" x2="-9.99461%" y2="66.7892%" id="linearGradient-6"><stop offset="0" stop-color="#FFAD38"/><stop offset="1" stop-color="#F36309"/></linearGradient><linearGradient x1="127.417%" y1="-27.4379%" x2="-27.0605%" y2="100%" id="linearGradient-7"><stop offset="0" stop-color="#FFAD38"/><stop offset="1" stop-color="#F36309"/></linearGradient><linearGradient x1="-24.7269%" y1="-114.304%" x2="57.7767%" y2="71.9158%" id="linearGradient-8"><stop offset="0" stop-color="#FAB643"/><stop offset="0.559689" stop-color="#F48222"/><stop offset="1" stop-color="#F16322" stop-opacity="0"/></linearGradient><linearGradient x1="19.8958%" y1="-114.304%" x2="53.1329%" y2="71.9158%" id="linearGradient-9"><stop offset="0" stop-color="#FAB643"/><stop offset="0.559689" stop-color="#F48222"/><stop offset="1" stop-color="#F16322" stop-opacity="0"/></linearGradient><linearGradient x1="79.7469%" y1="-65.7822%" x2="38.1982%" y2="73.0609%" id="linearGradient-10"><stop offset="0" stop-color="#FAB643"/><stop offset="0.559689" stop-color="#F48222"/><stop offset="1" stop-color="#F16322" stop-opacity="0"/></linearGradient><linearGradient x1="6.43368%" y1="-20.1976%" x2="25.4626%" y2="82.1696%" id="linearGradient-11"><stop offset="0" stop-color="#FAB643"/><stop offset="0.559689" stop-color="#F48222"/><stop offset="1" stop-color="#F16322"/></linearGradient><linearGradient x1="6.43368%" y1="-20.1976%" x2="65.9646%" y2="112.536%" id="linearGradient-12"><stop offset="0" stop-color="#FAB643"/><stop offset="0.600586" stop-color="#F48222"/><stop offset="1" stop-color="#F16322"/></linearGradient><linearGradient x1="6.43368%" y1="-20.1976%" x2="25.4626%" y2="82.1696%" id="linearGradient-13"><stop offset="0" stop-color="#FAB643"/><stop offset="0.559689" stop-color="#F48222"/><stop offset="1" stop-color="#F16322"/></linearGradient><linearGradient x1="6.43368%" y1="-20.1976%" x2="25.4626%" y2="82.1696%" id="linearGradient-14"><stop offset="0" stop-color="#FAB643"/><stop offset="0.559689" stop-color="#F48222"/><stop offset="1" stop-color="#F16322"/></linearGradient><linearGradient x1="106.979%" y1="-9.58393%" x2="-2.63523%" y2="106.189%" id="linearGradient-15"><stop offset="0" stop-color="#FFD99F" stop-opacity="0"/><stop offset="0.201479" stop-color="#FFD79B"/><stop offset="0.517866" stop-color="#F36309"/><stop offset="0.819471" stop-color="#DC7400"/><stop offset="1" stop-color="#FFD89E" stop-opacity="0"/></linearGradient><linearGradient x1="6.43368%" y1="-20.1976%" x2="27.1215%" y2="50%" id="linearGradient-16"><stop offset="0" stop-color="#FAB643"/><stop offset="0.559689" stop-color="#F48222"/><stop offset="1" stop-color="#F16322"/></linearGradient><linearGradient x1="25.8116%" y1="-20.1976%" x2="70.3574%" y2="109.124%" id="linearGradient-17"><stop offset="0" stop-color="#FAB643"/><stop offset="0.559689" stop-color="#F48222"/><stop offset="1" stop-color="#F16322"/></linearGradient><linearGradient x1="50%" y1="0%" x2="50%" y2="100%" id="linearGradient-18"><stop offset="0" stop-color="#D46700"/><stop offset="1" stop-color="#FA9D2C"/></linearGradient><linearGradient x1="6.43368%" y1="-20.1976%" x2="67.0988%" y2="140.061%" id="linearGradient-19"><stop offset="0" stop-color="#FAB643"/><stop offset="0.559689" stop-color="#F48222"/><stop offset="1" stop-color="#F16322"/></linearGradient><linearGradient x1="50%" y1="5.03686%" x2="45.0626%" y2="90.635%" id="linearGradient-20"><stop offset="0" stop-color="#FFFFFF"/><stop offset="1" stop-color="#E2E7EC"/></linearGradient><linearGradient x1="6.43368%" y1="-20.1976%" x2="25.4626%" y2="82.1696%" id="linearGradient-21"><stop offset="0" stop-color="#FAB643"/><stop offset="0.559689" stop-color="#F48222"/><stop offset="1" stop-color="#F16322"/></linearGradient><linearGradient x1="6.43368%" y1="-20.1976%" x2="130.029%" y2="100%" id="linearGradient-22"><stop offset="0" stop-color="#FAB643"/><stop offset="0.559689" stop-color="#F48222"/><stop offset="1" stop-color="#F16322"/></linearGradient><linearGradient x1="-8.33857%" y1="-114.304%" x2="56.0712%" y2="71.9158%" id="linearGradient-23"><stop offset="0" stop-color="#FAB643"/><stop offset="0.559689" stop-color="#F48222"/><stop offset="1" stop-color="#F16322" stop-opacity="0"/></linearGradient></defs><g id="Managed-Services" fill="none" fill-rule="evenodd"><g id="2-Managed-Service" transform="translate(55.8339 32)"><g id="How-We-Work-With-Client" transform="matrix(1 0 0 1 0 0.985838)"><g id="Group-20" fill-rule="nonzero" transform="translate(199.063 10.5294)"><g id="Group-65"><path d="M85.592 126.179 24.744 91.2917C24.0197 90.8761 23.5731 90.1052 23.5731 89.2704L23.5731 1.48109C23.5731 0.837745 24.0946 0.316216 24.738 0.316216 24.9408 0.316216 25.1402 0.369204 25.3163 0.469924L86.0488 35.2067C86.7733 35.6211 87.2208 36.3913 87.2219 37.226L87.3363 125.167C87.3371 125.81 86.8163 126.334 86.1729 126.334 85.9691 126.334 85.7688 126.281 85.592 126.179Z" id="Shape" fill="#FEAB33" opacity="0.2"/><path d="M73.9657 134.318 13.1177 99.4301C12.3934 99.0145 11.9468 98.2436 11.9468 97.4088L11.9468 9.6195C11.9468 8.97615 12.4683 8.45462 13.1117 8.45462 13.3145 8.45462 13.5139 8.50761 13.69 8.60833L74.4225 43.3451C75.147 43.7595 75.5945 44.5298 75.5956 45.3645L75.71 133.306C75.7108 133.949 75.19 134.472 74.5466 134.472 74.3428 134.472 74.1425 134.419 73.9657 134.318Z" id="Shape" fill="#FEAB33" opacity="0.2"/><path d="M62.3394 227.308 1.49142 192.42C0.767141 192.005 0.320481 191.234 0.320481 190.399L0.320481 102.61C0.320481 101.966 0.841973 101.445 1.48536 101.445 1.68823 101.445 1.88757 101.498 2.0637 101.598L62.7962 136.335C63.5207 136.75 63.9682 137.52 63.9693 138.354L64.0837 226.296C64.0845 226.939 63.5637 227.462 62.9203 227.462 62.7165 227.462 62.5162 227.409 62.3394 227.308Z" id="Shape" fill="url(#linearGradient-1)" opacity="0.2"/><path d="M64.1361 142.521C64.3131 142.622 67.5856 142.6 67.5828 140.215L67.468 51.1124C67.467 50.2762 67.0188 49.5045 66.2932 49.0895L5.26273 14.8401 5.26273 14.8401C2.30365 13.1795 0.454639 15.4476 0.366204 17.125L0.364943 17.4261C0.409369 20.1402 1.17201 49.1044 2.65294 104.319 2.65294 105.155 3.10034 105.927 3.82564 106.343L64.1361 142.521Z" id="Shape" fill="url(#linearGradient-2)"/><path d="M62.3394 142.456 1.49142 107.569C0.767141 107.153 0.320481 106.382 0.320481 105.547L0.320481 17.7579C0.320481 17.1146 0.841973 16.593 1.48536 16.593 1.68823 16.593 1.88757 16.646 2.0637 16.7467L62.7962 51.4835C63.5207 51.8979 63.9682 52.6682 63.9693 53.5029L64.0837 141.444C64.0845 142.087 63.5637 142.611 62.9203 142.611 62.7165 142.611 62.5162 142.558 62.3394 142.456Z" id="Shape" fill="#FDFDFD"/><path d="M5.83184 87.4771 5.83184 90.9773 57.1517 120.632 57.1517 117.132Z" id="Shape" fill="url(#linearGradient-3)"/><path d="M5.83184 96.811 5.83184 100.311 57.1517 129.966 57.1517 126.466Z" id="Shape" fill="url(#linearGradient-3)"/><path d="M31.4918 96.4708 31.4918 92.9706 5.83184 78.1432 5.83184 81.6434Z" id="Shape" fill="url(#linearGradient-4)"/><path d="M5.83184 59.4753 5.83184 62.9756 57.1517 92.6304 57.1517 89.1302Z" id="Shape" fill="url(#linearGradient-5)"/><path d="M5.83184 68.8093 5.83184 72.3095 57.1517 101.964 57.1517 98.4641Z" id="Shape" fill="url(#linearGradient-5)"/><path d="M7.56888 31.2655 26.8694 42.1498C27.2357 42.3563 27.4621 42.7441 27.4621 43.1644L27.4621 62.1271C27.4621 62.7705 26.9406 63.292 26.2972 63.292 26.0968 63.292 25.8997 63.2403 25.7251 63.1418L6.42448 52.2576C6.05831 52.0511 5.8318 51.6633 5.8318 51.2429L5.8318 32.2802C5.8318 31.6368 6.35334 31.1153 6.99668 31.1153 7.19716 31.1153 7.39426 31.167 7.56888 31.2655ZM8.16453 50.5601 25.1294 60.1272 25.1294 43.8472 8.16453 34.2802 8.16453 50.5601Z" id="Shape" fill="url(#linearGradient-6)"/><path d="M20.1484 44.8089C20.5917 44.5914 21.3299 44.9883 21.7973 45.6953 22.2646 46.4023 22.284 47.1518 21.8407 47.3692L15.1227 50.6016C14.6965 50.8108 13.9932 50.452 13.5212 49.7845L10.9083 46.0897C10.4174 45.3955 10.3577 44.6256 10.7749 44.3698 11.192 44.114 11.9282 44.4694 12.419 45.1635L14.1903 47.6684 20.1484 44.8089Z" id="Shape" fill="url(#linearGradient-7)"/></g></g><g id="Group-18" transform="translate(0.897423 0.049334)"><g id="Group-21" fill-rule="nonzero"><g id="Group-17"><path d="M261.801 185.41C261.962 185.502 262.214 209.003 262.557 255.914L137.836 333.511 137.836 258.813 261.801 185.41Z" id="Shape" fill="url(#linearGradient-8)" opacity="0.6"/><path d="M258.522 197.877C258.588 197.915 258.691 219.158 258.831 261.606L207.795 293.36 207.795 227.914 258.522 197.877Z" id="Shape-Copy" fill="url(#linearGradient-9)" opacity="0.6"/><path d="M1.75229 72.3536 124.905 0.709685C126.017 0.0626748 127.444 0.439778 128.09 1.55196 128.297 1.90769 128.406 2.31191 128.406 2.72347L128.406 106.337C128.406 107.581 127.745 108.732 126.669 109.357L3.51619 181.001C2.40401 181.648 0.977906 181.271 0.330896 180.159 0.123949 179.803 0.0149256 179.399 0.0149256 178.988L0.0149256 75.3743C0.0149256 74.1299 0.67666 72.9794 1.75229 72.3536Z" id="Shape" fill="#FEAB33" opacity="0.2"/><path d="M19.1917 83.9799 142.345 12.336C143.456 11.689 144.883 12.0661 145.53 13.1783 145.737 13.534 145.846 13.9382 145.846 14.3498L145.846 117.963C145.846 119.207 145.184 120.358 144.109 120.983L20.9556 192.627C19.8435 193.275 18.4174 192.897 17.7703 191.785 17.5634 191.429 17.4544 191.025 17.4544 190.614L17.4544 87.0006C17.4544 85.7562 18.1161 84.6057 19.1917 83.9799Z" id="Shape" fill="#FEAB33" opacity="0.2"/><path d="M137.836 333.511 40.696 278.54C40.7188 231.509 40.7451 207.853 40.7749 207.572L137.836 258.813 137.836 333.511Z" id="Shape" fill="url(#linearGradient-10)" opacity="0.2"/><path d="M172.826 139.799 261.801 185.41C263.034 186.116 264.985 190.03 260.979 192.321L137.836 263.753C135.443 265.122 132.495 265.122 130.103 263.753 91.3519 241.584 62.2888 224.958 42.9134 213.873 41.1502 212.865 40.4373 210.764 40.7749 207.572L165.093 139.799C167.486 138.43 170.434 138.43 172.826 139.799Z" id="Shape" fill="url(#linearGradient-11)"/><path d="M172.826 139.799 261.801 185.41C263.034 186.116 264.985 190.03 260.979 192.321L137.836 263.753C135.443 265.122 132.495 265.122 130.103 263.753 91.3519 241.584 62.2888 224.958 42.9134 213.873 41.1502 212.865 40.4373 210.764 40.7749 207.572L165.093 139.799C167.486 138.43 170.434 138.43 172.826 139.799Z" id="Shape" fill="url(#linearGradient-11)"/><path d="M172.873 133.966 261.026 184.396C262.259 185.102 262.682 186.664 261.97 187.885 261.743 188.274 261.418 188.596 261.026 188.821L137.883 260.253C135.489 261.622 132.542 261.622 130.15 260.253L41.9962 209.822C40.7633 209.117 40.3409 207.555 41.0527 206.333 41.279 205.945 41.6043 205.622 41.9962 205.398L165.141 133.966C167.533 132.597 170.48 132.597 172.873 133.966Z" id="Shape" fill="#FDEBD1"/><path d="M182.301 195.079 208.283 209.943C208.646 210.15 208.77 210.611 208.561 210.97 208.495 211.085 208.399 211.18 208.283 211.246L171.988 232.3C171.283 232.703 170.414 232.703 169.709 232.3L143.726 217.436C143.363 217.228 143.239 216.768 143.449 216.408 143.515 216.293 143.611 216.198 143.726 216.132L180.022 195.079C180.727 194.675 181.596 194.675 182.301 195.079Z" id="Shape" fill="url(#linearGradient-12)"/><path d="M37.7815 93.2712 160.928 21.6312C162.041 20.9833 169.032 17.4526 169.032 25.6588 169.032 31.1296 167.499 64.994 164.433 127.252 164.433 128.499 163.771 129.651 162.693 130.278L43.7983 204.477C39.1575 206.227 36.0415 202.565 36.0415 198.734L36.0415 96.2969C36.0415 95.0503 36.7043 93.8979 37.7815 93.2712Z" id="Shape" fill="url(#linearGradient-13)"/><path d="M42.4443 95.6062 165.597 23.9623C166.709 23.3153 168.136 23.6924 168.783 24.8046 168.989 25.1603 169.098 25.5645 169.098 25.9761L169.098 129.589C169.098 130.833 168.437 131.984 167.361 132.61L44.2082 204.253C43.0961 204.901 41.6699 204.524 41.0229 203.412 40.816 203.056 40.707 202.651 40.707 202.24L40.707 98.6269C40.707 97.3825 41.3687 96.232 42.4443 95.6062Z" id="Shape" fill="#FFDBB4"/><path d="M48.2803 97.9404 159.768 33.2882C160.881 32.6427 162.307 33.0218 162.953 34.1348 163.159 34.4899 163.267 34.8931 163.267 35.3035L163.267 127.252C163.267 128.499 162.603 129.651 161.525 130.275L50.0373 194.928C48.9242 195.574 47.4986 195.194 46.8532 194.082 46.6472 193.727 46.5387 193.323 46.5387 192.912L46.5387 100.964C46.5387 99.7175 47.2024 98.5656 48.2803 97.9404Z" id="Shape" fill="#FDFDFD"/></g><path d="M203.005 174.477 196.253 170.558C195.881 170.341 195.882 169.99 196.255 169.773L202.447 166.178C202.82 165.961 203.426 165.961 203.798 166.177L210.549 170.097C210.921 170.313 210.92 170.664 210.548 170.881L204.355 174.476C203.981 174.693 203.377 174.693 203.005 174.477ZM57.2209 213.138C56.8482 212.922 56.8486 212.571 57.2222 212.353L63.5268 208.693C63.9003 208.476 64.5054 208.476 64.8779 208.692L70.7279 212.089C71.1007 212.305 71.1003 212.656 70.7267 212.873L64.422 216.534C64.0486 216.751 63.4434 216.751 63.071 216.535L57.2209 213.138ZM65.6661 208.234C65.2934 208.018 65.2937 207.667 65.6673 207.45L71.9719 203.789C72.3454 203.572 72.9506 203.572 73.323 203.788L79.1731 207.185C79.5458 207.401 79.5455 207.753 79.1719 207.97L72.8672 211.63C72.4938 211.847 71.8886 211.847 71.5161 211.631L65.6661 208.234ZM78.6077 210.257C78.235 210.04 78.2353 209.689 78.6089 209.472L84.9136 205.811C85.287 205.595 85.8922 205.594 86.2647 205.81L92.1147 209.207C92.4875 209.424 92.4871 209.775 92.1135 209.992L85.8088 213.652C85.4354 213.87 84.8302 213.87 84.4578 213.653L78.6077 210.257ZM87.0529 205.353C86.6801 205.137 86.6805 204.785 87.0541 204.569L93.3588 200.908C93.7322 200.692 94.3374 200.692 94.7098 200.908L100.56 204.305C100.933 204.521 100.932 204.872 100.559 205.088L94.254 208.75C93.8806 208.966 93.2754 208.966 92.9029 208.75L87.0529 205.353ZM95.4981 200.45C95.1253 200.233 95.1256 199.883 95.4993 199.666L101.804 196.005C102.177 195.788 102.783 195.788 103.155 196.004L109.005 199.401C109.378 199.617 109.377 199.968 109.004 200.186L102.699 203.846C102.326 204.062 101.72 204.063 101.348 203.846L95.4981 200.45ZM103.943 195.547C103.57 195.329 103.571 194.979 103.944 194.762L110.249 191.101C110.622 190.884 111.228 190.884 111.6 191.1L117.45 194.497C117.823 194.713 117.823 195.065 117.449 195.282L111.144 198.942C110.771 199.16 110.166 199.16 109.793 198.943L103.943 195.547ZM112.388 190.643C112.016 190.427 112.016 190.075 112.39 189.858L118.694 186.198C119.068 185.981 119.673 185.981 120.045 186.197L125.895 189.594C126.268 189.81 126.268 190.161 125.894 190.378L119.589 194.039C119.216 194.256 118.611 194.256 118.238 194.04L112.388 190.643ZM120.833 185.739C120.461 185.523 120.461 185.172 120.835 184.955L127.139 181.294C127.513 181.077 128.118 181.077 128.49 181.293L134.34 184.69C134.713 184.906 134.713 185.257 134.339 185.475L128.035 189.135C127.661 189.352 127.056 189.352 126.684 189.136L120.833 185.739ZM129.278 180.836C128.906 180.619 128.906 180.268 129.28 180.051L135.584 176.39C135.958 176.174 136.563 176.173 136.936 176.389L142.785 179.786C143.158 180.003 143.158 180.354 142.784 180.571L136.48 184.231C136.106 184.449 135.502 184.449 135.129 184.232L129.278 180.836ZM137.724 175.932C137.351 175.716 137.351 175.364 137.725 175.148L144.029 171.487C144.403 171.27 145.008 171.27 145.381 171.487L151.231 174.883C151.604 175.1 151.603 175.451 151.229 175.667L144.925 179.328C144.551 179.545 143.946 179.545 143.574 179.329L137.724 175.932ZM74.1112 203.331C73.7385 203.115 73.7388 202.763 74.1125 202.546L80.4171 198.886C80.7905 198.669 81.3957 198.668 81.7682 198.885L87.6182 202.281C87.9909 202.499 87.9906 202.849 87.617 203.066L81.3124 206.727C80.939 206.944 80.3337 206.944 79.9613 206.727L74.1112 203.331ZM82.5564 198.427C82.1836 198.211 82.184 197.86 82.5576 197.643L88.8623 193.982C89.2357 193.766 89.8409 193.766 90.2133 193.982L96.0634 197.379C96.4361 197.595 96.4357 197.946 96.0621 198.162L89.7575 201.824C89.384 202.04 88.7789 202.04 88.4064 201.824L82.5564 198.427ZM91.0015 193.523C90.6288 193.307 90.6292 192.957 91.0028 192.74L97.3074 189.079C97.6809 188.862 98.286 188.862 98.6584 189.078L104.509 192.475C104.881 192.691 104.881 193.043 104.507 193.26L98.2026 196.92C97.8292 197.136 97.224 197.136 96.8516 196.92L91.0015 193.523ZM99.4466 188.621C99.074 188.404 99.0742 188.053 99.4479 187.836L105.753 184.175C106.126 183.958 106.731 183.958 107.104 184.175L112.954 187.571C113.326 187.788 113.326 188.139 112.952 188.356L106.648 192.016C106.274 192.234 105.669 192.234 105.297 192.017L99.4466 188.621ZM107.892 183.717C107.519 183.501 107.519 183.149 107.893 182.932L114.198 179.272C114.571 179.055 115.176 179.055 115.549 179.271L121.399 182.668C121.772 182.884 121.771 183.235 121.398 183.452L115.093 187.113C114.719 187.33 114.114 187.33 113.742 187.114L107.892 183.717ZM116.337 178.813C115.964 178.597 115.965 178.246 116.338 178.029L122.643 174.368C123.016 174.151 123.621 174.151 123.994 174.367L129.844 177.764C130.217 177.98 130.217 178.332 129.843 178.549L123.538 182.209C123.165 182.426 122.559 182.426 122.187 182.21L116.337 178.813ZM124.782 173.91C124.409 173.693 124.41 173.342 124.783 173.125L131.088 169.464C131.462 169.248 132.067 169.247 132.439 169.464L138.289 172.86C138.662 173.077 138.662 173.428 138.288 173.645L131.984 177.305C131.61 177.523 131.004 177.523 130.632 177.306L124.782 173.91ZM133.228 169.006C132.855 168.79 132.855 168.438 133.229 168.222L139.533 164.561C139.907 164.345 140.511 164.345 140.884 164.561L146.734 167.957C147.106 168.174 147.106 168.525 146.733 168.741L140.428 172.402C140.055 172.619 139.45 172.619 139.077 172.403L133.228 169.006ZM65.4333 217.907C65.0606 217.689 65.061 217.339 65.4336 217.122L76.3568 210.78C76.7298 210.563 77.3345 210.563 77.7069 210.779L83.557 214.176C83.9297 214.393 83.9292 214.744 83.5567 214.961L72.6335 221.302C72.2605 221.52 71.6558 221.52 71.2833 221.303L65.4333 217.907ZM51.4831 209.806C51.1106 209.59 51.1116 209.239 51.4841 209.023L58.0153 205.23C58.3883 205.014 58.9935 205.014 59.3652 205.23L62.7413 207.19C63.1137 207.406 63.1127 207.757 62.7402 207.973L56.209 211.766C55.836 211.982 55.2308 211.982 54.8591 211.766L51.4831 209.806ZM60.266 204.706C59.8935 204.49 59.8946 204.14 60.2671 203.922L66.7983 200.131C67.1713 199.914 67.7765 199.914 68.1481 200.13L71.5241 202.09C71.8966 202.307 71.8957 202.658 71.5232 202.874L64.992 206.666C64.6189 206.883 64.0138 206.883 63.642 206.667L60.266 204.706ZM69.049 199.607C68.6765 199.391 68.6775 199.039 69.0499 198.823L75.5813 195.031C75.9542 194.814 76.5594 194.815 76.9311 195.03L80.3071 196.991C80.6796 197.207 80.6786 197.559 80.3061 197.775L73.7749 201.567C73.4018 201.783 72.7967 201.783 72.425 201.568L69.049 199.607ZM77.8319 194.507C77.4594 194.291 77.4604 193.94 77.8329 193.724L84.3642 189.931C84.7372 189.715 85.3424 189.715 85.714 189.931L89.09 191.891C89.4626 192.107 89.4616 192.458 89.0891 192.674L82.5579 196.467C82.1848 196.683 81.5796 196.683 81.2079 196.467L77.8319 194.507ZM86.6149 189.408C86.2424 189.191 86.2433 188.841 86.6158 188.624L93.1472 184.832C93.5202 184.615 94.1253 184.615 94.497 184.832L97.873 186.791C98.2455 187.008 98.2446 187.359 97.8721 187.575L91.3408 191.367C90.9677 191.584 90.3626 191.584 89.9909 191.368L86.6149 189.408ZM95.3978 184.308C95.0253 184.092 95.0263 183.74 95.3988 183.524L101.93 179.732C102.303 179.515 102.908 179.516 103.28 179.731L106.656 181.692C107.028 181.908 107.027 182.259 106.655 182.476L100.124 186.268C99.7507 186.485 99.1455 186.484 98.7739 186.269L95.3978 184.308ZM104.181 179.208C103.808 178.992 103.809 178.641 104.182 178.425L110.713 174.632C111.086 174.416 111.691 174.416 112.063 174.632L115.439 176.592C115.811 176.808 115.81 177.159 115.438 177.375L108.907 181.168C108.534 181.384 107.929 181.384 107.557 181.168L104.181 179.208ZM112.964 174.109C112.591 173.893 112.592 173.542 112.965 173.325L119.496 169.532C119.869 169.316 120.474 169.316 120.846 169.532L124.222 171.492C124.594 171.708 124.593 172.06 124.221 172.276L117.69 176.068C117.317 176.285 116.711 176.285 116.34 176.069L112.964 174.109ZM121.747 169.009C121.374 168.793 121.375 168.441 121.748 168.225L128.279 164.433C128.652 164.216 129.257 164.217 129.629 164.432L133.005 166.393C133.378 166.609 133.376 166.96 133.004 167.177L126.473 170.969C126.1 171.186 125.494 171.185 125.123 170.969L121.747 169.009ZM130.53 163.909C130.157 163.693 130.158 163.342 130.531 163.126L137.062 159.334C137.435 159.117 138.04 159.117 138.412 159.333L141.788 161.293C142.16 161.509 142.159 161.86 141.787 162.076L135.256 165.869C134.883 166.085 134.277 166.085 133.905 165.869L130.53 163.909ZM187.494 147.035 201.556 155.199C201.928 155.415 201.928 155.766 201.556 155.984L197.164 158.533C196.791 158.749 196.186 158.75 195.813 158.533L188.276 154.157 187.038 154.876C186.665 155.093 186.059 155.093 185.687 154.876L179.837 151.48C179.464 151.263 179.464 150.912 179.838 150.695L186.143 147.035C186.516 146.818 187.121 146.817 187.494 147.035ZM156.183 174.751C155.81 174.535 155.81 174.184 156.184 173.966L162.488 170.306C162.862 170.089 163.467 170.089 163.84 170.305L169.69 173.702C170.063 173.918 170.062 174.269 169.688 174.486L163.384 178.147C163.01 178.364 162.406 178.364 162.033 178.148L156.183 174.751ZM164.628 169.847C164.255 169.631 164.255 169.28 164.629 169.063L170.934 165.402C171.307 165.185 171.913 165.185 172.285 165.401L178.135 168.798C178.508 169.014 178.507 169.366 178.134 169.583L171.829 173.243C171.455 173.46 170.85 173.46 170.478 173.244L164.628 169.847ZM173.073 164.944C172.7 164.728 172.701 164.376 173.074 164.159L179.379 160.499C179.753 160.282 180.358 160.282 180.73 160.498L186.58 163.894C186.953 164.112 186.953 164.462 186.579 164.679L180.274 168.34C179.901 168.557 179.295 168.557 178.923 168.341L173.073 164.944ZM181.518 160.04C181.145 159.824 181.146 159.473 181.52 159.255L187.824 155.595C188.198 155.379 188.803 155.378 189.175 155.595L195.025 158.991C195.398 159.208 195.398 159.558 195.024 159.775L188.72 163.436C188.346 163.653 187.741 163.653 187.368 163.437L181.518 160.04ZM179.476 180.3C179.103 180.083 179.104 179.732 179.478 179.515L185.782 175.855C186.156 175.637 186.761 175.637 187.134 175.854L193.883 179.773C194.256 179.989 194.256 180.341 193.882 180.557L187.577 184.218C187.204 184.435 186.599 184.435 186.226 184.218L179.476 180.3ZM191.971 177.747C191.598 177.531 191.599 177.18 191.973 176.963L198.164 173.367C198.538 173.151 199.144 173.151 199.515 173.366L202.216 174.935C202.589 175.151 202.588 175.502 202.215 175.719L196.023 179.315C195.649 179.531 195.044 179.531 194.672 179.316L191.971 177.747ZM208.636 168.071C208.263 167.855 208.264 167.504 208.638 167.287L214.83 163.691C215.203 163.474 215.808 163.474 216.18 163.69L218.882 165.259C219.253 165.475 219.253 165.826 218.88 166.043L212.687 169.638C212.314 169.855 211.709 169.855 211.337 169.64L208.636 168.071ZM168.554 186.641C168.181 186.425 168.181 186.074 168.555 185.858L177.337 180.757C177.711 180.541 178.316 180.541 178.688 180.757L185.438 184.677C185.811 184.893 185.811 185.243 185.437 185.461L176.654 190.56C176.282 190.777 175.676 190.777 175.304 190.561L168.554 186.641ZM185.677 167.163C185.304 166.946 185.304 166.595 185.678 166.378L202.568 156.572C202.941 156.354 203.546 156.354 203.919 156.571L209.768 159.967C210.141 160.184 210.141 160.535 209.768 160.752L192.878 170.559C192.504 170.776 191.899 170.776 191.527 170.559L185.677 167.163ZM168.786 176.969C168.413 176.753 168.414 176.402 168.788 176.185L175.092 172.524C175.466 172.308 176.071 172.308 176.444 172.524L182.293 175.921C182.666 176.137 182.666 176.488 182.292 176.704L175.988 180.366C175.614 180.582 175.009 180.582 174.637 180.366L168.786 176.969ZM177.232 172.066C176.859 171.849 176.859 171.499 177.233 171.282L183.537 167.621C183.911 167.404 184.517 167.404 184.889 167.62L190.739 171.017C191.112 171.233 191.111 171.585 190.737 171.802L184.433 175.462C184.059 175.678 183.454 175.679 183.082 175.463L177.232 172.066ZM146.169 171.028C145.796 170.812 145.796 170.461 146.17 170.244L152.475 166.584C152.848 166.367 153.454 166.367 153.826 166.583L159.676 169.98C160.049 170.196 160.048 170.547 159.675 170.764L153.37 174.425C152.996 174.641 152.391 174.641 152.019 174.425L146.169 171.028ZM154.614 166.125C154.241 165.908 154.242 165.558 154.615 165.341L160.92 161.68C161.293 161.463 161.899 161.463 162.271 161.679L168.121 165.076C168.494 165.292 168.494 165.644 168.12 165.861L161.815 169.521C161.442 169.738 160.836 169.738 160.464 169.522L154.614 166.125ZM163.059 161.222C162.686 161.006 162.687 160.654 163.061 160.437L169.365 156.777C169.739 156.559 170.343 156.559 170.716 156.776L176.566 160.172C176.939 160.389 176.939 160.74 176.565 160.957L170.261 164.618C169.887 164.835 169.282 164.835 168.909 164.619L163.059 161.222ZM171.505 156.318C171.132 156.102 171.132 155.751 171.506 155.533L177.81 151.873C178.184 151.656 178.788 151.656 179.161 151.872L185.012 155.269C185.384 155.485 185.383 155.836 185.01 156.053L178.705 159.714C178.332 159.931 177.727 159.931 177.354 159.715L171.505 156.318ZM141.673 164.102C141.3 163.886 141.3 163.535 141.674 163.319L147.978 159.657C148.352 159.441 148.957 159.441 149.329 159.657L155.18 163.054C155.552 163.27 155.551 163.621 155.178 163.838L148.873 167.499C148.5 167.715 147.895 167.715 147.522 167.499L141.673 164.102ZM150.117 159.2C149.745 158.982 149.745 158.632 150.118 158.415L156.424 154.754C156.796 154.537 157.402 154.537 157.774 154.753L163.624 158.15C163.997 158.366 163.997 158.718 163.624 158.935L157.318 162.595C156.946 162.812 156.34 162.813 155.968 162.596L150.117 159.2ZM158.562 154.296C158.19 154.08 158.191 153.728 158.564 153.511L164.869 149.851C165.242 149.634 165.847 149.634 166.22 149.85L172.069 153.247C172.442 153.463 172.442 153.814 172.068 154.031L165.764 157.692C165.39 157.909 164.785 157.909 164.413 157.693L158.562 154.296ZM167.008 149.392C166.635 149.176 166.635 148.825 167.008 148.609L177.931 142.266C178.304 142.05 178.909 142.05 179.281 142.266L185.132 145.663C185.505 145.879 185.504 146.23 185.131 146.446L174.208 152.789C173.835 153.005 173.23 153.005 172.858 152.789L167.008 149.392ZM139.313 158.81C138.94 158.594 138.941 158.243 139.314 158.026L145.845 154.233C146.217 154.017 146.823 154.017 147.195 154.233L150.57 156.193C150.943 156.409 150.942 156.761 150.569 156.977L144.039 160.77C143.665 160.986 143.06 160.986 142.688 160.77L139.313 158.81ZM148.095 153.71C147.723 153.494 147.724 153.142 148.096 152.926L154.628 149.134C155.001 148.918 155.606 148.918 155.977 149.133L159.354 151.094C159.726 151.31 159.725 151.661 159.353 151.878L152.822 155.67C152.448 155.887 151.843 155.886 151.472 155.67L148.095 153.71ZM156.878 148.61C156.506 148.394 156.507 148.043 156.879 147.827L163.411 144.035C163.784 143.818 164.389 143.818 164.76 144.034L168.137 145.994C168.509 146.211 168.509 146.561 168.136 146.778L161.604 150.57C161.231 150.786 160.627 150.786 160.255 150.571L156.878 148.61ZM165.662 143.511C165.289 143.295 165.29 142.943 165.663 142.727L172.193 138.934C172.567 138.718 173.172 138.718 173.544 138.934L176.92 140.894C177.292 141.11 177.291 141.462 176.919 141.678L170.387 145.471C170.015 145.687 169.409 145.687 169.038 145.471L165.662 143.511ZM88.6217 213.979C88.249 213.762 88.2494 213.411 88.623 213.195L94.9276 209.534C95.3011 209.317 95.9062 209.317 96.2786 209.533L102.129 212.93C102.501 213.146 102.501 213.498 102.128 213.714L95.8228 217.375C95.4494 217.592 94.8442 217.592 94.4718 217.375L88.6217 213.979ZM97.0668 209.076C96.6942 208.859 96.6944 208.508 97.0681 208.291L103.373 204.631C103.746 204.414 104.351 204.414 104.724 204.63L110.574 208.027C110.947 208.243 110.946 208.594 110.573 208.811L104.268 212.472C103.895 212.688 103.289 212.689 102.917 212.473L97.0668 209.076ZM105.512 204.172C105.139 203.956 105.14 203.605 105.513 203.388L111.818 199.727C112.191 199.51 112.796 199.51 113.169 199.726L119.019 203.123C119.392 203.339 119.391 203.69 119.018 203.908L112.713 207.568C112.34 207.785 111.734 207.785 111.362 207.569L105.512 204.172ZM113.957 199.269C113.584 199.052 113.585 198.701 113.958 198.484L120.263 194.823C120.636 194.606 121.242 194.606 121.614 194.822L127.464 198.219C127.837 198.435 127.837 198.787 127.463 199.004L121.158 202.664C120.785 202.882 120.18 202.882 119.807 202.665L113.957 199.269ZM122.402 194.365C122.03 194.149 122.03 193.797 122.404 193.58L128.708 189.92C129.082 189.703 129.686 189.703 130.059 189.919L135.91 193.316C136.282 193.533 136.282 193.883 135.908 194.1L129.604 197.761C129.23 197.978 128.625 197.978 128.252 197.762L122.402 194.365ZM139.292 184.558C138.92 184.341 138.92 183.99 139.293 183.774L145.599 180.112C145.971 179.896 146.577 179.896 146.95 180.112L152.799 183.509C153.172 183.725 153.172 184.077 152.799 184.293L146.493 187.954C146.121 188.171 145.515 188.171 145.143 187.954L139.292 184.558ZM147.737 179.655C147.365 179.438 147.366 179.087 147.739 178.87L154.044 175.21C154.417 174.993 155.022 174.993 155.395 175.209L161.244 178.605C161.617 178.822 161.617 179.173 161.243 179.39L154.939 183.051C154.565 183.267 153.961 183.268 153.588 183.052L147.737 179.655ZM90.0704 232.211C89.6976 231.995 89.698 231.644 90.0716 231.427L96.3763 227.766C96.7497 227.549 97.3552 227.549 97.7274 227.765L104.477 231.685C104.85 231.901 104.85 232.252 104.476 232.469L98.1715 236.13C97.7981 236.347 97.1926 236.347 96.8204 236.131L90.0704 232.211ZM98.5156 227.308C98.1428 227.091 98.1432 226.74 98.5168 226.523L104.821 222.862C105.195 222.646 105.8 222.646 106.172 222.862L112.922 226.781C113.295 226.997 113.295 227.349 112.921 227.566L106.617 231.226C106.243 231.443 105.638 231.443 105.266 231.227L98.5156 227.308ZM106.961 222.404C106.588 222.188 106.588 221.836 106.962 221.62L113.267 217.959C113.64 217.743 114.245 217.743 114.618 217.959L121.368 221.877C121.74 222.095 121.74 222.445 121.366 222.662L115.062 226.323C114.688 226.54 114.083 226.54 113.711 226.324L106.961 222.404ZM73.6457 222.674C73.2729 222.458 73.2737 222.107 73.6467 221.89L86.4827 214.437C86.856 214.221 87.4611 214.221 87.8335 214.437L93.6836 217.834C94.0563 218.05 94.0556 218.401 93.6825 218.618L80.8466 226.071C80.4733 226.287 79.8681 226.287 79.4957 226.071L73.6457 222.674ZM109.671 211.294C109.298 211.078 109.298 210.726 109.672 210.509L115.977 206.849C116.35 206.632 116.955 206.632 117.328 206.849L123.178 210.244C123.55 210.462 123.55 210.812 123.176 211.029L116.872 214.69C116.498 214.907 115.893 214.907 115.521 214.691L109.671 211.294ZM118.116 206.39C117.743 206.174 117.743 205.823 118.117 205.606L124.422 201.945C124.795 201.729 125.4 201.729 125.773 201.945L131.623 205.342C131.996 205.558 131.995 205.909 131.622 206.125L125.317 209.787C124.944 210.003 124.338 210.003 123.966 209.787L118.116 206.39ZM126.328 211.159C125.955 210.942 125.956 210.591 126.329 210.374L166.415 187.1C166.788 186.883 167.394 186.883 167.766 187.099L174.516 191.018C174.888 191.235 174.888 191.586 174.515 191.803L134.429 215.077C134.056 215.294 133.45 215.294 133.079 215.078L126.328 211.159ZM126.561 201.487C126.188 201.27 126.189 200.92 126.562 200.703L132.867 197.042C133.241 196.825 133.846 196.825 134.218 197.041L140.068 200.438C140.441 200.654 140.441 201.006 140.067 201.223L133.762 204.883C133.389 205.099 132.783 205.1 132.411 204.884L126.561 201.487ZM135.006 196.584C134.633 196.368 134.634 196.016 135.008 195.799L141.312 192.139C141.686 191.921 142.29 191.921 142.663 192.138L148.513 195.534C148.885 195.751 148.885 196.102 148.512 196.319L142.207 199.98C141.834 200.197 141.229 200.197 140.856 199.981L135.006 196.584ZM143.452 191.68C143.079 191.464 143.079 191.113 143.453 190.895L149.757 187.235C150.131 187.018 150.735 187.018 151.108 187.234L156.959 190.631C157.331 190.847 157.33 191.198 156.957 191.415L150.652 195.076C150.279 195.293 149.674 195.293 149.301 195.077L143.452 191.68ZM151.896 186.776C151.524 186.56 151.524 186.209 151.897 185.992L158.203 182.331C158.575 182.114 159.181 182.114 159.553 182.33L165.403 185.727C165.776 185.944 165.776 186.295 165.403 186.512L159.097 190.172C158.725 190.389 158.119 190.389 157.746 190.173L151.896 186.776ZM160.341 181.873C159.969 181.657 159.97 181.305 160.343 181.088L166.648 177.428C167.021 177.211 167.626 177.21 167.999 177.428L173.848 180.823C174.221 181.041 174.221 181.391 173.847 181.608L167.543 185.269C167.169 185.486 166.564 185.486 166.192 185.27L160.341 181.873ZM101.226 216.197C100.853 215.981 100.853 215.63 101.227 215.413L107.531 211.752C107.905 211.535 108.51 211.535 108.882 211.751L114.733 215.148C115.105 215.365 115.105 215.716 114.731 215.933L108.427 219.593C108.053 219.81 107.448 219.81 107.076 219.594L101.226 216.197ZM92.7804 221.101C92.4077 220.885 92.4081 220.534 92.7817 220.316L99.0863 216.656C99.4598 216.439 100.065 216.439 100.437 216.655L106.287 220.052C106.66 220.268 106.66 220.619 106.286 220.836L99.9815 224.497C99.6081 224.714 99.0029 224.714 98.6305 224.498L92.7804 221.101ZM130.848 189.461C130.475 189.245 130.475 188.894 130.849 188.677L137.153 185.016C137.527 184.8 138.132 184.799 138.504 185.016L144.355 188.412C144.727 188.629 144.726 188.979 144.353 189.197L138.048 192.857C137.675 193.074 137.07 193.074 136.697 192.858L130.848 189.461ZM81.858 227.443C81.4853 227.227 81.4851 226.876 81.8588 226.659L90.6415 221.56C91.0148 221.342 91.6198 221.342 91.9922 221.559L97.8423 224.955C98.215 225.172 98.2152 225.523 97.8414 225.74L89.0587 230.84C88.6856 231.056 88.0805 231.056 87.7081 230.84L81.858 227.443ZM115.406 217.501C115.033 217.284 115.033 216.934 115.407 216.717L124.189 211.617C124.563 211.4 125.168 211.4 125.54 211.616L132.29 215.536C132.663 215.752 132.663 216.103 132.289 216.32L123.506 221.42C123.133 221.636 122.528 221.636 122.156 221.42L115.406 217.501Z" id="Shape" fill="url(#linearGradient-14)"/></g><g id="Group-52" transform="translate(54.7033 83.9355)"><path d="M57.1517 60.6418 57.1517 61.9766 0 95.0419 0 93.7009Z" id="Shape" fill="#EAEEF1" fill-rule="nonzero"/><path d="M57.1517 48.9744 57.1517 50.3092 1.32432e-14 83.3746 0 82.0332Z" id="Shape" fill="#EAEEF1" fill-rule="nonzero"/><path d="M57.1517 37.307 57.1517 38.6418 1.32432e-14 71.7072 0 70.3658Z" id="Shape" fill="#EAEEF1" fill-rule="nonzero"/><path d="M3.4991 60.7085 3.4991 98.0062 8.05843 95.3037 8.05843 58.152 3.4991 60.7085ZM12.6179 38.9135 12.6179 92.6635 17.1773 90.0474 17.1773 36.3391 12.6179 38.9135ZM21.7367 45.3094 21.7367 87.4316 26.2961 84.7998 26.2961 42.7025 21.7367 45.3094ZM30.8555 48.4679 30.8555 82.1461 35.415 79.566 35.415 45.9035 30.8555 48.4679ZM39.9744 38.9564 39.9744 76.9604 44.5337 74.3219 44.5337 36.3391 39.9744 38.9564ZM49.0932 50.0684 49.0932 71.6425 53.6526 69.0338 53.6526 47.4656 49.0932 50.0684Z" id="Shape" fill="#F36309" fill-rule="nonzero"/><path d="M66.4826 25.2302 103.806 3.50022 103.806 40.8359 66.4826 62.5659Z" id="Shape" fill="#EAEEF1" fill-rule="nonzero"/><path d="M68.8153 21.73 106.139 0 106.139 37.3357 68.8153 59.0657Z" id="Shape" fill="#FDFDFD" fill-rule="nonzero"/><path d="M71.0136 52.9164C69.2591 49.2608 70.834 46.231 75.7383 43.8269 83.0947 40.2207 83.5269 37.5596 83.7434 32.5747 83.9598 27.5899 87.6211 26.8328 91.6032 26.8328 95.5852 26.8328 97.6456 24.3637 96.7482 20.3097 95.8507 16.2557 96.7109 14.3797 100.283 12.8934" id="Shape" stroke="url(#linearGradient-15)" stroke-width="1.00193" stroke-linecap="round" stroke-linejoin="round" opacity="0.67"/></g></g><g id="Group" fill-rule="nonzero" transform="translate(208.692 155.388)"><path d="M0.740756 25.9795 46.5911 0.186663C47.0711-0.0833662 47.6626-0.058851 48.1186 0.24998L50.3631 1.77009 48.6781 36.2702 2.41811 83.3803 0.647281 82.2C0.242902 81.9304 3.01526e-13 81.4766 3.01526e-13 80.9906L3.01526e-13 27.2461C3.01526e-13 26.721 0.283172 26.2369 0.740756 25.9795Z" id="Shape" fill="url(#linearGradient-16)"/><path d="M3.14654 27.7888 48.9181 1.49478C49.6142 1.09497 50.5024 1.33506 50.9022 2.03103 51.0287 2.2513 51.0953 2.50089 51.0953 2.75494L51.0953 54.336C51.0953 54.8528 50.821 55.3307 50.3746 55.5912L2.41717 83.5801 2.41717 29.049C2.41717 28.5286 2.69536 28.0479 3.14654 27.7888Z" id="Shape" fill="#FFFFFF"/><path d="M18.905 48.8816 26.7563 61.3848 34.6075 39.6393 36.1779 39.0263C39.7603 37.6281 42.3583 39.4291 42.3583 43.3109L42.3583 52.2015 11.1542 70.568 11.1542 61.6774C11.1542 57.7955 13.7522 52.9363 17.3346 50.1173L18.905 48.8816ZM33.8481 49.1522C33.3258 49.4596 32.9025 50.1598 32.9025 50.7161 32.9025 51.2725 33.3258 51.4743 33.8481 51.1669L36.6848 49.4972C37.2071 49.1898 37.6304 48.4897 37.6304 47.9333 37.6304 47.377 37.2071 47.1752 36.6848 47.4826L33.8481 49.1522ZM24.9446 25.2321C26.0177 24.4619 26.4415 24.2702 29.5302 23.7429 31.5894 23.3913 32.8997 23.7622 33.461 24.8555 33.7897 26.2013 33.7236 27.7447 33.2757 29.4872 34.1164 29.7358 34.031 31.0836 33.0195 33.5304 32.0542 38.1125 30.0088 41.6643 26.8832 44.1858L26.6294 44.3351C23.5038 45.4931 21.4583 44.3491 20.493 40.9034 19.4816 39.6472 19.3961 38.4001 20.2368 37.1618 19.789 35.9465 19.7228 34.481 20.0382 32.7653 20.2997 30.3997 23.8716 26.0024 24.9446 25.2321ZM23.4467 52.6061 26.5636 47.3959 29.6791 48.9377 26.5636 58.3421 23.4467 52.6061Z" id="Shape" fill="url(#linearGradient-17)"/></g><g id="Group-51" fill-rule="nonzero" transform="translate(113.919 5.81315)"><path d="M0.386983 53.8065 32.5673 5.18551 60.9491 19.7955C60.9704 19.8065 60.9914 19.8181 61.0121 19.8304L65.1346 22.2863 65.1346 37.6051 3.86762 105.214 0.763152 104.073C0.304696 103.905-2.06924e-15 103.468-2.06924e-15 102.98L-2.06924e-15 55.0924C-2.06924e-15 54.6351 0.134585 54.1878 0.386983 53.8065Z" id="Shape" fill="url(#linearGradient-18)"/><path d="M0 55.7273 3.12841 56.83 55.958 22.8163 65.1346 22.8163 65.1346 38.135 3.86762 105.361 0.763152 104.22C0.304696 104.051 0 103.615 0 103.126L0 55.7273Z" id="Shape" fill="url(#linearGradient-19)"/><path d="M4.25238 32.9713 59.456 0.259658C60.0094-0.068309 60.724 0.114498 61.052 0.667969 61.1585 0.847735 61.2148 1.05284 61.2148 1.2618L61.2148 46.3089C61.2148 47.1257 60.787 47.8829 60.0873 48.3044L4.87637 81.5723C4.32534 81.9044 3.60946 81.7268 3.27742 81.1758 3.16808 80.9943 3.1103 80.7865 3.1103 80.5745L3.1103 34.9756C3.1103 34.1527 3.54442 33.3908 4.25238 32.9713Z" id="Shape" fill="url(#linearGradient-20)"/><path d="M23.8456 35.6219 9.33085 44.0092 9.33085 40.8979 23.8456 32.5106Z" id="Shape" fill="#F36309"/><path d="M54.9486 24.909 54.9486 28.0203 9.33085 54.3803 9.33085 51.2689Z" id="Shape" fill="#F36309"/><path d="M9.33085 61.654 54.9486 35.2615 54.9486 38.3728 9.33085 64.7653Z" id="Shape" fill="#F36309"/><path d="M3.1103 56.6278 34.2133 60.3479 65.3162 22.8163 65.3162 68.8446C65.3162 69.6754 64.8738 70.4433 64.1551 70.86L4.8595 105.243C4.30296 105.566 3.59018 105.377 3.26745 104.819 3.16451 104.642 3.1103 104.441 3.1103 104.235L3.1103 56.6278Z" id="Shape" fill="url(#linearGradient-21)"/><path d="M34.8941 54.9664 64.4961 70.7023 5.18382 104.938Z" id="Shape" fill="url(#linearGradient-22)"/></g><path d="M178.96 68.4232C179.044 68.4714 179.076 85.2494 179.054 118.757L113.919 155.969 113.919 106.935 178.96 68.4232Z" id="Shape-Copy" fill="url(#linearGradient-23)" fill-rule="nonzero" opacity="0.6"/></g></g></g></svg>