<svg width="400" height="400" viewBox="0 0 400 400" xmlns="http://www.w3.org/2000/svg" xmlns:xlink="http://www.w3.org/1999/xlink" overflow="hidden"><defs><linearGradient x1="71.0302%" y1="-65.7822%" x2="41.6565%" y2="73.0609%" id="linearGradient-1"><stop offset="0" stop-color="#FAB643"/><stop offset="0.559689" stop-color="#F48222"/><stop offset="1" stop-color="#F16322" stop-opacity="0"/></linearGradient><linearGradient x1="-12.6884%" y1="-114.304%" x2="56.5239%" y2="71.9158%" id="linearGradient-2"><stop offset="0" stop-color="#FAB643"/><stop offset="0.559689" stop-color="#F48222"/><stop offset="1" stop-color="#F16322" stop-opacity="0"/></linearGradient><linearGradient x1="6.43368%" y1="25.8353%" x2="25.4626%" y2="61.074%" id="linearGradient-3"><stop offset="0" stop-color="#FAB643"/><stop offset="0.559689" stop-color="#F48222"/><stop offset="1" stop-color="#F16322"/></linearGradient><linearGradient x1="6.43368%" y1="25.8353%" x2="25.4626%" y2="61.074%" id="linearGradient-4"><stop offset="0" stop-color="#FAB643"/><stop offset="0.559689" stop-color="#F48222"/><stop offset="1" stop-color="#F16322"/></linearGradient><linearGradient x1="6.43368%" y1="25.8354%" x2="25.4626%" y2="61.0739%" id="linearGradient-5"><stop offset="0" stop-color="#FAB643"/><stop offset="0.559689" stop-color="#F48222"/><stop offset="1" stop-color="#F16322"/></linearGradient><linearGradient x1="6.43368%" y1="-99.2843%" x2="25.4626%" y2="118.413%" id="linearGradient-6"><stop offset="0" stop-color="#FAB643"/><stop offset="0.559689" stop-color="#F48222"/><stop offset="1" stop-color="#F16322"/></linearGradient><linearGradient x1="0%" y1="17.0191%" x2="85.4405%" y2="-56.4422%" id="linearGradient-7"><stop offset="0" stop-color="#FFAD38"/><stop offset="1" stop-color="#F36309"/></linearGradient><linearGradient x1="6.43368%" y1="-27.5622%" x2="25.4626%" y2="85.5446%" id="linearGradient-8"><stop offset="0" stop-color="#FAB643"/><stop offset="0.559689" stop-color="#F48222"/><stop offset="1" stop-color="#F16322"/></linearGradient><linearGradient x1="0%" y1="34.5076%" x2="85.4405%" y2="4.996e-14%" id="linearGradient-9"><stop offset="0" stop-color="#FFAD38"/><stop offset="1" stop-color="#F36309"/></linearGradient><linearGradient x1="6.43368%" y1="-24.2922%" x2="25.4626%" y2="84.046%" id="linearGradient-10"><stop offset="0" stop-color="#FAB643"/><stop offset="0.559689" stop-color="#F48222"/><stop offset="1" stop-color="#F16322"/></linearGradient><linearGradient x1="33.4998%" y1="24.4568%" x2="209.756%" y2="129.355%" id="linearGradient-11"><stop offset="0" stop-color="#FAB643"/><stop offset="0.600586" stop-color="#F48222"/><stop offset="1" stop-color="#F16322"/></linearGradient><linearGradient x1="6.43368%" y1="-20.2906%" x2="65.9646%" y2="112.619%" id="linearGradient-12"><stop offset="0" stop-color="#FAB643"/><stop offset="0.600586" stop-color="#F48222"/><stop offset="1" stop-color="#F16322"/></linearGradient><linearGradient x1="6.43368%" y1="-19.9273%" x2="25.4626%" y2="82.0457%" id="linearGradient-13"><stop offset="0" stop-color="#FAB643"/><stop offset="0.559689" stop-color="#F48222"/><stop offset="1" stop-color="#F16322"/></linearGradient><linearGradient x1="59.1725%" y1="-16.1435%" x2="54.2619%" y2="75.2843%" id="linearGradient-14"><stop offset="0" stop-color="#FAB643"/><stop offset="0.559689" stop-color="#F48222"/><stop offset="1" stop-color="#F16322" stop-opacity="0"/></linearGradient><linearGradient x1="33.8151%" y1="50%" x2="138.792%" y2="71.8381%" id="linearGradient-15"><stop offset="0" stop-color="#FFAD38"/><stop offset="1" stop-color="#F36309"/></linearGradient><linearGradient x1="-11.8286%" y1="31.7452%" x2="51.5838%" y2="78.8674%" id="linearGradient-16"><stop offset="0" stop-color="#FFAD38"/><stop offset="1" stop-color="#F36309"/></linearGradient><linearGradient x1="0%" y1="35.2171%" x2="85.4405%" y2="2.2897%" id="linearGradient-17"><stop offset="0" stop-color="#FFAD38"/><stop offset="1" stop-color="#F36309"/></linearGradient><linearGradient x1="6.43368%" y1="-20.2542%" x2="25.4626%" y2="82.1955%" id="linearGradient-18"><stop offset="0" stop-color="#FAB643"/><stop offset="0.559689" stop-color="#F48222"/><stop offset="1" stop-color="#F16322"/></linearGradient><linearGradient x1="6.43368%" y1="25.8353%" x2="25.4626%" y2="61.074%" id="linearGradient-19"><stop offset="0" stop-color="#FAB643"/><stop offset="0.559689" stop-color="#F48222"/><stop offset="1" stop-color="#F16322"/></linearGradient><linearGradient x1="6.43368%" y1="25.8353%" x2="25.4626%" y2="61.074%" id="linearGradient-20"><stop offset="0" stop-color="#FAB643"/><stop offset="0.559689" stop-color="#F48222"/><stop offset="1" stop-color="#F16322"/></linearGradient><linearGradient x1="6.43368%" y1="25.8354%" x2="25.4626%" y2="61.0739%" id="linearGradient-21"><stop offset="0" stop-color="#FAB643"/><stop offset="0.559689" stop-color="#F48222"/><stop offset="1" stop-color="#F16322"/></linearGradient><linearGradient x1="6.43368%" y1="-99.2843%" x2="25.4626%" y2="118.413%" id="linearGradient-22"><stop offset="0" stop-color="#FAB643"/><stop offset="0.559689" stop-color="#F48222"/><stop offset="1" stop-color="#F16322"/></linearGradient><linearGradient x1="0%" y1="17.0191%" x2="85.4405%" y2="-56.4422%" id="linearGradient-23"><stop offset="0" stop-color="#FFAD38"/><stop offset="1" stop-color="#F36309"/></linearGradient><linearGradient x1="6.43368%" y1="-24.1967%" x2="25.4626%" y2="84.0023%" id="linearGradient-24"><stop offset="0" stop-color="#FAB643"/><stop offset="0.559689" stop-color="#F48222"/><stop offset="1" stop-color="#F16322"/></linearGradient><linearGradient x1="6.43368%" y1="-27.5622%" x2="25.4626%" y2="85.5446%" id="linearGradient-25"><stop offset="0" stop-color="#FAB643"/><stop offset="0.559689" stop-color="#F48222"/><stop offset="1" stop-color="#F16322"/></linearGradient><linearGradient x1="0%" y1="34.5076%" x2="85.4405%" y2="-2.22045e-14%" id="linearGradient-26"><stop offset="0" stop-color="#FFAD38"/><stop offset="1" stop-color="#F36309"/></linearGradient><linearGradient x1="6.43368%" y1="-24.2922%" x2="25.4626%" y2="84.046%" id="linearGradient-27"><stop offset="0" stop-color="#FAB643"/><stop offset="0.559689" stop-color="#F48222"/><stop offset="1" stop-color="#F16322"/></linearGradient><linearGradient x1="33.4998%" y1="24.4568%" x2="209.756%" y2="129.355%" id="linearGradient-28"><stop offset="0" stop-color="#FAB643"/><stop offset="0.600586" stop-color="#F48222"/><stop offset="1" stop-color="#F16322"/></linearGradient></defs><g id="IDS" fill="none" fillRule="evenodd"><g id="Group-8" transform="matrix(1 0 0 1 0 56.5)"><g id="Group-6-Copy"><g id="Group-7" fillRule="nonzero" transform="translate(133.009 179.5)"><g id="Group-4" transform="matrix(1 0 0 1 0 27)"><path d="M0.505708 10.0153 0.505708 51.1909 45.2737 79.0442 45.2737 36.3627Z" id="Shape" fill="url(#linearGradient-1)" opacity="0.2"/><path d="M45.2737 75.6227 103.603 42.6141 103.556 0 103.556 0 45.2737 30.7685Z" id="Shape" fill="url(#linearGradient-2)" opacity="0.6"/></g><g id="Group-5-Copy-4" transform="translate(0.490741 0)"><path d="M102.902 29.1324 102.902 29.8088C102.902 29.9591 102.864 30.1113 102.783 30.2507 102.705 30.3851 102.593 30.4967 102.458 30.5743L45.9102 62.9406C45.0869 63.4144 44.0729 63.4144 43.2496 62.9406L0.443464 38.0682C0.15898 37.9045 3.07027e-14 37.6073 3.07027e-14 37.3019L3.07027e-14 36.707 102.902 29.1324Z" id="Combined-Shape" fill="url(#linearGradient-3)"/><path d="M59.7059 3.55445 102.455 28.4337C102.879 28.6778 103.024 29.2184 102.779 29.6412 102.701 29.7755 102.589 29.8871 102.455 29.9647L45.8524 62.3919C45.0291 62.8656 44.0151 62.8656 43.1918 62.3919L0.443901 37.5127C0.0198452 37.2685-0.125505 36.728 0.119398 36.3053 0.197144 36.1708 0.309127 36.0593 0.443901 35.9816L57.0464 3.55445C57.8686 3.08078 58.8826 3.08078 59.7059 3.55445Z" id="Polygon" fill="#E2E7EC"/><path d="M102.902 27.5328 102.902 28.2092C102.902 28.3594 102.864 28.5117 102.783 28.6511 102.705 28.7856 102.593 28.8971 102.458 28.9746L45.9102 61.3411C45.0869 61.8148 44.0729 61.8148 43.2496 61.3411L0.443464 36.4686C0.15898 36.305 3.07027e-14 36.0078 3.07027e-14 35.7023L3.07027e-14 35.1075 102.902 27.5328Z" id="Combined-Shape" fill="url(#linearGradient-4)"/><path d="M59.7059 1.95484 102.455 26.8342C102.879 27.0782 103.024 27.6189 102.779 28.0416 102.701 28.1759 102.589 28.2875 102.455 28.3651L45.8524 60.7923C45.0291 61.2661 44.0151 61.2661 43.1918 60.7923L0.443901 35.9131C0.0198452 35.669-0.125505 35.1284 0.119398 34.7057 0.197144 34.5713 0.309127 34.4597 0.443901 34.3821L57.0464 1.95484C57.8686 1.48117 58.8826 1.48117 59.7059 1.95484Z" id="Polygon" fill="#E2E7EC"/><path d="M102.902 25.9333 102.902 26.6097C102.902 26.7598 102.864 26.9122 102.783 27.0516 102.705 27.186 102.593 27.2975 102.458 27.3751L45.9102 59.7415C45.0869 60.2152 44.0729 60.2152 43.2496 59.7415L0.443464 34.869C0.15898 34.7053 3.07027e-14 34.4082 3.07027e-14 34.1027L3.07027e-14 33.5079 102.902 25.9333Z" id="Combined-Shape" fill="url(#linearGradient-5)"/><path d="M59.816 0.355333 102.565 25.2346C102.989 25.4786 103.134 26.0192 102.889 26.442 102.811 26.5763 102.699 26.688 102.565 26.7655L45.9625 59.1928C45.1393 59.6665 44.1252 59.6665 43.3019 59.1928L0.553922 34.3136C0.129757 34.0694-0.0155927 33.5288 0.22931 33.1061 0.307165 32.9717 0.419039 32.8602 0.553922 32.7825L57.1554 0.355333C57.9787-0.118444 58.9928-0.118444 59.816 0.355333Z" id="Polygon" fill="#FCFCFC"/><path d="M38.4333 62.4641 30.9739 57.9C30.5083 57.6147 30.2237 57.1074 30.2237 56.5607L30.2237 51.2563C30.2684 51.2451 30.2913 51.2222 30.3186 51.206L42.422 44.0281C42.5975 43.9232 42.8145 43.9232 42.9901 44.0281L52.1309 49.5353C52.2214 49.5893 52.253 49.7089 52.2007 49.8025 52.1843 49.8322 52.1603 49.8569 52.1309 49.8741L39.7538 57.1709C39.7135 57.1949 39.6709 57.2133 39.6284 57.2263L39.6284 61.7944C39.6284 62.228 39.2762 62.5795 38.8433 62.5795 38.6983 62.5795 38.5565 62.5396 38.4333 62.4641Z" id="Combined-Shape" fill="url(#linearGradient-6)"/><path d="M37.935 62.4822 30.215 57.9642C29.7341 57.6825 29.4386 57.1667 29.4386 56.609L29.4386 51.2934C29.4833 51.2822 29.5062 51.2592 29.5335 51.243L41.6358 44.0285C41.8125 43.9231 42.0295 43.9231 42.205 44.0285L51.3458 49.5636C51.4363 49.6179 51.4668 49.7382 51.4145 49.8323 51.3981 49.8622 51.3742 49.887 51.3458 49.9043L39.2424 57.1188C39.2021 57.1429 39.1606 57.1614 39.117 57.1745L39.117 61.8046C39.117 62.2382 38.7648 62.5897 38.3319 62.5897 38.1923 62.5897 38.055 62.5527 37.935 62.4822Z" id="Combined-Shape" fill="url(#linearGradient-7)"/><path d="M30.8038 58.076 30.2237 57.754 30.2237 51.4259C30.2706 51.4145 30.2935 51.391 30.3219 51.3745L42.8494 44.0299C43.0315 43.9226 43.2561 43.9226 43.4382 44.0299L43.484 44.1024C43.5778 44.1577 43.6105 44.2801 43.556 44.3759 43.5386 44.4063 43.5135 44.4316 43.484 44.4491L30.9576 51.7937C30.915 51.8182 30.8714 51.8371 30.8267 51.8504L30.8038 58.076Z" id="Combined-Shape" fill="#FCFCFC"/><path d="M37.0889 62 36.5099 61.678 36.5099 55.3499C36.5568 55.3385 36.5797 55.3151 36.608 55.2986L49.1356 47.954C49.3177 47.8467 49.5423 47.8467 49.7244 47.954L49.7702 48.0264C49.864 48.0817 49.8967 48.2041 49.8421 48.2999 49.8247 48.3303 49.7996 48.3556 49.7702 48.3731L37.2426 55.7177C37.2012 55.7423 37.1576 55.7612 37.1129 55.7745L37.0889 62Z" id="Combined-Shape" fill="#FCFCFC"/><path d="M49.43 11.7722 47.7966 12.7189 80.4527 31.6541 82.0855 30.7073 49.43 11.7722ZM43.7141 15.0858 42.0818 16.0326 74.738 34.9677 76.3707 34.0209 43.7141 15.0858ZM37.9993 18.3994 36.367 19.3462 69.0231 38.2814 70.656 37.3346 37.9993 18.3994ZM32.2846 21.7132 30.6523 22.6598 63.3083 41.595 64.9411 40.6482 32.2846 21.7132ZM26.5698 25.0268 24.9375 25.9736 43.3063 36.6245 44.9397 35.6778 26.5698 25.0268ZM20.855 28.3404 19.2227 29.2872 37.5915 39.9382 39.225 38.9915 20.855 28.3404Z" id="Shape" fill="#FFDBB4"/><path d="M16.8653 30.6076 9.79296 34.9241 16.8653 39.2405 23.9376 34.9241Z" id="Path" fill="url(#linearGradient-8)"/><path d="M61.0994 7.8481 89.9437 24.5971 84.9987 27.4684 56.1547 10.7194Z" id="Path" fill="url(#linearGradient-9)"/><path d="M39.8476 48.2698C39.0821 48.1721 38.5576 47.7804 38.5478 47.3431 38.5456 47.2948 38.5456 47.0992 38.5478 46.7565 38.5893 46.9626 38.6154 47.0564 38.6252 47.0376 38.96 46.4244 38.6514 45.7537 37.8347 45.3201 37.4694 45.1263 37.2884 44.8592 37.2948 44.5926 37.2971 44.5235 37.2971 44.3439 37.2948 44.0539 37.4814 44.0564 37.6253 44.025 37.7267 43.9598 37.7616 43.9379 37.7976 43.9171 37.8347 43.8973 38.6514 43.4636 38.96 42.793 38.6252 42.1798 38.5653 42.0706 38.5413 41.9599 38.5478 41.8517 38.55 41.823 38.55 41.6378 38.5478 41.2959 38.9109 41.1539 39.2947 41.0455 39.7004 40.9704 39.7483 40.9615 39.7974 40.9539 39.8476 40.9475 40.9271 40.8097 41.7699 40.3188 42.0066 39.6902 42.2028 39.1708 43.085 38.8421 43.9769 38.9559 44.0271 38.9622 44.075 38.9699 44.1241 38.9788 45.1774 39.1738 46.3289 38.9941 47.0736 38.5187 47.6897 38.1257 48.7365 38.0977 49.4114 38.4561 49.4485 38.4759 49.4845 38.4969 49.5183 38.5187 50.263 38.9941 51.4156 39.1738 52.4689 38.9788 53.339 38.8178 54.2692 39.098 54.5461 39.6048 54.5614 39.6329 54.5745 39.6614 54.5854 39.6902 54.822 40.3188 55.666 40.8097 56.7454 40.9475 57.1838 41.0035 57.6167 41.1302 58.0452 41.3276 58.043 41.6453 58.043 41.8232 58.0452 41.8616 58.0485 41.9382 58.0365 42.0162 58.007 42.0943 57.9961 42.1231 57.983 42.1517 57.9678 42.1798 57.6319 42.793 57.9416 43.4636 58.7583 43.8973 58.9579 44.0036 59.1378 44.0613 59.297 44.0702 59.297 44.4022 59.297 44.5824 59.297 44.6106 59.297 44.8418 59.1541 45.0734 58.8652 45.2575 58.8314 45.2794 58.7954 45.3002 58.7583 45.3201 58.139 45.6488 57.8119 46.1136 57.8358 46.5864 57.8402 46.6871 57.91 46.7596 58.0452 46.8041 58.0463 47.1687 58.0452 47.3677 58.0408 47.4012 57.9918 47.7814 57.5545 48.1243 56.8916 48.2469 56.8436 48.2558 56.7945 48.2634 56.7454 48.2698 55.666 48.4076 54.822 48.8986 54.5854 49.5271 54.3902 50.0466 53.5081 50.3753 52.615 50.2614 52.566 50.2551 52.5169 50.2474 52.4689 50.2385 51.4156 50.0436 50.263 50.2233 49.5183 50.6987 48.9022 51.0916 47.8565 51.1196 47.1816 50.7612 47.1445 50.7414 47.1085 50.7205 47.0736 50.6987 46.3289 50.2233 45.1774 50.0436 44.1241 50.2385 43.2529 50.3996 42.3228 50.1193 42.0469 49.6125 42.0305 49.5844 42.0175 49.5559 42.0066 49.5271 41.7699 48.8986 40.9271 48.4076 39.8476 48.2698Z" id="Star-2" fill="url(#linearGradient-10)"/><path d="M39.8476 47.7361C38.9545 47.6222 38.3908 47.1088 38.586 46.5894 38.5969 46.5606 38.61 46.532 38.6252 46.5039 38.96 45.8906 38.6514 45.22 37.8347 44.7864 37.1597 44.4281 37.1118 43.819 37.7278 43.4261 37.7616 43.4043 37.7976 43.3835 37.8347 43.3636 38.6514 42.93 38.96 42.2594 38.6252 41.646 38.3483 41.1392 38.8302 40.5978 39.7004 40.4368 39.7494 40.4279 39.7974 40.4202 39.8476 40.4139 40.9271 40.2761 41.7699 39.7852 42.0076 39.1566 42.2028 38.6371 43.085 38.3083 43.9769 38.4223 44.0271 38.4286 44.075 38.4362 44.1241 38.4452 45.1774 38.64 46.3289 38.4603 47.0747 37.9849 47.6897 37.5921 48.7365 37.564 49.4114 37.9224 49.4485 37.9423 49.4845 37.9631 49.5183 37.9849 50.263 38.4603 51.4156 38.64 52.4689 38.4452 53.339 38.2841 54.2692 38.5644 54.5461 39.0712 54.5614 39.0993 54.5745 39.1278 54.5854 39.1566 54.822 39.7852 55.666 40.2761 56.7454 40.4139 57.6374 40.5277 58.2022 41.0412 58.007 41.5607 57.9961 41.5895 57.983 41.618 57.9678 41.646 57.633 42.2594 57.9416 42.93 58.7583 43.3636 59.4333 43.7219 59.4813 44.3309 58.8652 44.7239 58.8314 44.7457 58.7954 44.7665 58.7583 44.7864 57.9416 45.22 57.633 45.8906 57.9678 46.5039 58.2437 47.0107 57.7628 47.5522 56.8916 47.7132 56.8436 47.7222 56.7945 47.7298 56.7454 47.7361 55.666 47.874 54.822 48.3648 54.5854 48.9935 54.3902 49.5128 53.5081 49.8416 52.615 49.7277 52.566 49.7214 52.5169 49.7138 52.4689 49.7048 51.4156 49.5099 50.263 49.6896 49.5183 50.165 48.9033 50.558 47.8565 50.586 47.1816 50.2276 47.1445 50.2077 47.1085 50.1868 47.0747 50.165 46.3289 49.6896 45.1774 49.5099 44.1241 49.7048 43.2529 49.8659 42.3228 49.5857 42.0469 49.0788 42.0316 49.0507 42.0185 49.0222 42.0076 48.9935 41.7699 48.3648 40.9271 47.874 39.8476 47.7361Z" id="Star-2" fill="url(#linearGradient-11)"/><path d="M42.7153 47.0939C39.7821 45.4266 39.7821 42.7234 42.7153 41.0561 45.6496 39.3888 50.407 39.3888 53.3401 41.0561 56.2744 42.7234 56.2744 45.4266 53.3401 47.0939 50.407 48.7612 45.6496 48.7612 42.7153 47.0939ZM43.3794 46.7165C45.9473 48.1754 50.1093 48.1754 52.6761 46.7165 55.244 45.2577 55.244 42.8924 52.6761 41.4334 50.1093 39.9746 45.9473 39.9746 43.3794 41.4334 40.8126 42.8924 40.8126 45.2577 43.3794 46.7165Z" id="Oval-9" fill="#FCFCFC"/></g></g><g id="Group-4-Copy-5" fillRule="nonzero" transform="translate(155.878 27)"><path d="M0.505708 10.0153 0.505708 51.1909 45.2737 79.0442 45.2737 36.3627Z" id="Shape" fill="url(#linearGradient-1)" opacity="0.2"/><path d="M45.2737 75.6227 103.603 42.6141 103.556 0 103.556 0 45.2737 30.7685Z" id="Shape" fill="url(#linearGradient-2)" opacity="0.6"/></g><g id="Group-4-Copy-4" fillRule="nonzero" transform="translate(55.5093 60)"><path d="M0.505708 10.0153 0.505708 51.1909 45.2737 79.0442 45.2737 36.3627Z" id="Shape" fill="url(#linearGradient-1)" opacity="0.2"/><path d="M45.2737 75.6227 103.603 42.6141 103.556 0 103.556 0 45.2737 30.7685Z" id="Shape" fill="url(#linearGradient-2)" opacity="0.6"/></g><g id="Group-4-Copy-3" fillRule="nonzero" transform="matrix(1 0 0 1 0 122)"><path d="M0.505708 10.0153 0.505708 51.1909 45.2737 79.0442 45.2737 36.3627Z" id="Shape" fill="url(#linearGradient-1)" opacity="0.2"/><path d="M45.2737 75.6227 103.603 42.6141 103.556 0 103.556 0 45.2737 30.7685Z" id="Shape" fill="url(#linearGradient-2)" opacity="0.6"/></g><g id="Group-4-Copy" fillRule="nonzero" transform="translate(253.509 182.5)"><path d="M0.505708 10.0153 0.505708 51.1909 45.2737 79.0442 45.2737 36.3627Z" id="Shape" fill="url(#linearGradient-1)" opacity="0.2"/><path d="M45.2737 75.6227 103.603 42.6141 103.556 0 103.556 0 45.2737 30.7685Z" id="Shape" fill="url(#linearGradient-2)" opacity="0.6"/></g><g id="Group-4-Copy-2" fillRule="nonzero" transform="translate(296 115.5)"><path d="M0.505708 10.0153 0.505708 51.1909 45.2737 79.0442 45.2737 36.3627Z" id="Shape" fill="url(#linearGradient-1)" opacity="0.2"/><path d="M45.2737 75.6227 103.603 42.6141 103.556 0 103.556 0 45.2737 30.7685Z" id="Shape" fill="url(#linearGradient-2)" opacity="0.6"/></g><g id="Group"><g id="Group-2" transform="translate(62.5 45)"><path d="M84.0621 113.174C114.446 130.862 163.708 130.862 194.092 113.174 224.475 95.486 224.475 66.8077 194.092 49.1194 163.708 31.4312 114.446 31.4312 84.0621 49.1194 53.6782 66.8077 53.6782 95.486 84.0621 113.174Z" id="Oval" stroke="#F47F22" stroke-linecap="round" stroke-dasharray="3 3"/><line x1="83.2528" y1="112.703" x2="58.1029" y2="127.344" id="Path-2" stroke="#F47F22" stroke-linecap="round" stroke-dasharray="3 3"/><line x1="218.432" y1="34.007" x2="193.282" y2="48.6483" id="Path-2-Copy" stroke="#F47F22" stroke-linecap="round" stroke-dasharray="3 3"/><line x1="160.907" y1="0.518367" x2="274.256" y2="66.5056" id="Path-3" stroke="#F47F22" stroke-linecap="round" stroke-dasharray="3 3"/><g id="Group-3-Copy-2" fillRule="nonzero" transform="translate(211.531 29.5024)"><path d="M7.32973 8.49535C11.3778 8.49535 14.6595 6.5936 14.6595 4.24767 14.6595 1.90175 11.3778 2.77898e-14 7.32973 2.77898e-14 3.28163 2.77898e-14 2.16896e-14 1.90175 2.16896e-14 4.24767 2.16896e-14 6.5936 3.28163 8.49535 7.32973 8.49535Z" id="Oval" fill="url(#linearGradient-12)" opacity="0.15"/><path d="M7.32973 6.41015C9.39061 6.41015 11.0613 5.44198 11.0613 4.24767 11.0613 3.05337 9.39061 2.08519 7.32973 2.08519 5.26885 2.08519 3.59818 3.05337 3.59818 4.24767 3.59818 5.44198 5.26885 6.41015 7.32973 6.41015Z" id="Oval" fill="url(#linearGradient-13)"/></g><line x1="59.0765" y1="34.5738" x2="84.0621" y2="49.1194" id="Path-3-Copy-2" stroke="#F47F22" stroke-linecap="round" stroke-dasharray="3 3"/><line x1="193.962" y1="113.099" x2="218.947" y2="127.644" id="Path-3-Copy-3" stroke="#F47F22" stroke-linecap="round" stroke-dasharray="3 3"/><g id="Group-5" fillRule="nonzero" transform="translate(191.667 110.889)"><path d="M102.902 29.1324 102.902 29.8088C102.902 29.9591 102.864 30.1113 102.783 30.2507 102.705 30.3851 102.593 30.4967 102.458 30.5743L45.9102 62.9406C45.0869 63.4144 44.0729 63.4144 43.2496 62.9406L0.443464 38.0682C0.15898 37.9045 3.07027e-14 37.6073 3.07027e-14 37.3019L3.07027e-14 36.707 102.902 29.1324Z" id="Combined-Shape" fill="url(#linearGradient-3)"/><path d="M59.7059 3.55445 102.455 28.4337C102.879 28.6778 103.024 29.2184 102.779 29.6412 102.701 29.7755 102.589 29.8871 102.455 29.9647L45.8524 62.3919C45.0291 62.8656 44.0151 62.8656 43.1918 62.3919L0.443901 37.5127C0.0198452 37.2685-0.125505 36.728 0.119398 36.3053 0.197144 36.1708 0.309127 36.0593 0.443901 35.9816L57.0464 3.55445C57.8686 3.08078 58.8826 3.08078 59.7059 3.55445Z" id="Polygon" fill="#E2E7EC"/><path d="M102.902 27.5328 102.902 28.2092C102.902 28.3594 102.864 28.5117 102.783 28.6511 102.705 28.7856 102.593 28.8971 102.458 28.9746L45.9102 61.3411C45.0869 61.8148 44.0729 61.8148 43.2496 61.3411L0.443464 36.4686C0.15898 36.305 3.07027e-14 36.0078 3.07027e-14 35.7023L3.07027e-14 35.1075 102.902 27.5328Z" id="Combined-Shape" fill="url(#linearGradient-4)"/><path d="M59.7059 1.95484 102.455 26.8342C102.879 27.0782 103.024 27.6189 102.779 28.0416 102.701 28.1759 102.589 28.2875 102.455 28.3651L45.8524 60.7923C45.0291 61.2661 44.0151 61.2661 43.1918 60.7923L0.443901 35.9131C0.0198452 35.669-0.125505 35.1284 0.119398 34.7057 0.197144 34.5713 0.309127 34.4597 0.443901 34.3821L57.0464 1.95484C57.8686 1.48117 58.8826 1.48117 59.7059 1.95484Z" id="Polygon" fill="#E2E7EC"/><path d="M102.902 25.9333 102.902 26.6097C102.902 26.7598 102.864 26.9122 102.783 27.0516 102.705 27.186 102.593 27.2975 102.458 27.3751L45.9102 59.7415C45.0869 60.2152 44.0729 60.2152 43.2496 59.7415L0.443464 34.869C0.15898 34.7053 3.07027e-14 34.4082 3.07027e-14 34.1027L3.07027e-14 33.5079 102.902 25.9333Z" id="Combined-Shape" fill="url(#linearGradient-5)"/><path d="M59.816 0.355333 102.565 25.2346C102.989 25.4786 103.134 26.0192 102.889 26.442 102.811 26.5763 102.699 26.688 102.565 26.7655L45.9625 59.1928C45.1393 59.6665 44.1252 59.6665 43.3019 59.1928L0.553922 34.3136C0.129757 34.0694-0.0155927 33.5288 0.22931 33.1061 0.307165 32.9717 0.419039 32.8602 0.553922 32.7825L57.1554 0.355333C57.9787-0.118444 58.9928-0.118444 59.816 0.355333Z" id="Polygon" fill="#FCFCFC"/><path d="M38.4333 62.4641 30.9739 57.9C30.5083 57.6147 30.2237 57.1074 30.2237 56.5607L30.2237 51.2563C30.2684 51.2451 30.2913 51.2222 30.3186 51.206L42.422 44.0281C42.5975 43.9232 42.8145 43.9232 42.9901 44.0281L52.1309 49.5353C52.2214 49.5893 52.253 49.7089 52.2007 49.8025 52.1843 49.8322 52.1603 49.8569 52.1309 49.8741L39.7538 57.1709C39.7135 57.1949 39.6709 57.2133 39.6284 57.2263L39.6284 61.7944C39.6284 62.228 39.2762 62.5795 38.8433 62.5795 38.6983 62.5795 38.5565 62.5396 38.4333 62.4641Z" id="Combined-Shape" fill="url(#linearGradient-6)"/><path d="M37.935 62.4822 30.215 57.9642C29.7341 57.6825 29.4386 57.1667 29.4386 56.609L29.4386 51.2934C29.4833 51.2822 29.5062 51.2592 29.5335 51.243L41.6358 44.0285C41.8125 43.9231 42.0295 43.9231 42.205 44.0285L51.3458 49.5636C51.4363 49.6179 51.4668 49.7382 51.4145 49.8323 51.3981 49.8622 51.3742 49.887 51.3458 49.9043L39.2424 57.1188C39.2021 57.1429 39.1606 57.1614 39.117 57.1745L39.117 61.8046C39.117 62.2382 38.7648 62.5897 38.3319 62.5897 38.1923 62.5897 38.055 62.5527 37.935 62.4822Z" id="Combined-Shape" fill="url(#linearGradient-7)"/><path d="M30.8038 58.076 30.2237 57.754 30.2237 51.4259C30.2706 51.4145 30.2935 51.391 30.3219 51.3745L42.8494 44.0299C43.0315 43.9226 43.2561 43.9226 43.4382 44.0299L43.484 44.1024C43.5778 44.1577 43.6105 44.2801 43.556 44.3759 43.5386 44.4063 43.5135 44.4316 43.484 44.4491L30.9576 51.7937C30.915 51.8182 30.8714 51.8371 30.8267 51.8504L30.8038 58.076Z" id="Combined-Shape" fill="#FCFCFC"/><path d="M37.0889 62 36.5099 61.678 36.5099 55.3499C36.5568 55.3385 36.5797 55.3151 36.608 55.2986L49.1356 47.954C49.3177 47.8467 49.5423 47.8467 49.7244 47.954L49.7702 48.0264C49.864 48.0817 49.8967 48.2041 49.8421 48.2999 49.8247 48.3303 49.7996 48.3556 49.7702 48.3731L37.2426 55.7177C37.2012 55.7423 37.1576 55.7612 37.1129 55.7745L37.0889 62Z" id="Combined-Shape" fill="#FCFCFC"/><path d="M49.43 11.7722 47.7966 12.7189 80.4527 31.6541 82.0855 30.7073 49.43 11.7722ZM43.7141 15.0858 42.0818 16.0326 74.738 34.9677 76.3707 34.0209 43.7141 15.0858ZM37.9993 18.3994 36.367 19.3462 69.0231 38.2814 70.656 37.3346 37.9993 18.3994ZM32.2846 21.7132 30.6523 22.6598 63.3083 41.595 64.9411 40.6482 32.2846 21.7132ZM26.5698 25.0268 24.9375 25.9736 43.3063 36.6245 44.9397 35.6778 26.5698 25.0268ZM20.855 28.3404 19.2227 29.2872 37.5915 39.9382 39.225 38.9915 20.855 28.3404Z" id="Shape" fill="#FFDBB4"/><path d="M16.8653 30.6076 9.79296 34.9241 16.8653 39.2405 23.9376 34.9241Z" id="Path" fill="url(#linearGradient-8)"/><path d="M61.0994 7.8481 89.9437 24.5971 84.9987 27.4684 56.1547 10.7194Z" id="Path" fill="url(#linearGradient-9)"/><path d="M39.8476 48.2698C39.0821 48.1721 38.5576 47.7804 38.5478 47.3431 38.5456 47.2948 38.5456 47.0992 38.5478 46.7565 38.5893 46.9626 38.6154 47.0564 38.6252 47.0376 38.96 46.4244 38.6514 45.7537 37.8347 45.3201 37.4694 45.1263 37.2884 44.8592 37.2948 44.5926 37.2971 44.5235 37.2971 44.3439 37.2948 44.0539 37.4814 44.0564 37.6253 44.025 37.7267 43.9598 37.7616 43.9379 37.7976 43.9171 37.8347 43.8973 38.6514 43.4636 38.96 42.793 38.6252 42.1798 38.5653 42.0706 38.5413 41.9599 38.5478 41.8517 38.55 41.823 38.55 41.6378 38.5478 41.2959 38.9109 41.1539 39.2947 41.0455 39.7004 40.9704 39.7483 40.9615 39.7974 40.9539 39.8476 40.9475 40.9271 40.8097 41.7699 40.3188 42.0066 39.6902 42.2028 39.1708 43.085 38.8421 43.9769 38.9559 44.0271 38.9622 44.075 38.9699 44.1241 38.9788 45.1774 39.1738 46.3289 38.9941 47.0736 38.5187 47.6897 38.1257 48.7365 38.0977 49.4114 38.4561 49.4485 38.4759 49.4845 38.4969 49.5183 38.5187 50.263 38.9941 51.4156 39.1738 52.4689 38.9788 53.339 38.8178 54.2692 39.098 54.5461 39.6048 54.5614 39.6329 54.5745 39.6614 54.5854 39.6902 54.822 40.3188 55.666 40.8097 56.7454 40.9475 57.1838 41.0035 57.6167 41.1302 58.0452 41.3276 58.043 41.6453 58.043 41.8232 58.0452 41.8616 58.0485 41.9382 58.0365 42.0162 58.007 42.0943 57.9961 42.1231 57.983 42.1517 57.9678 42.1798 57.6319 42.793 57.9416 43.4636 58.7583 43.8973 58.9579 44.0036 59.1378 44.0613 59.297 44.0702 59.297 44.4022 59.297 44.5824 59.297 44.6106 59.297 44.8418 59.1541 45.0734 58.8652 45.2575 58.8314 45.2794 58.7954 45.3002 58.7583 45.3201 58.139 45.6488 57.8119 46.1136 57.8358 46.5864 57.8402 46.6871 57.91 46.7596 58.0452 46.8041 58.0463 47.1687 58.0452 47.3677 58.0408 47.4012 57.9918 47.7814 57.5545 48.1243 56.8916 48.2469 56.8436 48.2558 56.7945 48.2634 56.7454 48.2698 55.666 48.4076 54.822 48.8986 54.5854 49.5271 54.3902 50.0466 53.5081 50.3753 52.615 50.2614 52.566 50.2551 52.5169 50.2474 52.4689 50.2385 51.4156 50.0436 50.263 50.2233 49.5183 50.6987 48.9022 51.0916 47.8565 51.1196 47.1816 50.7612 47.1445 50.7414 47.1085 50.7205 47.0736 50.6987 46.3289 50.2233 45.1774 50.0436 44.1241 50.2385 43.2529 50.3996 42.3228 50.1193 42.0469 49.6125 42.0305 49.5844 42.0175 49.5559 42.0066 49.5271 41.7699 48.8986 40.9271 48.4076 39.8476 48.2698Z" id="Star-2" fill="url(#linearGradient-10)"/><path d="M39.8476 47.7361C38.9545 47.6222 38.3908 47.1088 38.586 46.5894 38.5969 46.5606 38.61 46.532 38.6252 46.5039 38.96 45.8906 38.6514 45.22 37.8347 44.7864 37.1597 44.4281 37.1118 43.819 37.7278 43.4261 37.7616 43.4043 37.7976 43.3835 37.8347 43.3636 38.6514 42.93 38.96 42.2594 38.6252 41.646 38.3483 41.1392 38.8302 40.5978 39.7004 40.4368 39.7494 40.4279 39.7974 40.4202 39.8476 40.4139 40.9271 40.2761 41.7699 39.7852 42.0076 39.1566 42.2028 38.6371 43.085 38.3083 43.9769 38.4223 44.0271 38.4286 44.075 38.4362 44.1241 38.4452 45.1774 38.64 46.3289 38.4603 47.0747 37.9849 47.6897 37.5921 48.7365 37.564 49.4114 37.9224 49.4485 37.9423 49.4845 37.9631 49.5183 37.9849 50.263 38.4603 51.4156 38.64 52.4689 38.4452 53.339 38.2841 54.2692 38.5644 54.5461 39.0712 54.5614 39.0993 54.5745 39.1278 54.5854 39.1566 54.822 39.7852 55.666 40.2761 56.7454 40.4139 57.6374 40.5277 58.2022 41.0412 58.007 41.5607 57.9961 41.5895 57.983 41.618 57.9678 41.646 57.633 42.2594 57.9416 42.93 58.7583 43.3636 59.4333 43.7219 59.4813 44.3309 58.8652 44.7239 58.8314 44.7457 58.7954 44.7665 58.7583 44.7864 57.9416 45.22 57.633 45.8906 57.9678 46.5039 58.2437 47.0107 57.7628 47.5522 56.8916 47.7132 56.8436 47.7222 56.7945 47.7298 56.7454 47.7361 55.666 47.874 54.822 48.3648 54.5854 48.9935 54.3902 49.5128 53.5081 49.8416 52.615 49.7277 52.566 49.7214 52.5169 49.7138 52.4689 49.7048 51.4156 49.5099 50.263 49.6896 49.5183 50.165 48.9033 50.558 47.8565 50.586 47.1816 50.2276 47.1445 50.2077 47.1085 50.1868 47.0747 50.165 46.3289 49.6896 45.1774 49.5099 44.1241 49.7048 43.2529 49.8659 42.3228 49.5857 42.0469 49.0788 42.0316 49.0507 42.0185 49.0222 42.0076 48.9935 41.7699 48.3648 40.9271 47.874 39.8476 47.7361Z" id="Star-2" fill="url(#linearGradient-11)"/><path d="M42.7153 47.0939C39.7821 45.4266 39.7821 42.7234 42.7153 41.0561 45.6496 39.3888 50.407 39.3888 53.3401 41.0561 56.2744 42.7234 56.2744 45.4266 53.3401 47.0939 50.407 48.7612 45.6496 48.7612 42.7153 47.0939ZM43.3794 46.7165C45.9473 48.1754 50.1093 48.1754 52.6761 46.7165 55.244 45.2577 55.244 42.8924 52.6761 41.4334 50.1093 39.9746 45.9473 39.9746 43.3794 41.4334 40.8126 42.8924 40.8126 45.2577 43.3794 46.7165Z" id="Oval-9" fill="#FCFCFC"/></g><g id="Group-3-Copy" fillRule="nonzero" transform="translate(186.839 109.27)"><path d="M7.32973 8.49535C11.3778 8.49535 14.6595 6.5936 14.6595 4.24767 14.6595 1.90175 11.3778 2.77898e-14 7.32973 2.77898e-14 3.28163 2.77898e-14 2.16896e-14 1.90175 2.16896e-14 4.24767 2.16896e-14 6.5936 3.28163 8.49535 7.32973 8.49535Z" id="Oval" fill="url(#linearGradient-12)" opacity="0.15"/><path d="M7.32973 6.41015C9.39061 6.41015 11.0613 5.44198 11.0613 4.24767 11.0613 3.05337 9.39061 2.08519 7.32973 2.08519 5.26885 2.08519 3.59818 3.05337 3.59818 4.24767 3.59818 5.44198 5.26885 6.41015 7.32973 6.41015Z" id="Oval" fill="url(#linearGradient-13)"/></g><line x1="0.578054" y1="93.8557" x2="113.927" y2="159.843" id="Path-3-Copy" stroke="#F47F22" stroke-linecap="round" stroke-dasharray="3 3"/><g id="Group-3" fillRule="nonzero" transform="translate(51.8937 123.239)"><path d="M7.32973 8.49535C11.3778 8.49535 14.6595 6.5936 14.6595 4.24767 14.6595 1.90175 11.3778 2.77898e-14 7.32973 2.77898e-14 3.28163 2.77898e-14 2.16896e-14 1.90175 2.16896e-14 4.24767 2.16896e-14 6.5936 3.28163 8.49535 7.32973 8.49535Z" id="Oval" fill="url(#linearGradient-12)" opacity="0.15"/><path d="M7.32973 6.41015C9.39061 6.41015 11.0613 5.44198 11.0613 4.24767 11.0613 3.05337 9.39061 2.08519 7.32973 2.08519 5.26885 2.08519 3.59818 3.05337 3.59818 4.24767 3.59818 5.44198 5.26885 6.41015 7.32973 6.41015Z" id="Oval" fill="url(#linearGradient-13)"/></g></g><g id="Group-5-Copy" fillRule="nonzero" transform="translate(56 36)"><path d="M102.902 29.1324 102.902 29.8088C102.902 29.9591 102.864 30.1113 102.783 30.2507 102.705 30.3851 102.593 30.4967 102.458 30.5743L45.9102 62.9406C45.0869 63.4144 44.0729 63.4144 43.2496 62.9406L0.443464 38.0682C0.15898 37.9045 3.07027e-14 37.6073 3.07027e-14 37.3019L3.07027e-14 36.707 102.902 29.1324Z" id="Combined-Shape" fill="url(#linearGradient-3)"/><path d="M59.7059 3.55445 102.455 28.4337C102.879 28.6778 103.024 29.2184 102.779 29.6412 102.701 29.7755 102.589 29.8871 102.455 29.9647L45.8524 62.3919C45.0291 62.8656 44.0151 62.8656 43.1918 62.3919L0.443901 37.5127C0.0198452 37.2685-0.125505 36.728 0.119398 36.3053 0.197144 36.1708 0.309127 36.0593 0.443901 35.9816L57.0464 3.55445C57.8686 3.08078 58.8826 3.08078 59.7059 3.55445Z" id="Polygon" fill="#E2E7EC"/><path d="M102.902 27.5328 102.902 28.2092C102.902 28.3594 102.864 28.5117 102.783 28.6511 102.705 28.7856 102.593 28.8971 102.458 28.9746L45.9102 61.3411C45.0869 61.8148 44.0729 61.8148 43.2496 61.3411L0.443464 36.4686C0.15898 36.305 3.07027e-14 36.0078 3.07027e-14 35.7023L3.07027e-14 35.1075 102.902 27.5328Z" id="Combined-Shape" fill="url(#linearGradient-4)"/><path d="M59.7059 1.95484 102.455 26.8342C102.879 27.0782 103.024 27.6189 102.779 28.0416 102.701 28.1759 102.589 28.2875 102.455 28.3651L45.8524 60.7923C45.0291 61.2661 44.0151 61.2661 43.1918 60.7923L0.443901 35.9131C0.0198452 35.669-0.125505 35.1284 0.119398 34.7057 0.197144 34.5713 0.309127 34.4597 0.443901 34.3821L57.0464 1.95484C57.8686 1.48117 58.8826 1.48117 59.7059 1.95484Z" id="Polygon" fill="#E2E7EC"/><path d="M102.902 25.9333 102.902 26.6097C102.902 26.7598 102.864 26.9122 102.783 27.0516 102.705 27.186 102.593 27.2975 102.458 27.3751L45.9102 59.7415C45.0869 60.2152 44.0729 60.2152 43.2496 59.7415L0.443464 34.869C0.15898 34.7053 3.07027e-14 34.4082 3.07027e-14 34.1027L3.07027e-14 33.5079 102.902 25.9333Z" id="Combined-Shape" fill="url(#linearGradient-5)"/><path d="M59.816 0.355333 102.565 25.2346C102.989 25.4786 103.134 26.0192 102.889 26.442 102.811 26.5763 102.699 26.688 102.565 26.7655L45.9625 59.1928C45.1393 59.6665 44.1252 59.6665 43.3019 59.1928L0.553922 34.3136C0.129757 34.0694-0.0155927 33.5288 0.22931 33.1061 0.307165 32.9717 0.419039 32.8602 0.553922 32.7825L57.1554 0.355333C57.9787-0.118444 58.9928-0.118444 59.816 0.355333Z" id="Polygon" fill="#FCFCFC"/><path d="M38.4333 62.4641 30.9739 57.9C30.5083 57.6147 30.2237 57.1074 30.2237 56.5607L30.2237 51.2563C30.2684 51.2451 30.2913 51.2222 30.3186 51.206L42.422 44.0281C42.5975 43.9232 42.8145 43.9232 42.9901 44.0281L52.1309 49.5353C52.2214 49.5893 52.253 49.7089 52.2007 49.8025 52.1843 49.8322 52.1603 49.8569 52.1309 49.8741L39.7538 57.1709C39.7135 57.1949 39.6709 57.2133 39.6284 57.2263L39.6284 61.7944C39.6284 62.228 39.2762 62.5795 38.8433 62.5795 38.6983 62.5795 38.5565 62.5396 38.4333 62.4641Z" id="Combined-Shape" fill="url(#linearGradient-6)"/><path d="M37.935 62.4822 30.215 57.9642C29.7341 57.6825 29.4386 57.1667 29.4386 56.609L29.4386 51.2934C29.4833 51.2822 29.5062 51.2592 29.5335 51.243L41.6358 44.0285C41.8125 43.9231 42.0295 43.9231 42.205 44.0285L51.3458 49.5636C51.4363 49.6179 51.4668 49.7382 51.4145 49.8323 51.3981 49.8622 51.3742 49.887 51.3458 49.9043L39.2424 57.1188C39.2021 57.1429 39.1606 57.1614 39.117 57.1745L39.117 61.8046C39.117 62.2382 38.7648 62.5897 38.3319 62.5897 38.1923 62.5897 38.055 62.5527 37.935 62.4822Z" id="Combined-Shape" fill="url(#linearGradient-7)"/><path d="M30.8038 58.076 30.2237 57.754 30.2237 51.4259C30.2706 51.4145 30.2935 51.391 30.3219 51.3745L42.8494 44.0299C43.0315 43.9226 43.2561 43.9226 43.4382 44.0299L43.484 44.1024C43.5778 44.1577 43.6105 44.2801 43.556 44.3759 43.5386 44.4063 43.5135 44.4316 43.484 44.4491L30.9576 51.7937C30.915 51.8182 30.8714 51.8371 30.8267 51.8504L30.8038 58.076Z" id="Combined-Shape" fill="#FCFCFC"/><path d="M37.0889 62 36.5099 61.678 36.5099 55.3499C36.5568 55.3385 36.5797 55.3151 36.608 55.2986L49.1356 47.954C49.3177 47.8467 49.5423 47.8467 49.7244 47.954L49.7702 48.0264C49.864 48.0817 49.8967 48.2041 49.8421 48.2999 49.8247 48.3303 49.7996 48.3556 49.7702 48.3731L37.2426 55.7177C37.2012 55.7423 37.1576 55.7612 37.1129 55.7745L37.0889 62Z" id="Combined-Shape" fill="#FCFCFC"/><path d="M49.43 11.7722 47.7966 12.7189 80.4527 31.6541 82.0855 30.7073 49.43 11.7722ZM43.7141 15.0858 42.0818 16.0326 74.738 34.9677 76.3707 34.0209 43.7141 15.0858ZM37.9993 18.3994 36.367 19.3462 69.0231 38.2814 70.656 37.3346 37.9993 18.3994ZM32.2846 21.7132 30.6523 22.6598 63.3083 41.595 64.9411 40.6482 32.2846 21.7132ZM26.5698 25.0268 24.9375 25.9736 43.3063 36.6245 44.9397 35.6778 26.5698 25.0268ZM20.855 28.3404 19.2227 29.2872 37.5915 39.9382 39.225 38.9915 20.855 28.3404Z" id="Shape" fill="#FFDBB4"/><path d="M16.8653 30.6076 9.79296 34.9241 16.8653 39.2405 23.9376 34.9241Z" id="Path" fill="url(#linearGradient-8)"/><path d="M61.0994 7.8481 89.9437 24.5971 84.9987 27.4684 56.1547 10.7194Z" id="Path" fill="url(#linearGradient-9)"/><path d="M39.8476 48.2698C39.0821 48.1721 38.5576 47.7804 38.5478 47.3431 38.5456 47.2948 38.5456 47.0992 38.5478 46.7565 38.5893 46.9626 38.6154 47.0564 38.6252 47.0376 38.96 46.4244 38.6514 45.7537 37.8347 45.3201 37.4694 45.1263 37.2884 44.8592 37.2948 44.5926 37.2971 44.5235 37.2971 44.3439 37.2948 44.0539 37.4814 44.0564 37.6253 44.025 37.7267 43.9598 37.7616 43.9379 37.7976 43.9171 37.8347 43.8973 38.6514 43.4636 38.96 42.793 38.6252 42.1798 38.5653 42.0706 38.5413 41.9599 38.5478 41.8517 38.55 41.823 38.55 41.6378 38.5478 41.2959 38.9109 41.1539 39.2947 41.0455 39.7004 40.9704 39.7483 40.9615 39.7974 40.9539 39.8476 40.9475 40.9271 40.8097 41.7699 40.3188 42.0066 39.6902 42.2028 39.1708 43.085 38.8421 43.9769 38.9559 44.0271 38.9622 44.075 38.9699 44.1241 38.9788 45.1774 39.1738 46.3289 38.9941 47.0736 38.5187 47.6897 38.1257 48.7365 38.0977 49.4114 38.4561 49.4485 38.4759 49.4845 38.4969 49.5183 38.5187 50.263 38.9941 51.4156 39.1738 52.4689 38.9788 53.339 38.8178 54.2692 39.098 54.5461 39.6048 54.5614 39.6329 54.5745 39.6614 54.5854 39.6902 54.822 40.3188 55.666 40.8097 56.7454 40.9475 57.1838 41.0035 57.6167 41.1302 58.0452 41.3276 58.043 41.6453 58.043 41.8232 58.0452 41.8616 58.0485 41.9382 58.0365 42.0162 58.007 42.0943 57.9961 42.1231 57.983 42.1517 57.9678 42.1798 57.6319 42.793 57.9416 43.4636 58.7583 43.8973 58.9579 44.0036 59.1378 44.0613 59.297 44.0702 59.297 44.4022 59.297 44.5824 59.297 44.6106 59.297 44.8418 59.1541 45.0734 58.8652 45.2575 58.8314 45.2794 58.7954 45.3002 58.7583 45.3201 58.139 45.6488 57.8119 46.1136 57.8358 46.5864 57.8402 46.6871 57.91 46.7596 58.0452 46.8041 58.0463 47.1687 58.0452 47.3677 58.0408 47.4012 57.9918 47.7814 57.5545 48.1243 56.8916 48.2469 56.8436 48.2558 56.7945 48.2634 56.7454 48.2698 55.666 48.4076 54.822 48.8986 54.5854 49.5271 54.3902 50.0466 53.5081 50.3753 52.615 50.2614 52.566 50.2551 52.5169 50.2474 52.4689 50.2385 51.4156 50.0436 50.263 50.2233 49.5183 50.6987 48.9022 51.0916 47.8565 51.1196 47.1816 50.7612 47.1445 50.7414 47.1085 50.7205 47.0736 50.6987 46.3289 50.2233 45.1774 50.0436 44.1241 50.2385 43.2529 50.3996 42.3228 50.1193 42.0469 49.6125 42.0305 49.5844 42.0175 49.5559 42.0066 49.5271 41.7699 48.8986 40.9271 48.4076 39.8476 48.2698Z" id="Star-2" fill="url(#linearGradient-10)"/><path d="M39.8476 47.7361C38.9545 47.6222 38.3908 47.1088 38.586 46.5894 38.5969 46.5606 38.61 46.532 38.6252 46.5039 38.96 45.8906 38.6514 45.22 37.8347 44.7864 37.1597 44.4281 37.1118 43.819 37.7278 43.4261 37.7616 43.4043 37.7976 43.3835 37.8347 43.3636 38.6514 42.93 38.96 42.2594 38.6252 41.646 38.3483 41.1392 38.8302 40.5978 39.7004 40.4368 39.7494 40.4279 39.7974 40.4202 39.8476 40.4139 40.9271 40.2761 41.7699 39.7852 42.0076 39.1566 42.2028 38.6371 43.085 38.3083 43.9769 38.4223 44.0271 38.4286 44.075 38.4362 44.1241 38.4452 45.1774 38.64 46.3289 38.4603 47.0747 37.9849 47.6897 37.5921 48.7365 37.564 49.4114 37.9224 49.4485 37.9423 49.4845 37.9631 49.5183 37.9849 50.263 38.4603 51.4156 38.64 52.4689 38.4452 53.339 38.2841 54.2692 38.5644 54.5461 39.0712 54.5614 39.0993 54.5745 39.1278 54.5854 39.1566 54.822 39.7852 55.666 40.2761 56.7454 40.4139 57.6374 40.5277 58.2022 41.0412 58.007 41.5607 57.9961 41.5895 57.983 41.618 57.9678 41.646 57.633 42.2594 57.9416 42.93 58.7583 43.3636 59.4333 43.7219 59.4813 44.3309 58.8652 44.7239 58.8314 44.7457 58.7954 44.7665 58.7583 44.7864 57.9416 45.22 57.633 45.8906 57.9678 46.5039 58.2437 47.0107 57.7628 47.5522 56.8916 47.7132 56.8436 47.7222 56.7945 47.7298 56.7454 47.7361 55.666 47.874 54.822 48.3648 54.5854 48.9935 54.3902 49.5128 53.5081 49.8416 52.615 49.7277 52.566 49.7214 52.5169 49.7138 52.4689 49.7048 51.4156 49.5099 50.263 49.6896 49.5183 50.165 48.9033 50.558 47.8565 50.586 47.1816 50.2276 47.1445 50.2077 47.1085 50.1868 47.0747 50.165 46.3289 49.6896 45.1774 49.5099 44.1241 49.7048 43.2529 49.8659 42.3228 49.5857 42.0469 49.0788 42.0316 49.0507 42.0185 49.0222 42.0076 48.9935 41.7699 48.3648 40.9271 47.874 39.8476 47.7361Z" id="Star-2" fill="url(#linearGradient-11)"/><path d="M42.7153 47.0939C39.7821 45.4266 39.7821 42.7234 42.7153 41.0561 45.6496 39.3888 50.407 39.3888 53.3401 41.0561 56.2744 42.7234 56.2744 45.4266 53.3401 47.0939 50.407 48.7612 45.6496 48.7612 42.7153 47.0939ZM43.3794 46.7165C45.9473 48.1754 50.1093 48.1754 52.6761 46.7165 55.244 45.2577 55.244 42.8924 52.6761 41.4334 50.1093 39.9746 45.9473 39.9746 43.3794 41.4334 40.8126 42.8924 40.8126 45.2577 43.3794 46.7165Z" id="Oval-9" fill="#FCFCFC"/></g><g id="Group-5-Copy-2" fillRule="nonzero" transform="translate(156 0)"><path d="M102.902 29.1324 102.902 29.8088C102.902 29.9591 102.864 30.1113 102.783 30.2507 102.705 30.3851 102.593 30.4967 102.458 30.5743L45.9102 62.9406C45.0869 63.4144 44.0729 63.4144 43.2496 62.9406L0.443464 38.0682C0.15898 37.9045 3.07027e-14 37.6073 3.07027e-14 37.3019L3.07027e-14 36.707 102.902 29.1324Z" id="Combined-Shape" fill="url(#linearGradient-3)"/><path d="M59.7059 3.55445 102.455 28.4337C102.879 28.6778 103.024 29.2184 102.779 29.6412 102.701 29.7755 102.589 29.8871 102.455 29.9647L45.8524 62.3919C45.0291 62.8656 44.0151 62.8656 43.1918 62.3919L0.443901 37.5127C0.0198452 37.2685-0.125505 36.728 0.119398 36.3053 0.197144 36.1708 0.309127 36.0593 0.443901 35.9816L57.0464 3.55445C57.8686 3.08078 58.8826 3.08078 59.7059 3.55445Z" id="Polygon" fill="#E2E7EC"/><path d="M102.902 27.5328 102.902 28.2092C102.902 28.3594 102.864 28.5117 102.783 28.6511 102.705 28.7856 102.593 28.8971 102.458 28.9746L45.9102 61.3411C45.0869 61.8148 44.0729 61.8148 43.2496 61.3411L0.443464 36.4686C0.15898 36.305 3.07027e-14 36.0078 3.07027e-14 35.7023L3.07027e-14 35.1075 102.902 27.5328Z" id="Combined-Shape" fill="url(#linearGradient-4)"/><path d="M59.7059 1.95484 102.455 26.8342C102.879 27.0782 103.024 27.6189 102.779 28.0416 102.701 28.1759 102.589 28.2875 102.455 28.3651L45.8524 60.7923C45.0291 61.2661 44.0151 61.2661 43.1918 60.7923L0.443901 35.9131C0.0198452 35.669-0.125505 35.1284 0.119398 34.7057 0.197144 34.5713 0.309127 34.4597 0.443901 34.3821L57.0464 1.95484C57.8686 1.48117 58.8826 1.48117 59.7059 1.95484Z" id="Polygon" fill="#E2E7EC"/><path d="M102.902 25.9333 102.902 26.6097C102.902 26.7598 102.864 26.9122 102.783 27.0516 102.705 27.186 102.593 27.2975 102.458 27.3751L45.9102 59.7415C45.0869 60.2152 44.0729 60.2152 43.2496 59.7415L0.443464 34.869C0.15898 34.7053 3.07027e-14 34.4082 3.07027e-14 34.1027L3.07027e-14 33.5079 102.902 25.9333Z" id="Combined-Shape" fill="url(#linearGradient-5)"/><path d="M59.816 0.355333 102.565 25.2346C102.989 25.4786 103.134 26.0192 102.889 26.442 102.811 26.5763 102.699 26.688 102.565 26.7655L45.9625 59.1928C45.1393 59.6665 44.1252 59.6665 43.3019 59.1928L0.553922 34.3136C0.129757 34.0694-0.0155927 33.5288 0.22931 33.1061 0.307165 32.9717 0.419039 32.8602 0.553922 32.7825L57.1554 0.355333C57.9787-0.118444 58.9928-0.118444 59.816 0.355333Z" id="Polygon" fill="#FCFCFC"/><path d="M38.4333 62.4641 30.9739 57.9C30.5083 57.6147 30.2237 57.1074 30.2237 56.5607L30.2237 51.2563C30.2684 51.2451 30.2913 51.2222 30.3186 51.206L42.422 44.0281C42.5975 43.9232 42.8145 43.9232 42.9901 44.0281L52.1309 49.5353C52.2214 49.5893 52.253 49.7089 52.2007 49.8025 52.1843 49.8322 52.1603 49.8569 52.1309 49.8741L39.7538 57.1709C39.7135 57.1949 39.6709 57.2133 39.6284 57.2263L39.6284 61.7944C39.6284 62.228 39.2762 62.5795 38.8433 62.5795 38.6983 62.5795 38.5565 62.5396 38.4333 62.4641Z" id="Combined-Shape" fill="url(#linearGradient-6)"/><path d="M37.935 62.4822 30.215 57.9642C29.7341 57.6825 29.4386 57.1667 29.4386 56.609L29.4386 51.2934C29.4833 51.2822 29.5062 51.2592 29.5335 51.243L41.6358 44.0285C41.8125 43.9231 42.0295 43.9231 42.205 44.0285L51.3458 49.5636C51.4363 49.6179 51.4668 49.7382 51.4145 49.8323 51.3981 49.8622 51.3742 49.887 51.3458 49.9043L39.2424 57.1188C39.2021 57.1429 39.1606 57.1614 39.117 57.1745L39.117 61.8046C39.117 62.2382 38.7648 62.5897 38.3319 62.5897 38.1923 62.5897 38.055 62.5527 37.935 62.4822Z" id="Combined-Shape" fill="url(#linearGradient-7)"/><path d="M30.8038 58.076 30.2237 57.754 30.2237 51.4259C30.2706 51.4145 30.2935 51.391 30.3219 51.3745L42.8494 44.0299C43.0315 43.9226 43.2561 43.9226 43.4382 44.0299L43.484 44.1024C43.5778 44.1577 43.6105 44.2801 43.556 44.3759 43.5386 44.4063 43.5135 44.4316 43.484 44.4491L30.9576 51.7937C30.915 51.8182 30.8714 51.8371 30.8267 51.8504L30.8038 58.076Z" id="Combined-Shape" fill="#FCFCFC"/><path d="M37.0889 62 36.5099 61.678 36.5099 55.3499C36.5568 55.3385 36.5797 55.3151 36.608 55.2986L49.1356 47.954C49.3177 47.8467 49.5423 47.8467 49.7244 47.954L49.7702 48.0264C49.864 48.0817 49.8967 48.2041 49.8421 48.2999 49.8247 48.3303 49.7996 48.3556 49.7702 48.3731L37.2426 55.7177C37.2012 55.7423 37.1576 55.7612 37.1129 55.7745L37.0889 62Z" id="Combined-Shape" fill="#FCFCFC"/><path d="M49.43 11.7722 47.7966 12.7189 80.4527 31.6541 82.0855 30.7073 49.43 11.7722ZM43.7141 15.0858 42.0818 16.0326 74.738 34.9677 76.3707 34.0209 43.7141 15.0858ZM37.9993 18.3994 36.367 19.3462 69.0231 38.2814 70.656 37.3346 37.9993 18.3994ZM32.2846 21.7132 30.6523 22.6598 63.3083 41.595 64.9411 40.6482 32.2846 21.7132ZM26.5698 25.0268 24.9375 25.9736 43.3063 36.6245 44.9397 35.6778 26.5698 25.0268ZM20.855 28.3404 19.2227 29.2872 37.5915 39.9382 39.225 38.9915 20.855 28.3404Z" id="Shape" fill="#FFDBB4"/><path d="M16.8653 30.6076 9.79296 34.9241 16.8653 39.2405 23.9376 34.9241Z" id="Path" fill="url(#linearGradient-8)"/><path d="M61.0994 7.8481 89.9437 24.5971 84.9987 27.4684 56.1547 10.7194Z" id="Path" fill="url(#linearGradient-9)"/><path d="M39.8476 48.2698C39.0821 48.1721 38.5576 47.7804 38.5478 47.3431 38.5456 47.2948 38.5456 47.0992 38.5478 46.7565 38.5893 46.9626 38.6154 47.0564 38.6252 47.0376 38.96 46.4244 38.6514 45.7537 37.8347 45.3201 37.4694 45.1263 37.2884 44.8592 37.2948 44.5926 37.2971 44.5235 37.2971 44.3439 37.2948 44.0539 37.4814 44.0564 37.6253 44.025 37.7267 43.9598 37.7616 43.9379 37.7976 43.9171 37.8347 43.8973 38.6514 43.4636 38.96 42.793 38.6252 42.1798 38.5653 42.0706 38.5413 41.9599 38.5478 41.8517 38.55 41.823 38.55 41.6378 38.5478 41.2959 38.9109 41.1539 39.2947 41.0455 39.7004 40.9704 39.7483 40.9615 39.7974 40.9539 39.8476 40.9475 40.9271 40.8097 41.7699 40.3188 42.0066 39.6902 42.2028 39.1708 43.085 38.8421 43.9769 38.9559 44.0271 38.9622 44.075 38.9699 44.1241 38.9788 45.1774 39.1738 46.3289 38.9941 47.0736 38.5187 47.6897 38.1257 48.7365 38.0977 49.4114 38.4561 49.4485 38.4759 49.4845 38.4969 49.5183 38.5187 50.263 38.9941 51.4156 39.1738 52.4689 38.9788 53.339 38.8178 54.2692 39.098 54.5461 39.6048 54.5614 39.6329 54.5745 39.6614 54.5854 39.6902 54.822 40.3188 55.666 40.8097 56.7454 40.9475 57.1838 41.0035 57.6167 41.1302 58.0452 41.3276 58.043 41.6453 58.043 41.8232 58.0452 41.8616 58.0485 41.9382 58.0365 42.0162 58.007 42.0943 57.9961 42.1231 57.983 42.1517 57.9678 42.1798 57.6319 42.793 57.9416 43.4636 58.7583 43.8973 58.9579 44.0036 59.1378 44.0613 59.297 44.0702 59.297 44.4022 59.297 44.5824 59.297 44.6106 59.297 44.8418 59.1541 45.0734 58.8652 45.2575 58.8314 45.2794 58.7954 45.3002 58.7583 45.3201 58.139 45.6488 57.8119 46.1136 57.8358 46.5864 57.8402 46.6871 57.91 46.7596 58.0452 46.8041 58.0463 47.1687 58.0452 47.3677 58.0408 47.4012 57.9918 47.7814 57.5545 48.1243 56.8916 48.2469 56.8436 48.2558 56.7945 48.2634 56.7454 48.2698 55.666 48.4076 54.822 48.8986 54.5854 49.5271 54.3902 50.0466 53.5081 50.3753 52.615 50.2614 52.566 50.2551 52.5169 50.2474 52.4689 50.2385 51.4156 50.0436 50.263 50.2233 49.5183 50.6987 48.9022 51.0916 47.8565 51.1196 47.1816 50.7612 47.1445 50.7414 47.1085 50.7205 47.0736 50.6987 46.3289 50.2233 45.1774 50.0436 44.1241 50.2385 43.2529 50.3996 42.3228 50.1193 42.0469 49.6125 42.0305 49.5844 42.0175 49.5559 42.0066 49.5271 41.7699 48.8986 40.9271 48.4076 39.8476 48.2698Z" id="Star-2" fill="url(#linearGradient-10)"/><path d="M39.8476 47.7361C38.9545 47.6222 38.3908 47.1088 38.586 46.5894 38.5969 46.5606 38.61 46.532 38.6252 46.5039 38.96 45.8906 38.6514 45.22 37.8347 44.7864 37.1597 44.4281 37.1118 43.819 37.7278 43.4261 37.7616 43.4043 37.7976 43.3835 37.8347 43.3636 38.6514 42.93 38.96 42.2594 38.6252 41.646 38.3483 41.1392 38.8302 40.5978 39.7004 40.4368 39.7494 40.4279 39.7974 40.4202 39.8476 40.4139 40.9271 40.2761 41.7699 39.7852 42.0076 39.1566 42.2028 38.6371 43.085 38.3083 43.9769 38.4223 44.0271 38.4286 44.075 38.4362 44.1241 38.4452 45.1774 38.64 46.3289 38.4603 47.0747 37.9849 47.6897 37.5921 48.7365 37.564 49.4114 37.9224 49.4485 37.9423 49.4845 37.9631 49.5183 37.9849 50.263 38.4603 51.4156 38.64 52.4689 38.4452 53.339 38.2841 54.2692 38.5644 54.5461 39.0712 54.5614 39.0993 54.5745 39.1278 54.5854 39.1566 54.822 39.7852 55.666 40.2761 56.7454 40.4139 57.6374 40.5277 58.2022 41.0412 58.007 41.5607 57.9961 41.5895 57.983 41.618 57.9678 41.646 57.633 42.2594 57.9416 42.93 58.7583 43.3636 59.4333 43.7219 59.4813 44.3309 58.8652 44.7239 58.8314 44.7457 58.7954 44.7665 58.7583 44.7864 57.9416 45.22 57.633 45.8906 57.9678 46.5039 58.2437 47.0107 57.7628 47.5522 56.8916 47.7132 56.8436 47.7222 56.7945 47.7298 56.7454 47.7361 55.666 47.874 54.822 48.3648 54.5854 48.9935 54.3902 49.5128 53.5081 49.8416 52.615 49.7277 52.566 49.7214 52.5169 49.7138 52.4689 49.7048 51.4156 49.5099 50.263 49.6896 49.5183 50.165 48.9033 50.558 47.8565 50.586 47.1816 50.2276 47.1445 50.2077 47.1085 50.1868 47.0747 50.165 46.3289 49.6896 45.1774 49.5099 44.1241 49.7048 43.2529 49.8659 42.3228 49.5857 42.0469 49.0788 42.0316 49.0507 42.0185 49.0222 42.0076 48.9935 41.7699 48.3648 40.9271 47.874 39.8476 47.7361Z" id="Star-2" fill="url(#linearGradient-11)"/><path d="M42.7153 47.0939C39.7821 45.4266 39.7821 42.7234 42.7153 41.0561 45.6496 39.3888 50.407 39.3888 53.3401 41.0561 56.2744 42.7234 56.2744 45.4266 53.3401 47.0939 50.407 48.7612 45.6496 48.7612 42.7153 47.0939ZM43.3794 46.7165C45.9473 48.1754 50.1093 48.1754 52.6761 46.7165 55.244 45.2577 55.244 42.8924 52.6761 41.4334 50.1093 39.9746 45.9473 39.9746 43.3794 41.4334 40.8126 42.8924 40.8126 45.2577 43.3794 46.7165Z" id="Oval-9" fill="#FCFCFC"/></g><g id="Group-5-Copy-3" fillRule="nonzero" transform="translate(296 88)"><path d="M102.902 29.1324 102.902 29.8088C102.902 29.9591 102.864 30.1113 102.783 30.2507 102.705 30.3851 102.593 30.4967 102.458 30.5743L45.9102 62.9406C45.0869 63.4144 44.0729 63.4144 43.2496 62.9406L0.443464 38.0682C0.15898 37.9045 3.07027e-14 37.6073 3.07027e-14 37.3019L3.07027e-14 36.707 102.902 29.1324Z" id="Combined-Shape" fill="url(#linearGradient-3)"/><path d="M59.7059 3.55445 102.455 28.4337C102.879 28.6778 103.024 29.2184 102.779 29.6412 102.701 29.7755 102.589 29.8871 102.455 29.9647L45.8524 62.3919C45.0291 62.8656 44.0151 62.8656 43.1918 62.3919L0.443901 37.5127C0.0198452 37.2685-0.125505 36.728 0.119398 36.3053 0.197144 36.1708 0.309127 36.0593 0.443901 35.9816L57.0464 3.55445C57.8686 3.08078 58.8826 3.08078 59.7059 3.55445Z" id="Polygon" fill="#E2E7EC"/><path d="M102.902 27.5328 102.902 28.2092C102.902 28.3594 102.864 28.5117 102.783 28.6511 102.705 28.7856 102.593 28.8971 102.458 28.9746L45.9102 61.3411C45.0869 61.8148 44.0729 61.8148 43.2496 61.3411L0.443464 36.4686C0.15898 36.305 3.07027e-14 36.0078 3.07027e-14 35.7023L3.07027e-14 35.1075 102.902 27.5328Z" id="Combined-Shape" fill="url(#linearGradient-4)"/><path d="M59.7059 1.95484 102.455 26.8342C102.879 27.0782 103.024 27.6189 102.779 28.0416 102.701 28.1759 102.589 28.2875 102.455 28.3651L45.8524 60.7923C45.0291 61.2661 44.0151 61.2661 43.1918 60.7923L0.443901 35.9131C0.0198452 35.669-0.125505 35.1284 0.119398 34.7057 0.197144 34.5713 0.309127 34.4597 0.443901 34.3821L57.0464 1.95484C57.8686 1.48117 58.8826 1.48117 59.7059 1.95484Z" id="Polygon" fill="#E2E7EC"/><path d="M102.902 25.9333 102.902 26.6097C102.902 26.7598 102.864 26.9122 102.783 27.0516 102.705 27.186 102.593 27.2975 102.458 27.3751L45.9102 59.7415C45.0869 60.2152 44.0729 60.2152 43.2496 59.7415L0.443464 34.869C0.15898 34.7053 3.07027e-14 34.4082 3.07027e-14 34.1027L3.07027e-14 33.5079 102.902 25.9333Z" id="Combined-Shape" fill="url(#linearGradient-5)"/><path d="M59.816 0.355333 102.565 25.2346C102.989 25.4786 103.134 26.0192 102.889 26.442 102.811 26.5763 102.699 26.688 102.565 26.7655L45.9625 59.1928C45.1393 59.6665 44.1252 59.6665 43.3019 59.1928L0.553922 34.3136C0.129757 34.0694-0.0155927 33.5288 0.22931 33.1061 0.307165 32.9717 0.419039 32.8602 0.553922 32.7825L57.1554 0.355333C57.9787-0.118444 58.9928-0.118444 59.816 0.355333Z" id="Polygon" fill="#FCFCFC"/><path d="M38.4333 62.4641 30.9739 57.9C30.5083 57.6147 30.2237 57.1074 30.2237 56.5607L30.2237 51.2563C30.2684 51.2451 30.2913 51.2222 30.3186 51.206L42.422 44.0281C42.5975 43.9232 42.8145 43.9232 42.9901 44.0281L52.1309 49.5353C52.2214 49.5893 52.253 49.7089 52.2007 49.8025 52.1843 49.8322 52.1603 49.8569 52.1309 49.8741L39.7538 57.1709C39.7135 57.1949 39.6709 57.2133 39.6284 57.2263L39.6284 61.7944C39.6284 62.228 39.2762 62.5795 38.8433 62.5795 38.6983 62.5795 38.5565 62.5396 38.4333 62.4641Z" id="Combined-Shape" fill="url(#linearGradient-6)"/><path d="M37.935 62.4822 30.215 57.9642C29.7341 57.6825 29.4386 57.1667 29.4386 56.609L29.4386 51.2934C29.4833 51.2822 29.5062 51.2592 29.5335 51.243L41.6358 44.0285C41.8125 43.9231 42.0295 43.9231 42.205 44.0285L51.3458 49.5636C51.4363 49.6179 51.4668 49.7382 51.4145 49.8323 51.3981 49.8622 51.3742 49.887 51.3458 49.9043L39.2424 57.1188C39.2021 57.1429 39.1606 57.1614 39.117 57.1745L39.117 61.8046C39.117 62.2382 38.7648 62.5897 38.3319 62.5897 38.1923 62.5897 38.055 62.5527 37.935 62.4822Z" id="Combined-Shape" fill="url(#linearGradient-7)"/><path d="M30.8038 58.076 30.2237 57.754 30.2237 51.4259C30.2706 51.4145 30.2935 51.391 30.3219 51.3745L42.8494 44.0299C43.0315 43.9226 43.2561 43.9226 43.4382 44.0299L43.484 44.1024C43.5778 44.1577 43.6105 44.2801 43.556 44.3759 43.5386 44.4063 43.5135 44.4316 43.484 44.4491L30.9576 51.7937C30.915 51.8182 30.8714 51.8371 30.8267 51.8504L30.8038 58.076Z" id="Combined-Shape" fill="#FCFCFC"/><path d="M37.0889 62 36.5099 61.678 36.5099 55.3499C36.5568 55.3385 36.5797 55.3151 36.608 55.2986L49.1356 47.954C49.3177 47.8467 49.5423 47.8467 49.7244 47.954L49.7702 48.0264C49.864 48.0817 49.8967 48.2041 49.8421 48.2999 49.8247 48.3303 49.7996 48.3556 49.7702 48.3731L37.2426 55.7177C37.2012 55.7423 37.1576 55.7612 37.1129 55.7745L37.0889 62Z" id="Combined-Shape" fill="#FCFCFC"/><path d="M49.43 11.7722 47.7966 12.7189 80.4527 31.6541 82.0855 30.7073 49.43 11.7722ZM43.7141 15.0858 42.0818 16.0326 74.738 34.9677 76.3707 34.0209 43.7141 15.0858ZM37.9993 18.3994 36.367 19.3462 69.0231 38.2814 70.656 37.3346 37.9993 18.3994ZM32.2846 21.7132 30.6523 22.6598 63.3083 41.595 64.9411 40.6482 32.2846 21.7132ZM26.5698 25.0268 24.9375 25.9736 43.3063 36.6245 44.9397 35.6778 26.5698 25.0268ZM20.855 28.3404 19.2227 29.2872 37.5915 39.9382 39.225 38.9915 20.855 28.3404Z" id="Shape" fill="#FFDBB4"/><path d="M16.8653 30.6076 9.79296 34.9241 16.8653 39.2405 23.9376 34.9241Z" id="Path" fill="url(#linearGradient-8)"/><path d="M61.0994 7.8481 89.9437 24.5971 84.9987 27.4684 56.1547 10.7194Z" id="Path" fill="url(#linearGradient-9)"/><path d="M39.8476 48.2698C39.0821 48.1721 38.5576 47.7804 38.5478 47.3431 38.5456 47.2948 38.5456 47.0992 38.5478 46.7565 38.5893 46.9626 38.6154 47.0564 38.6252 47.0376 38.96 46.4244 38.6514 45.7537 37.8347 45.3201 37.4694 45.1263 37.2884 44.8592 37.2948 44.5926 37.2971 44.5235 37.2971 44.3439 37.2948 44.0539 37.4814 44.0564 37.6253 44.025 37.7267 43.9598 37.7616 43.9379 37.7976 43.9171 37.8347 43.8973 38.6514 43.4636 38.96 42.793 38.6252 42.1798 38.5653 42.0706 38.5413 41.9599 38.5478 41.8517 38.55 41.823 38.55 41.6378 38.5478 41.2959 38.9109 41.1539 39.2947 41.0455 39.7004 40.9704 39.7483 40.9615 39.7974 40.9539 39.8476 40.9475 40.9271 40.8097 41.7699 40.3188 42.0066 39.6902 42.2028 39.1708 43.085 38.8421 43.9769 38.9559 44.0271 38.9622 44.075 38.9699 44.1241 38.9788 45.1774 39.1738 46.3289 38.9941 47.0736 38.5187 47.6897 38.1257 48.7365 38.0977 49.4114 38.4561 49.4485 38.4759 49.4845 38.4969 49.5183 38.5187 50.263 38.9941 51.4156 39.1738 52.4689 38.9788 53.339 38.8178 54.2692 39.098 54.5461 39.6048 54.5614 39.6329 54.5745 39.6614 54.5854 39.6902 54.822 40.3188 55.666 40.8097 56.7454 40.9475 57.1838 41.0035 57.6167 41.1302 58.0452 41.3276 58.043 41.6453 58.043 41.8232 58.0452 41.8616 58.0485 41.9382 58.0365 42.0162 58.007 42.0943 57.9961 42.1231 57.983 42.1517 57.9678 42.1798 57.6319 42.793 57.9416 43.4636 58.7583 43.8973 58.9579 44.0036 59.1378 44.0613 59.297 44.0702 59.297 44.4022 59.297 44.5824 59.297 44.6106 59.297 44.8418 59.1541 45.0734 58.8652 45.2575 58.8314 45.2794 58.7954 45.3002 58.7583 45.3201 58.139 45.6488 57.8119 46.1136 57.8358 46.5864 57.8402 46.6871 57.91 46.7596 58.0452 46.8041 58.0463 47.1687 58.0452 47.3677 58.0408 47.4012 57.9918 47.7814 57.5545 48.1243 56.8916 48.2469 56.8436 48.2558 56.7945 48.2634 56.7454 48.2698 55.666 48.4076 54.822 48.8986 54.5854 49.5271 54.3902 50.0466 53.5081 50.3753 52.615 50.2614 52.566 50.2551 52.5169 50.2474 52.4689 50.2385 51.4156 50.0436 50.263 50.2233 49.5183 50.6987 48.9022 51.0916 47.8565 51.1196 47.1816 50.7612 47.1445 50.7414 47.1085 50.7205 47.0736 50.6987 46.3289 50.2233 45.1774 50.0436 44.1241 50.2385 43.2529 50.3996 42.3228 50.1193 42.0469 49.6125 42.0305 49.5844 42.0175 49.5559 42.0066 49.5271 41.7699 48.8986 40.9271 48.4076 39.8476 48.2698Z" id="Star-2" fill="url(#linearGradient-10)"/><path d="M39.8476 47.7361C38.9545 47.6222 38.3908 47.1088 38.586 46.5894 38.5969 46.5606 38.61 46.532 38.6252 46.5039 38.96 45.8906 38.6514 45.22 37.8347 44.7864 37.1597 44.4281 37.1118 43.819 37.7278 43.4261 37.7616 43.4043 37.7976 43.3835 37.8347 43.3636 38.6514 42.93 38.96 42.2594 38.6252 41.646 38.3483 41.1392 38.8302 40.5978 39.7004 40.4368 39.7494 40.4279 39.7974 40.4202 39.8476 40.4139 40.9271 40.2761 41.7699 39.7852 42.0076 39.1566 42.2028 38.6371 43.085 38.3083 43.9769 38.4223 44.0271 38.4286 44.075 38.4362 44.1241 38.4452 45.1774 38.64 46.3289 38.4603 47.0747 37.9849 47.6897 37.5921 48.7365 37.564 49.4114 37.9224 49.4485 37.9423 49.4845 37.9631 49.5183 37.9849 50.263 38.4603 51.4156 38.64 52.4689 38.4452 53.339 38.2841 54.2692 38.5644 54.5461 39.0712 54.5614 39.0993 54.5745 39.1278 54.5854 39.1566 54.822 39.7852 55.666 40.2761 56.7454 40.4139 57.6374 40.5277 58.2022 41.0412 58.007 41.5607 57.9961 41.5895 57.983 41.618 57.9678 41.646 57.633 42.2594 57.9416 42.93 58.7583 43.3636 59.4333 43.7219 59.4813 44.3309 58.8652 44.7239 58.8314 44.7457 58.7954 44.7665 58.7583 44.7864 57.9416 45.22 57.633 45.8906 57.9678 46.5039 58.2437 47.0107 57.7628 47.5522 56.8916 47.7132 56.8436 47.7222 56.7945 47.7298 56.7454 47.7361 55.666 47.874 54.822 48.3648 54.5854 48.9935 54.3902 49.5128 53.5081 49.8416 52.615 49.7277 52.566 49.7214 52.5169 49.7138 52.4689 49.7048 51.4156 49.5099 50.263 49.6896 49.5183 50.165 48.9033 50.558 47.8565 50.586 47.1816 50.2276 47.1445 50.2077 47.1085 50.1868 47.0747 50.165 46.3289 49.6896 45.1774 49.5099 44.1241 49.7048 43.2529 49.8659 42.3228 49.5857 42.0469 49.0788 42.0316 49.0507 42.0185 49.0222 42.0076 48.9935 41.7699 48.3648 40.9271 47.874 39.8476 47.7361Z" id="Star-2" fill="url(#linearGradient-11)"/><path d="M42.7153 47.0939C39.7821 45.4266 39.7821 42.7234 42.7153 41.0561 45.6496 39.3888 50.407 39.3888 53.3401 41.0561 56.2744 42.7234 56.2744 45.4266 53.3401 47.0939 50.407 48.7612 45.6496 48.7612 42.7153 47.0939ZM43.3794 46.7165C45.9473 48.1754 50.1093 48.1754 52.6761 46.7165 55.244 45.2577 55.244 42.8924 52.6761 41.4334 50.1093 39.9746 45.9473 39.9746 43.3794 41.4334 40.8126 42.8924 40.8126 45.2577 43.3794 46.7165Z" id="Oval-9" fill="#FCFCFC"/></g><g id="Group-5-Copy-5" fillRule="nonzero" transform="matrix(1 0 0 1 0 97.5)"><path d="M102.902 29.1324 102.902 29.8088C102.902 29.9591 102.864 30.1113 102.783 30.2507 102.705 30.3851 102.593 30.4967 102.458 30.5743L45.9102 62.9406C45.0869 63.4144 44.0729 63.4144 43.2496 62.9406L0.443464 38.0682C0.15898 37.9045 3.07027e-14 37.6073 3.07027e-14 37.3019L3.07027e-14 36.707 102.902 29.1324Z" id="Combined-Shape" fill="url(#linearGradient-3)"/><path d="M59.7059 3.55445 102.455 28.4337C102.879 28.6778 103.024 29.2184 102.779 29.6412 102.701 29.7755 102.589 29.8871 102.455 29.9647L45.8524 62.3919C45.0291 62.8656 44.0151 62.8656 43.1918 62.3919L0.443901 37.5127C0.0198452 37.2685-0.125505 36.728 0.119398 36.3053 0.197144 36.1708 0.309127 36.0593 0.443901 35.9816L57.0464 3.55445C57.8686 3.08078 58.8826 3.08078 59.7059 3.55445Z" id="Polygon" fill="#E2E7EC"/><path d="M102.902 27.5328 102.902 28.2092C102.902 28.3594 102.864 28.5117 102.783 28.6511 102.705 28.7856 102.593 28.8971 102.458 28.9746L45.9102 61.3411C45.0869 61.8148 44.0729 61.8148 43.2496 61.3411L0.443464 36.4686C0.15898 36.305 3.07027e-14 36.0078 3.07027e-14 35.7023L3.07027e-14 35.1075 102.902 27.5328Z" id="Combined-Shape" fill="url(#linearGradient-4)"/><path d="M59.7059 1.95484 102.455 26.8342C102.879 27.0782 103.024 27.6189 102.779 28.0416 102.701 28.1759 102.589 28.2875 102.455 28.3651L45.8524 60.7923C45.0291 61.2661 44.0151 61.2661 43.1918 60.7923L0.443901 35.9131C0.0198452 35.669-0.125505 35.1284 0.119398 34.7057 0.197144 34.5713 0.309127 34.4597 0.443901 34.3821L57.0464 1.95484C57.8686 1.48117 58.8826 1.48117 59.7059 1.95484Z" id="Polygon" fill="#E2E7EC"/><path d="M102.902 25.9333 102.902 26.6097C102.902 26.7598 102.864 26.9122 102.783 27.0516 102.705 27.186 102.593 27.2975 102.458 27.3751L45.9102 59.7415C45.0869 60.2152 44.0729 60.2152 43.2496 59.7415L0.443464 34.869C0.15898 34.7053 3.07027e-14 34.4082 3.07027e-14 34.1027L3.07027e-14 33.5079 102.902 25.9333Z" id="Combined-Shape" fill="url(#linearGradient-5)"/><path d="M59.816 0.355333 102.565 25.2346C102.989 25.4786 103.134 26.0192 102.889 26.442 102.811 26.5763 102.699 26.688 102.565 26.7655L45.9625 59.1928C45.1393 59.6665 44.1252 59.6665 43.3019 59.1928L0.553922 34.3136C0.129757 34.0694-0.0155927 33.5288 0.22931 33.1061 0.307165 32.9717 0.419039 32.8602 0.553922 32.7825L57.1554 0.355333C57.9787-0.118444 58.9928-0.118444 59.816 0.355333Z" id="Polygon" fill="#FCFCFC"/><path d="M38.4333 62.4641 30.9739 57.9C30.5083 57.6147 30.2237 57.1074 30.2237 56.5607L30.2237 51.2563C30.2684 51.2451 30.2913 51.2222 30.3186 51.206L42.422 44.0281C42.5975 43.9232 42.8145 43.9232 42.9901 44.0281L52.1309 49.5353C52.2214 49.5893 52.253 49.7089 52.2007 49.8025 52.1843 49.8322 52.1603 49.8569 52.1309 49.8741L39.7538 57.1709C39.7135 57.1949 39.6709 57.2133 39.6284 57.2263L39.6284 61.7944C39.6284 62.228 39.2762 62.5795 38.8433 62.5795 38.6983 62.5795 38.5565 62.5396 38.4333 62.4641Z" id="Combined-Shape" fill="url(#linearGradient-6)"/><path d="M37.935 62.4822 30.215 57.9642C29.7341 57.6825 29.4386 57.1667 29.4386 56.609L29.4386 51.2934C29.4833 51.2822 29.5062 51.2592 29.5335 51.243L41.6358 44.0285C41.8125 43.9231 42.0295 43.9231 42.205 44.0285L51.3458 49.5636C51.4363 49.6179 51.4668 49.7382 51.4145 49.8323 51.3981 49.8622 51.3742 49.887 51.3458 49.9043L39.2424 57.1188C39.2021 57.1429 39.1606 57.1614 39.117 57.1745L39.117 61.8046C39.117 62.2382 38.7648 62.5897 38.3319 62.5897 38.1923 62.5897 38.055 62.5527 37.935 62.4822Z" id="Combined-Shape" fill="url(#linearGradient-7)"/><path d="M30.8038 58.076 30.2237 57.754 30.2237 51.4259C30.2706 51.4145 30.2935 51.391 30.3219 51.3745L42.8494 44.0299C43.0315 43.9226 43.2561 43.9226 43.4382 44.0299L43.484 44.1024C43.5778 44.1577 43.6105 44.2801 43.556 44.3759 43.5386 44.4063 43.5135 44.4316 43.484 44.4491L30.9576 51.7937C30.915 51.8182 30.8714 51.8371 30.8267 51.8504L30.8038 58.076Z" id="Combined-Shape" fill="#FCFCFC"/><path d="M37.0889 62 36.5099 61.678 36.5099 55.3499C36.5568 55.3385 36.5797 55.3151 36.608 55.2986L49.1356 47.954C49.3177 47.8467 49.5423 47.8467 49.7244 47.954L49.7702 48.0264C49.864 48.0817 49.8967 48.2041 49.8421 48.2999 49.8247 48.3303 49.7996 48.3556 49.7702 48.3731L37.2426 55.7177C37.2012 55.7423 37.1576 55.7612 37.1129 55.7745L37.0889 62Z" id="Combined-Shape" fill="#FCFCFC"/><path d="M49.43 11.7722 47.7966 12.7189 80.4527 31.6541 82.0855 30.7073 49.43 11.7722ZM43.7141 15.0858 42.0818 16.0326 74.738 34.9677 76.3707 34.0209 43.7141 15.0858ZM37.9993 18.3994 36.367 19.3462 69.0231 38.2814 70.656 37.3346 37.9993 18.3994ZM32.2846 21.7132 30.6523 22.6598 63.3083 41.595 64.9411 40.6482 32.2846 21.7132ZM26.5698 25.0268 24.9375 25.9736 43.3063 36.6245 44.9397 35.6778 26.5698 25.0268ZM20.855 28.3404 19.2227 29.2872 37.5915 39.9382 39.225 38.9915 20.855 28.3404Z" id="Shape" fill="#FFDBB4"/><path d="M16.8653 30.6076 9.79296 34.9241 16.8653 39.2405 23.9376 34.9241Z" id="Path" fill="url(#linearGradient-8)"/><path d="M61.0994 7.8481 89.9437 24.5971 84.9987 27.4684 56.1547 10.7194Z" id="Path" fill="url(#linearGradient-9)"/><path d="M39.8476 48.2698C39.0821 48.1721 38.5576 47.7804 38.5478 47.3431 38.5456 47.2948 38.5456 47.0992 38.5478 46.7565 38.5893 46.9626 38.6154 47.0564 38.6252 47.0376 38.96 46.4244 38.6514 45.7537 37.8347 45.3201 37.4694 45.1263 37.2884 44.8592 37.2948 44.5926 37.2971 44.5235 37.2971 44.3439 37.2948 44.0539 37.4814 44.0564 37.6253 44.025 37.7267 43.9598 37.7616 43.9379 37.7976 43.9171 37.8347 43.8973 38.6514 43.4636 38.96 42.793 38.6252 42.1798 38.5653 42.0706 38.5413 41.9599 38.5478 41.8517 38.55 41.823 38.55 41.6378 38.5478 41.2959 38.9109 41.1539 39.2947 41.0455 39.7004 40.9704 39.7483 40.9615 39.7974 40.9539 39.8476 40.9475 40.9271 40.8097 41.7699 40.3188 42.0066 39.6902 42.2028 39.1708 43.085 38.8421 43.9769 38.9559 44.0271 38.9622 44.075 38.9699 44.1241 38.9788 45.1774 39.1738 46.3289 38.9941 47.0736 38.5187 47.6897 38.1257 48.7365 38.0977 49.4114 38.4561 49.4485 38.4759 49.4845 38.4969 49.5183 38.5187 50.263 38.9941 51.4156 39.1738 52.4689 38.9788 53.339 38.8178 54.2692 39.098 54.5461 39.6048 54.5614 39.6329 54.5745 39.6614 54.5854 39.6902 54.822 40.3188 55.666 40.8097 56.7454 40.9475 57.1838 41.0035 57.6167 41.1302 58.0452 41.3276 58.043 41.6453 58.043 41.8232 58.0452 41.8616 58.0485 41.9382 58.0365 42.0162 58.007 42.0943 57.9961 42.1231 57.983 42.1517 57.9678 42.1798 57.6319 42.793 57.9416 43.4636 58.7583 43.8973 58.9579 44.0036 59.1378 44.0613 59.297 44.0702 59.297 44.4022 59.297 44.5824 59.297 44.6106 59.297 44.8418 59.1541 45.0734 58.8652 45.2575 58.8314 45.2794 58.7954 45.3002 58.7583 45.3201 58.139 45.6488 57.8119 46.1136 57.8358 46.5864 57.8402 46.6871 57.91 46.7596 58.0452 46.8041 58.0463 47.1687 58.0452 47.3677 58.0408 47.4012 57.9918 47.7814 57.5545 48.1243 56.8916 48.2469 56.8436 48.2558 56.7945 48.2634 56.7454 48.2698 55.666 48.4076 54.822 48.8986 54.5854 49.5271 54.3902 50.0466 53.5081 50.3753 52.615 50.2614 52.566 50.2551 52.5169 50.2474 52.4689 50.2385 51.4156 50.0436 50.263 50.2233 49.5183 50.6987 48.9022 51.0916 47.8565 51.1196 47.1816 50.7612 47.1445 50.7414 47.1085 50.7205 47.0736 50.6987 46.3289 50.2233 45.1774 50.0436 44.1241 50.2385 43.2529 50.3996 42.3228 50.1193 42.0469 49.6125 42.0305 49.5844 42.0175 49.5559 42.0066 49.5271 41.7699 48.8986 40.9271 48.4076 39.8476 48.2698Z" id="Star-2" fill="url(#linearGradient-10)"/><path d="M39.8476 47.7361C38.9545 47.6222 38.3908 47.1088 38.586 46.5894 38.5969 46.5606 38.61 46.532 38.6252 46.5039 38.96 45.8906 38.6514 45.22 37.8347 44.7864 37.1597 44.4281 37.1118 43.819 37.7278 43.4261 37.7616 43.4043 37.7976 43.3835 37.8347 43.3636 38.6514 42.93 38.96 42.2594 38.6252 41.646 38.3483 41.1392 38.8302 40.5978 39.7004 40.4368 39.7494 40.4279 39.7974 40.4202 39.8476 40.4139 40.9271 40.2761 41.7699 39.7852 42.0076 39.1566 42.2028 38.6371 43.085 38.3083 43.9769 38.4223 44.0271 38.4286 44.075 38.4362 44.1241 38.4452 45.1774 38.64 46.3289 38.4603 47.0747 37.9849 47.6897 37.5921 48.7365 37.564 49.4114 37.9224 49.4485 37.9423 49.4845 37.9631 49.5183 37.9849 50.263 38.4603 51.4156 38.64 52.4689 38.4452 53.339 38.2841 54.2692 38.5644 54.5461 39.0712 54.5614 39.0993 54.5745 39.1278 54.5854 39.1566 54.822 39.7852 55.666 40.2761 56.7454 40.4139 57.6374 40.5277 58.2022 41.0412 58.007 41.5607 57.9961 41.5895 57.983 41.618 57.9678 41.646 57.633 42.2594 57.9416 42.93 58.7583 43.3636 59.4333 43.7219 59.4813 44.3309 58.8652 44.7239 58.8314 44.7457 58.7954 44.7665 58.7583 44.7864 57.9416 45.22 57.633 45.8906 57.9678 46.5039 58.2437 47.0107 57.7628 47.5522 56.8916 47.7132 56.8436 47.7222 56.7945 47.7298 56.7454 47.7361 55.666 47.874 54.822 48.3648 54.5854 48.9935 54.3902 49.5128 53.5081 49.8416 52.615 49.7277 52.566 49.7214 52.5169 49.7138 52.4689 49.7048 51.4156 49.5099 50.263 49.6896 49.5183 50.165 48.9033 50.558 47.8565 50.586 47.1816 50.2276 47.1445 50.2077 47.1085 50.1868 47.0747 50.165 46.3289 49.6896 45.1774 49.5099 44.1241 49.7048 43.2529 49.8659 42.3228 49.5857 42.0469 49.0788 42.0316 49.0507 42.0185 49.0222 42.0076 48.9935 41.7699 48.3648 40.9271 47.874 39.8476 47.7361Z" id="Star-2" fill="url(#linearGradient-11)"/><path d="M42.7153 47.0939C39.7821 45.4266 39.7821 42.7234 42.7153 41.0561 45.6496 39.3888 50.407 39.3888 53.3401 41.0561 56.2744 42.7234 56.2744 45.4266 53.3401 47.0939 50.407 48.7612 45.6496 48.7612 42.7153 47.0939ZM43.3794 46.7165C45.9473 48.1754 50.1093 48.1754 52.6761 46.7165 55.244 45.2577 55.244 42.8924 52.6761 41.4334 50.1093 39.9746 45.9473 39.9746 43.3794 41.4334 40.8126 42.8924 40.8126 45.2577 43.3794 46.7165Z" id="Oval-9" fill="#FCFCFC"/></g></g></g><g id="Group" transform="translate(132.649 55)"><g id="Group-6" transform="matrix(1 0 0 1 0 9.02368)"><path d="M0 45.4407 137.318 45.4407 137.318 91.0898C137.318 119.809 114.037 143.09 85.3181 143.09L52 143.09C23.2812 143.09 1.06225e-14 119.809 0 91.0898L0 45.4407 0 45.4407Z" id="Rectangle" fill="url(#linearGradient-14)" fillRule="nonzero" opacity="0.2"/><path d="M0.44011 37.8495 8.63606 37.8495C11.6696 34.7359 15.5146 31.8087 20.1711 29.1674 46.8909 14.0114 90.2121 14.0114 116.932 29.1674 121.588 31.8087 125.433 34.7359 128.467 37.8495L136.874 37.8495 136.874 58.9348C137.87 69.547 131.223 80.3469 116.932 88.4531 90.2121 103.609 46.8909 103.609 20.1711 88.4531 5.15275 79.9344-1.42424 68.4407 0.44011 57.3164L0.44011 37.8495Z" id="Combined-Shape" fill="url(#linearGradient-15)"/><path d="M20.1711 66.4475C46.8909 81.6035 90.2121 81.6035 116.932 66.4475 143.652 51.2916 143.652 26.7189 116.932 11.563 90.2121-3.59297 46.8909-3.59297 20.1711 11.563-6.54865 26.7189-6.54865 51.2916 20.1711 66.4475Z" id="Oval-35" fill="url(#linearGradient-16)"/><path d="M22.1163 65.3442C47.7617 79.8908 89.3412 79.8908 114.987 65.3442 140.632 50.7976 140.632 27.2129 114.987 12.6663 89.3412-1.88027 47.7617-1.88027 22.1163 12.6663-3.52919 27.2129-3.52919 50.7976 22.1163 65.3442Z" id="Oval-35" fill="#FFFFFF"/><path d="M24.4615 64.014C48.8117 77.8259 88.2913 77.8259 112.641 64.014 136.992 50.202 136.992 27.8085 112.641 13.9966 88.2913 0.184653 48.8117 0.184653 24.4615 13.9966 0.111248 27.8085 0.111248 50.202 24.4615 64.014Z" id="Oval-35" stroke="#F47F22" stroke-linecap="round" stroke-dasharray="3 3"/><path d="M26.3377 62.9498C49.6517 76.1739 87.4513 76.1739 110.765 62.9498 134.079 49.7256 134.079 28.2849 110.765 15.0608 87.4513 1.83659 49.6517 1.83659 26.3377 15.0608 3.0236 28.2849 3.0236 49.7256 26.3377 62.9498Z" id="Oval-35" fill="url(#linearGradient-17)" fillRule="nonzero"/></g><g id="Group-6-Copy" fillRule="nonzero" transform="translate(15.9551 0)"><path d="M61.1729 17.6644 104.822 43.1671C105.256 43.4178 105.404 43.9731 105.154 44.4073 105.075 44.5452 104.96 44.6598 104.822 44.7395L47.0326 77.962C46.1914 78.4483 45.1566 78.4483 44.3154 77.962L0.666195 52.4589C0.233017 52.2082 0.0845814 51.653 0.334607 51.2188 0.414166 51.0808 0.528441 50.9662 0.666195 50.8866L58.4557 17.6644C59.2969 17.1779 60.3328 17.1779 61.1729 17.6644Z" id="Polygon" fill="url(#linearGradient-18)" transform="matrix(-1 0 0 1 105.489 0)"/><path d="M105.388 30.0264 105.388 30.7166C105.388 30.8699 105.349 31.0252 105.267 31.1676 105.187 31.3046 105.073 31.4186 104.935 31.4977L47.2302 64.5264C46.3901 65.0099 45.3553 65.0099 44.5152 64.5264L0.833086 39.145C0.54278 38.9779 0.380547 38.6747 0.380547 38.363L0.380547 37.7559 105.388 30.0264Z" id="Combined-Shape" fill="url(#linearGradient-19)" transform="matrix(-1 0 0 1 105.769 0)"/><path d="M61.3117 3.92497 104.936 29.3133C105.368 29.5625 105.516 30.114 105.266 30.5456 105.187 30.6826 105.072 30.7965 104.936 30.8757L47.1747 63.9665C46.3346 64.4498 45.2998 64.4498 44.4597 63.9665L0.837034 38.5781C0.404301 38.329 0.255977 37.7774 0.505891 37.346 0.585227 37.2088 0.699503 37.095 0.837034 37.0157L58.5978 3.92497C59.4368 3.44161 60.4716 3.44161 61.3117 3.92497Z" id="Polygon" fill="#E2E7EC" transform="matrix(-1 0 0 1 105.772 0)"/><path d="M105.388 28.394 105.388 29.0842C105.388 29.2376 105.349 29.3929 105.267 29.5352 105.187 29.6724 105.073 29.7862 104.935 29.8654L47.2302 62.8941C46.3901 63.3775 45.3553 63.3775 44.5152 62.8941L0.833086 37.5127C0.54278 37.3457 0.380547 37.0424 0.380547 36.7307L0.380547 36.1237 105.388 28.394Z" id="Combined-Shape" fill="url(#linearGradient-20)" transform="matrix(-1 0 0 1 105.769 0)"/><path d="M61.3117 2.29263 104.936 27.6811C105.368 27.9301 105.516 28.4818 105.266 28.9132 105.187 29.0503 105.072 29.1641 104.936 29.2434L47.1747 62.3341C46.3346 62.8176 45.2998 62.8176 44.4597 62.3341L0.837034 36.9458C0.404301 36.6967 0.255977 36.145 0.505891 35.7136 0.585227 35.5766 0.699503 35.4626 0.837034 35.3835L58.5978 2.29263C59.4368 1.80927 60.4716 1.80927 61.3117 2.29263Z" id="Polygon" fill="#E2E7EC" transform="matrix(-1 0 0 1 105.772 0)"/><path d="M105.388 26.7618 105.388 27.452C105.388 27.6052 105.349 27.7607 105.267 27.903 105.187 28.0401 105.073 28.1539 104.935 28.2331L47.2302 61.2618C46.3901 61.7452 45.3553 61.7452 44.5152 61.2618L0.833086 35.8803C0.54278 35.7133 0.380547 35.4101 0.380547 35.0983L0.380547 34.4913 105.388 26.7618Z" id="Combined-Shape" fill="url(#linearGradient-21)" transform="matrix(-1 0 0 1 105.769 0)"/><path d="M61.1995 0.660393 104.823 26.0488C105.256 26.2978 105.404 26.8495 105.154 27.2809 105.075 27.418 104.96 27.5319 104.823 27.611L47.0626 60.7019C46.2225 61.1852 45.1876 61.1852 44.3475 60.7019L0.724757 35.3135C0.291913 35.0644 0.143589 34.5127 0.393504 34.0813 0.472951 33.9442 0.587115 33.8304 0.724757 33.7512L58.4845 0.660393C59.3246 0.176921 60.3594 0.176921 61.1995 0.660393Z" id="Polygon" fill="#FCFCFC" transform="matrix(-1 0 0 1 105.548 0)"/><path d="M60.4711 64.0401 52.8591 59.3827C52.3839 59.0915 52.0935 58.5738 52.0935 58.0159L52.0935 52.6029C52.1391 52.5916 52.1625 52.5682 52.1903 52.5516L64.5414 45.2269C64.7206 45.1198 64.942 45.1198 65.1211 45.2269L74.449 50.8467C74.5413 50.9018 74.5736 51.0239 74.5202 51.1195 74.5035 51.1497 74.479 51.175 74.449 51.1924L61.8186 58.6386C61.7774 58.6631 61.734 58.6819 61.6907 58.6951L61.6907 63.3567C61.6907 63.7992 61.3312 64.1579 60.8895 64.1579 60.7415 64.1579 60.5969 64.1171 60.4711 64.0401Z" id="Combined-Shape" fill="url(#linearGradient-22)" transform="matrix(-1 0 0 1 126.64 0)"/><path d="M61.5657 64.0586 53.6878 59.4481C53.1971 59.1607 52.8955 58.6344 52.8955 58.0652L52.8955 52.6409C52.9411 52.6294 52.9645 52.6059 52.9923 52.5893L65.3423 45.2272C65.5225 45.1197 65.744 45.1197 65.9231 45.2272L75.251 50.8757C75.3433 50.9311 75.3745 51.0538 75.3211 51.1498 75.3044 51.1803 75.2799 51.2057 75.251 51.2233L62.8999 58.5854C62.8587 58.61 62.8164 58.6289 62.7719 58.6423L62.7719 63.3672C62.7719 63.8096 62.4125 64.1683 61.9708 64.1683 61.8283 64.1683 61.6881 64.1305 61.5657 64.0586Z" id="Combined-Shape" fill="url(#linearGradient-23)" transform="matrix(-1 0 0 1 128.243 0)"/><path d="M61.5059 59.5623 60.9139 59.2337 60.9139 52.7761C60.9618 52.7644 60.9852 52.7404 61.0141 52.7235L73.798 45.2287C73.9838 45.1192 74.2131 45.1192 74.3989 45.2287L74.4456 45.3027C74.5413 45.3591 74.5747 45.484 74.519 45.5817 74.5012 45.6128 74.4756 45.6386 74.4456 45.6565L61.6628 53.1514C61.6194 53.1764 61.5749 53.1957 61.5293 53.2092L61.5059 59.5623Z" id="Combined-Shape" fill="#FCFCFC" transform="matrix(-1 0 0 1 135.46 0)"/><path d="M55.09 63.5666 54.4992 63.238 54.4992 56.7804C54.547 56.7687 54.5704 56.7449 54.5993 56.728L67.3832 49.2331C67.5691 49.1236 67.7983 49.1236 67.9841 49.2331L68.0308 49.307C68.1265 49.3634 68.1599 49.4883 68.1043 49.586 68.0865 49.6171 68.0609 49.6429 68.0308 49.6608L55.2469 57.1557C55.2046 57.1807 55.1601 57.2001 55.1145 57.2137L55.09 63.5666Z" id="Combined-Shape" fill="#FCFCFC" transform="matrix(-1 0 0 1 122.63 0)"/><path d="M66.6113 19.0737 68.277 20.0399 34.9527 39.3626 33.2864 38.3964 66.6113 19.0737ZM72.443 22.4553 74.1087 23.4213 40.7844 42.744 39.1182 41.7778 72.443 22.4553ZM78.2747 25.8367 79.9404 26.8028 61.1957 37.6718 59.5289 36.7056 78.2747 25.8367ZM84.1064 29.2181 85.7721 30.1843 67.0274 41.0532 65.3606 40.0872 84.1064 29.2181Z" id="Combined-Shape" fill="#E2E7EC"/><path d="M37.8905 32.5368 28.6291 27.1399 26.2113 28.5488 35.4728 33.9457 37.8905 32.5368ZM44.2453 28.8337C45.2318 28.2588 45.9122 27.6365 46.2865 26.9667 46.6609 26.2969 46.7049 25.6348 46.4187 24.9804 46.1324 24.326 45.5357 23.7345 44.6285 23.2058 43.7213 22.6771 42.7106 22.3294 41.5964 22.1626 40.4822 21.9958 39.3592 22.0163 38.2274 22.2242 37.2214 22.409 36.2797 22.7347 35.4024 23.2013L35.0764 23.3829 31.0865 25.7079 40.3479 31.1048 44.2453 28.8337ZM42.4485 27.6019 40.8103 28.5565 35.4728 25.4462 36.9921 24.5608C37.4765 24.2785 38.0204 24.0925 38.6237 24.0026 39.2271 23.9128 39.8392 23.9231 40.4602 24.0334 41.0811 24.1438 41.6558 24.3529 42.1843 24.6609 42.704 24.9637 43.0651 25.2922 43.2677 25.6463 43.4702 26.0005 43.5011 26.3469 43.3601 26.6857 43.2427 26.968 43.0121 27.2271 42.6684 27.4631L42.4485 27.6019ZM54.8543 22.8209C55.5502 22.4154 56.072 21.983 56.4199 21.5236 56.7678 21.0642 56.8867 20.6126 56.7766 20.1686 56.6665 19.7246 56.3032 19.323 55.6867 18.9637 55.0701 18.6044 54.4206 18.4004 53.7379 18.3517 53.0553 18.3029 52.4124 18.3465 51.809 18.4825 51.2057 18.6186 50.4901 18.82 49.6621 19.0869L48.914 19.3131C48.6971 19.3766 48.5127 19.4282 48.3608 19.468 48.0569 19.5476 47.7619 19.5912 47.4756 19.5989 47.1893 19.6066 46.9449 19.5514 46.7423 19.4334 46.531 19.3102 46.4561 19.1665 46.5177 19.0022 46.5794 18.838 46.76 18.6686 47.0594 18.4941 47.4382 18.2734 47.9997 18.054 48.7439 17.8358 49.3393 17.6613 49.9474 17.5189 50.5682 17.4084L51.0362 17.3316 50.0189 15.6763C49.2085 15.779 48.3828 15.965 47.5417 16.2345 46.7005 16.5039 45.9452 16.8337 45.2758 17.2238 44.536 17.6549 44.0031 18.1015 43.6772 18.5634 43.3513 19.0253 43.2523 19.4706 43.38 19.8991 43.5077 20.3277 43.8578 20.7088 44.4303 21.0424 45.038 21.3966 45.6722 21.5942 46.3328 21.6352 46.9934 21.6763 47.6209 21.6288 48.2155 21.4928 48.7109 21.3795 49.2813 21.2207 49.9266 21.0164L50.9146 20.695C51.1841 20.6094 51.414 20.5405 51.6043 20.4881 51.9213 20.4009 52.2274 20.3534 52.5225 20.3457 52.8175 20.338 53.0708 20.3957 53.2821 20.5189 53.5376 20.6677 53.6279 20.841 53.553 21.0386 53.4781 21.2362 53.2601 21.4402 52.899 21.6506 52.4058 21.9381 51.7077 22.1908 50.805 22.409 50.0526 22.5907 49.3079 22.7075 48.5709 22.7592L48.1296 22.7824 49.0808 24.4299C50.1025 24.3786 51.1286 24.2092 52.1591 23.9218 53.1897 23.6344 54.0881 23.2674 54.8543 22.8209Z" id="Shape" fill="url(#linearGradient-24)"/><path d="M88.1778 31.5318 95.3949 35.9365 88.1778 40.3413 80.9608 35.9365Z" id="Path" fill="url(#linearGradient-25)"/><path d="M18.6499 8.30649 48.0844 25.3983 43.0383 28.3283 13.604 11.2366Z" id="Path" fill="url(#linearGradient-26)" transform="matrix(-1 0 0 1 61.6884 0)"/><path d="M47.4828 49.5553C46.7017 49.4556 46.1665 49.0559 46.1565 48.6097 46.1543 48.5604 46.1543 48.3608 46.1565 48.0111 46.1988 48.2214 46.2255 48.3171 46.2355 48.298 46.5771 47.6722 46.2622 46.9877 45.4288 46.5453 45.056 46.3475 44.8713 46.075 44.8778 45.8029 44.8802 45.7324 44.8802 45.5491 44.8778 45.2531 45.0683 45.2557 45.2151 45.2236 45.3186 45.1571 45.3542 45.1349 45.391 45.1136 45.4288 45.0933 46.2622 44.6508 46.5771 43.9665 46.2355 43.3407 46.1743 43.2293 46.1498 43.1163 46.1565 43.0059 46.1587 42.9766 46.1587 42.7876 46.1565 42.4388 46.527 42.2939 46.9187 42.1832 47.3326 42.1066 47.3816 42.0975 47.4317 42.0897 47.4828 42.0832 48.5844 41.9426 49.4446 41.4417 49.686 40.8002 49.8863 40.2702 50.7865 39.9347 51.6967 40.0509 51.7479 40.0573 51.7968 40.0651 51.8469 40.0742 52.9218 40.2732 54.0968 40.0898 54.8568 39.6047 55.4855 39.2037 56.5537 39.1751 57.2424 39.5408 57.2803 39.5611 57.317 39.5824 57.3515 39.6047 58.1115 40.0898 59.2876 40.2732 60.3625 40.0742 61.2504 39.9099 62.1995 40.1959 62.4822 40.7131 62.4978 40.7418 62.5111 40.7708 62.5222 40.8002 62.7637 41.4417 63.6249 41.9426 64.7265 42.0832 65.1738 42.1403 65.6156 42.2696 66.0529 42.4711 66.0506 42.7953 66.0506 42.9769 66.0529 43.016 66.0562 43.0941 66.044 43.1738 66.0139 43.2535 66.0028 43.2829 65.9894 43.312 65.9739 43.3407 65.6311 43.9665 65.9472 44.6508 66.7806 45.0933 66.9842 45.2018 67.1678 45.2607 67.3303 45.2698 67.3303 45.6086 67.3303 45.7925 67.3303 45.8213 67.3303 46.0572 67.1845 46.2935 66.8896 46.4815 66.8551 46.5037 66.8184 46.525 66.7806 46.5453 66.1486 46.8807 65.8147 47.355 65.8392 47.8375 65.8437 47.9402 65.9149 48.0142 66.0529 48.0596 66.054 48.4317 66.0529 48.6348 66.0484 48.6689 65.9983 49.0569 65.5521 49.4069 64.8756 49.5319 64.8267 49.5411 64.7766 49.5489 64.7265 49.5553 63.6249 49.696 62.7637 50.197 62.5222 50.8384 62.3231 51.3685 61.4229 51.704 60.5116 51.5877 60.4615 51.5812 60.4114 51.5734 60.3625 51.5643 59.2876 51.3655 58.1115 51.5488 57.3515 52.034 56.7228 52.4349 55.6557 52.4635 54.9669 52.0977 54.9291 52.0775 54.8924 52.0562 54.8568 52.034 54.0968 51.5488 52.9218 51.3655 51.8469 51.5643 50.9578 51.7288 50.0087 51.4427 49.7272 50.9255 49.7105 50.8968 49.6971 50.8678 49.686 50.8384 49.4446 50.197 48.5844 49.696 47.4828 49.5553Z" id="Star-2" fill="url(#linearGradient-27)" transform="matrix(-1 0 0 1 112.208 0)"/><path d="M47.4816 49.0108C46.5702 48.8945 45.995 48.3706 46.1942 47.8405 46.2053 47.8111 46.2186 47.782 46.2342 47.7533 46.5758 47.1275 46.2609 46.4432 45.4275 46.0007 44.7387 45.635 44.6898 45.0135 45.3185 44.6125 45.3529 44.5903 45.3897 44.569 45.4275 44.5488 46.2609 44.1063 46.5758 43.4219 46.2342 42.796 45.9516 42.2789 46.4434 41.7264 47.3313 41.5621 47.3814 41.5529 47.4304 41.5451 47.4816 41.5387 48.5831 41.398 49.4433 40.8971 49.6858 40.2556 49.885 39.7255 50.7852 39.39 51.6954 39.5063 51.7466 39.5128 51.7955 39.5206 51.8456 39.5297 52.9205 39.7285 54.0955 39.5452 54.8566 39.06 55.4842 38.6591 56.5524 38.6305 57.2411 38.9963 57.279 39.0165 57.3157 39.0378 57.3502 39.06 58.1102 39.5452 59.2863 39.7285 60.3612 39.5297 61.2491 39.3653 62.1983 39.6513 62.4809 40.1685 62.4965 40.1972 62.5098 40.2262 62.5209 40.2556 62.7624 40.8971 63.6236 41.398 64.7252 41.5387 65.6354 41.6549 66.2118 42.1788 66.0126 42.7089 66.0015 42.7383 65.9882 42.7675 65.9726 42.796 65.631 43.4219 65.9459 44.1063 66.7793 44.5488 67.4681 44.9144 67.517 45.5359 66.8883 45.9369 66.8538 45.9591 66.8171 45.9804 66.7793 46.0007 65.9459 46.4432 65.631 47.1275 65.9726 47.7533 66.2541 48.2705 65.7634 48.823 64.8743 48.9874 64.8254 48.9965 64.7753 49.0043 64.7252 49.0108 63.6236 49.1514 62.7624 49.6523 62.5209 50.2938 62.3218 50.8238 61.4216 51.1593 60.5103 51.0431 60.4602 51.0367 60.4101 51.0289 60.3612 51.0198 59.2863 50.8208 58.1102 51.0042 57.3502 51.4893 56.7226 51.8903 55.6544 51.9189 54.9656 51.5532 54.9278 51.5329 54.8911 51.5116 54.8566 51.4893 54.0955 51.0042 52.9205 50.8208 51.8456 51.0198 50.9566 51.1841 50.0074 50.8981 49.7259 50.3809 49.7103 50.3522 49.697 50.3232 49.6858 50.2938 49.4433 49.6523 48.5831 49.1514 47.4816 49.0108Z" id="Star-2" fill="url(#linearGradient-28)" transform="matrix(-1 0 0 1 112.207 0)"/><path d="M50.9557 48.3554C47.9625 46.6539 47.9625 43.8954 50.9557 42.1941 53.95 40.4926 58.8048 40.4926 61.798 42.1941 64.7923 43.8954 64.7923 46.6539 61.798 48.3554 58.8048 50.0568 53.95 50.0568 50.9557 48.3554ZM51.6334 47.9703C54.2538 49.4591 58.501 49.4591 61.1203 47.9703 63.7408 46.4816 63.7408 44.0679 61.1203 42.5791 58.501 41.0904 54.2538 41.0904 51.6334 42.5791 49.014 44.0679 49.014 46.4816 51.6334 47.9703Z" id="Oval-9" fill="#FCFCFC" transform="matrix(-1 0 0 1 112.755 0)"/></g></g></g></g></svg>