<svg xmlns="http://www.w3.org/2000/svg" width="116" height="116" viewBox="0 0 116 116">
                        <title>helios sun-colored</title>
                        <g>
                            <path d="M20.9 69.2C19 64.1 18 58.7 18 53.2 18 29.5 36 10.2 58.1 10.2 80.3 10.2 98.3 29.5 98.3 53.2 98.3 58.7 97.3 64.1 95.4 69.2L106 69.2C107.5 64 108.3 58.6 108.3 53.2 108.3 23.9 85.8 0 58.1 0 30.5 0 8 23.9 8 53.2 8 58.6 8.8 64 10.3 69.2L20.9 69.2Z" fill="#fff"></path>
                            <path d="M110.3 85.4L6 85.4C4.1 85.6 2.3 84.6 1.4 83 0.4 81.3 0.4 79.3 1.4 77.7 2.3 76 4.1 75.1 6 75.2L110.3 75.2C112.2 75.1 113.9 76 114.9 77.7 115.9 79.3 115.9 81.3 114.9 83 113.9 84.6 112.2 85.6 110.3 85.4Z" fill="#fff"></path>
                            <path d="M89.6 90.1L26.7 90.1C24.9 89.9 23.1 90.9 22.1 92.5 21.1 94.2 21.1 96.2 22.1 97.9 23.1 99.5 24.9 100.4 26.7 100.3L89.6 100.3C91.4 100.4 93.2 99.5 94.2 97.9 95.1 96.2 95.1 94.2 94.2 92.5 93.2 90.9 91.4 89.9 89.6 90.1" fill="#fff"></path>
                            <path d="M69.1 104.9L47.1 104.9C45.3 104.8 43.5 105.7 42.5 107.4 41.5 109 41.5 111.1 42.5 112.7 43.5 114.3 45.3 115.3 47.1 115.2L69.1 115.2C71.8 115 73.8 112.7 73.8 110 73.8 107.3 71.8 105.1 69.1 104.9" fill="#fff"></path>
                        </g>
                    </svg>