<svg xmlns="http://www.w3.org/2000/svg" xmlns:xlink="http://www.w3.org/1999/xlink" width="654.6" height="404.48" viewBox="0 0 654.6 404.48"><defs><linearGradient id="a" x1="-31.26" y1="458.99" x2="-31.26" y2="456.6" gradientTransform="matrix(570.62, 0, 0, -290.58, 18165.91, 133513.49)" gradientUnits="userSpaceOnUse"><stop offset="0" stop-color="#fff" stop-opacity="0.62"/><stop offset="1" stop-color="#f26409" stop-opacity="0.62"/></linearGradient><linearGradient id="b" x1="-31.28" y1="459.45" x2="-31.28" y2="458.02" gradientTransform="matrix(652.6, 0, 0, -332.33, 20740.67, 152644.16)" gradientUnits="userSpaceOnUse"><stop offset="0" stop-color="#fff"/><stop offset="1" stop-color="#fff3e8"/></linearGradient><linearGradient id="c" x1="-26.91" y1="448.35" x2="-26.14" y2="446.99" gradientTransform="matrix(16.63, 0, 0, -16.5, 480.01, 7678.9)" gradientUnits="userSpaceOnUse"><stop offset="0" stop-color="#fab643"/><stop offset="0.56" stop-color="#f48222"/><stop offset="1" stop-color="#f16322"/></linearGradient><linearGradient id="d" x1="-26.82" y1="446.68" x2="-25.33" y2="446.09" gradientTransform="matrix(14.83, 0, 0, -14.82, 423.3, 6948.25)" gradientUnits="userSpaceOnUse"><stop offset="0" stop-color="#ffad38"/><stop offset="1" stop-color="#f36309"/></linearGradient><linearGradient id="e" x1="-25.92" y1="445.73" x2="-25.11" y2="444.47" gradientTransform="matrix(13.76, 0, 0, -13.56, 389.79, 6209.43)" xlink:href="#c"/><linearGradient id="f" x1="-26.09" y1="446.86" x2="-24.9" y2="446.27" gradientTransform="matrix(13.54, 0, 0, -15.11, 382.86, 6960.4)" xlink:href="#d"/><linearGradient id="g" x1="-26.84" y1="446.61" x2="-25.36" y2="446.02" gradientTransform="matrix(14.83, 0, 0, -14.82, 423.33, 6745.82)" xlink:href="#d"/><linearGradient id="h" x1="-27.19" y1="448.56" x2="-25.9" y2="447.97" gradientTransform="matrix(16.29, 0, 0, -17.44, 469.12, 8070.52)" xlink:href="#d"/><linearGradient id="i" x1="-19.82" y1="430.19" x2="-18.33" y2="429.6" gradientTransform="matrix(6.53, 0, 0, -6.53, 159.11, 2895.67)" xlink:href="#d"/><linearGradient id="j" x1="-20.11" y1="430.18" x2="-18.62" y2="429.62" gradientTransform="matrix(6.69, 0, 0, -6.53, 171.56, 2895.67)" xlink:href="#d"/><linearGradient id="k" x1="-19.82" y1="430.19" x2="-18.33" y2="429.6" gradientTransform="matrix(6.53, 0, 0, -6.53, 159.11, 2903.27)" xlink:href="#d"/><linearGradient id="l" x1="-19.82" y1="430.19" x2="-18.33" y2="429.6" gradientTransform="matrix(6.53, 0, 0, -6.53, 166.86, 2903.27)" xlink:href="#d"/></defs><path d="M42,113.9H612.61V391.79c0,7-6.46,12.69-14.42,12.69H56.41c-8,0-14.42-5.68-14.42-12.69Z" fill-rule="evenodd" fill="url(#a)"/><path d="M1,51.28H653.6V369.09c0,8-7.39,14.52-16.49,14.52H17.49C8.38,383.61,1,377.11,1,369.09Z" stroke="#e0e0e0" stroke-width="2" fill-rule="evenodd" fill="url(#b)"/><circle cx="39.58" cy="293.2" r="14.02" fill="#fff" stroke="#f7811c" stroke-width="1"/><path d="M36.88,293.53l2,2.14a.86.86,0,0,0,.29.21v.84a19.73,19.73,0,0,0-3.42.42,9.8,9.8,0,0,1-.87-3.6Zm5.37,0h2a9.66,9.66,0,0,1-.84,3.55,17.43,17.43,0,0,0-3.45-.37v-.84a.9.9,0,0,0,.27-.2Zm-4.8-4.35v1.58h-1a.93.93,0,0,0-.68,1.56l.4.42H34.89a9.56,9.56,0,0,1,1-3.82C36.38,289,36.91,289.11,37.45,289.18Zm4,0c.61-.07,1.23-.16,1.83-.29a9.71,9.71,0,0,1,1,3.81H43l.39-.41a.93.93,0,0,0,0-1.31,1,1,0,0,0-.64-.25H41.46Zm-4-2.53v1.69c-.4-.05-.8-.11-1.18-.19A7.43,7.43,0,0,1,37.45,286.69Zm4-.22a7.55,7.55,0,0,1,1.44,1.74q-.7.14-1.44.21ZM37.75,285a1.23,1.23,0,0,0-.28.6,7.72,7.72,0,0,0-2,2.4,9.55,9.55,0,0,1-1.86-.65A8.4,8.4,0,0,1,37.75,285ZM41.1,285a8.43,8.43,0,0,1,4.47,2.4,9.4,9.4,0,0,1-1.84.66,7.49,7.49,0,0,0-2.34-2.6A1.24,1.24,0,0,0,41.1,285Zm-1.92,16.5a8.28,8.28,0,0,1-5.77-2.72,8.62,8.62,0,0,1,1.9-.68c1,1.88,2.49,3.17,3.87,3.38Zm.79,0v0c1.4-.21,2.89-1.52,3.9-3.44a9.6,9.6,0,0,1,1.9.7,8.27,8.27,0,0,1-5.8,2.76Zm-.79-.83a5.44,5.44,0,0,1-3-2.75,19.4,19.4,0,0,1,3-.36Zm.79,0V297.5a16.76,16.76,0,0,1,3.08.31A5.52,5.52,0,0,1,40,300.62Zm-8.71-7.09H34.1a10.52,10.52,0,0,0,.86,3.79,8.86,8.86,0,0,0-2.06.79A8.33,8.33,0,0,1,31.26,293.53Zm0-.79A8.27,8.27,0,0,1,33,288a9.61,9.61,0,0,0,2,.75,10.49,10.49,0,0,0-1,4Zm16.63.79a8.2,8.2,0,0,1-1.61,4.54,9.56,9.56,0,0,0-2.06-.8,10.65,10.65,0,0,0,.83-3.73Zm0-.79H45.05a10.47,10.47,0,0,0-.95-4,9.51,9.51,0,0,0,2-.77A8.22,8.22,0,0,1,47.89,292.74Zm-11.47-1.28h1.73v-5.63h0a.58.58,0,0,1,.57-.57H40.2a.57.57,0,0,1,.56.57v5.64h2a.22.22,0,0,1,.23.22.2.2,0,0,1-.06.15l-3.15,3.35a.23.23,0,0,1-.32,0h0l-3.15-3.35a.23.23,0,0,1,0-.32A.25.25,0,0,1,36.42,291.46Z" fill="url(#c)"/><circle cx="39.47" cy="333.62" r="14.02" fill="#fff" stroke="#f7811c" stroke-width="1"/><path d="M32.05,329.42V327.1a.9.9,0,0,1,.9-.89H46a.91.91,0,0,1,.9.89v2.32Zm10,6h2V341h-2Zm-2.81,2h2V341h-2Zm5.62-3.6h2V341h-2Zm-10.43-5.21a.8.8,0,1,0-.8-.8h0A.8.8,0,0,0,34.45,328.61Zm-2.4,1.6H46.88V333h-2.8v1.6H41.27v2h-2.8v3.21H32.86a.81.81,0,0,1-.81-.81h0Zm1.6,1.2v.8h5.21v-.8Zm0,1.6v.8h3.61V333Z" fill="url(#d)"/><circle cx="39.68" cy="172.53" r="14.02" fill="#fff" stroke="#f7811c" stroke-width="1"/><path d="M40.45,168.93h6.11v7.55H40.45v2.83l-7.64-1.42V167.28l7.64-1.53Zm.11.5v2l1.85,1.46,3.38-3.49Zm0,2.67V176h5.62v-6.2l-3.7,3.76Zm-4,3a2.39,2.39,0,0,0,0-4.65,2.39,2.39,0,0,0,0,4.65Zm0-.78c-.56,0-1.06-.67-1.06-1.55s.5-1.55,1.06-1.55,1.07.68,1.07,1.55-.51,1.55-1.07,1.55Z" fill="url(#e)"/><circle cx="39.53" cy="211.21" r="14.02" fill="#fff" stroke="#f7811c" stroke-width="1"/><path d="M44.78,211.66H39.53a1.33,1.33,0,0,0-1.3,1.06H36.71v.82h1.5v.82h-1.5v.82h1.5v.37a1.32,1.32,0,0,0,1.33,1.33h5.24V218a.81.81,0,0,1-.81.81H33.58a.82.82,0,0,1-.82-.81V204.47a.82.82,0,0,1,.82-.82H44a.82.82,0,0,1,.82.82v7.19ZM34.4,206.13v1.1h8.74v-1.1Zm2.31,2.47v.82h5.61v-.82Zm-2.31,0v1.5h1.49v-1.5Zm0,4.15v1.5h1.49v-1.5Zm2.31-2.5v.82h3.12v-.82Zm2.82,2.25h6.26a.51.51,0,0,1,.51.51h0v2.57a.51.51,0,0,1-.51.51H39.53a.51.51,0,0,1-.51-.51h0V213a.51.51,0,0,1,.51-.51Zm.52,3h.5v-2.28h-.5Zm1.15,0h.88a1.14,1.14,0,1,0,.12-2.27h-1Zm.5-.45v-1.37h.38a.64.64,0,0,1,.68.62v.06h0a.64.64,0,0,1-.61.68H41.7Zm2.89.49c.49,0,.83-.26.83-.72s-.26-.56-.72-.68-.49-.15-.49-.31.1-.2.29-.2a1.13,1.13,0,0,1,.59.23l.26-.38a1.36,1.36,0,0,0-.84-.29.72.72,0,0,0-.79.63v.07c0,.45.29.57.75.7s.45.16.45.3-.12.21-.32.21a1,1,0,0,1-.68-.28l-.29.36a1.39,1.39,0,0,0,1,.35Z" fill="url(#f)"/><circle cx="39.49" cy="132.11" r="14.02" fill="#fff" stroke="#f7811c" stroke-width="1"/><path d="M32.08,129.91H46.91v8.8a.82.82,0,0,1-.82.81H32.89a.81.81,0,0,1-.81-.81h0Zm3.21,1.6a.4.4,0,0,0-.41.4h0v1.59a.41.41,0,0,0,.41.41h1.59a.41.41,0,0,0,.41-.41v-1.58a.41.41,0,0,0-.41-.41H35.29Zm0,3.6a.4.4,0,0,0-.41.4v1.59a.41.41,0,0,0,.41.41h1.59a.41.41,0,0,0,.41-.41v-1.58a.42.42,0,0,0-.41-.41Zm3.2-3.6v.8H44.1v-.8Zm0,3.6v.8H44.1v-.8Zm0-2v.8h4v-.8Zm0,3.6v.8h4v-.8ZM46.1,126.3a.8.8,0,0,1,.8.8h0v2H32.08v-2a.8.8,0,0,1,.8-.8h2v-.79a.81.81,0,0,1,.81-.81h1.18a.82.82,0,0,1,.82.81v.79H41.3v-.79a.81.81,0,0,1,.81-.81h1.18a.81.81,0,0,1,.81.81h0v.79Z" fill="url(#g)"/><circle cx="39.42" cy="254.52" r="14.02" fill="#fff" stroke="#f7811c" stroke-width="1"/><path d="M39.37,258.16V255h3.28a13.91,13.91,0,0,1-.51,3.4A18.36,18.36,0,0,0,39.37,258.16Zm0-7.42a17.11,17.11,0,0,0,2.68-.24,13.61,13.61,0,0,1,.6,3.68H39.37Zm0,12.17v0c1.41-.22,2.6-1.6,3.33-3.6a11,11,0,0,1,2.68.86,8.72,8.72,0,0,1-6,2.76Zm0-.83V259a19.16,19.16,0,0,1,2.51.2c-.61,1.6-1.51,2.69-2.51,2.93Zm0-15.83a8.71,8.71,0,0,1,5.79,2.53,11.07,11.07,0,0,1-2.56.82c-.74-1.85-1.88-3.12-3.23-3.33v0Zm0,.83a4.15,4.15,0,0,1,2.4,2.66,19.27,19.27,0,0,1-2.4.21v-2.87Zm8.2,7.9a8.09,8.09,0,0,1-1.67,4.55,11.29,11.29,0,0,0-2.95-1,14.17,14.17,0,0,0,.52-3.55Zm0-.79h-4.1a14.18,14.18,0,0,0-.6-3.83,11.46,11.46,0,0,0,2.84-1,8.14,8.14,0,0,1,1.86,4.78Zm-9.26-8.39v17.43H36.5v-1.57c-3.54-.24-5.06-2.12-5.22-4.62h3a2.3,2.3,0,0,0,2.19,2.32v-3.83c-3.25-.5-4.81-1.64-4.81-4.26,0-2.28,1.88-4,4.81-4.16V245.8ZM34.64,251c0,.92.34,1.41,1.86,1.7v-3.35c-1.21.17-1.86.82-1.86,1.65Z" fill="url(#h)"/><circle cx="39.68" cy="91.11" r="14.02" fill="#fff" stroke="#f7811c" stroke-width="1"/><path d="M32.54,84h6.54v6.54H32.54Z" fill="url(#i)"/><path d="M36.85,88.2v1a.11.11,0,0,1-.11.11h0l-.89-.3-.88.3a.12.12,0,0,1-.15-.08h0v-1a.59.59,0,0,0,.7.28l.34-.11.34.11a.58.58,0,0,0,.7-.29Zm-1-.06-.41.13A.35.35,0,0,1,35,88.1l-.2-.39-.38-.2a.36.36,0,0,1-.18-.43l.14-.42-.13-.41a.35.35,0,0,1,.17-.43l.39-.2.2-.39a.36.36,0,0,1,.42-.18l.41.14.41-.14a.35.35,0,0,1,.42.18l.2.39.39.2a.35.35,0,0,1,.17.43l-.13.41.13.42a.35.35,0,0,1-.17.43l-.39.2-.2.39a.34.34,0,0,1-.42.17Zm0-.34a1.15,1.15,0,0,0,0-2.3,1.15,1.15,0,1,0,0,2.3Zm0-.23a.92.92,0,1,1,.92-.92.92.92,0,0,1-.92.92Zm-.14-.42v-.3h.16a.34.34,0,0,0,.39-.3v0a.33.33,0,0,0-.33-.33h-.42v1Zm.17-.49h-.17v-.28h.17c.11,0,.17.05.17.14h0c0,.09-.06.15-.17.15Z"/><path d="M36.85,88.2v1a.11.11,0,0,1-.11.11h0l-.89-.3-.88.3a.12.12,0,0,1-.15-.08h0v-1a.59.59,0,0,0,.7.28l.34-.11.34.11a.58.58,0,0,0,.7-.29Zm-1-.06-.41.13A.35.35,0,0,1,35,88.1l-.2-.39-.38-.2a.36.36,0,0,1-.18-.43l.14-.42-.13-.41a.35.35,0,0,1,.17-.43l.39-.2.2-.39a.36.36,0,0,1,.42-.18l.41.14.41-.14a.35.35,0,0,1,.42.18l.2.39.39.2a.35.35,0,0,1,.17.43l-.13.41.13.42a.35.35,0,0,1-.17.43l-.39.2-.2.39a.34.34,0,0,1-.42.17Zm0-.34a1.15,1.15,0,0,0,0-2.3,1.15,1.15,0,1,0,0,2.3Zm0-.23a.92.92,0,1,1,.92-.92.92.92,0,0,1-.92.92Zm-.14-.42v-.3h.16a.34.34,0,0,0,.39-.3v0a.33.33,0,0,0-.33-.33h-.42v1Zm.17-.49h-.17v-.28h.17c.11,0,.17.05.17.14h0c0,.09-.06.15-.17.15Z" fill="#f9f9f9"/><path d="M40.14,84h6.69v6.54H40.14Z" fill="url(#j)"/><path d="M42.23,88.57V86.23h.9v-.32H41v.32h.9v2.34Zm1.56,0V86.33l.76,2.24h.35l.76-2.24v2.24H46V85.91h-.52l-.76,2.25L44,85.91h-.51v2.66Z" fill="#fff" fill-rule="evenodd"/><path d="M32.54,91.57h6.54v6.54H32.54Z" fill="url(#k)"/><path d="M40.29,91.57h6.54v6.54H40.29Z" fill="url(#l)"/><path d="M35.84,96.59A1.26,1.26,0,0,0,37,95.93a2.56,2.56,0,0,0,.21-1.76,1.64,1.64,0,0,0-.24-.56,1.22,1.22,0,0,0-.6-.45,2,2,0,0,0-.55-.07h-1.5v3.5ZM35.71,96H35V93.7h.67a.69.69,0,0,1,.67.28,1.8,1.8,0,0,1,.17.82,1.89,1.89,0,0,1-.12.67.72.72,0,0,1-.72.51Z"/><path d="M35.84,96.59A1.26,1.26,0,0,0,37,95.93a2.56,2.56,0,0,0,.21-1.76,1.64,1.64,0,0,0-.24-.56,1.22,1.22,0,0,0-.6-.45,2,2,0,0,0-.55-.07h-1.5v3.5ZM35.71,96H35V93.7h.67a.69.69,0,0,1,.67.28,1.8,1.8,0,0,1,.17.82,1.89,1.89,0,0,1-.12.67.72.72,0,0,1-.72.51Z" fill="#f9f9f9"/><path d="M43.56,92.63a2.2,2.2,0,1,1-2.2,2.2h0A2.2,2.2,0,0,1,43.56,92.63Zm0,.38a1.83,1.83,0,1,0,1.82,1.83A1.82,1.82,0,0,0,43.56,93Zm.06.93a.69.69,0,0,1,.51.19.54.54,0,0,1,.15.22l0,.1-.35.08,0-.06a.4.4,0,0,0-.1-.15.42.42,0,0,0-.56.06.71.71,0,0,0-.12.45.77.77,0,0,0,.12.47.41.41,0,0,0,.31.14.34.34,0,0,0,.24-.09.39.39,0,0,0,.12-.19l0-.09.34.11,0,.11a.68.68,0,0,1-.22.31.8.8,0,0,1-1-.1.91.91,0,0,1-.23-.65,1,1,0,0,1,.23-.67.75.75,0,0,1,.58-.24Z" fill="#fff" fill-rule="evenodd"/><path d="M74.47,76.68h149c5.9,0,10.68,6.2,10.68,13.84V334.21c0,7.64-4.78,13.84-10.68,13.84h-149c-5.9,0-10.68-6.2-10.68-13.84V90.52C63.79,82.88,68.57,76.68,74.47,76.68Z" fill="#fff" fill-rule="evenodd"/><path d="M122.2,98.1h85.41v7H122.2Z" fill="#f16322" fill-rule="evenodd"/><path d="M122.2,139.31h85.41v6.94H122.2Z" fill="#f16322" fill-rule="evenodd"/><path d="M122.2,109.68h57.52v6.95H122.2Z" fill="#ffdbbb" fill-rule="evenodd"/><path d="M122.2,150.88h57.52v7H122.2Z" fill="#ffdbbb" fill-rule="evenodd"/><path d="M109.82,98.94H90.72v19.17h19.1Z" fill="none" stroke="#f16322" stroke-width="2"/><path d="M109.82,140.14H90.72v19.17h19.1Z" fill="none" stroke="#f16322" stroke-width="2"/><path d="M122.2,180.85h85.41v7H122.2Z" fill="#f16322" fill-rule="evenodd"/><path d="M122.2,192.43h57.52v6.95H122.2Z" fill="#ffdbbb" fill-rule="evenodd"/><path d="M109.82,181.69H90.72v19.17h19.1Z" fill="none" stroke="#f16322" stroke-width="2"/><path d="M122.2,222.41h85.41v6.94H122.2Z" fill="#f16322" fill-rule="evenodd"/><path d="M122.2,234h57.52v7H122.2Z" fill="#ffdbbb" fill-rule="evenodd"/><path d="M109.82,223.24H90.72v19.17h19.1Z" fill="none" stroke="#f16322" stroke-width="2"/><path d="M122.2,264h85.41v6.94H122.2Z" fill="#f16322" fill-rule="evenodd"/><path d="M122.2,275.53h57.52v7H122.2Z" fill="#ffdbbb" fill-rule="evenodd"/><path d="M109.82,264.79H90.72V284h19.1Z" fill="none" stroke="#f16322" stroke-width="2"/><path d="M122.2,305.51h85.41v6.94H122.2Z" fill="#f16322" fill-rule="evenodd"/><path d="M122.2,317.08h57.52V324H122.2Z" fill="#ffdbbb" fill-rule="evenodd"/><path d="M109.82,306.34H90.72v19.17h19.1Z" fill="none" stroke="#f16322" stroke-width="2"/><path d="M251.49,76.66H621a8,8,0,0,1,8.22,7.68V340a8,8,0,0,1-8.22,7.68H251.49a8,8,0,0,1-8.22-7.68V84.34A8,8,0,0,1,251.49,76.66Z" fill="#fff" fill-rule="evenodd"/><path d="M271.47,186.86h32.66v4.47H271.47Z" fill="#f7811c" fill-rule="evenodd"/><path d="M271.47,194.31h22.27v4.47H271.47Z" fill="#ffc73e" fill-rule="evenodd"/><path d="M262.28,179.41H497.4a1.2,1.2,0,0,1,1.2,1.2h0v63.12a1.2,1.2,0,0,1-1.2,1.2H262.28a1.2,1.2,0,0,1-1.2-1.2V180.62a1.21,1.21,0,0,1,1.2-1.21Z" fill="none" stroke="#e9e9e9"/><path d="M262.28,94.53H371.21a1.19,1.19,0,0,1,1.2,1.2v76.52a1.19,1.19,0,0,1-1.2,1.2H262.28a1.2,1.2,0,0,1-1.2-1.2V95.73a1.2,1.2,0,0,1,1.2-1.2Z" fill="none" stroke="#e9e9e9"/><path d="M512,192.82h32.66v6H512Z" fill="#f7811c" fill-rule="evenodd"/><path d="M512,203.24H537.2v3H512Zm0,6H526.8v3H512Zm0,6H537.2v3H512Zm0,6H526.8v3H512Z" fill="#ffdbbb" fill-rule="evenodd"/><path d="M512,230.05H526.8v3H512Zm19.3,0h11.87v3H531.26Z" fill="#ffc73e" fill-rule="evenodd"/><path d="M262.28,250.9H371.21a1.19,1.19,0,0,1,1.2,1.2v76.52a1.2,1.2,0,0,1-1.2,1.2H262.28a1.2,1.2,0,0,1-1.2-1.2h0V252.1a1.2,1.2,0,0,1,1.2-1.2Z" fill="none" stroke="#e9e9e9"/><path d="M379.56,94.53H497.4a1.2,1.2,0,0,1,1.2,1.2h0v76.52a1.2,1.2,0,0,1-1.2,1.2H379.56a1.19,1.19,0,0,1-1.2-1.2V95.73A1.19,1.19,0,0,1,379.56,94.53Z" fill="none" stroke="#e9e9e9"/><path d="M379.56,250.9H497.4a1.2,1.2,0,0,1,1.2,1.2h0v76.52a1.2,1.2,0,0,1-1.2,1.2H379.56a1.2,1.2,0,0,1-1.2-1.2h0V252.1a1.19,1.19,0,0,1,1.19-1.2Z" fill="none" stroke="#e9e9e9"/><path d="M505.74,94.53H610.22a1.2,1.2,0,0,1,1.2,1.2h0v76.52a1.2,1.2,0,0,1-1.2,1.2H505.74a1.19,1.19,0,0,1-1.2-1.19h0V95.73a1.2,1.2,0,0,1,1.2-1.2Z" fill="none" stroke="#e9e9e9"/><path d="M505.74,250.9H610.22a1.2,1.2,0,0,1,1.2,1.2h0v76.52a1.2,1.2,0,0,1-1.2,1.2H505.74a1.2,1.2,0,0,1-1.2-1.2h0V252.1a1.2,1.2,0,0,1,1.2-1.2Z" fill="none" stroke="#e9e9e9"/><path d="M505.74,179.41H610.22a1.2,1.2,0,0,1,1.2,1.2h0v63.12a1.2,1.2,0,0,1-1.2,1.2H505.74a1.2,1.2,0,0,1-1.2-1.2h0V180.62a1.2,1.2,0,0,1,1.19-1.21Z" fill="none" stroke="#e9e9e9"/><path d="M271.47,224.09h22.27V236H271.47Z" fill="#ffdbbb" fill-rule="evenodd"/><path d="M293.74,224.09h66.8V236h-66.8Z" fill="#ffc73e" fill-rule="evenodd"/><path d="M360.54,224.09H488.21V236H360.54Z" fill="#f16322" fill-rule="evenodd"/><path d="M293.74,222.6l-4.46-4.47h8.91Z" fill="#f7811c" fill-rule="evenodd"/><path d="M271.47,222.6,267,218.13h8.91Z" fill="#f7811c" fill-rule="evenodd"/><path d="M360.54,222.6l-4.45-4.47H365Z" fill="#f7811c" fill-rule="evenodd"/><path d="M488.21,222.6l-4.46-4.47h8.91Z" fill="#f7811c" fill-rule="evenodd"/><path d="M594.92,196a23,23,0,1,0,6.69,16.22A22.74,22.74,0,0,0,594.92,196Z" fill="none" stroke="#ffdbbb" stroke-width="2.16"/><path d="M595.56,229A23.79,23.79,0,1,1,562,195.32h0" fill="none" stroke="#ffc73e" stroke-width="2.16"/><path d="M595.56,195.33A23.79,23.79,0,0,1,562,229h0" fill="none" stroke="#f7811c" stroke-width="2.16"/><path d="M270,103.46h57.9v6H270Z" fill="#f7811c" fill-rule="evenodd"/><path d="M270,113.89h40.08v3H270Zm0,6h29.69v3H270Zm0,6h40.08v3H270Zm0,6h29.69v3H270Z" fill="#ffdbbb" fill-rule="evenodd"/><path d="M313,113.89h25.23v3H313Zm-10.4,6h40.09v3H302.64Zm10.4,6h25.23v3H313Zm-10.4,6h40.09v3H302.64Z" fill="#ffdbbb" fill-rule="evenodd"/><path d="M270,140.69h14.84v3H270Zm19.3,0h11.87v3H289.28Z" fill="#ffc73e" fill-rule="evenodd"/><path d="M387.27,103.46h57.89v6H387.27Z" fill="#f7811c" fill-rule="evenodd"/><path d="M387.27,113.89h40.08v3H387.27Zm0,6H417v3H387.27Zm0,6h40.08v3H387.27Zm0,6H417v3H387.27Z" fill="#ffdbbb" fill-rule="evenodd"/><path d="M430.31,113.89h25.24v3H430.31Zm-10.39,6H460v3H419.92Zm10.39,6h25.24v3H430.31Zm-10.39,6H460v3H419.92Z" fill="#ffdbbb" fill-rule="evenodd"/><path d="M387.27,137.71h40.08v3H387.27Zm0,6H417v3H387.27Z" fill="#ffdbbb" fill-rule="evenodd"/><path d="M430.31,137.71h14.85v3H430.31Zm-10.39,6h29.69v3H419.92Z" fill="#ffdbbb" fill-rule="evenodd"/><path d="M387.27,163h14.84v3H387.27Zm19.3,0h11.87v3H406.56Z" fill="#ffc73e" fill-rule="evenodd"/><path d="M513.44,103.46h57.9v6h-57.9Z" fill="#f7811c" fill-rule="evenodd"/><path d="M513.44,113.89h40.09v3H513.44Zm0,6h29.69v3H513.44Zm0,6h40.09v3H513.44Zm0,6h29.69v3H513.44Z" fill="#ffdbbb" fill-rule="evenodd"/><path d="M556.49,113.89h25.24v3H556.49Zm-10.39,6h40.08v3H546.1Zm10.39,6h25.24v3H556.49Zm-10.39,6h40.08v3H546.1Z" fill="#ffdbbb" fill-rule="evenodd"/><path d="M513.44,140.69h14.85v3H513.44Zm19.3,0h11.88v3H532.74Z" fill="#ffc73e" fill-rule="evenodd"/><path d="M513.44,259.83h57.9v6h-57.9Z" fill="#f7811c" fill-rule="evenodd"/><path d="M513.44,270.26h40.09v3H513.44Zm0,5.95h29.69v3H513.44Zm0,6h40.09v3H513.44Zm0,6h29.69v3H513.44Z" fill="#ffdbbb" fill-rule="evenodd"/><path d="M556.49,270.26h25.24v3H556.49Zm-10.39,5.95h40.08v3H546.1Zm10.39,6h25.24v3H556.49Zm-10.39,6h40.08v3H546.1Z" fill="#ffdbbb" fill-rule="evenodd"/><path d="M513.44,297.06h14.85v3H513.44Zm19.3,0h11.88v3H532.74Z" fill="#ffc73e" fill-rule="evenodd"/><ellipse cx="295.96" cy="290.36" rx="27.46" ry="27.55" fill="#f7811c"/><path d="M295.22,317.9V262.82H296a27.55,27.55,0,0,1,0,55.1Z" fill="#ffc73e" fill-rule="evenodd"/><path d="M295.22,317.9V290.36l24,14.63A27.45,27.45,0,0,1,296,317.91Z" fill="#ffdbbb" fill-rule="evenodd"/><path d="M335.31,275h3.26a1.15,1.15,0,0,1,1.19,1.12v4.91a1.15,1.15,0,0,1-1.19,1.12h-8a1.15,1.15,0,0,1-1.19-1.12v-6.7a1.15,1.15,0,0,1,1.19-1.11h2.77Z" fill="#ffc73e" fill-rule="evenodd"/><path d="M329.37,286.64H362v3H329.37Zm0,5.95h22.26v3H329.37Zm0,6H362v3H329.37Zm0,6h22.26v3H329.37Z" fill="#ffdcbd" fill-rule="evenodd"/><path d="M345.69,276.21H365v3h-19.3Z" fill="#f7811c" fill-rule="evenodd"/><path d="M390.23,313.44h14.85v10.43H390.23Z" fill="#ffdbbb" fill-rule="evenodd"/><path d="M406.56,301.53H421.4v22.34H406.56Z" fill="#f7811c" fill-rule="evenodd"/><path d="M422.89,289.61h14.84v34.26H422.89Z" fill="#ffc73e" fill-rule="evenodd"/><path d="M439.22,306h14.84v17.87H439.22Z" fill="#ffdbbb" fill-rule="evenodd"/><path d="M455.55,297.06h14.84v26.81H455.55Z" fill="#ffc73e" fill-rule="evenodd"/><path d="M471.88,274.72h14.84v49.15H471.88Z" fill="#f7811c" fill-rule="evenodd"/><path d="M17.49,1H637.11A16.51,16.51,0,0,1,653.6,17.53V51.61H1V17.53A16.51,16.51,0,0,1,17.49,1Z" fill="#fff" stroke="#e0e0e0" stroke-width="2" fill-rule="evenodd"/><path d="M518.88,13.78h24.91V38.69H518.88Z" fill="none"/><path d="M538.46,20.22l-9.57,9.05-4.6-4.72-1.59,1.52,6.11,6.28,1.61-1.5L540,21.78Z"/><path d="M561.32,13.78h24.92V38.69H561.32Z" fill="none"/><path d="M580.13,19.88H567.42L573,25.49v7.1l1.5-1.5v-5.6Z"/><path d="M603.77,13.78h24.91V38.69H603.77Z" fill="none"/><path d="M614.36,29.23h3.73a.56.56,0,1,1,0,1.12h-3.73a.57.57,0,0,1-.57-.56.56.56,0,0,1,.56-.56Z"/><path d="M614.36,31.1h3.73a.56.56,0,1,1,0,1.12h-3.73a.57.57,0,0,1-.57-.56.56.56,0,0,1,.56-.56Z"/><path d="M615,33a1.21,1.21,0,0,0,1.31,1.11A1.22,1.22,0,0,0,617.44,33Z"/><path d="M616.22,18.39h0a4.9,4.9,0,0,0-4.86,4.8v.16A5.14,5.14,0,0,0,611.7,25a5,5,0,0,0,.84,1.38,9.49,9.49,0,0,1,1.14,1.85.35.35,0,0,0,.34.21h4.41a.35.35,0,0,0,.33-.21,9.49,9.49,0,0,1,1.14-1.85,4.55,4.55,0,0,0,.85-1.38,5.39,5.39,0,0,0,.33-1.68v-.17A4.89,4.89,0,0,0,616.22,18.39ZM620,23.34a4.18,4.18,0,0,1-.26,1.31,3.07,3.07,0,0,1-.64,1A7.77,7.77,0,0,0,618,27.36h-3.5a9.25,9.25,0,0,0-1.08-1.68,3.56,3.56,0,0,1-.9-2.34v-.15a3.78,3.78,0,0,1,3.74-3.7h0a3.75,3.75,0,0,1,3.74,3.7v.15Z"/><path d="M476.43,13.78h24.92V38.69H476.43Z" fill="none"/><path d="M495.9,31.4l-2.34-2.34a1.31,1.31,0,0,0-1.16-.36l-.82-.82a5.62,5.62,0,1,0-10.09-3.44,5.62,5.62,0,0,0,9,4.49l.83.82a1.28,1.28,0,0,0,.35,1.16l2.34,2.34a1.31,1.31,0,0,0,1.85,0l0,0A1.34,1.34,0,0,0,495.9,31.4ZM487.11,29a4.49,4.49,0,1,1,4.49-4.49h0A4.5,4.5,0,0,1,487.11,29Z"/><path d="M30.83,33.58a1.58,1.58,0,1,1-1.58,1.58,1.58,1.58,0,0,1,1.58-1.58Zm8.85,0a1.58,1.58,0,1,1-1.58,1.58,1.59,1.59,0,0,1,1.58-1.58Zm8.86,0A1.58,1.58,0,1,1,47,35.16a1.58,1.58,0,0,1,1.58-1.58ZM30.83,24.72a1.59,1.59,0,1,1-1.58,1.58,1.58,1.58,0,0,1,1.58-1.58Zm8.85,0A1.59,1.59,0,1,1,38.1,26.3a1.59,1.59,0,0,1,1.58-1.58Zm8.86,0A1.59,1.59,0,1,1,47,26.3a1.58,1.58,0,0,1,1.58-1.58ZM30.83,15.86a1.59,1.59,0,1,1-1.58,1.58,1.58,1.58,0,0,1,1.58-1.58Zm8.85,0a1.59,1.59,0,1,1-1.58,1.58,1.59,1.59,0,0,1,1.58-1.58Zm8.86,0A1.59,1.59,0,1,1,47,17.44a1.58,1.58,0,0,1,1.58-1.58Z" fill="#1e1e1e" fill-rule="evenodd"/><path d="M116.59,20.51a7.19,7.19,0,0,0-3.52.86,6.09,6.09,0,0,0-2.4,2.4,7.72,7.72,0,0,0,0,7.08,5.82,5.82,0,0,0,2.41,2.38,7.3,7.3,0,0,0,3.6.85,8.1,8.1,0,0,0,3.19-.62,6.77,6.77,0,0,0,2.43-1.7L120.53,30a4.61,4.61,0,0,1-1.63,1.12,5.26,5.26,0,0,1-2,.38,3.76,3.76,0,0,1-3.82-3H123v-1a7.41,7.41,0,0,0-1.61-5.12A6,6,0,0,0,116.59,20.51Zm-3.54,5.74a3.74,3.74,0,0,1,1.17-2.35,3.44,3.44,0,0,1,2.39-.86,3.55,3.55,0,0,1,2.45.87,3.28,3.28,0,0,1,1,2.34Z" fill="#1e1e1e"/><path d="M164.87,27.94a4.29,4.29,0,0,0-1.55-1.22,19.19,19.19,0,0,0-2.3-.84,9.9,9.9,0,0,1-1.93-.71,1.05,1.05,0,0,1-.63-1,.92.92,0,0,1,.48-.88,2.6,2.6,0,0,1,1.31-.3,6.36,6.36,0,0,1,1.88.34,9.59,9.59,0,0,1,2,.9l1.16-2.35A8,8,0,0,0,163,20.87a9.25,9.25,0,0,0-2.61-.37,6,6,0,0,0-3.6,1,3.43,3.43,0,0,0-1.44,3A3.25,3.25,0,0,0,156,26.6a4,4,0,0,0,1.48,1.17,16.9,16.9,0,0,0,2.2.78,12.05,12.05,0,0,1,2,.78,1.14,1.14,0,0,1,.63,1,1,1,0,0,1-.55.94,2.83,2.83,0,0,1-1.43.32,7.48,7.48,0,0,1-2.38-.44A6.41,6.41,0,0,1,155.86,30l-1.1,2.28a7.08,7.08,0,0,0,2.5,1.39,9.63,9.63,0,0,0,3,.49A6.59,6.59,0,0,0,164,33.08a3.41,3.41,0,0,0,1.49-3A3.27,3.27,0,0,0,164.87,27.94Z" fill="#1e1e1e"/><path d="M146.2,20.66a6.88,6.88,0,0,0-7,6.73,7,7,0,0,0,14.05,0A6.89,6.89,0,0,0,146.2,20.66Zm0,10.89a4.28,4.28,0,0,1-4.39-4.15h0a4.39,4.39,0,0,1,8.73,0,4.27,4.27,0,0,1-4.34,4.16Z" fill="#f16322"/><path d="M106,21.89a4.76,4.76,0,0,0-3.61-1.39,5.09,5.09,0,0,0-4.82,2.67V16.64l-3.25-1.18V34h3.26V27.42a4,4,0,0,1,.94-2.75,3.33,3.33,0,0,1,2.58-1.1,2.94,2.94,0,0,1,2.18.81,3.09,3.09,0,0,1,.8,2.23V34h3.24V25.65A5.24,5.24,0,0,0,106,21.89Z" fill="#1e1e1e"/><path d="M125.92,34h3.24V16.65l-3.24-1.19Z" fill="#1e1e1e"/><path d="M133.34,34h3.26V21.81l-3.26-1.18Z" fill="#1e1e1e"/><path d="M68.41,28.83a9.72,9.72,0,0,1-.63-3.54,9.34,9.34,0,0,1,9.11-9.55h0a9.35,9.35,0,0,1,9.17,9.53v0a10.16,10.16,0,0,1-.63,3.54h2.4a12.14,12.14,0,0,0,.52-3.54,11.47,11.47,0,1,0-22.92,0A12.2,12.2,0,0,0,66,28.84Z" fill="#f16322"/><path d="M88.84,32.44H65.05a1.14,1.14,0,0,1-.22-2.27h.06a.43.43,0,0,1,.16,0h23.8A1.14,1.14,0,0,1,89,32.44Z" fill="#f16322"/><path d="M84.08,33.47H69.74a1.14,1.14,0,0,0-.15,2.27H84.08a1.14,1.14,0,0,0,.15-2.27h-.15" fill="#f5884f"/><path d="M79.45,36.77h-5A1.14,1.14,0,0,0,74.22,39h5.23a1.14,1.14,0,0,0,0-2.28" fill="#f8ac80"/><path d="M177,20.54h45a6.81,6.81,0,0,1,0,13.62H177a6.81,6.81,0,0,1,0-13.62Z" fill="#f16322"/><path d="M176.74,27.56a2.44,2.44,0,0,1,2.44-2.44h.2a2.15,2.15,0,0,1,2.11,1.2l-1.06.57a1.18,1.18,0,0,0-1.06-.62,1.19,1.19,0,0,0-1.25,1.15h0a.38.38,0,0,0,0,.15,1.19,1.19,0,0,0,1.11,1.29.33.33,0,0,0,.14,0,1.18,1.18,0,0,0,1.06-.62l1.06.58a2.2,2.2,0,0,1-2.12,1.2,2.45,2.45,0,0,1-2.62-2.25h0A1.85,1.85,0,0,1,176.74,27.56Z" fill="#fff"/><path d="M182.3,27.56A2.6,2.6,0,1,1,185.06,30h-.16a2.44,2.44,0,0,1-2.6-2.26Zm3.8,0A1.22,1.22,0,0,0,185,26.29a1.2,1.2,0,0,0-1.26,1.09.54.54,0,0,0,0,.18,1.2,1.2,0,0,0,1.15,1.26,1.22,1.22,0,0,0,1.26-1.09.91.91,0,0,0,0-.17Z" fill="#fff"/><path d="M196.75,27.24v2.7h-1.36v-2.5c0-.76-.35-1.11-.9-1.11s-1.05.39-1.05,1.25V30h-1.37v-2.5c0-.77-.32-1.12-.9-1.12s-1,.4-1,1.26V30h-1.37V25.2h1.31v.54a1.89,1.89,0,0,1,1.48-.63,1.78,1.78,0,0,1,1.56.77,2.12,2.12,0,0,1,1.7-.77,1.87,1.87,0,0,1,2,1.76A2.23,2.23,0,0,1,196.75,27.24Z" fill="#fff"/><path d="M203.49,27.56A2.3,2.3,0,0,1,201.33,30h-.2a1.86,1.86,0,0,1-1.42-.57v2.22h-1.36V25.2h1.34v.54a1.84,1.84,0,0,1,1.47-.63,2.29,2.29,0,0,1,2.33,2.26Zm-1.39,0a1.19,1.19,0,0,0-1.16-1.25,1.21,1.21,0,0,0-1.24,1v.25a1.21,1.21,0,0,0,2.4.24,1,1,0,0,0,0-.24Z" fill="#fff"/><path d="M204.81,23.4h1.37v6.51h-1.37Z" fill="#fff"/><path d="M212.43,27.94h-3.57a1.26,1.26,0,0,0,1.35.95,1.61,1.61,0,0,0,1.19-.46l.73.79a2.77,2.77,0,0,1-3.9-.08,2.8,2.8,0,0,1-.74-1.58,2.4,2.4,0,0,1,2.37-2.44H210a2.35,2.35,0,0,1,2.45,2.21v.24A2.36,2.36,0,0,1,212.43,27.94Zm-3.59-.8h2.33a1.18,1.18,0,0,0-1.35-1A1.19,1.19,0,0,0,208.84,27.14Z" fill="#fff"/><path d="M216.85,29.69a2,2,0,0,1-1.12.3A1.56,1.56,0,0,1,214,28.66a1.53,1.53,0,0,1,0-.37V26.35h-.72V25.3H214V24.15h1.37v1.16h1.18v1h-1.18v1.92a.55.55,0,0,0,.47.62h.12a.91.91,0,0,0,.55-.18Z" fill="#fff"/><path d="M222.53,27.94H219a1.26,1.26,0,0,0,1.36.95,1.57,1.57,0,0,0,1.18-.46l.73.79a2.75,2.75,0,0,1-3.89-.08,2.81,2.81,0,0,1-.75-1.58A2.41,2.41,0,0,1,220,25.12h.14a2.34,2.34,0,0,1,2.45,2.21v.24A2.36,2.36,0,0,1,222.53,27.94Zm-3.58-.8h2.32a1.18,1.18,0,0,0-2.32,0Z" fill="#fff"/></svg>