<svg xmlns="http://www.w3.org/2000/svg" xmlns:xlink="http://www.w3.org/1999/xlink" width="783.56" height="484.21" viewBox="0 0 783.56 484.21"><defs><linearGradient id="a" x1="86" y1="94.8" x2="867.56" y2="94.8" gradientUnits="userSpaceOnUse"><stop offset="0" stop-color="#fff"/><stop offset="1" stop-color="#fff3e8"/></linearGradient><linearGradient id="b" x1="464.91" y1="352.11" x2="464.91" y2="350.68" gradientTransform="matrix(781.56, 0, 0, -398, -362875.65, 140149.71)" xlink:href="#a"/><linearGradient id="c" x1="441.72" y1="367.81" x2="442.5" y2="366.44" gradientTransform="matrix(19.92, 0, 0, -19.76, -8674.91, 7668.14)" gradientUnits="userSpaceOnUse"><stop offset="0" stop-color="#fab643"/><stop offset="0.56" stop-color="#f48222"/><stop offset="1" stop-color="#f16322"/></linearGradient><linearGradient id="d" x1="438.38" y1="369.34" x2="439.87" y2="368.75" gradientTransform="matrix(17.76, 0, 0, -17.74, -7670.07, 7008.97)" gradientUnits="userSpaceOnUse"><stop offset="0" stop-color="#ffad38"/><stop offset="1" stop-color="#f36309"/></linearGradient><linearGradient id="e" x1="436.81" y1="371.3" x2="437.61" y2="370.04" gradientTransform="matrix(16.48, 0, 0, -16.24, -7071.82, 6290.11)" xlink:href="#c"/><linearGradient id="f" x1="436.09" y1="368.9" x2="437.28" y2="368.31" gradientTransform="matrix(16.22, 0, 0, -18.1, -6951.44, 6987.09)" xlink:href="#d"/><linearGradient id="g" x1="438.36" y1="369.27" x2="439.84" y2="368.68" gradientTransform="matrix(17.76, 0, 0, -17.74, -7670.04, 6767.64)" xlink:href="#d"/><linearGradient id="h" x1="440.85" y1="366.5" x2="442.15" y2="365.91" gradientTransform="matrix(19.51, 0, 0, -20.88, -8484.59, 8014.92)" xlink:href="#d"/><linearGradient id="i" x1="405.13" y1="392.66" x2="406.61" y2="392.08" gradientTransform="matrix(7.82, 0, 0, -7.82, -3134.73, 3173.86)" xlink:href="#d"/><mask id="j" x="40.14" y="100.82" width="5.1" height="6.73" maskUnits="userSpaceOnUse"><g transform="translate(-85 -63.5)"><polygon points="125.14 164.32 130.24 164.32 130.24 171.06 125.14 171.06 125.14 164.32" fill="#fff" fillRule="evenodd"/></g></mask><linearGradient id="m" x1="406.47" y1="392.65" x2="407.95" y2="392.09" gradientTransform="matrix(8.01, 0, 0, -7.82, -3210.25, 3173.86)" xlink:href="#d"/><linearGradient id="n" x1="405.13" y1="392.66" x2="406.61" y2="392.08" gradientTransform="matrix(7.82, 0, 0, -7.82, -3134.73, 3182.96)" xlink:href="#d"/><linearGradient id="o" x1="405.13" y1="392.66" x2="406.61" y2="392.08" gradientTransform="matrix(7.82, 0, 0, -7.82, -3125.45, 3182.96)" xlink:href="#d"/></defs><path d="M105.75,64.5H847.81a19.78,19.78,0,0,1,19.75,19.8v40.81H86V84.3A19.78,19.78,0,0,1,105.75,64.5Z" transform="translate(-85 -63.5)" stroke="#ffc198" strokeWidth="2" fillRule="evenodd" fill="url(#a)"/><path d="M135.09,199.71H818.47v332.8c0,8.4-7.73,15.2-17.27,15.2H152.37c-9.54,0-17.28-6.8-17.28-15.2Z" transform="translate(-85 -63.5)" fill="#ffc198" fillRule="evenodd" opacity="0.5" style="isolation:isolate"/><path d="M86,124.71H867.56V505.33c0,9.6-8.84,17.38-19.75,17.38H105.75c-10.91,0-19.75-7.78-19.75-17.38Z" transform="translate(-85 -63.5)" stroke="#ffc198" strokeWidth="2" fillRule="evenodd" fill="url(#b)"/><circle cx="47.2" cy="350.94" r="16.79" fill="#fff" stroke="#f7811c" strokeWidth="1"/><path d="M129,414.84l2.41,2.56a1.15,1.15,0,0,0,.34.25v1a25.81,25.81,0,0,0-4.09.5,11.57,11.57,0,0,1-1-4.31Zm6.43,0h2.41a11.64,11.64,0,0,1-1,4.24,20.81,20.81,0,0,0-4.13-.44v-1a1.27,1.27,0,0,0,.33-.24Zm-5.75-5.22v1.9h-1.23a1.11,1.11,0,0,0-.81,1.87l.47.5h-1.49a11.51,11.51,0,0,1,1.17-4.58A19.1,19.1,0,0,0,129.65,409.62Zm4.8.05a22,22,0,0,0,2.2-.34,11.53,11.53,0,0,1,1.16,4.56H136.3l.46-.49a1.12,1.12,0,0,0-.81-1.88h-1.5Zm-4.8-3v2c-.48-.06-1-.14-1.42-.23A9.49,9.49,0,0,1,129.65,406.64Zm4.8-.26a8.48,8.48,0,0,1,1.72,2.08c-.55.11-1.13.19-1.72.26ZM130,404.64a1.41,1.41,0,0,0-.33.71,9.24,9.24,0,0,0-2.45,2.87,11.84,11.84,0,0,1-2.21-.77A9.91,9.91,0,0,1,130,404.64Zm4-.08a10,10,0,0,1,5.34,2.88,11,11,0,0,1-2.2.79,9,9,0,0,0-2.8-3.12A1.64,1.64,0,0,0,134,404.56Zm-2.31,19.76a9.93,9.93,0,0,1-6.91-3.26,11.12,11.12,0,0,1,2.28-.81c1.21,2.25,3,3.8,4.63,4.05Zm.95,0v0c1.67-.26,3.47-1.83,4.67-4.11a11,11,0,0,1,2.28.83A9.89,9.89,0,0,1,132.67,424.32Zm-.95-1a6.53,6.53,0,0,1-3.64-3.3,25.08,25.08,0,0,1,3.64-.43Zm.95,0v-3.74a20.43,20.43,0,0,1,3.69.37A6.59,6.59,0,0,1,132.67,423.33Zm-10.43-8.49h3.4a12.69,12.69,0,0,0,1,4.54,10.46,10.46,0,0,0-2.47.94A9.94,9.94,0,0,1,122.24,414.84Zm0-.95a9.9,9.9,0,0,1,2.13-5.7,12.28,12.28,0,0,0,2.42.9,12.73,12.73,0,0,0-1.15,4.8Zm19.92.95a9.94,9.94,0,0,1-1.93,5.43,11.67,11.67,0,0,0-2.48-1,12.57,12.57,0,0,0,1-4.47Zm0-.95h-3.4a12.64,12.64,0,0,0-1.15-4.79,11.13,11.13,0,0,0,2.4-.93A9.94,9.94,0,0,1,142.16,413.89Zm-13.74-1.53h2.08v-6.75h0a.67.67,0,0,1,.67-.67h1.77a.67.67,0,0,1,.67.67v6.75H136a.27.27,0,0,1,.2.45l-3.77,4a.26.26,0,0,1-.39,0l-3.77-4A.27.27,0,0,1,128.42,412.36Z" transform="translate(-85 -63.5)" fill="url(#c)"/><circle cx="47.07" cy="399.35" r="16.79" fill="#fff" stroke="#f7811c" strokeWidth="1"/><path d="M123.19,457.83v-2.78a1.07,1.07,0,0,1,1.08-1.07h15.59a1.08,1.08,0,0,1,1.09,1.07v2.78Zm12,7.18h2.4v6.71h-2.4Zm-3.36,2.39h2.4v4.32h-2.4Zm6.72-4.31H141v8.63h-2.4Zm-12.48-6.24a1,1,0,1,0-1-1A1,1,0,0,0,126.07,456.85Zm-2.88,1.92H141v3.36h-3.36v1.92h-3.37v2.39h-3.35v3.84h-6.71a1,1,0,0,1-1-1Zm1.92,1.44v1h6.24v-1Zm0,1.92v1h4.32v-1Z" transform="translate(-85 -63.5)" fill="url(#d)"/><circle cx="47.33" cy="206.42" r="16.79" fill="#fff" stroke="#f7811c" strokeWidth="1"/><path d="M133.24,265.61h7.33v9h-7.33V278l-9.15-1.69V263.64l9.15-1.84Zm.13.6v2.43l2.23,1.75,4-4.18Zm0,3.2v4.69h6.73v-7.43l-4.43,4.52Zm-4.75,3.53c1.25,0,2.2-1.27,2.2-2.79a2.27,2.27,0,1,0-2.2,2.79Zm0-.93c-.67,0-1.28-.81-1.28-1.86s.61-1.85,1.28-1.85,1.27.8,1.27,1.85S129.29,272,128.62,272Z" transform="translate(-85 -63.5)" fill="url(#e)"/><circle cx="47.15" cy="252.75" r="16.79" fill="#fff" stroke="#f7811c" strokeWidth="1"/><path d="M138.43,316.79h-6.28a1.59,1.59,0,0,0-1.56,1.27h-1.82v1h1.79v1h-1.79v1h1.79v.45a1.59,1.59,0,0,0,1.59,1.59h6.28v1.29a1,1,0,0,1-1,1H125a1,1,0,0,1-1-1V308.18a1,1,0,0,1,1-1h12.43a1,1,0,0,1,1,1v8.61ZM126,310.16v1.32h10.47v-1.32Zm2.77,3v1h6.71v-1Zm-2.77,0v1.79h1.79v-1.79Zm0,5v1.8h1.79v-1.8Zm2.77-3v1h3.74v-1Zm3.38,2.69h7.49a.61.61,0,0,1,.62.61v3.07a.62.62,0,0,1-.62.62h-7.49a.62.62,0,0,1-.62-.62v-3.07A.61.61,0,0,1,132.15,317.77Zm.61,3.53h.6v-2.72h-.6Zm1.38,0h1.06a1.36,1.36,0,1,0,0-2.72h-1.06Zm.6-.54v-1.64h.46a.77.77,0,0,1,.81.82h0a.77.77,0,0,1-.81.81Zm3.46.58c.58,0,1-.3,1-.85s-.31-.67-.86-.82-.58-.18-.58-.36.12-.24.35-.24a1.23,1.23,0,0,1,.7.27l.31-.45a1.51,1.51,0,0,0-1-.35.85.85,0,0,0-.94.83c0,.54.35.69.89.83s.55.2.55.36-.15.25-.39.25a1.24,1.24,0,0,1-.81-.33l-.35.43A1.71,1.71,0,0,0,138.2,321.34Z" transform="translate(-85 -63.5)" fill="url(#f)"/><circle cx="47.1" cy="158.02" r="16.79" fill="#fff" stroke="#f7811c" strokeWidth="1"/><path d="M123.22,218.88H141v10.54a1,1,0,0,1-1,1H124.19a1,1,0,0,1-1-1Zm3.85,1.92a.49.49,0,0,0-.49.49v1.9a.49.49,0,0,0,.49.49H129a.49.49,0,0,0,.49-.49v-1.9a.49.49,0,0,0-.49-.49Zm0,4.31a.49.49,0,0,0-.49.49v1.9a.49.49,0,0,0,.49.49H129a.49.49,0,0,0,.49-.49v-1.9a.49.49,0,0,0-.49-.49Zm3.83-4.31v1h6.72v-1Zm0,4.31v1h6.72v-1Zm0-2.39v1h4.8v-1Zm0,4.31v1h4.8v-1ZM140,214.56a1,1,0,0,1,1,1v2.4H123.22v-2.4a1,1,0,0,1,1-1h2.4v-.94a1,1,0,0,1,1-1H129a1,1,0,0,1,1,1v.94h4.32v-.94a1,1,0,0,1,1-1h1.41a1,1,0,0,1,1,1v.94Z" transform="translate(-85 -63.5)" fill="url(#g)"/><circle cx="47.02" cy="304.61" r="16.79" fill="#fff" stroke="#f7811c" strokeWidth="1"/><path d="M132,372.47v-3.8h3.93a16.41,16.41,0,0,1-.61,4.08,23.12,23.12,0,0,0-3.32-.28Zm0-8.87a23.07,23.07,0,0,0,3.22-.29,15.84,15.84,0,0,1,.71,4.41H132V363.6Zm0,14.57v0c1.69-.27,3.12-1.91,4-4.31a13.37,13.37,0,0,1,3.2,1,10.4,10.4,0,0,1-7.19,3.31Zm0-1v-3.74a21.55,21.55,0,0,1,3,.23c-.73,1.92-1.81,3.23-3,3.51Zm0-19a10.48,10.48,0,0,1,6.94,3,12.9,12.9,0,0,1-3.07,1c-.88-2.21-2.25-3.72-3.87-4v0Zm0,1c1.13.27,2.16,1.45,2.88,3.19a21.24,21.24,0,0,1-2.88.24v-3.43Zm9.82,9.46a9.75,9.75,0,0,1-2,5.44,13.47,13.47,0,0,0-3.54-1.19,17.48,17.48,0,0,0,.62-4.25Zm0-.95h-4.91a17,17,0,0,0-.72-4.59,13.49,13.49,0,0,0,3.41-1.14,9.75,9.75,0,0,1,2.22,5.73Zm-11.08-10.05v20.89h-2.17v-1.89c-4.25-.29-6.06-2.54-6.26-5.53h3.63a2.76,2.76,0,0,0,2.63,2.77v-4.58c-3.9-.59-5.77-2-5.77-5.1,0-2.73,2.26-4.75,5.77-5v-1.57Zm-4.41,6.25c0,1.09.42,1.69,2.24,2v-4C127.07,362.14,126.28,362.92,126.28,363.92Z" transform="translate(-85 -63.5)" fill="url(#h)"/><circle cx="47.33" cy="108.92" r="16.79" fill="#fff" stroke="#f7811c" strokeWidth="1"/><polygon points="38.78 100.37 46.6 100.37 46.6 108.19 38.78 108.19 38.78 100.37" fill="url(#i)"/><g mask="url(#j)"><g mask="url(#j)"><g mask="url(#j)"><path d="M128.94,168.93v1.17a.14.14,0,0,1-.14.14h0l-1.07-.36-1.06.36a.12.12,0,0,1-.17-.09.06.06,0,0,1,0,0v-1.16a.68.68,0,0,0,.83.34l.41-.13.41.13a.68.68,0,0,0,.83-.35Zm-1.25-.07-.49.16a.43.43,0,0,1-.51-.21l-.24-.47-.46-.24a.43.43,0,0,1-.21-.51l.16-.5-.16-.5a.44.44,0,0,1,.21-.51l.46-.24.24-.46a.43.43,0,0,1,.51-.22l.49.17.49-.17a.43.43,0,0,1,.51.22l.23.46.47.24a.44.44,0,0,1,.21.51l-.16.5.16.5a.43.43,0,0,1-.21.51l-.47.24-.23.47a.44.44,0,0,1-.51.21Zm0-.41a1.38,1.38,0,1,0-1.38-1.38A1.38,1.38,0,0,0,127.69,168.45Zm0-.28a1.1,1.1,0,1,1,1.1-1.1A1.1,1.1,0,0,1,127.69,168.17Zm-.17-.49v-.36h.2a.41.41,0,0,0,.46-.4.39.39,0,0,0-.44-.4h-.46v1.16Zm.2-.59h-.2v-.34h.2c.14,0,.21.06.21.17h0C127.93,167,127.85,167.09,127.72,167.09Z" transform="translate(-85 -63.5)"/><path d="M128.94,168.93v1.17a.14.14,0,0,1-.14.14h0l-1.07-.36-1.06.36a.12.12,0,0,1-.17-.09.06.06,0,0,1,0,0v-1.16a.68.68,0,0,0,.83.34l.41-.13.41.13a.68.68,0,0,0,.83-.35Zm-1.25-.07-.49.16a.43.43,0,0,1-.51-.21l-.24-.47-.46-.24a.43.43,0,0,1-.21-.51l.16-.5-.16-.5a.44.44,0,0,1,.21-.51l.46-.24.24-.46a.43.43,0,0,1,.51-.22l.49.17.49-.17a.43.43,0,0,1,.51.22l.23.46.47.24a.44.44,0,0,1,.21.51l-.16.5.16.5a.43.43,0,0,1-.21.51l-.47.24-.23.47a.44.44,0,0,1-.51.21Zm0-.41a1.38,1.38,0,1,0-1.38-1.38A1.38,1.38,0,0,0,127.69,168.45Zm0-.28a1.1,1.1,0,1,1,1.1-1.1A1.1,1.1,0,0,1,127.69,168.17Zm-.17-.49v-.36h.2a.41.41,0,0,0,.46-.4.39.39,0,0,0-.44-.4h-.46v1.16Zm.2-.59h-.2v-.34h.2c.14,0,.21.06.21.17h0C127.93,167,127.85,167.09,127.72,167.09Z" transform="translate(-85 -63.5)" fill="#f9f9f9"/></g></g></g><polygon points="47.88 100.37 55.88 100.37 55.88 108.19 47.88 108.19 47.88 100.37" fill="url(#m)"/><path d="M135.38,169.37v-2.8h1.07v-.38h-2.58v.38h1.07v2.8Zm1.87,0v-1.88c0-.07,0-.19,0-.35v-.45l.91,2.68h.43l.91-2.68c0,.17,0,.33,0,.48v2.2h.41v-3.18h-.61l-.91,2.69-.92-2.69h-.61v3.18Z" transform="translate(-85 -63.5)" fill="#fff" fillRule="evenodd"/><polygon points="38.78 109.47 46.6 109.47 46.6 117.29 38.78 117.29 38.78 109.47" fill="url(#n)"/><polygon points="48.06 109.47 55.88 109.47 55.88 117.29 48.06 117.29 48.06 109.47" fill="url(#o)"/><path d="M127.72,179a1.52,1.52,0,0,0,1.41-.79,2.78,2.78,0,0,0,.33-1.41,3.58,3.58,0,0,0-.08-.7,1.75,1.75,0,0,0-.3-.67,1.33,1.33,0,0,0-.71-.53,2,2,0,0,0-.65-.09h-1.8V179Zm-.15-.73h-.8v-2.74h.8a.84.84,0,0,1,.8.35,2,2,0,0,1,.2,1,2.17,2.17,0,0,1-.13.8.89.89,0,0,1-.87.61Z" transform="translate(-85 -63.5)"/><path d="M127.72,179a1.52,1.52,0,0,0,1.41-.79,2.78,2.78,0,0,0,.33-1.41,3.58,3.58,0,0,0-.08-.7,1.75,1.75,0,0,0-.3-.67,1.33,1.33,0,0,0-.71-.53,2,2,0,0,0-.65-.09h-1.8V179Zm-.15-.73h-.8v-2.74h.8a.84.84,0,0,1,.8.35,2,2,0,0,1,.2,1,2.17,2.17,0,0,1-.13.8.89.89,0,0,1-.87.61Z" transform="translate(-85 -63.5)" fill="#f9f9f9"/><path d="M137,174.24a2.64,2.64,0,1,1-2.64,2.64A2.64,2.64,0,0,1,137,174.24Zm0,.46a2.18,2.18,0,1,0,2.18,2.18A2.17,2.17,0,0,0,137,174.7Zm.07,1.1a.88.88,0,0,1,.62.23.66.66,0,0,1,.17.27l0,.11-.42.1,0-.07a.35.35,0,0,0-.13-.18.4.4,0,0,0-.28-.1.49.49,0,0,0-.38.17.79.79,0,0,0-.15.54.83.83,0,0,0,.15.56.46.46,0,0,0,.66.06.56.56,0,0,0,.14-.23l0-.1.41.13,0,.13a.8.8,0,0,1-.27.37.88.88,0,0,1-.55.17.89.89,0,0,1-.68-.29,1,1,0,0,1-.27-.77,1.13,1.13,0,0,1,.27-.81A.93.93,0,0,1,137,175.8Z" transform="translate(-85 -63.5)" fill="#fff" fillRule="evenodd"/><path d="M174,155.14H352.41c7.06,0,12.79,7.42,12.79,16.57V463.56c0,9.15-5.73,16.58-12.79,16.58H174c-7.06,0-12.79-7.43-12.79-16.58V171.71C161.2,162.56,166.93,155.14,174,155.14Z" transform="translate(-85 -63.5)" fill="#fff" fillRule="evenodd"/><polygon points="146.15 117.29 248.44 117.29 248.44 125.61 146.15 125.61 146.15 117.29" fill="#f7811c" fillRule="evenodd"/><polygon points="146.15 166.64 248.44 166.64 248.44 174.96 146.15 174.96 146.15 166.64" fill="#f7811c" fillRule="evenodd"/><polygon points="146.15 131.16 215.04 131.16 215.04 139.48 146.15 139.48 146.15 131.16" fill="#ffdbbb" fillRule="evenodd"/><polygon points="146.15 180.5 215.04 180.5 215.04 188.82 146.15 188.82 146.15 180.5" fill="#ffdbbb" fillRule="evenodd"/><path d="M216.33,181.79H193.45v23h22.88Z" transform="translate(-85 -63.5)" fill="none" stroke="#f7811c" strokeWidth="2"/><path d="M216.33,231.14H193.45v23h22.88Z" transform="translate(-85 -63.5)" fill="none" stroke="#f7811c" strokeWidth="2"/><polygon points="146.15 216.4 248.44 216.4 248.44 224.72 146.15 224.72 146.15 216.4" fill="#f7811c" fillRule="evenodd"/><polygon points="146.15 230.26 215.04 230.26 215.04 238.59 146.15 238.59 146.15 230.26" fill="#ffdbbb" fillRule="evenodd"/><path d="M216.33,280.9H193.45v23h22.88Z" transform="translate(-85 -63.5)" fill="none" stroke="#f7811c" strokeWidth="2"/><polygon points="146.15 266.16 248.44 266.16 248.44 274.48 146.15 274.48 146.15 266.16" fill="#f7811c" fillRule="evenodd"/><polygon points="146.15 280.02 215.04 280.02 215.04 288.35 146.15 288.35 146.15 280.02" fill="#ffdbbb" fillRule="evenodd"/><path d="M216.33,330.66H193.45v23h22.88Z" transform="translate(-85 -63.5)" fill="none" stroke="#f7811c" strokeWidth="2"/><polygon points="146.15 315.92 248.44 315.92 248.44 324.24 146.15 324.24 146.15 315.92" fill="#f7811c" fillRule="evenodd"/><polygon points="146.15 329.79 215.04 329.79 215.04 338.11 146.15 338.11 146.15 329.79" fill="#ffdbbb" fillRule="evenodd"/><path d="M216.33,380.42H193.45v23h22.88Z" transform="translate(-85 -63.5)" fill="none" stroke="#f7811c" strokeWidth="2"/><polygon points="146.15 365.68 248.44 365.68 248.44 374 146.15 374 146.15 365.68" fill="#f7811c" fillRule="evenodd"/><polygon points="146.15 379.55 215.04 379.55 215.04 387.87 146.15 387.87 146.15 379.55" fill="#ffdbbb" fillRule="evenodd"/><path d="M216.33,430.18H193.45v23h22.88Z" transform="translate(-85 -63.5)" fill="none" stroke="#f7811c" strokeWidth="2"/><path d="M386,155.11H828.53c5.44,0,9.85,4.12,9.85,9.2V470.5c0,5.09-4.41,9.21-9.85,9.21H386c-5.44,0-9.85-4.12-9.85-9.21V164.31C376.14,159.23,380.55,155.11,386,155.11Z" transform="translate(-85 -63.5)" fill="#fff" fillRule="evenodd"/><polygon points="324.92 223.59 364.03 223.59 364.03 228.94 324.92 228.94 324.92 223.59" fill="#f7811c" fillRule="evenodd"/><polygon points="324.92 232.5 351.59 232.5 351.59 237.86 324.92 237.86 324.92 232.5" fill="#ffc73e" fillRule="evenodd"/><path d="M398.91,278.17H680.49a1.43,1.43,0,0,1,1.44,1.44V355.2a1.43,1.43,0,0,1-1.44,1.44H398.91a1.44,1.44,0,0,1-1.44-1.44V279.61A1.44,1.44,0,0,1,398.91,278.17Z" transform="translate(-85 -63.5)" fill="none" stroke="#e9e9e9"/><path d="M398.91,176.51H529.37a1.44,1.44,0,0,1,1.44,1.44V269.6a1.44,1.44,0,0,1-1.44,1.44H398.91a1.45,1.45,0,0,1-1.44-1.44V178A1.45,1.45,0,0,1,398.91,176.51Z" transform="translate(-85 -63.5)" fill="none" stroke="#e9e9e9"/><polygon points="612.93 230.72 652.04 230.72 652.04 237.86 612.93 237.86 612.93 230.72" fill="#f7811c" fillRule="evenodd"/><path d="M697.93,306.71h30.22v3.56H697.93Zm0,7.13h17.78v3.57H697.93Zm0,7.13h30.22v3.57H697.93Zm0,7.14h17.78v3.57H697.93Z" transform="translate(-85 -63.5)" fill="#ffdbbb" fillRule="evenodd"/><path d="M697.93,338.81h17.78v3.57H697.93Zm23.11,0h14.23v3.57H721Z" transform="translate(-85 -63.5)" fill="#ffc73e" fillRule="evenodd"/><path d="M398.91,363.78H529.37a1.43,1.43,0,0,1,1.44,1.44v91.64a1.43,1.43,0,0,1-1.44,1.44H398.91a1.44,1.44,0,0,1-1.44-1.44V365.22A1.44,1.44,0,0,1,398.91,363.78Z" transform="translate(-85 -63.5)" fill="none" stroke="#e9e9e9"/><path d="M539.36,176.51H680.49a1.44,1.44,0,0,1,1.44,1.44V269.6a1.44,1.44,0,0,1-1.44,1.44H539.36a1.45,1.45,0,0,1-1.44-1.44V178A1.45,1.45,0,0,1,539.36,176.51Z" transform="translate(-85 -63.5)" fill="none" stroke="#e9e9e9"/><path d="M539.36,363.78H680.49a1.43,1.43,0,0,1,1.44,1.44v91.64a1.43,1.43,0,0,1-1.44,1.44H539.36a1.44,1.44,0,0,1-1.44-1.44V365.22A1.44,1.44,0,0,1,539.36,363.78Z" transform="translate(-85 -63.5)" fill="none" stroke="#e9e9e9"/><path d="M690.48,176.51H815.61a1.45,1.45,0,0,1,1.44,1.44V269.6a1.45,1.45,0,0,1-1.44,1.44H690.48A1.45,1.45,0,0,1,689,269.6V178A1.45,1.45,0,0,1,690.48,176.51Z" transform="translate(-85 -63.5)" fill="none" stroke="#e9e9e9"/><path d="M690.48,363.78H815.61a1.44,1.44,0,0,1,1.44,1.44v91.64a1.44,1.44,0,0,1-1.44,1.44H690.48a1.44,1.44,0,0,1-1.44-1.44V365.22A1.44,1.44,0,0,1,690.48,363.78Z" transform="translate(-85 -63.5)" fill="none" stroke="#e9e9e9"/><path d="M690.48,278.17H815.61a1.44,1.44,0,0,1,1.44,1.44V355.2a1.44,1.44,0,0,1-1.44,1.44H690.48A1.44,1.44,0,0,1,689,355.2V279.61A1.44,1.44,0,0,1,690.48,278.17Z" transform="translate(-85 -63.5)" fill="none" stroke="#e9e9e9"/><polygon points="324.92 268.18 351.59 268.18 351.59 282.44 324.92 282.44 324.92 268.18" fill="#ffdbbb" fillRule="evenodd"/><polygon points="351.59 268.18 431.59 268.18 431.59 282.44 351.59 282.44 351.59 268.18" fill="#ffc73e" fillRule="evenodd"/><polygon points="431.59 268.18 584.49 268.18 584.49 282.44 431.59 282.44 431.59 268.18" fill="#f7811c" fillRule="evenodd"/><polygon points="351.59 266.39 346.25 261.04 356.92 261.04 351.59 266.39" fill="#f7811c" fillRule="evenodd"/><polygon points="324.92 266.39 319.58 261.04 330.25 261.04 324.92 266.39" fill="#f7811c" fillRule="evenodd"/><polygon points="431.59 266.39 426.26 261.04 436.92 261.04 431.59 266.39" fill="#f7811c" fillRule="evenodd"/><polygon points="584.49 266.39 579.15 261.04 589.82 261.04 584.49 266.39" fill="#f7811c" fillRule="evenodd"/><path d="M797.28,298a27.51,27.51,0,1,0,8,19.42A27.22,27.22,0,0,0,797.28,298Z" transform="translate(-85 -63.5)" fill="none" stroke="#ffdbbb" strokeWidth="2.16"/><path d="M798.05,337.59a28.49,28.49,0,1,1-40.23-40.36h0" transform="translate(-85 -63.5)" fill="none" stroke="#ffc73e" strokeWidth="2.16"/><path d="M798.05,297.23a28.49,28.49,0,0,1-40.23,40.36h0" transform="translate(-85 -63.5)" fill="none" stroke="#f7811c" strokeWidth="2.16"/><polygon points="323.14 123.71 392.48 123.71 392.48 130.85 323.14 130.85 323.14 123.71" fill="#f7811c" fillRule="evenodd"/><path d="M408.14,199.7h48v3.56h-48Zm0,7.13H443.7v3.57H408.14Zm0,7.13h48v3.57h-48Zm0,7.14H443.7v3.57H408.14Z" transform="translate(-85 -63.5)" fill="#ffdbbb" fillRule="evenodd"/><path d="M459.7,199.7h30.22v3.56H459.7Zm-12.45,7.13h48v3.57h-48ZM459.7,214h30.22v3.57H459.7Zm-12.45,7.14h48v3.57h-48Z" transform="translate(-85 -63.5)" fill="#ffdbbb" fillRule="evenodd"/><path d="M408.14,231.8h17.78v3.57H408.14Zm23.11,0h14.23v3.57H431.25Z" transform="translate(-85 -63.5)" fill="#ffc73e" fillRule="evenodd"/><polygon points="463.59 123.71 532.93 123.71 532.93 130.85 463.59 130.85 463.59 123.71" fill="#f7811c" fillRule="evenodd"/><path d="M548.59,199.7h48v3.56h-48Zm0,7.13h35.56v3.57H548.59Zm0,7.13h48v3.57h-48Zm0,7.14h35.56v3.57H548.59Z" transform="translate(-85 -63.5)" fill="#ffdbbb" fillRule="evenodd"/><path d="M600.15,199.7h30.22v3.56H600.15Zm-12.45,7.13h48v3.57h-48ZM600.15,214h30.22v3.57H600.15ZM587.7,221.1h48v3.57h-48Z" transform="translate(-85 -63.5)" fill="#ffdbbb" fillRule="evenodd"/><path d="M548.59,228.23h48v3.57h-48Zm0,7.14h35.56v3.56H548.59Z" transform="translate(-85 -63.5)" fill="#ffdbbb" fillRule="evenodd"/><path d="M600.15,228.23h17.78v3.57H600.15Zm-12.45,7.14h35.56v3.56H587.7Z" transform="translate(-85 -63.5)" fill="#ffdbbb" fillRule="evenodd"/><path d="M548.59,258.55h17.78v3.57H548.59Zm23.11,0h14.23v3.57H571.7Z" transform="translate(-85 -63.5)" fill="#ffc73e" fillRule="evenodd"/><polygon points="614.71 123.71 684.04 123.71 684.04 130.85 614.71 130.85 614.71 123.71" fill="#f7811c" fillRule="evenodd"/><path d="M699.71,199.7h48v3.56h-48Zm0,7.13h35.56v3.57H699.71Zm0,7.13h48v3.57h-48Zm0,7.14h35.56v3.57H699.71Z" transform="translate(-85 -63.5)" fill="#ffdbbb" fillRule="evenodd"/><path d="M751.27,199.7h30.22v3.56H751.27Zm-12.45,7.13h48v3.57h-48ZM751.27,214h30.22v3.57H751.27Zm-12.45,7.14h48v3.57h-48Z" transform="translate(-85 -63.5)" fill="#ffdbbb" fillRule="evenodd"/><path d="M699.71,231.8h17.78v3.57H699.71Zm23.11,0H737v3.57H722.82Z" transform="translate(-85 -63.5)" fill="#ffc73e" fillRule="evenodd"/><polygon points="614.71 310.98 684.04 310.98 684.04 318.11 614.71 318.11 614.71 310.98" fill="#f7811c" fillRule="evenodd"/><path d="M699.71,387h48v3.57h-48Zm0,7.14h35.56v3.56H699.71Zm0,7.13h48v3.57h-48Zm0,7.14h35.56v3.56H699.71Z" transform="translate(-85 -63.5)" fill="#ffdbbb" fillRule="evenodd"/><path d="M751.27,387h30.22v3.57H751.27Zm-12.45,7.14h48v3.56h-48Zm12.45,7.13h30.22v3.57H751.27Zm-12.45,7.14h48v3.56h-48Z" transform="translate(-85 -63.5)" fill="#ffdbbb" fillRule="evenodd"/><path d="M699.71,419.07h17.78v3.56H699.71Zm23.11,0H737v3.56H722.82Z" transform="translate(-85 -63.5)" fill="#ffc73e" fillRule="evenodd"/><ellipse cx="354.25" cy="347.54" rx="32.89" ry="32.99" fill="#f7811c"/><path d="M438.36,444v-66h.89a33,33,0,0,1,0,66Z" transform="translate(-85 -63.5)" fill="#ffc73e" fillRule="evenodd"/><path d="M438.36,444V411l28.77,17.52A32.87,32.87,0,0,1,439.25,444Z" transform="translate(-85 -63.5)" fill="#ffdbbb" fillRule="evenodd"/><path d="M486.37,392.67h3.91A1.38,1.38,0,0,1,491.7,394v5.88a1.38,1.38,0,0,1-1.42,1.34h-9.6a1.39,1.39,0,0,1-1.43-1.34v-8a1.39,1.39,0,0,1,1.43-1.34H484Z" transform="translate(-85 -63.5)" fill="#ffc73e" fillRule="evenodd"/><path d="M479.25,406.58h39.12v3.57H479.25Zm0,7.14h26.67v3.56H479.25Zm0,7.13h39.12v3.57H479.25Zm0,7.13h26.67v3.57H479.25Z" transform="translate(-85 -63.5)" fill="#ffdcbd" fillRule="evenodd"/><polygon points="413.81 330.6 436.92 330.6 436.92 334.16 413.81 334.16 413.81 330.6" fill="#f7811c" fillRule="evenodd"/><polygon points="467.15 375.19 484.93 375.19 484.93 387.67 467.15 387.67 467.15 375.19" fill="#ffdbbb" fillRule="evenodd"/><polygon points="486.7 360.92 504.48 360.92 504.48 387.67 486.7 387.67 486.7 360.92" fill="#f7811c" fillRule="evenodd"/><polygon points="506.26 346.65 524.04 346.65 524.04 387.67 506.26 387.67 506.26 346.65" fill="#ffc73e" fillRule="evenodd"/><polygon points="525.82 366.27 543.59 366.27 543.59 387.67 525.82 387.67 525.82 366.27" fill="#ffdbbb" fillRule="evenodd"/><polygon points="545.37 355.57 563.15 355.57 563.15 387.67 545.37 387.67 545.37 355.57" fill="#ffc73e" fillRule="evenodd"/><polygon points="564.93 328.81 582.71 328.81 582.71 387.67 564.93 387.67 564.93 328.81" fill="#f7811c" fillRule="evenodd"/><polygon points="621.21 16.3 651.05 16.3 651.05 46.14 621.21 46.14 621.21 16.3" fill="none"/><polygon points="644.66 24.02 633.2 34.85 627.69 29.21 625.79 31.02 633.11 38.54 635.04 36.75 646.48 25.89 644.66 24.02"/><polygon points="672.05 16.3 701.89 16.3 701.89 46.14 672.05 46.14 672.05 16.3" fill="none"/><polygon points="694.58 23.61 679.36 23.61 686.07 30.33 686.07 37.04 686.07 38.84 687.86 37.04 687.86 30.33 694.58 23.61"/><polygon points="722.88 16.3 752.72 16.3 752.72 46.14 722.88 46.14 722.88 16.3" fill="none"/><path d="M820.56,98.31H825a.67.67,0,0,1,0,1.34h-4.48a.67.67,0,0,1,0-1.34Z" transform="translate(-85 -63.5)"/><path d="M820.56,100.54H825a.67.67,0,0,1,.67.68.66.66,0,0,1-.67.67h-4.48a.66.66,0,0,1-.67-.67A.67.67,0,0,1,820.56,100.54Z" transform="translate(-85 -63.5)"/><path d="M821.34,102.78a1.46,1.46,0,0,0,2.92,0Z" transform="translate(-85 -63.5)"/><path d="M822.8,85.32h0A5.87,5.87,0,0,0,817,91.07v.21a6.3,6.3,0,0,0,.4,2,6,6,0,0,0,1,1.66,11.31,11.31,0,0,1,1.37,2.21.41.41,0,0,0,.4.25h5.28a.41.41,0,0,0,.4-.25A11.31,11.31,0,0,1,827.21,95a5.56,5.56,0,0,0,1-1.66,6.3,6.3,0,0,0,.4-2v-.21A5.87,5.87,0,0,0,822.8,85.32Zm4.48,5.93a5.16,5.16,0,0,1-.32,1.57,3.67,3.67,0,0,1-.76,1.23,10.07,10.07,0,0,0-1.3,2h-4.18a12.2,12.2,0,0,0-1.3-2,4.44,4.44,0,0,1-.76-1.23,4.88,4.88,0,0,1-.32-1.57v-.18a4.53,4.53,0,0,1,4.48-4.43h0a4.51,4.51,0,0,1,4.48,4.43v.18Z" transform="translate(-85 -63.5)"/><polygon points="570.38 16.3 600.22 16.3 600.22 46.14 570.38 46.14 570.38 16.3" fill="none"/><path d="M678.7,100.9l-2.8-2.8a1.55,1.55,0,0,0-1.39-.42l-1-1a6.59,6.59,0,0,0,1.39-4.07A6.74,6.74,0,1,0,672.27,98l1,1a1.54,1.54,0,0,0,.42,1.39l2.8,2.8a1.59,1.59,0,0,0,1.12.47,1.57,1.57,0,0,0,1.1-2.69ZM668.17,98a5.38,5.38,0,1,1,5.38-5.37A5.39,5.39,0,0,1,668.17,98Z" transform="translate(-85 -63.5)"/><path d="M121.72,103.52a1.89,1.89,0,1,1-1.89,1.89A1.89,1.89,0,0,1,121.72,103.52Zm10.61,0a1.89,1.89,0,1,1-1.9,1.89A1.89,1.89,0,0,1,132.33,103.52Zm10.6,0a1.89,1.89,0,1,1-1.89,1.89A1.89,1.89,0,0,1,142.93,103.52ZM121.72,92.91a1.9,1.9,0,1,1-1.89,1.89A1.9,1.9,0,0,1,121.72,92.91Zm10.61,0a1.9,1.9,0,1,1-1.9,1.89A1.89,1.89,0,0,1,132.33,92.91Zm10.6,0A1.9,1.9,0,1,1,141,94.8,1.9,1.9,0,0,1,142.93,92.91ZM121.72,82.3a1.9,1.9,0,1,1-1.89,1.9A1.9,1.9,0,0,1,121.72,82.3Zm10.61,0a1.9,1.9,0,1,1-1.9,1.9A1.9,1.9,0,0,1,132.33,82.3Zm10.6,0A1.9,1.9,0,1,1,141,84.2,1.9,1.9,0,0,1,142.93,82.3Z" transform="translate(-85 -63.5)" fill="#1e1e1e" fillRule="evenodd"/><path d="M224.43,87.87a8.63,8.63,0,0,0-4.22,1,7.45,7.45,0,0,0-2.88,2.88,9.3,9.3,0,0,0,0,8.49,7.06,7.06,0,0,0,2.88,2.85,8.88,8.88,0,0,0,4.32,1,9.8,9.8,0,0,0,3.81-.75,7.92,7.92,0,0,0,2.91-2l-2.09-2.15a5.71,5.71,0,0,1-2,1.34,6.3,6.3,0,0,1-2.35.45,4.49,4.49,0,0,1-4.57-3.63h11.8V96.18a8.91,8.91,0,0,0-1.93-6.13A7.19,7.19,0,0,0,224.43,87.87Zm-4.24,6.87a4.48,4.48,0,0,1,1.41-2.82,4.15,4.15,0,0,1,2.86-1,4.26,4.26,0,0,1,2.93,1,3.89,3.89,0,0,1,1.17,2.8Z" transform="translate(-85 -63.5)" fill="#1e1e1e"/><path d="M282.26,96.76a5.11,5.11,0,0,0-1.87-1.45,22.05,22.05,0,0,0-2.75-1,12.54,12.54,0,0,1-2.31-.85,1.25,1.25,0,0,1-.75-1.15,1.11,1.11,0,0,1,.58-1.06,3,3,0,0,1,1.56-.35,7.45,7.45,0,0,1,2.25.4,11.14,11.14,0,0,1,2.42,1.07l1.39-2.81a9.42,9.42,0,0,0-2.73-1.26,11.37,11.37,0,0,0-3.12-.45,7.27,7.27,0,0,0-4.32,1.24,4.12,4.12,0,0,0-1.72,3.61,3.86,3.86,0,0,0,.75,2.47,4.75,4.75,0,0,0,1.77,1.4,20.05,20.05,0,0,0,2.63.94,12.87,12.87,0,0,1,2.42.93,1.34,1.34,0,0,1,.75,1.25,1.19,1.19,0,0,1-.65,1.12,3.3,3.3,0,0,1-1.71.38,8.66,8.66,0,0,1-2.85-.53,7.88,7.88,0,0,1-2.55-1.45l-1.32,2.73a8.67,8.67,0,0,0,3,1.66,11.43,11.43,0,0,0,3.62.58,7.73,7.73,0,0,0,4.5-1.25A4.1,4.1,0,0,0,283,99.33,4,4,0,0,0,282.26,96.76Z" transform="translate(-85 -63.5)" fill="#1e1e1e"/><path d="M259.89,88.05a8.25,8.25,0,0,0-8.43,8,8.43,8.43,0,0,0,16.84,0A8.25,8.25,0,0,0,259.89,88.05Zm0,13a5.11,5.11,0,0,1-5.25-5h0a5.25,5.25,0,0,1,10.44,0A5.11,5.11,0,0,1,259.89,101.09Z" transform="translate(-85 -63.5)" fill="#f16322"/><path d="M211.79,89.52a5.69,5.69,0,0,0-4.33-1.66c-2.75,0-4.68,1.11-5.77,3.19V83.23l-3.89-1.41V104h3.9V96.14a4.77,4.77,0,0,1,1.13-3.29,4,4,0,0,1,3.09-1.31,3.5,3.5,0,0,1,2.6,1,3.65,3.65,0,0,1,1,2.67V104h3.88V94A6.28,6.28,0,0,0,211.79,89.52Z" transform="translate(-85 -63.5)" fill="#1e1e1e"/><polygon points="150.6 40.5 154.49 40.5 154.49 19.74 150.6 18.32 150.6 40.5" fill="#1e1e1e"/><polygon points="159.5 40.5 163.4 40.5 163.4 25.93 159.5 24.51 159.5 40.5" fill="#1e1e1e"/><path d="M166.73,97.83a11.56,11.56,0,0,1-.75-4.24,11,11,0,1,1,21.94,0,11.77,11.77,0,0,1-.75,4.24h2.88a14.47,14.47,0,0,0,.63-4.24c-.08-7.81-6.23-14.16-13.73-14.16a14,14,0,0,0-13.73,14.16,14.47,14.47,0,0,0,.63,4.24Z" transform="translate(-85 -63.5)" fill="#f16322"/><path d="M191.2,102.15H162.7a1.35,1.35,0,0,1-1.49-1.22,1.37,1.37,0,0,1,1.23-1.49h.07a.61.61,0,0,1,.19,0h28.5a1.36,1.36,0,0,1,.19,2.72Z" transform="translate(-85 -63.5)" fill="#f16322"/><path d="M185.49,103.38H168.33a1.37,1.37,0,0,0-.19,2.73h17.35a1.37,1.37,0,0,0,.19-2.73h-.19" transform="translate(-85 -63.5)" fill="#f5884f"/><path d="M180,107.34h-6a1.35,1.35,0,0,0-1.49,1.22,1.37,1.37,0,0,0,1.23,1.49H180a1.36,1.36,0,0,0,0-2.72" transform="translate(-85 -63.5)" fill="#f8ac80"/><path d="M296.79,87.9h53.92a8.16,8.16,0,1,1,0,16.32H296.79a8.16,8.16,0,0,1,0-16.32Z" transform="translate(-85 -63.5)" fill="#f16322"/><path d="M296.47,96.3a2.91,2.91,0,0,1,2.92-2.91h.23a2.63,2.63,0,0,1,2.54,1.44l-1.28.69a1.41,1.41,0,0,0-1.27-.75,1.44,1.44,0,0,0-1.5,1.39v.17a1.45,1.45,0,0,0,1.33,1.56.48.48,0,0,0,.17,0,1.37,1.37,0,0,0,1.27-.75l1.28.69a2.64,2.64,0,0,1-2.54,1.44,2.92,2.92,0,0,1-3.14-2.69A2.53,2.53,0,0,1,296.47,96.3Z" transform="translate(-85 -63.5)" fill="#fff"/><path d="M303.12,96.3a3.11,3.11,0,1,1,3.31,2.91h-.19a2.9,2.9,0,0,1-3.11-2.7A1.48,1.48,0,0,1,303.12,96.3Zm4.55,0a1.45,1.45,0,0,0-2.89-.2.67.67,0,0,0,0,.2,1.45,1.45,0,0,0,2.89.21Z" transform="translate(-85 -63.5)" fill="#fff"/><path d="M320.43,95.93v3.23H318.8v-3c0-.91-.41-1.33-1.07-1.33s-1.26.47-1.26,1.5v2.83h-1.63v-3c0-.91-.39-1.33-1.07-1.33s-1.24.47-1.24,1.5v2.83h-1.64V93.48h1.56v.65a2.27,2.27,0,0,1,1.78-.75,2.11,2.11,0,0,1,1.86.92,2.56,2.56,0,0,1,2-.92A2.22,2.22,0,0,1,320.43,95.93Z" transform="translate(-85 -63.5)" fill="#fff"/><path d="M328.5,96.3a2.75,2.75,0,0,1-2.59,2.91.88.88,0,0,1-.23,0,2.21,2.21,0,0,1-1.7-.68v2.65h-1.63v-7.7H324v.65a2.18,2.18,0,0,1,1.77-.75,2.75,2.75,0,0,1,2.79,2.7A1.55,1.55,0,0,1,328.5,96.3Zm-1.65,0A1.45,1.45,0,0,0,324,96a1.4,1.4,0,0,0,0,.29,1.44,1.44,0,0,0,1.29,1.59,1.46,1.46,0,0,0,1.59-1.29Z" transform="translate(-85 -63.5)" fill="#fff"/><polygon points="245.09 27.83 246.73 27.83 246.73 35.62 245.09 35.62 245.09 27.83" fill="#fff"/><path d="M339.21,96.76h-4.27a1.49,1.49,0,0,0,1.61,1.14,1.89,1.89,0,0,0,1.42-.55l.88,1a3.31,3.31,0,0,1-5.56-2,2.87,2.87,0,0,1,2.83-2.91h.17A2.8,2.8,0,0,1,339.23,96v.28A3.24,3.24,0,0,1,339.21,96.76Zm-4.29-1h2.78a1.41,1.41,0,0,0-1.62-1.16A1.39,1.39,0,0,0,334.92,95.81Z" transform="translate(-85 -63.5)" fill="#fff"/><path d="M344.5,98.85a2.25,2.25,0,0,1-1.33.36,1.85,1.85,0,0,1-2.1-1.58,1.36,1.36,0,0,1,0-.45V94.86h-.87V93.6h.87V92.22h1.64V93.6h1.41v1.26H342.7v2.3a.67.67,0,0,0,.56.75h.15a1.15,1.15,0,0,0,.66-.21Z" transform="translate(-85 -63.5)" fill="#fff"/><path d="M351.31,96.76H347a1.49,1.49,0,0,0,1.62,1.14,1.91,1.91,0,0,0,1.41-.55l.88,1a3.31,3.31,0,0,1-5.56-2,2.88,2.88,0,0,1,2.83-2.91h.17A2.8,2.8,0,0,1,351.33,96a1.31,1.31,0,0,1,0,.28A3.24,3.24,0,0,1,351.31,96.76Zm-4.3-1h2.79a1.41,1.41,0,0,0-2.79,0Z" transform="translate(-85 -63.5)" fill="#fff"/><rect x="188" y="127.5" width="418.73" height="274" rx="16" fill="#d9d4cf" opacity="0.5" style="isolation:isolate"/><rect x="178" y="117.5" width="418.73" height="274" rx="16" fill="#fff" stroke="#ffc198" strokeWidth="2"/><polygon points="390.66 221.18 400.26 229.78 390.66 238.38 390.66 232.69 375 232.69 375 226.86 390.66 226.86 390.66 221.18" fill="#d9d4cf" fillRule="evenodd"/><polygon points="390.66 255.03 400.26 263.63 390.66 272.23 390.66 266.55 375 266.55 375 260.71 390.66 260.71 390.66 255.03" fill="#d9d4cf" fillRule="evenodd"/><polygon points="390.66 288.88 400.26 297.48 390.66 306.08 390.66 300.4 375 300.4 375 294.57 390.66 294.57 390.66 288.88" fill="#d9d4cf" fillRule="evenodd"/><polygon points="390.66 323.74 400.26 332.33 390.66 340.94 390.66 335.25 375 335.25 375 329.42 390.66 329.42 390.66 323.74" fill="#d9d4cf" fillRule="evenodd"/><polygon points="390.66 357.59 400.26 366.19 390.66 374.79 390.66 369.1 375 369.1 375 363.27 390.66 363.27 390.66 357.59" fill="#d9d4cf" fillRule="evenodd"/><path d="M284,280H414a3,3,0,0,1,3,3v20.85a3,3,0,0,1-3,3H284a3,3,0,0,1-3-3V283A3,3,0,0,1,284,280Z" transform="translate(-85 -63.5)" fill="#d9d4cf" fillRule="evenodd" opacity="0.3" style="isolation:isolate"/><path d="M530,280H660a3,3,0,0,1,3,3v20.85a3,3,0,0,1-3,3H530a3,3,0,0,1-3-3V283A3,3,0,0,1,530,280Z" transform="translate(-85 -63.5)" fill="#f7811c" fillRule="evenodd"/><path d="M284,314H414a3,3,0,0,1,3,3v20.85a3,3,0,0,1-3,3H284a3,3,0,0,1-3-3V317A3,3,0,0,1,284,314Z" transform="translate(-85 -63.5)" fill="#d9d4cf" fillRule="evenodd" opacity="0.3" style="isolation:isolate"/><path d="M530,314H660a3,3,0,0,1,3,3v20.85a3,3,0,0,1-3,3H530a3,3,0,0,1-3-3V317A3,3,0,0,1,530,314Z" transform="translate(-85 -63.5)" fill="#f7811c" fillRule="evenodd"/><path d="M284,348H414a3,3,0,0,1,3,3v20.85a3,3,0,0,1-3,3H284a3,3,0,0,1-3-3V351A3,3,0,0,1,284,348Z" transform="translate(-85 -63.5)" fill="#d9d4cf" fillRule="evenodd" opacity="0.3" style="isolation:isolate"/><path d="M530,348H660a3,3,0,0,1,3,3v20.85a3,3,0,0,1-3,3H530a3,3,0,0,1-3-3V351A3,3,0,0,1,530,348Z" transform="translate(-85 -63.5)" fill="#f7811c" fillRule="evenodd"/><path d="M284,382H414a3,3,0,0,1,3,3v20.85a3,3,0,0,1-3,3H284a3,3,0,0,1-3-3V385A3,3,0,0,1,284,382Z" transform="translate(-85 -63.5)" fill="#d9d4cf" fillRule="evenodd" opacity="0.3" style="isolation:isolate"/><path d="M530,382H660a3,3,0,0,1,3,3v20.85a3,3,0,0,1-3,3H530a3,3,0,0,1-3-3V385A3,3,0,0,1,530,382Z" transform="translate(-85 -63.5)" fill="#f7811c" fillRule="evenodd"/><path d="M284,416H414a3,3,0,0,1,3,3v20.85a3,3,0,0,1-3,3H284a3,3,0,0,1-3-3V419A3,3,0,0,1,284,416Z" transform="translate(-85 -63.5)" fill="#d9d4cf" fillRule="evenodd" opacity="0.3" style="isolation:isolate"/><path d="M530,416H660a3,3,0,0,1,3,3v20.85a3,3,0,0,1-3,3H530a3,3,0,0,1-3-3V419A3,3,0,0,1,530,416Z" transform="translate(-85 -63.5)" fill="#f7811c" fillRule="evenodd"/><g style="isolation:isolate"><text transform="translate(206 235.5)" font-size="16" fill="#535353" font-family="ArialMT, Arial" letter-spacing="0.03em" style="isolation:isolate">App. No.</text></g><g style="isolation:isolate"><text transform="translate(452 235.5)" font-size="16" fill="#fff" font-family="ArialMT, Arial" style="isolation:isolate">Application</text></g><g style="isolation:isolate"><text transform="translate(206 269.5)" font-size="16" fill="#535353" font-family="ArialMT, Arial" letter-spacing="0.03em" style="isolation:isolate">App. Date</text></g><g style="isolation:isolate"><text transform="translate(452 269.5)" font-size="16" fill="#fff" font-family="ArialMT, Arial" style="isolation:isolate">Filling Date</text></g><g style="isolation:isolate"><text transform="translate(206 302.5)" font-size="16" fill="#535353" font-family="ArialMT, Arial" letter-spacing="0.03em" style="isolation:isolate">Pub. Date</text></g><g style="isolation:isolate"><text transform="translate(452 302.5)" font-size="16" fill="#fff" font-family="ArialMT, Arial" style="isolation:isolate">Publication Date</text></g><g style="isolation:isolate"><text transform="translate(206 337.5)" font-size="16" fill="#535353" font-family="ArialMT, Arial" letter-spacing="0.03em" style="isolation:isolate">Pat. No.</text></g><g style="isolation:isolate"><text transform="translate(452 337.5)" font-size="16" fill="#fff" font-family="ArialMT, Arial" style="isolation:isolate">Patent Number</text></g><g style="isolation:isolate"><text transform="translate(206 371.5)" font-size="16" fill="#535353" font-family="ArialMT, Arial" letter-spacing="0.03em" style="isolation:isolate">Grant Date</text></g><g style="isolation:isolate"><text transform="translate(452 371.5)" font-size="16" fill="#fff" font-family="ArialMT, Arial" style="isolation:isolate">Issue Date</text></g><path d="M284,246H660a3,3,0,0,1,3,3v20.85a3,3,0,0,1-3,3H284a3,3,0,0,1-3-3V249A3,3,0,0,1,284,246Z" transform="translate(-85 -63.5)" fill="#d9d4cf" fillRule="evenodd"/><path d="M476,246H660a3,3,0,0,1,3,3v20.85a3,3,0,0,1-3,3H476a3,3,0,0,1-3-3V249A3,3,0,0,1,476,246Z" transform="translate(-85 -63.5)" fill="#f7811c" fillRule="evenodd"/><g style="isolation:isolate"><text transform="translate(206 201.5)" font-size="16" fill="#535353" font-family="Arial-BoldMT, Arial" font-weight="700" letter-spacing="0.03em" style="isolation:isolate">Source Field</text></g><g style="isolation:isolate"><text transform="translate(421 201.5)" font-size="16" fill="#fff" font-family="Arial-BoldMT, Arial" font-weight="700" letter-spacing="0.03em" style="isolation:isolate">HeliosComplete</text></g><path d="M671.73,181a10,10,0,0,1,10,10v40H263V191a10,10,0,0,1,10-10Z" transform="translate(-85 -63.5)" fill="#f7811c" fillRule="evenodd"/><g style="isolation:isolate"><text transform="translate(196 149.5)" font-size="18" fill="#fff" font-family="Arial-BoldMT, Arial" font-weight="700" letter-spacing="0.03em" style="isolation:isolate">Map Fields</text></g></svg>