<svg id="Layer_1" data-name="Layer 1" xmlns="http://www.w3.org/2000/svg" xmlns:xlink="http://www.w3.org/1999/xlink" viewBox="0 0 783.2 483.95"><defs><style>.cls-1{fill:#ffc198;opacity:0.5;}.cls-1,.cls-13,.cls-16,.cls-2,.cls-21,.cls-22,.cls-24{fill-rule:evenodd;}.cls-1,.cls-17,.cls-21{isolation:isolate;}.cls-2,.cls-22{stroke:#ffddc8;stroke-width:1.5px;}.cls-2{fill:url(#linear-gradient);}.cls-13,.cls-18,.cls-22,.cls-3{fill:#fff;}.cls-3{stroke:#f7811c;stroke-width:1px;}.cls-4{fill:url(#linear-gradient-2);}.cls-5{fill:url(#linear-gradient-3);}.cls-6{fill:url(#linear-gradient-4);}.cls-7{fill:url(#linear-gradient-5);}.cls-8{fill:url(#linear-gradient-6);}.cls-9{fill:url(#linear-gradient-7);}.cls-10{fill:url(#linear-gradient-8);}.cls-11{fill:#f9f9f9;}.cls-12{fill:url(#linear-gradient-9);}.cls-14{fill:url(#linear-gradient-10);}.cls-15{fill:url(#linear-gradient-11);}.cls-16,.cls-20,.cls-21{fill:#f7811c;}.cls-19{fill:#535353;}.cls-21{opacity:0.1;}.cls-23{fill:none;}.cls-24,.cls-25{fill:#1e1e1e;}.cls-26{fill:#f16322;}.cls-27{fill:#f5884f;}.cls-28{fill:#f8ac80;}</style><linearGradient id="linear-gradient" x1="171.28" y1="1.48" x2="171.28" y2="2.91" gradientTransform="translate(-133474.22 -642.78) scale(781.56 398)" gradientUnits="userSpaceOnUse"><stop offset="0" stop-color="#fff"/><stop offset="1" stop-color="#fff3e8"/></linearGradient><linearGradient id="linear-gradient-2" x1="126.43" y1="355.84" x2="127.2" y2="357.21" gradientTransform="translate(-2479.67 -6696.32) scale(19.92 19.76)" gradientUnits="userSpaceOnUse"><stop offset="0" stop-color="#fab643"/><stop offset="0.56" stop-color="#f48222"/><stop offset="1" stop-color="#f16322"/></linearGradient><linearGradient id="linear-gradient-3" x1="123.75" y1="407.75" x2="125.23" y2="408.34" gradientTransform="translate(-2167.21 -6842.88) scale(17.76 17.74)" gradientUnits="userSpaceOnUse"><stop offset="0" stop-color="#ffad38"/><stop offset="1" stop-color="#f36309"/></linearGradient><linearGradient id="linear-gradient-4" x1="131.55" y1="207.81" x2="132.35" y2="209.07" gradientTransform="translate(-2127.69 -3179.8) scale(16.48 16.24)" xlink:href="#linear-gradient-2"/><linearGradient id="linear-gradient-5" x1="131.46" y1="252.54" x2="132.65" y2="253.13" gradientTransform="translate(-2096.58 -4324.07) scale(16.22 18.1)" xlink:href="#linear-gradient-3"/><linearGradient id="linear-gradient-6" x1="123.69" y1="166.48" x2="125.17" y2="167.07" gradientTransform="translate(-2166.61 -2802.07) scale(17.76 17.74)" xlink:href="#linear-gradient-3"/><linearGradient id="linear-gradient-7" x1="133.17" y1="302.14" x2="134.47" y2="302.73" gradientTransform="translate(-2567 -6012.32) scale(19.51 20.88)" xlink:href="#linear-gradient-3"/><linearGradient id="linear-gradient-8" x1="110.89" y1="139.51" x2="112.37" y2="140.1" gradientTransform="translate(-832.63 -990.5) scale(7.82)" xlink:href="#linear-gradient-3"/><linearGradient id="linear-gradient-9" x1="111.38" y1="139.52" x2="112.86" y2="140.08" gradientTransform="translate(-847.79 -990.5) scale(8.01 7.82)" xlink:href="#linear-gradient-3"/><linearGradient id="linear-gradient-10" x1="110.89" y1="139.51" x2="112.37" y2="140.1" gradientTransform="translate(-832.63 -981.41) scale(7.82)" xlink:href="#linear-gradient-3"/><linearGradient id="linear-gradient-11" x1="110.89" y1="139.51" x2="112.37" y2="140.09" gradientTransform="translate(-823.35 -981.41) scale(7.82)" xlink:href="#linear-gradient-3"/></defs><g id="_6" data-name="6"><g id="Group-8"><path id="Shape" class="cls-1" d="M50.1,136.2H733.5V469c0,8.4-7.7,15.2-17.3,15.2H67.4c-9.5,0-17.3-6.8-17.3-15.2Z" transform="translate(-0.25 -0.25)"/><path id="Shape-2" data-name="Shape" class="cls-2" d="M1,61.2H782.6V441.8c0,9.6-8.8,17.4-19.8,17.4H20.8c-11,0-19.8-7.8-19.8-17.4Z" transform="translate(-0.25 -0.25)"/><g id="Group-7"><g id="Group-2"><g id="Group-6"><g id="US-Filing"><circle id="Shape-3" data-name="Shape" class="cls-3" cx="46.95" cy="350.71" r="16.8"/><g id="_113_Globe-with-Arrow" data-name="113_Globe-with-Arrow"><path id="Shape-4" data-name="Shape" class="cls-4" d="M44,351.32l2.4,2.6c.1.1.2.2.3.2v1a19.15,19.15,0,0,0-4.1.5,10.07,10.07,0,0,1-1-4.3Zm6.4,0h2.4a10.82,10.82,0,0,1-1,4.2,18.4,18.4,0,0,0-4.1-.4v-1c.1-.1.2-.1.3-.2Zm-5.8-5.2V348h-1.2a1.12,1.12,0,0,0-.8,1.9l.5.5h-1.5a11.17,11.17,0,0,1,1.2-4.6Zm4.8.1,2.2-.3a13,13,0,0,1,1.2,4.6h-1.5l.5-.5a1.12,1.12,0,0,0-.8-1.9h-1.5v-1.9Zm-4.8-3.1v2c-.5-.1-1-.1-1.4-.2A14.1,14.1,0,0,1,44.61,343.12Zm4.8-.2a7.41,7.41,0,0,1,1.7,2.1l-1.7.3Zm-4.4-1.8a1.08,1.08,0,0,0-.3.7,10.29,10.29,0,0,0-2.5,2.9,11.26,11.26,0,0,1-2.2-.8A11.23,11.23,0,0,1,45,341.12Zm4-.1a9.59,9.59,0,0,1,5.3,2.9,11.26,11.26,0,0,1-2.2.8,8.57,8.57,0,0,0-2.8-3.1A.86.86,0,0,0,49,341Zm-2.3,19.8a9.87,9.87,0,0,1-6.9-3.3,10.22,10.22,0,0,1,2.3-.8c1.2,2.3,3,3.8,4.6,4.1Zm1,0h0c1.7-.3,3.5-1.9,4.7-4.1a12.34,12.34,0,0,1,2.3.8A10.3,10.3,0,0,1,47.71,360.82Zm-1-1a6.53,6.53,0,0,1-3.6-3.3,23.32,23.32,0,0,1,3.6-.4Zm1,0v-3.7a15.53,15.53,0,0,1,3.7.4A7,7,0,0,1,47.71,359.82Zm-10.5-8.5h3.4a12.9,12.9,0,0,0,1,4.5,23,23,0,0,0-2.5.9A9.5,9.5,0,0,1,37.21,351.32Zm0-.9a10.43,10.43,0,0,1,2.1-5.7c.7.3,1.6.6,2.5.9a12.13,12.13,0,0,0-1.2,4.8Zm20,.9a10.05,10.05,0,0,1-1.9,5.4,11.82,11.82,0,0,0-2.5-1,12.9,12.9,0,0,0,1-4.5h3.4Zm0-.9h-3.4a12.13,12.13,0,0,0-1.2-4.8,13.37,13.37,0,0,0,2.4-.9A9.32,9.32,0,0,1,57.21,350.42Zm-13.8-1.6h2.1V342h0a.68.68,0,0,1,.7-.7H48a.68.68,0,0,1,.7.7v6.7H51a.3.3,0,0,1,.2.5l-3.8,4a.3.3,0,0,1-.4,0l-3.8-4A.27.27,0,0,1,43.41,348.82Z" transform="translate(-0.25 -0.25)"/></g></g><g id="Reporting-Analytics"><circle id="Shape-5" data-name="Shape" class="cls-3" cx="46.85" cy="399.11" r="16.8"/><g id="Reporting-and-Analytics"><path id="Shape-6" data-name="Shape" class="cls-5" d="M38.24,394.31v-2.8a1.11,1.11,0,0,1,1.1-1.1h15.6a1.11,1.11,0,0,1,1.1,1.1v2.8Zm12,7.2h2.4v6.7h-2.4Zm-3.4,2.4h2.4v4.3h-2.4Zm6.7-4.3h2.4v8.6h-2.4ZM41,393.31a1,1,0,0,0,1-1,.94.94,0,0,0-1-1,1.17,1.17,0,0,0-.9,1.1A.9.9,0,0,0,41,393.31Zm-2.8,2H56v3.4h-3.4v1.9h-3.4V403h-3.4v3.8h-6.7a1,1,0,0,1-1-1v-10.5Zm1.9,1.4v1h6.2v-1Zm0,1.9v1h4.3v-1Z" transform="translate(-0.25 -0.25)"/></g></g><g id="Outlook_Circle" data-name="Outlook Circle"><circle id="Shape-7" data-name="Shape" class="cls-3" cx="47.09" cy="206.19" r="16.8"/><path id="Shape-8" data-name="Shape" class="cls-6" d="M48.24,202.14h7.3v9h-7.3v3.4l-9.2-1.7v-12.7l9.2-1.8Zm.1.6v2.4l2.2,1.7,4-4.2h-6.2Zm0,3.2v4.7H55v-7.5l-4.4,4.5Zm-4.7,3.5c1.3,0,2.2-1.3,2.2-2.8s-1-2.8-2.2-2.8-2.2,1.3-2.2,2.8S42.34,209.44,43.64,209.44Zm0-.9c-.7,0-1.3-.8-1.3-1.9s.6-1.9,1.3-1.9,1.3.8,1.3,1.9S44.24,208.54,43.64,208.54Z" transform="translate(-0.25 -0.25)"/></g><g id="IDS-B"><circle id="Shape-9" data-name="Shape" class="cls-3" cx="46.95" cy="252.51" r="16.8"/><path id="Shape-10" data-name="Shape" class="cls-7" d="M53.4,253.26H47.1a1.6,1.6,0,0,0-1.6,1.3H43.7v1h1.8v1H43.7v1h1.8v.5a1.58,1.58,0,0,0,1.6,1.6h6.3V261a1,1,0,0,1-1,1H40a1,1,0,0,1-1-1v-16.3a1,1,0,0,1,1-1H52.4a1,1,0,0,1,1,1v8.6ZM41,246.66V248H51.5v-1.3Zm2.8,3v1h6.7v-1Zm-2.8-.1v1.8h1.8v-1.8Zm0,5v1.8h1.8v-1.8Zm2.8-3v1h3.7v-1Zm3.4,2.7h7.5a.65.65,0,0,1,.6.6V258a.65.65,0,0,1-.6.6H47.2a.65.65,0,0,1-.6-.6v-3.1C46.5,254.56,46.8,254.26,47.2,254.26Zm.6,3.5h.6v-2.7h-.6Zm1.3,0h1.1a1.31,1.31,0,0,0,1.4-1.4,1.37,1.37,0,0,0-1.4-1.4H49.1Zm.6-.5v-1.6h.5a.74.74,0,0,1,.8.8h0a.74.74,0,0,1-.8.8Zm3.5.6c.6,0,1-.3,1-.9s-.3-.7-.9-.8-.6-.2-.6-.4.1-.2.3-.2a1.08,1.08,0,0,1,.7.3l.3-.5a1.69,1.69,0,0,0-1-.3c-.6,0-.9.3-.9.8s.4.7.9.8.5.2.5.4-.1.3-.4.3a1.14,1.14,0,0,1-.8-.3l-.4.4A3.82,3.82,0,0,0,53.2,257.86Z" transform="translate(-0.25 -0.25)"/></g><g id="Docketing-B"><circle id="Shape-11" data-name="Shape" class="cls-3" cx="46.85" cy="157.78" r="16.8"/><g id="Docketing"><path id="Shape-12" data-name="Shape" class="cls-8" d="M38.27,155.38h17.8v10.5a1,1,0,0,1-1,1H39.17a1,1,0,0,1-1-1v-10.5Zm3.8,1.9a.47.47,0,0,0-.5.5v1.9a.47.47,0,0,0,.5.5H44a.47.47,0,0,0,.5-.5v-1.9a.47.47,0,0,0-.5-.5Zm0,4.3a.47.47,0,0,0-.5.5V164a.47.47,0,0,0,.5.5H44a.47.47,0,0,0,.5-.5v-1.9a.47.47,0,0,0-.5-.5Zm3.8-4.3v1h6.7v-1Zm0,4.3v1h6.7v-1Zm0-2.4v1h4.8v-1Zm0,4.4v1h4.8v-1Zm9.2-12.5a1,1,0,0,1,1,1v2.4H38.27V152a1,1,0,0,1,1-1h2.4v-.9a1,1,0,0,1,1-1h1.4a1,1,0,0,1,1,1v1h4.3v-1a1,1,0,0,1,1-1h1.4a1,1,0,0,1,1,1v1Z" transform="translate(-0.25 -0.25)"/></g></g><g id="Annuities-_-renewals-B" data-name="Annuities-&amp;-renewals-B"><circle id="Shape-13" data-name="Shape" class="cls-3" cx="46.75" cy="304.38" r="16.8"/><path id="Shape-14" data-name="Shape" class="cls-9" d="M47,308.93v-3.8h3.9a16.85,16.85,0,0,1-.6,4.1c-1.1-.2-2.2-.2-3.3-.3Zm0-8.8a16.55,16.55,0,0,0,3.2-.3,15,15,0,0,1,.7,4.4H47v-4.1Zm0,14.5h0c1.7-.3,3.1-1.9,4-4.3a13.38,13.38,0,0,1,3.2,1,10.15,10.15,0,0,1-7.2,3.3Zm0-1v-3.7c1,0,2,.1,3,.2-.8,2-1.8,3.3-3,3.5Zm0-18.9a10.45,10.45,0,0,1,6.9,3,16.16,16.16,0,0,1-3.1,1c-.9-2.2-2.2-3.7-3.8-4Zm0,1a4.92,4.92,0,0,1,2.9,3.2,26.42,26.42,0,0,1-2.9.2v-3.4Zm9.8,9.4a9.4,9.4,0,0,1-2,5.4,16,16,0,0,0-3.5-1.2,14.42,14.42,0,0,0,.6-4.3h4.9Zm0-.9H51.9a16.44,16.44,0,0,0-.7-4.6,19.44,19.44,0,0,0,3.4-1.1,9.32,9.32,0,0,1,2.2,5.7Zm-11.1-10.1V315H43.5v-1.9c-4.2-.3-6.1-2.5-6.3-5.5h3.6a2.81,2.81,0,0,0,2.6,2.8v-4.6c-3.9-.6-5.8-2-5.8-5.1,0-2.7,2.3-4.7,5.8-5v-1.6Zm-4.4,6.3c0,1.1.4,1.7,2.2,2v-4C42.1,298.63,41.3,299.43,41.3,300.43Z" transform="translate(-0.25 -0.25)"/></g><g id="Group-5"><circle id="Shape-15" data-name="Shape" class="cls-3" cx="47.09" cy="108.69" r="16.8"/><g id="Group"><polygon id="Shape-16" data-name="Shape" class="cls-10" points="38.53 100.13 46.34 100.13 46.34 107.93 38.53 107.93 38.53 100.13"/><g id="Clipped"><g id="Shape-20" data-name="Shape"><path id="path-18" d="M43.94,105.42v1.2a.1.1,0,0,1-.1.1h0l-1.1-.3-1.1.3c-.1,0-.2,0-.2-.1h0v-1.2a.74.74,0,0,0,.8.4l.4-.1.5.1a.74.74,0,0,0,.8-.4Zm-1.3-.1-.4.2a.37.37,0,0,1-.5-.2l-.3-.5-.4-.2a.55.55,0,0,1-.3-.5l.2-.5-.2-.5a.37.37,0,0,1,.2-.5l.5-.2.2-.5a.37.37,0,0,1,.5-.2l.5.1.5-.2a.37.37,0,0,1,.5.2l.2.5.5.2a.37.37,0,0,1,.2.5l-.1.6.2.5a.37.37,0,0,1-.2.5l-.5.2-.3.5c0,.2-.3.3-.5.2Zm0-.4a1.37,1.37,0,0,0,1.4-1.4,1.29,1.29,0,0,0-1.4-1.3,1.26,1.26,0,0,0-1.3,1.3A1.42,1.42,0,0,0,42.64,104.92Zm0-.3a1.1,1.1,0,1,1,1.1-1.1A1,1,0,0,1,42.64,104.62Zm-.1-.4v-.4h.2a.4.4,0,1,0,0-.8h-.5v1.2Zm.2-.6h-.2v-.4h.2a.22.22,0,0,1,.2.2h0A.22.22,0,0,1,42.74,103.62Z" transform="translate(-0.25 -0.25)"/><path id="path-18-2" data-name="path-18" class="cls-11" d="M43.94,105.42v1.2a.1.1,0,0,1-.1.1h0l-1.1-.3-1.1.3c-.1,0-.2,0-.2-.1h0v-1.2a.74.74,0,0,0,.8.4l.4-.1.5.1a.74.74,0,0,0,.8-.4Zm-1.3-.1-.4.2a.37.37,0,0,1-.5-.2l-.3-.5-.4-.2a.55.55,0,0,1-.3-.5l.2-.5-.2-.5a.37.37,0,0,1,.2-.5l.5-.2.2-.5a.37.37,0,0,1,.5-.2l.5.1.5-.2a.37.37,0,0,1,.5.2l.2.5.5.2a.37.37,0,0,1,.2.5l-.1.6.2.5a.37.37,0,0,1-.2.5l-.5.2-.3.5c0,.2-.3.3-.5.2Zm0-.4a1.37,1.37,0,0,0,1.4-1.4,1.29,1.29,0,0,0-1.4-1.3,1.26,1.26,0,0,0-1.3,1.3A1.42,1.42,0,0,0,42.64,104.92Zm0-.3a1.1,1.1,0,1,1,1.1-1.1A1,1,0,0,1,42.64,104.62Zm-.1-.4v-.4h.2a.4.4,0,1,0,0-.8h-.5v1.2Zm.2-.6h-.2v-.4h.2a.22.22,0,0,1,.2.2h0A.22.22,0,0,1,42.74,103.62Z" transform="translate(-0.25 -0.25)"/></g></g><polygon id="Shape-21" data-name="Shape" class="cls-12" points="47.63 100.13 55.63 100.13 55.63 107.93 47.63 107.93 47.63 100.13"/><path id="Shape-22" data-name="Shape" class="cls-13" d="M50.39,105.88v-2.8h1.1v-.4h-2.6v.4H50v2.8Zm1.9,0v-2.7h0l.9,2.7h.4l.9-2.7v2.7h.4v-3.2h-.6l-.9,2.7-.9-2.7h-.6v3.2Z" transform="translate(-0.25 -0.25)"/><polygon id="Shape-23" data-name="Shape" class="cls-14" points="38.53 109.23 46.34 109.23 46.34 117.03 38.53 117.03 38.53 109.23"/><polygon id="Shape-24" data-name="Shape" class="cls-15" points="47.84 109.23 55.63 109.23 55.63 117.03 47.84 117.03 47.84 109.23"/><g id="Shape-25" data-name="Shape"><path id="path-20" d="M42.69,115.48a1.6,1.6,0,0,0,1.4-.8,2.12,2.12,0,0,0,.4-1.4,1.7,1.7,0,0,0-.1-.7c-.1-.2-.2-.5-.3-.7a1.16,1.16,0,0,0-.7-.5,1.48,1.48,0,0,0-.7-.1h-1.8v4.2Zm-.1-.7h-.8v-2.7h.8c.4,0,.7.1.8.3a2.51,2.51,0,0,1,.2,1,2,2,0,0,1-.1.8,1,1,0,0,1-.9.6Z" transform="translate(-0.25 -0.25)"/><path id="path-20-2" data-name="path-20" class="cls-11" d="M42.69,115.48a1.6,1.6,0,0,0,1.4-.8,2.12,2.12,0,0,0,.4-1.4,1.7,1.7,0,0,0-.1-.7c-.1-.2-.2-.5-.3-.7a1.16,1.16,0,0,0-.7-.5,1.48,1.48,0,0,0-.7-.1h-1.8v4.2Zm-.1-.7h-.8v-2.7h.8c.4,0,.7.1.8.3a2.51,2.51,0,0,1,.2,1,2,2,0,0,1-.1.8,1,1,0,0,1-.9.6Z" transform="translate(-0.25 -0.25)"/></g><path id="Shape-26" data-name="Shape" class="cls-13" d="M52,110.78a2.58,2.58,0,0,1,2.6,2.6,2.6,2.6,0,1,1-5.2,0A2.58,2.58,0,0,1,52,110.78Zm0,.4a2.2,2.2,0,1,0,2.2,2.2A2.22,2.22,0,0,0,52,111.18Zm.1,1.1a.85.85,0,0,1,.6.2c.1.1.1.2.2.3v.1l-.4.1v-.1c0-.1-.1-.1-.1-.2a.37.37,0,0,0-.3-.1.52.52,0,0,0-.4.2.75.75,0,0,0-.1.5c0,.3,0,.5.1.6a.52.52,0,0,0,.4.2.37.37,0,0,0,.3-.1c.1-.1.1-.1.1-.2v-.1l.4.1v.1a1.38,1.38,0,0,1-.3.4.85.85,0,0,1-.6.2.91.91,0,0,1-.7-.3,1,1,0,0,1-.3-.8,1,1,0,0,1,1.1-1.1Z" transform="translate(-0.25 -0.25)"/></g></g></g></g><path id="Rectangle" class="cls-13" d="M91.38,91.51h647a15,15,0,0,1,15,15v297a15,15,0,0,1-15,15h-647a15,15,0,0,1-15-15v-297A15,15,0,0,1,91.38,91.51Z" transform="translate(-0.25 -0.25)"/><path id="Rectangle-2" data-name="Rectangle" class="cls-16" d="M91,91.51H738a15,15,0,0,1,15,15v37H76v-37A15,15,0,0,1,91,91.51Z" transform="translate(-0.25 -0.25)"/><g class="cls-17"><path class="cls-18" d="M97.28,111.61h4.8a14.73,14.73,0,0,1,2.5.2,3.47,3.47,0,0,1,1.9,1.2,7.19,7.19,0,0,1,1.2,2.1,8.72,8.72,0,0,1,.4,3,7,7,0,0,1-.4,2.7,5.94,5.94,0,0,1-1.4,2.3,5.24,5.24,0,0,1-1.8,1,7.12,7.12,0,0,1-2.3.3h-4.9Zm2.6,2.2v8.5h1.9a6.66,6.66,0,0,0,1.6-.1,3.7,3.7,0,0,0,1.1-.5,2.72,2.72,0,0,0,.7-1.2,7.8,7.8,0,0,0,.3-2.4,6.71,6.71,0,0,0-.3-2.3,3.46,3.46,0,0,0-.7-1.2,2.28,2.28,0,0,0-1.2-.6,11,11,0,0,0-2.1-.1h-1.3Z" transform="translate(-0.25 -0.25)"/><path class="cls-18" d="M110.18,119.71a5.33,5.33,0,0,1,.6-2.4,4.24,4.24,0,0,1,1.7-1.8,5.14,5.14,0,0,1,2.5-.6,5,5,0,0,1,3.5,8.4,4.93,4.93,0,0,1-5.8.8,4.9,4.9,0,0,1-1.8-1.7A4.53,4.53,0,0,1,110.18,119.71Zm2.6.1a2.82,2.82,0,0,0,.7,2.1,2.13,2.13,0,0,0,1.6.7,2,2,0,0,0,1.6-.7,3.3,3.3,0,0,0,.7-2.1,2.82,2.82,0,0,0-.7-2.1,2.13,2.13,0,0,0-1.6-.7,2,2,0,0,0-1.6.7A3.3,3.3,0,0,0,112.78,119.81Z" transform="translate(-0.25 -0.25)"/><path class="cls-18" d="M130.38,117.91l-2.4.4a1.68,1.68,0,0,0-.6-1.1,2.1,2.1,0,0,0-1.1-.4,2,2,0,0,0-1.5.6,3.57,3.57,0,0,0-.5,2.3,3.34,3.34,0,0,0,.6,2.3,2.13,2.13,0,0,0,1.5.7,1.59,1.59,0,0,0,1.2-.4,2.29,2.29,0,0,0,.6-1.4l2.4.4a4,4,0,0,1-1.5,2.5,5.25,5.25,0,0,1-2.9.9,4.16,4.16,0,0,1-3.3-1.3,6,6,0,0,1,0-7.2,4.16,4.16,0,0,1,3.3-1.3,4.53,4.53,0,0,1,2.7.7A4.23,4.23,0,0,1,130.38,117.91Z" transform="translate(-0.25 -0.25)"/><path class="cls-18" d="M132.68,124.51v-12.9h2.5v6.8l2.9-3.3h3l-3.2,3.4,3.4,5.9h-2.7l-2.3-4.2-1.2,1.2v3h-2.4Z" transform="translate(-0.25 -0.25)"/><path class="cls-18" d="M148.68,121.51l2.5.4a4.08,4.08,0,0,1-1.5,2.1,4.21,4.21,0,0,1-2.6.7,4.13,4.13,0,0,1-3.6-1.6,5.27,5.27,0,0,1-.9-3.2,5.05,5.05,0,0,1,1.2-3.6,4.47,4.47,0,0,1,6.4.1,6.2,6.2,0,0,1,1.2,4.2h-6.2a2.35,2.35,0,0,0,.6,1.7,2,2,0,0,0,1.4.6,1.69,1.69,0,0,0,1-.3C148.48,122.41,148.48,122,148.68,121.51Zm.1-2.5a2,2,0,0,0-.6-1.6,1.76,1.76,0,0,0-1.3-.6,1.61,1.61,0,0,0-1.3.6,2.54,2.54,0,0,0-.5,1.6Z" transform="translate(-0.25 -0.25)"/><path class="cls-18" d="M158,115.21v2h-1.7v5.1c0,.1.1.2.2.3a.6.6,0,0,0,.4.1,5.76,5.76,0,0,0,1-.2l.2,1.9a5.92,5.92,0,0,1-2,.4,5,5,0,0,1-1.2-.2,1.24,1.24,0,0,1-.8-.6,1.49,1.49,0,0,1-.3-1,7.16,7.16,0,0,1-.1-1.7v-4.1h-1.1v-2h1.1v-1.9l2.5-1.4v3.3Z" transform="translate(-0.25 -0.25)"/><path class="cls-18" d="M168.68,124.51v-10.7h-3.8v-2.2h10.2v2.2h-3.8v10.7Z" transform="translate(-0.25 -0.25)"/><path class="cls-18" d="M177.68,118l-2.2-.4a3.7,3.7,0,0,1,1.3-2,4.85,4.85,0,0,1,2.7-.7,5.67,5.67,0,0,1,2.5.4,2.71,2.71,0,0,1,1.1,1,5.39,5.39,0,0,1,.3,2.2v2.9a8.66,8.66,0,0,0,.1,1.8,9.29,9.29,0,0,0,.4,1.3h-2.4a6.37,6.37,0,0,1-.2-.7c0-.1-.1-.2-.1-.3a4.19,4.19,0,0,1-1.4.9,4,4,0,0,1-1.5.3,3.37,3.37,0,0,1-2.3-.8,2.44,2.44,0,0,1-.8-2,2.3,2.3,0,0,1,.4-1.4,2.44,2.44,0,0,1,1.1-.9,12.43,12.43,0,0,1,2-.6,10,10,0,0,0,2.4-.6v-.2a1.05,1.05,0,0,0-.4-1,2.06,2.06,0,0,0-1.3-.3,1.49,1.49,0,0,0-1,.3C178.08,117.31,177.88,117.61,177.68,118Zm3.3,2c-.3.1-.8.2-1.5.4a11.06,11.06,0,0,0-1.3.4,1.05,1.05,0,0,0-.5.9,1.22,1.22,0,0,0,.4.9,1.28,1.28,0,0,0,1,.4,2.2,2.2,0,0,0,1.3-.4,1.56,1.56,0,0,0,.6-.8,3.45,3.45,0,0,0,.1-1.2V120Z" transform="translate(-0.25 -0.25)"/><path class="cls-18" d="M185.48,121.81l2.5-.4a2,2,0,0,0,.6,1.1,2.65,2.65,0,0,0,2.8,0,.91.91,0,0,0,.3-.7c0-.2-.1-.3-.2-.5a2.19,2.19,0,0,0-.8-.3,11,11,0,0,1-3.8-1.2,2.48,2.48,0,0,1-1.1-2.1,2.33,2.33,0,0,1,1-2,4.89,4.89,0,0,1,3-.8,5.06,5.06,0,0,1,2.8.6,3.52,3.52,0,0,1,1.3,1.8l-2.3.4a1.24,1.24,0,0,0-.6-.8,2.13,2.13,0,0,0-1.2-.3,2.42,2.42,0,0,0-1.4.3.55.55,0,0,0-.3.5.52.52,0,0,0,.2.4,7.65,7.65,0,0,0,2.3.7,8.51,8.51,0,0,1,2.8,1.1,2.34,2.34,0,0,1,.8,1.8,2.79,2.79,0,0,1-1.1,2.2,4.89,4.89,0,0,1-3.2.9,5.1,5.1,0,0,1-3-.8A3,3,0,0,1,185.48,121.81Z" transform="translate(-0.25 -0.25)"/><path class="cls-18" d="M196.78,124.51v-12.9h2.5v6.8l2.9-3.3h3l-3.2,3.4,3.4,5.9h-2.7l-2.3-4.2-1.2,1.2v3h-2.4Z" transform="translate(-0.25 -0.25)"/><path class="cls-18" d="M212.88,111.61h4.8a14.73,14.73,0,0,1,2.5.2,3.47,3.47,0,0,1,1.9,1.2,7.19,7.19,0,0,1,1.2,2.1,8.72,8.72,0,0,1,.4,3,7,7,0,0,1-.4,2.7,5.94,5.94,0,0,1-1.4,2.3,5.24,5.24,0,0,1-1.8,1,7.12,7.12,0,0,1-2.3.3h-4.9Zm2.6,2.2v8.5h1.9a6.66,6.66,0,0,0,1.6-.1,3.7,3.7,0,0,0,1.1-.5,2.72,2.72,0,0,0,.7-1.2,7.8,7.8,0,0,0,.3-2.4,6.71,6.71,0,0,0-.3-2.3,3.46,3.46,0,0,0-.7-1.2,2.28,2.28,0,0,0-1.2-.6,11,11,0,0,0-2.1-.1h-1.3Z" transform="translate(-0.25 -0.25)"/><path class="cls-18" d="M231.68,121.51l2.5.4a4.08,4.08,0,0,1-1.5,2.1,4.21,4.21,0,0,1-2.6.7,4.13,4.13,0,0,1-3.6-1.6,5.27,5.27,0,0,1-.9-3.2,5.05,5.05,0,0,1,1.2-3.6,4.47,4.47,0,0,1,6.4.1,6.2,6.2,0,0,1,1.2,4.2h-6.2a2.35,2.35,0,0,0,.6,1.7,2,2,0,0,0,1.4.6,1.69,1.69,0,0,0,1-.3A1.63,1.63,0,0,0,231.68,121.51Zm.2-2.5a2,2,0,0,0-.6-1.6,1.76,1.76,0,0,0-1.3-.6,1.61,1.61,0,0,0-1.3.6,2.54,2.54,0,0,0-.5,1.6Z" transform="translate(-0.25 -0.25)"/><path class="cls-18" d="M241.08,115.21v2h-1.7v5.1c0,.1.1.2.2.3a.6.6,0,0,0,.4.1,5.76,5.76,0,0,0,1-.2l.2,1.9a5.92,5.92,0,0,1-2,.4,5,5,0,0,1-1.2-.2,1.24,1.24,0,0,1-.8-.6,1.49,1.49,0,0,1-.3-1,7.16,7.16,0,0,1-.1-1.7v-4.1h-1.1v-2h1.1v-1.9l2.5-1.4v3.3Z" transform="translate(-0.25 -0.25)"/><path class="cls-18" d="M245.18,118l-2.2-.4a3.7,3.7,0,0,1,1.3-2,4.85,4.85,0,0,1,2.7-.7,5.67,5.67,0,0,1,2.5.4,2.71,2.71,0,0,1,1.1,1,5.39,5.39,0,0,1,.3,2.2v2.9a8.66,8.66,0,0,0,.1,1.8,9.29,9.29,0,0,0,.4,1.3H249a6.37,6.37,0,0,1-.2-.7c0-.1-.1-.2-.1-.3a4.19,4.19,0,0,1-1.4.9,4,4,0,0,1-1.5.3,3.37,3.37,0,0,1-2.3-.8,2.44,2.44,0,0,1-.8-2,2.3,2.3,0,0,1,.4-1.4,2.44,2.44,0,0,1,1.1-.9,12.43,12.43,0,0,1,2-.6,10,10,0,0,0,2.4-.6v-.2a1.05,1.05,0,0,0-.4-1,2.06,2.06,0,0,0-1.3-.3,1.49,1.49,0,0,0-1,.3A1,1,0,0,0,245.18,118Zm3.3,2c-.3.1-.8.2-1.5.4a11.06,11.06,0,0,0-1.3.4,1.05,1.05,0,0,0-.5.9,1.22,1.22,0,0,0,.4.9,1.28,1.28,0,0,0,1,.4,2.2,2.2,0,0,0,1.3-.4,1.56,1.56,0,0,0,.6-.8,3.45,3.45,0,0,0,.1-1.2V120Z" transform="translate(-0.25 -0.25)"/><path class="cls-18" d="M253.78,113.91v-2.3h2.5v2.3Zm0,10.6v-9.3h2.5v9.3Z" transform="translate(-0.25 -0.25)"/><path class="cls-18" d="M259.28,124.51v-12.9h2.5v12.9Z" transform="translate(-0.25 -0.25)"/></g><g id="Group-3"><g class="cls-17"><path class="cls-19" d="M97.18,197.5v-8.6h3a5.76,5.76,0,0,1,1.5.1,3,3,0,0,1,2.3,2.1,6.45,6.45,0,0,1,.3,2,7.93,7.93,0,0,1-.2,1.7,3.1,3.1,0,0,1-.6,1.3,2.75,2.75,0,0,1-1.8,1.2,5.9,5.9,0,0,1-1.4.2Zm1.2-1h1.8a3.92,3.92,0,0,0,1.3-.2,5.94,5.94,0,0,0,.8-.4,2,2,0,0,0,.6-1.1,7.93,7.93,0,0,0,.2-1.7,4.14,4.14,0,0,0-.4-2.1,2.59,2.59,0,0,0-1.1-1,4.87,4.87,0,0,0-1.5-.2h-1.7Z" transform="translate(-0.25 -0.25)"/><path class="cls-19" d="M105.68,194.4a3.12,3.12,0,0,1,1-2.6,2.72,2.72,0,0,1,2-.7,2.86,2.86,0,0,1,2.1.8,3.2,3.2,0,0,1,.8,2.3,3.27,3.27,0,0,1-1.4,3,2.6,2.6,0,0,1-1.5.4,2.86,2.86,0,0,1-2.1-.8A3.5,3.5,0,0,1,105.68,194.4Zm1.1,0a3,3,0,0,0,.5,1.8,1.71,1.71,0,0,0,2.6,0,3,3,0,0,0,.5-1.8,2.46,2.46,0,0,0-.5-1.7,2,2,0,0,0-1.3-.6,1.61,1.61,0,0,0-1.3.6A2.65,2.65,0,0,0,106.78,194.4Z" transform="translate(-0.25 -0.25)"/><path class="cls-19" d="M117.08,195.2l1,.1a2.59,2.59,0,0,1-.9,1.7,2.52,2.52,0,0,1-1.7.6,2.79,2.79,0,0,1-2.9-3.2,4.84,4.84,0,0,1,.3-1.8,2.17,2.17,0,0,1,1-1.1,3.71,3.71,0,0,1,1.5-.4,3.1,3.1,0,0,1,1.7.5,1.87,1.87,0,0,1,.8,1.5l-1,.2a1.93,1.93,0,0,0-.5-.9,1.22,1.22,0,0,0-.9-.3,1.61,1.61,0,0,0-1.3.6,3.49,3.49,0,0,0,0,3.6,1.49,1.49,0,0,0,1.3.6,1.16,1.16,0,0,0,1-.4A2.62,2.62,0,0,0,117.08,195.2Z" transform="translate(-0.25 -0.25)"/><path class="cls-19" d="M119.38,197.5v-8.6h1.1v4.9l2.5-2.5h1.3l-2.4,2.3,2.6,3.9h-1.2l-2.1-3.2-.7.7v2.5Z" transform="translate(-0.25 -0.25)"/><path class="cls-19" d="M130,195.5l1.1.1a3.07,3.07,0,0,1-1,1.5,2.73,2.73,0,0,1-1.8.5,3.29,3.29,0,0,1-2.2-.8,2.92,2.92,0,0,1-.8-2.4,3.46,3.46,0,0,1,.8-2.4,2.93,2.93,0,0,1,2.1-.9,2.79,2.79,0,0,1,2,.8,3.46,3.46,0,0,1,.8,2.4v.3h-4.6a2.11,2.11,0,0,0,.6,1.6,1.66,1.66,0,0,0,1.3.5,1.69,1.69,0,0,0,1-.3A2.18,2.18,0,0,0,130,195.5Zm-3.5-1.7H130a2.14,2.14,0,0,0-.4-1.2,1.61,1.61,0,0,0-1.3-.6,1.66,1.66,0,0,0-1.2.5A2.26,2.26,0,0,0,126.48,193.8Z" transform="translate(-0.25 -0.25)"/><path class="cls-19" d="M135,196.6l.2.9a2.49,2.49,0,0,1-.8.1,2,2,0,0,1-.9-.2.66.66,0,0,1-.4-.5c0-.2-.1-.6-.1-1.2v-3.6h-.8v-.8h.8v-1.5l1-.6v2.2h1.1v.8H134v3.6c0,.3,0,.5.1.6s.1.2.2.2.2.1.4.1C134.68,196.6,134.78,196.6,135,196.6Z" transform="translate(-0.25 -0.25)"/><path class="cls-19" d="M142.08,197.5v-7.6h-2.8v-1h6.8v1h-2.8v7.6Z" transform="translate(-0.25 -0.25)"/><path class="cls-19" d="M150.18,196.7a4.89,4.89,0,0,1-1.1.7,3.73,3.73,0,0,1-1.2.2,2.54,2.54,0,0,1-1.6-.5,1.61,1.61,0,0,1-.6-1.3,1.88,1.88,0,0,1,.2-.8,1.47,1.47,0,0,1,.5-.6,1.91,1.91,0,0,1,.8-.3,6.37,6.37,0,0,1,.9-.2,6.09,6.09,0,0,0,1.9-.4v-.3a1.22,1.22,0,0,0-.3-.9,2.14,2.14,0,0,0-1.2-.4,1.61,1.61,0,0,0-1.1.3,1.93,1.93,0,0,0-.5.9l-1-.1a2.22,2.22,0,0,1,.5-1.1,1.8,1.8,0,0,1,.9-.6,5.9,5.9,0,0,1,1.4-.2,4.44,4.44,0,0,1,1.3.2,1.28,1.28,0,0,1,.7.5,1.49,1.49,0,0,1,.3.7c0,.2.1.5.1,1v1.4a8.2,8.2,0,0,0,.1,1.9c.1.3.1.5.3.7h-1.1A1.88,1.88,0,0,1,150.18,196.7Zm-.1-2.3a6.07,6.07,0,0,1-1.7.4,6.37,6.37,0,0,0-.9.2,1.38,1.38,0,0,0-.4.3.75.75,0,0,0-.1.5.91.91,0,0,0,.3.7,1.22,1.22,0,0,0,.9.3,2,2,0,0,0,1.1-.3,2.34,2.34,0,0,0,.7-.7,2.68,2.68,0,0,0,.2-1.1v-.3Z" transform="translate(-0.25 -0.25)"/><path class="cls-19" d="M152.68,195.6l1-.2a1.91,1.91,0,0,0,.5,1c.3.3.6.3,1.1.3a1.8,1.8,0,0,0,1.1-.3.75.75,0,0,0,.4-.7.86.86,0,0,0-.3-.6,5.34,5.34,0,0,0-1.1-.4,16.56,16.56,0,0,1-1.6-.5,1.34,1.34,0,0,1-.7-.6,1.2,1.2,0,0,1-.2-.8,2.35,2.35,0,0,1,.2-.8c.1-.3.3-.4.5-.6a4.88,4.88,0,0,1,.7-.3,2.77,2.77,0,0,1,.9-.1,5.07,5.07,0,0,1,1.3.2,1.24,1.24,0,0,1,.8.6,3,3,0,0,1,.4,1l-1,.1a1.23,1.23,0,0,0-.4-.8,1.33,1.33,0,0,0-1-.3,2.15,2.15,0,0,0-1,.2.78.78,0,0,0-.2,1,1.38,1.38,0,0,0,.4.3,4.18,4.18,0,0,1,.9.3c.7.2,1.3.4,1.6.5a1.34,1.34,0,0,1,.7.6,1.4,1.4,0,0,1,.3.9,1.69,1.69,0,0,1-.3,1,1.6,1.6,0,0,1-.9.7,5,5,0,0,1-1.3.3,3,3,0,0,1-1.8-.5A2.38,2.38,0,0,1,152.68,195.6Z" transform="translate(-0.25 -0.25)"/><path class="cls-19" d="M159.48,197.5v-8.6h1.1v4.9l2.5-2.5h1.4l-2.4,2.3,2.6,3.9h-1.4l-2-3.2-.7.7v2.5Z" transform="translate(-0.25 -0.25)"/></g><g id="Group-23"><g class="cls-17"><path class="cls-19" d="M133.48,237.1v-12h2.4v4.7h4.8v-4.7h2.4v12h-2.4v-5.3h-4.8v5.3Z" transform="translate(-0.25 -0.25)"/><path class="cls-19" d="M146,237.1v-12h2.4v12Z" transform="translate(-0.25 -0.25)"/><path class="cls-19" d="M151.18,237.1v-12h3.9a15.65,15.65,0,0,1,2.9.2,3,3,0,0,1,1.7,1.2,3.51,3.51,0,0,1,.7,2.3,3.81,3.81,0,0,1-.4,1.9,4,4,0,0,1-1,1.2,3.1,3.1,0,0,1-1.3.6,14.73,14.73,0,0,1-2.5.2h-1.6v4.5h-2.4Zm2.5-10v3.4H155a6.57,6.57,0,0,0,1.9-.2,1.56,1.56,0,0,0,.8-.6,1.61,1.61,0,0,0,.3-.9,1.5,1.5,0,0,0-.4-1.1,1.39,1.39,0,0,0-1-.5,7.16,7.16,0,0,0-1.7-.1Z" transform="translate(-0.25 -0.25)"/><path class="cls-19" d="M160.68,237.1v-2.3H163v2.3Z" transform="translate(-0.25 -0.25)"/><path class="cls-19" d="M165.78,237.1v-12h3.9a15.65,15.65,0,0,1,2.9.2,3,3,0,0,1,1.7,1.2,3.51,3.51,0,0,1,.7,2.3,3.81,3.81,0,0,1-.4,1.9,4,4,0,0,1-1,1.2,3.1,3.1,0,0,1-1.3.6,14.73,14.73,0,0,1-2.5.2h-1.5v4.5h-2.5Zm2.5-10v3.4h1.3a6.57,6.57,0,0,0,1.9-.2,1.56,1.56,0,0,0,.8-.6,1.61,1.61,0,0,0,.3-.9,1.5,1.5,0,0,0-.4-1.1,1.39,1.39,0,0,0-1-.5,7.16,7.16,0,0,0-1.7-.1Z" transform="translate(-0.25 -0.25)"/><path class="cls-19" d="M180.88,225a3.16,3.16,0,0,1,2.7,1.2c.8,1,1.2,2.6,1.2,4.9s-.4,3.9-1.2,4.9a3.42,3.42,0,0,1-2.7,1.2,3.57,3.57,0,0,1-2.8-1.3c-.7-.9-1.1-2.5-1.1-4.8s.4-3.9,1.2-4.9A3.16,3.16,0,0,1,180.88,225Zm0,1.9a.91.91,0,0,0-.7.3,1.87,1.87,0,0,0-.5,1,11.52,11.52,0,0,0-.2,3,16.53,16.53,0,0,0,.2,2.9,2.26,2.26,0,0,0,.5,1.1,1.08,1.08,0,0,0,.7.3.91.91,0,0,0,.7-.3,1.87,1.87,0,0,0,.5-1,11.52,11.52,0,0,0,.2-3,16.53,16.53,0,0,0-.2-2.9,2.26,2.26,0,0,0-.5-1.1A.91.91,0,0,0,180.88,226.9Z" transform="translate(-0.25 -0.25)"/><path class="cls-19" d="M192.68,237.1h-2.3v-8.7a6.38,6.38,0,0,1-3,1.7v-2a8.08,8.08,0,0,0,2-1.1,4.54,4.54,0,0,0,1.5-1.9h1.9v12Z" transform="translate(-0.25 -0.25)"/><path class="cls-19" d="M204.38,235v2.1h-8.1a4.89,4.89,0,0,1,.8-2.3,14.57,14.57,0,0,1,2.6-2.9,14.16,14.16,0,0,0,1.9-2,2.65,2.65,0,0,0,.5-1.4,1.59,1.59,0,0,0-.4-1.2,1.5,1.5,0,0,0-1.1-.4,1.25,1.25,0,0,0-1.1.4,2.57,2.57,0,0,0-.5,1.4l-2.3-.2a3.5,3.5,0,0,1,1.3-2.7,4,4,0,0,1,2.7-.8,3.71,3.71,0,0,1,2.8,1,3,3,0,0,1,1,2.4,3.65,3.65,0,0,1-.3,1.5,6,6,0,0,1-.9,1.5,10.4,10.4,0,0,1-1.5,1.5c-.7.7-1.2,1.1-1.4,1.3a2.65,2.65,0,0,0-.5.6h4.5Z" transform="translate(-0.25 -0.25)"/><path class="cls-19" d="M206.28,233.9l2.2-.3a2.26,2.26,0,0,0,.6,1.3,1.61,1.61,0,0,0,1.1.5,1.66,1.66,0,0,0,1.2-.5,2.25,2.25,0,0,0,.5-1.5,2.17,2.17,0,0,0-.5-1.4,1.61,1.61,0,0,0-1.1-.5,6.53,6.53,0,0,0-1.1.2l.3-1.9a2,2,0,0,0,1.4-.4,1.61,1.61,0,0,0,.5-1.1,1.28,1.28,0,0,0-.4-1,1.53,1.53,0,0,0-1-.4,1.28,1.28,0,0,0-1,.4,2.2,2.2,0,0,0-.5,1.2l-2.1-.4a3.8,3.8,0,0,1,.7-1.7,2.94,2.94,0,0,1,1.2-1,4.78,4.78,0,0,1,1.8-.4,3.69,3.69,0,0,1,2.7,1.1,2.71,2.71,0,0,1,.8,2,2.78,2.78,0,0,1-1.7,2.5,3,3,0,0,1,1.7,1,2.88,2.88,0,0,1,.6,1.9,3.42,3.42,0,0,1-1.2,2.7,4.17,4.17,0,0,1-2.9,1.1,4,4,0,0,1-2.7-.9A3.63,3.63,0,0,1,206.28,233.9Z" transform="translate(-0.25 -0.25)"/><path class="cls-19" d="M216.68,225.1h2.4v6.5a9.27,9.27,0,0,0,.1,2,2.4,2.4,0,0,0,.7,1.2,3.4,3.4,0,0,0,3.2,0,1.22,1.22,0,0,0,.6-1,10.36,10.36,0,0,0,.1-2v-6.7h2.4v6.3a20.51,20.51,0,0,1-.2,3.1,3.48,3.48,0,0,1-.7,1.5,5,5,0,0,1-1.4,1,7.31,7.31,0,0,1-2.3.4,6.16,6.16,0,0,1-2.6-.4,3.88,3.88,0,0,1-1.4-1,4.15,4.15,0,0,1-.7-1.3,12.84,12.84,0,0,1-.2-3.1Z" transform="translate(-0.25 -0.25)"/><path class="cls-19" d="M228.68,233.2l2.4-.2a2.19,2.19,0,0,0,.9,1.7,3.22,3.22,0,0,0,1.8.6,3,3,0,0,0,1.8-.5,1.43,1.43,0,0,0,.6-1.2.91.91,0,0,0-.3-.7,1.93,1.93,0,0,0-.9-.5,14.68,14.68,0,0,0-1.9-.5,5.68,5.68,0,0,1-2.7-1.2,3.16,3.16,0,0,1-.6-4.1,3.09,3.09,0,0,1,1.5-1.2,5.75,5.75,0,0,1,2.4-.4,4.94,4.94,0,0,1,3.4,1,3.22,3.22,0,0,1,1.2,2.6l-2.4.1a1.67,1.67,0,0,0-.7-1.3,2.24,2.24,0,0,0-1.5-.4,2.86,2.86,0,0,0-1.7.4.81.81,0,0,0,0,1.4,6.35,6.35,0,0,0,2.2.8,12.59,12.59,0,0,1,2.6.9,3,3,0,0,1,1.3,1.2,3.83,3.83,0,0,1,.5,1.9,3.29,3.29,0,0,1-.6,1.9,3.44,3.44,0,0,1-1.6,1.3,6.77,6.77,0,0,1-2.6.4,5.23,5.23,0,0,1-3.5-1.1A3.32,3.32,0,0,1,228.68,233.2Z" transform="translate(-0.25 -0.25)"/><path class="cls-19" d="M244.28,225a3.16,3.16,0,0,1,2.7,1.2c.8,1,1.2,2.6,1.2,4.9s-.4,3.9-1.2,4.9a3.42,3.42,0,0,1-2.7,1.2,3.57,3.57,0,0,1-2.8-1.3c-.7-.9-1.1-2.5-1.1-4.8s.4-3.9,1.2-4.9A3.42,3.42,0,0,1,244.28,225Zm0,1.9a.91.91,0,0,0-.7.3,1.87,1.87,0,0,0-.5,1,11.52,11.52,0,0,0-.2,3,16.53,16.53,0,0,0,.2,2.9,2.26,2.26,0,0,0,.5,1.1,1.08,1.08,0,0,0,.7.3.91.91,0,0,0,.7-.3,1.87,1.87,0,0,0,.5-1,11.52,11.52,0,0,0,.2-3,16.53,16.53,0,0,0-.2-2.9,2.26,2.26,0,0,0-.5-1.1A.91.91,0,0,0,244.28,226.9Z" transform="translate(-0.25 -0.25)"/><path class="cls-19" d="M256.08,237.1h-2.3v-8.7a6.38,6.38,0,0,1-3,1.7v-2a8.08,8.08,0,0,0,2-1.1,4.54,4.54,0,0,0,1.5-1.9h1.9v12Z" transform="translate(-0.25 -0.25)"/></g><circle id="Oval" class="cls-20" cx="108.03" cy="230.45" r="12"/><path id="H" class="cls-18" d="M111.38,236.1h.5a.37.37,0,0,0,.3-.1c.1-.1.1-.1.2-.1l.1-.1h0V225.7c0-.1,0-.1-.1-.1a.35.35,0,0,0-.2-.1.37.37,0,0,1-.3-.1h-1a.37.37,0,0,0-.3.1c-.1.1-.2,0-.3,0v.2h0v3.9h-4v-4a.35.35,0,0,0-.2-.1.37.37,0,0,1-.3-.1h-1c-.1,0-.3,0-.3.1s-.3,0-.3,0l-.1.1h0v10c0,.1,0,.1.1.1a.35.35,0,0,0,.2.1.37.37,0,0,1,.3.1h1a.37.37,0,0,0,.3-.1c.1-.1.1-.1.2-.1v-.1h0v-4.3h4v4.4c0,.1,0,.1.1.1a.35.35,0,0,0,.2.1.37.37,0,0,1,.3.1C111,236,111.18,236.1,111.38,236.1Z" transform="translate(-0.25 -0.25)"/></g><g class="cls-17"><path class="cls-19" d="M97.38,305.1V294.8h7.1v1.7h-5v2.4h4.3v1.7h-4.4V305h-2Z" transform="translate(-0.25 -0.25)"/><path class="cls-19" d="M106.48,296.6v-1.8h2v1.8Zm0,8.5v-7.5h2v7.5Z" transform="translate(-0.25 -0.25)"/><path class="cls-19" d="M110.88,305.1V294.8h2v10.3Z" transform="translate(-0.25 -0.25)"/><path class="cls-19" d="M119.58,302.7l2,.3a3.39,3.39,0,0,1-1.2,1.6,3.17,3.17,0,0,1-2,.6,3.24,3.24,0,0,1-2.9-1.3,4.21,4.21,0,0,1-.7-2.6,4,4,0,0,1,1-2.9,3.25,3.25,0,0,1,2.5-1.1,3.31,3.31,0,0,1,2.6,1.1,5.31,5.31,0,0,1,.9,3.4h-5a2.17,2.17,0,0,0,.5,1.4,1.61,1.61,0,0,0,1.1.5,1.14,1.14,0,0,0,.8-.3C119.38,303.4,119.48,303.1,119.58,302.7Zm.1-2a2.23,2.23,0,0,0-.4-1.3,1.16,1.16,0,0,0-1-.4,1.61,1.61,0,0,0-1.1.5,1.7,1.7,0,0,0-.4,1.3h2.9Z" transform="translate(-0.25 -0.25)"/><path class="cls-19" d="M128.08,305.1V294.8h2l4.2,6.9v-6.9h2v10.3h-2.1l-4.2-6.7v6.7Z" transform="translate(-0.25 -0.25)"/><path class="cls-19" d="M138.38,301.3a4.14,4.14,0,0,1,.5-1.9,3.16,3.16,0,0,1,1.4-1.4,4.55,4.55,0,0,1,2-.5,4,4,0,0,1,2.8,6.7,3.76,3.76,0,0,1-2.8,1.1,4.92,4.92,0,0,1-2-.5,3.16,3.16,0,0,1-1.4-1.4A4.65,4.65,0,0,1,138.38,301.3Zm2,.1a2.86,2.86,0,0,0,.5,1.7,1.61,1.61,0,0,0,1.3.6,1.76,1.76,0,0,0,1.3-.6,2.31,2.31,0,0,0,.5-1.7,2.86,2.86,0,0,0-.5-1.7,1.61,1.61,0,0,0-1.3-.6,1.76,1.76,0,0,0-1.3.6A2.65,2.65,0,0,0,140.38,301.4Z" transform="translate(-0.25 -0.25)"/><path class="cls-19" d="M154.78,305.1h-2v-3.8a6.22,6.22,0,0,0-.1-1.6,2.09,2.09,0,0,0-.4-.6,1.45,1.45,0,0,0-.7-.2,1.61,1.61,0,0,0-.9.3,1.34,1.34,0,0,0-.6.7,5.94,5.94,0,0,0-.2,1.7V305h-2v-7.5h1.8v1.1a3.28,3.28,0,0,1,2.5-1.3,5,5,0,0,1,1.2.2,2.76,2.76,0,0,1,.8.6,2,2,0,0,1,.4.8,4.89,4.89,0,0,1,.1,1.3v4.9Z" transform="translate(-0.25 -0.25)"/><path class="cls-19" d="M157,302.4v-2h3.9v2Z" transform="translate(-0.25 -0.25)"/><path class="cls-19" d="M162.48,305.1V294.8h7.1v1.7h-5v2.4h4.3v1.7h-4.3V305h-2.1Z" transform="translate(-0.25 -0.25)"/><path class="cls-19" d="M171.58,296.6v-1.8h2v1.8Zm0,8.5v-7.5h2v7.5Z" transform="translate(-0.25 -0.25)"/><path class="cls-19" d="M182.78,305.1h-2v-3.8a6.22,6.22,0,0,0-.1-1.6,2.09,2.09,0,0,0-.4-.6,1.45,1.45,0,0,0-.7-.2,1.61,1.61,0,0,0-.9.3,1.34,1.34,0,0,0-.6.7,5.94,5.94,0,0,0-.2,1.7V305h-2v-7.5h1.8v1.1a3.28,3.28,0,0,1,2.5-1.3,5,5,0,0,1,1.2.2,2.76,2.76,0,0,1,.8.6,2,2,0,0,1,.4.8,4.89,4.89,0,0,1,.1,1.3v4.9Z" transform="translate(-0.25 -0.25)"/><path class="cls-19" d="M186.68,299.9l-1.8-.3a2.62,2.62,0,0,1,1-1.6,4.2,4.2,0,0,1,2.2-.5,5.25,5.25,0,0,1,2,.3,2.36,2.36,0,0,1,.9.8,3.61,3.61,0,0,1,.3,1.8v2.3a6.18,6.18,0,0,0,.1,1.5,6.89,6.89,0,0,0,.4,1h-2c-.1-.1-.1-.3-.2-.6a.35.35,0,0,0-.1-.2,2.59,2.59,0,0,1-1.1.7,5,5,0,0,1-1.2.2,2.44,2.44,0,0,1-1.8-.6,2.18,2.18,0,0,1-.7-1.6,2,2,0,0,1,.3-1.1,3,3,0,0,1,.8-.8,10.31,10.31,0,0,1,1.6-.5,8,8,0,0,0,1.9-.5V300c0-.4-.1-.7-.3-.8s-.5-.2-1.1-.2a1.55,1.55,0,0,0-.8.2C186.88,299.3,186.78,299.6,186.68,299.9Zm2.6,1.6a10.38,10.38,0,0,1-1.2.3,5.31,5.31,0,0,0-1.1.3.75.75,0,0,0-.4.7.91.91,0,0,0,.3.7,1.14,1.14,0,0,0,.8.3,1.28,1.28,0,0,0,1-.4,1.79,1.79,0,0,0,.5-.7,2.51,2.51,0,0,0,.1-1Z" transform="translate(-0.25 -0.25)"/><path class="cls-19" d="M193.58,305.1V294.8h2v10.3Z" transform="translate(-0.25 -0.25)"/><path class="cls-19" d="M202.38,305.1V294.8h4.4a7,7,0,0,1,2.4.3,2.34,2.34,0,0,1,1.2,1,3,3,0,0,1,.5,1.6,2.49,2.49,0,0,1-.7,1.9,3.79,3.79,0,0,1-2,1,10.63,10.63,0,0,1,1.1.9,11.16,11.16,0,0,1,1.2,1.7l1.3,2h-2.5l-1.5-2.2a9.51,9.51,0,0,0-1.1-1.5c-.2-.2-.4-.4-.6-.4a2.79,2.79,0,0,0-1-.1h-.4v4.3h-2.3Zm2.1-5.9H206a8.2,8.2,0,0,0,1.9-.1,2.09,2.09,0,0,0,.6-.4,1.08,1.08,0,0,0,.2-.8,1.14,1.14,0,0,0-.3-.8,1.51,1.51,0,0,0-.8-.4h-3.1Z" transform="translate(-0.25 -0.25)"/><path class="cls-19" d="M217.48,302.7l2,.3a3.39,3.39,0,0,1-1.2,1.6,3.17,3.17,0,0,1-2,.6,3.24,3.24,0,0,1-2.9-1.3,4.21,4.21,0,0,1-.7-2.6,4,4,0,0,1,1-2.9,3.25,3.25,0,0,1,2.5-1.1,3.31,3.31,0,0,1,2.6,1.1,5.31,5.31,0,0,1,.9,3.4h-5a2.17,2.17,0,0,0,.5,1.4,1.61,1.61,0,0,0,1.1.5,1.14,1.14,0,0,0,.8-.3C217.18,303.4,217.38,303.1,217.48,302.7Zm.1-2a2.23,2.23,0,0,0-.4-1.3,1.16,1.16,0,0,0-1-.4,1.61,1.61,0,0,0-1.1.5,1.7,1.7,0,0,0-.4,1.3h2.9Z" transform="translate(-0.25 -0.25)"/><path class="cls-19" d="M223.48,297.6v7.2a8.09,8.09,0,0,1-.2,2,1.6,1.6,0,0,1-.7.9,2.9,2.9,0,0,1-1.4.3,1.27,1.27,0,0,1-.6-.1,1.85,1.85,0,0,1-.7-.2l.3-1.7h.5a.75.75,0,0,0,.5-.1l.3-.3a8,8,0,0,0,.1-1.1v-7.1h1.9Zm-2-1v-1.8h2v1.8Z" transform="translate(-0.25 -0.25)"/><path class="cls-19" d="M230.28,302.7l2,.3a3.39,3.39,0,0,1-1.2,1.6,3.17,3.17,0,0,1-2,.6,3.24,3.24,0,0,1-2.9-1.3,4.21,4.21,0,0,1-.7-2.6,4,4,0,0,1,1-2.9,3.25,3.25,0,0,1,2.5-1.1,3.31,3.31,0,0,1,2.6,1.1,5.31,5.31,0,0,1,.9,3.4h-5a2.17,2.17,0,0,0,.5,1.4,1.61,1.61,0,0,0,1.1.5,1.14,1.14,0,0,0,.8-.3C230,303.4,230.18,303.1,230.28,302.7Zm.1-2a2.23,2.23,0,0,0-.4-1.3,1.16,1.16,0,0,0-1-.4,1.61,1.61,0,0,0-1.1.5,1.7,1.7,0,0,0-.4,1.3h2.9Z" transform="translate(-0.25 -0.25)"/><path class="cls-19" d="M240.78,299.8l-1.9.4a1.88,1.88,0,0,0-.4-.9,1.22,1.22,0,0,0-.9-.3,1.66,1.66,0,0,0-1.2.5,2.5,2.5,0,0,0-.4,1.7,3.16,3.16,0,0,0,.4,1.9,1.35,1.35,0,0,0,1.2.5,1.22,1.22,0,0,0,.9-.3,2.26,2.26,0,0,0,.5-1.1l1.9.3a3.12,3.12,0,0,1-1.2,2,3.33,3.33,0,0,1-2.3.7,3.25,3.25,0,0,1-2.6-1,4.22,4.22,0,0,1-1-2.9,4,4,0,0,1,1-2.9,3.39,3.39,0,0,1,2.6-1,3.8,3.8,0,0,1,2.2.6A2.91,2.91,0,0,1,240.78,299.8Z" transform="translate(-0.25 -0.25)"/><path class="cls-19" d="M246.18,297.6v1.6h-1.4v4.1a.22.22,0,0,0,.2.2.37.37,0,0,0,.3.1,4.5,4.5,0,0,0,.8-.2l.2,1.5a4.15,4.15,0,0,1-1.6.3,3,3,0,0,1-1-.2,1,1,0,0,1-.6-.5,3.39,3.39,0,0,1-.3-.8c0-.2-.1-.7-.1-1.4V299h-.9v-1.6h.9v-1.5l2-1.2v2.6h1.5Z" transform="translate(-0.25 -0.25)"/><path class="cls-19" d="M247.88,296.6v-1.8h2v1.8Zm0,8.5v-7.5h2v7.5Z" transform="translate(-0.25 -0.25)"/><path class="cls-19" d="M251.78,301.3a4.14,4.14,0,0,1,.5-1.9,3.16,3.16,0,0,1,1.4-1.4,4.55,4.55,0,0,1,2-.5,4,4,0,0,1,2.8,6.7,3.76,3.76,0,0,1-2.8,1.1,4.92,4.92,0,0,1-2-.5,3.16,3.16,0,0,1-1.4-1.4A4.65,4.65,0,0,1,251.78,301.3Zm2.1.1a2.86,2.86,0,0,0,.5,1.7,1.61,1.61,0,0,0,1.3.6,1.76,1.76,0,0,0,1.3-.6,2.31,2.31,0,0,0,.5-1.7,2.86,2.86,0,0,0-.5-1.7,1.61,1.61,0,0,0-1.3-.6,1.76,1.76,0,0,0-1.3.6A2.18,2.18,0,0,0,253.88,301.4Z" transform="translate(-0.25 -0.25)"/><path class="cls-19" d="M268.28,305.1h-2v-3.8a6.22,6.22,0,0,0-.1-1.6,2.09,2.09,0,0,0-.4-.6,1.45,1.45,0,0,0-.7-.2,1.61,1.61,0,0,0-.9.3,1.34,1.34,0,0,0-.6.7,5.94,5.94,0,0,0-.2,1.7V305h-2v-7.5h1.8v1.1a3.28,3.28,0,0,1,2.5-1.3,5,5,0,0,1,1.2.2,2.76,2.76,0,0,1,.8.6,2,2,0,0,1,.4.8,4.89,4.89,0,0,1,.1,1.3v4.9Z" transform="translate(-0.25 -0.25)"/><path class="cls-19" d="M275.08,305.1V294.8h4.4a7,7,0,0,1,2.4.3,2.34,2.34,0,0,1,1.2,1,3,3,0,0,1,.5,1.6,2.49,2.49,0,0,1-.7,1.9,3.79,3.79,0,0,1-2,1,10.63,10.63,0,0,1,1.1.9,11.16,11.16,0,0,1,1.2,1.7l1.3,2H282l-1.5-2.2a9.51,9.51,0,0,0-1.1-1.5c-.2-.2-.4-.4-.6-.4a2.79,2.79,0,0,0-1-.1h-.4v4.3h-2.3Zm2.1-5.9h1.5a8.2,8.2,0,0,0,1.9-.1,2.09,2.09,0,0,0,.6-.4,1.08,1.08,0,0,0,.2-.8,1.14,1.14,0,0,0-.3-.8,1.51,1.51,0,0,0-.8-.4h-3.1v2.5Z" transform="translate(-0.25 -0.25)"/><path class="cls-19" d="M290.18,302.7l2,.3a3.39,3.39,0,0,1-1.2,1.6,3.17,3.17,0,0,1-2,.6,3.24,3.24,0,0,1-2.9-1.3,4.21,4.21,0,0,1-.7-2.6,4,4,0,0,1,1-2.9,3.25,3.25,0,0,1,2.5-1.1,3.31,3.31,0,0,1,2.6,1.1,5.31,5.31,0,0,1,.9,3.4h-5a2.17,2.17,0,0,0,.5,1.4,1.61,1.61,0,0,0,1.1.5,1.14,1.14,0,0,0,.8-.3C289.88,303.4,290.08,303.1,290.18,302.7Zm.1-2a2.23,2.23,0,0,0-.4-1.3,1.16,1.16,0,0,0-1-.4,1.61,1.61,0,0,0-1.1.5,1.7,1.7,0,0,0-.4,1.3h2.9Z" transform="translate(-0.25 -0.25)"/><path class="cls-19" d="M293.58,303l2-.3a1.93,1.93,0,0,0,.5.9,1.61,1.61,0,0,0,1.1.3,2.13,2.13,0,0,0,1.2-.3.55.55,0,0,0,.3-.5.6.6,0,0,0-.1-.4,1.54,1.54,0,0,0-.7-.3,10.87,10.87,0,0,1-3-1,2,2,0,0,1-.9-1.7,2.09,2.09,0,0,1,.8-1.6,3.81,3.81,0,0,1,2.4-.7,4.62,4.62,0,0,1,2.3.5,2.38,2.38,0,0,1,1,1.5l-1.9.3a1.16,1.16,0,0,0-.5-.7c-.2-.2-.5-.2-1-.2a2.68,2.68,0,0,0-1.1.2.52.52,0,0,0-.2.4.76.76,0,0,0,.2.4,17,17,0,0,0,1.8.6,5.8,5.8,0,0,1,2.2.9,1.89,1.89,0,0,1,.6,1.5,2.27,2.27,0,0,1-.9,1.8,3.73,3.73,0,0,1-2.5.7,4.27,4.27,0,0,1-2.4-.6A2.49,2.49,0,0,1,293.58,303Z" transform="translate(-0.25 -0.25)"/><path class="cls-19" d="M302.58,297.6h1.8v1.1a2.19,2.19,0,0,1,1-.9,3.26,3.26,0,0,1,1.4-.4,2.7,2.7,0,0,1,2.2,1,4.1,4.1,0,0,1,.9,2.8,4.37,4.37,0,0,1-.9,2.9,2.7,2.7,0,0,1-2.2,1,3.59,3.59,0,0,1-1.1-.2,3.32,3.32,0,0,1-1.1-.8v3.8h-2V297.6Zm1.9,3.6a3.31,3.31,0,0,0,.5,1.9,1.43,1.43,0,0,0,1.2.6,1.25,1.25,0,0,0,1.1-.6,3,3,0,0,0,.5-1.8,2.46,2.46,0,0,0-.5-1.7,1.5,1.5,0,0,0-2.4,0A3.41,3.41,0,0,0,304.48,301.2Z" transform="translate(-0.25 -0.25)"/><path class="cls-19" d="M311.38,301.3a4.14,4.14,0,0,1,.5-1.9,3.16,3.16,0,0,1,1.4-1.4,4.55,4.55,0,0,1,2-.5,4,4,0,0,1,2.8,6.7,3.76,3.76,0,0,1-2.8,1.1,4.92,4.92,0,0,1-2-.5,3.16,3.16,0,0,1-1.4-1.4A3.64,3.64,0,0,1,311.38,301.3Zm2,.1a2.86,2.86,0,0,0,.5,1.7,1.61,1.61,0,0,0,1.3.6,1.76,1.76,0,0,0,1.3-.6,2.31,2.31,0,0,0,.5-1.7,2.86,2.86,0,0,0-.5-1.7,1.61,1.61,0,0,0-1.3-.6,1.76,1.76,0,0,0-1.3.6A2.65,2.65,0,0,0,313.38,301.4Z" transform="translate(-0.25 -0.25)"/><path class="cls-19" d="M327.78,305.1h-2v-3.8a6.22,6.22,0,0,0-.1-1.6,2.09,2.09,0,0,0-.4-.6,1.45,1.45,0,0,0-.7-.2,1.61,1.61,0,0,0-.9.3,1.34,1.34,0,0,0-.6.7,5.94,5.94,0,0,0-.2,1.7V305h-2v-7.5h1.8v1.1a3.28,3.28,0,0,1,2.5-1.3,5,5,0,0,1,1.2.2,2.76,2.76,0,0,1,.8.6,2,2,0,0,1,.4.8,4.89,4.89,0,0,1,.1,1.3v4.9Z" transform="translate(-0.25 -0.25)"/><path class="cls-19" d="M329.48,303l2-.3a1.93,1.93,0,0,0,.5.9,1.61,1.61,0,0,0,1.1.3,2.13,2.13,0,0,0,1.2-.3.55.55,0,0,0,.3-.5.6.6,0,0,0-.1-.4,1.54,1.54,0,0,0-.7-.3,10.87,10.87,0,0,1-3-1,2,2,0,0,1-.9-1.7,2.09,2.09,0,0,1,.8-1.6,3.81,3.81,0,0,1,2.4-.7,4.62,4.62,0,0,1,2.3.5,2.38,2.38,0,0,1,1,1.5l-1.9.3a1.16,1.16,0,0,0-.5-.7c-.2-.2-.5-.2-1-.2a2.68,2.68,0,0,0-1.1.2.52.52,0,0,0-.2.4.76.76,0,0,0,.2.4,17,17,0,0,0,1.8.6,5.8,5.8,0,0,1,2.2.9,1.89,1.89,0,0,1,.6,1.5,2.27,2.27,0,0,1-.9,1.8,3.73,3.73,0,0,1-2.5.7,4.27,4.27,0,0,1-2.4-.6A3.35,3.35,0,0,1,329.48,303Z" transform="translate(-0.25 -0.25)"/><path class="cls-19" d="M342.88,302.7l2,.3a3.39,3.39,0,0,1-1.2,1.6,3.17,3.17,0,0,1-2,.6,3.24,3.24,0,0,1-2.9-1.3,4.21,4.21,0,0,1-.7-2.6,4,4,0,0,1,1-2.9,3.25,3.25,0,0,1,2.5-1.1,3.31,3.31,0,0,1,2.6,1.1,5.31,5.31,0,0,1,.9,3.4h-5a2.17,2.17,0,0,0,.5,1.4,1.61,1.61,0,0,0,1.1.5,1.14,1.14,0,0,0,.8-.3C342.68,303.4,342.78,303.1,342.88,302.7Zm.1-2a2.23,2.23,0,0,0-.4-1.3,1.16,1.16,0,0,0-1-.4,1.61,1.61,0,0,0-1.1.5,1.7,1.7,0,0,0-.4,1.3H343Z" transform="translate(-0.25 -0.25)"/><path class="cls-19" d="M351.18,302.4v-2h3.9v2Z" transform="translate(-0.25 -0.25)"/><path class="cls-19" d="M367.18,303.3v1.8h-6.9a4.79,4.79,0,0,1,.7-2,18.3,18.3,0,0,1,2.2-2.5,10.11,10.11,0,0,0,1.6-1.7,1.92,1.92,0,0,0,.4-1.2,1.16,1.16,0,0,0-.4-1,1.53,1.53,0,0,0-1-.4,1.28,1.28,0,0,0-1,.4,1.9,1.9,0,0,0-.4,1.2l-2-.2a3,3,0,0,1,1.1-2.3,3.51,3.51,0,0,1,2.3-.7,3.65,3.65,0,0,1,2.4.8,2.52,2.52,0,0,1,.9,2,5.07,5.07,0,0,1-.2,1.3,4.58,4.58,0,0,1-.8,1.3,15.3,15.3,0,0,1-1.3,1.3,8.25,8.25,0,0,1-1.2,1.1c-.2.1-.3.4-.4.5h4Z" transform="translate(-0.25 -0.25)"/><path class="cls-19" d="M373.68,305.1V294.8h3.1l1.9,7,1.8-7h3.1v10.3h-1.9V297l-2,8.1h-2l-2-8.1v8.1Z" transform="translate(-0.25 -0.25)"/><path class="cls-19" d="M385.68,301.3a4.14,4.14,0,0,1,.5-1.9,3.16,3.16,0,0,1,1.4-1.4,4.55,4.55,0,0,1,2-.5,4,4,0,0,1,2.8,6.7,3.76,3.76,0,0,1-2.8,1.1,4.92,4.92,0,0,1-2-.5,3.16,3.16,0,0,1-1.4-1.4A3.64,3.64,0,0,1,385.68,301.3Zm2,.1a2.86,2.86,0,0,0,.5,1.7,1.61,1.61,0,0,0,1.3.6,1.76,1.76,0,0,0,1.3-.6,2.31,2.31,0,0,0,.5-1.7,2.86,2.86,0,0,0-.5-1.7,1.61,1.61,0,0,0-1.3-.6,1.76,1.76,0,0,0-1.3.6A2.65,2.65,0,0,0,387.68,301.4Z" transform="translate(-0.25 -0.25)"/><path class="cls-19" d="M395.28,305.1v-2h2v2Z" transform="translate(-0.25 -0.25)"/></g><g class="cls-17"><path class="cls-19" d="M400.28,305.1V294.8h7.6v1.7h-5.5v2.3h5.2v1.7h-5.2v2.8h5.8V305h-7.9Z" transform="translate(-0.25 -0.25)"/><path class="cls-19" d="M409.38,305.1l2.7-3.8-2.6-3.6h2.4l1.3,2.1,1.4-2.1h2.3l-2.5,3.5,2.8,3.9h-2.4l-1.5-2.3-1.5,2.3Z" transform="translate(-0.25 -0.25)"/><path class="cls-19" d="M422.08,297.6v1.6h-1.4v4.1a.22.22,0,0,0,.2.2.37.37,0,0,0,.3.1,4.5,4.5,0,0,0,.8-.2l.2,1.5a4.15,4.15,0,0,1-1.6.3,3,3,0,0,1-1-.2,1,1,0,0,1-.6-.5,3.39,3.39,0,0,1-.3-.8c0-.2-.1-.7-.1-1.4V299h-.9v-1.6h.9v-1.5l2-1.2v2.6h1.5Z" transform="translate(-0.25 -0.25)"/><path class="cls-19" d="M423.88,305.1v-2h2v2Z" transform="translate(-0.25 -0.25)"/></g><g id="Group-4"><g class="cls-17"><path class="cls-19" d="M576.8,389.1v-4.3l-3.8-6h2.4l2.4,4.1,2.4-4.1h2.4l-3.8,6v4.3Z" transform="translate(-0.25 -0.25)"/><path class="cls-19" d="M587.6,386.7l2,.3a3.39,3.39,0,0,1-1.2,1.6,3.17,3.17,0,0,1-2,.6,3.24,3.24,0,0,1-2.9-1.3,4.21,4.21,0,0,1-.7-2.6,4,4,0,0,1,1-2.9,3.25,3.25,0,0,1,2.5-1.1,3.31,3.31,0,0,1,2.6,1.1,5.31,5.31,0,0,1,.9,3.4h-5a2.17,2.17,0,0,0,.5,1.4,1.61,1.61,0,0,0,1.1.5,1.14,1.14,0,0,0,.8-.3C587.3,387.4,587.4,387.1,587.6,386.7Zm.1-2a2.23,2.23,0,0,0-.4-1.3,1.16,1.16,0,0,0-1-.4,1.61,1.61,0,0,0-1.1.5,1.7,1.7,0,0,0-.4,1.3h2.9Z" transform="translate(-0.25 -0.25)"/><path class="cls-19" d="M590.9,387l2-.3a1.93,1.93,0,0,0,.5.9,1.61,1.61,0,0,0,1.1.3,2.13,2.13,0,0,0,1.2-.3.55.55,0,0,0,.3-.5.6.6,0,0,0-.1-.4,1.54,1.54,0,0,0-.7-.3,10.87,10.87,0,0,1-3-1,2,2,0,0,1-.9-1.7,2.09,2.09,0,0,1,.8-1.6,3.81,3.81,0,0,1,2.4-.7,4.62,4.62,0,0,1,2.3.5,2.38,2.38,0,0,1,1,1.5l-1.9.3a1.16,1.16,0,0,0-.5-.7c-.2-.2-.5-.2-1-.2a2.68,2.68,0,0,0-1.1.2.52.52,0,0,0-.2.4.76.76,0,0,0,.2.4,17,17,0,0,0,1.8.6,4.14,4.14,0,0,1,2.2.9,1.89,1.89,0,0,1,.6,1.5,2.27,2.27,0,0,1-.9,1.8,3.73,3.73,0,0,1-2.5.7,4.27,4.27,0,0,1-2.4-.6A3.35,3.35,0,0,1,590.9,387Z" transform="translate(-0.25 -0.25)"/></g><g class="cls-17"><path class="cls-19" d="M573.9,368.1v-8.6h6.2v1h-5v2.6h4.8v1h-4.8v3h5.3v1Z" transform="translate(-0.25 -0.25)"/><path class="cls-19" d="M581.4,368.1l2.3-3.2-2.1-3h1.3l1,1.5a5.74,5.74,0,0,1,.4.7,4.23,4.23,0,0,1,.5-.7l1-1.5h1.3l-2.2,2.9,2.3,3.3h-1.3l-1.3-1.9-.3-.5-1.6,2.4Z" transform="translate(-0.25 -0.25)"/><path class="cls-19" d="M590.7,367.2l.2.9a2.49,2.49,0,0,1-.8.1,2,2,0,0,1-.9-.2.66.66,0,0,1-.4-.5c0-.2-.1-.6-.1-1.2v-3.6h-.8v-.8h.8v-1.6l1-.6v2.2h1.1v.8h-1.1v3.6c0,.3,0,.5.1.6s.1.2.2.2.2.1.4.1Z" transform="translate(-0.25 -0.25)"/><path class="cls-19" d="M596.4,366.1l1.1.1a3.07,3.07,0,0,1-1,1.5,2.73,2.73,0,0,1-1.8.5,3.29,3.29,0,0,1-2.2-.8c-.6-.5-.7-1.3-.7-2.4a3.46,3.46,0,0,1,.8-2.4,2.93,2.93,0,0,1,2.1-.9,2.79,2.79,0,0,1,2,.8,3.46,3.46,0,0,1,.8,2.4v.3h-4.6a2.11,2.11,0,0,0,.6,1.6,1.66,1.66,0,0,0,1.3.5,1.69,1.69,0,0,0,1-.3A2,2,0,0,0,596.4,366.1Zm-3.5-1.7h3.5a2.14,2.14,0,0,0-.4-1.2,1.61,1.61,0,0,0-1.3-.6,1.66,1.66,0,0,0-1.2.5A1.78,1.78,0,0,0,592.9,364.4Z" transform="translate(-0.25 -0.25)"/><path class="cls-19" d="M599.1,368.1v-6.2h.9v.9a2.22,2.22,0,0,1,2-1,3,3,0,0,1,1,.2,1.79,1.79,0,0,1,.7.5,1.14,1.14,0,0,1,.3.8c0,.2.1.5.1,1v3.8H603v-3.8a2.79,2.79,0,0,0-.1-1,1,1,0,0,0-.4-.5,1.85,1.85,0,0,0-.7-.2,1.92,1.92,0,0,0-1.2.4c-.4.3-.5.8-.5,1.6v3.5Z" transform="translate(-0.25 -0.25)"/><path class="cls-19" d="M610.1,368.1v-.8a2,2,0,0,1-1.7.9,2.3,2.3,0,0,1-1.4-.4,5.24,5.24,0,0,1-1-1.1,3.06,3.06,0,0,1-.3-1.7,4.67,4.67,0,0,1,.3-1.7,2.34,2.34,0,0,1,1-1.2,2.5,2.5,0,0,1,1.4-.4,3,3,0,0,1,1,.2c.3.1.5.4.7.6v-3h1v8.6Zm-3.3-3.1a3,3,0,0,0,.5,1.8,1.5,1.5,0,0,0,2.4,0,2.86,2.86,0,0,0,.5-1.7,3.09,3.09,0,0,0-.5-1.9,1.5,1.5,0,0,0-2.4,0A3,3,0,0,0,606.8,365Z" transform="translate(-0.25 -0.25)"/><path class="cls-19" d="M617.2,367.3a4.89,4.89,0,0,1-1.1.7,4.3,4.3,0,0,1-1.2.2,2.54,2.54,0,0,1-1.6-.5,1.61,1.61,0,0,1-.6-1.3,1.88,1.88,0,0,1,.2-.8,1.47,1.47,0,0,1,.5-.6,1.91,1.91,0,0,1,.8-.3,6.37,6.37,0,0,1,.9-.2,6.09,6.09,0,0,0,1.9-.4v-.3a1.22,1.22,0,0,0-.3-.9,2.14,2.14,0,0,0-1.2-.4,1.61,1.61,0,0,0-1.1.3,1.93,1.93,0,0,0-.5.9l-1-.1a2.22,2.22,0,0,1,.5-1.1,1.8,1.8,0,0,1,.9-.6,5.9,5.9,0,0,1,1.4-.2,4.44,4.44,0,0,1,1.3.2,1.28,1.28,0,0,1,.7.5,4.35,4.35,0,0,1,.4.7c0,.2.1.5.1,1v1.4a8.2,8.2,0,0,0,.1,1.9c.1.3.1.5.3.7h-1.1A1.14,1.14,0,0,1,617.2,367.3Zm-.1-2.3a6.07,6.07,0,0,1-1.7.4,6.37,6.37,0,0,0-.9.2,2.19,2.19,0,0,0-.5.3.75.75,0,0,0-.1.5.91.91,0,0,0,.3.7,1.22,1.22,0,0,0,.9.3,2,2,0,0,0,1.1-.3,2.34,2.34,0,0,0,.7-.7,2.68,2.68,0,0,0,.2-1.1Z" transform="translate(-0.25 -0.25)"/><path class="cls-19" d="M621.1,368.1h-1v-8.6h1.1v3.1a1.88,1.88,0,0,1,1.7-.8,4.25,4.25,0,0,1,1.1.2,1.39,1.39,0,0,1,.8.7,3.13,3.13,0,0,1,.5,1,5.07,5.07,0,0,1,.2,1.3,3.74,3.74,0,0,1-.8,2.5,2.46,2.46,0,0,1-1.9.9,2,2,0,0,1-1.7-.9Zm0-3.2a3.23,3.23,0,0,0,.3,1.6,1.56,1.56,0,0,0,1.3.8,1.43,1.43,0,0,0,1.2-.6,3.49,3.49,0,0,0,0-3.6,1.5,1.5,0,0,0-2.4,0A3.21,3.21,0,0,0,621.1,364.9Z" transform="translate(-0.25 -0.25)"/><path class="cls-19" d="M627.1,368.1v-8.6h1.1v8.6Z" transform="translate(-0.25 -0.25)"/><path class="cls-19" d="M634.3,366.1l1.1.1a3.07,3.07,0,0,1-1,1.5,2.73,2.73,0,0,1-1.8.5,3.29,3.29,0,0,1-2.2-.8c-.6-.5-.7-1.3-.7-2.4a3.46,3.46,0,0,1,.8-2.4,2.93,2.93,0,0,1,2.1-.9,2.79,2.79,0,0,1,2,.8,3.46,3.46,0,0,1,.8,2.4v.3h-4.6a2.11,2.11,0,0,0,.6,1.6,1.66,1.66,0,0,0,1.3.5,1.69,1.69,0,0,0,1-.3A1.46,1.46,0,0,0,634.3,366.1Zm-3.4-1.7h3.5a2.14,2.14,0,0,0-.4-1.2,1.61,1.61,0,0,0-1.3-.6,1.66,1.66,0,0,0-1.2.5A1.78,1.78,0,0,0,630.9,364.4Z" transform="translate(-0.25 -0.25)"/></g></g><g id="Group-16"><g class="cls-17"><path class="cls-19" d="M102,389.1h-2v-7.4a6.14,6.14,0,0,1-2.6,1.5v-1.8a6.23,6.23,0,0,0,1.7-1,3.57,3.57,0,0,0,1.2-1.6h1.6v10.3Z" transform="translate(-0.25 -0.25)"/><path class="cls-19" d="M109.58,389.1h-2v-7.4a6.14,6.14,0,0,1-2.6,1.5v-1.8a6.23,6.23,0,0,0,1.7-1,3.57,3.57,0,0,0,1.2-1.6h1.6v10.3Z" transform="translate(-0.25 -0.25)"/><path class="cls-19" d="M112.28,389.3l2.6-10.7h1.4l-2.6,10.7Z" transform="translate(-0.25 -0.25)"/><path class="cls-19" d="M124,387.3v1.8h-6.9a4.79,4.79,0,0,1,.7-2,18.3,18.3,0,0,1,2.2-2.5,10.11,10.11,0,0,0,1.6-1.7,1.92,1.92,0,0,0,.4-1.2,1.16,1.16,0,0,0-.4-1,1.53,1.53,0,0,0-1-.4,1.28,1.28,0,0,0-1,.4,1.9,1.9,0,0,0-.4,1.2l-2-.2a3,3,0,0,1,1.1-2.3,3.51,3.51,0,0,1,2.3-.7,3.65,3.65,0,0,1,2.4.8,2.52,2.52,0,0,1,.9,2,5.07,5.07,0,0,1-.2,1.3,4.58,4.58,0,0,1-.8,1.3,15.3,15.3,0,0,1-1.3,1.3,8.25,8.25,0,0,1-1.2,1.1c-.2.1-.3.4-.4.5h4Z" transform="translate(-0.25 -0.25)"/><path class="cls-19" d="M125.68,386.7l1.9-.2a1.27,1.27,0,0,0,.4.9,1.14,1.14,0,0,0,.8.3,1.1,1.1,0,0,0,1-.6,4.11,4.11,0,0,0,.5-2.3,2.32,2.32,0,0,1-1.9.9,2.88,2.88,0,0,1-2.1-.9,3.24,3.24,0,0,1-.9-2.4,3.49,3.49,0,0,1,.9-2.5,3.31,3.31,0,0,1,2.4-1,3.37,3.37,0,0,1,2.6,1.2c.7.8,1,2.1,1,4a6.52,6.52,0,0,1-1,4.1,3.51,3.51,0,0,1-2.7,1.3,3.17,3.17,0,0,1-2-.6A7.26,7.26,0,0,1,125.68,386.7Zm4.5-4.3a2.41,2.41,0,0,0-.4-1.5,1.11,1.11,0,0,0-1-.5,1,1,0,0,0-.9.4,2.59,2.59,0,0,0-.4,1.4,2.08,2.08,0,0,0,.4,1.5,1.25,1.25,0,0,0,2,0A2.27,2.27,0,0,0,130.18,382.4Z" transform="translate(-0.25 -0.25)"/><path class="cls-19" d="M133.48,389.3l2.6-10.7h1.5L135,389.3Z" transform="translate(-0.25 -0.25)"/><path class="cls-19" d="M145.18,387.3v1.8h-6.9a4.79,4.79,0,0,1,.7-2,18.3,18.3,0,0,1,2.2-2.5,10.11,10.11,0,0,0,1.6-1.7,1.92,1.92,0,0,0,.4-1.2,1.16,1.16,0,0,0-.4-1,1.53,1.53,0,0,0-1-.4,1.28,1.28,0,0,0-1,.4,1.9,1.9,0,0,0-.4,1.2l-2-.2a3,3,0,0,1,1.1-2.3,3.51,3.51,0,0,1,2.3-.7,3.65,3.65,0,0,1,2.4.8,2.52,2.52,0,0,1,.9,2,5.07,5.07,0,0,1-.2,1.3,4.58,4.58,0,0,1-.8,1.3,15.3,15.3,0,0,1-1.3,1.3,8.25,8.25,0,0,1-1.2,1.1c-.2.1-.3.6-.4.8Z" transform="translate(-0.25 -0.25)"/><path class="cls-19" d="M150.18,378.7a2.71,2.71,0,0,1,2.3,1.1c.7.8,1,2.2,1,4.2s-.3,3.4-1,4.2a3,3,0,0,1-4.7-.1,9.55,9.55,0,0,1,.1-8.3A2.71,2.71,0,0,1,150.18,378.7Zm0,1.7a1.07,1.07,0,0,0-.6.2,1.91,1.91,0,0,0-.4.8,14.23,14.23,0,0,0-.2,2.6,12.94,12.94,0,0,0,.2,2.5,1.25,1.25,0,0,0,.5.9.73.73,0,0,0,.6.2,1.07,1.07,0,0,0,.6-.2,1.91,1.91,0,0,0,.4-.8,14.23,14.23,0,0,0,.2-2.6,12.94,12.94,0,0,0-.2-2.5,1.25,1.25,0,0,0-.5-.9A1.07,1.07,0,0,0,150.18,380.4Z" transform="translate(-0.25 -0.25)"/><path class="cls-19" d="M160.28,389.1h-2v-7.4a6.14,6.14,0,0,1-2.6,1.5v-1.8a6.23,6.23,0,0,0,1.7-1,3.57,3.57,0,0,0,1.2-1.6h1.7Z" transform="translate(-0.25 -0.25)"/><path class="cls-19" d="M163.68,386.7l1.9-.2a1.27,1.27,0,0,0,.4.9,1.14,1.14,0,0,0,.8.3,1.1,1.1,0,0,0,1-.6,4.11,4.11,0,0,0,.5-2.3,2.32,2.32,0,0,1-1.9.9,2.88,2.88,0,0,1-2.1-.9,3.24,3.24,0,0,1-.9-2.4,3.49,3.49,0,0,1,.9-2.5,3.31,3.31,0,0,1,2.4-1,3.37,3.37,0,0,1,2.6,1.2c.7.8,1,2.1,1,4a6.52,6.52,0,0,1-1,4.1,3.51,3.51,0,0,1-2.7,1.3,3.17,3.17,0,0,1-2-.6A7.26,7.26,0,0,1,163.68,386.7Zm4.5-4.3a2.41,2.41,0,0,0-.4-1.5,1.11,1.11,0,0,0-1-.5,1,1,0,0,0-.9.4,2.59,2.59,0,0,0-.4,1.4,2.08,2.08,0,0,0,.4,1.5,1.25,1.25,0,0,0,2,0A2.27,2.27,0,0,0,168.18,382.4Z" transform="translate(-0.25 -0.25)"/></g><g class="cls-17"><path class="cls-19" d="M97.18,368.1v-8.6h3.2a3.51,3.51,0,0,1,1.6.3,1.76,1.76,0,0,1,.9.8,2.28,2.28,0,0,1,.3,1.1,1.69,1.69,0,0,1-.3,1,1.8,1.8,0,0,1-.9.8,2.55,2.55,0,0,1,1.2.8,2.11,2.11,0,0,1,.5,1.3,2,2,0,0,1-.3,1.1,5.55,5.55,0,0,1-.6.8,2.47,2.47,0,0,1-.9.4,5.21,5.21,0,0,1-1.4.2Zm1.1-5h1.9a3.42,3.42,0,0,0,1.1-.1,1.61,1.61,0,0,0,.7-.4c.2-.2.1-.5.1-.8a2.35,2.35,0,0,0-.2-.8c-.1-.3-.3-.3-.6-.4a4.51,4.51,0,0,0-1.3-.1h-1.7Zm0,4h2.9a1.45,1.45,0,0,0,.7-.2c.2-.1.3-.4.4-.6a1.85,1.85,0,0,0,.2-.7,1.88,1.88,0,0,0-.2-.8,1.79,1.79,0,0,0-.7-.5,3.92,3.92,0,0,0-1.3-.2h-2Z" transform="translate(-0.25 -0.25)"/><path class="cls-19" d="M109.48,367.3a4.89,4.89,0,0,1-1.1.7,3.73,3.73,0,0,1-1.2.2,2.54,2.54,0,0,1-1.6-.5,1.35,1.35,0,0,1-.5-1.2,1.88,1.88,0,0,1,.2-.8,1.47,1.47,0,0,1,.5-.6,1.91,1.91,0,0,1,.8-.3,6.37,6.37,0,0,1,.9-.2,6.09,6.09,0,0,0,1.9-.4v-.3a1.22,1.22,0,0,0-.3-.9,2.14,2.14,0,0,0-1.2-.4,1.61,1.61,0,0,0-1.1.3,1.93,1.93,0,0,0-.5.9l-1-.1a1.82,1.82,0,0,1,.4-1.1,1.46,1.46,0,0,1,.9-.6,5.9,5.9,0,0,1,1.4-.2,4.44,4.44,0,0,1,1.3.2,1.28,1.28,0,0,1,.7.5c.1.2.3.3.4.6s.1.5.1,1v1.4a8.2,8.2,0,0,0,.1,1.9c.1.3.1.5.3.7h-1.1A1.14,1.14,0,0,1,109.48,367.3Zm-.1-2.3a6.07,6.07,0,0,1-1.7.4,6.37,6.37,0,0,0-.9.2,2.19,2.19,0,0,0-.5.3.75.75,0,0,0-.1.5.91.91,0,0,0,.3.7,1.22,1.22,0,0,0,.9.3,2,2,0,0,0,1.1-.3,2.34,2.34,0,0,0,.7-.7,2.68,2.68,0,0,0,.2-1.1Z" transform="translate(-0.25 -0.25)"/><path class="cls-19" d="M112,366.2l1-.2a1.91,1.91,0,0,0,.5,1c.3.3.6.3,1.1.3a1.8,1.8,0,0,0,1.1-.3.75.75,0,0,0,.4-.7.86.86,0,0,0-.3-.6,5.34,5.34,0,0,0-1.1-.4,16.56,16.56,0,0,1-1.6-.5,1.34,1.34,0,0,1-.7-.6,1.2,1.2,0,0,1-.2-.8,2.35,2.35,0,0,1,.2-.8c.1-.3.3-.4.5-.6a4.88,4.88,0,0,1,.7-.3,2.77,2.77,0,0,1,.9-.1,5.07,5.07,0,0,1,1.3.2,1.24,1.24,0,0,1,.8.6,3,3,0,0,1,.4,1l-1,.1a1.23,1.23,0,0,0-.4-.8,1.33,1.33,0,0,0-1-.3,2.15,2.15,0,0,0-1,.2.78.78,0,0,0-.2,1,1.38,1.38,0,0,0,.4.3,4.18,4.18,0,0,1,.9.3c.7.2,1.3.4,1.6.5a1.34,1.34,0,0,1,.7.6,1.4,1.4,0,0,1,.3.9,1.69,1.69,0,0,1-.3,1,1.6,1.6,0,0,1-.9.7,5,5,0,0,1-1.3.3,3,3,0,0,1-1.8-.5A2.38,2.38,0,0,1,112,366.2Z" transform="translate(-0.25 -0.25)"/><path class="cls-19" d="M123,366.1l1.1.1a3.07,3.07,0,0,1-1,1.5,2.73,2.73,0,0,1-1.8.5,3.29,3.29,0,0,1-2.2-.8c-.6-.5-.7-1.3-.7-2.4a3.46,3.46,0,0,1,.8-2.4,2.93,2.93,0,0,1,2.1-.9,2.79,2.79,0,0,1,2,.8,3.46,3.46,0,0,1,.8,2.4v.3h-4.6a2.11,2.11,0,0,0,.6,1.6,1.66,1.66,0,0,0,1.3.5,1.69,1.69,0,0,0,1-.3A2,2,0,0,0,123,366.1Zm-3.5-1.7H123a2.14,2.14,0,0,0-.4-1.2,1.61,1.61,0,0,0-1.3-.6,1.66,1.66,0,0,0-1.2.5A2.26,2.26,0,0,0,119.48,364.4Z" transform="translate(-0.25 -0.25)"/><path class="cls-19" d="M129.48,368.1v-8.6h3a5.76,5.76,0,0,1,1.5.1,3,3,0,0,1,2.3,2.1,6.45,6.45,0,0,1,.3,2,7.93,7.93,0,0,1-.2,1.7,3.1,3.1,0,0,1-.6,1.3,2.75,2.75,0,0,1-1.8,1.2,5.21,5.21,0,0,1-1.4.2Zm1.2-1h1.8a3.92,3.92,0,0,0,1.3-.2,5.94,5.94,0,0,0,.8-.4,2,2,0,0,0,.6-1.1,7.93,7.93,0,0,0,.2-1.7,4.14,4.14,0,0,0-.4-2.1,2.59,2.59,0,0,0-1.1-1,4.87,4.87,0,0,0-1.5-.2h-1.8v6.7Z" transform="translate(-0.25 -0.25)"/><path class="cls-19" d="M142.38,367.3a4.89,4.89,0,0,1-1.1.7,3.73,3.73,0,0,1-1.2.2,2.54,2.54,0,0,1-1.6-.5,1.61,1.61,0,0,1-.6-1.3,1.88,1.88,0,0,1,.2-.8,1.47,1.47,0,0,1,.5-.6,1.91,1.91,0,0,1,.8-.3,6.37,6.37,0,0,1,.9-.2,6.09,6.09,0,0,0,1.9-.4v-.3a1.22,1.22,0,0,0-.3-.9,2.14,2.14,0,0,0-1.2-.4,1.61,1.61,0,0,0-1.1.3,1.93,1.93,0,0,0-.5.9l-1-.1a2.22,2.22,0,0,1,.5-1.1,1.8,1.8,0,0,1,.9-.6,5.9,5.9,0,0,1,1.4-.2,4.44,4.44,0,0,1,1.3.2,1.28,1.28,0,0,1,.7.5c.1.2.4.4.5.7s.1.5.1,1v1.4a8.2,8.2,0,0,0,.1,1.9c.1.3.1.5.3.7h-1.1C142.48,367.9,142.48,367.6,142.38,367.3Zm0-2.3a6.07,6.07,0,0,1-1.7.4,6.37,6.37,0,0,0-.9.2,2.19,2.19,0,0,0-.5.3.75.75,0,0,0-.1.5.91.91,0,0,0,.3.7,1.22,1.22,0,0,0,.9.3,2,2,0,0,0,1.1-.3,2.34,2.34,0,0,0,.7-.7,2.68,2.68,0,0,0,.2-1.1Z" transform="translate(-0.25 -0.25)"/><path class="cls-19" d="M147.68,367.2l.2.9a2.49,2.49,0,0,1-.8.1,2,2,0,0,1-.9-.2.66.66,0,0,1-.4-.5c0-.2-.1-.6-.1-1.2v-3.6h-.8v-.8h.8v-1.6l1-.6v2.2h1.1v.8h-1.1v3.6c0,.3,0,.5.1.6s.1.2.2.2.2.1.4.1Z" transform="translate(-0.25 -0.25)"/><path class="cls-19" d="M153.28,366.1l1.1.1a3.07,3.07,0,0,1-1,1.5,2.73,2.73,0,0,1-1.8.5,3.29,3.29,0,0,1-2.2-.8c-.6-.5-.7-1.3-.7-2.4a3.46,3.46,0,0,1,.8-2.4,2.93,2.93,0,0,1,2.1-.9,2.79,2.79,0,0,1,2,.8,3.46,3.46,0,0,1,.8,2.4v.3h-4.6a2.11,2.11,0,0,0,.6,1.6,1.66,1.66,0,0,0,1.3.5,1.69,1.69,0,0,0,1-.3A2,2,0,0,0,153.28,366.1Zm-3.5-1.7h3.5a2.14,2.14,0,0,0-.4-1.2,1.61,1.61,0,0,0-1.3-.6,1.66,1.66,0,0,0-1.2.5A2.26,2.26,0,0,0,149.78,364.4Z" transform="translate(-0.25 -0.25)"/></g></g><g id="Group-15"><g class="cls-17"><path class="cls-19" d="M261.5,389.1V387h-4.2v-1.7l4.5-6.5h1.7v6.5h1.3V387h-1.4v2.1Zm0-3.8v-3.5l-2.4,3.5Z" transform="translate(-0.25 -0.25)"/><path class="cls-19" d="M265.4,389.3l2.6-10.7h1.5l-2.7,10.7Z" transform="translate(-0.25 -0.25)"/><path class="cls-19" d="M277.1,387.3v1.8h-6.9a4.79,4.79,0,0,1,.7-2,18.3,18.3,0,0,1,2.2-2.5,10.11,10.11,0,0,0,1.6-1.7,1.92,1.92,0,0,0,.4-1.2,1.16,1.16,0,0,0-.4-1,1.53,1.53,0,0,0-1-.4,1.28,1.28,0,0,0-1,.4,1.9,1.9,0,0,0-.4,1.2l-2-.2a3,3,0,0,1,1.1-2.3,3.51,3.51,0,0,1,2.3-.7,3.65,3.65,0,0,1,2.4.8,2.52,2.52,0,0,1,.9,2,5.07,5.07,0,0,1-.2,1.3,4.58,4.58,0,0,1-.8,1.3,15.3,15.3,0,0,1-1.3,1.3,8.25,8.25,0,0,1-1.2,1.1c-.2.1-.3.4-.4.5h4Z" transform="translate(-0.25 -0.25)"/><path class="cls-19" d="M278.8,386.7l1.9-.2a1.27,1.27,0,0,0,.4.9,1.14,1.14,0,0,0,.8.3,1.1,1.1,0,0,0,1-.6,4.11,4.11,0,0,0,.5-2.3,2.32,2.32,0,0,1-1.9.9,2.88,2.88,0,0,1-2.1-.9,3.24,3.24,0,0,1-.9-2.4,3.49,3.49,0,0,1,.9-2.5,3.31,3.31,0,0,1,2.4-1,3.37,3.37,0,0,1,2.6,1.2c.7.8,1,2.1,1,4a6.52,6.52,0,0,1-1,4.1,3.51,3.51,0,0,1-2.7,1.3,3.17,3.17,0,0,1-2-.6A7.26,7.26,0,0,1,278.8,386.7Zm4.5-4.3a2.41,2.41,0,0,0-.4-1.5,1.11,1.11,0,0,0-1-.5,1,1,0,0,0-.9.4,2.59,2.59,0,0,0-.4,1.4,2.08,2.08,0,0,0,.4,1.5,1.25,1.25,0,0,0,2,0A2.27,2.27,0,0,0,283.3,382.4Z" transform="translate(-0.25 -0.25)"/><path class="cls-19" d="M286.6,389.3l2.6-10.7h1.5L288,389.3Z" transform="translate(-0.25 -0.25)"/><path class="cls-19" d="M298.3,387.3v1.8h-6.9a4.79,4.79,0,0,1,.7-2,18.3,18.3,0,0,1,2.2-2.5,10.11,10.11,0,0,0,1.6-1.7,1.92,1.92,0,0,0,.4-1.2,1.16,1.16,0,0,0-.4-1,1.53,1.53,0,0,0-1-.4,1.28,1.28,0,0,0-1,.4,1.9,1.9,0,0,0-.4,1.2l-2-.2a3,3,0,0,1,1.1-2.3,3.51,3.51,0,0,1,2.3-.7,3.65,3.65,0,0,1,2.4.8,2.52,2.52,0,0,1,.9,2,5.07,5.07,0,0,1-.2,1.3,4.58,4.58,0,0,1-.8,1.3,15.3,15.3,0,0,1-1.3,1.3,8.25,8.25,0,0,1-1.2,1.1c-.2.1-.3.4-.4.5h4Z" transform="translate(-0.25 -0.25)"/><path class="cls-19" d="M303.3,378.7a2.71,2.71,0,0,1,2.3,1.1c.7.8,1,2.2,1,4.2s-.3,3.4-1,4.2a3,3,0,0,1-4.7-.1,9.55,9.55,0,0,1,.1-8.3A2.71,2.71,0,0,1,303.3,378.7Zm0,1.7a1.07,1.07,0,0,0-.6.2,1.91,1.91,0,0,0-.4.8,14.23,14.23,0,0,0-.2,2.6,12.94,12.94,0,0,0,.2,2.5,1.25,1.25,0,0,0,.5.9.73.73,0,0,0,.6.2,1.07,1.07,0,0,0,.6-.2,1.91,1.91,0,0,0,.4-.8,14.23,14.23,0,0,0,.2-2.6,12.94,12.94,0,0,0-.2-2.5,1.25,1.25,0,0,0-.5-.9A1.07,1.07,0,0,0,303.3,380.4Z" transform="translate(-0.25 -0.25)"/><path class="cls-19" d="M315.1,387.3v1.8h-6.9a4.79,4.79,0,0,1,.7-2,18.3,18.3,0,0,1,2.2-2.5,10.11,10.11,0,0,0,1.6-1.7,1.92,1.92,0,0,0,.4-1.2,1.16,1.16,0,0,0-.4-1,1.53,1.53,0,0,0-1-.4,1.28,1.28,0,0,0-1,.4,1.9,1.9,0,0,0-.4,1.2l-2-.2a3,3,0,0,1,1.1-2.3,3.51,3.51,0,0,1,2.3-.7,3.65,3.65,0,0,1,2.4.8,2.52,2.52,0,0,1,.9,2,5.07,5.07,0,0,1-.2,1.3,4.58,4.58,0,0,1-.8,1.3,15.3,15.3,0,0,1-1.3,1.3,8.25,8.25,0,0,1-1.2,1.1c-.2.1-.3.4-.4.5h4Z" transform="translate(-0.25 -0.25)"/><path class="cls-19" d="M320.1,378.7a2.71,2.71,0,0,1,2.3,1.1c.7.8,1,2.2,1,4.2s-.3,3.4-1,4.2a3,3,0,0,1-4.7-.1,9.55,9.55,0,0,1,.1-8.3A2.71,2.71,0,0,1,320.1,378.7Zm0,1.7a1.07,1.07,0,0,0-.6.2,1.91,1.91,0,0,0-.4.8,14.23,14.23,0,0,0-.2,2.6,12.94,12.94,0,0,0,.2,2.5,1.25,1.25,0,0,0,.5.9.73.73,0,0,0,.6.2,1.07,1.07,0,0,0,.6-.2,1.91,1.91,0,0,0,.4-.8,14.23,14.23,0,0,0,.2-2.6,12.94,12.94,0,0,0-.2-2.5,1.25,1.25,0,0,0-.5-.9A1.07,1.07,0,0,0,320.1,380.4Z" transform="translate(-0.25 -0.25)"/></g><g class="cls-17"><path class="cls-19" d="M257.9,368.1v-8.6h3a5.76,5.76,0,0,1,1.5.1,3,3,0,0,1,2.3,2.1,6.65,6.65,0,0,1,.3,2.1,4.68,4.68,0,0,1-.2,1.7,3.37,3.37,0,0,1-.6,1.2,6,6,0,0,1-.8.8,3,3,0,0,1-1,.4,5.9,5.9,0,0,1-1.4.2Zm1.2-1h1.8a3.92,3.92,0,0,0,1.3-.2,2,2,0,0,0,.8-.4,2,2,0,0,0,.6-1.1,7.93,7.93,0,0,0,.2-1.7,4.14,4.14,0,0,0-.4-2.1,2.59,2.59,0,0,0-1.1-1c-.3,0-.8-.1-1.4-.1h-1.8Z" transform="translate(-0.25 -0.25)"/><path class="cls-19" d="M270.9,368.1v-.9a2.31,2.31,0,0,1-2,1.1,3,3,0,0,1-1-.2,1.28,1.28,0,0,1-.7-.5,7.93,7.93,0,0,1-.4-.9c0-.2-.1-.5-.1-1v-3.8h1.1v3.5a2.81,2.81,0,0,0,.1,1.1,1.61,1.61,0,0,0,.4.7,1.08,1.08,0,0,0,.8.2,2.92,2.92,0,0,0,.9-.2,1.06,1.06,0,0,0,.6-.7,3.73,3.73,0,0,0,.2-1.2v-3.4h1.1v6.2Z" transform="translate(-0.25 -0.25)"/><path class="cls-19" d="M278,366.1l1.1.1a3.07,3.07,0,0,1-1,1.5,2.73,2.73,0,0,1-1.8.5,3.29,3.29,0,0,1-2.2-.8c-.6-.5-.7-1.3-.7-2.4a3.46,3.46,0,0,1,.8-2.4,2.93,2.93,0,0,1,2.1-.9,2.79,2.79,0,0,1,2,.8,3.46,3.46,0,0,1,.8,2.4v.3h-4.6a2.11,2.11,0,0,0,.6,1.6,1.66,1.66,0,0,0,1.3.5,1.69,1.69,0,0,0,1-.3A1.46,1.46,0,0,0,278,366.1Zm-3.4-1.7h3.5a2.14,2.14,0,0,0-.4-1.2,1.61,1.61,0,0,0-1.3-.6,1.66,1.66,0,0,0-1.2.5A1.78,1.78,0,0,0,274.6,364.4Z" transform="translate(-0.25 -0.25)"/><path class="cls-19" d="M284.6,368.1v-8.6h3a5.76,5.76,0,0,1,1.5.1,3,3,0,0,1,2.3,2.1,6.45,6.45,0,0,1,.3,2,7.93,7.93,0,0,1-.2,1.7,3.1,3.1,0,0,1-.6,1.3,2.75,2.75,0,0,1-1.8,1.2,5.9,5.9,0,0,1-1.4.2Zm1.1-1h1.8a3.92,3.92,0,0,0,1.3-.2,5.94,5.94,0,0,0,.8-.4,2,2,0,0,0,.6-1.1,7.93,7.93,0,0,0,.2-1.7,4.14,4.14,0,0,0-.4-2.1,2.59,2.59,0,0,0-1.1-1,4.87,4.87,0,0,0-1.5-.2h-1.8v6.7Z" transform="translate(-0.25 -0.25)"/><path class="cls-19" d="M297.5,367.3a4.89,4.89,0,0,1-1.1.7,3.73,3.73,0,0,1-1.2.2,2.54,2.54,0,0,1-1.6-.5,1.61,1.61,0,0,1-.6-1.3,1.88,1.88,0,0,1,.2-.8,1.47,1.47,0,0,1,.5-.6,1.91,1.91,0,0,1,.8-.3,6.37,6.37,0,0,1,.9-.2,6.09,6.09,0,0,0,1.9-.4v-.3a1.22,1.22,0,0,0-.3-.9,2.14,2.14,0,0,0-1.2-.4,1.61,1.61,0,0,0-1.1.3,1.93,1.93,0,0,0-.5.9l-1-.1a2.22,2.22,0,0,1,.5-1.1,1.8,1.8,0,0,1,.9-.6,5.9,5.9,0,0,1,1.4-.2,4.44,4.44,0,0,1,1.3.2,1.28,1.28,0,0,1,.7.5,1.49,1.49,0,0,1,.3.7c0,.2.1.5.1,1v1.4a8.2,8.2,0,0,0,.1,1.9c.1.3.1.5.3.7h-1.1A1.88,1.88,0,0,1,297.5,367.3Zm-.1-2.3a6.07,6.07,0,0,1-1.7.4,6.37,6.37,0,0,0-.9.2,1.38,1.38,0,0,0-.4.3.75.75,0,0,0-.1.5.91.91,0,0,0,.3.7,1.22,1.22,0,0,0,.9.3,2,2,0,0,0,1.1-.3,2.34,2.34,0,0,0,.7-.7,2.68,2.68,0,0,0,.2-1.1V365Z" transform="translate(-0.25 -0.25)"/><path class="cls-19" d="M302.7,367.2l.2.9a2.49,2.49,0,0,1-.8.1,2,2,0,0,1-.9-.2.66.66,0,0,1-.4-.5c0-.2-.1-.6-.1-1.2v-3.6h-.8v-.8h.8v-1.6l1-.6v2.2h1.1v.8h-1.1v3.6c0,.3,0,.5.1.6s.1.2.2.2.2.1.4.1Z" transform="translate(-0.25 -0.25)"/><path class="cls-19" d="M308.3,366.1l1.1.1a3.07,3.07,0,0,1-1,1.5,2.73,2.73,0,0,1-1.8.5,3.29,3.29,0,0,1-2.2-.8c-.6-.5-.7-1.3-.7-2.4a3.46,3.46,0,0,1,.8-2.4,2.93,2.93,0,0,1,2.1-.9,2.79,2.79,0,0,1,2,.8,3.46,3.46,0,0,1,.8,2.4v.3h-4.6a2.11,2.11,0,0,0,.6,1.6,1.66,1.66,0,0,0,1.3.5,1.69,1.69,0,0,0,1-.3A1.46,1.46,0,0,0,308.3,366.1Zm-3.4-1.7h3.5a2.14,2.14,0,0,0-.4-1.2,1.61,1.61,0,0,0-1.3-.6,1.66,1.66,0,0,0-1.2.5A1.78,1.78,0,0,0,304.9,364.4Z" transform="translate(-0.25 -0.25)"/></g></g><g id="Group-14"><g class="cls-17"><path class="cls-19" d="M415.6,386.4l2-.2a2.22,2.22,0,0,0,.5,1.1,1.28,1.28,0,0,0,1,.4,1.23,1.23,0,0,0,1-.5,2.08,2.08,0,0,0,.4-1.5,2,2,0,0,0-.4-1.4,1.43,1.43,0,0,0-1.1-.5,1.9,1.9,0,0,0-1.5.8l-1.6-.2,1-5.4h5.2v1.8h-3.7l-.3,1.8a3.08,3.08,0,0,1,1.3-.3,2.7,2.7,0,0,1,2.2,1,3.66,3.66,0,0,1,.9,2.5,3.89,3.89,0,0,1-.7,2.3,3.58,3.58,0,0,1-5.1.6A4.93,4.93,0,0,1,415.6,386.4Z" transform="translate(-0.25 -0.25)"/><path class="cls-19" d="M423.4,389.3l2.6-10.7h1.5l-2.7,10.7Z" transform="translate(-0.25 -0.25)"/><path class="cls-19" d="M435.1,387.3v1.8h-6.9a4.79,4.79,0,0,1,.7-2,18.3,18.3,0,0,1,2.2-2.5,10.11,10.11,0,0,0,1.6-1.7,1.92,1.92,0,0,0,.4-1.2,1.16,1.16,0,0,0-.4-1,1.53,1.53,0,0,0-1-.4,1.28,1.28,0,0,0-1,.4,1.9,1.9,0,0,0-.4,1.2l-2-.2a3,3,0,0,1,1.1-2.3,3.51,3.51,0,0,1,2.3-.7,3.65,3.65,0,0,1,2.4.8,2.52,2.52,0,0,1,.9,2,5.07,5.07,0,0,1-.2,1.3,4.58,4.58,0,0,1-.8,1.3,15.3,15.3,0,0,1-1.3,1.3,8.25,8.25,0,0,1-1.2,1.1c-.2.2-.3.4-.4.5h4Z" transform="translate(-0.25 -0.25)"/><path class="cls-19" d="M436.8,386.7l1.9-.2a1.27,1.27,0,0,0,.4.9,1.14,1.14,0,0,0,.8.3,1.1,1.1,0,0,0,1-.6,4.11,4.11,0,0,0,.5-2.3,2.32,2.32,0,0,1-1.9.9,2.88,2.88,0,0,1-2.1-.9,3.24,3.24,0,0,1-.9-2.4,3.49,3.49,0,0,1,.9-2.5,3.31,3.31,0,0,1,2.4-1,3.37,3.37,0,0,1,2.6,1.2c.7.8,1,2.1,1,4a6.52,6.52,0,0,1-1,4.1,3.51,3.51,0,0,1-2.7,1.3,3.17,3.17,0,0,1-2-.6A7.26,7.26,0,0,1,436.8,386.7Zm4.5-4.3a2.41,2.41,0,0,0-.4-1.5,1.11,1.11,0,0,0-1-.5,1,1,0,0,0-.9.4,2.59,2.59,0,0,0-.4,1.4,2.08,2.08,0,0,0,.4,1.5,1.25,1.25,0,0,0,2,0C441.3,383.4,441.3,383,441.3,382.4Z" transform="translate(-0.25 -0.25)"/><path class="cls-19" d="M444.6,389.3l2.6-10.7h1.5L446,389.3Z" transform="translate(-0.25 -0.25)"/><path class="cls-19" d="M456.3,387.3v1.8h-6.9a4.79,4.79,0,0,1,.7-2,18.3,18.3,0,0,1,2.2-2.5,10.11,10.11,0,0,0,1.6-1.7,1.92,1.92,0,0,0,.4-1.2,1.16,1.16,0,0,0-.4-1,1.53,1.53,0,0,0-1-.4,1.28,1.28,0,0,0-1,.4,1.9,1.9,0,0,0-.4,1.2l-2-.2a3,3,0,0,1,1.1-2.3,4.18,4.18,0,0,1,2.3-.7,3.65,3.65,0,0,1,2.4.8,2.52,2.52,0,0,1,.9,2,2.77,2.77,0,0,1-.3,1.3,4.58,4.58,0,0,1-.8,1.3,15.3,15.3,0,0,1-1.3,1.3,8.25,8.25,0,0,1-1.2,1.1c-.2.1-.3.4-.4.5h4.1Z" transform="translate(-0.25 -0.25)"/><path class="cls-19" d="M461.3,378.7a2.71,2.71,0,0,1,2.3,1.1c.7.8,1,2.2,1,4.2s-.3,3.4-1,4.2a3,3,0,0,1-4.7-.1,9.55,9.55,0,0,1,.1-8.3A2.71,2.71,0,0,1,461.3,378.7Zm0,1.7a1.07,1.07,0,0,0-.6.2,1.91,1.91,0,0,0-.4.8,14.23,14.23,0,0,0-.2,2.6,12.94,12.94,0,0,0,.2,2.5,1.25,1.25,0,0,0,.5.9,1.42,1.42,0,0,0,.6.2,1.07,1.07,0,0,0,.6-.2,1.91,1.91,0,0,0,.4-.8,14.23,14.23,0,0,0,.2-2.6,12.94,12.94,0,0,0-.2-2.5,1.25,1.25,0,0,0-.5-.9A.85.85,0,0,0,461.3,380.4Z" transform="translate(-0.25 -0.25)"/><path class="cls-19" d="M473.1,387.3v1.8h-6.9a4.79,4.79,0,0,1,.7-2,18.3,18.3,0,0,1,2.2-2.5,10.11,10.11,0,0,0,1.6-1.7,1.92,1.92,0,0,0,.4-1.2,1.16,1.16,0,0,0-.4-1,1.53,1.53,0,0,0-1-.4,1.28,1.28,0,0,0-1,.4,1.9,1.9,0,0,0-.4,1.2l-2-.2a3,3,0,0,1,1.1-2.3,4.18,4.18,0,0,1,2.3-.7,3.65,3.65,0,0,1,2.4.8,2.52,2.52,0,0,1,.9,2,2.77,2.77,0,0,1-.3,1.3,4.58,4.58,0,0,1-.8,1.3,15.3,15.3,0,0,1-1.3,1.3,8.25,8.25,0,0,1-1.2,1.1c-.2.1-.3.4-.4.5h4.1Z" transform="translate(-0.25 -0.25)"/><path class="cls-19" d="M478.1,378.7a2.71,2.71,0,0,1,2.3,1.1c.7.8,1,2.2,1,4.2s-.3,3.4-1,4.2a3,3,0,0,1-4.7-.1,9.55,9.55,0,0,1,.1-8.3A2.71,2.71,0,0,1,478.1,378.7Zm0,1.7a1.07,1.07,0,0,0-.6.2,1.91,1.91,0,0,0-.4.8,14.23,14.23,0,0,0-.2,2.6,12.94,12.94,0,0,0,.2,2.5,1.25,1.25,0,0,0,.5.9,1.42,1.42,0,0,0,.6.2,1.07,1.07,0,0,0,.6-.2,1.91,1.91,0,0,0,.4-.8,14.23,14.23,0,0,0,.2-2.6,12.94,12.94,0,0,0-.2-2.5,1.25,1.25,0,0,0-.5-.9A.85.85,0,0,0,478.1,380.4Z" transform="translate(-0.25 -0.25)"/></g><g class="cls-17"><path class="cls-19" d="M416,368.1v-8.6h5.8v1h-4.7v2.7h4v1h-4v3.9Z" transform="translate(-0.25 -0.25)"/><path class="cls-19" d="M423.5,360.7v-1.2h1.1v1.2Zm0,7.4v-6.2h1.1v6.2Z" transform="translate(-0.25 -0.25)"/><path class="cls-19" d="M426.4,368.1v-6.2h.9v.9a2.22,2.22,0,0,1,2-1,3,3,0,0,1,1,.2,1.28,1.28,0,0,1,.7.5,1.91,1.91,0,0,1,.3.8c0,.2.1.5.1,1v3.8h-1.1v-3.8a2.79,2.79,0,0,0-.1-1,1,1,0,0,0-.4-.5,1.85,1.85,0,0,0-.7-.2,1.92,1.92,0,0,0-1.2.4c-.4.3-.5.8-.5,1.6v3.5Z" transform="translate(-0.25 -0.25)"/><path class="cls-19" d="M437.5,367.3a4.89,4.89,0,0,1-1.1.7,3.73,3.73,0,0,1-1.2.2,2.54,2.54,0,0,1-1.6-.5,1.61,1.61,0,0,1-.6-1.3,1.88,1.88,0,0,1,.2-.8,1.47,1.47,0,0,1,.5-.6,1.91,1.91,0,0,1,.8-.3,6.37,6.37,0,0,1,.9-.2,6.09,6.09,0,0,0,1.9-.4v-.3a1.22,1.22,0,0,0-.3-.9,2.14,2.14,0,0,0-1.2-.4,1.61,1.61,0,0,0-1.1.3,1.93,1.93,0,0,0-.5.9l-1-.1a2.22,2.22,0,0,1,.5-1.1,1.8,1.8,0,0,1,.9-.6,5.9,5.9,0,0,1,1.4-.2,4.44,4.44,0,0,1,1.3.2,1.28,1.28,0,0,1,.7.5,1.49,1.49,0,0,1,.3.7c0,.2.1.5.1,1v1.4a8.2,8.2,0,0,0,.1,1.9c.1.3.1.5.3.7h-1.1A1.88,1.88,0,0,1,437.5,367.3Zm-.1-2.3a6.07,6.07,0,0,1-1.7.4,6.37,6.37,0,0,0-.9.2,1.38,1.38,0,0,0-.4.3.75.75,0,0,0-.1.5.91.91,0,0,0,.3.7,1.22,1.22,0,0,0,.9.3,2,2,0,0,0,1.1-.3,2.34,2.34,0,0,0,.7-.7,2.68,2.68,0,0,0,.2-1.1V365Z" transform="translate(-0.25 -0.25)"/><path class="cls-19" d="M440.4,368.1v-8.6h1.1v8.6Z" transform="translate(-0.25 -0.25)"/><path class="cls-19" d="M447.2,368.1v-8.6h3a5.76,5.76,0,0,1,1.5.1,3,3,0,0,1,2.3,2.1,6.45,6.45,0,0,1,.3,2,7.93,7.93,0,0,1-.2,1.7,3.1,3.1,0,0,1-.6,1.3,2.75,2.75,0,0,1-1.8,1.2,5.9,5.9,0,0,1-1.4.2Zm1.1-1h1.8a3.92,3.92,0,0,0,1.3-.2,5.94,5.94,0,0,0,.8-.4,2,2,0,0,0,.6-1.1,7.93,7.93,0,0,0,.2-1.7,4.14,4.14,0,0,0-.4-2.1,2.59,2.59,0,0,0-1.1-1,4.87,4.87,0,0,0-1.5-.2h-1.8v6.7Z" transform="translate(-0.25 -0.25)"/><path class="cls-19" d="M460.1,368.1v-.9a2.31,2.31,0,0,1-2,1.1,3,3,0,0,1-1-.2,1.28,1.28,0,0,1-.7-.5,1.91,1.91,0,0,1-.3-.8c0-.2-.1-.5-.1-1v-3.9h1.1v3.5a2.81,2.81,0,0,0,.1,1.1,1.61,1.61,0,0,0,.4.7,1.08,1.08,0,0,0,.8.2,2.92,2.92,0,0,0,.9-.2,1.06,1.06,0,0,0,.6-.7,4.89,4.89,0,0,0,.1-1.3v-3.3h1.1v6.2Z" transform="translate(-0.25 -0.25)"/><path class="cls-19" d="M467.3,366.1l1.1.1a3.07,3.07,0,0,1-1,1.5,2.73,2.73,0,0,1-1.8.5,3.29,3.29,0,0,1-2.2-.8c-.6-.5-.7-1.3-.7-2.4a3.46,3.46,0,0,1,.8-2.4,2.93,2.93,0,0,1,2.1-.9,2.79,2.79,0,0,1,2,.8,3.46,3.46,0,0,1,.8,2.4v.3h-4.6a2.11,2.11,0,0,0,.6,1.6,1.66,1.66,0,0,0,1.3.5,1.69,1.69,0,0,0,1-.3A1.46,1.46,0,0,0,467.3,366.1Zm-3.4-1.7h3.5a2.14,2.14,0,0,0-.4-1.2,1.61,1.61,0,0,0-1.3-.6,1.66,1.66,0,0,0-1.2.5A1.78,1.78,0,0,0,463.9,364.4Z" transform="translate(-0.25 -0.25)"/><path class="cls-19" d="M473.9,368.1v-8.6h3a5.76,5.76,0,0,1,1.5.1,3,3,0,0,1,2.3,2.1,6.45,6.45,0,0,1,.3,2,7.93,7.93,0,0,1-.2,1.7,3.1,3.1,0,0,1-.6,1.3,2.75,2.75,0,0,1-1.8,1.2,5.9,5.9,0,0,1-1.4.2Zm1.1-1h1.8a3.92,3.92,0,0,0,1.3-.2,5.94,5.94,0,0,0,.8-.4,2,2,0,0,0,.6-1.1,7.93,7.93,0,0,0,.2-1.7,4.14,4.14,0,0,0-.4-2.1,2.59,2.59,0,0,0-1.1-1,4.87,4.87,0,0,0-1.5-.2H475Z" transform="translate(-0.25 -0.25)"/><path class="cls-19" d="M486.8,367.3a4.89,4.89,0,0,1-1.1.7,3.73,3.73,0,0,1-1.2.2,2.54,2.54,0,0,1-1.6-.5,1.61,1.61,0,0,1-.6-1.3,1.88,1.88,0,0,1,.2-.8,1.47,1.47,0,0,1,.5-.6,1.91,1.91,0,0,1,.8-.3,6.37,6.37,0,0,1,.9-.2,6.09,6.09,0,0,0,1.9-.4v-.3a1.22,1.22,0,0,0-.3-.9,2.14,2.14,0,0,0-1.2-.4,1.61,1.61,0,0,0-1.1.3,1.93,1.93,0,0,0-.5.9l-1-.1a2.22,2.22,0,0,1,.5-1.1,1.8,1.8,0,0,1,.9-.6,5.9,5.9,0,0,1,1.4-.2,4.44,4.44,0,0,1,1.3.2,1.28,1.28,0,0,1,.7.5,1.49,1.49,0,0,1,.3.7c0,.2.1.5.1,1v1.4a8.2,8.2,0,0,0,.1,1.9c.1.3.1.5.3.7H487A1.88,1.88,0,0,1,486.8,367.3Zm-.1-2.3a6.07,6.07,0,0,1-1.7.4,6.37,6.37,0,0,0-.9.2,1.38,1.38,0,0,0-.4.3.75.75,0,0,0-.1.5.91.91,0,0,0,.3.7,1.22,1.22,0,0,0,.9.3,2,2,0,0,0,1.1-.3,2.34,2.34,0,0,0,.7-.7,2.68,2.68,0,0,0,.2-1.1V365Z" transform="translate(-0.25 -0.25)"/><path class="cls-19" d="M492,367.2l.2.9a2.49,2.49,0,0,1-.8.1,2,2,0,0,1-.9-.2.66.66,0,0,1-.4-.5c0-.2-.1-.6-.1-1.2v-3.6h-.8v-.8h.8v-1.6l1-.6v2.2h1v.8h-1v3.6c0,.3,0,.5.1.6s.1.2.2.2.2.1.4.1Z" transform="translate(-0.25 -0.25)"/><path class="cls-19" d="M497.6,366.1l1.1.1a3.07,3.07,0,0,1-1,1.5,2.73,2.73,0,0,1-1.8.5,3.29,3.29,0,0,1-2.2-.8c-.6-.5-.7-1.3-.7-2.4a3.46,3.46,0,0,1,.8-2.4,2.93,2.93,0,0,1,2.1-.9,2.79,2.79,0,0,1,2,.8,3.46,3.46,0,0,1,.8,2.4v.3h-4.6a2.11,2.11,0,0,0,.6,1.6,1.66,1.66,0,0,0,1.3.5,1.69,1.69,0,0,0,1-.3A1.46,1.46,0,0,0,497.6,366.1Zm-3.4-1.7h3.5a2.14,2.14,0,0,0-.4-1.2,1.61,1.61,0,0,0-1.3-.6,1.66,1.66,0,0,0-1.2.5A1.78,1.78,0,0,0,494.2,364.4Z" transform="translate(-0.25 -0.25)"/></g></g><g class="cls-17"><path class="cls-19" d="M96.78,274.9l1.1-.1a3.58,3.58,0,0,0,.4,1.1,2.18,2.18,0,0,0,.9.7,2.77,2.77,0,0,0,1.3.3,3.59,3.59,0,0,0,1.1-.2,1.28,1.28,0,0,0,.7-.5,1.85,1.85,0,0,0,.2-.7,1.45,1.45,0,0,0-.2-.7,1.23,1.23,0,0,0-.8-.5,12.68,12.68,0,0,0-1.5-.4c-.8-.2-1.3-.4-1.7-.5a2.36,2.36,0,0,1-.9-.8,2,2,0,0,1-.3-1.1,1.92,1.92,0,0,1,.4-1.2,2.44,2.44,0,0,1,1.1-.9,4.15,4.15,0,0,1,1.6-.3,4.67,4.67,0,0,1,1.7.3,2,2,0,0,1,1.1.9,2.89,2.89,0,0,1,.4,1.4l-1.1-.1a2,2,0,0,0-.6-1.2,2.7,2.7,0,0,0-1.5-.4,2.08,2.08,0,0,0-1.5.4,1.09,1.09,0,0,0-.4.9,1.14,1.14,0,0,0,.3.8,4.35,4.35,0,0,0,1.7.6c.9.2,1.6.4,1.9.5a2,2,0,0,1,1.1.9,2.84,2.84,0,0,1,.4,1.2,2,2,0,0,1-.4,1.3,2.44,2.44,0,0,1-1.1.9,4.31,4.31,0,0,1-1.7.3,6,6,0,0,1-2-.3,2.41,2.41,0,0,1-1.2-1A3.77,3.77,0,0,1,96.78,274.9Z" transform="translate(-0.25 -0.25)"/><path class="cls-19" d="M109.48,277.7v-.9a2.31,2.31,0,0,1-2,1.1,3,3,0,0,1-1-.2,1.28,1.28,0,0,1-.7-.5,1.91,1.91,0,0,1-.3-.8c0-.2-.1-.5-.1-1v-3.9h1.1V275a2.81,2.81,0,0,0,.1,1.1,1.61,1.61,0,0,0,.4.7,1.08,1.08,0,0,0,.8.2,2.92,2.92,0,0,0,.9-.2,1.06,1.06,0,0,0,.6-.7,3.73,3.73,0,0,0,.2-1.2v-3.4h1.1v6.2Z" transform="translate(-0.25 -0.25)"/><path class="cls-19" d="M113.38,277.7h-1v-8.6h1.1v3.1a1.88,1.88,0,0,1,1.7-.8,4.25,4.25,0,0,1,1.1.2,1.39,1.39,0,0,1,.8.7,3.13,3.13,0,0,1,.5,1,5.07,5.07,0,0,1,.2,1.3,3.74,3.74,0,0,1-.8,2.5,2.46,2.46,0,0,1-1.9.9,2,2,0,0,1-1.7-.9Zm0-3.2a3.23,3.23,0,0,0,.3,1.6,1.56,1.56,0,0,0,1.3.8,1.43,1.43,0,0,0,1.2-.6,3.49,3.49,0,0,0,0-3.6,1.5,1.5,0,0,0-2.4,0A3.21,3.21,0,0,0,113.38,274.5Z" transform="translate(-0.25 -0.25)"/><path class="cls-19" d="M118.08,280.1l.2-.9a1.09,1.09,0,0,0,.5.1.76.76,0,0,0,.5-.2,2,2,0,0,0,.2-1.1v-6.5h1.1v6.6a3,3,0,0,1-.3,1.6,1.49,1.49,0,0,1-1.3.6A6.37,6.37,0,0,1,118.08,280.1Zm1.3-9.8v-1.2h1.1v1.2Z" transform="translate(-0.25 -0.25)"/><path class="cls-19" d="M126.68,275.7l1.1.1a3.07,3.07,0,0,1-1,1.5,2.73,2.73,0,0,1-1.8.5,3.29,3.29,0,0,1-2.2-.8,2.92,2.92,0,0,1-.8-2.4,3.46,3.46,0,0,1,.8-2.4,2.93,2.93,0,0,1,2.1-.9,2.79,2.79,0,0,1,2,.8,3.46,3.46,0,0,1,.8,2.4v.3h-4.6a2.11,2.11,0,0,0,.6,1.6,1.66,1.66,0,0,0,1.3.5,1.69,1.69,0,0,0,1-.3A2.18,2.18,0,0,0,126.68,275.7Zm-3.5-1.7h3.5a2.14,2.14,0,0,0-.4-1.2,1.61,1.61,0,0,0-1.3-.6,1.66,1.66,0,0,0-1.2.5A1.78,1.78,0,0,0,123.18,274Z" transform="translate(-0.25 -0.25)"/><path class="cls-19" d="M133.48,275.4l1,.1a2.59,2.59,0,0,1-.9,1.7,2.52,2.52,0,0,1-1.7.6,2.79,2.79,0,0,1-2.9-3.2,4.84,4.84,0,0,1,.3-1.8,2.17,2.17,0,0,1,1-1.1,3.71,3.71,0,0,1,1.5-.4,3.1,3.1,0,0,1,1.7.5,1.87,1.87,0,0,1,.8,1.5l-1,.2a1.93,1.93,0,0,0-.5-.9,1.22,1.22,0,0,0-.9-.3,1.61,1.61,0,0,0-1.3.6,3.49,3.49,0,0,0,0,3.6,1.49,1.49,0,0,0,1.3.6,1.16,1.16,0,0,0,1-.4A3.93,3.93,0,0,0,133.48,275.4Z" transform="translate(-0.25 -0.25)"/><path class="cls-19" d="M138,276.8l.2.9a2.49,2.49,0,0,1-.8.1,2,2,0,0,1-.9-.2.66.66,0,0,1-.4-.5c0-.2-.1-.6-.1-1.2v-3.6h-.8v-.8h.8V270l1-.6v2.2h1.1v.8H137V276c0,.3,0,.5.1.6s.1.2.2.2.2.1.4.1C137.68,276.8,137.78,276.8,138,276.8Z" transform="translate(-0.25 -0.25)"/></g><path id="Rectangle-3" data-name="Rectangle" class="cls-21" d="M586.18,296.7h80.4a13.19,13.19,0,0,1,13.2,13.2h0a13.19,13.19,0,0,1-13.2,13.2h-80.4A13.19,13.19,0,0,1,573,309.9h0A13.19,13.19,0,0,1,586.18,296.7Z" transform="translate(-0.25 -0.25)"/><g id="Group-40"><g class="cls-17"><path class="cls-19" d="M606.4,315.5V305.2h3.4a11.4,11.4,0,0,1,2.5.2,3.07,3.07,0,0,1,1.5,1,3.17,3.17,0,0,1,.6,2,3.81,3.81,0,0,1-.3,1.6,2.19,2.19,0,0,1-.9,1,6.12,6.12,0,0,1-1.2.5,12.84,12.84,0,0,1-2.2.1h-1.4v3.9Zm2.1-8.6v2.9h1.1a4.66,4.66,0,0,0,1.6-.2,3,3,0,0,0,.7-.5,1.08,1.08,0,0,0,.2-.8,1.22,1.22,0,0,0-.3-.9,2.18,2.18,0,0,0-.8-.5c-.2,0-.7-.1-1.5-.1h-1Z" transform="translate(-0.25 -0.25)"/><path class="cls-19" d="M620.8,313.1l2,.3a3.39,3.39,0,0,1-1.2,1.6,3.17,3.17,0,0,1-2,.6,3.24,3.24,0,0,1-2.9-1.3,4.21,4.21,0,0,1-.7-2.6,4,4,0,0,1,1-2.9,3.25,3.25,0,0,1,2.5-1.1,3.31,3.31,0,0,1,2.6,1.1,5.31,5.31,0,0,1,.9,3.4h-5a2.17,2.17,0,0,0,.5,1.4,1.61,1.61,0,0,0,1.1.5,1.14,1.14,0,0,0,.8-.3C620.5,313.8,620.6,313.5,620.8,313.1Zm.1-2a2.23,2.23,0,0,0-.4-1.3,1.16,1.16,0,0,0-1-.4,1.61,1.61,0,0,0-1.1.5,1.7,1.7,0,0,0-.4,1.3h2.9Z" transform="translate(-0.25 -0.25)"/><path class="cls-19" d="M631.6,315.5h-2v-3.8a6.22,6.22,0,0,0-.1-1.6,2.09,2.09,0,0,0-.4-.6,1.45,1.45,0,0,0-.7-.2,1.61,1.61,0,0,0-.9.3,1.34,1.34,0,0,0-.6.7,8.66,8.66,0,0,0-.1,1.8v3.4h-2V308h1.8v1.1a3.28,3.28,0,0,1,2.5-1.3,5,5,0,0,1,1.2.2,1.7,1.7,0,0,1,.8.6,2,2,0,0,1,.4.8,4.89,4.89,0,0,1,.1,1.3Z" transform="translate(-0.25 -0.25)"/><path class="cls-19" d="M640.9,315.5h-1.8v-1.1a5.24,5.24,0,0,1-1.1,1,2.77,2.77,0,0,1-1.3.3,2.7,2.7,0,0,1-2.2-1,4.37,4.37,0,0,1-.9-2.9,4.2,4.2,0,0,1,.9-2.9,2.76,2.76,0,0,1,2.3-1,2.84,2.84,0,0,1,2.2,1v-3.7h2v10.3Zm-5.3-3.9a3.42,3.42,0,0,0,.3,1.7,1.48,1.48,0,0,0,2.5.2,2.86,2.86,0,0,0,.5-1.7,3.09,3.09,0,0,0-.5-1.9,1.5,1.5,0,0,0-2.4,0A2.86,2.86,0,0,0,635.6,311.6Z" transform="translate(-0.25 -0.25)"/><path class="cls-19" d="M643.2,307v-1.8h2V307Zm0,8.5V308h2v7.5Z" transform="translate(-0.25 -0.25)"/><path class="cls-19" d="M654.4,315.5h-2v-3.8a6.22,6.22,0,0,0-.1-1.6,2.09,2.09,0,0,0-.4-.6,1.45,1.45,0,0,0-.7-.2,1.61,1.61,0,0,0-.9.3,1.56,1.56,0,0,0-.6.8,5.94,5.94,0,0,0-.2,1.7v3.4h-2V308h1.8v1.1a3.28,3.28,0,0,1,2.5-1.3,5,5,0,0,1,1.2.2,1.7,1.7,0,0,1,.8.6,2,2,0,0,1,.4.8,4.89,4.89,0,0,1,.1,1.3v4.8Z" transform="translate(-0.25 -0.25)"/><path class="cls-19" d="M656.6,316l2.3.3a.46.46,0,0,0,.3.5,2,2,0,0,0,.9.2,3.73,3.73,0,0,0,1.2-.2,1,1,0,0,0,.4-.5,2.22,2.22,0,0,0,.1-.9v-1.1a2.63,2.63,0,0,1-2.2,1.2,2.71,2.71,0,0,1-2.4-1.3,4.09,4.09,0,0,1-.7-2.5,4.2,4.2,0,0,1,.9-2.9,2.84,2.84,0,0,1,2.2-1,2.8,2.8,0,0,1,2.3,1.2v-1h1.8v6.7a9.49,9.49,0,0,1-.2,2,1.7,1.7,0,0,1-.6,1,5.42,5.42,0,0,1-1.1.6,4.42,4.42,0,0,1-1.7.2,3.81,3.81,0,0,1-2.7-.7,2.09,2.09,0,0,1-.8-1.6Zm1.8-4.4a2.46,2.46,0,0,0,.5,1.7,1.38,1.38,0,0,0,1.1.6,1.43,1.43,0,0,0,1.2-.6,3.14,3.14,0,0,0,0-3.4,1.5,1.5,0,0,0-2.4,0A2.86,2.86,0,0,0,658.4,311.6Z" transform="translate(-0.25 -0.25)"/></g><circle id="Oval-2" data-name="Oval" class="cls-20" cx="594.35" cy="309.65" r="4.8"/></g><g class="cls-17"><path class="cls-19" d="M573.58,274.9l1.1-.1a3.58,3.58,0,0,0,.4,1.1,2.18,2.18,0,0,0,.9.7,2.77,2.77,0,0,0,1.3.3,3.59,3.59,0,0,0,1.1-.2,1.28,1.28,0,0,0,.7-.5,1.85,1.85,0,0,0,.2-.7,1.45,1.45,0,0,0-.2-.7,1.23,1.23,0,0,0-.8-.5,12.68,12.68,0,0,0-1.5-.4c-.8-.2-1.3-.4-1.7-.5a2.36,2.36,0,0,1-.9-.8,2,2,0,0,1-.3-1.1,1.92,1.92,0,0,1,.4-1.2,2.44,2.44,0,0,1,1.1-.9,4.15,4.15,0,0,1,1.6-.3,4.67,4.67,0,0,1,1.7.3,2,2,0,0,1,1.1.9,2.89,2.89,0,0,1,.4,1.4l-1.1.1a2,2,0,0,0-.6-1.2,2.7,2.7,0,0,0-1.5-.4,2.08,2.08,0,0,0-1.5.4,1.38,1.38,0,0,0-.5.9,1.14,1.14,0,0,0,.3.8,4.35,4.35,0,0,0,1.7.6c.9.2,1.6.4,1.9.5a2,2,0,0,1,1.1.9,2.84,2.84,0,0,1,.4,1.2,2,2,0,0,1-.4,1.3,2.44,2.44,0,0,1-1.1.9,4.31,4.31,0,0,1-1.7.3,6,6,0,0,1-2-.3,2.41,2.41,0,0,1-1.2-1A3.42,3.42,0,0,1,573.58,274.9Z" transform="translate(-0.25 -0.25)"/><path class="cls-19" d="M584.38,276.8l.2.9a2.49,2.49,0,0,1-.8.1,2,2,0,0,1-.9-.2.66.66,0,0,1-.4-.5c0-.2-.1-.6-.1-1.2v-3.6h-.8v-.8h.8V270l1-.6v2.2h1.1v.8h-1.1V276c0,.3,0,.5.1.6s.1.2.2.2.2.1.4.1C584.08,276.8,584.18,276.8,584.38,276.8Z" transform="translate(-0.25 -0.25)"/><path class="cls-19" d="M589.88,276.9a4.89,4.89,0,0,1-1.1.7,3.73,3.73,0,0,1-1.2.2,2.54,2.54,0,0,1-1.6-.5,1.61,1.61,0,0,1-.6-1.3,1.88,1.88,0,0,1,.2-.8,1.47,1.47,0,0,1,.5-.6,1.91,1.91,0,0,1,.8-.3,6.37,6.37,0,0,1,.9-.2,6.09,6.09,0,0,0,1.9-.4v-.3a1.22,1.22,0,0,0-.3-.9,2.14,2.14,0,0,0-1.2-.4,1.61,1.61,0,0,0-1.1.3,1.93,1.93,0,0,0-.5.9l-1-.1a2.22,2.22,0,0,1,.5-1.1,1.8,1.8,0,0,1,.9-.6,5.9,5.9,0,0,1,1.4-.2,4.44,4.44,0,0,1,1.3.2,1.28,1.28,0,0,1,.7.5,1.49,1.49,0,0,1,.3.7c0,.2.1.5.1,1v1.4a8.2,8.2,0,0,0,.1,1.9c.1.3.1.5.3.7h-1.1A1.88,1.88,0,0,1,589.88,276.9Zm-.1-2.3a6.07,6.07,0,0,1-1.7.4,6.37,6.37,0,0,0-.9.2,1.38,1.38,0,0,0-.4.3.75.75,0,0,0-.1.5.91.91,0,0,0,.3.7,1.22,1.22,0,0,0,.9.3,2,2,0,0,0,1.1-.3,2.34,2.34,0,0,0,.7-.7,2.68,2.68,0,0,0,.2-1.1v-.3Z" transform="translate(-0.25 -0.25)"/><path class="cls-19" d="M595.08,276.8l.2.9a2.49,2.49,0,0,1-.8.1,2,2,0,0,1-.9-.2.66.66,0,0,1-.4-.5c0-.2-.1-.6-.1-1.2v-3.6h-.8v-.8h.8V270l1-.6v2.2h1.1v.8h-1.1V276c0,.3,0,.5.1.6s.1.2.2.2.2.1.4.1C594.78,276.8,594.88,276.8,595.08,276.8Z" transform="translate(-0.25 -0.25)"/><path class="cls-19" d="M600.48,277.7v-.9a2.31,2.31,0,0,1-2,1.1,3,3,0,0,1-1-.2,1.28,1.28,0,0,1-.7-.5,1.91,1.91,0,0,1-.3-.8c0-.2-.1-.5-.1-1v-3.9h1.1V275a2.81,2.81,0,0,0,.1,1.1,1.61,1.61,0,0,0,.4.7,1.08,1.08,0,0,0,.8.2,2.92,2.92,0,0,0,.9-.2,1.06,1.06,0,0,0,.6-.7,3.73,3.73,0,0,0,.2-1.2v-3.4h1.1v6.2Z" transform="translate(-0.25 -0.25)"/><path class="cls-19" d="M603,275.8l1-.2a1.91,1.91,0,0,0,.5,1c.3.3.6.3,1.1.3a1.8,1.8,0,0,0,1.1-.3.75.75,0,0,0,.4-.7.86.86,0,0,0-.3-.6,5.34,5.34,0,0,0-1.1-.4,16.56,16.56,0,0,1-1.6-.5,1.34,1.34,0,0,1-.7-.6,1.2,1.2,0,0,1-.2-.8,2.35,2.35,0,0,1,.2-.8c.1-.3.3-.4.5-.6a4.88,4.88,0,0,1,.7-.3,2.77,2.77,0,0,1,.9-.1,5.07,5.07,0,0,1,1.3.2,1.24,1.24,0,0,1,.8.6,3,3,0,0,1,.4,1l-1,.1a1.23,1.23,0,0,0-.4-.8,1.33,1.33,0,0,0-1-.3,2.15,2.15,0,0,0-1,.2.78.78,0,0,0-.2,1,1.38,1.38,0,0,0,.4.3,4.18,4.18,0,0,1,.9.3c.7.2,1.3.4,1.6.5a1.34,1.34,0,0,1,.7.6,1.4,1.4,0,0,1,.3.9,1.69,1.69,0,0,1-.3,1,1.6,1.6,0,0,1-.9.7,5,5,0,0,1-1.3.3,3,3,0,0,1-1.8-.5A2.38,2.38,0,0,1,603,275.8Z" transform="translate(-0.25 -0.25)"/></g><g class="cls-17"><path class="cls-19" d="M97.38,177.5V167.2h7.1v1.7h-5v2.4h4.3V173h-4.4v4.5Z" transform="translate(-0.25 -0.25)"/><path class="cls-19" d="M106.48,169v-1.8h2V169Zm0,8.5V170h2v7.5Z" transform="translate(-0.25 -0.25)"/><path class="cls-19" d="M110.88,177.5V167.2h2v10.3Z" transform="translate(-0.25 -0.25)"/><path class="cls-19" d="M119.58,175.1l2,.3a3.39,3.39,0,0,1-1.2,1.6,3.17,3.17,0,0,1-2,.6,3.24,3.24,0,0,1-2.9-1.3,4.21,4.21,0,0,1-.7-2.6,4,4,0,0,1,1-2.9,3.25,3.25,0,0,1,2.5-1.1,3.31,3.31,0,0,1,2.6,1.1,5.31,5.31,0,0,1,.9,3.4h-5a2.17,2.17,0,0,0,.5,1.4,1.61,1.61,0,0,0,1.1.5,1.14,1.14,0,0,0,.8-.3C119.38,175.8,119.48,175.5,119.58,175.1Zm.1-2a2.23,2.23,0,0,0-.4-1.3,1.16,1.16,0,0,0-1-.4,1.61,1.61,0,0,0-1.1.5,1.7,1.7,0,0,0-.4,1.3h2.9Z" transform="translate(-0.25 -0.25)"/><path class="cls-19" d="M128.08,177.5V167.2h2l4.2,6.9v-6.9h2v10.3h-2.1l-4.2-6.7v6.7Z" transform="translate(-0.25 -0.25)"/><path class="cls-19" d="M138.38,173.7a4.14,4.14,0,0,1,.5-1.9,3.16,3.16,0,0,1,1.4-1.4,4.55,4.55,0,0,1,2-.5,4,4,0,0,1,2.8,6.7,3.76,3.76,0,0,1-2.8,1.1,4.92,4.92,0,0,1-2-.5,3.16,3.16,0,0,1-1.4-1.4A4.65,4.65,0,0,1,138.38,173.7Zm2,.1a2.86,2.86,0,0,0,.5,1.7,1.61,1.61,0,0,0,1.3.6,1.76,1.76,0,0,0,1.3-.6,2.31,2.31,0,0,0,.5-1.7,2.86,2.86,0,0,0-.5-1.7,1.43,1.43,0,0,0-1.2-.6,1.61,1.61,0,0,0-1.3.6A2.2,2.2,0,0,0,140.38,173.8Z" transform="translate(-0.25 -0.25)"/><path class="cls-19" d="M154.78,177.5h-2v-3.8a6.22,6.22,0,0,0-.1-1.6,2.09,2.09,0,0,0-.4-.6,1.45,1.45,0,0,0-.7-.2,1.61,1.61,0,0,0-.9.3,1.34,1.34,0,0,0-.6.7,5.94,5.94,0,0,0-.2,1.7v3.5h-2V170h1.8v1.1a3.28,3.28,0,0,1,2.5-1.3,5,5,0,0,1,1.2.2,2.76,2.76,0,0,1,.8.6,2,2,0,0,1,.4.8,4.89,4.89,0,0,1,.1,1.3v4.8Z" transform="translate(-0.25 -0.25)"/><path class="cls-19" d="M157,174.8v-2h3.9v2Z" transform="translate(-0.25 -0.25)"/><path class="cls-19" d="M162.48,177.5V167.2h7.1v1.7h-5v2.4h4.3V173h-4.3v4.5Z" transform="translate(-0.25 -0.25)"/><path class="cls-19" d="M171.58,169v-1.8h2V169Zm0,8.5V170h2v7.5Z" transform="translate(-0.25 -0.25)"/><path class="cls-19" d="M182.78,177.5h-2v-3.8a6.22,6.22,0,0,0-.1-1.6,2.09,2.09,0,0,0-.4-.6,1.45,1.45,0,0,0-.7-.2,1.61,1.61,0,0,0-.9.3,1.34,1.34,0,0,0-.6.7,5.94,5.94,0,0,0-.2,1.7v3.5h-2V170h1.8v1.1a3.52,3.52,0,0,1,2.6-1.2,5,5,0,0,1,1.2.2,5.55,5.55,0,0,1,.8.6,2,2,0,0,1,.4.8,4.89,4.89,0,0,1,.1,1.3Z" transform="translate(-0.25 -0.25)"/><path class="cls-19" d="M186.68,172.3l-1.8-.3a2.62,2.62,0,0,1,1-1.6,4.2,4.2,0,0,1,2.2-.5,5.25,5.25,0,0,1,2,.3,2.36,2.36,0,0,1,.9.8,3.61,3.61,0,0,1,.3,1.8v2.3a6.18,6.18,0,0,0,.1,1.5,6.89,6.89,0,0,0,.4,1h-2c-.1-.1-.1-.3-.2-.6a.35.35,0,0,0-.1-.2,2.59,2.59,0,0,1-1.1.7,5,5,0,0,1-1.2.2,2.44,2.44,0,0,1-1.8-.6,2.18,2.18,0,0,1-.7-1.6,2,2,0,0,1,.3-1.1,3,3,0,0,1,.8-.8,10.31,10.31,0,0,1,1.6-.5,9.79,9.79,0,0,0,1.9-.5v-.2c0-.4-.1-.7-.3-.8s-.5-.2-1.1-.2a1.55,1.55,0,0,0-.8.2C186.88,171.7,186.78,172,186.68,172.3Zm2.6,1.6a10.38,10.38,0,0,1-1.2.3,5.31,5.31,0,0,0-1.1.3.75.75,0,0,0-.4.7.91.91,0,0,0,.3.7,1.14,1.14,0,0,0,.8.3,1.28,1.28,0,0,0,1-.4,1.79,1.79,0,0,0,.5-.7,2.51,2.51,0,0,0,.1-1Z" transform="translate(-0.25 -0.25)"/><path class="cls-19" d="M193.58,177.5V167.2h2v10.3Z" transform="translate(-0.25 -0.25)"/><path class="cls-19" d="M202.38,177.5V167.2h4.4a7,7,0,0,1,2.4.3,2.34,2.34,0,0,1,1.2,1,3,3,0,0,1,.5,1.6,2.49,2.49,0,0,1-.7,1.9,3.79,3.79,0,0,1-2,1,10.63,10.63,0,0,1,1.1.9,11.16,11.16,0,0,1,1.2,1.7l1.3,2h-2.5l-1.5-2.2a9.51,9.51,0,0,0-1.1-1.5c-.2-.2-.4-.4-.6-.4a2.79,2.79,0,0,0-1-.1h-.4v4.1Zm2.1-5.9H206a8.2,8.2,0,0,0,1.9-.1,2.09,2.09,0,0,0,.6-.4,1.08,1.08,0,0,0,.2-.8,1.14,1.14,0,0,0-.3-.8,1.51,1.51,0,0,0-.8-.4h-3.1Z" transform="translate(-0.25 -0.25)"/><path class="cls-19" d="M217.48,175.1l2,.3a3.39,3.39,0,0,1-1.2,1.6,3.17,3.17,0,0,1-2,.6,3.24,3.24,0,0,1-2.9-1.3,4.21,4.21,0,0,1-.7-2.6,4,4,0,0,1,1-2.9,3.25,3.25,0,0,1,2.5-1.1,3.31,3.31,0,0,1,2.6,1.1,5.31,5.31,0,0,1,.9,3.4h-5a2.17,2.17,0,0,0,.5,1.4,1.61,1.61,0,0,0,1.1.5,1.14,1.14,0,0,0,.8-.3C217.18,175.8,217.38,175.5,217.48,175.1Zm.1-2a2.23,2.23,0,0,0-.4-1.3,1.16,1.16,0,0,0-1-.4,1.61,1.61,0,0,0-1.1.5,1.7,1.7,0,0,0-.4,1.3h2.9Z" transform="translate(-0.25 -0.25)"/><path class="cls-19" d="M223.48,170v7.2a8.09,8.09,0,0,1-.2,2,1.6,1.6,0,0,1-.7.9,2.9,2.9,0,0,1-1.4.3,1.27,1.27,0,0,1-.6-.1,1.85,1.85,0,0,1-.7-.2l.3-1.7h.5a.75.75,0,0,0,.5-.1l.3-.3a8,8,0,0,0,.1-1.1V170Zm-2-1v-1.8h2V169Z" transform="translate(-0.25 -0.25)"/><path class="cls-19" d="M230.28,175.1l2,.3a3.39,3.39,0,0,1-1.2,1.6,3.17,3.17,0,0,1-2,.6,3.24,3.24,0,0,1-2.9-1.3,4.21,4.21,0,0,1-.7-2.6,4,4,0,0,1,1-2.9,3.25,3.25,0,0,1,2.5-1.1,3.31,3.31,0,0,1,2.6,1.1,5.31,5.31,0,0,1,.9,3.4h-5a2.17,2.17,0,0,0,.5,1.4,1.61,1.61,0,0,0,1.1.5,1.14,1.14,0,0,0,.8-.3C230,175.8,230.18,175.5,230.28,175.1Zm.1-2a2.23,2.23,0,0,0-.4-1.3,1.16,1.16,0,0,0-1-.4,1.61,1.61,0,0,0-1.1.5,1.7,1.7,0,0,0-.4,1.3h2.9Z" transform="translate(-0.25 -0.25)"/><path class="cls-19" d="M240.78,172.2l-1.9.4a1.88,1.88,0,0,0-.4-.9,1.22,1.22,0,0,0-.9-.3,1.66,1.66,0,0,0-1.2.5,2.5,2.5,0,0,0-.4,1.7,3.16,3.16,0,0,0,.4,1.9,1.35,1.35,0,0,0,1.2.5,1.22,1.22,0,0,0,.9-.3,2.26,2.26,0,0,0,.5-1.1l1.9.3a3.12,3.12,0,0,1-1.2,2,3.33,3.33,0,0,1-2.3.7,3.25,3.25,0,0,1-2.6-1,4.22,4.22,0,0,1-1-2.9,4,4,0,0,1,1-2.9,3.39,3.39,0,0,1,2.6-1,3.8,3.8,0,0,1,2.2.6A2.91,2.91,0,0,1,240.78,172.2Z" transform="translate(-0.25 -0.25)"/><path class="cls-19" d="M246.18,170v1.6h-1.4v4.1a.22.22,0,0,0,.2.2.37.37,0,0,0,.3.1,4.5,4.5,0,0,0,.8-.2l.2,1.5a4.15,4.15,0,0,1-1.6.3,3,3,0,0,1-1-.2,1,1,0,0,1-.6-.5,3.39,3.39,0,0,1-.3-.8c0-.2-.1-.7-.1-1.4v-3.1h-.9V170h.9v-1.5l2-1.2v2.6h1.5Z" transform="translate(-0.25 -0.25)"/><path class="cls-19" d="M247.88,169v-1.8h2V169Zm0,8.5V170h2v7.5Z" transform="translate(-0.25 -0.25)"/><path class="cls-19" d="M251.78,173.7a4.14,4.14,0,0,1,.5-1.9,3.16,3.16,0,0,1,1.4-1.4,4.55,4.55,0,0,1,2-.5,4,4,0,0,1,2.8,6.7,3.76,3.76,0,0,1-2.8,1.1,4.92,4.92,0,0,1-2-.5,3.16,3.16,0,0,1-1.4-1.4A4.65,4.65,0,0,1,251.78,173.7Zm2.1.1a2.86,2.86,0,0,0,.5,1.7,1.61,1.61,0,0,0,1.3.6,1.76,1.76,0,0,0,1.3-.6,2.31,2.31,0,0,0,.5-1.7,2.86,2.86,0,0,0-.5-1.7,1.61,1.61,0,0,0-1.3-.6,1.76,1.76,0,0,0-1.3.6A2.18,2.18,0,0,0,253.88,173.8Z" transform="translate(-0.25 -0.25)"/><path class="cls-19" d="M268.28,177.5h-2v-3.8a6.22,6.22,0,0,0-.1-1.6,2.09,2.09,0,0,0-.4-.6,1.45,1.45,0,0,0-.7-.2,1.61,1.61,0,0,0-.9.3,1.34,1.34,0,0,0-.6.7,5.94,5.94,0,0,0-.2,1.7v3.5h-2V170h1.8v1.1a3.28,3.28,0,0,1,2.5-1.3,5,5,0,0,1,1.2.2,2.76,2.76,0,0,1,.8.6,2,2,0,0,1,.4.8,4.89,4.89,0,0,1,.1,1.3v4.8Z" transform="translate(-0.25 -0.25)"/><path class="cls-19" d="M275.08,177.5V167.2h4.4a7,7,0,0,1,2.4.3,2.34,2.34,0,0,1,1.2,1,3,3,0,0,1,.5,1.6,2.49,2.49,0,0,1-.7,1.9,3.79,3.79,0,0,1-2,1,10.63,10.63,0,0,1,1.1.9,11.16,11.16,0,0,1,1.2,1.7l1.3,2H282l-1.5-2.2a9.51,9.51,0,0,0-1.1-1.5c-.2-.2-.4-.4-.6-.4a2.79,2.79,0,0,0-1-.1h-.4v4.1Zm2.1-5.9h1.5a8.2,8.2,0,0,0,1.9-.1,2.09,2.09,0,0,0,.6-.4,1.08,1.08,0,0,0,.2-.8,1.14,1.14,0,0,0-.3-.8,1.51,1.51,0,0,0-.8-.4h-3.1v2.5Z" transform="translate(-0.25 -0.25)"/><path class="cls-19" d="M290.18,175.1l2,.3A3.39,3.39,0,0,1,291,177a3.17,3.17,0,0,1-2,.6,3.24,3.24,0,0,1-2.9-1.3,4.21,4.21,0,0,1-.7-2.6,4,4,0,0,1,1-2.9,3.25,3.25,0,0,1,2.5-1.1,3.31,3.31,0,0,1,2.6,1.1,5.31,5.31,0,0,1,.9,3.4h-5a2.17,2.17,0,0,0,.5,1.4,1.61,1.61,0,0,0,1.1.5,1.14,1.14,0,0,0,.8-.3C289.88,175.8,290.08,175.5,290.18,175.1Zm.1-2a2.23,2.23,0,0,0-.4-1.3,1.16,1.16,0,0,0-1-.4,1.61,1.61,0,0,0-1.1.5,1.7,1.7,0,0,0-.4,1.3h2.9Z" transform="translate(-0.25 -0.25)"/><path class="cls-19" d="M293.58,175.4l2-.3a1.93,1.93,0,0,0,.5.9,1.61,1.61,0,0,0,1.1.3,2.13,2.13,0,0,0,1.2-.3.55.55,0,0,0,.3-.5.6.6,0,0,0-.1-.4,1.54,1.54,0,0,0-.7-.3,10.87,10.87,0,0,1-3-1,2,2,0,0,1-.9-1.7,2.09,2.09,0,0,1,.8-1.6,3.81,3.81,0,0,1,2.4-.7,4.62,4.62,0,0,1,2.3.5,2.38,2.38,0,0,1,1,1.5l-1.9.3a1.16,1.16,0,0,0-.5-.7c-.2-.2-.5-.2-1-.2a2.68,2.68,0,0,0-1.1.2.52.52,0,0,0-.2.4.76.76,0,0,0,.2.4,17,17,0,0,0,1.8.6,5.8,5.8,0,0,1,2.2.9,1.89,1.89,0,0,1,.6,1.5,2.27,2.27,0,0,1-.9,1.8,3.73,3.73,0,0,1-2.5.7,4.27,4.27,0,0,1-2.4-.6A2.49,2.49,0,0,1,293.58,175.4Z" transform="translate(-0.25 -0.25)"/><path class="cls-19" d="M302.58,170h1.8v1.1a2.19,2.19,0,0,1,1-.9,3.26,3.26,0,0,1,1.4-.4,2.7,2.7,0,0,1,2.2,1,4.1,4.1,0,0,1,.9,2.8,4.37,4.37,0,0,1-.9,2.9,2.7,2.7,0,0,1-2.2,1,3.59,3.59,0,0,1-1.1-.2,3.32,3.32,0,0,1-1.1-.8v3.8h-2V170Zm1.9,3.6a3.31,3.31,0,0,0,.5,1.9,1.43,1.43,0,0,0,1.2.6,1.25,1.25,0,0,0,1.1-.6,3,3,0,0,0,.5-1.8,2.46,2.46,0,0,0-.5-1.7,1.5,1.5,0,0,0-2.4,0A3.41,3.41,0,0,0,304.48,173.6Z" transform="translate(-0.25 -0.25)"/><path class="cls-19" d="M311.38,173.7a4.14,4.14,0,0,1,.5-1.9,3.16,3.16,0,0,1,1.4-1.4,4.55,4.55,0,0,1,2-.5,4,4,0,0,1,2.8,6.7,3.76,3.76,0,0,1-2.8,1.1,4.92,4.92,0,0,1-2-.5,3.16,3.16,0,0,1-1.4-1.4A3.64,3.64,0,0,1,311.38,173.7Zm2,.1a2.86,2.86,0,0,0,.5,1.7,1.61,1.61,0,0,0,1.3.6,1.76,1.76,0,0,0,1.3-.6,2.31,2.31,0,0,0,.5-1.7,2.86,2.86,0,0,0-.5-1.7,1.61,1.61,0,0,0-1.3-.6,1.76,1.76,0,0,0-1.3.6A2.65,2.65,0,0,0,313.38,173.8Z" transform="translate(-0.25 -0.25)"/><path class="cls-19" d="M327.78,177.5h-2v-3.8a6.22,6.22,0,0,0-.1-1.6,2.09,2.09,0,0,0-.4-.6,1.45,1.45,0,0,0-.7-.2,1.61,1.61,0,0,0-.9.3,1.34,1.34,0,0,0-.6.7,5.94,5.94,0,0,0-.2,1.7v3.5h-2V170h1.8v1.1a3.28,3.28,0,0,1,2.5-1.3,5,5,0,0,1,1.2.2,2.76,2.76,0,0,1,.8.6,2,2,0,0,1,.4.8,4.89,4.89,0,0,1,.1,1.3v4.8Z" transform="translate(-0.25 -0.25)"/><path class="cls-19" d="M329.48,175.4l2-.3a1.93,1.93,0,0,0,.5.9,1.61,1.61,0,0,0,1.1.3,2.13,2.13,0,0,0,1.2-.3.55.55,0,0,0,.3-.5.6.6,0,0,0-.1-.4,1.54,1.54,0,0,0-.7-.3,10.87,10.87,0,0,1-3-1,2,2,0,0,1-.9-1.7,2.09,2.09,0,0,1,.8-1.6,3.81,3.81,0,0,1,2.4-.7,4.62,4.62,0,0,1,2.3.5,2.38,2.38,0,0,1,1,1.5l-1.9.3a1.16,1.16,0,0,0-.5-.7c-.2-.2-.5-.2-1-.2a2.68,2.68,0,0,0-1.1.2.52.52,0,0,0-.2.4.76.76,0,0,0,.2.4,17,17,0,0,0,1.8.6,5.8,5.8,0,0,1,2.2.9,1.89,1.89,0,0,1,.6,1.5,2.27,2.27,0,0,1-.9,1.8,3.73,3.73,0,0,1-2.5.7,4.27,4.27,0,0,1-2.4-.6A3.35,3.35,0,0,1,329.48,175.4Z" transform="translate(-0.25 -0.25)"/><path class="cls-19" d="M342.88,175.1l2,.3a3.39,3.39,0,0,1-1.2,1.6,3.17,3.17,0,0,1-2,.6,3.24,3.24,0,0,1-2.9-1.3,4.21,4.21,0,0,1-.7-2.6,4,4,0,0,1,1-2.9,3.25,3.25,0,0,1,2.5-1.1,3.31,3.31,0,0,1,2.6,1.1,5.31,5.31,0,0,1,.9,3.4h-5a2.17,2.17,0,0,0,.5,1.4,1.61,1.61,0,0,0,1.1.5,1.14,1.14,0,0,0,.8-.3C342.68,175.8,342.78,175.5,342.88,175.1Zm.1-2a2.23,2.23,0,0,0-.4-1.3,1.16,1.16,0,0,0-1-.4,1.61,1.61,0,0,0-1.1.5,1.7,1.7,0,0,0-.4,1.3H343Z" transform="translate(-0.25 -0.25)"/><path class="cls-19" d="M351.18,174.8v-2h3.9v2Z" transform="translate(-0.25 -0.25)"/><path class="cls-19" d="M367.18,175.7v1.8h-6.9a4.79,4.79,0,0,1,.7-2,18.3,18.3,0,0,1,2.2-2.5,10.11,10.11,0,0,0,1.6-1.7,1.92,1.92,0,0,0,.4-1.2,1.16,1.16,0,0,0-.4-1,1.53,1.53,0,0,0-1-.4,1.28,1.28,0,0,0-1,.4,1.9,1.9,0,0,0-.4,1.2l-2-.2a3,3,0,0,1,1.1-2.3,3.51,3.51,0,0,1,2.3-.7,3.65,3.65,0,0,1,2.4.8,2.52,2.52,0,0,1,.9,2,5.07,5.07,0,0,1-.2,1.3,4.58,4.58,0,0,1-.8,1.3,15.3,15.3,0,0,1-1.3,1.3,8.25,8.25,0,0,1-1.2,1.1c-.2.1-.3.4-.4.5h4Z" transform="translate(-0.25 -0.25)"/><path class="cls-19" d="M373.68,177.5V167.2h3.1l1.9,7,1.8-7h3.1v10.3h-1.9v-8.1l-2,8.1h-2l-2-8.1v8.1Z" transform="translate(-0.25 -0.25)"/><path class="cls-19" d="M385.68,173.7a4.14,4.14,0,0,1,.5-1.9,3.16,3.16,0,0,1,1.4-1.4,4.55,4.55,0,0,1,2-.5,4,4,0,0,1,2.8,6.7,3.76,3.76,0,0,1-2.8,1.1,4.92,4.92,0,0,1-2-.5,3.16,3.16,0,0,1-1.4-1.4A3.64,3.64,0,0,1,385.68,173.7Zm2,.1a2.86,2.86,0,0,0,.5,1.7,1.61,1.61,0,0,0,1.3.6,1.76,1.76,0,0,0,1.3-.6,2.31,2.31,0,0,0,.5-1.7,2.86,2.86,0,0,0-.5-1.7,1.61,1.61,0,0,0-1.3-.6,1.76,1.76,0,0,0-1.3.6A2.65,2.65,0,0,0,387.68,173.8Z" transform="translate(-0.25 -0.25)"/><path class="cls-19" d="M395.28,177.5v-2h2v2Z" transform="translate(-0.25 -0.25)"/><path class="cls-19" d="M404.08,177.5V167.2h7.6v1.7h-5.6v2.3h5.2v1.7h-5.2v2.8h5.8v1.8Z" transform="translate(-0.25 -0.25)"/><path class="cls-19" d="M413.08,177.5l2.7-3.8-2.5-3.7h2.4l1.3,2.1,1.4-2.1h2.3l-2.5,3.5,2.8,3.9h-2.4l-1.5-2.3-1.5,2.3h-2.5Z" transform="translate(-0.25 -0.25)"/><path class="cls-19" d="M425.88,170v1.6h-1.4v4.1a.22.22,0,0,0,.2.2.37.37,0,0,0,.3.1,4.5,4.5,0,0,0,.8-.2l.2,1.5a4.15,4.15,0,0,1-1.6.3,3,3,0,0,1-1-.2,1,1,0,0,1-.6-.5,3.39,3.39,0,0,1-.3-.8c0-.2-.1-.7-.1-1.4v-3.1h-.9V170h.9v-1.5l2-1.2v2.6h1.5Z" transform="translate(-0.25 -0.25)"/><path class="cls-19" d="M427.68,177.5v-2h2v2Z" transform="translate(-0.25 -0.25)"/></g></g></g><path id="Shape-27" data-name="Shape" class="cls-22" d="M20.8,1H762.9a19.85,19.85,0,0,1,19.8,19.8V61.6H1V20.8A19.78,19.78,0,0,1,20.8,1Z" transform="translate(-0.25 -0.25)"/><g id="Group-13"><g id="Group-12"><polygon id="Shape-28" data-name="Shape" class="cls-23" points="620.96 16.05 650.76 16.05 650.76 45.85 620.96 45.85 620.96 16.05"/><g id="top-nav---check"><polygon id="Shape-29" data-name="Shape" points="644.46 23.79 632.96 34.59 627.46 28.98 625.56 30.79 632.86 38.28 634.76 36.48 646.26 25.68 644.46 23.79"/></g></g><g id="Group-11"><polygon id="Shape-30" data-name="Shape" class="cls-23" points="671.8 16.05 701.6 16.05 701.6 45.85 671.8 45.85 671.8 16.05"/><g id="top-van---filter"><polygon id="Shape-31" data-name="Shape" points="694.3 23.36 679.11 23.36 685.8 30.06 685.8 36.76 685.8 38.56 687.61 36.76 687.61 30.06 694.3 23.36"/></g></g><g id="Group-9"><polygon id="Shape-32" data-name="Shape" class="cls-23" points="722.63 16.05 752.43 16.05 752.43 45.85 722.63 45.85 722.63 16.05"/><g id="top-nav---light-bulb"><path id="Shape-33" data-name="Shape" d="M735.58,34.82h4.5a.7.7,0,1,1,0,1.4h-4.5a.7.7,0,1,1,0-1.4Z" transform="translate(-0.25 -0.25)"/><path id="Shape-34" data-name="Shape" d="M735.58,37h4.5a.7.7,0,1,1,0,1.4h-4.5a.7.7,0,1,1,0-1.4Z" transform="translate(-0.25 -0.25)"/><path id="Shape-35" data-name="Shape" d="M736.38,39.32a1.43,1.43,0,0,0,1.5,1.3,1.51,1.51,0,0,0,1.5-1.3Z" transform="translate(-0.25 -0.25)"/><path id="Shape-36" data-name="Shape" d="M737.78,21.82h0a5.87,5.87,0,0,0-5.8,5.8v.2a6.47,6.47,0,0,0,.4,2,5.85,5.85,0,0,0,1,1.7,19.66,19.66,0,0,1,1.4,2.2c0,.1.2.2.4.2h5.3a.52.52,0,0,0,.4-.2,8,8,0,0,1,1.4-2.2,5.85,5.85,0,0,0,1-1.7,6.47,6.47,0,0,0,.4-2v-.2A6,6,0,0,0,737.78,21.82Zm4.5,5.9a4.53,4.53,0,0,1-.3,1.6,3.17,3.17,0,0,1-.8,1.2,8.58,8.58,0,0,0-1.3,2h-4.2a13.73,13.73,0,0,0-1.3-2,4.73,4.73,0,0,1-.7-1.2,4.15,4.15,0,0,1-.3-1.6v-.1a4.46,4.46,0,0,1,4.5-4.4h0a4.6,4.6,0,0,1,4.5,4.4l-.1.1Z" transform="translate(-0.25 -0.25)"/></g></g><g id="Group-10"><polygon id="Shape-37" data-name="Shape" class="cls-23" points="570.13 16.05 599.93 16.05 599.93 45.85 570.13 45.85 570.13 16.05"/><g id="top-nav---search"><path id="Shape-38" data-name="Shape" d="M593.74,37.37l-2.8-2.8a1.49,1.49,0,0,0-1.4-.4l-1-1a6.56,6.56,0,0,0,1.4-4.1,6.7,6.7,0,1,0-6.7,6.7,6.77,6.77,0,0,0,4.1-1.4l1,1a1.49,1.49,0,0,0,.4,1.4l2.8,2.8a1.46,1.46,0,0,0,2.2,0A1.57,1.57,0,0,0,593.74,37.37Zm-10.6-2.9a5.4,5.4,0,1,1,5.4-5.4A5.38,5.38,0,0,1,583.14,34.47Z" transform="translate(-0.25 -0.25)"/></g></g></g><path id="Shape-39" data-name="Shape" class="cls-24" d="M36.7,40a1.9,1.9,0,1,1-1.9,1.9A2,2,0,0,1,36.7,40Zm10.6,0a1.9,1.9,0,1,1-1.9,1.9A2,2,0,0,1,47.3,40Zm10.6,0A1.9,1.9,0,1,1,56,41.9,2,2,0,0,1,57.9,40ZM36.7,29.4a1.9,1.9,0,0,1,1.9,1.9,1.84,1.84,0,0,1-1.9,1.9,1.9,1.9,0,0,1,0-3.8Zm10.6,0a1.9,1.9,0,0,1,1.9,1.9,1.84,1.84,0,0,1-1.9,1.9,1.9,1.9,0,1,1,0-3.8Zm10.6,0a1.9,1.9,0,0,1,1.9,1.9,1.84,1.84,0,0,1-1.9,1.9,1.9,1.9,0,0,1,0-3.8ZM36.7,18.8a1.9,1.9,0,0,1,1.9,1.9,1.84,1.84,0,0,1-1.9,1.9,1.9,1.9,0,0,1,0-3.8Zm10.6,0a1.9,1.9,0,0,1,1.9,1.9,1.84,1.84,0,0,1-1.9,1.9,1.9,1.9,0,1,1,0-3.8Zm10.6,0a1.9,1.9,0,0,1,1.9,1.9,1.84,1.84,0,0,1-1.9,1.9,1.9,1.9,0,1,1,0-3.8Z" transform="translate(-0.25 -0.25)"/><g id="Helios-Complete-Logo"><path id="Shape-40" data-name="Shape" class="cls-25" d="M139.4,24.33a8.68,8.68,0,0,0-4.2,1,7.75,7.75,0,0,0-3.9,7.2,8.68,8.68,0,0,0,1,4.2,7.75,7.75,0,0,0,7.2,3.9,8.38,8.38,0,0,0,3.8-.8,7.22,7.22,0,0,0,2.9-2l-2.1-2.2a5,5,0,0,1-1.9,1.3,5.93,5.93,0,0,1-2.3.5,4.53,4.53,0,0,1-4.6-3.6h11.8v-1.2c0-2.6-.6-4.7-1.9-6.1A7.53,7.53,0,0,0,139.4,24.33Zm-4.2,6.9a4.21,4.21,0,0,1,1.4-2.8,3.83,3.83,0,0,1,2.9-1,3.91,3.91,0,0,1,2.9,1.1,3.63,3.63,0,0,1,1.2,2.8h-8.4Z" transform="translate(-0.25 -0.25)"/><path id="Shape-41" data-name="Shape" class="cls-25" d="M197.3,33.23a5.75,5.75,0,0,0-1.9-1.5,23.07,23.07,0,0,0-2.8-1,9.17,9.17,0,0,1-2.3-.9,1.27,1.27,0,0,1-.8-1.1,1.38,1.38,0,0,1,.6-1.1,2.93,2.93,0,0,1,1.6-.4,9.26,9.26,0,0,1,2.3.4,10.44,10.44,0,0,1,2.4,1.1l1.4-2.8a9.6,9.6,0,0,0-2.7-1.3,8.28,8.28,0,0,0-3.1-.4,7.39,7.39,0,0,0-4.3,1.2A4,4,0,0,0,186,29a3.75,3.75,0,0,0,.8,2.5,4.89,4.89,0,0,0,1.8,1.4,13.38,13.38,0,0,0,2.6.9,11.72,11.72,0,0,1,2.4.9,1.34,1.34,0,0,1,.8,1.3,1.08,1.08,0,0,1-.7,1.1,3.29,3.29,0,0,1-1.7.4,8.68,8.68,0,0,1-2.8-.5,7.64,7.64,0,0,1-2.6-1.5l-1.3,2.7a11.09,11.09,0,0,0,3,1.7,11.33,11.33,0,0,0,3.6.6,7.2,7.2,0,0,0,4.5-1.3,4,4,0,0,0,1.8-3.6A6.49,6.49,0,0,0,197.3,33.23Z" transform="translate(-0.25 -0.25)"/><path id="Shape-42" data-name="Shape" class="cls-26" d="M174.9,24.53a8.26,8.26,0,0,0-8.4,8.1,8.46,8.46,0,0,0,16.9,0A8.41,8.41,0,0,0,174.9,24.53Zm0,13.1a5.21,5.21,0,0,1-5.3-5h0a5.22,5.22,0,0,1,10.4,0A5,5,0,0,1,174.9,37.63Z" transform="translate(-0.25 -0.25)"/><path id="Shape-43" data-name="Shape" class="cls-25" d="M126.8,26a6.13,6.13,0,0,0-4.3-1.7c-2.8,0-4.7,1.1-5.8,3.2v-7.8l-3.9-1.4v22.2h3.9v-7.9a4.43,4.43,0,0,1,1.1-3.3,4,4,0,0,1,3.1-1.3,3.54,3.54,0,0,1,2.6,1,3.78,3.78,0,0,1,1,2.7v8.8h3.9v-10A6.54,6.54,0,0,0,126.8,26Z" transform="translate(-0.25 -0.25)"/><polygon id="Shape-44" data-name="Shape" class="cls-25" points="150.35 40.28 154.25 40.28 154.25 19.48 150.35 18.08 150.35 40.28"/><polygon id="Shape-45" data-name="Shape" class="cls-25" points="159.25 40.28 163.15 40.28 163.15 25.68 159.25 24.28 159.25 40.28"/><path id="Shape-46" data-name="Shape" class="cls-26" d="M81.7,34.33a12.34,12.34,0,0,1-.7-4.2,11,11,0,1,1,22,0,10.13,10.13,0,0,1-.8,4.2h2.9a15.23,15.23,0,0,0,.6-4.2c-.1-7.8-6.2-14.2-13.7-14.2a14.11,14.11,0,0,0-13.8,14.2,14.71,14.71,0,0,0,.6,4.2Z" transform="translate(-0.25 -0.25)"/><path id="Shape-47" data-name="Shape" class="cls-26" d="M106.2,38.63H77.7a1.36,1.36,0,1,1-.3-2.7h28.8a1.35,1.35,0,0,1,1.4,1.3,1.4,1.4,0,0,1-1.2,1.4Z" transform="translate(-0.25 -0.25)"/><path id="Shape-48" data-name="Shape" class="cls-27" d="M100.5,39.93H83.3a1.35,1.35,0,0,0-1.4,1.3,1.4,1.4,0,0,0,1.2,1.4h17.4a1.35,1.35,0,0,0,1.4-1.3,1.4,1.4,0,0,0-1.2-1.4h-.2" transform="translate(-0.25 -0.25)"/><path id="Shape-49" data-name="Shape" class="cls-28" d="M95,43.83H89a1.36,1.36,0,0,0-.3,2.7H95A1.43,1.43,0,0,0,96.3,45a1.61,1.61,0,0,0-1.3-1.2" transform="translate(-0.25 -0.25)"/><path id="Shape-50" data-name="Shape" class="cls-26" d="M211.8,24.43h53.9a8.2,8.2,0,0,1,0,16.4H211.8a8.2,8.2,0,0,1,0-16.4Z" transform="translate(-0.25 -0.25)"/><path id="Shape-51" data-name="Shape" class="cls-18" d="M211.5,32.83a2.9,2.9,0,0,1,2.9-2.9h.2a2.48,2.48,0,0,1,2.5,1.4l-1.3.7a1.34,1.34,0,0,0-1.3-.8,1.45,1.45,0,0,0-1.5,1.4v.2a1.46,1.46,0,0,0,1.3,1.6h.2a1.56,1.56,0,0,0,1.3-.8l1.3.7a2.66,2.66,0,0,1-2.5,1.4,2.91,2.91,0,0,1-3.1-2.7Z" transform="translate(-0.25 -0.25)"/><path id="Shape-52" data-name="Shape" class="cls-18" d="M218.1,32.83a3.11,3.11,0,1,1,3.3,2.9h-.2a2.91,2.91,0,0,1-3.1-2.7Zm4.6,0a1.4,1.4,0,0,0-2.8-.2v.2a1.4,1.4,0,1,0,2.8.2Z" transform="translate(-0.25 -0.25)"/><path id="Shape-53" data-name="Shape" class="cls-18" d="M235.4,32.43v3.2h-1.6v-3c0-.9-.4-1.3-1.1-1.3a1.32,1.32,0,0,0-1.3,1.5v2.8h-1.6v-3c0-.9-.4-1.3-1.1-1.3s-1.2.5-1.2,1.5v2.8h-1.6v-5.7h1.6v.7a2.34,2.34,0,0,1,1.8-.8,2.46,2.46,0,0,1,1.9.9,2.52,2.52,0,0,1,2-.9C234.5,29.93,235.4,30.63,235.4,32.43Z" transform="translate(-0.25 -0.25)"/><path id="Shape-54" data-name="Shape" class="cls-18" d="M243.5,32.83a2.78,2.78,0,0,1-2.6,2.9h-.2A2.19,2.19,0,0,1,239,35v2.6h-1.6v-7.7H239v.7a2.34,2.34,0,0,1,1.8-.8,2.78,2.78,0,0,1,2.8,2.7A.37.37,0,0,0,243.5,32.83Zm-1.7,0a1.46,1.46,0,0,0-2.9-.3v.3a1.46,1.46,0,0,0,2.9.3A.19.19,0,0,0,241.8,32.83Z" transform="translate(-0.25 -0.25)"/><polygon id="Shape-55" data-name="Shape" class="cls-18" points="244.85 27.58 246.45 27.58 246.45 35.38 244.85 35.38 244.85 27.58"/><path id="Shape-56" data-name="Shape" class="cls-18" d="M254.2,33.23h-4.3a1.51,1.51,0,0,0,1.6,1.1,2.39,2.39,0,0,0,1.4-.5l.9.9a2.94,2.94,0,0,1-2.3.9,2.87,2.87,0,0,1-3.2-2.9,2.82,2.82,0,0,1,2.8-2.9h.2a2.72,2.72,0,0,1,2.9,2.6v.8Zm-4.3-.9h2.8a1.44,1.44,0,0,0-1.6-1.2A1.49,1.49,0,0,0,249.9,32.33Z" transform="translate(-0.25 -0.25)"/><path id="Shape-57" data-name="Shape" class="cls-18" d="M259.5,35.33a2.2,2.2,0,0,1-1.3.4,1.9,1.9,0,0,1-2.1-1.6v-2.7h-.9v-1.3h.9v-1.4h1.6v1.4h1.4v1.3h-1.4v2.3a.56.56,0,0,0,.6.7h.1a1.85,1.85,0,0,0,.7-.2Z" transform="translate(-0.25 -0.25)"/><path id="Shape-58" data-name="Shape" class="cls-18" d="M266.3,33.23H262a1.51,1.51,0,0,0,1.6,1.1,2.39,2.39,0,0,0,1.4-.5l.9.9a2.94,2.94,0,0,1-2.3.9,2.87,2.87,0,0,1-3.2-2.9,2.82,2.82,0,0,1,2.8-2.9h.2a2.72,2.72,0,0,1,2.9,2.6v.8Zm-4.3-.9h2.8a1.44,1.44,0,0,0-1.6-1.2A1.49,1.49,0,0,0,262,32.33Z" transform="translate(-0.25 -0.25)"/></g></g></g></svg>