<svg xmlns="http://www.w3.org/2000/svg" width="128" height="128" viewBox="0 0 128 128"><path d="M77.3,69.78l1.25-.06,3.84.73a18.73,18.73,0,0,1,15.1,18.49v35.94h-67V88.94A18.74,18.74,0,0,1,45.6,70.45l5.15-.63a23.4,23.4,0,0,0,11.69,6.07l.62.13h1.88l.62-.13A23.3,23.3,0,0,0,77.3,69.78Zm-27-49.35a20.91,20.91,0,0,0-8.83,12.12,26.45,26.45,0,0,0-.13,10.3,10,10,0,0,0-.94,4.51,17.85,17.85,0,0,1-6.59,2.77h-.62q-11.46-2.39-15-16.44-3.71-6.48-.62-9.08a20.24,20.24,0,0,1-.49-10.53c.64-5.16,9.37-10.52,12-10.84s3.66-.19,11.2,2.81a16,16,0,0,1,9.61,8,20.19,20.19,0,0,1,.41,6.39Zm-4,43.6-1.39.16-.42.07A25,25,0,0,0,24.28,88.92v16.36H0V69.35A18.74,18.74,0,0,1,15.1,50.86l5.15-.6a23.46,23.46,0,0,0,11.68,6.05l.63.13h1.87l.63-.13A24.65,24.65,0,0,0,42,53.79c.27.62.58,1.24.92,1.87A35.76,35.76,0,0,0,46.27,64ZM87.6,47.37a9.9,9.9,0,0,0-.93-4.51,26.33,26.33,0,0,0-.22-10.61l-.12-.53-.21-.51a19.15,19.15,0,0,0-8.16-9,20.19,20.19,0,0,1,.12-8.12c.63-5.16,9.37-10.52,12-10.84s3.66-.19,11.2,2.81a16,16,0,0,1,9.61,8,19.94,19.94,0,0,1-.46,10.56q3.09,2.59-.62,9.08-3.54,14.06-15,16.44h-.62a17.82,17.82,0,0,1-6.59-2.75ZM86,53.79A24.71,24.71,0,0,0,93,56.31l.62.13h1.87l.63-.13a23.5,23.5,0,0,0,11.74-6.11l1.25-.06,3.83.72A18.74,18.74,0,0,1,128,69.35v36H103.72V88.94A25,25,0,0,0,83.54,64.27l-1.75-.33a35.64,35.64,0,0,0,3.33-8.26c.34-.64.64-1.27.91-1.89Zm-26.46-31c2.62-.31,3.66-.19,11.21,2.81a16,16,0,0,1,9.6,8,20,20,0,0,1-.45,10.56q3.07,2.6-.63,9.08-3.54,14.06-15,16.43H63.7q-11.45-2.39-15-16.43-3.7-6.48-.63-9.08a20.24,20.24,0,0,1-.48-10.53c.61-5.15,9.34-10.51,12-10.83Z" fill="#fff" fillRule="evenodd"/></svg>