<svg xmlns="http://www.w3.org/2000/svg" width="128" height="128" viewBox="0 0 128 128"><path d="M65.73,13.84V55.35a3.46,3.46,0,0,0,3.46,3.46H128v41.51a6.92,6.92,0,0,1-6.92,6.92H6.92A6.92,6.92,0,0,1,0,100.32V20.76a6.92,6.92,0,0,1,6.92-6.92ZM10.38,114.07H117.62v6.23a7.76,7.76,0,0,1-7.8,7.7H18.18a7.76,7.76,0,0,1-7.8-7.71h0ZM31.14,62.2V38.05A22.49,22.49,0,1,0,55.29,62.2Zm23.61-6.91a22.54,22.54,0,0,0-16.7-16.7v16.7Zm11,20.82V83h41.51V76.11Zm0,13.84v6.91H93.41V90ZM76.11,20.76H83a3.46,3.46,0,0,1,3.46,3.46V48.43A3.46,3.46,0,0,1,83,51.89H76.11a3.46,3.46,0,0,1-3.46-3.46V24.22A3.46,3.46,0,0,1,76.11,20.76ZM96.86,10.38h6.92a3.46,3.46,0,0,1,3.46,3.46V48.43a3.46,3.46,0,0,1-3.46,3.46H96.86a3.45,3.45,0,0,1-3.45-3.46V13.84A3.45,3.45,0,0,1,96.86,10.38ZM117.62,0h6.92A3.46,3.46,0,0,1,128,3.46v45a3.46,3.46,0,0,1-3.46,3.46h-6.92a3.46,3.46,0,0,1-3.46-3.46v-45A3.46,3.46,0,0,1,117.62,0Z" fill="#fff" fill-rule="evenodd"/></svg>